M48
INCH,TZ
T01C0.013750
T02C0.029550
T03C0.032000
T04C0.039200
T05C0.043300
T06C0.059100
T07C0.068900
T08C0.086600
T09C0.118100
%
T01
X36222Y28490
X36252Y29888
X36341Y27988
X36685Y28195
X11520Y29521
X11520Y29127
X11520Y28733
X11520Y28340
X17516Y2657
X17516Y2263
X19049Y17950
X19049Y17635
X19049Y17320
X19049Y17005
X19049Y16690
X19049Y16375
X19049Y16060
X19049Y15745
X19049Y15430
X19049Y15115
X19049Y14800
X19049Y14485
X19049Y14170
X19049Y13855
X19049Y13225
X19049Y12674
X19049Y12359
X19049Y12044
X19049Y11729
X19049Y11414
X19049Y11099
X19049Y19643
X19049Y13540
X19207Y8265
X19522Y8265
X19837Y8265
X20152Y8265
X20467Y8265
X20781Y8265
X21096Y8265
X21411Y8265
X21648Y22202
X21726Y8265
X21989Y27413
X21989Y27013
X21989Y26115
X21989Y25722
X21989Y25328
X22041Y8265
X22120Y22202
X22356Y8265
X22593Y22202
X22671Y8265
X23065Y22202
X23537Y22202
X23616Y8265
X23931Y8265
X24010Y22202
X24246Y8265
X24482Y22202
X24561Y8265
X24876Y8265
X24955Y22202
X25191Y8265
X25427Y22202
X25506Y8265
X25821Y8265
X25900Y22202
X26136Y8265
X26372Y22202
X26844Y22202
X27317Y22202
X27789Y22202
X27829Y8265
X28262Y22202
X28734Y22202
X28892Y8265
X29207Y22202
X29285Y8265
X29679Y22202
X30152Y22202
X30624Y22202
X31096Y22202
X32041Y22202
X32199Y21218
X32199Y20824
X32199Y16611
X32199Y16218
X32199Y15824
X32199Y15430
X32199Y15036
X32199Y14643
X32199Y14249
X32199Y13855
X32199Y12832
X32199Y12517
X32199Y10666
X32199Y10115
X32199Y8265
X35518Y26926
X35518Y26552
X35518Y26178
X38943Y26533
X38943Y26178
X39098Y20304
X39116Y11657
X39571Y20304
X39589Y11657
X40043Y20304
X40061Y11657
X40516Y20304
X40533Y11657
X41642Y14625
X41659Y5977
X42035Y14625
X42053Y5977
X506Y20229
X506Y16588
X506Y12954
X514Y9277
X549Y4013
X565Y8347
X608Y7682
X1006Y4009
X1140Y20229
X1140Y16588
X1140Y12954
X1148Y9277
X1289Y5312
X1293Y6883
X1293Y6096
X1400Y4009
X1439Y25576
X1589Y12651
X1596Y9651
X1664Y21769
X1789Y7676
X1978Y25564
X2022Y19757
X2022Y13454
X2073Y18907
X2073Y18410
X2073Y17899
X2073Y15292
X2073Y14784
X2073Y14292
X2073Y11639
X2073Y11155
X2073Y10639
X2094Y21769
X2187Y16111
X2187Y7676
X2199Y17029
X2199Y16517
X2396Y19757
X2449Y21773
X2506Y25442
X2506Y24253
X2561Y16111
X2671Y13458
X2904Y25064
X2904Y24631
X3089Y6883
X3089Y6096
X3352Y8538
X3368Y1206
X3474Y3973
X3669Y20684
X3833Y29599
X3852Y8702
X3876Y6887
X3998Y4135
X4006Y2548
X4010Y12365
X4010Y3336
X4014Y1765
X4309Y23056
X4423Y29592
X4683Y3336
X4683Y2548
X4754Y1765
X4797Y25808
X5187Y4125
X5191Y28887
X5211Y25806
X5325Y18210
X5333Y22863
X5348Y21521
X5565Y25810
X5569Y19871
X5573Y4125
X5624Y28292
X5652Y9922
X5656Y8462
X5679Y12761
X5687Y14225
X5695Y15682
X5896Y19103
X6022Y29103
X6022Y28670
X6396Y1765
X6478Y3336
X6478Y2548
X6742Y4989
X6947Y19119
X6990Y20655
X7045Y22222
X7100Y17560
X7104Y15655
X7108Y12907
X7120Y14269
X7199Y11501
X7199Y10903
X7230Y7706
X7242Y9237
X7344Y19773
X7407Y21473
X7419Y23021
X7427Y18249
X7699Y5722
X8152Y627
X8659Y18249
X8667Y19788
X8734Y23009
X8758Y8619
X8758Y7725
X8762Y9442
X8762Y9064
X8762Y8151
X8888Y6237
X8943Y11533
X8943Y11068
X9026Y15594
X9049Y13899
X9077Y22225
X9112Y7426
X9140Y4218
X9262Y5946
X9561Y7328
X10108Y9907
X10264Y21338
X10266Y21769
X10268Y20983
X10272Y12568
X10274Y17712
X10278Y17357
X10278Y14956
X10278Y12196
X10280Y18123
X10280Y15383
X10281Y14601
X10281Y11842
X10778Y2603
X10781Y7269
X10781Y1903
X10781Y891
X10785Y5064
X10785Y3316
X11093Y26123
X11096Y25029
X12750Y20930
X12750Y11784
X12750Y11375
X12754Y17300
X12758Y14540
X13128Y20533
X13132Y16903
X13136Y14143
X13144Y11375
X13537Y11375
X13561Y20533
X13565Y16903
X13569Y14143
X13939Y20930
X13943Y17300
X13947Y14540
X14010Y19107
X14014Y16355
X14018Y22714
X14026Y13592
X14041Y15903
X14451Y23265
X14838Y22449
X14845Y21662
X14848Y20745
X14998Y10391
X15130Y12387
X15593Y11206
X15644Y12363
X16120Y12367
X16754Y12359
X17258Y11123
X17333Y12218
X17793Y7328
X17793Y4005
X17793Y3048
X17793Y1560
X17888Y8781
X17890Y9666
X18002Y5294
X18024Y6806
X18026Y6044
X18053Y4596
X18376Y10592
X18376Y10194
X18530Y9560
X18640Y12048
X18754Y24033
X18774Y21080
X18774Y18796
X18774Y12950
X18774Y8781
X19317Y7406
X19364Y946
X19500Y24479
X20191Y22477
X20593Y536
X20636Y5875
X20860Y3855
X20941Y7901
X20963Y5206
X21388Y4725
X21691Y2048
X22049Y24477
X22348Y29119
X22348Y26564
X22577Y4725
X22709Y7851
X23112Y23737
X23144Y7989
X23258Y24808
X23852Y28127
X23909Y6046
X24093Y7895
X24187Y2147
X24480Y4733
X24622Y6044
X25213Y6042
X25364Y4229
X25659Y2159
X25959Y6042
X25959Y4745
X26719Y6052
X26833Y4745
X26949Y6950
X26986Y7989
X27156Y1836
X27211Y4320
X27344Y4851
X27441Y6040
X27510Y24643
X27600Y4320
X27963Y6950
X28033Y4312
X28033Y2052
X28045Y6040
X28301Y28147
X28360Y7989
X28537Y6040
X28868Y29383
X28921Y6940
X29093Y4312
X30742Y7989
X31157Y27784
X31561Y27783
X31569Y22477
X32262Y6816
X32474Y21871
X32474Y18718
X32474Y13344
X32474Y11592
X32474Y10391
X32474Y9190
X32533Y16218
X32553Y20320
X32734Y544
X32856Y4517
X32856Y3741
X32860Y6954
X33156Y8257
X33163Y25749
X33533Y8261
X33640Y24958
X33656Y26166
X33907Y8265
X33978Y26564
X34049Y8985
X34108Y5733
X34148Y13784
X34199Y11966
X34215Y10643
X34372Y15159
X34703Y29619
X34856Y808
X34951Y24942
X35002Y26513
X35246Y3462
X35247Y2950
X35262Y11958
X35344Y7233
X35492Y13467
X35510Y15131
X35569Y20651
X35569Y18643
X35573Y17076
X35593Y22033
X35593Y4052
X35726Y25729
X35781Y8139
X35793Y9765
X35809Y23851
X35980Y3033
X36813Y19182
X36856Y16080
X36887Y14178
X36959Y8159
X37234Y25733
X37270Y24277
X37301Y12159
X37313Y8867
X37333Y10458
X37486Y19773
X37518Y18162
X38380Y19895
X38392Y16745
X38392Y3033
X38400Y18296
X38451Y25729
X38612Y7166
X38683Y8840
X38809Y25064
X38864Y4033
X38884Y22434
X39258Y25060
X39266Y2659
X39474Y12119
X39506Y29840
X39506Y29072
X39754Y13237
X39998Y14092
X40100Y12119
X40207Y5670
X40364Y13639
X40616Y1139
X40636Y4127
X41014Y25060
X41014Y24076
X41014Y23092
X41746Y22450
X41746Y21871
X41770Y20592
X42270Y4033
X42278Y2659
X42447Y13233
X42502Y5659
X1577Y27623
X1577Y2662
X1754Y28056
X1754Y27190
X1754Y3096
X1754Y2229
X2187Y28233
X2187Y27013
X2187Y3273
X2187Y2052
X2620Y28056
X2620Y27190
X2620Y3096
X2620Y2229
X2797Y27623
X2797Y2662
X8703Y28214
X8703Y2072
X8880Y28647
X8880Y27781
X8880Y2505
X8880Y1639
X9313Y28824
X9313Y27603
X9313Y2682
X9313Y1462
X9746Y28647
X9746Y27781
X9746Y2505
X9746Y1639
X9923Y28214
X9923Y2072
X32923Y28214
X32923Y2072
X33100Y28647
X33100Y27781
X33100Y2505
X33100Y1639
X33533Y28824
X33533Y27603
X33533Y2682
X33533Y1462
X33967Y28647
X33967Y27781
X33967Y2505
X33967Y1639
X34144Y28214
X34144Y2072
X40049Y27623
X40049Y2662
X40226Y28056
X40226Y27190
X40226Y3096
X40226Y2229
X40659Y28233
X40659Y27013
X40659Y3273
X40659Y2052
X41093Y28056
X41093Y27190
X41093Y3096
X41093Y2229
X41270Y27623
X41270Y2662
X12034Y1025
X11762Y1661
X11976Y2046
X11335Y2475
X11295Y2811
X11492Y3401
X11768Y3657
X11886Y4188
X11492Y4484
X11295Y3992
X11295Y5173
X11295Y6748
X11768Y6728
X12879Y7020
X13926Y6995
X14248Y6707
X15301Y6632
X16413Y6748
X17201Y6748
X16728Y5744
X16083Y5738
X16143Y4492
X16610Y4582
X16778Y4102
X17201Y4385
X16779Y3217
X17475Y3045
X17516Y2653
X17516Y2259
X16834Y2353
X16524Y1864
X16911Y1547
X16514Y1117
X16125Y1496
X16050Y2220
X16098Y2653
X14782Y1668
X14782Y1039
X13863Y1025
X13008Y1025
X13231Y1667
X13815Y2692
X14208Y4139
X13461Y4188
X13894Y4698
X14483Y5696
X15429Y7653
X16361Y7720
X16807Y7338
X17201Y7929
X16374Y8716
X14375Y8884
X14333Y8478
X13546Y8468
X13281Y8065
X11844Y8142
X12253Y7507
X11413Y7274
X38937Y27070
X38785Y26817
X38943Y26530
X38943Y26175
X37941Y26509
X37667Y26614
X37424Y26401
X37974Y26914
X36495Y26174
X35518Y26175
X35518Y26549
X35518Y26923
X40908Y5965
X39262Y5992
X40091Y6014
X42615Y6736
X41858Y6745
X41079Y6771
X39250Y6819
X40182Y6821
X40884Y6993
X39278Y7167
X42487Y7254
X41172Y7284
X42621Y7559
X39087Y7615
X40634Y7692
X41880Y7703
X39559Y7857
X40570Y7980
X40593Y8274
X40192Y8516
X40998Y8648
X40672Y8701
X41390Y8711
X42473Y8731
X42101Y8781
X41751Y8821
X41093Y9042
X42621Y9351
X41046Y9420
X40622Y9734
X40908Y9853
X41412Y9951
X39949Y9973
X42461Y10016
X40652Y10039
X39278Y10108
X39337Y10404
X40607Y10587
X39108Y10599
X41981Y10926
X41989Y11402
X42158Y11644
X41745Y11654
X42640Y11670
X41660Y5975
X42054Y5975
X39117Y11654
X39589Y11654
X40061Y11654
X40534Y11654
X40536Y14750
X42504Y14750
X39197Y14789
X40614Y15616
X41677Y15773
X42504Y15891
X39197Y16128
X40103Y16521
X41087Y16561
X41717Y17112
X42504Y17151
X39197Y17545
X39906Y17781
X42504Y17860
X40597Y17946
X42150Y18372
X41284Y18883
X42229Y19120
X39197Y19277
X42504Y19592
X40022Y19910
X40890Y20183
X42229Y20183
X41642Y14622
X42036Y14622
X39099Y20301
X39571Y20301
X40043Y20301
X40516Y20301
X22052Y27785
X21977Y24855
X21933Y26525
X21933Y29891
X21700Y29701
X21644Y28421
X21644Y28110
X21490Y25087
X21262Y26678
X21170Y25980
X21107Y28608
X20970Y29541
X20678Y29813
X20575Y24773
X20529Y25410
X20487Y25787
X20412Y27094
X20408Y28331
X20132Y29852
X20051Y27766
X19926Y29055
X19866Y27106
X19857Y26059
X19748Y27816
X19650Y29891
X18853Y24768
X18685Y29084
X18395Y27279
X18165Y26340
X18164Y27840
X18163Y27047
X17957Y26804
X17937Y29990
X17879Y27145
X17572Y25768
X17364Y27903
X17275Y25819
X17150Y29960
X17134Y26466
X16965Y25813
X16947Y29246
X16874Y27864
X16815Y26864
X16662Y26189
X16658Y29163
X16357Y28430
X16339Y25464
X16331Y25163
X15959Y29970
X15752Y25332
X15727Y24747
X15718Y25631
X15461Y24966
X15323Y26608
X15277Y27455
X15207Y27968
X15207Y28868
X15207Y29169
X15207Y29470
X15207Y29771
X15203Y28376
X14827Y26840
X14571Y27057
X12496Y30012
X12279Y28263
X12239Y25010
X12091Y25423
X11992Y28356
X11953Y26004
X11953Y26279
X11953Y26555
X11776Y25443
X11756Y30019
X11648Y26004
X11648Y26279
X11451Y25029
X21989Y25324
X21989Y25718
X21989Y26112
X21989Y27010
X21989Y27410
X11520Y28336
X11520Y28730
X11520Y29124
X11520Y29517
X32041Y22199
X31565Y22168
X31333Y21978
X31097Y22199
X30860Y21998
X30624Y22199
X30388Y21998
X30152Y22199
X29915Y21998
X29679Y22199
X29443Y21998
X29207Y22199
X28971Y21998
X28734Y22199
X28498Y21998
X28262Y22199
X28026Y21998
X27789Y22199
X27553Y21998
X27317Y22199
X27081Y21998
X26845Y22199
X26608Y21998
X26372Y22199
X26136Y21998
X25900Y22199
X25663Y21998
X25427Y22199
X25191Y21998
X24955Y22199
X24719Y21998
X24482Y22199
X24246Y21998
X24010Y22199
X23774Y21998
X23537Y22199
X23301Y21998
X23065Y22199
X22829Y21998
X22593Y22199
X22356Y21998
X22120Y22199
X21884Y21998
X21648Y22199
X21333Y22041
X21340Y21506
X21767Y21312
X22218Y21302
X22660Y21295
X23133Y21297
X23638Y20250
X23948Y20250
X24195Y20723
X24793Y20520
X25089Y20511
X24932Y20240
X24815Y19558
X25070Y19290
X25167Y18749
X24728Y18749
X24268Y18869
X24268Y18537
X24268Y18242
X24274Y17951
X23944Y17267
X23399Y17271
X23537Y16687
X24167Y16766
X24237Y15934
X24252Y15548
X24600Y15742
X24834Y15942
X25091Y15509
X25784Y15208
X26382Y15191
X26729Y15487
X27504Y15312
X27486Y15867
X27496Y16414
X28204Y16287
X28159Y15488
X28185Y14723
X28207Y13913
X27504Y13873
X27504Y14158
X27504Y14443
X27504Y13572
X26716Y13256
X26729Y12971
X26761Y12673
X26711Y12191
X26307Y12140
X25677Y11662
X25300Y11674
X24364Y11530
X24039Y12130
X23831Y11927
X23849Y12454
X23491Y12501
X24042Y12685
X24248Y13828
X24471Y14057
X24517Y14740
X24808Y14751
X24321Y14959
X23652Y14959
X22786Y15148
X22592Y15362
X22388Y15566
X22186Y15768
X22189Y14955
X22636Y14490
X22649Y13789
X22273Y13887
X22396Y13419
X22598Y12882
X22358Y12656
X22164Y12258
X22356Y12002
X22457Y11619
X22497Y11313
X22199Y11411
X21695Y11613
X21639Y11914
X21695Y12476
X21548Y12721
X21805Y13104
X21823Y13595
X20595Y13987
X20285Y14301
X20467Y14522
X20502Y15042
X19049Y15112
X19049Y14797
X19049Y14482
X19049Y14167
X19049Y13852
X19049Y13537
X19049Y13223
X19188Y12945
X19049Y12671
X19049Y12356
X19049Y12041
X19049Y11726
X19049Y11411
X19049Y11097
X19406Y11009
X19189Y10765
X19498Y10063
X19502Y9128
X19875Y9084
X19877Y9369
X20250Y9128
X20152Y8262
X20467Y8262
X20782Y8262
X21097Y8262
X21411Y8262
X21726Y8262
X22041Y8262
X22356Y8262
X22671Y8262
X23262Y8459
X23616Y8262
X23931Y8262
X24246Y8262
X24561Y8262
X24876Y8262
X25191Y8262
X25506Y8262
X25821Y8262
X26136Y8262
X26648Y8301
X26554Y8956
X26952Y8992
X27297Y8947
X27576Y9249
X27518Y8494
X27829Y8262
X28892Y8262
X29286Y8262
X29647Y8286
X29639Y8749
X29869Y9194
X29950Y10067
X30390Y9844
X29204Y9532
X28741Y9213
X28784Y10064
X28341Y10112
X27856Y10540
X27848Y10825
X27780Y11185
X27777Y11481
X28507Y11382
X28498Y11766
X28507Y12091
X28168Y12419
X28507Y12799
X28491Y13151
X28511Y13446
X28194Y13128
X29189Y12700
X29192Y12256
X30368Y12400
X30348Y12921
X30349Y13310
X29524Y13775
X29224Y13736
X29201Y14189
X29201Y14476
X29201Y14763
X29201Y15179
X29201Y15465
X29183Y15889
X29183Y16197
X29183Y16486
X28959Y17226
X28679Y17321
X28367Y17716
X28665Y18036
X28665Y18602
X28672Y18888
X28581Y19549
X28784Y20294
X28616Y20526
X28916Y20561
X29541Y20725
X29837Y20725
X30463Y20520
X30749Y20520
X30585Y20237
X30481Y19561
X30640Y19292
X30820Y18715
X30344Y18715
X29858Y18869
X29858Y18537
X29858Y18242
X29865Y17951
X30628Y17729
X30624Y17352
X31427Y17344
X31400Y17678
X31695Y17246
X32174Y17203
X32199Y16608
X32199Y16215
X32199Y15821
X32199Y15427
X32199Y15034
X32199Y14640
X32199Y14246
X32199Y13852
X32160Y13223
X32199Y12829
X32199Y12514
X32199Y12140
X32071Y11657
X32160Y11293
X32199Y10663
X31915Y10553
X32199Y10112
X32178Y8950
X32199Y8262
X31175Y11530
X31049Y11825
X30180Y11340
X28188Y11048
X27311Y10600
X27179Y10211
X26841Y10282
X26418Y10604
X25978Y10703
X25237Y10625
X24709Y9689
X24569Y9410
X24498Y9103
X24236Y9793
X23405Y9764
X23213Y9439
X22469Y9785
X22543Y10633
X22249Y10633
X21958Y10633
X20772Y10575
X20742Y10112
X21017Y9581
X21043Y8677
X22153Y8550
X19837Y8262
X19522Y8262
X19207Y8262
X20401Y11166
X20557Y11405
X20329Y11697
X20112Y12124
X20553Y12122
X20651Y12806
X20135Y13095
X19859Y12541
X19848Y13750
X19049Y15427
X19049Y15742
X19049Y16057
X19049Y16372
X19049Y16687
X19049Y17002
X19049Y17317
X19049Y17632
X19049Y17947
X19568Y18561
X19128Y19167
X19049Y19640
X19620Y20238
X19620Y20557
X19620Y20875
X19620Y21193
X19620Y21512
X19984Y21838
X19266Y21881
X20862Y21050
X20729Y20471
X21293Y19561
X21526Y18857
X21512Y18537
X21517Y18249
X21518Y17951
X22305Y17729
X22314Y17316
X22824Y17701
X23114Y17917
X23114Y18490
X23077Y18876
X22473Y18742
X21973Y18749
X22313Y19295
X22192Y19961
X22509Y19961
X22855Y19961
X21845Y19972
X23656Y19561
X25872Y18876
X25870Y18477
X25870Y18038
X25788Y17654
X25061Y17676
X25112Y17394
X26254Y17262
X26578Y17254
X26600Y16762
X27010Y17042
X27081Y17871
X27058Y18242
X27071Y18537
X27081Y19037
X27376Y18774
X28045Y18729
X27845Y19271
X27916Y20147
X27685Y20727
X26975Y20520
X26683Y20520
X26825Y20230
X26702Y19561
X26056Y20681
X25728Y20732
X27723Y17723
X27922Y17317
X29535Y17267
X30069Y16648
X30069Y15887
X30069Y15126
X30068Y14364
X26385Y14417
X26589Y14092
X26427Y13204
X27506Y12104
X26707Y9481
X26263Y9577
X26170Y9847
X25967Y9484
X23461Y10826
X23403Y11109
X21830Y16642
X21451Y16293
X20364Y16438
X20413Y17167
X20725Y17135
X21188Y17267
X19653Y16960
X25975Y15905
X31461Y18449
X31423Y18914
X31705Y19236
X32196Y19275
X31598Y19827
X31864Y20139
X32199Y20821
X32199Y21215
X32179Y21800
X31608Y21608
X31411Y20725
X32071Y17917
X36685Y28191
X36341Y27984
X36222Y28486
X36252Y29884
T02
X19695Y6330
X20010Y7019
X20325Y6330
X20640Y7019
X20955Y6330
X18888Y6930G85X18888Y6418
X21762Y6930G85X21762Y6418
X19852Y4765
X19852Y3977
X19852Y3190
X19852Y2403
T03
X8289Y5481
X8289Y3800
X8293Y4639
X9915Y8395
X9915Y6466
X10219Y5481
X10219Y3800
X10222Y4639
X18427Y2468
X18427Y968
X26104Y16904
X24526Y16904
X23104Y16904
T04
X11236Y8739
X11236Y8011
X11236Y6062
X11236Y1318
X13215Y19788
X14407Y10584
X14998Y11415
X15589Y10580
X15600Y23237
X15600Y22237
X15600Y21237
X15600Y20237
X15600Y19237
X15600Y18237
X15600Y17237
X15600Y16237
X15600Y15237
X15600Y14237
X16179Y11418
X16600Y23237
X16600Y22237
X16600Y21237
X16600Y20237
X16600Y19237
X16600Y18237
X16600Y17237
X16600Y16237
X16600Y15237
X16600Y14237
X16770Y10584
X17339Y8562
X17339Y6042
X17339Y5294
X17339Y3601
X17339Y1141
X17600Y23237
X17600Y22237
X17600Y21237
X17600Y20237
X17600Y19237
X17600Y18237
X17600Y17237
X17600Y16237
X17600Y15237
X17600Y14237
X23691Y29718
X24215Y6847
X24691Y29718
X25199Y6847
X25691Y29718
X26691Y29718
X27691Y29718
X30289Y6844
X31136Y6844
X33474Y11210
X33474Y10115
X40565Y21367
X41911Y12426
X11236Y1314
X11236Y6059
X17339Y6039
X17339Y5291
X17339Y3598
X17339Y1137
X17339Y8559
X11236Y8736
X11236Y8007
X14666Y29006
X13878Y27824
X13091Y29006
X21792Y29084
X19792Y28684
X19792Y29484
X31884Y8577
X22805Y9548
X22805Y8748
X20805Y9148
T05
X14843Y25197
X13843Y25197
X12843Y25197
T06
X23408Y2855
X26360Y2855
T07
X4864Y23804
X4864Y22229
X4864Y20655
X4864Y19080
X4864Y17505
X4864Y15930
X4864Y14355
X4864Y12781
X4864Y11206
X4864Y9631
X4864Y8056
X4864Y6481
X6439Y23017
X6439Y21442
X6439Y19867
X6439Y18292
X6439Y16718
X6439Y15143
X6439Y13568
X6439Y11993
X6439Y10418
X6439Y8844
X6439Y7269
X8014Y23804
X8014Y22229
X8014Y20655
X8014Y19080
X8014Y17505
X8014Y15930
X8014Y14355
X8014Y12781
X8014Y11206
X8014Y9631
X8014Y8056
X8014Y6481
X34833Y23804
X34833Y22229
X34833Y20655
X34833Y19080
X34833Y17505
X34833Y15930
X34833Y14355
X34833Y12781
X34833Y11206
X34833Y9631
X34833Y8056
X34833Y6481
X36407Y23017
X36407Y21442
X36407Y19867
X36407Y18292
X36407Y16718
X36407Y15143
X36407Y13568
X36407Y11993
X36407Y10418
X36407Y8844
X36407Y7269
X37982Y23804
X37982Y22229
X37982Y20655
X37982Y19080
X37982Y17505
X37982Y15930
X37982Y14355
X37982Y12781
X37982Y11206
X37982Y9631
X37982Y8056
X37982Y6481
T08
X2187Y27623
X2187Y2662
X9313Y28214
X9313Y2072
X33533Y28214
X33533Y2072
X40659Y27623
X40659Y2662
T09
X23388Y26403
X28703Y26403
M30
