G04 #@! TF.GenerationSoftware,KiCad,Pcbnew,8.0.8-8.0.8-0~ubuntu24.04.1*
G04 #@! TF.CreationDate,2025-02-07T07:38:44+00:00*
G04 #@! TF.ProjectId,MST01,4d535430-312e-46b6-9963-61645f706362,D*
G04 #@! TF.SameCoordinates,PX440a368PY8a86a58*
G04 #@! TF.FileFunction,Paste,Top*
G04 #@! TF.FilePolarity,Positive*
%FSLAX46Y46*%
G04 Gerber Fmt 4.6, Leading zero omitted, Abs format (unit mm)*
G04 Created by KiCad (PCBNEW 8.0.8-8.0.8-0~ubuntu24.04.1) date 2025-02-07 07:38:44*
%MOMM*%
%LPD*%
G01*
G04 APERTURE LIST*
%ADD10R,1.160000X1.950000*%
%ADD11R,0.650000X2.000000*%
%ADD12R,1.000000X1.300000*%
G04 APERTURE END LIST*
G04 #@! TO.C,D8*
G36*
G01*
X91675000Y13020000D02*
X91375000Y13020000D01*
G75*
G02*
X91225000Y13170000I0J150000D01*
G01*
X91225000Y14345000D01*
G75*
G02*
X91375000Y14495000I150000J0D01*
G01*
X91675000Y14495000D01*
G75*
G02*
X91825000Y14345000I0J-150000D01*
G01*
X91825000Y13170000D01*
G75*
G02*
X91675000Y13020000I-150000J0D01*
G01*
G37*
G36*
G01*
X93575000Y13020000D02*
X93275000Y13020000D01*
G75*
G02*
X93125000Y13170000I0J150000D01*
G01*
X93125000Y14345000D01*
G75*
G02*
X93275000Y14495000I150000J0D01*
G01*
X93575000Y14495000D01*
G75*
G02*
X93725000Y14345000I0J-150000D01*
G01*
X93725000Y13170000D01*
G75*
G02*
X93575000Y13020000I-150000J0D01*
G01*
G37*
G36*
G01*
X92625000Y14895000D02*
X92325000Y14895000D01*
G75*
G02*
X92175000Y15045000I0J150000D01*
G01*
X92175000Y16220000D01*
G75*
G02*
X92325000Y16370000I150000J0D01*
G01*
X92625000Y16370000D01*
G75*
G02*
X92775000Y16220000I0J-150000D01*
G01*
X92775000Y15045000D01*
G75*
G02*
X92625000Y14895000I-150000J0D01*
G01*
G37*
G04 #@! TD*
G04 #@! TO.C,U7*
G36*
G01*
X990000Y30075000D02*
X990000Y30375000D01*
G75*
G02*
X1140000Y30525000I150000J0D01*
G01*
X2790000Y30525000D01*
G75*
G02*
X2940000Y30375000I0J-150000D01*
G01*
X2940000Y30075000D01*
G75*
G02*
X2790000Y29925000I-150000J0D01*
G01*
X1140000Y29925000D01*
G75*
G02*
X990000Y30075000I0J150000D01*
G01*
G37*
G36*
G01*
X990000Y28805000D02*
X990000Y29105000D01*
G75*
G02*
X1140000Y29255000I150000J0D01*
G01*
X2790000Y29255000D01*
G75*
G02*
X2940000Y29105000I0J-150000D01*
G01*
X2940000Y28805000D01*
G75*
G02*
X2790000Y28655000I-150000J0D01*
G01*
X1140000Y28655000D01*
G75*
G02*
X990000Y28805000I0J150000D01*
G01*
G37*
G36*
G01*
X990000Y27535000D02*
X990000Y27835000D01*
G75*
G02*
X1140000Y27985000I150000J0D01*
G01*
X2790000Y27985000D01*
G75*
G02*
X2940000Y27835000I0J-150000D01*
G01*
X2940000Y27535000D01*
G75*
G02*
X2790000Y27385000I-150000J0D01*
G01*
X1140000Y27385000D01*
G75*
G02*
X990000Y27535000I0J150000D01*
G01*
G37*
G36*
G01*
X990000Y26265000D02*
X990000Y26565000D01*
G75*
G02*
X1140000Y26715000I150000J0D01*
G01*
X2790000Y26715000D01*
G75*
G02*
X2940000Y26565000I0J-150000D01*
G01*
X2940000Y26265000D01*
G75*
G02*
X2790000Y26115000I-150000J0D01*
G01*
X1140000Y26115000D01*
G75*
G02*
X990000Y26265000I0J150000D01*
G01*
G37*
G36*
G01*
X5940000Y26265000D02*
X5940000Y26565000D01*
G75*
G02*
X6090000Y26715000I150000J0D01*
G01*
X7740000Y26715000D01*
G75*
G02*
X7890000Y26565000I0J-150000D01*
G01*
X7890000Y26265000D01*
G75*
G02*
X7740000Y26115000I-150000J0D01*
G01*
X6090000Y26115000D01*
G75*
G02*
X5940000Y26265000I0J150000D01*
G01*
G37*
G36*
G01*
X5940000Y27535000D02*
X5940000Y27835000D01*
G75*
G02*
X6090000Y27985000I150000J0D01*
G01*
X7740000Y27985000D01*
G75*
G02*
X7890000Y27835000I0J-150000D01*
G01*
X7890000Y27535000D01*
G75*
G02*
X7740000Y27385000I-150000J0D01*
G01*
X6090000Y27385000D01*
G75*
G02*
X5940000Y27535000I0J150000D01*
G01*
G37*
G36*
G01*
X5940000Y28805000D02*
X5940000Y29105000D01*
G75*
G02*
X6090000Y29255000I150000J0D01*
G01*
X7740000Y29255000D01*
G75*
G02*
X7890000Y29105000I0J-150000D01*
G01*
X7890000Y28805000D01*
G75*
G02*
X7740000Y28655000I-150000J0D01*
G01*
X6090000Y28655000D01*
G75*
G02*
X5940000Y28805000I0J150000D01*
G01*
G37*
G36*
G01*
X5940000Y30075000D02*
X5940000Y30375000D01*
G75*
G02*
X6090000Y30525000I150000J0D01*
G01*
X7740000Y30525000D01*
G75*
G02*
X7890000Y30375000I0J-150000D01*
G01*
X7890000Y30075000D01*
G75*
G02*
X7740000Y29925000I-150000J0D01*
G01*
X6090000Y29925000D01*
G75*
G02*
X5940000Y30075000I0J150000D01*
G01*
G37*
G04 #@! TD*
G04 #@! TO.C,C27*
G36*
G01*
X67400001Y60629994D02*
X67400001Y59949994D01*
G75*
G02*
X67315001Y59864994I-85000J0D01*
G01*
X66635001Y59864994D01*
G75*
G02*
X66550001Y59949994I0J85000D01*
G01*
X66550001Y60629994D01*
G75*
G02*
X66635001Y60714994I85000J0D01*
G01*
X67315001Y60714994D01*
G75*
G02*
X67400001Y60629994I0J-85000D01*
G01*
G37*
G36*
G01*
X65819999Y60629994D02*
X65819999Y59949994D01*
G75*
G02*
X65734999Y59864994I-85000J0D01*
G01*
X65054999Y59864994D01*
G75*
G02*
X64969999Y59949994I0J85000D01*
G01*
X64969999Y60629994D01*
G75*
G02*
X65054999Y60714994I85000J0D01*
G01*
X65734999Y60714994D01*
G75*
G02*
X65819999Y60629994I0J-85000D01*
G01*
G37*
G04 #@! TD*
G04 #@! TO.C,U10*
G36*
G01*
X1005000Y39290000D02*
X1005000Y39590000D01*
G75*
G02*
X1155000Y39740000I150000J0D01*
G01*
X2805000Y39740000D01*
G75*
G02*
X2955000Y39590000I0J-150000D01*
G01*
X2955000Y39290000D01*
G75*
G02*
X2805000Y39140000I-150000J0D01*
G01*
X1155000Y39140000D01*
G75*
G02*
X1005000Y39290000I0J150000D01*
G01*
G37*
G36*
G01*
X1005000Y38020000D02*
X1005000Y38320000D01*
G75*
G02*
X1155000Y38470000I150000J0D01*
G01*
X2805000Y38470000D01*
G75*
G02*
X2955000Y38320000I0J-150000D01*
G01*
X2955000Y38020000D01*
G75*
G02*
X2805000Y37870000I-150000J0D01*
G01*
X1155000Y37870000D01*
G75*
G02*
X1005000Y38020000I0J150000D01*
G01*
G37*
G36*
G01*
X1005000Y36750000D02*
X1005000Y37050000D01*
G75*
G02*
X1155000Y37200000I150000J0D01*
G01*
X2805000Y37200000D01*
G75*
G02*
X2955000Y37050000I0J-150000D01*
G01*
X2955000Y36750000D01*
G75*
G02*
X2805000Y36600000I-150000J0D01*
G01*
X1155000Y36600000D01*
G75*
G02*
X1005000Y36750000I0J150000D01*
G01*
G37*
G36*
G01*
X1005000Y35480000D02*
X1005000Y35780000D01*
G75*
G02*
X1155000Y35930000I150000J0D01*
G01*
X2805000Y35930000D01*
G75*
G02*
X2955000Y35780000I0J-150000D01*
G01*
X2955000Y35480000D01*
G75*
G02*
X2805000Y35330000I-150000J0D01*
G01*
X1155000Y35330000D01*
G75*
G02*
X1005000Y35480000I0J150000D01*
G01*
G37*
G36*
G01*
X5955000Y35480000D02*
X5955000Y35780000D01*
G75*
G02*
X6105000Y35930000I150000J0D01*
G01*
X7755000Y35930000D01*
G75*
G02*
X7905000Y35780000I0J-150000D01*
G01*
X7905000Y35480000D01*
G75*
G02*
X7755000Y35330000I-150000J0D01*
G01*
X6105000Y35330000D01*
G75*
G02*
X5955000Y35480000I0J150000D01*
G01*
G37*
G36*
G01*
X5955000Y36750000D02*
X5955000Y37050000D01*
G75*
G02*
X6105000Y37200000I150000J0D01*
G01*
X7755000Y37200000D01*
G75*
G02*
X7905000Y37050000I0J-150000D01*
G01*
X7905000Y36750000D01*
G75*
G02*
X7755000Y36600000I-150000J0D01*
G01*
X6105000Y36600000D01*
G75*
G02*
X5955000Y36750000I0J150000D01*
G01*
G37*
G36*
G01*
X5955000Y38020000D02*
X5955000Y38320000D01*
G75*
G02*
X6105000Y38470000I150000J0D01*
G01*
X7755000Y38470000D01*
G75*
G02*
X7905000Y38320000I0J-150000D01*
G01*
X7905000Y38020000D01*
G75*
G02*
X7755000Y37870000I-150000J0D01*
G01*
X6105000Y37870000D01*
G75*
G02*
X5955000Y38020000I0J150000D01*
G01*
G37*
G36*
G01*
X5955000Y39290000D02*
X5955000Y39590000D01*
G75*
G02*
X6105000Y39740000I150000J0D01*
G01*
X7755000Y39740000D01*
G75*
G02*
X7905000Y39590000I0J-150000D01*
G01*
X7905000Y39290000D01*
G75*
G02*
X7755000Y39140000I-150000J0D01*
G01*
X6105000Y39140000D01*
G75*
G02*
X5955000Y39290000I0J150000D01*
G01*
G37*
G04 #@! TD*
G04 #@! TO.C,R31*
G36*
G01*
X935000Y40525000D02*
X935000Y41305000D01*
G75*
G02*
X1005000Y41375000I70000J0D01*
G01*
X1565000Y41375000D01*
G75*
G02*
X1635000Y41305000I0J-70000D01*
G01*
X1635000Y40525000D01*
G75*
G02*
X1565000Y40455000I-70000J0D01*
G01*
X1005000Y40455000D01*
G75*
G02*
X935000Y40525000I0J70000D01*
G01*
G37*
G36*
G01*
X2535000Y40525000D02*
X2535000Y41305000D01*
G75*
G02*
X2605000Y41375000I70000J0D01*
G01*
X3165000Y41375000D01*
G75*
G02*
X3235000Y41305000I0J-70000D01*
G01*
X3235000Y40525000D01*
G75*
G02*
X3165000Y40455000I-70000J0D01*
G01*
X2605000Y40455000D01*
G75*
G02*
X2535000Y40525000I0J70000D01*
G01*
G37*
G04 #@! TD*
G04 #@! TO.C,C30*
G36*
G01*
X97030001Y12415000D02*
X97030001Y11735000D01*
G75*
G02*
X96945001Y11650000I-85000J0D01*
G01*
X96265001Y11650000D01*
G75*
G02*
X96180001Y11735000I0J85000D01*
G01*
X96180001Y12415000D01*
G75*
G02*
X96265001Y12500000I85000J0D01*
G01*
X96945001Y12500000D01*
G75*
G02*
X97030001Y12415000I0J-85000D01*
G01*
G37*
G36*
G01*
X95449999Y12415000D02*
X95449999Y11735000D01*
G75*
G02*
X95364999Y11650000I-85000J0D01*
G01*
X94684999Y11650000D01*
G75*
G02*
X94599999Y11735000I0J85000D01*
G01*
X94599999Y12415000D01*
G75*
G02*
X94684999Y12500000I85000J0D01*
G01*
X95364999Y12500000D01*
G75*
G02*
X95449999Y12415000I0J-85000D01*
G01*
G37*
G04 #@! TD*
G04 #@! TO.C,Q8*
G36*
G01*
X6592500Y64208750D02*
X7292500Y64208750D01*
G75*
G02*
X7542500Y63958750I0J-250000D01*
G01*
X7542500Y62258750D01*
G75*
G02*
X7292500Y62008750I-250000J0D01*
G01*
X6592500Y62008750D01*
G75*
G02*
X6342500Y62258750I0J250000D01*
G01*
X6342500Y63958750D01*
G75*
G02*
X6592500Y64208750I250000J0D01*
G01*
G37*
G36*
G01*
X5062500Y60008750D02*
X7312500Y60008750D01*
G75*
G02*
X7562500Y59758750I0J-250000D01*
G01*
X7562500Y57208750D01*
G75*
G02*
X7312500Y56958750I-250000J0D01*
G01*
X5062500Y56958750D01*
G75*
G02*
X4812500Y57208750I0J250000D01*
G01*
X4812500Y59758750D01*
G75*
G02*
X5062500Y60008750I250000J0D01*
G01*
G37*
G36*
G01*
X2012500Y60008750D02*
X4262500Y60008750D01*
G75*
G02*
X4512500Y59758750I0J-250000D01*
G01*
X4512500Y57208750D01*
G75*
G02*
X4262500Y56958750I-250000J0D01*
G01*
X2012500Y56958750D01*
G75*
G02*
X1762500Y57208750I0J250000D01*
G01*
X1762500Y59758750D01*
G75*
G02*
X2012500Y60008750I250000J0D01*
G01*
G37*
G36*
G01*
X5062500Y56658750D02*
X7312500Y56658750D01*
G75*
G02*
X7562500Y56408750I0J-250000D01*
G01*
X7562500Y53858750D01*
G75*
G02*
X7312500Y53608750I-250000J0D01*
G01*
X5062500Y53608750D01*
G75*
G02*
X4812500Y53858750I0J250000D01*
G01*
X4812500Y56408750D01*
G75*
G02*
X5062500Y56658750I250000J0D01*
G01*
G37*
G36*
G01*
X2012500Y56658750D02*
X4262500Y56658750D01*
G75*
G02*
X4512500Y56408750I0J-250000D01*
G01*
X4512500Y53858750D01*
G75*
G02*
X4262500Y53608750I-250000J0D01*
G01*
X2012500Y53608750D01*
G75*
G02*
X1762500Y53858750I0J250000D01*
G01*
X1762500Y56408750D01*
G75*
G02*
X2012500Y56658750I250000J0D01*
G01*
G37*
G36*
G01*
X2032500Y64208750D02*
X2732500Y64208750D01*
G75*
G02*
X2982500Y63958750I0J-250000D01*
G01*
X2982500Y62258750D01*
G75*
G02*
X2732500Y62008750I-250000J0D01*
G01*
X2032500Y62008750D01*
G75*
G02*
X1782500Y62258750I0J250000D01*
G01*
X1782500Y63958750D01*
G75*
G02*
X2032500Y64208750I250000J0D01*
G01*
G37*
G04 #@! TD*
G04 #@! TO.C,C26*
G36*
G01*
X10715000Y18489999D02*
X10035000Y18489999D01*
G75*
G02*
X9950000Y18574999I0J85000D01*
G01*
X9950000Y19254999D01*
G75*
G02*
X10035000Y19339999I85000J0D01*
G01*
X10715000Y19339999D01*
G75*
G02*
X10800000Y19254999I0J-85000D01*
G01*
X10800000Y18574999D01*
G75*
G02*
X10715000Y18489999I-85000J0D01*
G01*
G37*
G36*
G01*
X10715000Y20070001D02*
X10035000Y20070001D01*
G75*
G02*
X9950000Y20155001I0J85000D01*
G01*
X9950000Y20835001D01*
G75*
G02*
X10035000Y20920001I85000J0D01*
G01*
X10715000Y20920001D01*
G75*
G02*
X10800000Y20835001I0J-85000D01*
G01*
X10800000Y20155001D01*
G75*
G02*
X10715000Y20070001I-85000J0D01*
G01*
G37*
G04 #@! TD*
G04 #@! TO.C,C33*
G36*
G01*
X59400001Y16030000D02*
X59400001Y15350000D01*
G75*
G02*
X59315001Y15265000I-85000J0D01*
G01*
X58635001Y15265000D01*
G75*
G02*
X58550001Y15350000I0J85000D01*
G01*
X58550001Y16030000D01*
G75*
G02*
X58635001Y16115000I85000J0D01*
G01*
X59315001Y16115000D01*
G75*
G02*
X59400001Y16030000I0J-85000D01*
G01*
G37*
G36*
G01*
X57819999Y16030000D02*
X57819999Y15350000D01*
G75*
G02*
X57734999Y15265000I-85000J0D01*
G01*
X57054999Y15265000D01*
G75*
G02*
X56969999Y15350000I0J85000D01*
G01*
X56969999Y16030000D01*
G75*
G02*
X57054999Y16115000I85000J0D01*
G01*
X57734999Y16115000D01*
G75*
G02*
X57819999Y16030000I0J-85000D01*
G01*
G37*
G04 #@! TD*
G04 #@! TO.C,Q12*
G36*
G01*
X34515000Y28035000D02*
X34515000Y27335000D01*
G75*
G02*
X34265000Y27085000I-250000J0D01*
G01*
X32565000Y27085000D01*
G75*
G02*
X32315000Y27335000I0J250000D01*
G01*
X32315000Y28035000D01*
G75*
G02*
X32565000Y28285000I250000J0D01*
G01*
X34265000Y28285000D01*
G75*
G02*
X34515000Y28035000I0J-250000D01*
G01*
G37*
G36*
G01*
X30315000Y29565000D02*
X30315000Y27315000D01*
G75*
G02*
X30065000Y27065000I-250000J0D01*
G01*
X27515000Y27065000D01*
G75*
G02*
X27265000Y27315000I0J250000D01*
G01*
X27265000Y29565000D01*
G75*
G02*
X27515000Y29815000I250000J0D01*
G01*
X30065000Y29815000D01*
G75*
G02*
X30315000Y29565000I0J-250000D01*
G01*
G37*
G36*
G01*
X30315000Y32615000D02*
X30315000Y30365000D01*
G75*
G02*
X30065000Y30115000I-250000J0D01*
G01*
X27515000Y30115000D01*
G75*
G02*
X27265000Y30365000I0J250000D01*
G01*
X27265000Y32615000D01*
G75*
G02*
X27515000Y32865000I250000J0D01*
G01*
X30065000Y32865000D01*
G75*
G02*
X30315000Y32615000I0J-250000D01*
G01*
G37*
G36*
G01*
X26965000Y29565000D02*
X26965000Y27315000D01*
G75*
G02*
X26715000Y27065000I-250000J0D01*
G01*
X24165000Y27065000D01*
G75*
G02*
X23915000Y27315000I0J250000D01*
G01*
X23915000Y29565000D01*
G75*
G02*
X24165000Y29815000I250000J0D01*
G01*
X26715000Y29815000D01*
G75*
G02*
X26965000Y29565000I0J-250000D01*
G01*
G37*
G36*
G01*
X26965000Y32615000D02*
X26965000Y30365000D01*
G75*
G02*
X26715000Y30115000I-250000J0D01*
G01*
X24165000Y30115000D01*
G75*
G02*
X23915000Y30365000I0J250000D01*
G01*
X23915000Y32615000D01*
G75*
G02*
X24165000Y32865000I250000J0D01*
G01*
X26715000Y32865000D01*
G75*
G02*
X26965000Y32615000I0J-250000D01*
G01*
G37*
G36*
G01*
X34515000Y32595000D02*
X34515000Y31895000D01*
G75*
G02*
X34265000Y31645000I-250000J0D01*
G01*
X32565000Y31645000D01*
G75*
G02*
X32315000Y31895000I0J250000D01*
G01*
X32315000Y32595000D01*
G75*
G02*
X32565000Y32845000I250000J0D01*
G01*
X34265000Y32845000D01*
G75*
G02*
X34515000Y32595000I0J-250000D01*
G01*
G37*
G04 #@! TD*
G04 #@! TO.C,C29*
G36*
G01*
X91269999Y11725000D02*
X91269999Y12405000D01*
G75*
G02*
X91354999Y12490000I85000J0D01*
G01*
X92034999Y12490000D01*
G75*
G02*
X92119999Y12405000I0J-85000D01*
G01*
X92119999Y11725000D01*
G75*
G02*
X92034999Y11640000I-85000J0D01*
G01*
X91354999Y11640000D01*
G75*
G02*
X91269999Y11725000I0J85000D01*
G01*
G37*
G36*
G01*
X92850001Y11725000D02*
X92850001Y12405000D01*
G75*
G02*
X92935001Y12490000I85000J0D01*
G01*
X93615001Y12490000D01*
G75*
G02*
X93700001Y12405000I0J-85000D01*
G01*
X93700001Y11725000D01*
G75*
G02*
X93615001Y11640000I-85000J0D01*
G01*
X92935001Y11640000D01*
G75*
G02*
X92850001Y11725000I0J85000D01*
G01*
G37*
G04 #@! TD*
G04 #@! TO.C,Q10*
G36*
G01*
X34515000Y42055000D02*
X34515000Y41355000D01*
G75*
G02*
X34265000Y41105000I-250000J0D01*
G01*
X32565000Y41105000D01*
G75*
G02*
X32315000Y41355000I0J250000D01*
G01*
X32315000Y42055000D01*
G75*
G02*
X32565000Y42305000I250000J0D01*
G01*
X34265000Y42305000D01*
G75*
G02*
X34515000Y42055000I0J-250000D01*
G01*
G37*
G36*
G01*
X30315000Y43585000D02*
X30315000Y41335000D01*
G75*
G02*
X30065000Y41085000I-250000J0D01*
G01*
X27515000Y41085000D01*
G75*
G02*
X27265000Y41335000I0J250000D01*
G01*
X27265000Y43585000D01*
G75*
G02*
X27515000Y43835000I250000J0D01*
G01*
X30065000Y43835000D01*
G75*
G02*
X30315000Y43585000I0J-250000D01*
G01*
G37*
G36*
G01*
X30315000Y46635000D02*
X30315000Y44385000D01*
G75*
G02*
X30065000Y44135000I-250000J0D01*
G01*
X27515000Y44135000D01*
G75*
G02*
X27265000Y44385000I0J250000D01*
G01*
X27265000Y46635000D01*
G75*
G02*
X27515000Y46885000I250000J0D01*
G01*
X30065000Y46885000D01*
G75*
G02*
X30315000Y46635000I0J-250000D01*
G01*
G37*
G36*
G01*
X26965000Y43585000D02*
X26965000Y41335000D01*
G75*
G02*
X26715000Y41085000I-250000J0D01*
G01*
X24165000Y41085000D01*
G75*
G02*
X23915000Y41335000I0J250000D01*
G01*
X23915000Y43585000D01*
G75*
G02*
X24165000Y43835000I250000J0D01*
G01*
X26715000Y43835000D01*
G75*
G02*
X26965000Y43585000I0J-250000D01*
G01*
G37*
G36*
G01*
X26965000Y46635000D02*
X26965000Y44385000D01*
G75*
G02*
X26715000Y44135000I-250000J0D01*
G01*
X24165000Y44135000D01*
G75*
G02*
X23915000Y44385000I0J250000D01*
G01*
X23915000Y46635000D01*
G75*
G02*
X24165000Y46885000I250000J0D01*
G01*
X26715000Y46885000D01*
G75*
G02*
X26965000Y46635000I0J-250000D01*
G01*
G37*
G36*
G01*
X34515000Y46615000D02*
X34515000Y45915000D01*
G75*
G02*
X34265000Y45665000I-250000J0D01*
G01*
X32565000Y45665000D01*
G75*
G02*
X32315000Y45915000I0J250000D01*
G01*
X32315000Y46615000D01*
G75*
G02*
X32565000Y46865000I250000J0D01*
G01*
X34265000Y46865000D01*
G75*
G02*
X34515000Y46615000I0J-250000D01*
G01*
G37*
G04 #@! TD*
G04 #@! TO.C,U4*
G36*
G01*
X97315000Y2770000D02*
X97315000Y2470000D01*
G75*
G02*
X97165000Y2320000I-150000J0D01*
G01*
X95515000Y2320000D01*
G75*
G02*
X95365000Y2470000I0J150000D01*
G01*
X95365000Y2770000D01*
G75*
G02*
X95515000Y2920000I150000J0D01*
G01*
X97165000Y2920000D01*
G75*
G02*
X97315000Y2770000I0J-150000D01*
G01*
G37*
G36*
G01*
X97315000Y4040000D02*
X97315000Y3740000D01*
G75*
G02*
X97165000Y3590000I-150000J0D01*
G01*
X95515000Y3590000D01*
G75*
G02*
X95365000Y3740000I0J150000D01*
G01*
X95365000Y4040000D01*
G75*
G02*
X95515000Y4190000I150000J0D01*
G01*
X97165000Y4190000D01*
G75*
G02*
X97315000Y4040000I0J-150000D01*
G01*
G37*
G36*
G01*
X97315000Y5310000D02*
X97315000Y5010000D01*
G75*
G02*
X97165000Y4860000I-150000J0D01*
G01*
X95515000Y4860000D01*
G75*
G02*
X95365000Y5010000I0J150000D01*
G01*
X95365000Y5310000D01*
G75*
G02*
X95515000Y5460000I150000J0D01*
G01*
X97165000Y5460000D01*
G75*
G02*
X97315000Y5310000I0J-150000D01*
G01*
G37*
G36*
G01*
X97315000Y6580000D02*
X97315000Y6280000D01*
G75*
G02*
X97165000Y6130000I-150000J0D01*
G01*
X95515000Y6130000D01*
G75*
G02*
X95365000Y6280000I0J150000D01*
G01*
X95365000Y6580000D01*
G75*
G02*
X95515000Y6730000I150000J0D01*
G01*
X97165000Y6730000D01*
G75*
G02*
X97315000Y6580000I0J-150000D01*
G01*
G37*
G36*
G01*
X92365000Y6580000D02*
X92365000Y6280000D01*
G75*
G02*
X92215000Y6130000I-150000J0D01*
G01*
X90565000Y6130000D01*
G75*
G02*
X90415000Y6280000I0J150000D01*
G01*
X90415000Y6580000D01*
G75*
G02*
X90565000Y6730000I150000J0D01*
G01*
X92215000Y6730000D01*
G75*
G02*
X92365000Y6580000I0J-150000D01*
G01*
G37*
G36*
G01*
X92365000Y5310000D02*
X92365000Y5010000D01*
G75*
G02*
X92215000Y4860000I-150000J0D01*
G01*
X90565000Y4860000D01*
G75*
G02*
X90415000Y5010000I0J150000D01*
G01*
X90415000Y5310000D01*
G75*
G02*
X90565000Y5460000I150000J0D01*
G01*
X92215000Y5460000D01*
G75*
G02*
X92365000Y5310000I0J-150000D01*
G01*
G37*
G36*
G01*
X92365000Y4040000D02*
X92365000Y3740000D01*
G75*
G02*
X92215000Y3590000I-150000J0D01*
G01*
X90565000Y3590000D01*
G75*
G02*
X90415000Y3740000I0J150000D01*
G01*
X90415000Y4040000D01*
G75*
G02*
X90565000Y4190000I150000J0D01*
G01*
X92215000Y4190000D01*
G75*
G02*
X92365000Y4040000I0J-150000D01*
G01*
G37*
G36*
G01*
X92365000Y2770000D02*
X92365000Y2470000D01*
G75*
G02*
X92215000Y2320000I-150000J0D01*
G01*
X90565000Y2320000D01*
G75*
G02*
X90415000Y2470000I0J150000D01*
G01*
X90415000Y2770000D01*
G75*
G02*
X90565000Y2920000I150000J0D01*
G01*
X92215000Y2920000D01*
G75*
G02*
X92365000Y2770000I0J-150000D01*
G01*
G37*
G04 #@! TD*
G04 #@! TO.C,C13*
G36*
G01*
X14499999Y14065000D02*
X14499999Y14745000D01*
G75*
G02*
X14584999Y14830000I85000J0D01*
G01*
X15264999Y14830000D01*
G75*
G02*
X15349999Y14745000I0J-85000D01*
G01*
X15349999Y14065000D01*
G75*
G02*
X15264999Y13980000I-85000J0D01*
G01*
X14584999Y13980000D01*
G75*
G02*
X14499999Y14065000I0J85000D01*
G01*
G37*
G36*
G01*
X16080001Y14065000D02*
X16080001Y14745000D01*
G75*
G02*
X16165001Y14830000I85000J0D01*
G01*
X16845001Y14830000D01*
G75*
G02*
X16930001Y14745000I0J-85000D01*
G01*
X16930001Y14065000D01*
G75*
G02*
X16845001Y13980000I-85000J0D01*
G01*
X16165001Y13980000D01*
G75*
G02*
X16080001Y14065000I0J85000D01*
G01*
G37*
G04 #@! TD*
G04 #@! TO.C,C31*
G36*
G01*
X100055000Y2099999D02*
X99375000Y2099999D01*
G75*
G02*
X99290000Y2184999I0J85000D01*
G01*
X99290000Y2864999D01*
G75*
G02*
X99375000Y2949999I85000J0D01*
G01*
X100055000Y2949999D01*
G75*
G02*
X100140000Y2864999I0J-85000D01*
G01*
X100140000Y2184999D01*
G75*
G02*
X100055000Y2099999I-85000J0D01*
G01*
G37*
G36*
G01*
X100055000Y3680001D02*
X99375000Y3680001D01*
G75*
G02*
X99290000Y3765001I0J85000D01*
G01*
X99290000Y4445001D01*
G75*
G02*
X99375000Y4530001I85000J0D01*
G01*
X100055000Y4530001D01*
G75*
G02*
X100140000Y4445001I0J-85000D01*
G01*
X100140000Y3765001D01*
G75*
G02*
X100055000Y3680001I-85000J0D01*
G01*
G37*
G04 #@! TD*
G04 #@! TO.C,R10*
G36*
G01*
X935000Y31305000D02*
X935000Y32085000D01*
G75*
G02*
X1005000Y32155000I70000J0D01*
G01*
X1565000Y32155000D01*
G75*
G02*
X1635000Y32085000I0J-70000D01*
G01*
X1635000Y31305000D01*
G75*
G02*
X1565000Y31235000I-70000J0D01*
G01*
X1005000Y31235000D01*
G75*
G02*
X935000Y31305000I0J70000D01*
G01*
G37*
G36*
G01*
X2535000Y31305000D02*
X2535000Y32085000D01*
G75*
G02*
X2605000Y32155000I70000J0D01*
G01*
X3165000Y32155000D01*
G75*
G02*
X3235000Y32085000I0J-70000D01*
G01*
X3235000Y31305000D01*
G75*
G02*
X3165000Y31235000I-70000J0D01*
G01*
X2605000Y31235000D01*
G75*
G02*
X2535000Y31305000I0J70000D01*
G01*
G37*
G04 #@! TD*
G04 #@! TO.C,D2*
G36*
G01*
X4855000Y31615000D02*
X4855000Y32635000D01*
G75*
G02*
X4945000Y32725000I90000J0D01*
G01*
X5665000Y32725000D01*
G75*
G02*
X5755000Y32635000I0J-90000D01*
G01*
X5755000Y31615000D01*
G75*
G02*
X5665000Y31525000I-90000J0D01*
G01*
X4945000Y31525000D01*
G75*
G02*
X4855000Y31615000I0J90000D01*
G01*
G37*
G36*
G01*
X8155000Y31615000D02*
X8155000Y32635000D01*
G75*
G02*
X8245000Y32725000I90000J0D01*
G01*
X8965000Y32725000D01*
G75*
G02*
X9055000Y32635000I0J-90000D01*
G01*
X9055000Y31615000D01*
G75*
G02*
X8965000Y31525000I-90000J0D01*
G01*
X8245000Y31525000D01*
G75*
G02*
X8155000Y31615000I0J90000D01*
G01*
G37*
G04 #@! TD*
G04 #@! TO.C,C25*
G36*
G01*
X10035000Y16010001D02*
X10715000Y16010001D01*
G75*
G02*
X10800000Y15925001I0J-85000D01*
G01*
X10800000Y15245001D01*
G75*
G02*
X10715000Y15160001I-85000J0D01*
G01*
X10035000Y15160001D01*
G75*
G02*
X9950000Y15245001I0J85000D01*
G01*
X9950000Y15925001D01*
G75*
G02*
X10035000Y16010001I85000J0D01*
G01*
G37*
G36*
G01*
X10035000Y14429999D02*
X10715000Y14429999D01*
G75*
G02*
X10800000Y14344999I0J-85000D01*
G01*
X10800000Y13664999D01*
G75*
G02*
X10715000Y13579999I-85000J0D01*
G01*
X10035000Y13579999D01*
G75*
G02*
X9950000Y13664999I0J85000D01*
G01*
X9950000Y14344999D01*
G75*
G02*
X10035000Y14429999I85000J0D01*
G01*
G37*
G04 #@! TD*
G04 #@! TO.C,R9*
G36*
G01*
X8795000Y9215000D02*
X9575000Y9215000D01*
G75*
G02*
X9645000Y9145000I0J-70000D01*
G01*
X9645000Y8585000D01*
G75*
G02*
X9575000Y8515000I-70000J0D01*
G01*
X8795000Y8515000D01*
G75*
G02*
X8725000Y8585000I0J70000D01*
G01*
X8725000Y9145000D01*
G75*
G02*
X8795000Y9215000I70000J0D01*
G01*
G37*
G36*
G01*
X8795000Y7615000D02*
X9575000Y7615000D01*
G75*
G02*
X9645000Y7545000I0J-70000D01*
G01*
X9645000Y6985000D01*
G75*
G02*
X9575000Y6915000I-70000J0D01*
G01*
X8795000Y6915000D01*
G75*
G02*
X8725000Y6985000I0J70000D01*
G01*
X8725000Y7545000D01*
G75*
G02*
X8795000Y7615000I70000J0D01*
G01*
G37*
G04 #@! TD*
G04 #@! TO.C,C32*
G36*
G01*
X98759994Y2099999D02*
X98079994Y2099999D01*
G75*
G02*
X97994994Y2184999I0J85000D01*
G01*
X97994994Y2864999D01*
G75*
G02*
X98079994Y2949999I85000J0D01*
G01*
X98759994Y2949999D01*
G75*
G02*
X98844994Y2864999I0J-85000D01*
G01*
X98844994Y2184999D01*
G75*
G02*
X98759994Y2099999I-85000J0D01*
G01*
G37*
G36*
G01*
X98759994Y3680001D02*
X98079994Y3680001D01*
G75*
G02*
X97994994Y3765001I0J85000D01*
G01*
X97994994Y4445001D01*
G75*
G02*
X98079994Y4530001I85000J0D01*
G01*
X98759994Y4530001D01*
G75*
G02*
X98844994Y4445001I0J-85000D01*
G01*
X98844994Y3765001D01*
G75*
G02*
X98759994Y3680001I-85000J0D01*
G01*
G37*
G04 #@! TD*
G04 #@! TO.C,R16*
G36*
G01*
X3235000Y43785000D02*
X3235000Y43005000D01*
G75*
G02*
X3165000Y42935000I-70000J0D01*
G01*
X2605000Y42935000D01*
G75*
G02*
X2535000Y43005000I0J70000D01*
G01*
X2535000Y43785000D01*
G75*
G02*
X2605000Y43855000I70000J0D01*
G01*
X3165000Y43855000D01*
G75*
G02*
X3235000Y43785000I0J-70000D01*
G01*
G37*
G36*
G01*
X1635000Y43785000D02*
X1635000Y43005000D01*
G75*
G02*
X1565000Y42935000I-70000J0D01*
G01*
X1005000Y42935000D01*
G75*
G02*
X935000Y43005000I0J70000D01*
G01*
X935000Y43785000D01*
G75*
G02*
X1005000Y43855000I70000J0D01*
G01*
X1565000Y43855000D01*
G75*
G02*
X1635000Y43785000I0J-70000D01*
G01*
G37*
G04 #@! TD*
G04 #@! TO.C,L2*
G36*
G01*
X88050000Y13608750D02*
X88050000Y14121250D01*
G75*
G02*
X88268750Y14340000I218750J0D01*
G01*
X88706250Y14340000D01*
G75*
G02*
X88925000Y14121250I0J-218750D01*
G01*
X88925000Y13608750D01*
G75*
G02*
X88706250Y13390000I-218750J0D01*
G01*
X88268750Y13390000D01*
G75*
G02*
X88050000Y13608750I0J218750D01*
G01*
G37*
G36*
G01*
X89625000Y13608750D02*
X89625000Y14121250D01*
G75*
G02*
X89843750Y14340000I218750J0D01*
G01*
X90281250Y14340000D01*
G75*
G02*
X90500000Y14121250I0J-218750D01*
G01*
X90500000Y13608750D01*
G75*
G02*
X90281250Y13390000I-218750J0D01*
G01*
X89843750Y13390000D01*
G75*
G02*
X89625000Y13608750I0J218750D01*
G01*
G37*
G04 #@! TD*
G04 #@! TO.C,R15*
G36*
G01*
X3235000Y50565000D02*
X3235000Y49785000D01*
G75*
G02*
X3165000Y49715000I-70000J0D01*
G01*
X2605000Y49715000D01*
G75*
G02*
X2535000Y49785000I0J70000D01*
G01*
X2535000Y50565000D01*
G75*
G02*
X2605000Y50635000I70000J0D01*
G01*
X3165000Y50635000D01*
G75*
G02*
X3235000Y50565000I0J-70000D01*
G01*
G37*
G36*
G01*
X1635000Y50565000D02*
X1635000Y49785000D01*
G75*
G02*
X1565000Y49715000I-70000J0D01*
G01*
X1005000Y49715000D01*
G75*
G02*
X935000Y49785000I0J70000D01*
G01*
X935000Y50565000D01*
G75*
G02*
X1005000Y50635000I70000J0D01*
G01*
X1565000Y50635000D01*
G75*
G02*
X1635000Y50565000I0J-70000D01*
G01*
G37*
G04 #@! TD*
G04 #@! TO.C,R11*
G36*
G01*
X955000Y24435000D02*
X955000Y25215000D01*
G75*
G02*
X1025000Y25285000I70000J0D01*
G01*
X1585000Y25285000D01*
G75*
G02*
X1655000Y25215000I0J-70000D01*
G01*
X1655000Y24435000D01*
G75*
G02*
X1585000Y24365000I-70000J0D01*
G01*
X1025000Y24365000D01*
G75*
G02*
X955000Y24435000I0J70000D01*
G01*
G37*
G36*
G01*
X2555000Y24435000D02*
X2555000Y25215000D01*
G75*
G02*
X2625000Y25285000I70000J0D01*
G01*
X3185000Y25285000D01*
G75*
G02*
X3255000Y25215000I0J-70000D01*
G01*
X3255000Y24435000D01*
G75*
G02*
X3185000Y24365000I-70000J0D01*
G01*
X2625000Y24365000D01*
G75*
G02*
X2555000Y24435000I0J70000D01*
G01*
G37*
G04 #@! TD*
G04 #@! TO.C,D3*
G36*
G01*
X4860000Y24005000D02*
X4860000Y25025000D01*
G75*
G02*
X4950000Y25115000I90000J0D01*
G01*
X5670000Y25115000D01*
G75*
G02*
X5760000Y25025000I0J-90000D01*
G01*
X5760000Y24005000D01*
G75*
G02*
X5670000Y23915000I-90000J0D01*
G01*
X4950000Y23915000D01*
G75*
G02*
X4860000Y24005000I0J90000D01*
G01*
G37*
G36*
G01*
X8160000Y24005000D02*
X8160000Y25025000D01*
G75*
G02*
X8250000Y25115000I90000J0D01*
G01*
X8970000Y25115000D01*
G75*
G02*
X9060000Y25025000I0J-90000D01*
G01*
X9060000Y24005000D01*
G75*
G02*
X8970000Y23915000I-90000J0D01*
G01*
X8250000Y23915000D01*
G75*
G02*
X8160000Y24005000I0J90000D01*
G01*
G37*
G04 #@! TD*
D10*
G04 #@! TO.C,U1*
X11115000Y6280000D03*
X12575000Y6280000D03*
X14035000Y6280000D03*
X15495000Y6280000D03*
X16955000Y6280000D03*
X11115000Y8530000D03*
X12575000Y8530000D03*
X14035000Y8530000D03*
X15495000Y8530000D03*
X16955000Y8530000D03*
D11*
X11535000Y2605000D03*
X12535000Y2605000D03*
X13535000Y2605000D03*
X14535000Y2605000D03*
X15535000Y2605000D03*
X16535000Y2605000D03*
X16535000Y12205000D03*
X15535000Y12205000D03*
X14535000Y12205000D03*
X13535000Y12205000D03*
X12535000Y12205000D03*
X11535000Y12205000D03*
G04 #@! TD*
D10*
G04 #@! TO.C,U2*
X2395000Y15880000D03*
X3855000Y15880000D03*
X5315000Y15880000D03*
X6775000Y15880000D03*
X8235000Y15880000D03*
X2395000Y18130000D03*
X3855000Y18130000D03*
X5315000Y18130000D03*
X6775000Y18130000D03*
X8235000Y18130000D03*
D11*
X2815000Y12205000D03*
X3815000Y12205000D03*
X4815000Y12205000D03*
X5815000Y12205000D03*
X6815000Y12205000D03*
X7815000Y12205000D03*
X7815000Y21805000D03*
X6815000Y21805000D03*
X5815000Y21805000D03*
X4815000Y21805000D03*
X3815000Y21805000D03*
X2815000Y21805000D03*
G04 #@! TD*
G04 #@! TO.C,R32*
G36*
G01*
X935000Y33775000D02*
X935000Y34555000D01*
G75*
G02*
X1005000Y34625000I70000J0D01*
G01*
X1565000Y34625000D01*
G75*
G02*
X1635000Y34555000I0J-70000D01*
G01*
X1635000Y33775000D01*
G75*
G02*
X1565000Y33705000I-70000J0D01*
G01*
X1005000Y33705000D01*
G75*
G02*
X935000Y33775000I0J70000D01*
G01*
G37*
G36*
G01*
X2535000Y33775000D02*
X2535000Y34555000D01*
G75*
G02*
X2605000Y34625000I70000J0D01*
G01*
X3165000Y34625000D01*
G75*
G02*
X3235000Y34555000I0J-70000D01*
G01*
X3235000Y33775000D01*
G75*
G02*
X3165000Y33705000I-70000J0D01*
G01*
X2605000Y33705000D01*
G75*
G02*
X2535000Y33775000I0J70000D01*
G01*
G37*
G04 #@! TD*
G04 #@! TO.C,C28*
G36*
G01*
X88069999Y11725000D02*
X88069999Y12405000D01*
G75*
G02*
X88154999Y12490000I85000J0D01*
G01*
X88834999Y12490000D01*
G75*
G02*
X88919999Y12405000I0J-85000D01*
G01*
X88919999Y11725000D01*
G75*
G02*
X88834999Y11640000I-85000J0D01*
G01*
X88154999Y11640000D01*
G75*
G02*
X88069999Y11725000I0J85000D01*
G01*
G37*
G36*
G01*
X89650001Y11725000D02*
X89650001Y12405000D01*
G75*
G02*
X89735001Y12490000I85000J0D01*
G01*
X90415001Y12490000D01*
G75*
G02*
X90500001Y12405000I0J-85000D01*
G01*
X90500001Y11725000D01*
G75*
G02*
X90415001Y11640000I-85000J0D01*
G01*
X89735001Y11640000D01*
G75*
G02*
X89650001Y11725000I0J85000D01*
G01*
G37*
G04 #@! TD*
G04 #@! TO.C,Q9*
G36*
G01*
X34495000Y51275000D02*
X34495000Y50575000D01*
G75*
G02*
X34245000Y50325000I-250000J0D01*
G01*
X32545000Y50325000D01*
G75*
G02*
X32295000Y50575000I0J250000D01*
G01*
X32295000Y51275000D01*
G75*
G02*
X32545000Y51525000I250000J0D01*
G01*
X34245000Y51525000D01*
G75*
G02*
X34495000Y51275000I0J-250000D01*
G01*
G37*
G36*
G01*
X30295000Y52805000D02*
X30295000Y50555000D01*
G75*
G02*
X30045000Y50305000I-250000J0D01*
G01*
X27495000Y50305000D01*
G75*
G02*
X27245000Y50555000I0J250000D01*
G01*
X27245000Y52805000D01*
G75*
G02*
X27495000Y53055000I250000J0D01*
G01*
X30045000Y53055000D01*
G75*
G02*
X30295000Y52805000I0J-250000D01*
G01*
G37*
G36*
G01*
X30295000Y55855000D02*
X30295000Y53605000D01*
G75*
G02*
X30045000Y53355000I-250000J0D01*
G01*
X27495000Y53355000D01*
G75*
G02*
X27245000Y53605000I0J250000D01*
G01*
X27245000Y55855000D01*
G75*
G02*
X27495000Y56105000I250000J0D01*
G01*
X30045000Y56105000D01*
G75*
G02*
X30295000Y55855000I0J-250000D01*
G01*
G37*
G36*
G01*
X26945000Y52805000D02*
X26945000Y50555000D01*
G75*
G02*
X26695000Y50305000I-250000J0D01*
G01*
X24145000Y50305000D01*
G75*
G02*
X23895000Y50555000I0J250000D01*
G01*
X23895000Y52805000D01*
G75*
G02*
X24145000Y53055000I250000J0D01*
G01*
X26695000Y53055000D01*
G75*
G02*
X26945000Y52805000I0J-250000D01*
G01*
G37*
G36*
G01*
X26945000Y55855000D02*
X26945000Y53605000D01*
G75*
G02*
X26695000Y53355000I-250000J0D01*
G01*
X24145000Y53355000D01*
G75*
G02*
X23895000Y53605000I0J250000D01*
G01*
X23895000Y55855000D01*
G75*
G02*
X24145000Y56105000I250000J0D01*
G01*
X26695000Y56105000D01*
G75*
G02*
X26945000Y55855000I0J-250000D01*
G01*
G37*
G36*
G01*
X34495000Y55835000D02*
X34495000Y55135000D01*
G75*
G02*
X34245000Y54885000I-250000J0D01*
G01*
X32545000Y54885000D01*
G75*
G02*
X32295000Y55135000I0J250000D01*
G01*
X32295000Y55835000D01*
G75*
G02*
X32545000Y56085000I250000J0D01*
G01*
X34245000Y56085000D01*
G75*
G02*
X34495000Y55835000I0J-250000D01*
G01*
G37*
G04 #@! TD*
G04 #@! TO.C,U6*
G36*
G01*
X1005000Y48510000D02*
X1005000Y48810000D01*
G75*
G02*
X1155000Y48960000I150000J0D01*
G01*
X2805000Y48960000D01*
G75*
G02*
X2955000Y48810000I0J-150000D01*
G01*
X2955000Y48510000D01*
G75*
G02*
X2805000Y48360000I-150000J0D01*
G01*
X1155000Y48360000D01*
G75*
G02*
X1005000Y48510000I0J150000D01*
G01*
G37*
G36*
G01*
X1005000Y47240000D02*
X1005000Y47540000D01*
G75*
G02*
X1155000Y47690000I150000J0D01*
G01*
X2805000Y47690000D01*
G75*
G02*
X2955000Y47540000I0J-150000D01*
G01*
X2955000Y47240000D01*
G75*
G02*
X2805000Y47090000I-150000J0D01*
G01*
X1155000Y47090000D01*
G75*
G02*
X1005000Y47240000I0J150000D01*
G01*
G37*
G36*
G01*
X1005000Y45970000D02*
X1005000Y46270000D01*
G75*
G02*
X1155000Y46420000I150000J0D01*
G01*
X2805000Y46420000D01*
G75*
G02*
X2955000Y46270000I0J-150000D01*
G01*
X2955000Y45970000D01*
G75*
G02*
X2805000Y45820000I-150000J0D01*
G01*
X1155000Y45820000D01*
G75*
G02*
X1005000Y45970000I0J150000D01*
G01*
G37*
G36*
G01*
X1005000Y44700000D02*
X1005000Y45000000D01*
G75*
G02*
X1155000Y45150000I150000J0D01*
G01*
X2805000Y45150000D01*
G75*
G02*
X2955000Y45000000I0J-150000D01*
G01*
X2955000Y44700000D01*
G75*
G02*
X2805000Y44550000I-150000J0D01*
G01*
X1155000Y44550000D01*
G75*
G02*
X1005000Y44700000I0J150000D01*
G01*
G37*
G36*
G01*
X5955000Y44700000D02*
X5955000Y45000000D01*
G75*
G02*
X6105000Y45150000I150000J0D01*
G01*
X7755000Y45150000D01*
G75*
G02*
X7905000Y45000000I0J-150000D01*
G01*
X7905000Y44700000D01*
G75*
G02*
X7755000Y44550000I-150000J0D01*
G01*
X6105000Y44550000D01*
G75*
G02*
X5955000Y44700000I0J150000D01*
G01*
G37*
G36*
G01*
X5955000Y45970000D02*
X5955000Y46270000D01*
G75*
G02*
X6105000Y46420000I150000J0D01*
G01*
X7755000Y46420000D01*
G75*
G02*
X7905000Y46270000I0J-150000D01*
G01*
X7905000Y45970000D01*
G75*
G02*
X7755000Y45820000I-150000J0D01*
G01*
X6105000Y45820000D01*
G75*
G02*
X5955000Y45970000I0J150000D01*
G01*
G37*
G36*
G01*
X5955000Y47240000D02*
X5955000Y47540000D01*
G75*
G02*
X6105000Y47690000I150000J0D01*
G01*
X7755000Y47690000D01*
G75*
G02*
X7905000Y47540000I0J-150000D01*
G01*
X7905000Y47240000D01*
G75*
G02*
X7755000Y47090000I-150000J0D01*
G01*
X6105000Y47090000D01*
G75*
G02*
X5955000Y47240000I0J150000D01*
G01*
G37*
G36*
G01*
X5955000Y48510000D02*
X5955000Y48810000D01*
G75*
G02*
X6105000Y48960000I150000J0D01*
G01*
X7755000Y48960000D01*
G75*
G02*
X7905000Y48810000I0J-150000D01*
G01*
X7905000Y48510000D01*
G75*
G02*
X7755000Y48360000I-150000J0D01*
G01*
X6105000Y48360000D01*
G75*
G02*
X5955000Y48510000I0J150000D01*
G01*
G37*
G04 #@! TD*
G04 #@! TO.C,L1*
G36*
G01*
X97040000Y14101250D02*
X97040000Y13588750D01*
G75*
G02*
X96821250Y13370000I-218750J0D01*
G01*
X96383750Y13370000D01*
G75*
G02*
X96165000Y13588750I0J218750D01*
G01*
X96165000Y14101250D01*
G75*
G02*
X96383750Y14320000I218750J0D01*
G01*
X96821250Y14320000D01*
G75*
G02*
X97040000Y14101250I0J-218750D01*
G01*
G37*
G36*
G01*
X95465000Y14101250D02*
X95465000Y13588750D01*
G75*
G02*
X95246250Y13370000I-218750J0D01*
G01*
X94808750Y13370000D01*
G75*
G02*
X94590000Y13588750I0J218750D01*
G01*
X94590000Y14101250D01*
G75*
G02*
X94808750Y14320000I218750J0D01*
G01*
X95246250Y14320000D01*
G75*
G02*
X95465000Y14101250I0J-218750D01*
G01*
G37*
G04 #@! TD*
G04 #@! TO.C,Q11*
G36*
G01*
X34525000Y35055000D02*
X34525000Y34355000D01*
G75*
G02*
X34275000Y34105000I-250000J0D01*
G01*
X32575000Y34105000D01*
G75*
G02*
X32325000Y34355000I0J250000D01*
G01*
X32325000Y35055000D01*
G75*
G02*
X32575000Y35305000I250000J0D01*
G01*
X34275000Y35305000D01*
G75*
G02*
X34525000Y35055000I0J-250000D01*
G01*
G37*
G36*
G01*
X30325000Y36585000D02*
X30325000Y34335000D01*
G75*
G02*
X30075000Y34085000I-250000J0D01*
G01*
X27525000Y34085000D01*
G75*
G02*
X27275000Y34335000I0J250000D01*
G01*
X27275000Y36585000D01*
G75*
G02*
X27525000Y36835000I250000J0D01*
G01*
X30075000Y36835000D01*
G75*
G02*
X30325000Y36585000I0J-250000D01*
G01*
G37*
G36*
G01*
X30325000Y39635000D02*
X30325000Y37385000D01*
G75*
G02*
X30075000Y37135000I-250000J0D01*
G01*
X27525000Y37135000D01*
G75*
G02*
X27275000Y37385000I0J250000D01*
G01*
X27275000Y39635000D01*
G75*
G02*
X27525000Y39885000I250000J0D01*
G01*
X30075000Y39885000D01*
G75*
G02*
X30325000Y39635000I0J-250000D01*
G01*
G37*
G36*
G01*
X26975000Y36585000D02*
X26975000Y34335000D01*
G75*
G02*
X26725000Y34085000I-250000J0D01*
G01*
X24175000Y34085000D01*
G75*
G02*
X23925000Y34335000I0J250000D01*
G01*
X23925000Y36585000D01*
G75*
G02*
X24175000Y36835000I250000J0D01*
G01*
X26725000Y36835000D01*
G75*
G02*
X26975000Y36585000I0J-250000D01*
G01*
G37*
G36*
G01*
X26975000Y39635000D02*
X26975000Y37385000D01*
G75*
G02*
X26725000Y37135000I-250000J0D01*
G01*
X24175000Y37135000D01*
G75*
G02*
X23925000Y37385000I0J250000D01*
G01*
X23925000Y39635000D01*
G75*
G02*
X24175000Y39885000I250000J0D01*
G01*
X26725000Y39885000D01*
G75*
G02*
X26975000Y39635000I0J-250000D01*
G01*
G37*
G36*
G01*
X34525000Y39615000D02*
X34525000Y38915000D01*
G75*
G02*
X34275000Y38665000I-250000J0D01*
G01*
X32575000Y38665000D01*
G75*
G02*
X32325000Y38915000I0J250000D01*
G01*
X32325000Y39615000D01*
G75*
G02*
X32575000Y39865000I250000J0D01*
G01*
X34275000Y39865000D01*
G75*
G02*
X34525000Y39615000I0J-250000D01*
G01*
G37*
G04 #@! TD*
D12*
G04 #@! TO.C,U5*
X74175000Y13575000D03*
X72675000Y13575000D03*
X71175000Y13575000D03*
X69675000Y13575000D03*
X68175000Y13575000D03*
X66675000Y13575000D03*
X65175000Y13575000D03*
X63675000Y13575000D03*
X62175000Y13575000D03*
X60675000Y13575000D03*
X59175000Y13575000D03*
X57675000Y13575000D03*
X56175000Y13575000D03*
X56175000Y875000D03*
X57675000Y875000D03*
X59175000Y875000D03*
X60675000Y875000D03*
X62175000Y875000D03*
X63675000Y875000D03*
X65175000Y875000D03*
X66675000Y875000D03*
X68175000Y875000D03*
X69675000Y875000D03*
X71175000Y875000D03*
X72675000Y875000D03*
X74175000Y875000D03*
G04 #@! TD*
G04 #@! TO.C,U12*
G36*
G01*
X64503700Y61365000D02*
X63996300Y61365000D01*
G75*
G02*
X63955000Y61406300I0J41300D01*
G01*
X63955000Y63343700D01*
G75*
G02*
X63996300Y63385000I41300J0D01*
G01*
X64503700Y63385000D01*
G75*
G02*
X64545000Y63343700I0J-41300D01*
G01*
X64545000Y61406300D01*
G75*
G02*
X64503700Y61365000I-41300J0D01*
G01*
G37*
G36*
G01*
X65773700Y61365000D02*
X65266300Y61365000D01*
G75*
G02*
X65225000Y61406300I0J41300D01*
G01*
X65225000Y63343700D01*
G75*
G02*
X65266300Y63385000I41300J0D01*
G01*
X65773700Y63385000D01*
G75*
G02*
X65815000Y63343700I0J-41300D01*
G01*
X65815000Y61406300D01*
G75*
G02*
X65773700Y61365000I-41300J0D01*
G01*
G37*
G36*
G01*
X67043700Y61365000D02*
X66536300Y61365000D01*
G75*
G02*
X66495000Y61406300I0J41300D01*
G01*
X66495000Y63343700D01*
G75*
G02*
X66536300Y63385000I41300J0D01*
G01*
X67043700Y63385000D01*
G75*
G02*
X67085000Y63343700I0J-41300D01*
G01*
X67085000Y61406300D01*
G75*
G02*
X67043700Y61365000I-41300J0D01*
G01*
G37*
G36*
G01*
X68313700Y61365000D02*
X67806300Y61365000D01*
G75*
G02*
X67765000Y61406300I0J41300D01*
G01*
X67765000Y63343700D01*
G75*
G02*
X67806300Y63385000I41300J0D01*
G01*
X68313700Y63385000D01*
G75*
G02*
X68355000Y63343700I0J-41300D01*
G01*
X68355000Y61406300D01*
G75*
G02*
X68313700Y61365000I-41300J0D01*
G01*
G37*
G36*
G01*
X68313700Y70725000D02*
X67806300Y70725000D01*
G75*
G02*
X67765000Y70766300I0J41300D01*
G01*
X67765000Y72703700D01*
G75*
G02*
X67806300Y72745000I41300J0D01*
G01*
X68313700Y72745000D01*
G75*
G02*
X68355000Y72703700I0J-41300D01*
G01*
X68355000Y70766300D01*
G75*
G02*
X68313700Y70725000I-41300J0D01*
G01*
G37*
G36*
G01*
X67043700Y70725000D02*
X66536300Y70725000D01*
G75*
G02*
X66495000Y70766300I0J41300D01*
G01*
X66495000Y72703700D01*
G75*
G02*
X66536300Y72745000I41300J0D01*
G01*
X67043700Y72745000D01*
G75*
G02*
X67085000Y72703700I0J-41300D01*
G01*
X67085000Y70766300D01*
G75*
G02*
X67043700Y70725000I-41300J0D01*
G01*
G37*
G36*
G01*
X65773700Y70725000D02*
X65266300Y70725000D01*
G75*
G02*
X65225000Y70766300I0J41300D01*
G01*
X65225000Y72703700D01*
G75*
G02*
X65266300Y72745000I41300J0D01*
G01*
X65773700Y72745000D01*
G75*
G02*
X65815000Y72703700I0J-41300D01*
G01*
X65815000Y70766300D01*
G75*
G02*
X65773700Y70725000I-41300J0D01*
G01*
G37*
G36*
G01*
X64503700Y70725000D02*
X63996300Y70725000D01*
G75*
G02*
X63955000Y70766300I0J41300D01*
G01*
X63955000Y72703700D01*
G75*
G02*
X63996300Y72745000I41300J0D01*
G01*
X64503700Y72745000D01*
G75*
G02*
X64545000Y72703700I0J-41300D01*
G01*
X64545000Y70766300D01*
G75*
G02*
X64503700Y70725000I-41300J0D01*
G01*
G37*
G04 #@! TD*
G04 #@! TO.C,C12*
G36*
G01*
X19580001Y14455000D02*
X19580001Y13775000D01*
G75*
G02*
X19495001Y13690000I-85000J0D01*
G01*
X18815001Y13690000D01*
G75*
G02*
X18730001Y13775000I0J85000D01*
G01*
X18730001Y14455000D01*
G75*
G02*
X18815001Y14540000I85000J0D01*
G01*
X19495001Y14540000D01*
G75*
G02*
X19580001Y14455000I0J-85000D01*
G01*
G37*
G36*
G01*
X17999999Y14455000D02*
X17999999Y13775000D01*
G75*
G02*
X17914999Y13690000I-85000J0D01*
G01*
X17234999Y13690000D01*
G75*
G02*
X17149999Y13775000I0J85000D01*
G01*
X17149999Y14455000D01*
G75*
G02*
X17234999Y14540000I85000J0D01*
G01*
X17914999Y14540000D01*
G75*
G02*
X17999999Y14455000I0J-85000D01*
G01*
G37*
G04 #@! TD*
G04 #@! TO.C,R14*
G36*
G01*
X1055000Y13395000D02*
X1835000Y13395000D01*
G75*
G02*
X1905000Y13325000I0J-70000D01*
G01*
X1905000Y12765000D01*
G75*
G02*
X1835000Y12695000I-70000J0D01*
G01*
X1055000Y12695000D01*
G75*
G02*
X985000Y12765000I0J70000D01*
G01*
X985000Y13325000D01*
G75*
G02*
X1055000Y13395000I70000J0D01*
G01*
G37*
G36*
G01*
X1055000Y11795000D02*
X1835000Y11795000D01*
G75*
G02*
X1905000Y11725000I0J-70000D01*
G01*
X1905000Y11165000D01*
G75*
G02*
X1835000Y11095000I-70000J0D01*
G01*
X1055000Y11095000D01*
G75*
G02*
X985000Y11165000I0J70000D01*
G01*
X985000Y11725000D01*
G75*
G02*
X1055000Y11795000I70000J0D01*
G01*
G37*
G04 #@! TD*
G04 #@! TO.C,Q7*
G36*
G01*
X15057500Y74621250D02*
X15757500Y74621250D01*
G75*
G02*
X16007500Y74371250I0J-250000D01*
G01*
X16007500Y72671250D01*
G75*
G02*
X15757500Y72421250I-250000J0D01*
G01*
X15057500Y72421250D01*
G75*
G02*
X14807500Y72671250I0J250000D01*
G01*
X14807500Y74371250D01*
G75*
G02*
X15057500Y74621250I250000J0D01*
G01*
G37*
G36*
G01*
X13527500Y70421250D02*
X15777500Y70421250D01*
G75*
G02*
X16027500Y70171250I0J-250000D01*
G01*
X16027500Y67621250D01*
G75*
G02*
X15777500Y67371250I-250000J0D01*
G01*
X13527500Y67371250D01*
G75*
G02*
X13277500Y67621250I0J250000D01*
G01*
X13277500Y70171250D01*
G75*
G02*
X13527500Y70421250I250000J0D01*
G01*
G37*
G36*
G01*
X10477500Y70421250D02*
X12727500Y70421250D01*
G75*
G02*
X12977500Y70171250I0J-250000D01*
G01*
X12977500Y67621250D01*
G75*
G02*
X12727500Y67371250I-250000J0D01*
G01*
X10477500Y67371250D01*
G75*
G02*
X10227500Y67621250I0J250000D01*
G01*
X10227500Y70171250D01*
G75*
G02*
X10477500Y70421250I250000J0D01*
G01*
G37*
G36*
G01*
X13527500Y67071250D02*
X15777500Y67071250D01*
G75*
G02*
X16027500Y66821250I0J-250000D01*
G01*
X16027500Y64271250D01*
G75*
G02*
X15777500Y64021250I-250000J0D01*
G01*
X13527500Y64021250D01*
G75*
G02*
X13277500Y64271250I0J250000D01*
G01*
X13277500Y66821250D01*
G75*
G02*
X13527500Y67071250I250000J0D01*
G01*
G37*
G36*
G01*
X10477500Y67071250D02*
X12727500Y67071250D01*
G75*
G02*
X12977500Y66821250I0J-250000D01*
G01*
X12977500Y64271250D01*
G75*
G02*
X12727500Y64021250I-250000J0D01*
G01*
X10477500Y64021250D01*
G75*
G02*
X10227500Y64271250I0J250000D01*
G01*
X10227500Y66821250D01*
G75*
G02*
X10477500Y67071250I250000J0D01*
G01*
G37*
G36*
G01*
X10497500Y74621250D02*
X11197500Y74621250D01*
G75*
G02*
X11447500Y74371250I0J-250000D01*
G01*
X11447500Y72671250D01*
G75*
G02*
X11197500Y72421250I-250000J0D01*
G01*
X10497500Y72421250D01*
G75*
G02*
X10247500Y72671250I0J250000D01*
G01*
X10247500Y74371250D01*
G75*
G02*
X10497500Y74621250I250000J0D01*
G01*
G37*
G04 #@! TD*
M02*
