G75*
G70*
%OFA0B0*%
%FSLAX25Y25*%
%IPPOS*%
%LPD*%
%AMOC8*
5,1,8,0,0,1.08239X$1,22.5*
%
%AMM108*
21,1,0.027170,0.052760,-0.000000,-0.000000,90.000000*
21,1,0.017320,0.062600,-0.000000,-0.000000,90.000000*
1,1,0.009840,0.026380,0.008660*
1,1,0.009840,0.026380,-0.008660*
1,1,0.009840,-0.026380,-0.008660*
1,1,0.009840,-0.026380,0.008660*
%
%AMM14*
21,1,0.092130,0.073230,0.000000,0.000000,270.000000*
21,1,0.069290,0.096060,0.000000,0.000000,270.000000*
1,1,0.022840,-0.036610,-0.034650*
1,1,0.022840,-0.036610,0.034650*
1,1,0.022840,0.036610,0.034650*
1,1,0.022840,0.036610,-0.034650*
%
%AMM15*
21,1,0.100000,0.111020,0.000000,0.000000,0.000000*
21,1,0.075590,0.135430,0.000000,0.000000,0.000000*
1,1,0.024410,0.037800,-0.055510*
1,1,0.024410,-0.037800,-0.055510*
1,1,0.024410,-0.037800,0.055510*
1,1,0.024410,0.037800,0.055510*
%
%AMM16*
21,1,0.080320,0.083460,0.000000,0.000000,0.000000*
21,1,0.059840,0.103940,0.000000,0.000000,0.000000*
1,1,0.020470,0.029920,-0.041730*
1,1,0.020470,-0.029920,-0.041730*
1,1,0.020470,-0.029920,0.041730*
1,1,0.020470,0.029920,0.041730*
%
%AMM17*
21,1,0.084250,0.053540,0.000000,0.000000,180.000000*
21,1,0.065350,0.072440,0.000000,0.000000,180.000000*
1,1,0.018900,-0.032680,0.026770*
1,1,0.018900,0.032680,0.026770*
1,1,0.018900,0.032680,-0.026770*
1,1,0.018900,-0.032680,-0.026770*
%
%AMM18*
21,1,0.040950,0.030320,0.000000,0.000000,90.000000*
21,1,0.028350,0.042910,0.000000,0.000000,90.000000*
1,1,0.012600,0.015160,0.014170*
1,1,0.012600,0.015160,-0.014170*
1,1,0.012600,-0.015160,-0.014170*
1,1,0.012600,-0.015160,0.014170*
%
%AMM19*
21,1,0.027170,0.052760,0.000000,0.000000,270.000000*
21,1,0.017320,0.062600,0.000000,0.000000,270.000000*
1,1,0.009840,-0.026380,-0.008660*
1,1,0.009840,-0.026380,0.008660*
1,1,0.009840,0.026380,0.008660*
1,1,0.009840,0.026380,-0.008660*
%
%AMM191*
21,1,0.029530,0.026380,-0.000000,-0.000000,90.000000*
21,1,0.020470,0.035430,-0.000000,-0.000000,90.000000*
1,1,0.009060,0.013190,0.010240*
1,1,0.009060,0.013190,-0.010240*
1,1,0.009060,-0.013190,-0.010240*
1,1,0.009060,-0.013190,0.010240*
%
%AMM192*
21,1,0.021650,0.027950,-0.000000,-0.000000,90.000000*
21,1,0.014170,0.035430,-0.000000,-0.000000,90.000000*
1,1,0.007480,0.013980,0.007090*
1,1,0.007480,0.013980,-0.007090*
1,1,0.007480,-0.013980,-0.007090*
1,1,0.007480,-0.013980,0.007090*
%
%AMM193*
21,1,0.016540,0.028980,-0.000000,-0.000000,270.000000*
21,1,0.010080,0.035430,-0.000000,-0.000000,270.000000*
1,1,0.006460,-0.014490,-0.005040*
1,1,0.006460,-0.014490,0.005040*
1,1,0.006460,0.014490,0.005040*
1,1,0.006460,0.014490,-0.005040*
%
%AMM194*
21,1,0.027560,0.030710,-0.000000,-0.000000,0.000000*
21,1,0.018900,0.039370,-0.000000,-0.000000,0.000000*
1,1,0.008660,0.009450,-0.015350*
1,1,0.008660,-0.009450,-0.015350*
1,1,0.008660,-0.009450,0.015350*
1,1,0.008660,0.009450,0.015350*
%
%AMM195*
21,1,0.031500,0.018900,-0.000000,-0.000000,270.000000*
21,1,0.022840,0.027560,-0.000000,-0.000000,270.000000*
1,1,0.008660,-0.009450,-0.011420*
1,1,0.008660,-0.009450,0.011420*
1,1,0.008660,0.009450,0.011420*
1,1,0.008660,0.009450,-0.011420*
%
%AMM196*
21,1,0.035430,0.072440,-0.000000,-0.000000,270.000000*
21,1,0.025200,0.082680,-0.000000,-0.000000,270.000000*
1,1,0.010240,-0.036220,-0.012600*
1,1,0.010240,-0.036220,0.012600*
1,1,0.010240,0.036220,0.012600*
1,1,0.010240,0.036220,-0.012600*
%
%AMM197*
21,1,0.031500,0.018900,-0.000000,-0.000000,0.000000*
21,1,0.022840,0.027560,-0.000000,-0.000000,0.000000*
1,1,0.008660,0.011420,-0.009450*
1,1,0.008660,-0.011420,-0.009450*
1,1,0.008660,-0.011420,0.009450*
1,1,0.008660,0.011420,0.009450*
%
%AMM198*
21,1,0.027560,0.030710,-0.000000,-0.000000,90.000000*
21,1,0.018900,0.039370,-0.000000,-0.000000,90.000000*
1,1,0.008660,0.015350,0.009450*
1,1,0.008660,0.015350,-0.009450*
1,1,0.008660,-0.015350,-0.009450*
1,1,0.008660,-0.015350,0.009450*
%
%AMM199*
21,1,0.039370,0.030320,-0.000000,-0.000000,90.000000*
21,1,0.028350,0.041340,-0.000000,-0.000000,90.000000*
1,1,0.011020,0.015160,0.014170*
1,1,0.011020,0.015160,-0.014170*
1,1,0.011020,-0.015160,-0.014170*
1,1,0.011020,-0.015160,0.014170*
%
%AMM20*
21,1,0.041340,0.026770,0.000000,0.000000,0.000000*
21,1,0.029130,0.038980,0.000000,0.000000,0.000000*
1,1,0.012210,0.014570,-0.013390*
1,1,0.012210,-0.014570,-0.013390*
1,1,0.012210,-0.014570,0.013390*
1,1,0.012210,0.014570,0.013390*
%
%AMM200*
21,1,0.047240,0.075980,-0.000000,-0.000000,180.000000*
21,1,0.034650,0.088580,-0.000000,-0.000000,180.000000*
1,1,0.012600,-0.017320,0.037990*
1,1,0.012600,0.017320,0.037990*
1,1,0.012600,0.017320,-0.037990*
1,1,0.012600,-0.017320,-0.037990*
%
%AMM201*
21,1,0.043310,0.035430,-0.000000,-0.000000,180.000000*
21,1,0.031500,0.047240,-0.000000,-0.000000,180.000000*
1,1,0.011810,-0.015750,0.017720*
1,1,0.011810,0.015750,0.017720*
1,1,0.011810,0.015750,-0.017720*
1,1,0.011810,-0.015750,-0.017720*
%
%AMM202*
21,1,0.031500,0.030710,-0.000000,-0.000000,180.000000*
21,1,0.022050,0.040160,-0.000000,-0.000000,180.000000*
1,1,0.009450,-0.011020,0.015350*
1,1,0.009450,0.011020,0.015350*
1,1,0.009450,0.011020,-0.015350*
1,1,0.009450,-0.011020,-0.015350*
%
%AMM203*
21,1,0.035430,0.072440,-0.000000,-0.000000,180.000000*
21,1,0.025200,0.082680,-0.000000,-0.000000,180.000000*
1,1,0.010240,-0.012600,0.036220*
1,1,0.010240,0.012600,0.036220*
1,1,0.010240,0.012600,-0.036220*
1,1,0.010240,-0.012600,-0.036220*
%
%AMM204*
21,1,0.141730,0.067720,-0.000000,-0.000000,180.000000*
21,1,0.120870,0.088580,-0.000000,-0.000000,180.000000*
1,1,0.020870,-0.060430,0.033860*
1,1,0.020870,0.060430,0.033860*
1,1,0.020870,0.060430,-0.033860*
1,1,0.020870,-0.060430,-0.033860*
%
%AMM205*
21,1,0.047240,0.075990,-0.000000,-0.000000,180.000000*
21,1,0.034650,0.088580,-0.000000,-0.000000,180.000000*
1,1,0.012600,-0.017320,0.037990*
1,1,0.012600,0.017320,0.037990*
1,1,0.012600,0.017320,-0.037990*
1,1,0.012600,-0.017320,-0.037990*
%
%AMM206*
21,1,0.090550,0.073230,-0.000000,-0.000000,270.000000*
21,1,0.069290,0.094490,-0.000000,-0.000000,270.000000*
1,1,0.021260,-0.036610,-0.034650*
1,1,0.021260,-0.036610,0.034650*
1,1,0.021260,0.036610,0.034650*
1,1,0.021260,0.036610,-0.034650*
%
%AMM21*
21,1,0.076380,0.036220,0.000000,0.000000,90.000000*
21,1,0.061810,0.050790,0.000000,0.000000,90.000000*
1,1,0.014570,0.018110,0.030910*
1,1,0.014570,0.018110,-0.030910*
1,1,0.014570,-0.018110,-0.030910*
1,1,0.014570,-0.018110,0.030910*
%
%AMM22*
21,1,0.038980,0.026770,0.000000,0.000000,0.000000*
21,1,0.026770,0.038980,0.000000,0.000000,0.000000*
1,1,0.012210,0.013390,-0.013390*
1,1,0.012210,-0.013390,-0.013390*
1,1,0.012210,-0.013390,0.013390*
1,1,0.012210,0.013390,0.013390*
%
%AMM23*
21,1,0.021260,0.016540,0.000000,0.000000,270.000000*
21,1,0.012600,0.025200,0.000000,0.000000,270.000000*
1,1,0.008660,-0.008270,-0.006300*
1,1,0.008660,-0.008270,0.006300*
1,1,0.008660,0.008270,0.006300*
1,1,0.008660,0.008270,-0.006300*
%
%AMM24*
21,1,0.029130,0.018900,0.000000,0.000000,90.000000*
21,1,0.018900,0.029130,0.000000,0.000000,90.000000*
1,1,0.010240,0.009450,0.009450*
1,1,0.010240,0.009450,-0.009450*
1,1,0.010240,-0.009450,-0.009450*
1,1,0.010240,-0.009450,0.009450*
%
%AMM25*
21,1,0.025200,0.019680,0.000000,0.000000,0.000000*
21,1,0.015750,0.029130,0.000000,0.000000,0.000000*
1,1,0.009450,0.007870,-0.009840*
1,1,0.009450,-0.007870,-0.009840*
1,1,0.009450,-0.007870,0.009840*
1,1,0.009450,0.007870,0.009840*
%
%AMM26*
21,1,0.025200,0.019680,0.000000,0.000000,270.000000*
21,1,0.015750,0.029130,0.000000,0.000000,270.000000*
1,1,0.009450,-0.009840,-0.007870*
1,1,0.009450,-0.009840,0.007870*
1,1,0.009450,0.009840,0.007870*
1,1,0.009450,0.009840,-0.007870*
%
%ADD10C,0.06693*%
%ADD108M14*%
%ADD109M15*%
%ADD11C,0.02756*%
%ADD110M16*%
%ADD111M17*%
%ADD112M18*%
%ADD113M19*%
%ADD114M20*%
%ADD115M21*%
%ADD116M22*%
%ADD117M23*%
%ADD118M24*%
%ADD119M25*%
%ADD12C,0.11811*%
%ADD120M26*%
%ADD121C,0.02913*%
%ADD122C,0.06457*%
%ADD144R,0.02559X0.01575*%
%ADD145R,0.01575X0.02559*%
%ADD148R,0.03543X0.03150*%
%ADD149R,0.04724X0.08661*%
%ADD150C,0.05118*%
%ADD151R,0.22835X0.25197*%
%ADD152R,0.03150X0.03543*%
%ADD153C,0.03100*%
%ADD154R,0.07500X0.07874*%
%ADD155O,0.07500X0.07874*%
%ADD156C,0.03900*%
%ADD188O,0.05118X0.01260*%
%ADD189O,0.01260X0.05118*%
%ADD190O,0.04724X0.01575*%
%ADD191C,0.03494*%
%ADD194R,0.01772X0.01378*%
%ADD195R,0.01378X0.01772*%
%ADD20C,0.05906*%
%ADD200O,0.09055X0.02756*%
%ADD207C,0.03543*%
%ADD209C,0.04294*%
%ADD21C,0.02362*%
%ADD267M108*%
%ADD276R,0.01181X0.05512*%
%ADD36R,0.04331X0.04331*%
%ADD37C,0.04331*%
%ADD38O,0.04331X0.09449*%
%ADD387M191*%
%ADD388M192*%
%ADD389M193*%
%ADD390M194*%
%ADD391M195*%
%ADD392M196*%
%ADD393M197*%
%ADD394M198*%
%ADD395M199*%
%ADD396M200*%
%ADD397M201*%
%ADD398M202*%
%ADD399M203*%
%ADD400M204*%
%ADD401M205*%
%ADD402M206*%
%ADD41C,0.09449*%
%ADD42C,0.15748*%
%ADD55R,0.03937X0.05118*%
%ADD56R,0.06693X0.06693*%
%ADD57O,0.06693X0.06693*%
%ADD58O,0.06890X0.04724*%
%ADD59C,0.06000*%
%ADD65C,0.04724*%
%ADD67C,0.00472*%
X0000000Y0000000D02*
%LPD*%
G01*
D67*
X0320669Y0052500D02*
X0294291Y0052500D01*
X0294291Y0004468D01*
X0320669Y0004468D01*
X0320669Y0052500D01*
G36*
X0320669Y0052500D02*
G01*
X0294291Y0052500D01*
X0294291Y0004468D01*
X0320669Y0004468D01*
X0320669Y0052500D01*
G37*
G36*
G01*
X0035650Y0051240D02*
X0035650Y0047106D01*
G75*
G02*
X0035256Y0046712I-000394J0000000D01*
G01*
X0032106Y0046712D01*
G75*
G02*
X0031713Y0047106I0000000J0000394D01*
G01*
X0031713Y0051240D01*
G75*
G02*
X0032106Y0051633I0000394J0000000D01*
G01*
X0035256Y0051633D01*
G75*
G02*
X0035650Y0051240I0000000J-000394D01*
G01*
G37*
G36*
G01*
X0027776Y0051240D02*
X0027776Y0047106D01*
G75*
G02*
X0027382Y0046712I-000394J0000000D01*
G01*
X0024232Y0046712D01*
G75*
G02*
X0023839Y0047106I0000000J0000394D01*
G01*
X0023839Y0051240D01*
G75*
G02*
X0024232Y0051633I0000394J0000000D01*
G01*
X0027382Y0051633D01*
G75*
G02*
X0027776Y0051240I0000000J-000394D01*
G01*
G37*
D12*
X0233878Y0264035D03*
G36*
G01*
X0360925Y0051299D02*
X0359744Y0051299D01*
G75*
G02*
X0359154Y0051889I0000000J0000591D01*
G01*
X0359154Y0056515D01*
G75*
G02*
X0359744Y0057106I0000591J0000000D01*
G01*
X0360925Y0057106D01*
G75*
G02*
X0361516Y0056515I0000000J-000591D01*
G01*
X0361516Y0051889D01*
G75*
G02*
X0360925Y0051299I-000591J0000000D01*
G01*
G37*
G36*
G01*
X0368406Y0051299D02*
X0367224Y0051299D01*
G75*
G02*
X0366634Y0051889I0000000J0000591D01*
G01*
X0366634Y0056515D01*
G75*
G02*
X0367224Y0057106I0000591J0000000D01*
G01*
X0368406Y0057106D01*
G75*
G02*
X0368996Y0056515I0000000J-000591D01*
G01*
X0368996Y0051889D01*
G75*
G02*
X0368406Y0051299I-000591J0000000D01*
G01*
G37*
G36*
G01*
X0364665Y0058681D02*
X0363484Y0058681D01*
G75*
G02*
X0362894Y0059271I0000000J0000591D01*
G01*
X0362894Y0063897D01*
G75*
G02*
X0363484Y0064488I0000591J0000000D01*
G01*
X0364665Y0064488D01*
G75*
G02*
X0365256Y0063897I0000000J-000591D01*
G01*
X0365256Y0059271D01*
G75*
G02*
X0364665Y0058681I-000591J0000000D01*
G01*
G37*
G36*
G01*
X0003898Y0118445D02*
X0003898Y0119626D01*
G75*
G02*
X0004488Y0120216I0000591J0000000D01*
G01*
X0010984Y0120216D01*
G75*
G02*
X0011575Y0119626I0000000J-000591D01*
G01*
X0011575Y0118445D01*
G75*
G02*
X0010984Y0117854I-000591J0000000D01*
G01*
X0004488Y0117854D01*
G75*
G02*
X0003898Y0118445I0000000J0000591D01*
G01*
G37*
G36*
G01*
X0003898Y0113445D02*
X0003898Y0114626D01*
G75*
G02*
X0004488Y0115216I0000591J0000000D01*
G01*
X0010984Y0115216D01*
G75*
G02*
X0011575Y0114626I0000000J-000591D01*
G01*
X0011575Y0113445D01*
G75*
G02*
X0010984Y0112854I-000591J0000000D01*
G01*
X0004488Y0112854D01*
G75*
G02*
X0003898Y0113445I0000000J0000591D01*
G01*
G37*
G36*
G01*
X0003898Y0108445D02*
X0003898Y0109626D01*
G75*
G02*
X0004488Y0110216I0000591J0000000D01*
G01*
X0010984Y0110216D01*
G75*
G02*
X0011575Y0109626I0000000J-000591D01*
G01*
X0011575Y0108445D01*
G75*
G02*
X0010984Y0107854I-000591J0000000D01*
G01*
X0004488Y0107854D01*
G75*
G02*
X0003898Y0108445I0000000J0000591D01*
G01*
G37*
G36*
G01*
X0003898Y0103445D02*
X0003898Y0104626D01*
G75*
G02*
X0004488Y0105216I0000591J0000000D01*
G01*
X0010984Y0105216D01*
G75*
G02*
X0011575Y0104626I0000000J-000591D01*
G01*
X0011575Y0103445D01*
G75*
G02*
X0010984Y0102854I-000591J0000000D01*
G01*
X0004488Y0102854D01*
G75*
G02*
X0003898Y0103445I0000000J0000591D01*
G01*
G37*
G36*
G01*
X0023386Y0103445D02*
X0023386Y0104626D01*
G75*
G02*
X0023976Y0105216I0000591J0000000D01*
G01*
X0030472Y0105216D01*
G75*
G02*
X0031063Y0104626I0000000J-000591D01*
G01*
X0031063Y0103445D01*
G75*
G02*
X0030472Y0102854I-000591J0000000D01*
G01*
X0023976Y0102854D01*
G75*
G02*
X0023386Y0103445I0000000J0000591D01*
G01*
G37*
G36*
G01*
X0023386Y0108445D02*
X0023386Y0109626D01*
G75*
G02*
X0023976Y0110216I0000591J0000000D01*
G01*
X0030472Y0110216D01*
G75*
G02*
X0031063Y0109626I0000000J-000591D01*
G01*
X0031063Y0108445D01*
G75*
G02*
X0030472Y0107854I-000591J0000000D01*
G01*
X0023976Y0107854D01*
G75*
G02*
X0023386Y0108445I0000000J0000591D01*
G01*
G37*
G36*
G01*
X0023386Y0113445D02*
X0023386Y0114626D01*
G75*
G02*
X0023976Y0115216I0000591J0000000D01*
G01*
X0030472Y0115216D01*
G75*
G02*
X0031063Y0114626I0000000J-000591D01*
G01*
X0031063Y0113445D01*
G75*
G02*
X0030472Y0112854I-000591J0000000D01*
G01*
X0023976Y0112854D01*
G75*
G02*
X0023386Y0113445I0000000J0000591D01*
G01*
G37*
G36*
G01*
X0023386Y0118445D02*
X0023386Y0119626D01*
G75*
G02*
X0023976Y0120216I0000591J0000000D01*
G01*
X0030472Y0120216D01*
G75*
G02*
X0031063Y0119626I0000000J-000591D01*
G01*
X0031063Y0118445D01*
G75*
G02*
X0030472Y0117854I-000591J0000000D01*
G01*
X0023976Y0117854D01*
G75*
G02*
X0023386Y0118445I0000000J0000591D01*
G01*
G37*
D10*
X0132146Y0197893D03*
G36*
G01*
X0035650Y0066988D02*
X0035650Y0062854D01*
G75*
G02*
X0035256Y0062460I-000394J0000000D01*
G01*
X0032106Y0062460D01*
G75*
G02*
X0031713Y0062854I0000000J0000394D01*
G01*
X0031713Y0066988D01*
G75*
G02*
X0032106Y0067382I0000394J0000000D01*
G01*
X0035256Y0067382D01*
G75*
G02*
X0035650Y0066988I0000000J-000394D01*
G01*
G37*
G36*
G01*
X0027776Y0066988D02*
X0027776Y0062854D01*
G75*
G02*
X0027382Y0062460I-000394J0000000D01*
G01*
X0024232Y0062460D01*
G75*
G02*
X0023839Y0062854I0000000J0000394D01*
G01*
X0023839Y0066988D01*
G75*
G02*
X0024232Y0067382I0000394J0000000D01*
G01*
X0027382Y0067382D01*
G75*
G02*
X0027776Y0066988I0000000J-000394D01*
G01*
G37*
G36*
G01*
X0246516Y0249133D02*
X0249193Y0249133D01*
G75*
G02*
X0249528Y0248799I0000000J-000335D01*
G01*
X0249528Y0246122D01*
G75*
G02*
X0249193Y0245787I-000335J0000000D01*
G01*
X0246516Y0245787D01*
G75*
G02*
X0246181Y0246122I0000000J0000335D01*
G01*
X0246181Y0248799D01*
G75*
G02*
X0246516Y0249133I0000335J0000000D01*
G01*
G37*
G36*
G01*
X0246516Y0242913D02*
X0249193Y0242913D01*
G75*
G02*
X0249528Y0242578I0000000J-000335D01*
G01*
X0249528Y0239901D01*
G75*
G02*
X0249193Y0239567I-000335J0000000D01*
G01*
X0246516Y0239567D01*
G75*
G02*
X0246181Y0239901I0000000J0000335D01*
G01*
X0246181Y0242578D01*
G75*
G02*
X0246516Y0242913I0000335J0000000D01*
G01*
G37*
G36*
G01*
X0137933Y0221279D02*
X0137933Y0218208D01*
G75*
G02*
X0137657Y0217933I-000276J0000000D01*
G01*
X0135453Y0217933D01*
G75*
G02*
X0135177Y0218208I0000000J0000276D01*
G01*
X0135177Y0221279D01*
G75*
G02*
X0135453Y0221555I0000276J0000000D01*
G01*
X0137657Y0221555D01*
G75*
G02*
X0137933Y0221279I0000000J-000276D01*
G01*
G37*
G36*
G01*
X0131634Y0221279D02*
X0131634Y0218208D01*
G75*
G02*
X0131358Y0217933I-000276J0000000D01*
G01*
X0129154Y0217933D01*
G75*
G02*
X0128878Y0218208I0000000J0000276D01*
G01*
X0128878Y0221279D01*
G75*
G02*
X0129154Y0221555I0000276J0000000D01*
G01*
X0131358Y0221555D01*
G75*
G02*
X0131634Y0221279I0000000J-000276D01*
G01*
G37*
G36*
G01*
X0041988Y0043130D02*
X0041988Y0047263D01*
G75*
G02*
X0042382Y0047657I0000394J0000000D01*
G01*
X0045531Y0047657D01*
G75*
G02*
X0045925Y0047263I0000000J-000394D01*
G01*
X0045925Y0043130D01*
G75*
G02*
X0045531Y0042736I-000394J0000000D01*
G01*
X0042382Y0042736D01*
G75*
G02*
X0041988Y0043130I0000000J0000394D01*
G01*
G37*
G36*
G01*
X0049862Y0043130D02*
X0049862Y0047263D01*
G75*
G02*
X0050256Y0047657I0000394J0000000D01*
G01*
X0053406Y0047657D01*
G75*
G02*
X0053799Y0047263I0000000J-000394D01*
G01*
X0053799Y0043130D01*
G75*
G02*
X0053406Y0042736I-000394J0000000D01*
G01*
X0050256Y0042736D01*
G75*
G02*
X0049862Y0043130I0000000J0000394D01*
G01*
G37*
G36*
G01*
X0003957Y0154724D02*
X0003957Y0155905D01*
G75*
G02*
X0004547Y0156496I0000591J0000000D01*
G01*
X0011043Y0156496D01*
G75*
G02*
X0011634Y0155905I0000000J-000591D01*
G01*
X0011634Y0154724D01*
G75*
G02*
X0011043Y0154133I-000591J0000000D01*
G01*
X0004547Y0154133D01*
G75*
G02*
X0003957Y0154724I0000000J0000591D01*
G01*
G37*
G36*
G01*
X0003957Y0149724D02*
X0003957Y0150905D01*
G75*
G02*
X0004547Y0151496I0000591J0000000D01*
G01*
X0011043Y0151496D01*
G75*
G02*
X0011634Y0150905I0000000J-000591D01*
G01*
X0011634Y0149724D01*
G75*
G02*
X0011043Y0149133I-000591J0000000D01*
G01*
X0004547Y0149133D01*
G75*
G02*
X0003957Y0149724I0000000J0000591D01*
G01*
G37*
G36*
G01*
X0003957Y0144724D02*
X0003957Y0145905D01*
G75*
G02*
X0004547Y0146496I0000591J0000000D01*
G01*
X0011043Y0146496D01*
G75*
G02*
X0011634Y0145905I0000000J-000591D01*
G01*
X0011634Y0144724D01*
G75*
G02*
X0011043Y0144133I-000591J0000000D01*
G01*
X0004547Y0144133D01*
G75*
G02*
X0003957Y0144724I0000000J0000591D01*
G01*
G37*
G36*
G01*
X0003957Y0139724D02*
X0003957Y0140905D01*
G75*
G02*
X0004547Y0141496I0000591J0000000D01*
G01*
X0011043Y0141496D01*
G75*
G02*
X0011634Y0140905I0000000J-000591D01*
G01*
X0011634Y0139724D01*
G75*
G02*
X0011043Y0139133I-000591J0000000D01*
G01*
X0004547Y0139133D01*
G75*
G02*
X0003957Y0139724I0000000J0000591D01*
G01*
G37*
G36*
G01*
X0023445Y0139724D02*
X0023445Y0140905D01*
G75*
G02*
X0024035Y0141496I0000591J0000000D01*
G01*
X0030531Y0141496D01*
G75*
G02*
X0031122Y0140905I0000000J-000591D01*
G01*
X0031122Y0139724D01*
G75*
G02*
X0030531Y0139133I-000591J0000000D01*
G01*
X0024035Y0139133D01*
G75*
G02*
X0023445Y0139724I0000000J0000591D01*
G01*
G37*
G36*
G01*
X0023445Y0144724D02*
X0023445Y0145905D01*
G75*
G02*
X0024035Y0146496I0000591J0000000D01*
G01*
X0030531Y0146496D01*
G75*
G02*
X0031122Y0145905I0000000J-000591D01*
G01*
X0031122Y0144724D01*
G75*
G02*
X0030531Y0144133I-000591J0000000D01*
G01*
X0024035Y0144133D01*
G75*
G02*
X0023445Y0144724I0000000J0000591D01*
G01*
G37*
G36*
G01*
X0023445Y0149724D02*
X0023445Y0150905D01*
G75*
G02*
X0024035Y0151496I0000591J0000000D01*
G01*
X0030531Y0151496D01*
G75*
G02*
X0031122Y0150905I0000000J-000591D01*
G01*
X0031122Y0149724D01*
G75*
G02*
X0030531Y0149133I-000591J0000000D01*
G01*
X0024035Y0149133D01*
G75*
G02*
X0023445Y0149724I0000000J0000591D01*
G01*
G37*
G36*
G01*
X0023445Y0154724D02*
X0023445Y0155905D01*
G75*
G02*
X0024035Y0156496I0000591J0000000D01*
G01*
X0030531Y0156496D01*
G75*
G02*
X0031122Y0155905I0000000J-000591D01*
G01*
X0031122Y0154724D01*
G75*
G02*
X0030531Y0154133I-000591J0000000D01*
G01*
X0024035Y0154133D01*
G75*
G02*
X0023445Y0154724I0000000J0000591D01*
G01*
G37*
G36*
G01*
X0138091Y0185452D02*
X0138091Y0182382D01*
G75*
G02*
X0137815Y0182106I-000276J0000000D01*
G01*
X0135610Y0182106D01*
G75*
G02*
X0135335Y0182382I0000000J0000276D01*
G01*
X0135335Y0185452D01*
G75*
G02*
X0135610Y0185728I0000276J0000000D01*
G01*
X0137815Y0185728D01*
G75*
G02*
X0138091Y0185452I0000000J-000276D01*
G01*
G37*
G36*
G01*
X0131791Y0185452D02*
X0131791Y0182382D01*
G75*
G02*
X0131516Y0182106I-000276J0000000D01*
G01*
X0129311Y0182106D01*
G75*
G02*
X0129035Y0182382I0000000J0000276D01*
G01*
X0129035Y0185452D01*
G75*
G02*
X0129311Y0185728I0000276J0000000D01*
G01*
X0131516Y0185728D01*
G75*
G02*
X0131791Y0185452I0000000J-000276D01*
G01*
G37*
G36*
G01*
X0041988Y0027382D02*
X0041988Y0031515D01*
G75*
G02*
X0042382Y0031909I0000394J0000000D01*
G01*
X0045531Y0031909D01*
G75*
G02*
X0045925Y0031515I0000000J-000394D01*
G01*
X0045925Y0027382D01*
G75*
G02*
X0045531Y0026988I-000394J0000000D01*
G01*
X0042382Y0026988D01*
G75*
G02*
X0041988Y0027382I0000000J0000394D01*
G01*
G37*
G36*
G01*
X0049862Y0027382D02*
X0049862Y0031515D01*
G75*
G02*
X0050256Y0031909I0000394J0000000D01*
G01*
X0053406Y0031909D01*
G75*
G02*
X0053799Y0031515I0000000J-000394D01*
G01*
X0053799Y0027382D01*
G75*
G02*
X0053406Y0026988I-000394J0000000D01*
G01*
X0050256Y0026988D01*
G75*
G02*
X0049862Y0027382I0000000J0000394D01*
G01*
G37*
G36*
G01*
X0003681Y0159586D02*
X0003681Y0162657D01*
G75*
G02*
X0003957Y0162933I0000276J0000000D01*
G01*
X0006161Y0162933D01*
G75*
G02*
X0006437Y0162657I0000000J-000276D01*
G01*
X0006437Y0159586D01*
G75*
G02*
X0006161Y0159311I-000276J0000000D01*
G01*
X0003957Y0159311D01*
G75*
G02*
X0003681Y0159586I0000000J0000276D01*
G01*
G37*
G36*
G01*
X0009980Y0159586D02*
X0009980Y0162657D01*
G75*
G02*
X0010256Y0162933I0000276J0000000D01*
G01*
X0012461Y0162933D01*
G75*
G02*
X0012736Y0162657I0000000J-000276D01*
G01*
X0012736Y0159586D01*
G75*
G02*
X0012461Y0159311I-000276J0000000D01*
G01*
X0010256Y0159311D01*
G75*
G02*
X0009980Y0159586I0000000J0000276D01*
G01*
G37*
X0302894Y0068445D03*
G36*
G01*
X0124291Y0155295D02*
X0124291Y0144074D01*
G75*
G02*
X0123307Y0143090I-000984J0000000D01*
G01*
X0120453Y0143090D01*
G75*
G02*
X0119469Y0144074I0000000J0000984D01*
G01*
X0119469Y0155295D01*
G75*
G02*
X0120453Y0156279I0000984J0000000D01*
G01*
X0123307Y0156279D01*
G75*
G02*
X0124291Y0155295I0000000J-000984D01*
G01*
G37*
G36*
G01*
X0100965Y0155295D02*
X0100965Y0144074D01*
G75*
G02*
X0099980Y0143090I-000984J0000000D01*
G01*
X0097126Y0143090D01*
G75*
G02*
X0096142Y0144074I0000000J0000984D01*
G01*
X0096142Y0155295D01*
G75*
G02*
X0097126Y0156279I0000984J0000000D01*
G01*
X0099980Y0156279D01*
G75*
G02*
X0100965Y0155295I0000000J-000984D01*
G01*
G37*
G36*
G01*
X0382008Y0048917D02*
X0382008Y0046240D01*
G75*
G02*
X0381673Y0045905I-000335J0000000D01*
G01*
X0378996Y0045905D01*
G75*
G02*
X0378661Y0046240I0000000J0000335D01*
G01*
X0378661Y0048917D01*
G75*
G02*
X0378996Y0049252I0000335J0000000D01*
G01*
X0381673Y0049252D01*
G75*
G02*
X0382008Y0048917I0000000J-000335D01*
G01*
G37*
G36*
G01*
X0375787Y0048917D02*
X0375787Y0046240D01*
G75*
G02*
X0375453Y0045905I-000335J0000000D01*
G01*
X0372776Y0045905D01*
G75*
G02*
X0372441Y0046240I0000000J0000335D01*
G01*
X0372441Y0048917D01*
G75*
G02*
X0372776Y0049252I0000335J0000000D01*
G01*
X0375453Y0049252D01*
G75*
G02*
X0375787Y0048917I0000000J-000335D01*
G01*
G37*
X0419114Y0124271D03*
G36*
G01*
X0045241Y0284015D02*
X0043223Y0284015D01*
G75*
G02*
X0042362Y0284877I0000000J0000861D01*
G01*
X0042362Y0286599D01*
G75*
G02*
X0043223Y0287460I0000861J0000000D01*
G01*
X0045241Y0287460D01*
G75*
G02*
X0046102Y0286599I0000000J-000861D01*
G01*
X0046102Y0284877D01*
G75*
G02*
X0045241Y0284015I-000861J0000000D01*
G01*
G37*
G36*
G01*
X0045241Y0290216D02*
X0043223Y0290216D01*
G75*
G02*
X0042362Y0291077I0000000J0000861D01*
G01*
X0042362Y0292800D01*
G75*
G02*
X0043223Y0293661I0000861J0000000D01*
G01*
X0045241Y0293661D01*
G75*
G02*
X0046102Y0292800I0000000J-000861D01*
G01*
X0046102Y0291077D01*
G75*
G02*
X0045241Y0290216I-000861J0000000D01*
G01*
G37*
G36*
G01*
X0233858Y0063149D02*
X0233858Y0060472D01*
G75*
G02*
X0233524Y0060137I-000335J0000000D01*
G01*
X0230846Y0060137D01*
G75*
G02*
X0230512Y0060472I0000000J0000335D01*
G01*
X0230512Y0063149D01*
G75*
G02*
X0230846Y0063484I0000335J0000000D01*
G01*
X0233524Y0063484D01*
G75*
G02*
X0233858Y0063149I0000000J-000335D01*
G01*
G37*
G36*
G01*
X0227638Y0063149D02*
X0227638Y0060472D01*
G75*
G02*
X0227303Y0060137I-000335J0000000D01*
G01*
X0224626Y0060137D01*
G75*
G02*
X0224291Y0060472I0000000J0000335D01*
G01*
X0224291Y0063149D01*
G75*
G02*
X0224626Y0063484I0000335J0000000D01*
G01*
X0227303Y0063484D01*
G75*
G02*
X0227638Y0063149I0000000J-000335D01*
G01*
G37*
G36*
G01*
X0359331Y0046240D02*
X0359331Y0048917D01*
G75*
G02*
X0359665Y0049252I0000335J0000000D01*
G01*
X0362343Y0049252D01*
G75*
G02*
X0362677Y0048917I0000000J-000335D01*
G01*
X0362677Y0046240D01*
G75*
G02*
X0362343Y0045905I-000335J0000000D01*
G01*
X0359665Y0045905D01*
G75*
G02*
X0359331Y0046240I0000000J0000335D01*
G01*
G37*
G36*
G01*
X0365551Y0046240D02*
X0365551Y0048917D01*
G75*
G02*
X0365886Y0049252I0000335J0000000D01*
G01*
X0368563Y0049252D01*
G75*
G02*
X0368898Y0048917I0000000J-000335D01*
G01*
X0368898Y0046240D01*
G75*
G02*
X0368563Y0045905I-000335J0000000D01*
G01*
X0365886Y0045905D01*
G75*
G02*
X0365551Y0046240I0000000J0000335D01*
G01*
G37*
G36*
G01*
X0128583Y0149444D02*
X0128583Y0151461D01*
G75*
G02*
X0129444Y0152322I0000861J0000000D01*
G01*
X0131166Y0152322D01*
G75*
G02*
X0132028Y0151461I0000000J-000861D01*
G01*
X0132028Y0149444D01*
G75*
G02*
X0131166Y0148582I-000861J0000000D01*
G01*
X0129444Y0148582D01*
G75*
G02*
X0128583Y0149444I0000000J0000861D01*
G01*
G37*
G36*
G01*
X0134783Y0149444D02*
X0134783Y0151461D01*
G75*
G02*
X0135645Y0152322I0000861J0000000D01*
G01*
X0137367Y0152322D01*
G75*
G02*
X0138228Y0151461I0000000J-000861D01*
G01*
X0138228Y0149444D01*
G75*
G02*
X0137367Y0148582I-000861J0000000D01*
G01*
X0135645Y0148582D01*
G75*
G02*
X0134783Y0149444I0000000J0000861D01*
G01*
G37*
G36*
G01*
X0041988Y0011633D02*
X0041988Y0015767D01*
G75*
G02*
X0042382Y0016161I0000394J0000000D01*
G01*
X0045531Y0016161D01*
G75*
G02*
X0045925Y0015767I0000000J-000394D01*
G01*
X0045925Y0011633D01*
G75*
G02*
X0045531Y0011240I-000394J0000000D01*
G01*
X0042382Y0011240D01*
G75*
G02*
X0041988Y0011633I0000000J0000394D01*
G01*
G37*
G36*
G01*
X0049862Y0011633D02*
X0049862Y0015767D01*
G75*
G02*
X0050256Y0016161I0000394J0000000D01*
G01*
X0053406Y0016161D01*
G75*
G02*
X0053799Y0015767I0000000J-000394D01*
G01*
X0053799Y0011633D01*
G75*
G02*
X0053406Y0011240I-000394J0000000D01*
G01*
X0050256Y0011240D01*
G75*
G02*
X0049862Y0011633I0000000J0000394D01*
G01*
G37*
G36*
G01*
X0383130Y0010945D02*
X0383130Y0009763D01*
G75*
G02*
X0382539Y0009173I-000591J0000000D01*
G01*
X0376043Y0009173D01*
G75*
G02*
X0375453Y0009763I0000000J0000591D01*
G01*
X0375453Y0010945D01*
G75*
G02*
X0376043Y0011535I0000591J0000000D01*
G01*
X0382539Y0011535D01*
G75*
G02*
X0383130Y0010945I0000000J-000591D01*
G01*
G37*
G36*
G01*
X0383130Y0015945D02*
X0383130Y0014763D01*
G75*
G02*
X0382539Y0014173I-000591J0000000D01*
G01*
X0376043Y0014173D01*
G75*
G02*
X0375453Y0014763I0000000J0000591D01*
G01*
X0375453Y0015945D01*
G75*
G02*
X0376043Y0016535I0000591J0000000D01*
G01*
X0382539Y0016535D01*
G75*
G02*
X0383130Y0015945I0000000J-000591D01*
G01*
G37*
G36*
G01*
X0383130Y0020945D02*
X0383130Y0019763D01*
G75*
G02*
X0382539Y0019173I-000591J0000000D01*
G01*
X0376043Y0019173D01*
G75*
G02*
X0375453Y0019763I0000000J0000591D01*
G01*
X0375453Y0020945D01*
G75*
G02*
X0376043Y0021535I0000591J0000000D01*
G01*
X0382539Y0021535D01*
G75*
G02*
X0383130Y0020945I0000000J-000591D01*
G01*
G37*
G36*
G01*
X0383130Y0025945D02*
X0383130Y0024763D01*
G75*
G02*
X0382539Y0024173I-000591J0000000D01*
G01*
X0376043Y0024173D01*
G75*
G02*
X0375453Y0024763I0000000J0000591D01*
G01*
X0375453Y0025945D01*
G75*
G02*
X0376043Y0026535I0000591J0000000D01*
G01*
X0382539Y0026535D01*
G75*
G02*
X0383130Y0025945I0000000J-000591D01*
G01*
G37*
G36*
G01*
X0363642Y0025945D02*
X0363642Y0024763D01*
G75*
G02*
X0363051Y0024173I-000591J0000000D01*
G01*
X0356555Y0024173D01*
G75*
G02*
X0355965Y0024763I0000000J0000591D01*
G01*
X0355965Y0025945D01*
G75*
G02*
X0356555Y0026535I0000591J0000000D01*
G01*
X0363051Y0026535D01*
G75*
G02*
X0363642Y0025945I0000000J-000591D01*
G01*
G37*
G36*
G01*
X0363642Y0020945D02*
X0363642Y0019763D01*
G75*
G02*
X0363051Y0019173I-000591J0000000D01*
G01*
X0356555Y0019173D01*
G75*
G02*
X0355965Y0019763I0000000J0000591D01*
G01*
X0355965Y0020945D01*
G75*
G02*
X0356555Y0021535I0000591J0000000D01*
G01*
X0363051Y0021535D01*
G75*
G02*
X0363642Y0020945I0000000J-000591D01*
G01*
G37*
G36*
G01*
X0363642Y0015945D02*
X0363642Y0014763D01*
G75*
G02*
X0363051Y0014173I-000591J0000000D01*
G01*
X0356555Y0014173D01*
G75*
G02*
X0355965Y0014763I0000000J0000591D01*
G01*
X0355965Y0015945D01*
G75*
G02*
X0356555Y0016535I0000591J0000000D01*
G01*
X0363051Y0016535D01*
G75*
G02*
X0363642Y0015945I0000000J-000591D01*
G01*
G37*
G36*
G01*
X0363642Y0010945D02*
X0363642Y0009763D01*
G75*
G02*
X0363051Y0009173I-000591J0000000D01*
G01*
X0356555Y0009173D01*
G75*
G02*
X0355965Y0009763I0000000J0000591D01*
G01*
X0355965Y0010945D01*
G75*
G02*
X0356555Y0011535I0000591J0000000D01*
G01*
X0363051Y0011535D01*
G75*
G02*
X0363642Y0010945I0000000J-000591D01*
G01*
G37*
D20*
X0173386Y0085630D03*
X0173386Y0060433D03*
X0173386Y0052952D03*
X0173386Y0036023D03*
D21*
X0175157Y0026574D03*
X0175157Y0022637D03*
D20*
X0173386Y0011417D03*
X0112362Y0087401D03*
X0112362Y0080118D03*
X0112362Y0060630D03*
X0112362Y0013189D03*
G36*
G01*
X0069547Y0039389D02*
X0069547Y0035256D01*
G75*
G02*
X0069154Y0034862I-000394J0000000D01*
G01*
X0066004Y0034862D01*
G75*
G02*
X0065610Y0035256I0000000J0000394D01*
G01*
X0065610Y0039389D01*
G75*
G02*
X0066004Y0039783I0000394J0000000D01*
G01*
X0069154Y0039783D01*
G75*
G02*
X0069547Y0039389I0000000J-000394D01*
G01*
G37*
G36*
G01*
X0061673Y0039389D02*
X0061673Y0035256D01*
G75*
G02*
X0061280Y0034862I-000394J0000000D01*
G01*
X0058130Y0034862D01*
G75*
G02*
X0057736Y0035256I0000000J0000394D01*
G01*
X0057736Y0039389D01*
G75*
G02*
X0058130Y0039783I0000394J0000000D01*
G01*
X0061280Y0039783D01*
G75*
G02*
X0061673Y0039389I0000000J-000394D01*
G01*
G37*
D10*
X0155886Y0105807D03*
G36*
G01*
X0393917Y0008307D02*
X0391240Y0008307D01*
G75*
G02*
X0390906Y0008641I0000000J0000335D01*
G01*
X0390906Y0011319D01*
G75*
G02*
X0391240Y0011653I0000335J0000000D01*
G01*
X0393917Y0011653D01*
G75*
G02*
X0394252Y0011319I0000000J-000335D01*
G01*
X0394252Y0008641D01*
G75*
G02*
X0393917Y0008307I-000335J0000000D01*
G01*
G37*
G36*
G01*
X0393917Y0014527D02*
X0391240Y0014527D01*
G75*
G02*
X0390906Y0014862I0000000J0000335D01*
G01*
X0390906Y0017539D01*
G75*
G02*
X0391240Y0017874I0000335J0000000D01*
G01*
X0393917Y0017874D01*
G75*
G02*
X0394252Y0017539I0000000J-000335D01*
G01*
X0394252Y0014862D01*
G75*
G02*
X0393917Y0014527I-000335J0000000D01*
G01*
G37*
G36*
G01*
X0137933Y0157342D02*
X0137933Y0154271D01*
G75*
G02*
X0137657Y0153996I-000276J0000000D01*
G01*
X0135453Y0153996D01*
G75*
G02*
X0135177Y0154271I0000000J0000276D01*
G01*
X0135177Y0157342D01*
G75*
G02*
X0135453Y0157618I0000276J0000000D01*
G01*
X0137657Y0157618D01*
G75*
G02*
X0137933Y0157342I0000000J-000276D01*
G01*
G37*
G36*
G01*
X0131634Y0157342D02*
X0131634Y0154271D01*
G75*
G02*
X0131358Y0153996I-000276J0000000D01*
G01*
X0129154Y0153996D01*
G75*
G02*
X0128878Y0154271I0000000J0000276D01*
G01*
X0128878Y0157342D01*
G75*
G02*
X0129154Y0157618I0000276J0000000D01*
G01*
X0131358Y0157618D01*
G75*
G02*
X0131634Y0157342I0000000J-000276D01*
G01*
G37*
G36*
G01*
X0035650Y0074862D02*
X0035650Y0070728D01*
G75*
G02*
X0035256Y0070334I-000394J0000000D01*
G01*
X0032106Y0070334D01*
G75*
G02*
X0031713Y0070728I0000000J0000394D01*
G01*
X0031713Y0074862D01*
G75*
G02*
X0032106Y0075256I0000394J0000000D01*
G01*
X0035256Y0075256D01*
G75*
G02*
X0035650Y0074862I0000000J-000394D01*
G01*
G37*
G36*
G01*
X0027776Y0074862D02*
X0027776Y0070728D01*
G75*
G02*
X0027382Y0070334I-000394J0000000D01*
G01*
X0024232Y0070334D01*
G75*
G02*
X0023839Y0070728I0000000J0000394D01*
G01*
X0023839Y0074862D01*
G75*
G02*
X0024232Y0075256I0000394J0000000D01*
G01*
X0027382Y0075256D01*
G75*
G02*
X0027776Y0074862I0000000J-000394D01*
G01*
G37*
G36*
G01*
X0069547Y0031515D02*
X0069547Y0027382D01*
G75*
G02*
X0069154Y0026988I-000394J0000000D01*
G01*
X0066004Y0026988D01*
G75*
G02*
X0065610Y0027382I0000000J0000394D01*
G01*
X0065610Y0031515D01*
G75*
G02*
X0066004Y0031909I0000394J0000000D01*
G01*
X0069154Y0031909D01*
G75*
G02*
X0069547Y0031515I0000000J-000394D01*
G01*
G37*
G36*
G01*
X0061673Y0031515D02*
X0061673Y0027382D01*
G75*
G02*
X0061280Y0026988I-000394J0000000D01*
G01*
X0058130Y0026988D01*
G75*
G02*
X0057736Y0027382I0000000J0000394D01*
G01*
X0057736Y0031515D01*
G75*
G02*
X0058130Y0031909I0000394J0000000D01*
G01*
X0061280Y0031909D01*
G75*
G02*
X0061673Y0031515I0000000J-000394D01*
G01*
G37*
G36*
G01*
X0043622Y0006614D02*
X0043622Y0009291D01*
G75*
G02*
X0043957Y0009626I0000335J0000000D01*
G01*
X0046634Y0009626D01*
G75*
G02*
X0046969Y0009291I0000000J-000335D01*
G01*
X0046969Y0006614D01*
G75*
G02*
X0046634Y0006279I-000335J0000000D01*
G01*
X0043957Y0006279D01*
G75*
G02*
X0043622Y0006614I0000000J0000335D01*
G01*
G37*
G36*
G01*
X0049843Y0006614D02*
X0049843Y0009291D01*
G75*
G02*
X0050177Y0009626I0000335J0000000D01*
G01*
X0052854Y0009626D01*
G75*
G02*
X0053189Y0009291I0000000J-000335D01*
G01*
X0053189Y0006614D01*
G75*
G02*
X0052854Y0006279I-000335J0000000D01*
G01*
X0050177Y0006279D01*
G75*
G02*
X0049843Y0006614I0000000J0000335D01*
G01*
G37*
X0242146Y0068484D03*
G36*
G01*
X0015217Y0239212D02*
X0026437Y0239212D01*
G75*
G02*
X0027421Y0238228I0000000J-000984D01*
G01*
X0027421Y0235374D01*
G75*
G02*
X0026437Y0234389I-000984J0000000D01*
G01*
X0015217Y0234389D01*
G75*
G02*
X0014232Y0235374I0000000J0000984D01*
G01*
X0014232Y0238228D01*
G75*
G02*
X0015217Y0239212I0000984J0000000D01*
G01*
G37*
G36*
G01*
X0015217Y0215885D02*
X0026437Y0215885D01*
G75*
G02*
X0027421Y0214901I0000000J-000984D01*
G01*
X0027421Y0212047D01*
G75*
G02*
X0026437Y0211063I-000984J0000000D01*
G01*
X0015217Y0211063D01*
G75*
G02*
X0014232Y0212047I0000000J0000984D01*
G01*
X0014232Y0214901D01*
G75*
G02*
X0015217Y0215885I0000984J0000000D01*
G01*
G37*
D21*
X0400610Y0116574D03*
X0405335Y0116574D03*
X0395886Y0116574D03*
X0391161Y0116574D03*
X0416594Y0059783D03*
X0420531Y0059783D03*
G36*
G01*
X0003681Y0123287D02*
X0003681Y0126358D01*
G75*
G02*
X0003957Y0126633I0000276J0000000D01*
G01*
X0006161Y0126633D01*
G75*
G02*
X0006437Y0126358I0000000J-000276D01*
G01*
X0006437Y0123287D01*
G75*
G02*
X0006161Y0123011I-000276J0000000D01*
G01*
X0003957Y0123011D01*
G75*
G02*
X0003681Y0123287I0000000J0000276D01*
G01*
G37*
G36*
G01*
X0009980Y0123287D02*
X0009980Y0126358D01*
G75*
G02*
X0010256Y0126633I0000276J0000000D01*
G01*
X0012461Y0126633D01*
G75*
G02*
X0012736Y0126358I0000000J-000276D01*
G01*
X0012736Y0123287D01*
G75*
G02*
X0012461Y0123011I-000276J0000000D01*
G01*
X0010256Y0123011D01*
G75*
G02*
X0009980Y0123287I0000000J0000276D01*
G01*
G37*
D36*
X0196949Y0063307D03*
D37*
X0200098Y0070196D03*
X0203248Y0063307D03*
X0206398Y0070196D03*
X0209547Y0063307D03*
D38*
X0188878Y0066752D03*
X0217618Y0066752D03*
G36*
G01*
X0019114Y0124508D02*
X0019114Y0128523D01*
G75*
G02*
X0019469Y0128878I0000354J0000000D01*
G01*
X0022303Y0128878D01*
G75*
G02*
X0022657Y0128523I0000000J-000354D01*
G01*
X0022657Y0124508D01*
G75*
G02*
X0022303Y0124153I-000354J0000000D01*
G01*
X0019469Y0124153D01*
G75*
G02*
X0019114Y0124508I0000000J0000354D01*
G01*
G37*
G36*
G01*
X0032106Y0124508D02*
X0032106Y0128523D01*
G75*
G02*
X0032461Y0128878I0000354J0000000D01*
G01*
X0035295Y0128878D01*
G75*
G02*
X0035650Y0128523I0000000J-000354D01*
G01*
X0035650Y0124508D01*
G75*
G02*
X0035295Y0124153I-000354J0000000D01*
G01*
X0032461Y0124153D01*
G75*
G02*
X0032106Y0124508I0000000J0000354D01*
G01*
G37*
D21*
X0355177Y0261791D03*
X0355177Y0265531D03*
X0355177Y0269271D03*
X0389429Y0265334D03*
X0389429Y0261791D03*
G36*
G01*
X0008091Y0054980D02*
X0008091Y0059114D01*
G75*
G02*
X0008484Y0059508I0000394J0000000D01*
G01*
X0011634Y0059508D01*
G75*
G02*
X0012028Y0059114I0000000J-000394D01*
G01*
X0012028Y0054980D01*
G75*
G02*
X0011634Y0054586I-000394J0000000D01*
G01*
X0008484Y0054586D01*
G75*
G02*
X0008091Y0054980I0000000J0000394D01*
G01*
G37*
G36*
G01*
X0015965Y0054980D02*
X0015965Y0059114D01*
G75*
G02*
X0016358Y0059508I0000394J0000000D01*
G01*
X0019508Y0059508D01*
G75*
G02*
X0019902Y0059114I0000000J-000394D01*
G01*
X0019902Y0054980D01*
G75*
G02*
X0019508Y0054586I-000394J0000000D01*
G01*
X0016358Y0054586D01*
G75*
G02*
X0015965Y0054980I0000000J0000394D01*
G01*
G37*
G36*
G01*
X0009724Y0042815D02*
X0009724Y0045492D01*
G75*
G02*
X0010059Y0045826I0000335J0000000D01*
G01*
X0012736Y0045826D01*
G75*
G02*
X0013071Y0045492I0000000J-000335D01*
G01*
X0013071Y0042815D01*
G75*
G02*
X0012736Y0042480I-000335J0000000D01*
G01*
X0010059Y0042480D01*
G75*
G02*
X0009724Y0042815I0000000J0000335D01*
G01*
G37*
G36*
G01*
X0015945Y0042815D02*
X0015945Y0045492D01*
G75*
G02*
X0016280Y0045826I0000335J0000000D01*
G01*
X0018957Y0045826D01*
G75*
G02*
X0019291Y0045492I0000000J-000335D01*
G01*
X0019291Y0042815D01*
G75*
G02*
X0018957Y0042480I-000335J0000000D01*
G01*
X0016280Y0042480D01*
G75*
G02*
X0015945Y0042815I0000000J0000335D01*
G01*
G37*
G36*
G01*
X0128701Y0177278D02*
X0128701Y0179296D01*
G75*
G02*
X0129562Y0180157I0000861J0000000D01*
G01*
X0131284Y0180157D01*
G75*
G02*
X0132146Y0179296I0000000J-000861D01*
G01*
X0132146Y0177278D01*
G75*
G02*
X0131284Y0176417I-000861J0000000D01*
G01*
X0129562Y0176417D01*
G75*
G02*
X0128701Y0177278I0000000J0000861D01*
G01*
G37*
G36*
G01*
X0134902Y0177278D02*
X0134902Y0179296D01*
G75*
G02*
X0135763Y0180157I0000861J0000000D01*
G01*
X0137485Y0180157D01*
G75*
G02*
X0138346Y0179296I0000000J-000861D01*
G01*
X0138346Y0177278D01*
G75*
G02*
X0137485Y0176417I-000861J0000000D01*
G01*
X0135763Y0176417D01*
G75*
G02*
X0134902Y0177278I0000000J0000861D01*
G01*
G37*
G36*
G01*
X0008091Y0078563D02*
X0008091Y0082696D01*
G75*
G02*
X0008484Y0083090I0000394J0000000D01*
G01*
X0011634Y0083090D01*
G75*
G02*
X0012028Y0082696I0000000J-000394D01*
G01*
X0012028Y0078563D01*
G75*
G02*
X0011634Y0078169I-000394J0000000D01*
G01*
X0008484Y0078169D01*
G75*
G02*
X0008091Y0078563I0000000J0000394D01*
G01*
G37*
G36*
G01*
X0015965Y0078563D02*
X0015965Y0082696D01*
G75*
G02*
X0016358Y0083090I0000394J0000000D01*
G01*
X0019508Y0083090D01*
G75*
G02*
X0019902Y0082696I0000000J-000394D01*
G01*
X0019902Y0078563D01*
G75*
G02*
X0019508Y0078169I-000394J0000000D01*
G01*
X0016358Y0078169D01*
G75*
G02*
X0015965Y0078563I0000000J0000394D01*
G01*
G37*
G36*
G01*
X0124232Y0182874D02*
X0124232Y0171653D01*
G75*
G02*
X0123248Y0170669I-000984J0000000D01*
G01*
X0120394Y0170669D01*
G75*
G02*
X0119409Y0171653I0000000J0000984D01*
G01*
X0119409Y0182874D01*
G75*
G02*
X0120394Y0183858I0000984J0000000D01*
G01*
X0123248Y0183858D01*
G75*
G02*
X0124232Y0182874I0000000J-000984D01*
G01*
G37*
G36*
G01*
X0100906Y0182874D02*
X0100906Y0171653D01*
G75*
G02*
X0099921Y0170669I-000984J0000000D01*
G01*
X0097067Y0170669D01*
G75*
G02*
X0096083Y0171653I0000000J0000984D01*
G01*
X0096083Y0182874D01*
G75*
G02*
X0097067Y0183858I0000984J0000000D01*
G01*
X0099921Y0183858D01*
G75*
G02*
X0100906Y0182874I0000000J-000984D01*
G01*
G37*
D10*
X0405650Y0213681D03*
G36*
G01*
X0253952Y0241633D02*
X0251954Y0241633D01*
G75*
G02*
X0251791Y0241796I0000000J0000163D01*
G01*
X0251791Y0249424D01*
G75*
G02*
X0251954Y0249586I0000163J0000000D01*
G01*
X0253952Y0249586D01*
G75*
G02*
X0254114Y0249424I0000000J-000163D01*
G01*
X0254114Y0241796D01*
G75*
G02*
X0253952Y0241633I-000163J0000000D01*
G01*
G37*
G36*
G01*
X0258952Y0241633D02*
X0256954Y0241633D01*
G75*
G02*
X0256791Y0241796I0000000J0000163D01*
G01*
X0256791Y0249424D01*
G75*
G02*
X0256954Y0249586I0000163J0000000D01*
G01*
X0258952Y0249586D01*
G75*
G02*
X0259114Y0249424I0000000J-000163D01*
G01*
X0259114Y0241796D01*
G75*
G02*
X0258952Y0241633I-000163J0000000D01*
G01*
G37*
G36*
G01*
X0263952Y0241633D02*
X0261954Y0241633D01*
G75*
G02*
X0261791Y0241796I0000000J0000163D01*
G01*
X0261791Y0249424D01*
G75*
G02*
X0261954Y0249586I0000163J0000000D01*
G01*
X0263952Y0249586D01*
G75*
G02*
X0264114Y0249424I0000000J-000163D01*
G01*
X0264114Y0241796D01*
G75*
G02*
X0263952Y0241633I-000163J0000000D01*
G01*
G37*
G36*
G01*
X0268952Y0241633D02*
X0266954Y0241633D01*
G75*
G02*
X0266791Y0241796I0000000J0000163D01*
G01*
X0266791Y0249424D01*
G75*
G02*
X0266954Y0249586I0000163J0000000D01*
G01*
X0268952Y0249586D01*
G75*
G02*
X0269114Y0249424I0000000J-000163D01*
G01*
X0269114Y0241796D01*
G75*
G02*
X0268952Y0241633I-000163J0000000D01*
G01*
G37*
G36*
G01*
X0268952Y0278484D02*
X0266954Y0278484D01*
G75*
G02*
X0266791Y0278646I0000000J0000163D01*
G01*
X0266791Y0286274D01*
G75*
G02*
X0266954Y0286437I0000163J0000000D01*
G01*
X0268952Y0286437D01*
G75*
G02*
X0269114Y0286274I0000000J-000163D01*
G01*
X0269114Y0278646D01*
G75*
G02*
X0268952Y0278484I-000163J0000000D01*
G01*
G37*
G36*
G01*
X0263952Y0278484D02*
X0261954Y0278484D01*
G75*
G02*
X0261791Y0278646I0000000J0000163D01*
G01*
X0261791Y0286274D01*
G75*
G02*
X0261954Y0286437I0000163J0000000D01*
G01*
X0263952Y0286437D01*
G75*
G02*
X0264114Y0286274I0000000J-000163D01*
G01*
X0264114Y0278646D01*
G75*
G02*
X0263952Y0278484I-000163J0000000D01*
G01*
G37*
G36*
G01*
X0258952Y0278484D02*
X0256954Y0278484D01*
G75*
G02*
X0256791Y0278646I0000000J0000163D01*
G01*
X0256791Y0286274D01*
G75*
G02*
X0256954Y0286437I0000163J0000000D01*
G01*
X0258952Y0286437D01*
G75*
G02*
X0259114Y0286274I0000000J-000163D01*
G01*
X0259114Y0278646D01*
G75*
G02*
X0258952Y0278484I-000163J0000000D01*
G01*
G37*
G36*
G01*
X0253952Y0278484D02*
X0251954Y0278484D01*
G75*
G02*
X0251791Y0278646I0000000J0000163D01*
G01*
X0251791Y0286274D01*
G75*
G02*
X0251954Y0286437I0000163J0000000D01*
G01*
X0253952Y0286437D01*
G75*
G02*
X0254114Y0286274I0000000J-000163D01*
G01*
X0254114Y0278646D01*
G75*
G02*
X0253952Y0278484I-000163J0000000D01*
G01*
G37*
D41*
X0379823Y0238051D03*
X0379823Y0222303D03*
X0379823Y0206555D03*
X0379823Y0190807D03*
X0379823Y0175059D03*
X0379823Y0159311D03*
X0379823Y0143563D03*
X0379823Y0127815D03*
X0379823Y0112067D03*
X0379823Y0096319D03*
X0379823Y0080570D03*
X0379823Y0064822D03*
X0364075Y0230177D03*
X0364075Y0214429D03*
X0364075Y0198681D03*
X0364075Y0182933D03*
X0364075Y0167185D03*
X0364075Y0151437D03*
X0364075Y0135689D03*
X0364075Y0119941D03*
X0364075Y0104193D03*
X0364075Y0088445D03*
X0364075Y0072696D03*
X0348327Y0238051D03*
X0348327Y0222303D03*
X0348327Y0206555D03*
X0348327Y0190807D03*
X0348327Y0175059D03*
X0348327Y0159311D03*
X0348327Y0143563D03*
X0348327Y0127815D03*
X0348327Y0112067D03*
X0348327Y0096319D03*
X0348327Y0080570D03*
X0348327Y0064822D03*
D11*
X0335335Y0288248D03*
X0339665Y0286476D03*
X0331004Y0286476D03*
X0406594Y0282342D03*
X0341437Y0282145D03*
D42*
X0335335Y0282145D03*
D11*
X0329232Y0282145D03*
X0410925Y0280570D03*
X0402264Y0280570D03*
X0339665Y0277815D03*
X0331004Y0277815D03*
X0412697Y0276240D03*
D42*
X0406594Y0276240D03*
D11*
X0400492Y0276240D03*
X0335335Y0276043D03*
X0410925Y0271909D03*
X0402264Y0271909D03*
X0406594Y0270137D03*
X0406594Y0032736D03*
X0410925Y0030964D03*
X0402264Y0030964D03*
X0335335Y0026830D03*
X0412697Y0026633D03*
D42*
X0406594Y0026633D03*
D11*
X0400492Y0026633D03*
X0339665Y0025059D03*
X0331004Y0025059D03*
X0410925Y0022303D03*
X0402264Y0022303D03*
X0341437Y0020728D03*
D42*
X0335335Y0020728D03*
D11*
X0329232Y0020728D03*
X0406594Y0020531D03*
X0339665Y0016397D03*
X0331004Y0016397D03*
X0335335Y0014626D03*
G36*
G01*
X0035650Y0059114D02*
X0035650Y0054980D01*
G75*
G02*
X0035256Y0054586I-000394J0000000D01*
G01*
X0032106Y0054586D01*
G75*
G02*
X0031713Y0054980I0000000J0000394D01*
G01*
X0031713Y0059114D01*
G75*
G02*
X0032106Y0059508I0000394J0000000D01*
G01*
X0035256Y0059508D01*
G75*
G02*
X0035650Y0059114I0000000J-000394D01*
G01*
G37*
G36*
G01*
X0027776Y0059114D02*
X0027776Y0054980D01*
G75*
G02*
X0027382Y0054586I-000394J0000000D01*
G01*
X0024232Y0054586D01*
G75*
G02*
X0023839Y0054980I0000000J0000394D01*
G01*
X0023839Y0059114D01*
G75*
G02*
X0024232Y0059508I0000394J0000000D01*
G01*
X0027382Y0059508D01*
G75*
G02*
X0027776Y0059114I0000000J-000394D01*
G01*
G37*
G36*
G01*
X0388819Y0008307D02*
X0386142Y0008307D01*
G75*
G02*
X0385807Y0008641I0000000J0000335D01*
G01*
X0385807Y0011319D01*
G75*
G02*
X0386142Y0011653I0000335J0000000D01*
G01*
X0388819Y0011653D01*
G75*
G02*
X0389154Y0011319I0000000J-000335D01*
G01*
X0389154Y0008641D01*
G75*
G02*
X0388819Y0008307I-000335J0000000D01*
G01*
G37*
G36*
G01*
X0388819Y0014527D02*
X0386142Y0014527D01*
G75*
G02*
X0385807Y0014862I0000000J0000335D01*
G01*
X0385807Y0017539D01*
G75*
G02*
X0386142Y0017874I0000335J0000000D01*
G01*
X0388819Y0017874D01*
G75*
G02*
X0389154Y0017539I0000000J-000335D01*
G01*
X0389154Y0014862D01*
G75*
G02*
X0388819Y0014527I-000335J0000000D01*
G01*
G37*
D10*
X0144075Y0105846D03*
G36*
G01*
X0012736Y0172421D02*
X0012736Y0169350D01*
G75*
G02*
X0012461Y0169074I-000276J0000000D01*
G01*
X0010256Y0169074D01*
G75*
G02*
X0009980Y0169350I0000000J0000276D01*
G01*
X0009980Y0172421D01*
G75*
G02*
X0010256Y0172696I0000276J0000000D01*
G01*
X0012461Y0172696D01*
G75*
G02*
X0012736Y0172421I0000000J-000276D01*
G01*
G37*
G36*
G01*
X0006437Y0172421D02*
X0006437Y0169350D01*
G75*
G02*
X0006161Y0169074I-000276J0000000D01*
G01*
X0003957Y0169074D01*
G75*
G02*
X0003681Y0169350I0000000J0000276D01*
G01*
X0003681Y0172421D01*
G75*
G02*
X0003957Y0172696I0000276J0000000D01*
G01*
X0006161Y0172696D01*
G75*
G02*
X0006437Y0172421I0000000J-000276D01*
G01*
G37*
X0334744Y0112106D03*
D12*
X0287028Y0264035D03*
G36*
G01*
X0346102Y0053538D02*
X0346102Y0055556D01*
G75*
G02*
X0346964Y0056417I0000861J0000000D01*
G01*
X0348686Y0056417D01*
G75*
G02*
X0349547Y0055556I0000000J-000861D01*
G01*
X0349547Y0053538D01*
G75*
G02*
X0348686Y0052677I-000861J0000000D01*
G01*
X0346964Y0052677D01*
G75*
G02*
X0346102Y0053538I0000000J0000861D01*
G01*
G37*
G36*
G01*
X0352303Y0053538D02*
X0352303Y0055556D01*
G75*
G02*
X0353164Y0056417I0000861J0000000D01*
G01*
X0354887Y0056417D01*
G75*
G02*
X0355748Y0055556I0000000J-000861D01*
G01*
X0355748Y0053538D01*
G75*
G02*
X0354887Y0052677I-000861J0000000D01*
G01*
X0353164Y0052677D01*
G75*
G02*
X0352303Y0053538I0000000J0000861D01*
G01*
G37*
G36*
G01*
X0041988Y0019508D02*
X0041988Y0023641D01*
G75*
G02*
X0042382Y0024035I0000394J0000000D01*
G01*
X0045531Y0024035D01*
G75*
G02*
X0045925Y0023641I0000000J-000394D01*
G01*
X0045925Y0019508D01*
G75*
G02*
X0045531Y0019114I-000394J0000000D01*
G01*
X0042382Y0019114D01*
G75*
G02*
X0041988Y0019508I0000000J0000394D01*
G01*
G37*
G36*
G01*
X0049862Y0019508D02*
X0049862Y0023641D01*
G75*
G02*
X0050256Y0024035I0000394J0000000D01*
G01*
X0053406Y0024035D01*
G75*
G02*
X0053799Y0023641I0000000J-000394D01*
G01*
X0053799Y0019508D01*
G75*
G02*
X0053406Y0019114I-000394J0000000D01*
G01*
X0050256Y0019114D01*
G75*
G02*
X0049862Y0019508I0000000J0000394D01*
G01*
G37*
G36*
G01*
X0012736Y0199114D02*
X0012736Y0196043D01*
G75*
G02*
X0012461Y0195767I-000276J0000000D01*
G01*
X0010256Y0195767D01*
G75*
G02*
X0009980Y0196043I0000000J0000276D01*
G01*
X0009980Y0199114D01*
G75*
G02*
X0010256Y0199389I0000276J0000000D01*
G01*
X0012461Y0199389D01*
G75*
G02*
X0012736Y0199114I0000000J-000276D01*
G01*
G37*
G36*
G01*
X0006437Y0199114D02*
X0006437Y0196043D01*
G75*
G02*
X0006161Y0195767I-000276J0000000D01*
G01*
X0003957Y0195767D01*
G75*
G02*
X0003681Y0196043I0000000J0000276D01*
G01*
X0003681Y0199114D01*
G75*
G02*
X0003957Y0199389I0000276J0000000D01*
G01*
X0006161Y0199389D01*
G75*
G02*
X0006437Y0199114I0000000J-000276D01*
G01*
G37*
G36*
G01*
X0069547Y0047263D02*
X0069547Y0043130D01*
G75*
G02*
X0069154Y0042736I-000394J0000000D01*
G01*
X0066004Y0042736D01*
G75*
G02*
X0065610Y0043130I0000000J0000394D01*
G01*
X0065610Y0047263D01*
G75*
G02*
X0066004Y0047657I0000394J0000000D01*
G01*
X0069154Y0047657D01*
G75*
G02*
X0069547Y0047263I0000000J-000394D01*
G01*
G37*
G36*
G01*
X0061673Y0047263D02*
X0061673Y0043130D01*
G75*
G02*
X0061280Y0042736I-000394J0000000D01*
G01*
X0058130Y0042736D01*
G75*
G02*
X0057736Y0043130I0000000J0000394D01*
G01*
X0057736Y0047263D01*
G75*
G02*
X0058130Y0047657I0000394J0000000D01*
G01*
X0061280Y0047657D01*
G75*
G02*
X0061673Y0047263I0000000J-000394D01*
G01*
G37*
G36*
G01*
X0069547Y0015767D02*
X0069547Y0011633D01*
G75*
G02*
X0069154Y0011240I-000394J0000000D01*
G01*
X0066004Y0011240D01*
G75*
G02*
X0065610Y0011633I0000000J0000394D01*
G01*
X0065610Y0015767D01*
G75*
G02*
X0066004Y0016161I0000394J0000000D01*
G01*
X0069154Y0016161D01*
G75*
G02*
X0069547Y0015767I0000000J-000394D01*
G01*
G37*
G36*
G01*
X0061673Y0015767D02*
X0061673Y0011633D01*
G75*
G02*
X0061280Y0011240I-000394J0000000D01*
G01*
X0058130Y0011240D01*
G75*
G02*
X0057736Y0011633I0000000J0000394D01*
G01*
X0057736Y0015767D01*
G75*
G02*
X0058130Y0016161I0000394J0000000D01*
G01*
X0061280Y0016161D01*
G75*
G02*
X0061673Y0015767I0000000J-000394D01*
G01*
G37*
D10*
X0156004Y0142382D03*
X0156004Y0152382D03*
X0156004Y0162382D03*
X0156004Y0172382D03*
X0156004Y0182382D03*
X0166004Y0142382D03*
X0166004Y0152382D03*
X0166004Y0162382D03*
X0166004Y0172382D03*
X0166004Y0182382D03*
X0176004Y0142382D03*
X0176004Y0152382D03*
X0176004Y0162382D03*
X0176004Y0172382D03*
X0176004Y0182382D03*
X0251988Y0068484D03*
G36*
G01*
X0036791Y0293366D02*
X0039862Y0293366D01*
G75*
G02*
X0040138Y0293090I0000000J-000276D01*
G01*
X0040138Y0290885D01*
G75*
G02*
X0039862Y0290610I-000276J0000000D01*
G01*
X0036791Y0290610D01*
G75*
G02*
X0036516Y0290885I0000000J0000276D01*
G01*
X0036516Y0293090D01*
G75*
G02*
X0036791Y0293366I0000276J0000000D01*
G01*
G37*
G36*
G01*
X0036791Y0287067D02*
X0039862Y0287067D01*
G75*
G02*
X0040138Y0286791I0000000J-000276D01*
G01*
X0040138Y0284586D01*
G75*
G02*
X0039862Y0284311I-000276J0000000D01*
G01*
X0036791Y0284311D01*
G75*
G02*
X0036516Y0284586I0000000J0000276D01*
G01*
X0036516Y0286791D01*
G75*
G02*
X0036791Y0287067I0000276J0000000D01*
G01*
G37*
G36*
G01*
X0003760Y0096240D02*
X0003760Y0099311D01*
G75*
G02*
X0004035Y0099586I0000276J0000000D01*
G01*
X0006240Y0099586D01*
G75*
G02*
X0006516Y0099311I0000000J-000276D01*
G01*
X0006516Y0096240D01*
G75*
G02*
X0006240Y0095964I-000276J0000000D01*
G01*
X0004035Y0095964D01*
G75*
G02*
X0003760Y0096240I0000000J0000276D01*
G01*
G37*
G36*
G01*
X0010059Y0096240D02*
X0010059Y0099311D01*
G75*
G02*
X0010335Y0099586I0000276J0000000D01*
G01*
X0012539Y0099586D01*
G75*
G02*
X0012815Y0099311I0000000J-000276D01*
G01*
X0012815Y0096240D01*
G75*
G02*
X0012539Y0095964I-000276J0000000D01*
G01*
X0010335Y0095964D01*
G75*
G02*
X0010059Y0096240I0000000J0000276D01*
G01*
G37*
G36*
G01*
X0019134Y0094547D02*
X0019134Y0098563D01*
G75*
G02*
X0019488Y0098917I0000354J0000000D01*
G01*
X0022323Y0098917D01*
G75*
G02*
X0022677Y0098563I0000000J-000354D01*
G01*
X0022677Y0094547D01*
G75*
G02*
X0022323Y0094193I-000354J0000000D01*
G01*
X0019488Y0094193D01*
G75*
G02*
X0019134Y0094547I0000000J0000354D01*
G01*
G37*
G36*
G01*
X0032126Y0094547D02*
X0032126Y0098563D01*
G75*
G02*
X0032480Y0098917I0000354J0000000D01*
G01*
X0035315Y0098917D01*
G75*
G02*
X0035669Y0098563I0000000J-000354D01*
G01*
X0035669Y0094547D01*
G75*
G02*
X0035315Y0094193I-000354J0000000D01*
G01*
X0032480Y0094193D01*
G75*
G02*
X0032126Y0094547I0000000J0000354D01*
G01*
G37*
G36*
G01*
X0128583Y0213499D02*
X0128583Y0215516D01*
G75*
G02*
X0129444Y0216378I0000861J0000000D01*
G01*
X0131166Y0216378D01*
G75*
G02*
X0132028Y0215516I0000000J-000861D01*
G01*
X0132028Y0213499D01*
G75*
G02*
X0131166Y0212637I-000861J0000000D01*
G01*
X0129444Y0212637D01*
G75*
G02*
X0128583Y0213499I0000000J0000861D01*
G01*
G37*
G36*
G01*
X0134783Y0213499D02*
X0134783Y0215516D01*
G75*
G02*
X0135645Y0216378I0000861J0000000D01*
G01*
X0137367Y0216378D01*
G75*
G02*
X0138228Y0215516I0000000J-000861D01*
G01*
X0138228Y0213499D01*
G75*
G02*
X0137367Y0212637I-000861J0000000D01*
G01*
X0135645Y0212637D01*
G75*
G02*
X0134783Y0213499I0000000J0000861D01*
G01*
G37*
G36*
G01*
X0020792Y0243740D02*
X0018775Y0243740D01*
G75*
G02*
X0017913Y0244601I0000000J0000861D01*
G01*
X0017913Y0246323D01*
G75*
G02*
X0018775Y0247185I0000861J0000000D01*
G01*
X0020792Y0247185D01*
G75*
G02*
X0021654Y0246323I0000000J-000861D01*
G01*
X0021654Y0244601D01*
G75*
G02*
X0020792Y0243740I-000861J0000000D01*
G01*
G37*
G36*
G01*
X0020792Y0249941D02*
X0018775Y0249941D01*
G75*
G02*
X0017913Y0250802I0000000J0000861D01*
G01*
X0017913Y0252524D01*
G75*
G02*
X0018775Y0253385I0000861J0000000D01*
G01*
X0020792Y0253385D01*
G75*
G02*
X0021654Y0252524I0000000J-000861D01*
G01*
X0021654Y0250802D01*
G75*
G02*
X0020792Y0249941I-000861J0000000D01*
G01*
G37*
G36*
G01*
X0003681Y0133011D02*
X0003681Y0136082D01*
G75*
G02*
X0003957Y0136358I0000276J0000000D01*
G01*
X0006161Y0136358D01*
G75*
G02*
X0006437Y0136082I0000000J-000276D01*
G01*
X0006437Y0133011D01*
G75*
G02*
X0006161Y0132736I-000276J0000000D01*
G01*
X0003957Y0132736D01*
G75*
G02*
X0003681Y0133011I0000000J0000276D01*
G01*
G37*
G36*
G01*
X0009980Y0133011D02*
X0009980Y0136082D01*
G75*
G02*
X0010256Y0136358I0000276J0000000D01*
G01*
X0012461Y0136358D01*
G75*
G02*
X0012736Y0136082I0000000J-000276D01*
G01*
X0012736Y0133011D01*
G75*
G02*
X0012461Y0132736I-000276J0000000D01*
G01*
X0010256Y0132736D01*
G75*
G02*
X0009980Y0133011I0000000J0000276D01*
G01*
G37*
G36*
G01*
X0346142Y0046240D02*
X0346142Y0048917D01*
G75*
G02*
X0346476Y0049252I0000335J0000000D01*
G01*
X0349154Y0049252D01*
G75*
G02*
X0349488Y0048917I0000000J-000335D01*
G01*
X0349488Y0046240D01*
G75*
G02*
X0349154Y0045905I-000335J0000000D01*
G01*
X0346476Y0045905D01*
G75*
G02*
X0346142Y0046240I0000000J0000335D01*
G01*
G37*
G36*
G01*
X0352362Y0046240D02*
X0352362Y0048917D01*
G75*
G02*
X0352697Y0049252I0000335J0000000D01*
G01*
X0355374Y0049252D01*
G75*
G02*
X0355709Y0048917I0000000J-000335D01*
G01*
X0355709Y0046240D01*
G75*
G02*
X0355374Y0045905I-000335J0000000D01*
G01*
X0352697Y0045905D01*
G75*
G02*
X0352362Y0046240I0000000J0000335D01*
G01*
G37*
X0161791Y0114193D03*
X0149980Y0114160D03*
X0311358Y0068445D03*
G36*
G01*
X0003957Y0191023D02*
X0003957Y0192204D01*
G75*
G02*
X0004547Y0192795I0000591J0000000D01*
G01*
X0011043Y0192795D01*
G75*
G02*
X0011634Y0192204I0000000J-000591D01*
G01*
X0011634Y0191023D01*
G75*
G02*
X0011043Y0190433I-000591J0000000D01*
G01*
X0004547Y0190433D01*
G75*
G02*
X0003957Y0191023I0000000J0000591D01*
G01*
G37*
G36*
G01*
X0003957Y0186023D02*
X0003957Y0187204D01*
G75*
G02*
X0004547Y0187795I0000591J0000000D01*
G01*
X0011043Y0187795D01*
G75*
G02*
X0011634Y0187204I0000000J-000591D01*
G01*
X0011634Y0186023D01*
G75*
G02*
X0011043Y0185433I-000591J0000000D01*
G01*
X0004547Y0185433D01*
G75*
G02*
X0003957Y0186023I0000000J0000591D01*
G01*
G37*
G36*
G01*
X0003957Y0181023D02*
X0003957Y0182204D01*
G75*
G02*
X0004547Y0182795I0000591J0000000D01*
G01*
X0011043Y0182795D01*
G75*
G02*
X0011634Y0182204I0000000J-000591D01*
G01*
X0011634Y0181023D01*
G75*
G02*
X0011043Y0180433I-000591J0000000D01*
G01*
X0004547Y0180433D01*
G75*
G02*
X0003957Y0181023I0000000J0000591D01*
G01*
G37*
G36*
G01*
X0003957Y0176023D02*
X0003957Y0177204D01*
G75*
G02*
X0004547Y0177795I0000591J0000000D01*
G01*
X0011043Y0177795D01*
G75*
G02*
X0011634Y0177204I0000000J-000591D01*
G01*
X0011634Y0176023D01*
G75*
G02*
X0011043Y0175433I-000591J0000000D01*
G01*
X0004547Y0175433D01*
G75*
G02*
X0003957Y0176023I0000000J0000591D01*
G01*
G37*
G36*
G01*
X0023445Y0176023D02*
X0023445Y0177204D01*
G75*
G02*
X0024035Y0177795I0000591J0000000D01*
G01*
X0030531Y0177795D01*
G75*
G02*
X0031122Y0177204I0000000J-000591D01*
G01*
X0031122Y0176023D01*
G75*
G02*
X0030531Y0175433I-000591J0000000D01*
G01*
X0024035Y0175433D01*
G75*
G02*
X0023445Y0176023I0000000J0000591D01*
G01*
G37*
G36*
G01*
X0023445Y0181023D02*
X0023445Y0182204D01*
G75*
G02*
X0024035Y0182795I0000591J0000000D01*
G01*
X0030531Y0182795D01*
G75*
G02*
X0031122Y0182204I0000000J-000591D01*
G01*
X0031122Y0181023D01*
G75*
G02*
X0030531Y0180433I-000591J0000000D01*
G01*
X0024035Y0180433D01*
G75*
G02*
X0023445Y0181023I0000000J0000591D01*
G01*
G37*
G36*
G01*
X0023445Y0186023D02*
X0023445Y0187204D01*
G75*
G02*
X0024035Y0187795I0000591J0000000D01*
G01*
X0030531Y0187795D01*
G75*
G02*
X0031122Y0187204I0000000J-000591D01*
G01*
X0031122Y0186023D01*
G75*
G02*
X0030531Y0185433I-000591J0000000D01*
G01*
X0024035Y0185433D01*
G75*
G02*
X0023445Y0186023I0000000J0000591D01*
G01*
G37*
G36*
G01*
X0023445Y0191023D02*
X0023445Y0192204D01*
G75*
G02*
X0024035Y0192795I0000591J0000000D01*
G01*
X0030531Y0192795D01*
G75*
G02*
X0031122Y0192204I0000000J-000591D01*
G01*
X0031122Y0191023D01*
G75*
G02*
X0030531Y0190433I-000591J0000000D01*
G01*
X0024035Y0190433D01*
G75*
G02*
X0023445Y0191023I0000000J0000591D01*
G01*
G37*
G36*
G01*
X0012854Y0253090D02*
X0015925Y0253090D01*
G75*
G02*
X0016201Y0252815I0000000J-000276D01*
G01*
X0016201Y0250610D01*
G75*
G02*
X0015925Y0250334I-000276J0000000D01*
G01*
X0012854Y0250334D01*
G75*
G02*
X0012579Y0250610I0000000J0000276D01*
G01*
X0012579Y0252815D01*
G75*
G02*
X0012854Y0253090I0000276J0000000D01*
G01*
G37*
G36*
G01*
X0012854Y0246791D02*
X0015925Y0246791D01*
G75*
G02*
X0016201Y0246515I0000000J-000276D01*
G01*
X0016201Y0244311D01*
G75*
G02*
X0015925Y0244035I-000276J0000000D01*
G01*
X0012854Y0244035D01*
G75*
G02*
X0012579Y0244311I0000000J0000276D01*
G01*
X0012579Y0246515D01*
G75*
G02*
X0012854Y0246791I0000276J0000000D01*
G01*
G37*
G36*
G01*
X0382047Y0055556D02*
X0382047Y0053538D01*
G75*
G02*
X0381186Y0052677I-000861J0000000D01*
G01*
X0379464Y0052677D01*
G75*
G02*
X0378602Y0053538I0000000J0000861D01*
G01*
X0378602Y0055556D01*
G75*
G02*
X0379464Y0056417I0000861J0000000D01*
G01*
X0381186Y0056417D01*
G75*
G02*
X0382047Y0055556I0000000J-000861D01*
G01*
G37*
G36*
G01*
X0375846Y0055556D02*
X0375846Y0053538D01*
G75*
G02*
X0374985Y0052677I-000861J0000000D01*
G01*
X0373263Y0052677D01*
G75*
G02*
X0372402Y0053538I0000000J0000861D01*
G01*
X0372402Y0055556D01*
G75*
G02*
X0373263Y0056417I0000861J0000000D01*
G01*
X0374985Y0056417D01*
G75*
G02*
X0375846Y0055556I0000000J-000861D01*
G01*
G37*
G36*
G01*
X0008091Y0062854D02*
X0008091Y0066988D01*
G75*
G02*
X0008484Y0067382I0000394J0000000D01*
G01*
X0011634Y0067382D01*
G75*
G02*
X0012028Y0066988I0000000J-000394D01*
G01*
X0012028Y0062854D01*
G75*
G02*
X0011634Y0062460I-000394J0000000D01*
G01*
X0008484Y0062460D01*
G75*
G02*
X0008091Y0062854I0000000J0000394D01*
G01*
G37*
G36*
G01*
X0015965Y0062854D02*
X0015965Y0066988D01*
G75*
G02*
X0016358Y0067382I0000394J0000000D01*
G01*
X0019508Y0067382D01*
G75*
G02*
X0019902Y0066988I0000000J-000394D01*
G01*
X0019902Y0062854D01*
G75*
G02*
X0019508Y0062460I-000394J0000000D01*
G01*
X0016358Y0062460D01*
G75*
G02*
X0015965Y0062854I0000000J0000394D01*
G01*
G37*
X0167697Y0105846D03*
G36*
G01*
X0046378Y0279803D02*
X0057598Y0279803D01*
G75*
G02*
X0058583Y0278819I0000000J-000984D01*
G01*
X0058583Y0275964D01*
G75*
G02*
X0057598Y0274980I-000984J0000000D01*
G01*
X0046378Y0274980D01*
G75*
G02*
X0045394Y0275964I0000000J0000984D01*
G01*
X0045394Y0278819D01*
G75*
G02*
X0046378Y0279803I0000984J0000000D01*
G01*
G37*
G36*
G01*
X0046378Y0256476D02*
X0057598Y0256476D01*
G75*
G02*
X0058583Y0255492I0000000J-000984D01*
G01*
X0058583Y0252637D01*
G75*
G02*
X0057598Y0251653I-000984J0000000D01*
G01*
X0046378Y0251653D01*
G75*
G02*
X0045394Y0252637I0000000J0000984D01*
G01*
X0045394Y0255492D01*
G75*
G02*
X0046378Y0256476I0000984J0000000D01*
G01*
G37*
D55*
X0292028Y0053484D03*
X0286122Y0053484D03*
X0280217Y0053484D03*
X0274311Y0053484D03*
X0268406Y0053484D03*
X0262500Y0053484D03*
X0256594Y0053484D03*
X0250689Y0053484D03*
X0244783Y0053484D03*
X0238878Y0053484D03*
X0232972Y0053484D03*
X0227067Y0053484D03*
X0221161Y0053484D03*
X0221161Y0003484D03*
X0227067Y0003484D03*
X0232972Y0003484D03*
X0238878Y0003484D03*
X0244783Y0003484D03*
X0250689Y0003484D03*
X0256594Y0003484D03*
X0262500Y0003484D03*
X0268406Y0003484D03*
X0274311Y0003484D03*
X0280217Y0003484D03*
X0286122Y0003484D03*
X0292028Y0003484D03*
G36*
G01*
X0008091Y0070728D02*
X0008091Y0074862D01*
G75*
G02*
X0008484Y0075256I0000394J0000000D01*
G01*
X0011634Y0075256D01*
G75*
G02*
X0012028Y0074862I0000000J-000394D01*
G01*
X0012028Y0070728D01*
G75*
G02*
X0011634Y0070334I-000394J0000000D01*
G01*
X0008484Y0070334D01*
G75*
G02*
X0008091Y0070728I0000000J0000394D01*
G01*
G37*
G36*
G01*
X0015965Y0070728D02*
X0015965Y0074862D01*
G75*
G02*
X0016358Y0075256I0000394J0000000D01*
G01*
X0019508Y0075256D01*
G75*
G02*
X0019902Y0074862I0000000J-000394D01*
G01*
X0019902Y0070728D01*
G75*
G02*
X0019508Y0070334I-000394J0000000D01*
G01*
X0016358Y0070334D01*
G75*
G02*
X0015965Y0070728I0000000J0000394D01*
G01*
G37*
G36*
G01*
X0035650Y0082736D02*
X0035650Y0078602D01*
G75*
G02*
X0035256Y0078208I-000394J0000000D01*
G01*
X0032106Y0078208D01*
G75*
G02*
X0031713Y0078602I0000000J0000394D01*
G01*
X0031713Y0082736D01*
G75*
G02*
X0032106Y0083130I0000394J0000000D01*
G01*
X0035256Y0083130D01*
G75*
G02*
X0035650Y0082736I0000000J-000394D01*
G01*
G37*
G36*
G01*
X0027776Y0082736D02*
X0027776Y0078602D01*
G75*
G02*
X0027382Y0078208I-000394J0000000D01*
G01*
X0024232Y0078208D01*
G75*
G02*
X0023839Y0078602I0000000J0000394D01*
G01*
X0023839Y0082736D01*
G75*
G02*
X0024232Y0083130I0000394J0000000D01*
G01*
X0027382Y0083130D01*
G75*
G02*
X0027776Y0082736I0000000J-000394D01*
G01*
G37*
G36*
G01*
X0124232Y0219193D02*
X0124232Y0207972D01*
G75*
G02*
X0123248Y0206988I-000984J0000000D01*
G01*
X0120394Y0206988D01*
G75*
G02*
X0119409Y0207972I0000000J0000984D01*
G01*
X0119409Y0219193D01*
G75*
G02*
X0120394Y0220177I0000984J0000000D01*
G01*
X0123248Y0220177D01*
G75*
G02*
X0124232Y0219193I0000000J-000984D01*
G01*
G37*
G36*
G01*
X0100906Y0219193D02*
X0100906Y0207972D01*
G75*
G02*
X0099921Y0206988I-000984J0000000D01*
G01*
X0097067Y0206988D01*
G75*
G02*
X0096083Y0207972I0000000J0000984D01*
G01*
X0096083Y0219193D01*
G75*
G02*
X0097067Y0220177I0000984J0000000D01*
G01*
X0099921Y0220177D01*
G75*
G02*
X0100906Y0219193I0000000J-000984D01*
G01*
G37*
D56*
X0236909Y0297185D03*
D57*
X0246909Y0297185D03*
X0256909Y0297185D03*
X0266909Y0297185D03*
X0276909Y0297185D03*
D21*
X0400433Y0203051D03*
X0405157Y0203051D03*
X0395709Y0203051D03*
X0390984Y0203051D03*
X0416417Y0146259D03*
X0420354Y0146259D03*
G36*
G01*
X0008091Y0047106D02*
X0008091Y0051240D01*
G75*
G02*
X0008484Y0051633I0000394J0000000D01*
G01*
X0011634Y0051633D01*
G75*
G02*
X0012028Y0051240I0000000J-000394D01*
G01*
X0012028Y0047106D01*
G75*
G02*
X0011634Y0046712I-000394J0000000D01*
G01*
X0008484Y0046712D01*
G75*
G02*
X0008091Y0047106I0000000J0000394D01*
G01*
G37*
G36*
G01*
X0015965Y0047106D02*
X0015965Y0051240D01*
G75*
G02*
X0016358Y0051633I0000394J0000000D01*
G01*
X0019508Y0051633D01*
G75*
G02*
X0019902Y0051240I0000000J-000394D01*
G01*
X0019902Y0047106D01*
G75*
G02*
X0019508Y0046712I-000394J0000000D01*
G01*
X0016358Y0046712D01*
G75*
G02*
X0015965Y0047106I0000000J0000394D01*
G01*
G37*
D41*
X0048642Y0064822D03*
X0048642Y0080570D03*
X0048642Y0096319D03*
X0048642Y0112067D03*
X0048642Y0127815D03*
X0048642Y0143563D03*
X0048642Y0159311D03*
X0048642Y0175059D03*
X0048642Y0190807D03*
X0048642Y0206555D03*
X0048642Y0222303D03*
X0048642Y0238051D03*
X0064390Y0072696D03*
X0064390Y0088445D03*
X0064390Y0104193D03*
X0064390Y0119941D03*
X0064390Y0135689D03*
X0064390Y0151437D03*
X0064390Y0167185D03*
X0064390Y0182933D03*
X0064390Y0198681D03*
X0064390Y0214429D03*
X0064390Y0230177D03*
X0080138Y0064822D03*
X0080138Y0080570D03*
X0080138Y0096319D03*
X0080138Y0112067D03*
X0080138Y0127815D03*
X0080138Y0143563D03*
X0080138Y0159311D03*
X0080138Y0175059D03*
X0080138Y0190807D03*
X0080138Y0206555D03*
X0080138Y0222303D03*
X0080138Y0238051D03*
D11*
X0093130Y0014626D03*
X0088799Y0016397D03*
X0097461Y0016397D03*
X0021870Y0020531D03*
X0087028Y0020728D03*
D42*
X0093130Y0020728D03*
D11*
X0099232Y0020728D03*
X0017539Y0022303D03*
X0026201Y0022303D03*
X0088799Y0025059D03*
X0097461Y0025059D03*
X0015768Y0026633D03*
D42*
X0021870Y0026633D03*
D11*
X0027972Y0026633D03*
X0093130Y0026830D03*
X0017539Y0030964D03*
X0026201Y0030964D03*
X0021870Y0032736D03*
X0021870Y0270137D03*
X0017539Y0271909D03*
X0026201Y0271909D03*
X0093130Y0276043D03*
X0015768Y0276240D03*
D42*
X0021870Y0276240D03*
D11*
X0027972Y0276240D03*
X0088799Y0277815D03*
X0097461Y0277815D03*
X0017539Y0280570D03*
X0026201Y0280570D03*
X0087028Y0282145D03*
D42*
X0093130Y0282145D03*
D11*
X0099232Y0282145D03*
X0021870Y0282342D03*
X0088799Y0286476D03*
X0097461Y0286476D03*
X0093130Y0288248D03*
G36*
G01*
X0041988Y0035256D02*
X0041988Y0039389D01*
G75*
G02*
X0042382Y0039783I0000394J0000000D01*
G01*
X0045531Y0039783D01*
G75*
G02*
X0045925Y0039389I0000000J-000394D01*
G01*
X0045925Y0035256D01*
G75*
G02*
X0045531Y0034862I-000394J0000000D01*
G01*
X0042382Y0034862D01*
G75*
G02*
X0041988Y0035256I0000000J0000394D01*
G01*
G37*
G36*
G01*
X0049862Y0035256D02*
X0049862Y0039389D01*
G75*
G02*
X0050256Y0039783I0000394J0000000D01*
G01*
X0053406Y0039783D01*
G75*
G02*
X0053799Y0039389I0000000J-000394D01*
G01*
X0053799Y0035256D01*
G75*
G02*
X0053406Y0034862I-000394J0000000D01*
G01*
X0050256Y0034862D01*
G75*
G02*
X0049862Y0035256I0000000J0000394D01*
G01*
G37*
G36*
G01*
X0200984Y0021673D02*
X0196063Y0021673D01*
G75*
G02*
X0195079Y0022657I0000000J0000984D01*
G01*
X0195079Y0025413D01*
G75*
G02*
X0196063Y0026397I0000984J0000000D01*
G01*
X0200984Y0026397D01*
G75*
G02*
X0201969Y0025413I0000000J-000984D01*
G01*
X0201969Y0022657D01*
G75*
G02*
X0200984Y0021673I-000984J0000000D01*
G01*
G37*
D58*
X0198524Y0031909D03*
X0198524Y0039783D03*
X0198524Y0047657D03*
G36*
G01*
X0128228Y0122042D02*
X0128228Y0124060D01*
G75*
G02*
X0129090Y0124921I0000861J0000000D01*
G01*
X0130812Y0124921D01*
G75*
G02*
X0131673Y0124060I0000000J-000861D01*
G01*
X0131673Y0122042D01*
G75*
G02*
X0130812Y0121181I-000861J0000000D01*
G01*
X0129090Y0121181D01*
G75*
G02*
X0128228Y0122042I0000000J0000861D01*
G01*
G37*
G36*
G01*
X0134429Y0122042D02*
X0134429Y0124060D01*
G75*
G02*
X0135290Y0124921I0000861J0000000D01*
G01*
X0137013Y0124921D01*
G75*
G02*
X0137874Y0124060I0000000J-000861D01*
G01*
X0137874Y0122042D01*
G75*
G02*
X0137013Y0121181I-000861J0000000D01*
G01*
X0135290Y0121181D01*
G75*
G02*
X0134429Y0122042I0000000J0000861D01*
G01*
G37*
G36*
G01*
X0124331Y0127696D02*
X0124331Y0116476D01*
G75*
G02*
X0123346Y0115492I-000984J0000000D01*
G01*
X0120492Y0115492D01*
G75*
G02*
X0119508Y0116476I0000000J0000984D01*
G01*
X0119508Y0127696D01*
G75*
G02*
X0120492Y0128681I0000984J0000000D01*
G01*
X0123346Y0128681D01*
G75*
G02*
X0124331Y0127696I0000000J-000984D01*
G01*
G37*
G36*
G01*
X0101004Y0127696D02*
X0101004Y0116476D01*
G75*
G02*
X0100020Y0115492I-000984J0000000D01*
G01*
X0097165Y0115492D01*
G75*
G02*
X0096181Y0116476I0000000J0000984D01*
G01*
X0096181Y0127696D01*
G75*
G02*
X0097165Y0128681I0000984J0000000D01*
G01*
X0100020Y0128681D01*
G75*
G02*
X0101004Y0127696I0000000J-000984D01*
G01*
G37*
G36*
G01*
X0137618Y0130098D02*
X0137618Y0127027D01*
G75*
G02*
X0137343Y0126752I-000276J0000000D01*
G01*
X0135138Y0126752D01*
G75*
G02*
X0134862Y0127027I0000000J0000276D01*
G01*
X0134862Y0130098D01*
G75*
G02*
X0135138Y0130374I0000276J0000000D01*
G01*
X0137343Y0130374D01*
G75*
G02*
X0137618Y0130098I0000000J-000276D01*
G01*
G37*
G36*
G01*
X0131319Y0130098D02*
X0131319Y0127027D01*
G75*
G02*
X0131043Y0126752I-000276J0000000D01*
G01*
X0128839Y0126752D01*
G75*
G02*
X0128563Y0127027I0000000J0000276D01*
G01*
X0128563Y0130098D01*
G75*
G02*
X0128839Y0130374I0000276J0000000D01*
G01*
X0131043Y0130374D01*
G75*
G02*
X0131319Y0130098I0000000J-000276D01*
G01*
G37*
D10*
X0334744Y0101161D03*
X0156004Y0192382D03*
X0156004Y0202382D03*
X0156004Y0212382D03*
X0156004Y0222382D03*
X0156004Y0232382D03*
X0166004Y0192382D03*
X0166004Y0202382D03*
X0166004Y0212382D03*
X0166004Y0222382D03*
X0166004Y0232382D03*
X0176004Y0192382D03*
X0176004Y0202382D03*
X0176004Y0212382D03*
X0176004Y0222382D03*
X0176004Y0232382D03*
G36*
G01*
X0069547Y0023641D02*
X0069547Y0019508D01*
G75*
G02*
X0069154Y0019114I-000394J0000000D01*
G01*
X0066004Y0019114D01*
G75*
G02*
X0065610Y0019508I0000000J0000394D01*
G01*
X0065610Y0023641D01*
G75*
G02*
X0066004Y0024035I0000394J0000000D01*
G01*
X0069154Y0024035D01*
G75*
G02*
X0069547Y0023641I0000000J-000394D01*
G01*
G37*
G36*
G01*
X0061673Y0023641D02*
X0061673Y0019508D01*
G75*
G02*
X0061280Y0019114I-000394J0000000D01*
G01*
X0058130Y0019114D01*
G75*
G02*
X0057736Y0019508I0000000J0000394D01*
G01*
X0057736Y0023641D01*
G75*
G02*
X0058130Y0024035I0000394J0000000D01*
G01*
X0061280Y0024035D01*
G75*
G02*
X0061673Y0023641I0000000J-000394D01*
G01*
G37*
D20*
X0234075Y0028563D03*
X0263602Y0028563D03*
D59*
X0102185Y0038011D03*
X0082894Y0038011D03*
X0102224Y0046397D03*
X0082933Y0046397D03*
X0184272Y0009685D03*
X0184272Y0024685D03*
X0099154Y0064665D03*
X0099154Y0083956D03*
D21*
X0363406Y0279891D03*
X0366850Y0281958D03*
X0362224Y0284911D03*
X0362520Y0298887D03*
D59*
X0082894Y0054822D03*
X0102185Y0054822D03*
X0109409Y0008425D02*
G01*
G75*
D108*
X0154488Y0032792D02*
D03*
X0154488Y0015075D02*
D03*
D109*
X0151161Y0057244D02*
D03*
X0123799Y0057244D02*
D03*
D110*
X0139921Y0034016D02*
D03*
X0123779Y0034016D02*
D03*
D111*
X0141692Y0015905D02*
D03*
X0125944Y0015905D02*
D03*
D112*
X0118753Y0077683D02*
D03*
X0128005Y0073943D02*
D03*
D112*
X0128005Y0081423D02*
D03*
D113*
X0150840Y0087362D02*
D03*
D113*
X0150840Y0083622D02*
D03*
X0150840Y0079882D02*
D03*
X0159304Y0079882D02*
D03*
X0159304Y0087362D02*
D03*
D114*
X0163156Y0073361D02*
D03*
X0150164Y0073361D02*
D03*
D115*
X0144870Y0073649D02*
D03*
X0133452Y0073649D02*
D03*
D116*
X0164055Y0041102D02*
D03*
X0157834Y0041102D02*
D03*
X0153464Y0041102D02*
D03*
X0147244Y0041102D02*
D03*
D117*
X0113378Y0018213D02*
D03*
X0113378Y0022347D02*
D03*
X0163933Y0060087D02*
D03*
X0163933Y0064221D02*
D03*
X0163933Y0055374D02*
D03*
X0163933Y0051240D02*
D03*
X0164825Y0035725D02*
D03*
X0164825Y0031591D02*
D03*
D118*
X0145722Y0079932D02*
D03*
X0145722Y0083869D02*
D03*
X0132047Y0080834D02*
D03*
X0140708Y0080834D02*
D03*
X0132047Y0087231D02*
D03*
X0140708Y0087231D02*
D03*
D119*
X0123674Y0087362D02*
D03*
X0127218Y0087362D02*
D03*
D120*
X0159675Y0064024D02*
D03*
X0159675Y0060480D02*
D03*
X0159675Y0054980D02*
D03*
X0159675Y0051437D02*
D03*
X0164825Y0023424D02*
D03*
X0164825Y0026968D02*
D03*
D121*
X0175157Y0026535D02*
D03*
X0175157Y0022598D02*
D03*
D122*
X0112362Y0080078D02*
D03*
X0112362Y0013149D02*
D03*
X0112362Y0060590D02*
D03*
X0173385Y0060393D02*
D03*
X0173385Y0085590D02*
D03*
X0173385Y0035984D02*
D03*
X0173385Y0052913D02*
D03*
X0173385Y0011378D02*
D03*
X0112362Y0087362D02*
D03*
X0390610Y0271988D02*
G01*
G75*
D267*
X0375905Y0261764D02*
D03*
X0375905Y0269244D02*
D03*
X0384370Y0269244D02*
D03*
X0384370Y0265504D02*
D03*
X0360256Y0261764D02*
D03*
X0360256Y0269244D02*
D03*
X0368720Y0269244D02*
D03*
X0368720Y0265504D02*
D03*
D267*
X0384370Y0261764D02*
D03*
X0368720Y0261764D02*
D03*
D121*
X0355177Y0261752D02*
D03*
X0355177Y0265492D02*
D03*
X0355177Y0269232D02*
D03*
X0389429Y0265295D02*
D03*
X0389429Y0261752D02*
D03*
X0427776Y0058268D02*
%LPD*%
G01*
D21*
X0400611Y0116536D03*
X0405335Y0116536D03*
X0395886Y0116536D03*
X0391162Y0116536D03*
X0416595Y0059744D03*
X0420532Y0059744D03*
G36*
G01*
X0410158Y0075709D02*
X0408701Y0075709D01*
G75*
G02*
X0408170Y0076240I0000000J0000531D01*
G01*
X0408170Y0077303D01*
G75*
G02*
X0408701Y0077835I0000531J0000000D01*
G01*
X0410158Y0077835D01*
G75*
G02*
X0410689Y0077303I0000000J-000531D01*
G01*
X0410689Y0076240D01*
G75*
G02*
X0410158Y0075709I-000531J0000000D01*
G01*
G37*
G36*
G01*
X0410158Y0071693D02*
X0408701Y0071693D01*
G75*
G02*
X0408170Y0072225I0000000J0000531D01*
G01*
X0408170Y0073288D01*
G75*
G02*
X0408701Y0073819I0000531J0000000D01*
G01*
X0410158Y0073819D01*
G75*
G02*
X0410689Y0073288I0000000J-000531D01*
G01*
X0410689Y0072225D01*
G75*
G02*
X0410158Y0071693I-000531J0000000D01*
G01*
G37*
G36*
G01*
X0425847Y0098957D02*
X0425847Y0097500D01*
G75*
G02*
X0425315Y0096969I-000531J0000000D01*
G01*
X0424252Y0096969D01*
G75*
G02*
X0423721Y0097500I0000000J0000531D01*
G01*
X0423721Y0098957D01*
G75*
G02*
X0424252Y0099488I0000531J0000000D01*
G01*
X0425315Y0099488D01*
G75*
G02*
X0425847Y0098957I0000000J-000531D01*
G01*
G37*
G36*
G01*
X0421831Y0098957D02*
X0421831Y0097500D01*
G75*
G02*
X0421300Y0096969I-000531J0000000D01*
G01*
X0420237Y0096969D01*
G75*
G02*
X0419705Y0097500I0000000J0000531D01*
G01*
X0419705Y0098957D01*
G75*
G02*
X0420237Y0099488I0000531J0000000D01*
G01*
X0421300Y0099488D01*
G75*
G02*
X0421831Y0098957I0000000J-000531D01*
G01*
G37*
G36*
G01*
X0393504Y0087985D02*
X0392323Y0087985D01*
G75*
G02*
X0391733Y0088575I0000000J0000591D01*
G01*
X0391733Y0095071D01*
G75*
G02*
X0392323Y0095662I0000591J0000000D01*
G01*
X0393504Y0095662D01*
G75*
G02*
X0394095Y0095071I0000000J-000591D01*
G01*
X0394095Y0088575D01*
G75*
G02*
X0393504Y0087985I-000591J0000000D01*
G01*
G37*
G36*
G01*
X0398504Y0087985D02*
X0397323Y0087985D01*
G75*
G02*
X0396733Y0088575I0000000J0000591D01*
G01*
X0396733Y0095071D01*
G75*
G02*
X0397323Y0095662I0000591J0000000D01*
G01*
X0398504Y0095662D01*
G75*
G02*
X0399095Y0095071I0000000J-000591D01*
G01*
X0399095Y0088575D01*
G75*
G02*
X0398504Y0087985I-000591J0000000D01*
G01*
G37*
G36*
G01*
X0403504Y0087985D02*
X0402323Y0087985D01*
G75*
G02*
X0401733Y0088575I0000000J0000591D01*
G01*
X0401733Y0095071D01*
G75*
G02*
X0402323Y0095662I0000591J0000000D01*
G01*
X0403504Y0095662D01*
G75*
G02*
X0404095Y0095071I0000000J-000591D01*
G01*
X0404095Y0088575D01*
G75*
G02*
X0403504Y0087985I-000591J0000000D01*
G01*
G37*
G36*
G01*
X0408504Y0087985D02*
X0407323Y0087985D01*
G75*
G02*
X0406733Y0088575I0000000J0000591D01*
G01*
X0406733Y0095071D01*
G75*
G02*
X0407323Y0095662I0000591J0000000D01*
G01*
X0408504Y0095662D01*
G75*
G02*
X0409095Y0095071I0000000J-000591D01*
G01*
X0409095Y0088575D01*
G75*
G02*
X0408504Y0087985I-000591J0000000D01*
G01*
G37*
G36*
G01*
X0408504Y0107473D02*
X0407323Y0107473D01*
G75*
G02*
X0406733Y0108063I0000000J0000591D01*
G01*
X0406733Y0114559D01*
G75*
G02*
X0407323Y0115150I0000591J0000000D01*
G01*
X0408504Y0115150D01*
G75*
G02*
X0409095Y0114559I0000000J-000591D01*
G01*
X0409095Y0108063D01*
G75*
G02*
X0408504Y0107473I-000591J0000000D01*
G01*
G37*
G36*
G01*
X0403504Y0107473D02*
X0402323Y0107473D01*
G75*
G02*
X0401733Y0108063I0000000J0000591D01*
G01*
X0401733Y0114559D01*
G75*
G02*
X0402323Y0115150I0000591J0000000D01*
G01*
X0403504Y0115150D01*
G75*
G02*
X0404095Y0114559I0000000J-000591D01*
G01*
X0404095Y0108063D01*
G75*
G02*
X0403504Y0107473I-000591J0000000D01*
G01*
G37*
G36*
G01*
X0398504Y0107473D02*
X0397323Y0107473D01*
G75*
G02*
X0396733Y0108063I0000000J0000591D01*
G01*
X0396733Y0114559D01*
G75*
G02*
X0397323Y0115150I0000591J0000000D01*
G01*
X0398504Y0115150D01*
G75*
G02*
X0399095Y0114559I0000000J-000591D01*
G01*
X0399095Y0108063D01*
G75*
G02*
X0398504Y0107473I-000591J0000000D01*
G01*
G37*
G36*
G01*
X0393504Y0107473D02*
X0392323Y0107473D01*
G75*
G02*
X0391733Y0108063I0000000J0000591D01*
G01*
X0391733Y0114559D01*
G75*
G02*
X0392323Y0115150I0000591J0000000D01*
G01*
X0393504Y0115150D01*
G75*
G02*
X0394095Y0114559I0000000J-000591D01*
G01*
X0394095Y0108063D01*
G75*
G02*
X0393504Y0107473I-000591J0000000D01*
G01*
G37*
D145*
X0392776Y0073465D03*
X0395335Y0073465D03*
X0397894Y0073465D03*
X0397894Y0080945D03*
X0395335Y0080945D03*
X0392776Y0080945D03*
G36*
G01*
X0411864Y0089626D02*
X0411864Y0091083D01*
G75*
G02*
X0412396Y0091614I0000531J0000000D01*
G01*
X0413459Y0091614D01*
G75*
G02*
X0413990Y0091083I0000000J-000531D01*
G01*
X0413990Y0089626D01*
G75*
G02*
X0413459Y0089095I-000531J0000000D01*
G01*
X0412396Y0089095D01*
G75*
G02*
X0411864Y0089626I0000000J0000531D01*
G01*
G37*
G36*
G01*
X0415880Y0089626D02*
X0415880Y0091083D01*
G75*
G02*
X0416411Y0091614I0000531J0000000D01*
G01*
X0417474Y0091614D01*
G75*
G02*
X0418006Y0091083I0000000J-000531D01*
G01*
X0418006Y0089626D01*
G75*
G02*
X0417474Y0089095I-000531J0000000D01*
G01*
X0416411Y0089095D01*
G75*
G02*
X0415880Y0089626I0000000J0000531D01*
G01*
G37*
G36*
G01*
X0417927Y0094961D02*
X0417927Y0093622D01*
G75*
G02*
X0417376Y0093071I-000551J0000000D01*
G01*
X0416274Y0093071D01*
G75*
G02*
X0415722Y0093622I0000000J0000551D01*
G01*
X0415722Y0094961D01*
G75*
G02*
X0416274Y0095512I0000551J0000000D01*
G01*
X0417376Y0095512D01*
G75*
G02*
X0417927Y0094961I0000000J-000551D01*
G01*
G37*
G36*
G01*
X0414148Y0094961D02*
X0414148Y0093622D01*
G75*
G02*
X0413596Y0093071I-000551J0000000D01*
G01*
X0412494Y0093071D01*
G75*
G02*
X0411943Y0093622I0000000J0000551D01*
G01*
X0411943Y0094961D01*
G75*
G02*
X0412494Y0095512I0000551J0000000D01*
G01*
X0413596Y0095512D01*
G75*
G02*
X0414148Y0094961I0000000J-000551D01*
G01*
G37*
G36*
G01*
X0425847Y0091083D02*
X0425847Y0089626D01*
G75*
G02*
X0425315Y0089095I-000531J0000000D01*
G01*
X0424252Y0089095D01*
G75*
G02*
X0423721Y0089626I0000000J0000531D01*
G01*
X0423721Y0091083D01*
G75*
G02*
X0424252Y0091614I0000531J0000000D01*
G01*
X0425315Y0091614D01*
G75*
G02*
X0425847Y0091083I0000000J-000531D01*
G01*
G37*
G36*
G01*
X0421831Y0091083D02*
X0421831Y0089626D01*
G75*
G02*
X0421300Y0089095I-000531J0000000D01*
G01*
X0420237Y0089095D01*
G75*
G02*
X0419705Y0089626I0000000J0000531D01*
G01*
X0419705Y0091083D01*
G75*
G02*
X0420237Y0091614I0000531J0000000D01*
G01*
X0421300Y0091614D01*
G75*
G02*
X0421831Y0091083I0000000J-000531D01*
G01*
G37*
G36*
G01*
X0419784Y0102677D02*
X0419784Y0104016D01*
G75*
G02*
X0420335Y0104567I0000551J0000000D01*
G01*
X0421437Y0104567D01*
G75*
G02*
X0421989Y0104016I0000000J-000551D01*
G01*
X0421989Y0102677D01*
G75*
G02*
X0421437Y0102126I-000551J0000000D01*
G01*
X0420335Y0102126D01*
G75*
G02*
X0419784Y0102677I0000000J0000551D01*
G01*
G37*
G36*
G01*
X0423563Y0102677D02*
X0423563Y0104016D01*
G75*
G02*
X0424115Y0104567I0000551J0000000D01*
G01*
X0425217Y0104567D01*
G75*
G02*
X0425768Y0104016I0000000J-000551D01*
G01*
X0425768Y0102677D01*
G75*
G02*
X0425217Y0102126I-000551J0000000D01*
G01*
X0424115Y0102126D01*
G75*
G02*
X0423563Y0102677I0000000J0000551D01*
G01*
G37*
G36*
G01*
X0415926Y0079548D02*
X0415926Y0080886D01*
G75*
G02*
X0416477Y0081437I0000551J0000000D01*
G01*
X0417579Y0081437D01*
G75*
G02*
X0418130Y0080886I0000000J-000551D01*
G01*
X0418130Y0079548D01*
G75*
G02*
X0417579Y0078996I-000551J0000000D01*
G01*
X0416477Y0078996D01*
G75*
G02*
X0415926Y0079548I0000000J0000551D01*
G01*
G37*
G36*
G01*
X0419705Y0079548D02*
X0419705Y0080886D01*
G75*
G02*
X0420256Y0081437I0000551J0000000D01*
G01*
X0421359Y0081437D01*
G75*
G02*
X0421910Y0080886I0000000J-000551D01*
G01*
X0421910Y0079548D01*
G75*
G02*
X0421359Y0078996I-000551J0000000D01*
G01*
X0420256Y0078996D01*
G75*
G02*
X0419705Y0079548I0000000J0000551D01*
G01*
G37*
G36*
G01*
X0412678Y0085315D02*
X0414134Y0085315D01*
G75*
G02*
X0414666Y0084784I0000000J-000531D01*
G01*
X0414666Y0083721D01*
G75*
G02*
X0414134Y0083189I-000531J0000000D01*
G01*
X0412678Y0083189D01*
G75*
G02*
X0412146Y0083721I0000000J0000531D01*
G01*
X0412146Y0084784D01*
G75*
G02*
X0412678Y0085315I0000531J0000000D01*
G01*
G37*
G36*
G01*
X0412678Y0081299D02*
X0414134Y0081299D01*
G75*
G02*
X0414666Y0080768I0000000J-000531D01*
G01*
X0414666Y0079705D01*
G75*
G02*
X0414134Y0079174I-000531J0000000D01*
G01*
X0412678Y0079174D01*
G75*
G02*
X0412146Y0079705I0000000J0000531D01*
G01*
X0412146Y0080768D01*
G75*
G02*
X0412678Y0081299I0000531J0000000D01*
G01*
G37*
G36*
G01*
X0411949Y0116142D02*
X0413288Y0116142D01*
G75*
G02*
X0413839Y0115591I0000000J-000551D01*
G01*
X0413839Y0114488D01*
G75*
G02*
X0413288Y0113937I-000551J0000000D01*
G01*
X0411949Y0113937D01*
G75*
G02*
X0411398Y0114488I0000000J0000551D01*
G01*
X0411398Y0115591D01*
G75*
G02*
X0411949Y0116142I0000551J0000000D01*
G01*
G37*
G36*
G01*
X0411949Y0112362D02*
X0413288Y0112362D01*
G75*
G02*
X0413839Y0111811I0000000J-000551D01*
G01*
X0413839Y0110709D01*
G75*
G02*
X0413288Y0110158I-000551J0000000D01*
G01*
X0411949Y0110158D01*
G75*
G02*
X0411398Y0110709I0000000J0000551D01*
G01*
X0411398Y0111811D01*
G75*
G02*
X0411949Y0112362I0000551J0000000D01*
G01*
G37*
G36*
G01*
X0406186Y0067087D02*
X0404169Y0067087D01*
G75*
G02*
X0403307Y0067948I0000000J0000861D01*
G01*
X0403307Y0069671D01*
G75*
G02*
X0404169Y0070532I0000861J0000000D01*
G01*
X0406186Y0070532D01*
G75*
G02*
X0407048Y0069671I0000000J-000861D01*
G01*
X0407048Y0067948D01*
G75*
G02*
X0406186Y0067087I-000861J0000000D01*
G01*
G37*
G36*
G01*
X0406186Y0060886D02*
X0404169Y0060886D01*
G75*
G02*
X0403307Y0061747I0000000J0000861D01*
G01*
X0403307Y0063470D01*
G75*
G02*
X0404169Y0064331I0000861J0000000D01*
G01*
X0406186Y0064331D01*
G75*
G02*
X0407048Y0063470I0000000J-000861D01*
G01*
X0407048Y0061747D01*
G75*
G02*
X0406186Y0060886I-000861J0000000D01*
G01*
G37*
G36*
G01*
X0400965Y0085866D02*
X0400965Y0084528D01*
G75*
G02*
X0400414Y0083977I-000551J0000000D01*
G01*
X0399311Y0083977D01*
G75*
G02*
X0398760Y0084528I0000000J0000551D01*
G01*
X0398760Y0085866D01*
G75*
G02*
X0399311Y0086418I0000551J0000000D01*
G01*
X0400414Y0086418D01*
G75*
G02*
X0400965Y0085866I0000000J-000551D01*
G01*
G37*
G36*
G01*
X0397185Y0085866D02*
X0397185Y0084528D01*
G75*
G02*
X0396634Y0083977I-000551J0000000D01*
G01*
X0395532Y0083977D01*
G75*
G02*
X0394981Y0084528I0000000J0000551D01*
G01*
X0394981Y0085866D01*
G75*
G02*
X0395532Y0086418I0000551J0000000D01*
G01*
X0396634Y0086418D01*
G75*
G02*
X0397185Y0085866I0000000J-000551D01*
G01*
G37*
G36*
G01*
X0398111Y0068229D02*
X0399567Y0068229D01*
G75*
G02*
X0400099Y0067697I0000000J-000531D01*
G01*
X0400099Y0066634D01*
G75*
G02*
X0399567Y0066103I-000531J0000000D01*
G01*
X0398111Y0066103D01*
G75*
G02*
X0397579Y0066634I0000000J0000531D01*
G01*
X0397579Y0067697D01*
G75*
G02*
X0398111Y0068229I0000531J0000000D01*
G01*
G37*
G36*
G01*
X0398111Y0064213D02*
X0399567Y0064213D01*
G75*
G02*
X0400099Y0063681I0000000J-000531D01*
G01*
X0400099Y0062618D01*
G75*
G02*
X0399567Y0062087I-000531J0000000D01*
G01*
X0398111Y0062087D01*
G75*
G02*
X0397579Y0062618I0000000J0000531D01*
G01*
X0397579Y0063681D01*
G75*
G02*
X0398111Y0064213I0000531J0000000D01*
G01*
G37*
G36*
G01*
X0410197Y0079174D02*
X0408741Y0079174D01*
G75*
G02*
X0408209Y0079705I0000000J0000531D01*
G01*
X0408209Y0080768D01*
G75*
G02*
X0408741Y0081299I0000531J0000000D01*
G01*
X0410197Y0081299D01*
G75*
G02*
X0410729Y0080768I0000000J-000531D01*
G01*
X0410729Y0079705D01*
G75*
G02*
X0410197Y0079174I-000531J0000000D01*
G01*
G37*
G36*
G01*
X0410197Y0083189D02*
X0408741Y0083189D01*
G75*
G02*
X0408209Y0083721I0000000J0000531D01*
G01*
X0408209Y0084784D01*
G75*
G02*
X0408741Y0085315I0000531J0000000D01*
G01*
X0410197Y0085315D01*
G75*
G02*
X0410729Y0084784I0000000J-000531D01*
G01*
X0410729Y0083721D01*
G75*
G02*
X0410197Y0083189I-000531J0000000D01*
G01*
G37*
G36*
G01*
X0415988Y0084311D02*
X0415988Y0085768D01*
G75*
G02*
X0416519Y0086299I0000531J0000000D01*
G01*
X0417582Y0086299D01*
G75*
G02*
X0418114Y0085768I0000000J-000531D01*
G01*
X0418114Y0084311D01*
G75*
G02*
X0417582Y0083780I-000531J0000000D01*
G01*
X0416519Y0083780D01*
G75*
G02*
X0415988Y0084311I0000000J0000531D01*
G01*
G37*
G36*
G01*
X0420004Y0084311D02*
X0420004Y0085768D01*
G75*
G02*
X0420535Y0086299I0000531J0000000D01*
G01*
X0421598Y0086299D01*
G75*
G02*
X0422129Y0085768I0000000J-000531D01*
G01*
X0422129Y0084311D01*
G75*
G02*
X0421598Y0083780I-000531J0000000D01*
G01*
X0420535Y0083780D01*
G75*
G02*
X0420004Y0084311I0000000J0000531D01*
G01*
G37*
G36*
G01*
X0409390Y0066969D02*
X0410729Y0066969D01*
G75*
G02*
X0411280Y0066418I0000000J-000551D01*
G01*
X0411280Y0065315D01*
G75*
G02*
X0410729Y0064764I-000551J0000000D01*
G01*
X0409390Y0064764D01*
G75*
G02*
X0408839Y0065315I0000000J0000551D01*
G01*
X0408839Y0066418D01*
G75*
G02*
X0409390Y0066969I0000551J0000000D01*
G01*
G37*
G36*
G01*
X0409390Y0063189D02*
X0410729Y0063189D01*
G75*
G02*
X0411280Y0062638I0000000J-000551D01*
G01*
X0411280Y0061536D01*
G75*
G02*
X0410729Y0060985I-000551J0000000D01*
G01*
X0409390Y0060985D01*
G75*
G02*
X0408839Y0061536I0000000J0000551D01*
G01*
X0408839Y0062638D01*
G75*
G02*
X0409390Y0063189I0000551J0000000D01*
G01*
G37*
G36*
G01*
X0417927Y0104016D02*
X0417927Y0102677D01*
G75*
G02*
X0417376Y0102126I-000551J0000000D01*
G01*
X0416274Y0102126D01*
G75*
G02*
X0415722Y0102677I0000000J0000551D01*
G01*
X0415722Y0104016D01*
G75*
G02*
X0416274Y0104567I0000551J0000000D01*
G01*
X0417376Y0104567D01*
G75*
G02*
X0417927Y0104016I0000000J-000551D01*
G01*
G37*
G36*
G01*
X0414148Y0104016D02*
X0414148Y0102677D01*
G75*
G02*
X0413596Y0102126I-000551J0000000D01*
G01*
X0412494Y0102126D01*
G75*
G02*
X0411943Y0102677I0000000J0000551D01*
G01*
X0411943Y0104016D01*
G75*
G02*
X0412494Y0104567I0000551J0000000D01*
G01*
X0413596Y0104567D01*
G75*
G02*
X0414148Y0104016I0000000J-000551D01*
G01*
G37*
G36*
G01*
X0425453Y0078996D02*
X0423996Y0078996D01*
G75*
G02*
X0423465Y0079528I0000000J0000531D01*
G01*
X0423465Y0080591D01*
G75*
G02*
X0423996Y0081122I0000531J0000000D01*
G01*
X0425453Y0081122D01*
G75*
G02*
X0425985Y0080591I0000000J-000531D01*
G01*
X0425985Y0079528D01*
G75*
G02*
X0425453Y0078996I-000531J0000000D01*
G01*
G37*
G36*
G01*
X0425453Y0083012D02*
X0423996Y0083012D01*
G75*
G02*
X0423465Y0083544I0000000J0000531D01*
G01*
X0423465Y0084607D01*
G75*
G02*
X0423996Y0085138I0000531J0000000D01*
G01*
X0425453Y0085138D01*
G75*
G02*
X0425985Y0084607I0000000J-000531D01*
G01*
X0425985Y0083544D01*
G75*
G02*
X0425453Y0083012I-000531J0000000D01*
G01*
G37*
D144*
X0424233Y0108255D03*
X0424233Y0110814D03*
X0424233Y0113373D03*
X0416752Y0113373D03*
X0416752Y0110814D03*
X0416752Y0108255D03*
G36*
G01*
X0415447Y0062306D02*
X0414266Y0062306D01*
G75*
G02*
X0413675Y0062897I0000000J0000591D01*
G01*
X0413675Y0066932D01*
G75*
G02*
X0414266Y0067523I0000591J0000000D01*
G01*
X0415447Y0067523D01*
G75*
G02*
X0416037Y0066932I0000000J-000591D01*
G01*
X0416037Y0062897D01*
G75*
G02*
X0415447Y0062306I-000591J0000000D01*
G01*
G37*
G36*
G01*
X0419187Y0062306D02*
X0418006Y0062306D01*
G75*
G02*
X0417415Y0062897I0000000J0000591D01*
G01*
X0417415Y0066932D01*
G75*
G02*
X0418006Y0067523I0000591J0000000D01*
G01*
X0419187Y0067523D01*
G75*
G02*
X0419778Y0066932I0000000J-000591D01*
G01*
X0419778Y0062897D01*
G75*
G02*
X0419187Y0062306I-000591J0000000D01*
G01*
G37*
G36*
G01*
X0422927Y0062306D02*
X0421746Y0062306D01*
G75*
G02*
X0421156Y0062897I0000000J0000591D01*
G01*
X0421156Y0066932D01*
G75*
G02*
X0421746Y0067523I0000591J0000000D01*
G01*
X0422927Y0067523D01*
G75*
G02*
X0423518Y0066932I0000000J-000591D01*
G01*
X0423518Y0062897D01*
G75*
G02*
X0422927Y0062306I-000591J0000000D01*
G01*
G37*
G36*
G01*
X0422927Y0071263D02*
X0421746Y0071263D01*
G75*
G02*
X0421156Y0071853I0000000J0000591D01*
G01*
X0421156Y0075889D01*
G75*
G02*
X0421746Y0076479I0000591J0000000D01*
G01*
X0422927Y0076479D01*
G75*
G02*
X0423518Y0075889I0000000J-000591D01*
G01*
X0423518Y0071853D01*
G75*
G02*
X0422927Y0071263I-000591J0000000D01*
G01*
G37*
G36*
G01*
X0419187Y0071263D02*
X0418006Y0071263D01*
G75*
G02*
X0417415Y0071853I0000000J0000591D01*
G01*
X0417415Y0075889D01*
G75*
G02*
X0418006Y0076479I0000591J0000000D01*
G01*
X0419187Y0076479D01*
G75*
G02*
X0419778Y0075889I0000000J-000591D01*
G01*
X0419778Y0071853D01*
G75*
G02*
X0419187Y0071263I-000591J0000000D01*
G01*
G37*
G36*
G01*
X0415447Y0071263D02*
X0414266Y0071263D01*
G75*
G02*
X0413675Y0071853I0000000J0000591D01*
G01*
X0413675Y0075889D01*
G75*
G02*
X0414266Y0076479I0000591J0000000D01*
G01*
X0415447Y0076479D01*
G75*
G02*
X0416037Y0075889I0000000J-000591D01*
G01*
X0416037Y0071853D01*
G75*
G02*
X0415447Y0071263I-000591J0000000D01*
G01*
G37*
G36*
G01*
X0403563Y0073425D02*
X0402225Y0073425D01*
G75*
G02*
X0401674Y0073977I0000000J0000551D01*
G01*
X0401674Y0075079D01*
G75*
G02*
X0402225Y0075630I0000551J0000000D01*
G01*
X0403563Y0075630D01*
G75*
G02*
X0404115Y0075079I0000000J-000551D01*
G01*
X0404115Y0073977D01*
G75*
G02*
X0403563Y0073425I-000551J0000000D01*
G01*
G37*
G36*
G01*
X0403563Y0077205D02*
X0402225Y0077205D01*
G75*
G02*
X0401674Y0077756I0000000J0000551D01*
G01*
X0401674Y0078859D01*
G75*
G02*
X0402225Y0079410I0000551J0000000D01*
G01*
X0403563Y0079410D01*
G75*
G02*
X0404115Y0078859I0000000J-000551D01*
G01*
X0404115Y0077756D01*
G75*
G02*
X0403563Y0077205I-000551J0000000D01*
G01*
G37*
G36*
G01*
X0425768Y0094961D02*
X0425768Y0093622D01*
G75*
G02*
X0425217Y0093071I-000551J0000000D01*
G01*
X0424115Y0093071D01*
G75*
G02*
X0423563Y0093622I0000000J0000551D01*
G01*
X0423563Y0094961D01*
G75*
G02*
X0424115Y0095512I0000551J0000000D01*
G01*
X0425217Y0095512D01*
G75*
G02*
X0425768Y0094961I0000000J-000551D01*
G01*
G37*
G36*
G01*
X0421989Y0094961D02*
X0421989Y0093622D01*
G75*
G02*
X0421437Y0093071I-000551J0000000D01*
G01*
X0420335Y0093071D01*
G75*
G02*
X0419784Y0093622I0000000J0000551D01*
G01*
X0419784Y0094961D01*
G75*
G02*
X0420335Y0095512I0000551J0000000D01*
G01*
X0421437Y0095512D01*
G75*
G02*
X0421989Y0094961I0000000J-000551D01*
G01*
G37*
G36*
G01*
X0418006Y0098957D02*
X0418006Y0097500D01*
G75*
G02*
X0417474Y0096969I-000531J0000000D01*
G01*
X0416411Y0096969D01*
G75*
G02*
X0415880Y0097500I0000000J0000531D01*
G01*
X0415880Y0098957D01*
G75*
G02*
X0416411Y0099488I0000531J0000000D01*
G01*
X0417474Y0099488D01*
G75*
G02*
X0418006Y0098957I0000000J-000531D01*
G01*
G37*
G36*
G01*
X0413990Y0098957D02*
X0413990Y0097500D01*
G75*
G02*
X0413459Y0096969I-000531J0000000D01*
G01*
X0412396Y0096969D01*
G75*
G02*
X0411864Y0097500I0000000J0000531D01*
G01*
X0411864Y0098957D01*
G75*
G02*
X0412396Y0099488I0000531J0000000D01*
G01*
X0413459Y0099488D01*
G75*
G02*
X0413990Y0098957I0000000J-000531D01*
G01*
G37*
X0427598Y0144744D02*
%LPD*%
G01*
D21*
X0400433Y0203012D03*
X0405157Y0203012D03*
X0395708Y0203012D03*
X0390984Y0203012D03*
X0416417Y0146220D03*
X0420354Y0146220D03*
D276*
X0414606Y0178602D03*
X0416574Y0178602D03*
X0418543Y0178602D03*
X0420511Y0178602D03*
X0422480Y0178602D03*
X0422480Y0195925D03*
X0420511Y0195925D03*
X0418543Y0195925D03*
X0416574Y0195925D03*
X0414606Y0195925D03*
G36*
G01*
X0401417Y0186122D02*
X0401417Y0189193D01*
G75*
G02*
X0401692Y0189468I0000276J0000000D01*
G01*
X0403897Y0189468D01*
G75*
G02*
X0404173Y0189193I0000000J-000276D01*
G01*
X0404173Y0186122D01*
G75*
G02*
X0403897Y0185846I-000276J0000000D01*
G01*
X0401692Y0185846D01*
G75*
G02*
X0401417Y0186122I0000000J0000276D01*
G01*
G37*
G36*
G01*
X0407716Y0186122D02*
X0407716Y0189193D01*
G75*
G02*
X0407992Y0189468I0000276J0000000D01*
G01*
X0410196Y0189468D01*
G75*
G02*
X0410472Y0189193I0000000J-000276D01*
G01*
X0410472Y0186122D01*
G75*
G02*
X0410196Y0185846I-000276J0000000D01*
G01*
X0407992Y0185846D01*
G75*
G02*
X0407716Y0186122I0000000J0000276D01*
G01*
G37*
G36*
G01*
X0394763Y0200453D02*
X0397834Y0200453D01*
G75*
G02*
X0398110Y0200177I0000000J-000276D01*
G01*
X0398110Y0197972D01*
G75*
G02*
X0397834Y0197697I-000276J0000000D01*
G01*
X0394763Y0197697D01*
G75*
G02*
X0394488Y0197972I0000000J0000276D01*
G01*
X0394488Y0200177D01*
G75*
G02*
X0394763Y0200453I0000276J0000000D01*
G01*
G37*
G36*
G01*
X0394763Y0194153D02*
X0397834Y0194153D01*
G75*
G02*
X0398110Y0193878I0000000J-000276D01*
G01*
X0398110Y0191673D01*
G75*
G02*
X0397834Y0191398I-000276J0000000D01*
G01*
X0394763Y0191398D01*
G75*
G02*
X0394488Y0191673I0000000J0000276D01*
G01*
X0394488Y0193878D01*
G75*
G02*
X0394763Y0194153I0000276J0000000D01*
G01*
G37*
G36*
G01*
X0401417Y0180216D02*
X0401417Y0183287D01*
G75*
G02*
X0401692Y0183563I0000276J0000000D01*
G01*
X0403897Y0183563D01*
G75*
G02*
X0404173Y0183287I0000000J-000276D01*
G01*
X0404173Y0180216D01*
G75*
G02*
X0403897Y0179941I-000276J0000000D01*
G01*
X0401692Y0179941D01*
G75*
G02*
X0401417Y0180216I0000000J0000276D01*
G01*
G37*
G36*
G01*
X0407716Y0180216D02*
X0407716Y0183287D01*
G75*
G02*
X0407992Y0183563I0000276J0000000D01*
G01*
X0410196Y0183563D01*
G75*
G02*
X0410472Y0183287I0000000J-000276D01*
G01*
X0410472Y0180216D01*
G75*
G02*
X0410196Y0179941I-000276J0000000D01*
G01*
X0407992Y0179941D01*
G75*
G02*
X0407716Y0180216I0000000J0000276D01*
G01*
G37*
G36*
G01*
X0397677Y0169567D02*
X0397677Y0172283D01*
G75*
G02*
X0398582Y0173189I0000906J0000000D01*
G01*
X0403858Y0173189D01*
G75*
G02*
X0404763Y0172283I0000000J-000906D01*
G01*
X0404763Y0169567D01*
G75*
G02*
X0403858Y0168661I-000906J0000000D01*
G01*
X0398582Y0168661D01*
G75*
G02*
X0397677Y0169567I0000000J0000906D01*
G01*
G37*
G36*
G01*
X0397677Y0158149D02*
X0397677Y0160866D01*
G75*
G02*
X0398582Y0161772I0000906J0000000D01*
G01*
X0403858Y0161772D01*
G75*
G02*
X0404763Y0160866I0000000J-000906D01*
G01*
X0404763Y0158149D01*
G75*
G02*
X0403858Y0157244I-000906J0000000D01*
G01*
X0398582Y0157244D01*
G75*
G02*
X0397677Y0158149I0000000J0000906D01*
G01*
G37*
G36*
G01*
X0407519Y0169567D02*
X0407519Y0172283D01*
G75*
G02*
X0408425Y0173189I0000906J0000000D01*
G01*
X0413700Y0173189D01*
G75*
G02*
X0414606Y0172283I0000000J-000906D01*
G01*
X0414606Y0169567D01*
G75*
G02*
X0413700Y0168661I-000906J0000000D01*
G01*
X0408425Y0168661D01*
G75*
G02*
X0407519Y0169567I0000000J0000906D01*
G01*
G37*
G36*
G01*
X0407519Y0158149D02*
X0407519Y0160866D01*
G75*
G02*
X0408425Y0161772I0000906J0000000D01*
G01*
X0413700Y0161772D01*
G75*
G02*
X0414606Y0160866I0000000J-000906D01*
G01*
X0414606Y0158149D01*
G75*
G02*
X0413700Y0157244I-000906J0000000D01*
G01*
X0408425Y0157244D01*
G75*
G02*
X0407519Y0158149I0000000J0000906D01*
G01*
G37*
G36*
G01*
X0401200Y0147500D02*
X0398484Y0147500D01*
G75*
G02*
X0397578Y0148405I0000000J0000906D01*
G01*
X0397578Y0153681D01*
G75*
G02*
X0398484Y0154587I0000906J0000000D01*
G01*
X0401200Y0154587D01*
G75*
G02*
X0402106Y0153681I0000000J-000906D01*
G01*
X0402106Y0148405D01*
G75*
G02*
X0401200Y0147500I-000906J0000000D01*
G01*
G37*
G36*
G01*
X0412618Y0147500D02*
X0409901Y0147500D01*
G75*
G02*
X0408996Y0148405I0000000J0000906D01*
G01*
X0408996Y0153681D01*
G75*
G02*
X0409901Y0154587I0000906J0000000D01*
G01*
X0412618Y0154587D01*
G75*
G02*
X0413523Y0153681I0000000J-000906D01*
G01*
X0413523Y0148405D01*
G75*
G02*
X0412618Y0147500I-000906J0000000D01*
G01*
G37*
G36*
G01*
X0416968Y0162874D02*
X0416968Y0165590D01*
G75*
G02*
X0417874Y0166496I0000906J0000000D01*
G01*
X0423149Y0166496D01*
G75*
G02*
X0424055Y0165590I0000000J-000906D01*
G01*
X0424055Y0162874D01*
G75*
G02*
X0423149Y0161968I-000906J0000000D01*
G01*
X0417874Y0161968D01*
G75*
G02*
X0416968Y0162874I0000000J0000906D01*
G01*
G37*
G36*
G01*
X0416968Y0151457D02*
X0416968Y0154173D01*
G75*
G02*
X0417874Y0155079I0000906J0000000D01*
G01*
X0423149Y0155079D01*
G75*
G02*
X0424055Y0154173I0000000J-000906D01*
G01*
X0424055Y0151457D01*
G75*
G02*
X0423149Y0150551I-000906J0000000D01*
G01*
X0417874Y0150551D01*
G75*
G02*
X0416968Y0151457I0000000J0000906D01*
G01*
G37*
G36*
G01*
X0395093Y0188543D02*
X0397111Y0188543D01*
G75*
G02*
X0397972Y0187682I0000000J-000861D01*
G01*
X0397972Y0185960D01*
G75*
G02*
X0397111Y0185098I-000861J0000000D01*
G01*
X0395093Y0185098D01*
G75*
G02*
X0394232Y0185960I0000000J0000861D01*
G01*
X0394232Y0187682D01*
G75*
G02*
X0395093Y0188543I0000861J0000000D01*
G01*
G37*
G36*
G01*
X0395093Y0182342D02*
X0397111Y0182342D01*
G75*
G02*
X0397972Y0181481I0000000J-000861D01*
G01*
X0397972Y0179759D01*
G75*
G02*
X0397111Y0178898I-000861J0000000D01*
G01*
X0395093Y0178898D01*
G75*
G02*
X0394232Y0179759I0000000J0000861D01*
G01*
X0394232Y0181481D01*
G75*
G02*
X0395093Y0182342I0000861J0000000D01*
G01*
G37*
G36*
G01*
X0402055Y0194488D02*
X0404732Y0194488D01*
G75*
G02*
X0405067Y0194153I0000000J-000335D01*
G01*
X0405067Y0191476D01*
G75*
G02*
X0404732Y0191142I-000335J0000000D01*
G01*
X0402055Y0191142D01*
G75*
G02*
X0401720Y0191476I0000000J0000335D01*
G01*
X0401720Y0194153D01*
G75*
G02*
X0402055Y0194488I0000335J0000000D01*
G01*
G37*
G36*
G01*
X0402055Y0200709D02*
X0404732Y0200709D01*
G75*
G02*
X0405067Y0200374I0000000J-000335D01*
G01*
X0405067Y0197697D01*
G75*
G02*
X0404732Y0197362I-000335J0000000D01*
G01*
X0402055Y0197362D01*
G75*
G02*
X0401720Y0197697I0000000J0000335D01*
G01*
X0401720Y0200374D01*
G75*
G02*
X0402055Y0200709I0000335J0000000D01*
G01*
G37*
G36*
G01*
X0407362Y0200709D02*
X0410039Y0200709D01*
G75*
G02*
X0410374Y0200374I0000000J-000335D01*
G01*
X0410374Y0197697D01*
G75*
G02*
X0410039Y0197362I-000335J0000000D01*
G01*
X0407362Y0197362D01*
G75*
G02*
X0407027Y0197697I0000000J0000335D01*
G01*
X0407027Y0200374D01*
G75*
G02*
X0407362Y0200709I0000335J0000000D01*
G01*
G37*
G36*
G01*
X0407362Y0194488D02*
X0410039Y0194488D01*
G75*
G02*
X0410374Y0194153I0000000J-000335D01*
G01*
X0410374Y0191476D01*
G75*
G02*
X0410039Y0191142I-000335J0000000D01*
G01*
X0407362Y0191142D01*
G75*
G02*
X0407027Y0191476I0000000J0000335D01*
G01*
X0407027Y0194153D01*
G75*
G02*
X0407362Y0194488I0000335J0000000D01*
G01*
G37*
G36*
G01*
X0401161Y0175295D02*
X0401161Y0177972D01*
G75*
G02*
X0401496Y0178307I0000335J0000000D01*
G01*
X0404173Y0178307D01*
G75*
G02*
X0404507Y0177972I0000000J-000335D01*
G01*
X0404507Y0175295D01*
G75*
G02*
X0404173Y0174961I-000335J0000000D01*
G01*
X0401496Y0174961D01*
G75*
G02*
X0401161Y0175295I0000000J0000335D01*
G01*
G37*
G36*
G01*
X0407381Y0175295D02*
X0407381Y0177972D01*
G75*
G02*
X0407716Y0178307I0000335J0000000D01*
G01*
X0410393Y0178307D01*
G75*
G02*
X0410728Y0177972I0000000J-000335D01*
G01*
X0410728Y0175295D01*
G75*
G02*
X0410393Y0174961I-000335J0000000D01*
G01*
X0407716Y0174961D01*
G75*
G02*
X0407381Y0175295I0000000J0000335D01*
G01*
G37*
X0222087Y0301673D02*
%LPD*%
G01*
G36*
G01*
X0154479Y0265964D02*
X0155837Y0265964D01*
G75*
G02*
X0156418Y0265384I0000000J-000581D01*
G01*
X0156418Y0264222D01*
G75*
G02*
X0155837Y0263642I-000581J0000000D01*
G01*
X0154479Y0263642D01*
G75*
G02*
X0153898Y0264222I0000000J0000581D01*
G01*
X0153898Y0265384D01*
G75*
G02*
X0154479Y0265964I0000581J0000000D01*
G01*
G37*
G36*
G01*
X0154479Y0262145D02*
X0155837Y0262145D01*
G75*
G02*
X0156418Y0261565I0000000J-000581D01*
G01*
X0156418Y0260403D01*
G75*
G02*
X0155837Y0259823I-000581J0000000D01*
G01*
X0154479Y0259823D01*
G75*
G02*
X0153898Y0260403I0000000J0000581D01*
G01*
X0153898Y0261565D01*
G75*
G02*
X0154479Y0262145I0000581J0000000D01*
G01*
G37*
G36*
G01*
X0213052Y0281388D02*
X0213052Y0280029D01*
G75*
G02*
X0212471Y0279449I-000581J0000000D01*
G01*
X0211309Y0279449D01*
G75*
G02*
X0210729Y0280029I0000000J0000581D01*
G01*
X0210729Y0281388D01*
G75*
G02*
X0211309Y0281968I0000581J0000000D01*
G01*
X0212471Y0281968D01*
G75*
G02*
X0213052Y0281388I0000000J-000581D01*
G01*
G37*
G36*
G01*
X0209233Y0281388D02*
X0209233Y0280029D01*
G75*
G02*
X0208652Y0279449I-000581J0000000D01*
G01*
X0207491Y0279449D01*
G75*
G02*
X0206910Y0280029I0000000J0000581D01*
G01*
X0206910Y0281388D01*
G75*
G02*
X0207491Y0281968I0000581J0000000D01*
G01*
X0208652Y0281968D01*
G75*
G02*
X0209233Y0281388I0000000J-000581D01*
G01*
G37*
G36*
G01*
X0202525Y0266191D02*
X0200507Y0266191D01*
G75*
G02*
X0199646Y0267052I0000000J0000861D01*
G01*
X0199646Y0268774D01*
G75*
G02*
X0200507Y0269636I0000861J0000000D01*
G01*
X0202525Y0269636D01*
G75*
G02*
X0203386Y0268774I0000000J-000861D01*
G01*
X0203386Y0267052D01*
G75*
G02*
X0202525Y0266191I-000861J0000000D01*
G01*
G37*
G36*
G01*
X0202525Y0272392D02*
X0200507Y0272392D01*
G75*
G02*
X0199646Y0273253I0000000J0000861D01*
G01*
X0199646Y0274975D01*
G75*
G02*
X0200507Y0275836I0000861J0000000D01*
G01*
X0202525Y0275836D01*
G75*
G02*
X0203386Y0274975I0000000J-000861D01*
G01*
X0203386Y0273253D01*
G75*
G02*
X0202525Y0272392I-000861J0000000D01*
G01*
G37*
G36*
G01*
X0156034Y0291220D02*
X0154676Y0291220D01*
G75*
G02*
X0154095Y0291801I0000000J0000581D01*
G01*
X0154095Y0292962D01*
G75*
G02*
X0154676Y0293543I0000581J0000000D01*
G01*
X0156034Y0293543D01*
G75*
G02*
X0156615Y0292962I0000000J-000581D01*
G01*
X0156615Y0291801D01*
G75*
G02*
X0156034Y0291220I-000581J0000000D01*
G01*
G37*
G36*
G01*
X0156034Y0295039D02*
X0154676Y0295039D01*
G75*
G02*
X0154095Y0295620I0000000J0000581D01*
G01*
X0154095Y0296781D01*
G75*
G02*
X0154676Y0297362I0000581J0000000D01*
G01*
X0156034Y0297362D01*
G75*
G02*
X0156615Y0296781I0000000J-000581D01*
G01*
X0156615Y0295620D01*
G75*
G02*
X0156034Y0295039I-000581J0000000D01*
G01*
G37*
D148*
X0207225Y0275393D03*
X0207225Y0267913D03*
X0215099Y0271653D03*
G36*
G01*
X0160217Y0291220D02*
X0158859Y0291220D01*
G75*
G02*
X0158278Y0291801I0000000J0000581D01*
G01*
X0158278Y0292962D01*
G75*
G02*
X0158859Y0293543I0000581J0000000D01*
G01*
X0160217Y0293543D01*
G75*
G02*
X0160798Y0292962I0000000J-000581D01*
G01*
X0160798Y0291801D01*
G75*
G02*
X0160217Y0291220I-000581J0000000D01*
G01*
G37*
G36*
G01*
X0160217Y0295039D02*
X0158859Y0295039D01*
G75*
G02*
X0158278Y0295620I0000000J0000581D01*
G01*
X0158278Y0296781D01*
G75*
G02*
X0158859Y0297362I0000581J0000000D01*
G01*
X0160217Y0297362D01*
G75*
G02*
X0160798Y0296781I0000000J-000581D01*
G01*
X0160798Y0295620D01*
G75*
G02*
X0160217Y0295039I-000581J0000000D01*
G01*
G37*
G36*
G01*
X0155837Y0267303D02*
X0154479Y0267303D01*
G75*
G02*
X0153898Y0267884I0000000J0000581D01*
G01*
X0153898Y0269045D01*
G75*
G02*
X0154479Y0269626I0000581J0000000D01*
G01*
X0155837Y0269626D01*
G75*
G02*
X0156418Y0269045I0000000J-000581D01*
G01*
X0156418Y0267884D01*
G75*
G02*
X0155837Y0267303I-000581J0000000D01*
G01*
G37*
G36*
G01*
X0155837Y0271122D02*
X0154479Y0271122D01*
G75*
G02*
X0153898Y0271703I0000000J0000581D01*
G01*
X0153898Y0272864D01*
G75*
G02*
X0154479Y0273445I0000581J0000000D01*
G01*
X0155837Y0273445D01*
G75*
G02*
X0156418Y0272864I0000000J-000581D01*
G01*
X0156418Y0271703D01*
G75*
G02*
X0155837Y0271122I-000581J0000000D01*
G01*
G37*
G36*
G01*
X0159597Y0255039D02*
X0160955Y0255039D01*
G75*
G02*
X0161536Y0254458I0000000J-000581D01*
G01*
X0161536Y0253297D01*
G75*
G02*
X0160955Y0252716I-000581J0000000D01*
G01*
X0159597Y0252716D01*
G75*
G02*
X0159016Y0253297I0000000J0000581D01*
G01*
X0159016Y0254458D01*
G75*
G02*
X0159597Y0255039I0000581J0000000D01*
G01*
G37*
G36*
G01*
X0159597Y0251220D02*
X0160955Y0251220D01*
G75*
G02*
X0161536Y0250640I0000000J-000581D01*
G01*
X0161536Y0249478D01*
G75*
G02*
X0160955Y0248897I-000581J0000000D01*
G01*
X0159597Y0248897D01*
G75*
G02*
X0159016Y0249478I0000000J0000581D01*
G01*
X0159016Y0250640D01*
G75*
G02*
X0159597Y0251220I0000581J0000000D01*
G01*
G37*
G36*
G01*
X0154479Y0281811D02*
X0155837Y0281811D01*
G75*
G02*
X0156418Y0281230I0000000J-000581D01*
G01*
X0156418Y0280069D01*
G75*
G02*
X0155837Y0279488I-000581J0000000D01*
G01*
X0154479Y0279488D01*
G75*
G02*
X0153898Y0280069I0000000J0000581D01*
G01*
X0153898Y0281230D01*
G75*
G02*
X0154479Y0281811I0000581J0000000D01*
G01*
G37*
G36*
G01*
X0154479Y0277992D02*
X0155837Y0277992D01*
G75*
G02*
X0156418Y0277411I0000000J-000581D01*
G01*
X0156418Y0276250D01*
G75*
G02*
X0155837Y0275669I-000581J0000000D01*
G01*
X0154479Y0275669D01*
G75*
G02*
X0153898Y0276250I0000000J0000581D01*
G01*
X0153898Y0277411D01*
G75*
G02*
X0154479Y0277992I0000581J0000000D01*
G01*
G37*
G36*
G01*
X0194243Y0255039D02*
X0195601Y0255039D01*
G75*
G02*
X0196181Y0254458I0000000J-000581D01*
G01*
X0196181Y0253297D01*
G75*
G02*
X0195601Y0252716I-000581J0000000D01*
G01*
X0194243Y0252716D01*
G75*
G02*
X0193662Y0253297I0000000J0000581D01*
G01*
X0193662Y0254458D01*
G75*
G02*
X0194243Y0255039I0000581J0000000D01*
G01*
G37*
G36*
G01*
X0194243Y0251220D02*
X0195601Y0251220D01*
G75*
G02*
X0196181Y0250640I0000000J-000581D01*
G01*
X0196181Y0249478D01*
G75*
G02*
X0195601Y0248897I-000581J0000000D01*
G01*
X0194243Y0248897D01*
G75*
G02*
X0193662Y0249478I0000000J0000581D01*
G01*
X0193662Y0250640D01*
G75*
G02*
X0194243Y0251220I0000581J0000000D01*
G01*
G37*
D149*
X0129804Y0261712D03*
D150*
X0130906Y0290059D03*
X0138780Y0278248D03*
X0146654Y0290059D03*
D151*
X0138780Y0286516D03*
D149*
X0147756Y0261712D03*
G36*
G01*
X0205276Y0281486D02*
X0205276Y0280128D01*
G75*
G02*
X0204695Y0279547I-000581J0000000D01*
G01*
X0203534Y0279547D01*
G75*
G02*
X0202953Y0280128I0000000J0000581D01*
G01*
X0202953Y0281486D01*
G75*
G02*
X0203534Y0282067I0000581J0000000D01*
G01*
X0204695Y0282067D01*
G75*
G02*
X0205276Y0281486I0000000J-000581D01*
G01*
G37*
G36*
G01*
X0201457Y0281486D02*
X0201457Y0280128D01*
G75*
G02*
X0200876Y0279547I-000581J0000000D01*
G01*
X0199715Y0279547D01*
G75*
G02*
X0199134Y0280128I0000000J0000581D01*
G01*
X0199134Y0281486D01*
G75*
G02*
X0199715Y0282067I0000581J0000000D01*
G01*
X0200876Y0282067D01*
G75*
G02*
X0201457Y0281486I0000000J-000581D01*
G01*
G37*
G36*
G01*
X0166772Y0295152D02*
X0166772Y0297170D01*
G75*
G02*
X0167633Y0298031I0000861J0000000D01*
G01*
X0169356Y0298031D01*
G75*
G02*
X0170217Y0297170I0000000J-000861D01*
G01*
X0170217Y0295152D01*
G75*
G02*
X0169356Y0294291I-000861J0000000D01*
G01*
X0167633Y0294291D01*
G75*
G02*
X0166772Y0295152I0000000J0000861D01*
G01*
G37*
G36*
G01*
X0172973Y0295152D02*
X0172973Y0297170D01*
G75*
G02*
X0173834Y0298031I0000861J0000000D01*
G01*
X0175556Y0298031D01*
G75*
G02*
X0176418Y0297170I0000000J-000861D01*
G01*
X0176418Y0295152D01*
G75*
G02*
X0175556Y0294291I-000861J0000000D01*
G01*
X0173834Y0294291D01*
G75*
G02*
X0172973Y0295152I0000000J0000861D01*
G01*
G37*
G36*
G01*
X0164400Y0291220D02*
X0163042Y0291220D01*
G75*
G02*
X0162461Y0291801I0000000J0000581D01*
G01*
X0162461Y0292962D01*
G75*
G02*
X0163042Y0293543I0000581J0000000D01*
G01*
X0164400Y0293543D01*
G75*
G02*
X0164981Y0292962I0000000J-000581D01*
G01*
X0164981Y0291801D01*
G75*
G02*
X0164400Y0291220I-000581J0000000D01*
G01*
G37*
G36*
G01*
X0164400Y0295039D02*
X0163042Y0295039D01*
G75*
G02*
X0162461Y0295620I0000000J0000581D01*
G01*
X0162461Y0296781D01*
G75*
G02*
X0163042Y0297362I0000581J0000000D01*
G01*
X0164400Y0297362D01*
G75*
G02*
X0164981Y0296781I0000000J-000581D01*
G01*
X0164981Y0295620D01*
G75*
G02*
X0164400Y0295039I-000581J0000000D01*
G01*
G37*
G36*
G01*
X0120291Y0295767D02*
X0122308Y0295767D01*
G75*
G02*
X0123170Y0294906I0000000J-000861D01*
G01*
X0123170Y0293184D01*
G75*
G02*
X0122308Y0292323I-000861J0000000D01*
G01*
X0120291Y0292323D01*
G75*
G02*
X0119430Y0293184I0000000J0000861D01*
G01*
X0119430Y0294906D01*
G75*
G02*
X0120291Y0295767I0000861J0000000D01*
G01*
G37*
G36*
G01*
X0120291Y0289567D02*
X0122308Y0289567D01*
G75*
G02*
X0123170Y0288705I0000000J-000861D01*
G01*
X0123170Y0286983D01*
G75*
G02*
X0122308Y0286122I-000861J0000000D01*
G01*
X0120291Y0286122D01*
G75*
G02*
X0119430Y0286983I0000000J0000861D01*
G01*
X0119430Y0288705D01*
G75*
G02*
X0120291Y0289567I0000861J0000000D01*
G01*
G37*
G36*
G01*
X0188130Y0297170D02*
X0188130Y0295152D01*
G75*
G02*
X0187269Y0294291I-000861J0000000D01*
G01*
X0185547Y0294291D01*
G75*
G02*
X0184685Y0295152I0000000J0000861D01*
G01*
X0184685Y0297170D01*
G75*
G02*
X0185547Y0298031I0000861J0000000D01*
G01*
X0187269Y0298031D01*
G75*
G02*
X0188130Y0297170I0000000J-000861D01*
G01*
G37*
G36*
G01*
X0181930Y0297170D02*
X0181930Y0295152D01*
G75*
G02*
X0181068Y0294291I-000861J0000000D01*
G01*
X0179346Y0294291D01*
G75*
G02*
X0178485Y0295152I0000000J0000861D01*
G01*
X0178485Y0297170D01*
G75*
G02*
X0179346Y0298031I0000861J0000000D01*
G01*
X0181068Y0298031D01*
G75*
G02*
X0181930Y0297170I0000000J-000861D01*
G01*
G37*
G36*
G01*
X0192451Y0292992D02*
X0191093Y0292992D01*
G75*
G02*
X0190512Y0293573I0000000J0000581D01*
G01*
X0190512Y0294734D01*
G75*
G02*
X0191093Y0295315I0000581J0000000D01*
G01*
X0192451Y0295315D01*
G75*
G02*
X0193032Y0294734I0000000J-000581D01*
G01*
X0193032Y0293573D01*
G75*
G02*
X0192451Y0292992I-000581J0000000D01*
G01*
G37*
G36*
G01*
X0192451Y0296811D02*
X0191093Y0296811D01*
G75*
G02*
X0190512Y0297392I0000000J0000581D01*
G01*
X0190512Y0298553D01*
G75*
G02*
X0191093Y0299134I0000581J0000000D01*
G01*
X0192451Y0299134D01*
G75*
G02*
X0193032Y0298553I0000000J-000581D01*
G01*
X0193032Y0297392D01*
G75*
G02*
X0192451Y0296811I-000581J0000000D01*
G01*
G37*
G36*
G01*
X0158012Y0280315D02*
X0158012Y0281299D01*
G75*
G02*
X0158504Y0281791I0000492J0000000D01*
G01*
X0163426Y0281791D01*
G75*
G02*
X0163918Y0281299I0000000J-000492D01*
G01*
X0163918Y0280315D01*
G75*
G02*
X0163426Y0279823I-000492J0000000D01*
G01*
X0158504Y0279823D01*
G75*
G02*
X0158012Y0280315I0000000J0000492D01*
G01*
G37*
G36*
G01*
X0158012Y0277165D02*
X0158012Y0278149D01*
G75*
G02*
X0158504Y0278642I0000492J0000000D01*
G01*
X0163426Y0278642D01*
G75*
G02*
X0163918Y0278149I0000000J-000492D01*
G01*
X0163918Y0277165D01*
G75*
G02*
X0163426Y0276673I-000492J0000000D01*
G01*
X0158504Y0276673D01*
G75*
G02*
X0158012Y0277165I0000000J0000492D01*
G01*
G37*
G36*
G01*
X0158012Y0274016D02*
X0158012Y0275000D01*
G75*
G02*
X0158504Y0275492I0000492J0000000D01*
G01*
X0163426Y0275492D01*
G75*
G02*
X0163918Y0275000I0000000J-000492D01*
G01*
X0163918Y0274016D01*
G75*
G02*
X0163426Y0273523I-000492J0000000D01*
G01*
X0158504Y0273523D01*
G75*
G02*
X0158012Y0274016I0000000J0000492D01*
G01*
G37*
G36*
G01*
X0158012Y0270866D02*
X0158012Y0271850D01*
G75*
G02*
X0158504Y0272342I0000492J0000000D01*
G01*
X0163426Y0272342D01*
G75*
G02*
X0163918Y0271850I0000000J-000492D01*
G01*
X0163918Y0270866D01*
G75*
G02*
X0163426Y0270374I-000492J0000000D01*
G01*
X0158504Y0270374D01*
G75*
G02*
X0158012Y0270866I0000000J0000492D01*
G01*
G37*
G36*
G01*
X0158012Y0267716D02*
X0158012Y0268701D01*
G75*
G02*
X0158504Y0269193I0000492J0000000D01*
G01*
X0163426Y0269193D01*
G75*
G02*
X0163918Y0268701I0000000J-000492D01*
G01*
X0163918Y0267716D01*
G75*
G02*
X0163426Y0267224I-000492J0000000D01*
G01*
X0158504Y0267224D01*
G75*
G02*
X0158012Y0267716I0000000J0000492D01*
G01*
G37*
G36*
G01*
X0158012Y0264567D02*
X0158012Y0265551D01*
G75*
G02*
X0158504Y0266043I0000492J0000000D01*
G01*
X0163426Y0266043D01*
G75*
G02*
X0163918Y0265551I0000000J-000492D01*
G01*
X0163918Y0264567D01*
G75*
G02*
X0163426Y0264075I-000492J0000000D01*
G01*
X0158504Y0264075D01*
G75*
G02*
X0158012Y0264567I0000000J0000492D01*
G01*
G37*
G36*
G01*
X0158012Y0261417D02*
X0158012Y0262401D01*
G75*
G02*
X0158504Y0262893I0000492J0000000D01*
G01*
X0163426Y0262893D01*
G75*
G02*
X0163918Y0262401I0000000J-000492D01*
G01*
X0163918Y0261417D01*
G75*
G02*
X0163426Y0260925I-000492J0000000D01*
G01*
X0158504Y0260925D01*
G75*
G02*
X0158012Y0261417I0000000J0000492D01*
G01*
G37*
G36*
G01*
X0158012Y0258267D02*
X0158012Y0259252D01*
G75*
G02*
X0158504Y0259744I0000492J0000000D01*
G01*
X0163426Y0259744D01*
G75*
G02*
X0163918Y0259252I0000000J-000492D01*
G01*
X0163918Y0258267D01*
G75*
G02*
X0163426Y0257775I-000492J0000000D01*
G01*
X0158504Y0257775D01*
G75*
G02*
X0158012Y0258267I0000000J0000492D01*
G01*
G37*
G36*
G01*
X0165394Y0250886D02*
X0165394Y0255807D01*
G75*
G02*
X0165886Y0256299I0000492J0000000D01*
G01*
X0166870Y0256299D01*
G75*
G02*
X0167363Y0255807I0000000J-000492D01*
G01*
X0167363Y0250886D01*
G75*
G02*
X0166870Y0250393I-000492J0000000D01*
G01*
X0165886Y0250393D01*
G75*
G02*
X0165394Y0250886I0000000J0000492D01*
G01*
G37*
G36*
G01*
X0168544Y0250886D02*
X0168544Y0255807D01*
G75*
G02*
X0169036Y0256299I0000492J0000000D01*
G01*
X0170020Y0256299D01*
G75*
G02*
X0170512Y0255807I0000000J-000492D01*
G01*
X0170512Y0250886D01*
G75*
G02*
X0170020Y0250393I-000492J0000000D01*
G01*
X0169036Y0250393D01*
G75*
G02*
X0168544Y0250886I0000000J0000492D01*
G01*
G37*
G36*
G01*
X0171693Y0250886D02*
X0171693Y0255807D01*
G75*
G02*
X0172185Y0256299I0000492J0000000D01*
G01*
X0173170Y0256299D01*
G75*
G02*
X0173662Y0255807I0000000J-000492D01*
G01*
X0173662Y0250886D01*
G75*
G02*
X0173170Y0250393I-000492J0000000D01*
G01*
X0172185Y0250393D01*
G75*
G02*
X0171693Y0250886I0000000J0000492D01*
G01*
G37*
G36*
G01*
X0174843Y0250886D02*
X0174843Y0255807D01*
G75*
G02*
X0175335Y0256299I0000492J0000000D01*
G01*
X0176319Y0256299D01*
G75*
G02*
X0176811Y0255807I0000000J-000492D01*
G01*
X0176811Y0250886D01*
G75*
G02*
X0176319Y0250393I-000492J0000000D01*
G01*
X0175335Y0250393D01*
G75*
G02*
X0174843Y0250886I0000000J0000492D01*
G01*
G37*
G36*
G01*
X0177993Y0250886D02*
X0177993Y0255807D01*
G75*
G02*
X0178485Y0256299I0000492J0000000D01*
G01*
X0179469Y0256299D01*
G75*
G02*
X0179961Y0255807I0000000J-000492D01*
G01*
X0179961Y0250886D01*
G75*
G02*
X0179469Y0250393I-000492J0000000D01*
G01*
X0178485Y0250393D01*
G75*
G02*
X0177993Y0250886I0000000J0000492D01*
G01*
G37*
G36*
G01*
X0181142Y0250886D02*
X0181142Y0255807D01*
G75*
G02*
X0181634Y0256299I0000492J0000000D01*
G01*
X0182618Y0256299D01*
G75*
G02*
X0183111Y0255807I0000000J-000492D01*
G01*
X0183111Y0250886D01*
G75*
G02*
X0182618Y0250393I-000492J0000000D01*
G01*
X0181634Y0250393D01*
G75*
G02*
X0181142Y0250886I0000000J0000492D01*
G01*
G37*
G36*
G01*
X0184292Y0250886D02*
X0184292Y0255807D01*
G75*
G02*
X0184784Y0256299I0000492J0000000D01*
G01*
X0185768Y0256299D01*
G75*
G02*
X0186260Y0255807I0000000J-000492D01*
G01*
X0186260Y0250886D01*
G75*
G02*
X0185768Y0250393I-000492J0000000D01*
G01*
X0184784Y0250393D01*
G75*
G02*
X0184292Y0250886I0000000J0000492D01*
G01*
G37*
G36*
G01*
X0187441Y0250886D02*
X0187441Y0255807D01*
G75*
G02*
X0187933Y0256299I0000492J0000000D01*
G01*
X0188918Y0256299D01*
G75*
G02*
X0189410Y0255807I0000000J-000492D01*
G01*
X0189410Y0250886D01*
G75*
G02*
X0188918Y0250393I-000492J0000000D01*
G01*
X0187933Y0250393D01*
G75*
G02*
X0187441Y0250886I0000000J0000492D01*
G01*
G37*
G36*
G01*
X0190886Y0258267D02*
X0190886Y0259252D01*
G75*
G02*
X0191378Y0259744I0000492J0000000D01*
G01*
X0196300Y0259744D01*
G75*
G02*
X0196792Y0259252I0000000J-000492D01*
G01*
X0196792Y0258267D01*
G75*
G02*
X0196300Y0257775I-000492J0000000D01*
G01*
X0191378Y0257775D01*
G75*
G02*
X0190886Y0258267I0000000J0000492D01*
G01*
G37*
G36*
G01*
X0190886Y0261417D02*
X0190886Y0262401D01*
G75*
G02*
X0191378Y0262893I0000492J0000000D01*
G01*
X0196300Y0262893D01*
G75*
G02*
X0196792Y0262401I0000000J-000492D01*
G01*
X0196792Y0261417D01*
G75*
G02*
X0196300Y0260925I-000492J0000000D01*
G01*
X0191378Y0260925D01*
G75*
G02*
X0190886Y0261417I0000000J0000492D01*
G01*
G37*
G36*
G01*
X0190886Y0264567D02*
X0190886Y0265551D01*
G75*
G02*
X0191378Y0266043I0000492J0000000D01*
G01*
X0196300Y0266043D01*
G75*
G02*
X0196792Y0265551I0000000J-000492D01*
G01*
X0196792Y0264567D01*
G75*
G02*
X0196300Y0264075I-000492J0000000D01*
G01*
X0191378Y0264075D01*
G75*
G02*
X0190886Y0264567I0000000J0000492D01*
G01*
G37*
G36*
G01*
X0190886Y0267716D02*
X0190886Y0268701D01*
G75*
G02*
X0191378Y0269193I0000492J0000000D01*
G01*
X0196300Y0269193D01*
G75*
G02*
X0196792Y0268701I0000000J-000492D01*
G01*
X0196792Y0267716D01*
G75*
G02*
X0196300Y0267224I-000492J0000000D01*
G01*
X0191378Y0267224D01*
G75*
G02*
X0190886Y0267716I0000000J0000492D01*
G01*
G37*
G36*
G01*
X0190886Y0270866D02*
X0190886Y0271850D01*
G75*
G02*
X0191378Y0272342I0000492J0000000D01*
G01*
X0196300Y0272342D01*
G75*
G02*
X0196792Y0271850I0000000J-000492D01*
G01*
X0196792Y0270866D01*
G75*
G02*
X0196300Y0270374I-000492J0000000D01*
G01*
X0191378Y0270374D01*
G75*
G02*
X0190886Y0270866I0000000J0000492D01*
G01*
G37*
G36*
G01*
X0190886Y0274016D02*
X0190886Y0275000D01*
G75*
G02*
X0191378Y0275492I0000492J0000000D01*
G01*
X0196300Y0275492D01*
G75*
G02*
X0196792Y0275000I0000000J-000492D01*
G01*
X0196792Y0274016D01*
G75*
G02*
X0196300Y0273523I-000492J0000000D01*
G01*
X0191378Y0273523D01*
G75*
G02*
X0190886Y0274016I0000000J0000492D01*
G01*
G37*
G36*
G01*
X0190886Y0277165D02*
X0190886Y0278149D01*
G75*
G02*
X0191378Y0278642I0000492J0000000D01*
G01*
X0196300Y0278642D01*
G75*
G02*
X0196792Y0278149I0000000J-000492D01*
G01*
X0196792Y0277165D01*
G75*
G02*
X0196300Y0276673I-000492J0000000D01*
G01*
X0191378Y0276673D01*
G75*
G02*
X0190886Y0277165I0000000J0000492D01*
G01*
G37*
G36*
G01*
X0190886Y0280315D02*
X0190886Y0281299D01*
G75*
G02*
X0191378Y0281791I0000492J0000000D01*
G01*
X0196300Y0281791D01*
G75*
G02*
X0196792Y0281299I0000000J-000492D01*
G01*
X0196792Y0280315D01*
G75*
G02*
X0196300Y0279823I-000492J0000000D01*
G01*
X0191378Y0279823D01*
G75*
G02*
X0190886Y0280315I0000000J0000492D01*
G01*
G37*
G36*
G01*
X0187441Y0283760D02*
X0187441Y0288681D01*
G75*
G02*
X0187933Y0289173I0000492J0000000D01*
G01*
X0188918Y0289173D01*
G75*
G02*
X0189410Y0288681I0000000J-000492D01*
G01*
X0189410Y0283760D01*
G75*
G02*
X0188918Y0283267I-000492J0000000D01*
G01*
X0187933Y0283267D01*
G75*
G02*
X0187441Y0283760I0000000J0000492D01*
G01*
G37*
G36*
G01*
X0184292Y0283760D02*
X0184292Y0288681D01*
G75*
G02*
X0184784Y0289173I0000492J0000000D01*
G01*
X0185768Y0289173D01*
G75*
G02*
X0186260Y0288681I0000000J-000492D01*
G01*
X0186260Y0283760D01*
G75*
G02*
X0185768Y0283267I-000492J0000000D01*
G01*
X0184784Y0283267D01*
G75*
G02*
X0184292Y0283760I0000000J0000492D01*
G01*
G37*
G36*
G01*
X0181142Y0283760D02*
X0181142Y0288681D01*
G75*
G02*
X0181634Y0289173I0000492J0000000D01*
G01*
X0182618Y0289173D01*
G75*
G02*
X0183111Y0288681I0000000J-000492D01*
G01*
X0183111Y0283760D01*
G75*
G02*
X0182618Y0283267I-000492J0000000D01*
G01*
X0181634Y0283267D01*
G75*
G02*
X0181142Y0283760I0000000J0000492D01*
G01*
G37*
G36*
G01*
X0177993Y0283760D02*
X0177993Y0288681D01*
G75*
G02*
X0178485Y0289173I0000492J0000000D01*
G01*
X0179469Y0289173D01*
G75*
G02*
X0179961Y0288681I0000000J-000492D01*
G01*
X0179961Y0283760D01*
G75*
G02*
X0179469Y0283267I-000492J0000000D01*
G01*
X0178485Y0283267D01*
G75*
G02*
X0177993Y0283760I0000000J0000492D01*
G01*
G37*
G36*
G01*
X0174843Y0283760D02*
X0174843Y0288681D01*
G75*
G02*
X0175335Y0289173I0000492J0000000D01*
G01*
X0176319Y0289173D01*
G75*
G02*
X0176811Y0288681I0000000J-000492D01*
G01*
X0176811Y0283760D01*
G75*
G02*
X0176319Y0283267I-000492J0000000D01*
G01*
X0175335Y0283267D01*
G75*
G02*
X0174843Y0283760I0000000J0000492D01*
G01*
G37*
G36*
G01*
X0171693Y0283760D02*
X0171693Y0288681D01*
G75*
G02*
X0172185Y0289173I0000492J0000000D01*
G01*
X0173170Y0289173D01*
G75*
G02*
X0173662Y0288681I0000000J-000492D01*
G01*
X0173662Y0283760D01*
G75*
G02*
X0173170Y0283267I-000492J0000000D01*
G01*
X0172185Y0283267D01*
G75*
G02*
X0171693Y0283760I0000000J0000492D01*
G01*
G37*
G36*
G01*
X0168544Y0283760D02*
X0168544Y0288681D01*
G75*
G02*
X0169036Y0289173I0000492J0000000D01*
G01*
X0170020Y0289173D01*
G75*
G02*
X0170512Y0288681I0000000J-000492D01*
G01*
X0170512Y0283760D01*
G75*
G02*
X0170020Y0283267I-000492J0000000D01*
G01*
X0169036Y0283267D01*
G75*
G02*
X0168544Y0283760I0000000J0000492D01*
G01*
G37*
G36*
G01*
X0165394Y0283760D02*
X0165394Y0288681D01*
G75*
G02*
X0165886Y0289173I0000492J0000000D01*
G01*
X0166870Y0289173D01*
G75*
G02*
X0167363Y0288681I0000000J-000492D01*
G01*
X0167363Y0283760D01*
G75*
G02*
X0166870Y0283267I-000492J0000000D01*
G01*
X0165886Y0283267D01*
G75*
G02*
X0165394Y0283760I0000000J0000492D01*
G01*
G37*
G36*
G01*
X0200020Y0262214D02*
X0200020Y0263573D01*
G75*
G02*
X0200601Y0264153I0000581J0000000D01*
G01*
X0201762Y0264153D01*
G75*
G02*
X0202343Y0263573I0000000J-000581D01*
G01*
X0202343Y0262214D01*
G75*
G02*
X0201762Y0261634I-000581J0000000D01*
G01*
X0200601Y0261634D01*
G75*
G02*
X0200020Y0262214I0000000J0000581D01*
G01*
G37*
G36*
G01*
X0203839Y0262214D02*
X0203839Y0263573D01*
G75*
G02*
X0204420Y0264153I0000581J0000000D01*
G01*
X0205581Y0264153D01*
G75*
G02*
X0206162Y0263573I0000000J-000581D01*
G01*
X0206162Y0262214D01*
G75*
G02*
X0205581Y0261634I-000581J0000000D01*
G01*
X0204420Y0261634D01*
G75*
G02*
X0203839Y0262214I0000000J0000581D01*
G01*
G37*
G36*
G01*
X0192943Y0285610D02*
X0191585Y0285610D01*
G75*
G02*
X0191004Y0286191I0000000J0000581D01*
G01*
X0191004Y0287352D01*
G75*
G02*
X0191585Y0287933I0000581J0000000D01*
G01*
X0192943Y0287933D01*
G75*
G02*
X0193524Y0287352I0000000J-000581D01*
G01*
X0193524Y0286191D01*
G75*
G02*
X0192943Y0285610I-000581J0000000D01*
G01*
G37*
G36*
G01*
X0192943Y0289429D02*
X0191585Y0289429D01*
G75*
G02*
X0191004Y0290010I0000000J0000581D01*
G01*
X0191004Y0291171D01*
G75*
G02*
X0191585Y0291752I0000581J0000000D01*
G01*
X0192943Y0291752D01*
G75*
G02*
X0193524Y0291171I0000000J-000581D01*
G01*
X0193524Y0290010D01*
G75*
G02*
X0192943Y0289429I-000581J0000000D01*
G01*
G37*
G36*
G01*
X0216587Y0263573D02*
X0216587Y0262214D01*
G75*
G02*
X0216006Y0261634I-000581J0000000D01*
G01*
X0214845Y0261634D01*
G75*
G02*
X0214264Y0262214I0000000J0000581D01*
G01*
X0214264Y0263573D01*
G75*
G02*
X0214845Y0264153I0000581J0000000D01*
G01*
X0216006Y0264153D01*
G75*
G02*
X0216587Y0263573I0000000J-000581D01*
G01*
G37*
G36*
G01*
X0212768Y0263573D02*
X0212768Y0262214D01*
G75*
G02*
X0212187Y0261634I-000581J0000000D01*
G01*
X0211026Y0261634D01*
G75*
G02*
X0210445Y0262214I0000000J0000581D01*
G01*
X0210445Y0263573D01*
G75*
G02*
X0211026Y0264153I0000581J0000000D01*
G01*
X0212187Y0264153D01*
G75*
G02*
X0212768Y0263573I0000000J-000581D01*
G01*
G37*
D152*
X0215099Y0257972D03*
X0207618Y0257972D03*
X0211359Y0250098D03*
G36*
G01*
X0156034Y0283740D02*
X0154676Y0283740D01*
G75*
G02*
X0154095Y0284321I0000000J0000581D01*
G01*
X0154095Y0285482D01*
G75*
G02*
X0154676Y0286063I0000581J0000000D01*
G01*
X0156034Y0286063D01*
G75*
G02*
X0156615Y0285482I0000000J-000581D01*
G01*
X0156615Y0284321D01*
G75*
G02*
X0156034Y0283740I-000581J0000000D01*
G01*
G37*
G36*
G01*
X0156034Y0287559D02*
X0154676Y0287559D01*
G75*
G02*
X0154095Y0288140I0000000J0000581D01*
G01*
X0154095Y0289301D01*
G75*
G02*
X0154676Y0289882I0000581J0000000D01*
G01*
X0156034Y0289882D01*
G75*
G02*
X0156615Y0289301I0000000J-000581D01*
G01*
X0156615Y0288140D01*
G75*
G02*
X0156034Y0287559I-000581J0000000D01*
G01*
G37*
G36*
G01*
X0202161Y0248701D02*
X0200143Y0248701D01*
G75*
G02*
X0199282Y0249562I0000000J0000861D01*
G01*
X0199282Y0251284D01*
G75*
G02*
X0200143Y0252145I0000861J0000000D01*
G01*
X0202161Y0252145D01*
G75*
G02*
X0203022Y0251284I0000000J-000861D01*
G01*
X0203022Y0249562D01*
G75*
G02*
X0202161Y0248701I-000861J0000000D01*
G01*
G37*
G36*
G01*
X0202161Y0254901D02*
X0200143Y0254901D01*
G75*
G02*
X0199282Y0255763I0000000J0000861D01*
G01*
X0199282Y0257485D01*
G75*
G02*
X0200143Y0258346I0000861J0000000D01*
G01*
X0202161Y0258346D01*
G75*
G02*
X0203022Y0257485I0000000J-000861D01*
G01*
X0203022Y0255763D01*
G75*
G02*
X0202161Y0254901I-000861J0000000D01*
G01*
G37*
D156*
X0217914Y0290846D03*
X0197914Y0294846D03*
X0197914Y0286846D03*
D153*
X0212914Y0293346D03*
X0212914Y0288346D03*
X0207914Y0293346D03*
X0207914Y0288346D03*
X0202914Y0293346D03*
X0202914Y0288346D03*
D154*
X0128426Y0251968D03*
D155*
X0138426Y0251968D03*
X0148426Y0251968D03*
X0323169Y0223169D02*
G01*
G75*
D387*
X0199547Y0205079D02*
D03*
X0192460Y0205079D02*
D03*
X0192460Y0215118D02*
D03*
X0199547Y0215118D02*
D03*
X0311358Y0156338D02*
D03*
X0318445Y0156338D02*
D03*
X0318445Y0166378D02*
D03*
X0311358Y0166378D02*
D03*
X0311358Y0150236D02*
D03*
X0318445Y0150236D02*
D03*
X0318445Y0140196D02*
D03*
X0311358Y0140196D02*
D03*
D388*
X0199547Y0208523D02*
D03*
X0199547Y0211673D02*
D03*
X0192460Y0211673D02*
D03*
X0192460Y0208523D02*
D03*
X0318445Y0162933D02*
D03*
X0318445Y0159783D02*
D03*
X0311358Y0159783D02*
D03*
X0311358Y0162933D02*
D03*
X0311358Y0146791D02*
D03*
X0311358Y0143641D02*
D03*
X0318445Y0143641D02*
D03*
X0318445Y0146791D02*
D03*
D389*
X0203759Y0208075D02*
D03*
X0203759Y0205516D02*
D03*
X0203759Y0202956D02*
D03*
X0211239Y0208075D02*
D03*
X0211239Y0202956D02*
D03*
X0211239Y0205516D02*
D03*
X0211239Y0212700D02*
D03*
X0211239Y0217819D02*
D03*
X0203759Y0212700D02*
D03*
X0203759Y0215260D02*
D03*
X0203759Y0217819D02*
D03*
X0211239Y0215260D02*
D03*
D188*
X0270967Y0108799D02*
D03*
X0270967Y0110767D02*
D03*
X0270967Y0112736D02*
D03*
X0270967Y0114704D02*
D03*
X0270967Y0116673D02*
D03*
X0270967Y0118641D02*
D03*
X0270967Y0120610D02*
D03*
X0270967Y0122578D02*
D03*
X0270967Y0124547D02*
D03*
X0270967Y0128484D02*
D03*
X0270967Y0130453D02*
D03*
X0270967Y0132421D02*
D03*
X0270967Y0134390D02*
D03*
X0270967Y0136358D02*
D03*
X0270967Y0138327D02*
D03*
X0270967Y0140295D02*
D03*
X0270967Y0142264D02*
D03*
X0270967Y0144232D02*
D03*
X0270967Y0146201D02*
D03*
X0270967Y0148169D02*
D03*
X0270967Y0150137D02*
D03*
X0270967Y0152106D02*
D03*
X0270967Y0154074D02*
D03*
X0270967Y0156043D02*
D03*
X0209943Y0156043D02*
D03*
X0209943Y0154074D02*
D03*
X0209943Y0152106D02*
D03*
X0209943Y0150137D02*
D03*
X0209943Y0148169D02*
D03*
X0209943Y0146201D02*
D03*
X0209943Y0144232D02*
D03*
X0209943Y0142264D02*
D03*
X0209943Y0140295D02*
D03*
X0209943Y0138327D02*
D03*
X0209943Y0136358D02*
D03*
X0209943Y0134390D02*
D03*
X0209943Y0132421D02*
D03*
X0209943Y0130453D02*
D03*
X0209943Y0128484D02*
D03*
X0209943Y0126516D02*
D03*
X0209943Y0124547D02*
D03*
X0209943Y0122578D02*
D03*
X0209943Y0120610D02*
D03*
X0209943Y0118641D02*
D03*
X0209943Y0116673D02*
D03*
X0209943Y0114704D02*
D03*
X0209943Y0112736D02*
D03*
X0209943Y0108799D02*
D03*
X0270967Y0126516D02*
D03*
X0209943Y0110767D02*
D03*
D189*
X0264077Y0162933D02*
D03*
X0260140Y0162933D02*
D03*
X0258171Y0162933D02*
D03*
X0256203Y0162933D02*
D03*
X0254234Y0162933D02*
D03*
X0252266Y0162933D02*
D03*
X0250297Y0162933D02*
D03*
X0248329Y0162933D02*
D03*
X0246360Y0162933D02*
D03*
X0244392Y0162933D02*
D03*
X0242423Y0162933D02*
D03*
X0240455Y0162933D02*
D03*
X0238486Y0162933D02*
D03*
X0236518Y0162933D02*
D03*
X0234549Y0162933D02*
D03*
X0232581Y0162933D02*
D03*
X0230612Y0162933D02*
D03*
X0228644Y0162933D02*
D03*
X0226675Y0162933D02*
D03*
X0224707Y0162933D02*
D03*
X0222738Y0162933D02*
D03*
X0220770Y0162933D02*
D03*
X0218801Y0162933D02*
D03*
X0216833Y0162933D02*
D03*
X0216833Y0101909D02*
D03*
X0218801Y0101909D02*
D03*
X0220770Y0101909D02*
D03*
X0222738Y0101909D02*
D03*
X0224707Y0101909D02*
D03*
X0226675Y0101909D02*
D03*
X0228644Y0101909D02*
D03*
X0230612Y0101909D02*
D03*
X0232581Y0101909D02*
D03*
X0234549Y0101909D02*
D03*
X0236518Y0101909D02*
D03*
X0238486Y0101909D02*
D03*
X0240455Y0101909D02*
D03*
X0242423Y0101909D02*
D03*
X0244392Y0101909D02*
D03*
X0246360Y0101909D02*
D03*
X0248329Y0101909D02*
D03*
X0250297Y0101909D02*
D03*
X0252266Y0101909D02*
D03*
X0254234Y0101909D02*
D03*
X0256203Y0101909D02*
D03*
X0258171Y0101909D02*
D03*
X0260140Y0101909D02*
D03*
X0262108Y0101909D02*
D03*
X0264077Y0101909D02*
D03*
X0262108Y0162933D02*
D03*
D190*
X0267460Y0179862D02*
D03*
X0239508Y0179862D02*
D03*
X0295413Y0179862D02*
D03*
X0289901Y0184980D02*
D03*
X0261948Y0174744D02*
D03*
X0261948Y0177303D02*
D03*
X0261948Y0179862D02*
D03*
X0261948Y0182421D02*
D03*
X0261948Y0184980D02*
D03*
X0261948Y0187539D02*
D03*
X0261948Y0190098D02*
D03*
X0239508Y0174744D02*
D03*
X0239508Y0177303D02*
D03*
X0239508Y0182421D02*
D03*
X0239508Y0184980D02*
D03*
X0239508Y0187539D02*
D03*
X0239508Y0190098D02*
D03*
X0317854Y0174744D02*
D03*
X0317854Y0177303D02*
D03*
X0317854Y0179862D02*
D03*
X0317854Y0182421D02*
D03*
X0317854Y0184980D02*
D03*
X0317854Y0187539D02*
D03*
X0317854Y0190098D02*
D03*
X0295413Y0174744D02*
D03*
X0295413Y0177303D02*
D03*
X0295413Y0182421D02*
D03*
X0295413Y0184980D02*
D03*
X0295413Y0187539D02*
D03*
X0295413Y0190098D02*
D03*
X0289901Y0174744D02*
D03*
X0289901Y0177303D02*
D03*
X0289901Y0179862D02*
D03*
X0289901Y0182421D02*
D03*
X0289901Y0187539D02*
D03*
X0289901Y0190098D02*
D03*
X0267460Y0174744D02*
D03*
X0267460Y0177303D02*
D03*
X0267460Y0182421D02*
D03*
X0267460Y0184980D02*
D03*
X0267460Y0187539D02*
D03*
X0267460Y0190098D02*
D03*
X0211555Y0190098D02*
D03*
X0211555Y0187539D02*
D03*
X0211555Y0184980D02*
D03*
X0211555Y0182421D02*
D03*
X0211555Y0179862D02*
D03*
X0211555Y0177303D02*
D03*
X0211555Y0174744D02*
D03*
X0233996Y0190098D02*
D03*
X0233996Y0187539D02*
D03*
X0233996Y0184980D02*
D03*
X0233996Y0182421D02*
D03*
X0233996Y0179862D02*
D03*
X0233996Y0177303D02*
D03*
X0233996Y0174744D02*
D03*
D191*
X0213051Y0088976D02*
D03*
X0213051Y0093976D02*
D03*
X0218051Y0088976D02*
D03*
X0218051Y0093976D02*
D03*
X0223051Y0088976D02*
D03*
X0223051Y0093976D02*
D03*
D390*
X0198760Y0087736D02*
D03*
X0195019Y0087736D02*
D03*
X0202500Y0087736D02*
D03*
X0202500Y0097185D02*
D03*
X0198760Y0097185D02*
D03*
X0195019Y0097185D02*
D03*
D391*
X0197310Y0108996D02*
D03*
X0197310Y0104271D02*
D03*
X0198779Y0118543D02*
D03*
X0285319Y0091758D02*
D03*
X0272007Y0167624D02*
D03*
X0201246Y0108996D02*
D03*
X0194841Y0118543D02*
D03*
X0200141Y0155527D02*
D03*
X0196204Y0155527D02*
D03*
X0200141Y0164582D02*
D03*
X0196204Y0164582D02*
D03*
X0201246Y0104271D02*
D03*
X0281382Y0091758D02*
D03*
X0288459Y0108473D02*
D03*
X0284522Y0108473D02*
D03*
X0268070Y0167624D02*
D03*
X0268051Y0163328D02*
D03*
X0271988Y0163328D02*
D03*
D194*
X0194853Y0127178D02*
D03*
X0194853Y0129146D02*
D03*
X0201152Y0125209D02*
D03*
X0201152Y0127178D02*
D03*
X0201152Y0123241D02*
D03*
X0201152Y0129146D02*
D03*
X0194853Y0123241D02*
D03*
X0194853Y0125209D02*
D03*
D195*
X0197018Y0129343D02*
D03*
X0198987Y0129343D02*
D03*
X0198987Y0123044D02*
D03*
X0197018Y0123044D02*
D03*
D392*
X0199758Y0134193D02*
D03*
X0199758Y0150728D02*
D03*
D393*
X0228287Y0206634D02*
D03*
X0218838Y0206634D02*
D03*
X0223563Y0206634D02*
D03*
X0233011Y0206634D02*
D03*
X0218838Y0218051D02*
D03*
X0228287Y0218051D02*
D03*
X0223563Y0218051D02*
D03*
X0233011Y0218051D02*
D03*
X0239221Y0199654D02*
D03*
X0239221Y0195717D02*
D03*
X0233011Y0214114D02*
D03*
D03*
X0233011Y0210177D02*
D03*
X0228287Y0214114D02*
D03*
X0228287Y0210177D02*
D03*
X0233011Y0202697D02*
D03*
X0223563Y0214114D02*
D03*
X0223563Y0210177D02*
D03*
X0228287Y0202697D02*
D03*
X0223563Y0202697D02*
D03*
X0218838Y0214114D02*
D03*
X0218838Y0210177D02*
D03*
X0218838Y0214114D02*
D03*
X0218838Y0202697D02*
D03*
X0228287Y0214114D02*
D03*
X0223563Y0214114D02*
D03*
X0319035Y0211752D02*
D03*
X0319035Y0215689D02*
D03*
X0294429Y0214114D02*
D03*
X0294429Y0218051D02*
D03*
X0280256Y0214114D02*
D03*
X0280256Y0218051D02*
D03*
X0261358Y0210177D02*
D03*
X0261358Y0214114D02*
D03*
X0261358Y0218051D02*
D03*
X0261358Y0214114D02*
D03*
X0247185Y0210177D02*
D03*
X0247185Y0214114D02*
D03*
X0319035Y0195019D02*
D03*
X0319035Y0198956D02*
D03*
X0313326Y0214114D02*
D03*
X0313326Y0210177D02*
D03*
X0308602Y0214114D02*
D03*
X0308602Y0210177D02*
D03*
X0303878Y0214114D02*
D03*
X0303878Y0210177D02*
D03*
X0299153Y0214114D02*
D03*
X0299153Y0210177D02*
D03*
X0313326Y0214114D02*
D03*
X0313326Y0218051D02*
D03*
X0308602Y0214114D02*
D03*
X0308602Y0218051D02*
D03*
X0303878Y0214114D02*
D03*
X0303878Y0218051D02*
D03*
X0299153Y0214114D02*
D03*
X0299153Y0218051D02*
D03*
X0294429Y0214114D02*
D03*
X0294429Y0210177D02*
D03*
X0289704Y0214114D02*
D03*
X0289704Y0210177D02*
D03*
X0284980Y0214114D02*
D03*
X0284980Y0210177D02*
D03*
X0280256Y0214114D02*
D03*
X0280256Y0210177D02*
D03*
X0289704Y0214114D02*
D03*
X0289704Y0218051D02*
D03*
X0284980Y0214114D02*
D03*
X0284980Y0218051D02*
D03*
X0275531Y0210177D02*
D03*
X0275531Y0214114D02*
D03*
X0270807Y0210177D02*
D03*
X0270807Y0214114D02*
D03*
X0266082Y0210177D02*
D03*
X0266082Y0214114D02*
D03*
X0275531Y0218051D02*
D03*
X0275531Y0214114D02*
D03*
X0270807Y0218051D02*
D03*
X0270807Y0214114D02*
D03*
X0266082Y0218051D02*
D03*
X0266082Y0214114D02*
D03*
X0256633Y0210177D02*
D03*
X0256633Y0214114D02*
D03*
X0251909Y0210177D02*
D03*
X0251909Y0214114D02*
D03*
X0242460Y0210177D02*
D03*
X0242460Y0214114D02*
D03*
X0256633Y0218051D02*
D03*
X0256633Y0214114D02*
D03*
X0251909Y0218051D02*
D03*
X0251909Y0214114D02*
D03*
X0247185Y0218051D02*
D03*
X0247185Y0214114D02*
D03*
X0242460Y0218051D02*
D03*
X0242460Y0214114D02*
D03*
X0319035Y0204075D02*
D03*
X0319035Y0208012D02*
D03*
D394*
X0254271Y0201122D02*
D03*
X0273169Y0201122D02*
D03*
X0292067Y0201122D02*
D03*
X0310964Y0201122D02*
D03*
X0282618Y0197382D02*
D03*
X0282618Y0201122D02*
D03*
X0282618Y0204862D02*
D03*
X0292067Y0204862D02*
D03*
X0292067Y0197382D02*
D03*
X0301515Y0197382D02*
D03*
X0301515Y0201122D02*
D03*
X0301515Y0204862D02*
D03*
X0310964Y0204862D02*
D03*
X0310964Y0197382D02*
D03*
X0263720Y0197382D02*
D03*
X0263720Y0201122D02*
D03*
X0263720Y0204862D02*
D03*
X0273169Y0204862D02*
D03*
X0273169Y0197382D02*
D03*
X0244822Y0197382D02*
D03*
X0244822Y0201122D02*
D03*
X0244822Y0204862D02*
D03*
X0254271Y0204862D02*
D03*
X0254271Y0197382D02*
D03*
D395*
X0288256Y0104087D02*
D03*
X0270334Y0093838D02*
D03*
D200*
X0297578Y0129210D02*
D03*
X0316476Y0134210D02*
D03*
X0316476Y0119210D02*
D03*
X0316476Y0124210D02*
D03*
X0316476Y0129210D02*
D03*
X0297578Y0119210D02*
D03*
X0297578Y0124210D02*
D03*
X0297578Y0134210D02*
D03*
D396*
X0315886Y0111569D02*
D03*
X0297775Y0111569D02*
D03*
D397*
X0281424Y0143095D02*
D03*
X0297633Y0143643D02*
D03*
X0280947Y0151255D02*
D03*
X0280947Y0158866D02*
D03*
X0297633Y0151255D02*
D03*
X0297633Y0158866D02*
D03*
X0280947Y0166478D02*
D03*
X0297633Y0166478D02*
D03*
X0288117Y0143095D02*
D03*
X0287640Y0151255D02*
D03*
X0287640Y0158866D02*
D03*
X0287640Y0166478D02*
D03*
X0304326Y0151255D02*
D03*
X0304326Y0143643D02*
D03*
X0288117Y0135118D02*
D03*
X0281424Y0135118D02*
D03*
X0281424Y0128031D02*
D03*
X0288117Y0128031D02*
D03*
X0288117Y0120945D02*
D03*
X0281424Y0120945D02*
D03*
X0281424Y0113858D02*
D03*
X0288117Y0113858D02*
D03*
X0304326Y0158866D02*
D03*
X0304326Y0166478D02*
D03*
X0281424Y0086358D02*
D03*
X0288117Y0086358D02*
D03*
D398*
X0194750Y0113771D02*
D03*
X0201050Y0113771D02*
D03*
X0202110Y0160212D02*
D03*
X0195810Y0160212D02*
D03*
D399*
X0235375Y0090829D02*
D03*
X0251910Y0090829D02*
D03*
D395*
X0270334Y0086358D02*
D03*
X0261082Y0090098D02*
D03*
X0288256Y0096607D02*
D03*
X0279004Y0100347D02*
D03*
D400*
X0306830Y0087159D02*
D03*
D401*
X0306830Y0111569D02*
D03*
D207*
X0237539Y0214114D02*
D03*
X0318445Y0220019D02*
D03*
D402*
X0200348Y0196372D02*
D03*
X0200348Y0178656D02*
D03*
D65*
X0245256Y0169035D02*
D03*
X0231043Y0169035D02*
D03*
X0261043Y0169035D02*
D03*
D209*
X0208051Y0091476D02*
D03*
X0228051Y0095476D02*
D03*
X0228051Y0087476D02*
D03*
D20*
X0318838Y0085767D02*
D03*
X0393720Y0274439D02*
G01*
G75*
D121*
X0362519Y0298848D02*
D03*
X0362224Y0284872D02*
D03*
X0363405Y0279852D02*
D03*
X0366850Y0281919D02*
D03*
M02*
