M48
; DRILL file {KiCad 8.0.8-8.0.8-0~ubuntu24.04.1} date 2025-02-06T06:50:32+0000
; FORMAT={2:4/ absolute / inch / suppress leading zeros}
; #@! TF.CreationDate,2025-02-06T06:50:32+00:00
; #@! TF.GenerationSoftware,Kicad,Pcbnew,8.0.8-8.0.8-0~ubuntu24.04.1
; #@! TF.FileFunction,MixedPlating,1,4
FMAT,2
INCH,TZ
; #@! TA.AperFunction,Plated,PTH,ComponentDrill
T1C0.0118
; #@! TA.AperFunction,Plated,PTH,ComponentDrill
T2C0.0118
; #@! TA.AperFunction,Plated,PTH,ViaDrill
T3C0.0157
; #@! TA.AperFunction,Plated,PTH,ComponentDrill
T4C0.0276
; #@! TA.AperFunction,Plated,PTH,ComponentDrill
T5C0.0295
; #@! TA.AperFunction,Plated,PTH,ComponentDrill
T6C0.0320
; #@! TA.AperFunction,Plated,PTH,ComponentDrill
T7C0.0394
; #@! TA.AperFunction,Plated,PTH,ComponentDrill
T8C0.0689
; #@! TA.AperFunction,NonPlated,NPTH,ComponentDrill
T9C0.0591
; #@! TA.AperFunction,NonPlated,NPTH,ComponentDrill
T10C0.0787
; #@! TA.AperFunction,NonPlated,NPTH,ComponentDrill
T11C0.1181
%
G90
G05
T1
X36222Y28487
X36252Y29885
X36341Y27985
X36685Y28192
T2
X11520Y29518
X11520Y29124
X11520Y28730
X11520Y28337
X17516Y2654
X17516Y2260
X19049Y17947
X19049Y17632
X19049Y17317
X19049Y17002
X19049Y16687
X19049Y16372
X19049Y16057
X19049Y15742
X19049Y15427
X19049Y15112
X19049Y14797
X19049Y14482
X19049Y14167
X19049Y13852
X19049Y13222
X19049Y12671
X19049Y12356
X19049Y12041
X19049Y11726
X19049Y11411
X19049Y11096
X19049Y19640
X19049Y13537
X19207Y8262
X19522Y8262
X19837Y8262
X20152Y8262
X20467Y8262
X20781Y8262
X21096Y8262
X21411Y8262
X21648Y22199
X21726Y8262
X21989Y27410
X21989Y27010
X21989Y26112
X21989Y25719
X21989Y25325
X22041Y8262
X22120Y22199
X22356Y8262
X22593Y22199
X22671Y8262
X23065Y22199
X23537Y22199
X23616Y8262
X23931Y8262
X24010Y22199
X24246Y8262
X24482Y22199
X24561Y8262
X24876Y8262
X24955Y22199
X25191Y8262
X25427Y22199
X25506Y8262
X25821Y8262
X25900Y22199
X26136Y8262
X26372Y22199
X26844Y22199
X27317Y22199
X27789Y22199
X27829Y8262
X28262Y22199
X28734Y22199
X28892Y8262
X29207Y22199
X29285Y8262
X29679Y22199
X30152Y22199
X30624Y22199
X31096Y22199
X32041Y22199
X32199Y21215
X32199Y20821
X32199Y16608
X32199Y16215
X32199Y15821
X32199Y15427
X32199Y15033
X32199Y14640
X32199Y14246
X32199Y13852
X32199Y12829
X32199Y12514
X32199Y10663
X32199Y10112
X32199Y8262
X35518Y26923
X35518Y26549
X35518Y26175
X38943Y26530
X38943Y26175
X39137Y20301
X39148Y11650
X39609Y20301
X39620Y11650
X40082Y20301
X40093Y11650
X40554Y20301
X40565Y11650
X41680Y14622
X41691Y5970
X42074Y14622
X42085Y5970
T3
X485Y24839
X490Y9266
X506Y12951
X659Y8305
X659Y7904
X691Y5533
X715Y7307
X715Y6677
X715Y6126
X821Y20423
X821Y16593
X930Y24193
X942Y25500
X988Y21771
X1069Y3183
X1081Y2301
X1108Y4089
X1140Y12951
X1144Y9270
X1343Y21767
X1360Y6276
X1364Y7063
X1391Y24855
X1486Y5482
X1589Y12648
X1596Y9648
X1608Y1400
X1612Y3683
X1616Y18411
X1616Y14774
X1624Y20419
X1773Y21767
X1837Y25490
X1904Y5486
X2022Y19754
X2022Y13451
X2073Y11648
X2179Y3659
X2187Y16108
X2199Y17026
X2199Y16514
X2289Y5486
X2396Y19754
X2427Y888
X2561Y16108
X2585Y9624
X2671Y13455
X2722Y3656
X2729Y24256
X3116Y3195
X3136Y2305
X3136Y1569
X3136Y900
X3179Y3998
X3230Y7063
X3234Y6276
X3563Y3860
X3669Y20681
X3814Y28941
X4010Y12362
X4018Y8545
X4085Y6951
X4089Y6600
X4100Y1274
X4100Y801
X4104Y1719
X4136Y3530
X4136Y2900
X4136Y2348
X4274Y29596
X4274Y28297
X4309Y23053
X4322Y25869
X4676Y25865
X4719Y28957
X4781Y2498
X4785Y3285
X4909Y4095
X5090Y25867
X5108Y5498
X5159Y29585
X5321Y1711
X5325Y18207
X5348Y21518
X5569Y19868
X5652Y9919
X5656Y8459
X5663Y6199
X5679Y12758
X5687Y14222
X5695Y15679
X5722Y1711
X5896Y19100
X6066Y28296
X6549Y4077
X6652Y3285
X6656Y2498
X6947Y19116
X6990Y20652
X7045Y22219
X7100Y17557
X7104Y15652
X7108Y12904
X7120Y14266
X7199Y11498
X7199Y10900
X7230Y7703
X7242Y9234
X7337Y6026
X7388Y19967
X7407Y21470
X7419Y23018
X7427Y18246
X7821Y5053
X7821Y4215
X7982Y3069
X7990Y2486
X7990Y1844
X7998Y1207
X8654Y19944
X8675Y21435
X8734Y23006
X8758Y8616
X8758Y7722
X8762Y9439
X8762Y9061
X8762Y8148
X8809Y1211
X8888Y6234
X8906Y17699
X8943Y11530
X8943Y11065
X8998Y15789
X9018Y13026
X9049Y13896
X9112Y7423
X9159Y4215
X9262Y5943
X9561Y7325
X9585Y1219
X10067Y21445
X10069Y21014
X10071Y21799
X10073Y11919
X10079Y17811
X10079Y12291
X10083Y18165
X10083Y15051
X10083Y12646
X10085Y17400
X10085Y14624
X10087Y15406
X10108Y9904
X10191Y7319
X10636Y23033
X10778Y2600
X10781Y1900
X10781Y888
X10785Y5061
X10785Y3313
X11093Y26120
X11096Y25026
X12073Y19108
X12364Y23033
X12404Y11352
X12496Y21858
X12498Y18222
X12500Y20047
X12504Y15469
X12506Y16419
X12508Y13665
X12508Y12699
X13108Y11356
X13142Y22303
X13144Y18667
X13150Y15913
X13154Y13144
X13157Y21398
X13159Y17762
X13161Y12244
X13165Y15008
X13803Y21846
X13805Y18211
X13805Y12238
X13807Y12693
X13811Y15457
X13844Y20909
X13858Y17341
X13862Y14581
X14333Y23057
X14838Y22446
X14845Y21454
X14848Y20742
X14900Y11388
X15130Y12384
X15644Y12360
X16022Y12364
X16593Y12360
X16685Y9801
X17156Y10967
X17199Y12041
X17200Y9386
X17431Y11726
X17598Y9265
X17793Y7325
X17793Y4002
X17793Y3045
X17793Y1557
X17856Y4380
X18002Y5291
X18024Y6803
X18065Y9900
X18577Y10337
X18577Y9963
X18577Y9451
X18754Y24392
X18774Y21077
X18774Y18793
X18774Y12947
X18774Y8778
X19317Y7403
X19364Y943
X20191Y22474
X20593Y533
X20941Y7898
X20963Y5726
X21388Y4722
X21691Y2045
X22348Y29116
X22577Y4722
X22709Y7848
X23112Y23734
X23144Y7986
X23636Y4715
X23852Y28124
X23904Y24864
X23909Y6043
X24187Y2144
X24622Y6041
X25057Y3222
X25364Y4226
X25659Y2156
X25959Y6039
X25959Y4742
X26825Y3289
X26833Y4742
X26949Y6947
X26986Y7986
X27211Y4317
X27441Y6037
X27600Y4317
X27963Y6947
X28033Y4309
X28045Y6037
X28301Y28144
X28360Y7986
X28537Y6037
X28921Y6937
X29793Y29699
X30742Y7986
X31419Y28801
X31569Y22474
X31852Y29415
X32262Y6813
X32411Y26616
X32474Y21868
X32474Y18715
X32474Y13341
X32474Y11589
X32474Y10388
X32474Y9187
X32533Y16215
X32553Y20317
X32734Y541
X32856Y4514
X32856Y3738
X32860Y6951
X33156Y8254
X33533Y8258
X33561Y26612
X33907Y8262
X34049Y8982
X34108Y5730
X34116Y25018
X34126Y26175
X34148Y13781
X34199Y11963
X34215Y10640
X34372Y15156
X34451Y26553
X34742Y29329
X34856Y805
X34951Y24939
X35246Y3459
X35247Y2947
X35262Y11955
X35344Y7230
X35492Y13464
X35510Y15128
X35569Y18640
X35573Y17073
X35593Y4049
X35726Y25726
X35781Y8136
X35793Y9762
X35809Y23848
X35980Y3030
X36813Y19179
X36856Y16077
X36959Y8156
X37230Y4045
X37234Y25730
X37270Y24274
X37301Y12156
X37313Y8864
X37333Y10455
X37486Y19770
X37518Y18159
X37927Y2904
X38380Y19892
X38392Y16742
X38400Y18293
X38451Y25726
X38612Y7163
X38683Y8837
X38809Y25061
X38864Y4030
X38884Y22431
X39258Y25057
X39506Y29837
X39506Y29069
X39506Y28124
X39754Y13234
X39998Y14089
X40100Y12116
X40207Y5667
X40337Y25978
X41014Y25057
X41014Y24073
X41014Y23089
X41687Y26006
X41746Y21868
X41770Y20589
X42073Y29238
X42073Y22447
X42270Y4030
X42502Y5656
T4
X19695Y6327
X20010Y7016
X20325Y6327
X20640Y7016
X20955Y6327
T5
X19695Y4762
X19695Y3974
X19695Y3187
X19695Y2400
T6
X8289Y3797
X8293Y5474
X8293Y4636
X9915Y8392
X9915Y6463
X10219Y3797
X10222Y5474
X10222Y4636
X18427Y2465
X18427Y965
T7
X10943Y19112
X11236Y8736
X11236Y8008
X11236Y6059
X11236Y1315
X14089Y10581
X15128Y10577
X15533Y11392
X15600Y23234
X15600Y22234
X15600Y21234
X15600Y20234
X15600Y19234
X15600Y18234
X15600Y17234
X15600Y16234
X15600Y15234
X15600Y14234
X15939Y10569
X16352Y11392
X16600Y23234
X16600Y22234
X16600Y21234
X16600Y20234
X16600Y19234
X16600Y18234
X16600Y17234
X16600Y16234
X16600Y15234
X16600Y14234
X17339Y8559
X17339Y6039
X17339Y5291
X17339Y3598
X17339Y1138
X17600Y23234
X17600Y22234
X17600Y21234
X17600Y20234
X17600Y19234
X17600Y18234
X17600Y17234
X17600Y16234
X17600Y15234
X17600Y14234
X23691Y29715
X24215Y6844
X24691Y29715
X25199Y6844
X25691Y29715
X26691Y29715
X27691Y29715
X30289Y6841
X31384Y6841
X33474Y11207
X33474Y10112
X40565Y21364
X41911Y12423
T8
X4864Y23801
X4864Y22226
X4864Y20652
X4864Y19077
X4864Y17502
X4864Y15927
X4864Y14352
X4864Y12778
X4864Y11203
X4864Y9628
X4864Y8053
X4864Y6478
X6439Y23014
X6439Y21439
X6439Y19864
X6439Y18289
X6439Y16715
X6439Y15140
X6439Y13565
X6439Y11990
X6439Y10415
X6439Y8841
X6439Y7266
X8014Y23801
X8014Y22226
X8014Y20652
X8014Y19077
X8014Y17502
X8014Y15927
X8014Y14352
X8014Y12778
X8014Y11203
X8014Y9628
X8014Y8053
X8014Y6478
X34833Y23801
X34833Y22226
X34833Y20652
X34833Y19077
X34833Y17502
X34833Y15927
X34833Y14352
X34833Y12778
X34833Y11203
X34833Y9628
X34833Y8053
X34833Y6478
X36407Y23014
X36407Y21439
X36407Y19864
X36407Y18289
X36407Y16715
X36407Y15140
X36407Y13565
X36407Y11990
X36407Y10415
X36407Y8841
X36407Y7266
X37982Y23801
X37982Y22226
X37982Y20652
X37982Y19077
X37982Y17502
X37982Y15927
X37982Y14352
X37982Y12778
X37982Y11203
X37982Y9628
X37982Y8053
X37982Y6478
T9
X23408Y2813
X26360Y2813
T10
X2187Y27620
X2187Y2659
X9313Y28211
X9313Y2069
X33533Y28211
X33533Y2069
X40659Y27620
X40659Y2659
T11
X23388Y26400
X28703Y26400
T4
X18888Y6927G85X18888Y6415
G05
X21762Y6927G85X21762Y6415
G05
M30
