G04 #@! TF.GenerationSoftware,KiCad,Pcbnew,8.0.8-8.0.8-0~ubuntu24.04.1*
G04 #@! TF.CreationDate,2025-02-12T08:24:26+00:00*
G04 #@! TF.ProjectId,MST01,4d535430-312e-46b6-9963-61645f706362,D*
G04 #@! TF.SameCoordinates,PX440a368PY8a86a58*
G04 #@! TF.FileFunction,Paste,Bot*
G04 #@! TF.FilePolarity,Positive*
%FSLAX46Y46*%
G04 Gerber Fmt 4.6, Leading zero omitted, Abs format (unit mm)*
G04 Created by KiCad (PCBNEW 8.0.8-8.0.8-0~ubuntu24.04.1) date 2025-02-12 08:24:26*
%MOMM*%
%LPD*%
G01*
G04 APERTURE LIST*
%ADD10R,4.399991X2.299995*%
%ADD11R,3.999992X2.299995*%
%ADD12R,1.160000X1.950000*%
%ADD13R,0.650000X2.000000*%
%ADD14O,0.000001X0.000001*%
G04 APERTURE END LIST*
G04 #@! TO.C,R40*
G36*
G01*
X103895022Y64270000D02*
X103895022Y63020000D01*
G75*
G02*
X103795022Y62920000I-100000J0D01*
G01*
X102995022Y62920000D01*
G75*
G02*
X102895022Y63020000I0J100000D01*
G01*
X102895022Y64270000D01*
G75*
G02*
X102995022Y64370000I100000J0D01*
G01*
X103795022Y64370000D01*
G75*
G02*
X103895022Y64270000I0J-100000D01*
G01*
G37*
G36*
G01*
X101995000Y64270000D02*
X101995000Y63020000D01*
G75*
G02*
X101895000Y62920000I-100000J0D01*
G01*
X101095000Y62920000D01*
G75*
G02*
X100995000Y63020000I0J100000D01*
G01*
X100995000Y64270000D01*
G75*
G02*
X101095000Y64370000I100000J0D01*
G01*
X101895000Y64370000D01*
G75*
G02*
X101995000Y64270000I0J-100000D01*
G01*
G37*
G04 #@! TD*
G04 #@! TO.C,R39*
G36*
G01*
X103895022Y61770000D02*
X103895022Y60520000D01*
G75*
G02*
X103795022Y60420000I-100000J0D01*
G01*
X102995022Y60420000D01*
G75*
G02*
X102895022Y60520000I0J100000D01*
G01*
X102895022Y61770000D01*
G75*
G02*
X102995022Y61870000I100000J0D01*
G01*
X103795022Y61870000D01*
G75*
G02*
X103895022Y61770000I0J-100000D01*
G01*
G37*
G36*
G01*
X101995000Y61770000D02*
X101995000Y60520000D01*
G75*
G02*
X101895000Y60420000I-100000J0D01*
G01*
X101095000Y60420000D01*
G75*
G02*
X100995000Y60520000I0J100000D01*
G01*
X100995000Y61770000D01*
G75*
G02*
X101095000Y61870000I100000J0D01*
G01*
X101895000Y61870000D01*
G75*
G02*
X101995000Y61770000I0J-100000D01*
G01*
G37*
G04 #@! TD*
G04 #@! TO.C,C26*
G36*
G01*
X15879999Y13745000D02*
X15879999Y14425000D01*
G75*
G02*
X15964999Y14510000I85000J0D01*
G01*
X16644999Y14510000D01*
G75*
G02*
X16729999Y14425000I0J-85000D01*
G01*
X16729999Y13745000D01*
G75*
G02*
X16644999Y13660000I-85000J0D01*
G01*
X15964999Y13660000D01*
G75*
G02*
X15879999Y13745000I0J85000D01*
G01*
G37*
G36*
G01*
X17460001Y13745000D02*
X17460001Y14425000D01*
G75*
G02*
X17545001Y14510000I85000J0D01*
G01*
X18225001Y14510000D01*
G75*
G02*
X18310001Y14425000I0J-85000D01*
G01*
X18310001Y13745000D01*
G75*
G02*
X18225001Y13660000I-85000J0D01*
G01*
X17545001Y13660000D01*
G75*
G02*
X17460001Y13745000I0J85000D01*
G01*
G37*
G04 #@! TD*
G04 #@! TO.C,D4*
G36*
G01*
X4860000Y24005000D02*
X4860000Y25025000D01*
G75*
G02*
X4950000Y25115000I90000J0D01*
G01*
X5670000Y25115000D01*
G75*
G02*
X5760000Y25025000I0J-90000D01*
G01*
X5760000Y24005000D01*
G75*
G02*
X5670000Y23915000I-90000J0D01*
G01*
X4950000Y23915000D01*
G75*
G02*
X4860000Y24005000I0J90000D01*
G01*
G37*
G36*
G01*
X8160000Y24005000D02*
X8160000Y25025000D01*
G75*
G02*
X8250000Y25115000I90000J0D01*
G01*
X8970000Y25115000D01*
G75*
G02*
X9060000Y25025000I0J-90000D01*
G01*
X9060000Y24005000D01*
G75*
G02*
X8970000Y23915000I-90000J0D01*
G01*
X8250000Y23915000D01*
G75*
G02*
X8160000Y24005000I0J90000D01*
G01*
G37*
G04 #@! TD*
D10*
G04 #@! TO.C,BT1*
X55355048Y7245000D03*
D11*
X71355067Y7245000D03*
G04 #@! TD*
G04 #@! TO.C,F3*
G36*
G01*
X25300010Y8745000D02*
X24610010Y8745000D01*
G75*
G02*
X24380010Y8975000I0J230000D01*
G01*
X24380010Y10315000D01*
G75*
G02*
X24610010Y10545000I230000J0D01*
G01*
X25300010Y10545000D01*
G75*
G02*
X25530010Y10315000I0J-230000D01*
G01*
X25530010Y8975000D01*
G75*
G02*
X25300010Y8745000I-230000J0D01*
G01*
G37*
G36*
G01*
X22399990Y8745000D02*
X21709990Y8745000D01*
G75*
G02*
X21479990Y8975000I0J230000D01*
G01*
X21479990Y10315000D01*
G75*
G02*
X21709990Y10545000I230000J0D01*
G01*
X22399990Y10545000D01*
G75*
G02*
X22629990Y10315000I0J-230000D01*
G01*
X22629990Y8975000D01*
G75*
G02*
X22399990Y8745000I-230000J0D01*
G01*
G37*
G04 #@! TD*
G04 #@! TO.C,Q8*
G36*
G01*
X1437500Y64205000D02*
X2137500Y64205000D01*
G75*
G02*
X2387500Y63955000I0J-250000D01*
G01*
X2387500Y62255000D01*
G75*
G02*
X2137500Y62005000I-250000J0D01*
G01*
X1437500Y62005000D01*
G75*
G02*
X1187500Y62255000I0J250000D01*
G01*
X1187500Y63955000D01*
G75*
G02*
X1437500Y64205000I250000J0D01*
G01*
G37*
G36*
G01*
X4467500Y60005000D02*
X6717500Y60005000D01*
G75*
G02*
X6967500Y59755000I0J-250000D01*
G01*
X6967500Y57205000D01*
G75*
G02*
X6717500Y56955000I-250000J0D01*
G01*
X4467500Y56955000D01*
G75*
G02*
X4217500Y57205000I0J250000D01*
G01*
X4217500Y59755000D01*
G75*
G02*
X4467500Y60005000I250000J0D01*
G01*
G37*
G36*
G01*
X1417500Y60005000D02*
X3667500Y60005000D01*
G75*
G02*
X3917500Y59755000I0J-250000D01*
G01*
X3917500Y57205000D01*
G75*
G02*
X3667500Y56955000I-250000J0D01*
G01*
X1417500Y56955000D01*
G75*
G02*
X1167500Y57205000I0J250000D01*
G01*
X1167500Y59755000D01*
G75*
G02*
X1417500Y60005000I250000J0D01*
G01*
G37*
G36*
G01*
X4467500Y56655000D02*
X6717500Y56655000D01*
G75*
G02*
X6967500Y56405000I0J-250000D01*
G01*
X6967500Y53855000D01*
G75*
G02*
X6717500Y53605000I-250000J0D01*
G01*
X4467500Y53605000D01*
G75*
G02*
X4217500Y53855000I0J250000D01*
G01*
X4217500Y56405000D01*
G75*
G02*
X4467500Y56655000I250000J0D01*
G01*
G37*
G36*
G01*
X1417500Y56655000D02*
X3667500Y56655000D01*
G75*
G02*
X3917500Y56405000I0J-250000D01*
G01*
X3917500Y53855000D01*
G75*
G02*
X3667500Y53605000I-250000J0D01*
G01*
X1417500Y53605000D01*
G75*
G02*
X1167500Y53855000I0J250000D01*
G01*
X1167500Y56405000D01*
G75*
G02*
X1417500Y56655000I250000J0D01*
G01*
G37*
G36*
G01*
X5997500Y64205000D02*
X6697500Y64205000D01*
G75*
G02*
X6947500Y63955000I0J-250000D01*
G01*
X6947500Y62255000D01*
G75*
G02*
X6697500Y62005000I-250000J0D01*
G01*
X5997500Y62005000D01*
G75*
G02*
X5747500Y62255000I0J250000D01*
G01*
X5747500Y63955000D01*
G75*
G02*
X5997500Y64205000I250000J0D01*
G01*
G37*
G04 #@! TD*
G04 #@! TO.C,Q12*
G36*
G01*
X35020000Y34855000D02*
X35020000Y34155000D01*
G75*
G02*
X34770000Y33905000I-250000J0D01*
G01*
X33070000Y33905000D01*
G75*
G02*
X32820000Y34155000I0J250000D01*
G01*
X32820000Y34855000D01*
G75*
G02*
X33070000Y35105000I250000J0D01*
G01*
X34770000Y35105000D01*
G75*
G02*
X35020000Y34855000I0J-250000D01*
G01*
G37*
G36*
G01*
X30820000Y31825000D02*
X30820000Y29575000D01*
G75*
G02*
X30570000Y29325000I-250000J0D01*
G01*
X28020000Y29325000D01*
G75*
G02*
X27770000Y29575000I0J250000D01*
G01*
X27770000Y31825000D01*
G75*
G02*
X28020000Y32075000I250000J0D01*
G01*
X30570000Y32075000D01*
G75*
G02*
X30820000Y31825000I0J-250000D01*
G01*
G37*
G36*
G01*
X30820000Y34875000D02*
X30820000Y32625000D01*
G75*
G02*
X30570000Y32375000I-250000J0D01*
G01*
X28020000Y32375000D01*
G75*
G02*
X27770000Y32625000I0J250000D01*
G01*
X27770000Y34875000D01*
G75*
G02*
X28020000Y35125000I250000J0D01*
G01*
X30570000Y35125000D01*
G75*
G02*
X30820000Y34875000I0J-250000D01*
G01*
G37*
G36*
G01*
X27470000Y31825000D02*
X27470000Y29575000D01*
G75*
G02*
X27220000Y29325000I-250000J0D01*
G01*
X24670000Y29325000D01*
G75*
G02*
X24420000Y29575000I0J250000D01*
G01*
X24420000Y31825000D01*
G75*
G02*
X24670000Y32075000I250000J0D01*
G01*
X27220000Y32075000D01*
G75*
G02*
X27470000Y31825000I0J-250000D01*
G01*
G37*
G36*
G01*
X27470000Y34875000D02*
X27470000Y32625000D01*
G75*
G02*
X27220000Y32375000I-250000J0D01*
G01*
X24670000Y32375000D01*
G75*
G02*
X24420000Y32625000I0J250000D01*
G01*
X24420000Y34875000D01*
G75*
G02*
X24670000Y35125000I250000J0D01*
G01*
X27220000Y35125000D01*
G75*
G02*
X27470000Y34875000I0J-250000D01*
G01*
G37*
G36*
G01*
X35020000Y30295000D02*
X35020000Y29595000D01*
G75*
G02*
X34770000Y29345000I-250000J0D01*
G01*
X33070000Y29345000D01*
G75*
G02*
X32820000Y29595000I0J250000D01*
G01*
X32820000Y30295000D01*
G75*
G02*
X33070000Y30545000I250000J0D01*
G01*
X34770000Y30545000D01*
G75*
G02*
X35020000Y30295000I0J-250000D01*
G01*
G37*
G04 #@! TD*
G04 #@! TO.C,R34*
G36*
G01*
X935000Y49785000D02*
X935000Y50565000D01*
G75*
G02*
X1005000Y50635000I70000J0D01*
G01*
X1565000Y50635000D01*
G75*
G02*
X1635000Y50565000I0J-70000D01*
G01*
X1635000Y49785000D01*
G75*
G02*
X1565000Y49715000I-70000J0D01*
G01*
X1005000Y49715000D01*
G75*
G02*
X935000Y49785000I0J70000D01*
G01*
G37*
G36*
G01*
X2535000Y49785000D02*
X2535000Y50565000D01*
G75*
G02*
X2605000Y50635000I70000J0D01*
G01*
X3165000Y50635000D01*
G75*
G02*
X3235000Y50565000I0J-70000D01*
G01*
X3235000Y49785000D01*
G75*
G02*
X3165000Y49715000I-70000J0D01*
G01*
X2605000Y49715000D01*
G75*
G02*
X2535000Y49785000I0J70000D01*
G01*
G37*
G04 #@! TD*
G04 #@! TO.C,R1*
G36*
G01*
X102545000Y35405000D02*
X102545000Y36185000D01*
G75*
G02*
X102615000Y36255000I70000J0D01*
G01*
X103175000Y36255000D01*
G75*
G02*
X103245000Y36185000I0J-70000D01*
G01*
X103245000Y35405000D01*
G75*
G02*
X103175000Y35335000I-70000J0D01*
G01*
X102615000Y35335000D01*
G75*
G02*
X102545000Y35405000I0J70000D01*
G01*
G37*
G36*
G01*
X104145000Y35405000D02*
X104145000Y36185000D01*
G75*
G02*
X104215000Y36255000I70000J0D01*
G01*
X104775000Y36255000D01*
G75*
G02*
X104845000Y36185000I0J-70000D01*
G01*
X104845000Y35405000D01*
G75*
G02*
X104775000Y35335000I-70000J0D01*
G01*
X104215000Y35335000D01*
G75*
G02*
X104145000Y35405000I0J70000D01*
G01*
G37*
G04 #@! TD*
G04 #@! TO.C,F4*
G36*
G01*
X25310010Y10875000D02*
X24620010Y10875000D01*
G75*
G02*
X24390010Y11105000I0J230000D01*
G01*
X24390010Y12445000D01*
G75*
G02*
X24620010Y12675000I230000J0D01*
G01*
X25310010Y12675000D01*
G75*
G02*
X25540010Y12445000I0J-230000D01*
G01*
X25540010Y11105000D01*
G75*
G02*
X25310010Y10875000I-230000J0D01*
G01*
G37*
G36*
G01*
X22409990Y10875000D02*
X21719990Y10875000D01*
G75*
G02*
X21489990Y11105000I0J230000D01*
G01*
X21489990Y12445000D01*
G75*
G02*
X21719990Y12675000I230000J0D01*
G01*
X22409990Y12675000D01*
G75*
G02*
X22639990Y12445000I0J-230000D01*
G01*
X22639990Y11105000D01*
G75*
G02*
X22409990Y10875000I-230000J0D01*
G01*
G37*
G04 #@! TD*
G04 #@! TO.C,Q10*
G36*
G01*
X35010000Y48865000D02*
X35010000Y48165000D01*
G75*
G02*
X34760000Y47915000I-250000J0D01*
G01*
X33060000Y47915000D01*
G75*
G02*
X32810000Y48165000I0J250000D01*
G01*
X32810000Y48865000D01*
G75*
G02*
X33060000Y49115000I250000J0D01*
G01*
X34760000Y49115000D01*
G75*
G02*
X35010000Y48865000I0J-250000D01*
G01*
G37*
G36*
G01*
X30810000Y45835000D02*
X30810000Y43585000D01*
G75*
G02*
X30560000Y43335000I-250000J0D01*
G01*
X28010000Y43335000D01*
G75*
G02*
X27760000Y43585000I0J250000D01*
G01*
X27760000Y45835000D01*
G75*
G02*
X28010000Y46085000I250000J0D01*
G01*
X30560000Y46085000D01*
G75*
G02*
X30810000Y45835000I0J-250000D01*
G01*
G37*
G36*
G01*
X30810000Y48885000D02*
X30810000Y46635000D01*
G75*
G02*
X30560000Y46385000I-250000J0D01*
G01*
X28010000Y46385000D01*
G75*
G02*
X27760000Y46635000I0J250000D01*
G01*
X27760000Y48885000D01*
G75*
G02*
X28010000Y49135000I250000J0D01*
G01*
X30560000Y49135000D01*
G75*
G02*
X30810000Y48885000I0J-250000D01*
G01*
G37*
G36*
G01*
X27460000Y45835000D02*
X27460000Y43585000D01*
G75*
G02*
X27210000Y43335000I-250000J0D01*
G01*
X24660000Y43335000D01*
G75*
G02*
X24410000Y43585000I0J250000D01*
G01*
X24410000Y45835000D01*
G75*
G02*
X24660000Y46085000I250000J0D01*
G01*
X27210000Y46085000D01*
G75*
G02*
X27460000Y45835000I0J-250000D01*
G01*
G37*
G36*
G01*
X27460000Y48885000D02*
X27460000Y46635000D01*
G75*
G02*
X27210000Y46385000I-250000J0D01*
G01*
X24660000Y46385000D01*
G75*
G02*
X24410000Y46635000I0J250000D01*
G01*
X24410000Y48885000D01*
G75*
G02*
X24660000Y49135000I250000J0D01*
G01*
X27210000Y49135000D01*
G75*
G02*
X27460000Y48885000I0J-250000D01*
G01*
G37*
G36*
G01*
X35010000Y44305000D02*
X35010000Y43605000D01*
G75*
G02*
X34760000Y43355000I-250000J0D01*
G01*
X33060000Y43355000D01*
G75*
G02*
X32810000Y43605000I0J250000D01*
G01*
X32810000Y44305000D01*
G75*
G02*
X33060000Y44555000I250000J0D01*
G01*
X34760000Y44555000D01*
G75*
G02*
X35010000Y44305000I0J-250000D01*
G01*
G37*
G04 #@! TD*
G04 #@! TO.C,R4*
G36*
G01*
X47430000Y2904999D02*
X46180000Y2904999D01*
G75*
G02*
X46080000Y3004999I0J100000D01*
G01*
X46080000Y3804999D01*
G75*
G02*
X46180000Y3904999I100000J0D01*
G01*
X47430000Y3904999D01*
G75*
G02*
X47530000Y3804999I0J-100000D01*
G01*
X47530000Y3004999D01*
G75*
G02*
X47430000Y2904999I-100000J0D01*
G01*
G37*
G36*
G01*
X47430000Y4805021D02*
X46180000Y4805021D01*
G75*
G02*
X46080000Y4905021I0J100000D01*
G01*
X46080000Y5705021D01*
G75*
G02*
X46180000Y5805021I100000J0D01*
G01*
X47430000Y5805021D01*
G75*
G02*
X47530000Y5705021I0J-100000D01*
G01*
X47530000Y4905021D01*
G75*
G02*
X47430000Y4805021I-100000J0D01*
G01*
G37*
G04 #@! TD*
G04 #@! TO.C,U11*
G36*
G01*
X1005000Y44700000D02*
X1005000Y45000000D01*
G75*
G02*
X1155000Y45150000I150000J0D01*
G01*
X2805000Y45150000D01*
G75*
G02*
X2955000Y45000000I0J-150000D01*
G01*
X2955000Y44700000D01*
G75*
G02*
X2805000Y44550000I-150000J0D01*
G01*
X1155000Y44550000D01*
G75*
G02*
X1005000Y44700000I0J150000D01*
G01*
G37*
G36*
G01*
X1005000Y45970000D02*
X1005000Y46270000D01*
G75*
G02*
X1155000Y46420000I150000J0D01*
G01*
X2805000Y46420000D01*
G75*
G02*
X2955000Y46270000I0J-150000D01*
G01*
X2955000Y45970000D01*
G75*
G02*
X2805000Y45820000I-150000J0D01*
G01*
X1155000Y45820000D01*
G75*
G02*
X1005000Y45970000I0J150000D01*
G01*
G37*
G36*
G01*
X1005000Y47240000D02*
X1005000Y47540000D01*
G75*
G02*
X1155000Y47690000I150000J0D01*
G01*
X2805000Y47690000D01*
G75*
G02*
X2955000Y47540000I0J-150000D01*
G01*
X2955000Y47240000D01*
G75*
G02*
X2805000Y47090000I-150000J0D01*
G01*
X1155000Y47090000D01*
G75*
G02*
X1005000Y47240000I0J150000D01*
G01*
G37*
G36*
G01*
X1005000Y48510000D02*
X1005000Y48810000D01*
G75*
G02*
X1155000Y48960000I150000J0D01*
G01*
X2805000Y48960000D01*
G75*
G02*
X2955000Y48810000I0J-150000D01*
G01*
X2955000Y48510000D01*
G75*
G02*
X2805000Y48360000I-150000J0D01*
G01*
X1155000Y48360000D01*
G75*
G02*
X1005000Y48510000I0J150000D01*
G01*
G37*
G36*
G01*
X5955000Y48510000D02*
X5955000Y48810000D01*
G75*
G02*
X6105000Y48960000I150000J0D01*
G01*
X7755000Y48960000D01*
G75*
G02*
X7905000Y48810000I0J-150000D01*
G01*
X7905000Y48510000D01*
G75*
G02*
X7755000Y48360000I-150000J0D01*
G01*
X6105000Y48360000D01*
G75*
G02*
X5955000Y48510000I0J150000D01*
G01*
G37*
G36*
G01*
X5955000Y47240000D02*
X5955000Y47540000D01*
G75*
G02*
X6105000Y47690000I150000J0D01*
G01*
X7755000Y47690000D01*
G75*
G02*
X7905000Y47540000I0J-150000D01*
G01*
X7905000Y47240000D01*
G75*
G02*
X7755000Y47090000I-150000J0D01*
G01*
X6105000Y47090000D01*
G75*
G02*
X5955000Y47240000I0J150000D01*
G01*
G37*
G36*
G01*
X5955000Y45970000D02*
X5955000Y46270000D01*
G75*
G02*
X6105000Y46420000I150000J0D01*
G01*
X7755000Y46420000D01*
G75*
G02*
X7905000Y46270000I0J-150000D01*
G01*
X7905000Y45970000D01*
G75*
G02*
X7755000Y45820000I-150000J0D01*
G01*
X6105000Y45820000D01*
G75*
G02*
X5955000Y45970000I0J150000D01*
G01*
G37*
G36*
G01*
X5955000Y44700000D02*
X5955000Y45000000D01*
G75*
G02*
X6105000Y45150000I150000J0D01*
G01*
X7755000Y45150000D01*
G75*
G02*
X7905000Y45000000I0J-150000D01*
G01*
X7905000Y44700000D01*
G75*
G02*
X7755000Y44550000I-150000J0D01*
G01*
X6105000Y44550000D01*
G75*
G02*
X5955000Y44700000I0J150000D01*
G01*
G37*
G04 #@! TD*
G04 #@! TO.C,R37*
G36*
G01*
X107345022Y64270000D02*
X107345022Y63020000D01*
G75*
G02*
X107245022Y62920000I-100000J0D01*
G01*
X106445022Y62920000D01*
G75*
G02*
X106345022Y63020000I0J100000D01*
G01*
X106345022Y64270000D01*
G75*
G02*
X106445022Y64370000I100000J0D01*
G01*
X107245022Y64370000D01*
G75*
G02*
X107345022Y64270000I0J-100000D01*
G01*
G37*
G36*
G01*
X105445000Y64270000D02*
X105445000Y63020000D01*
G75*
G02*
X105345000Y62920000I-100000J0D01*
G01*
X104545000Y62920000D01*
G75*
G02*
X104445000Y63020000I0J100000D01*
G01*
X104445000Y64270000D01*
G75*
G02*
X104545000Y64370000I100000J0D01*
G01*
X105345000Y64370000D01*
G75*
G02*
X105445000Y64270000I0J-100000D01*
G01*
G37*
G04 #@! TD*
G04 #@! TO.C,R9*
G36*
G01*
X3295000Y9505000D02*
X3295000Y8725000D01*
G75*
G02*
X3225000Y8655000I-70000J0D01*
G01*
X2665000Y8655000D01*
G75*
G02*
X2595000Y8725000I0J70000D01*
G01*
X2595000Y9505000D01*
G75*
G02*
X2665000Y9575000I70000J0D01*
G01*
X3225000Y9575000D01*
G75*
G02*
X3295000Y9505000I0J-70000D01*
G01*
G37*
G36*
G01*
X1695000Y9505000D02*
X1695000Y8725000D01*
G75*
G02*
X1625000Y8655000I-70000J0D01*
G01*
X1065000Y8655000D01*
G75*
G02*
X995000Y8725000I0J70000D01*
G01*
X995000Y9505000D01*
G75*
G02*
X1065000Y9575000I70000J0D01*
G01*
X1625000Y9575000D01*
G75*
G02*
X1695000Y9505000I0J-70000D01*
G01*
G37*
G04 #@! TD*
G04 #@! TO.C,C13*
G36*
G01*
X9505000Y17000001D02*
X10185000Y17000001D01*
G75*
G02*
X10270000Y16915001I0J-85000D01*
G01*
X10270000Y16235001D01*
G75*
G02*
X10185000Y16150001I-85000J0D01*
G01*
X9505000Y16150001D01*
G75*
G02*
X9420000Y16235001I0J85000D01*
G01*
X9420000Y16915001D01*
G75*
G02*
X9505000Y17000001I85000J0D01*
G01*
G37*
G36*
G01*
X9505000Y15419999D02*
X10185000Y15419999D01*
G75*
G02*
X10270000Y15334999I0J-85000D01*
G01*
X10270000Y14654999D01*
G75*
G02*
X10185000Y14569999I-85000J0D01*
G01*
X9505000Y14569999D01*
G75*
G02*
X9420000Y14654999I0J85000D01*
G01*
X9420000Y15334999D01*
G75*
G02*
X9505000Y15419999I85000J0D01*
G01*
G37*
G04 #@! TD*
D12*
G04 #@! TO.C,U2*
X16585000Y8530000D03*
X15125000Y8530000D03*
X13665000Y8530000D03*
X12205000Y8530000D03*
X10745000Y8530000D03*
X16585000Y6280000D03*
X15125000Y6280000D03*
X13665000Y6280000D03*
X12205000Y6280000D03*
X10745000Y6280000D03*
D13*
X11165000Y12205000D03*
X12165000Y12205000D03*
X13165000Y12205000D03*
X14165000Y12205000D03*
X15165000Y12205000D03*
X16165000Y12205000D03*
X16165000Y2605000D03*
X15165000Y2605000D03*
X14165000Y2605000D03*
X13165000Y2605000D03*
X12165000Y2605000D03*
X11165000Y2605000D03*
G04 #@! TD*
G04 #@! TO.C,D1*
G36*
G01*
X51915000Y7925000D02*
X51915000Y8405000D01*
G75*
G02*
X51975000Y8465000I60000J0D01*
G01*
X52455000Y8465000D01*
G75*
G02*
X52515000Y8405000I0J-60000D01*
G01*
X52515000Y7925000D01*
G75*
G02*
X52455000Y7865000I-60000J0D01*
G01*
X51975000Y7865000D01*
G75*
G02*
X51915000Y7925000I0J60000D01*
G01*
G37*
G36*
G01*
X51915000Y5725000D02*
X51915000Y6205000D01*
G75*
G02*
X51975000Y6265000I60000J0D01*
G01*
X52455000Y6265000D01*
G75*
G02*
X52515000Y6205000I0J-60000D01*
G01*
X52515000Y5725000D01*
G75*
G02*
X52455000Y5665000I-60000J0D01*
G01*
X51975000Y5665000D01*
G75*
G02*
X51915000Y5725000I0J60000D01*
G01*
G37*
G04 #@! TD*
D12*
G04 #@! TO.C,U1*
X7975000Y17545000D03*
X6515000Y17545000D03*
X5055000Y17545000D03*
X3595000Y17545000D03*
X2135000Y17545000D03*
X7975000Y15295000D03*
X6515000Y15295000D03*
X5055000Y15295000D03*
X3595000Y15295000D03*
X2135000Y15295000D03*
D13*
X2555000Y21220000D03*
X3555000Y21220000D03*
X4555000Y21220000D03*
X5555000Y21220000D03*
X6555000Y21220000D03*
X7555000Y21220000D03*
X7555000Y11620000D03*
X6555000Y11620000D03*
X5555000Y11620000D03*
X4555000Y11620000D03*
X3555000Y11620000D03*
X2555000Y11620000D03*
G04 #@! TD*
G04 #@! TO.C,R33*
G36*
G01*
X935000Y43005000D02*
X935000Y43785000D01*
G75*
G02*
X1005000Y43855000I70000J0D01*
G01*
X1565000Y43855000D01*
G75*
G02*
X1635000Y43785000I0J-70000D01*
G01*
X1635000Y43005000D01*
G75*
G02*
X1565000Y42935000I-70000J0D01*
G01*
X1005000Y42935000D01*
G75*
G02*
X935000Y43005000I0J70000D01*
G01*
G37*
G36*
G01*
X2535000Y43005000D02*
X2535000Y43785000D01*
G75*
G02*
X2605000Y43855000I70000J0D01*
G01*
X3165000Y43855000D01*
G75*
G02*
X3235000Y43785000I0J-70000D01*
G01*
X3235000Y43005000D01*
G75*
G02*
X3165000Y42935000I-70000J0D01*
G01*
X2605000Y42935000D01*
G75*
G02*
X2535000Y43005000I0J70000D01*
G01*
G37*
G04 #@! TD*
G04 #@! TO.C,F1*
G36*
G01*
X24285000Y17069990D02*
X24285000Y17759990D01*
G75*
G02*
X24515000Y17989990I230000J0D01*
G01*
X25855000Y17989990D01*
G75*
G02*
X26085000Y17759990I0J-230000D01*
G01*
X26085000Y17069990D01*
G75*
G02*
X25855000Y16839990I-230000J0D01*
G01*
X24515000Y16839990D01*
G75*
G02*
X24285000Y17069990I0J230000D01*
G01*
G37*
G36*
G01*
X24285000Y19970010D02*
X24285000Y20660010D01*
G75*
G02*
X24515000Y20890010I230000J0D01*
G01*
X25855000Y20890010D01*
G75*
G02*
X26085000Y20660010I0J-230000D01*
G01*
X26085000Y19970010D01*
G75*
G02*
X25855000Y19740010I-230000J0D01*
G01*
X24515000Y19740010D01*
G75*
G02*
X24285000Y19970010I0J230000D01*
G01*
G37*
G04 #@! TD*
D14*
G04 #@! TO.C,M7*
X93629998Y69982503D03*
G04 #@! TD*
G04 #@! TO.C,R14*
G36*
G01*
X10495000Y2455000D02*
X10495000Y1675000D01*
G75*
G02*
X10425000Y1605000I-70000J0D01*
G01*
X9865000Y1605000D01*
G75*
G02*
X9795000Y1675000I0J70000D01*
G01*
X9795000Y2455000D01*
G75*
G02*
X9865000Y2525000I70000J0D01*
G01*
X10425000Y2525000D01*
G75*
G02*
X10495000Y2455000I0J-70000D01*
G01*
G37*
G36*
G01*
X8895000Y2455000D02*
X8895000Y1675000D01*
G75*
G02*
X8825000Y1605000I-70000J0D01*
G01*
X8265000Y1605000D01*
G75*
G02*
X8195000Y1675000I0J70000D01*
G01*
X8195000Y2455000D01*
G75*
G02*
X8265000Y2525000I70000J0D01*
G01*
X8825000Y2525000D01*
G75*
G02*
X8895000Y2455000I0J-70000D01*
G01*
G37*
G04 #@! TD*
G04 #@! TO.C,C12*
G36*
G01*
X9465000Y21485001D02*
X10145000Y21485001D01*
G75*
G02*
X10230000Y21400001I0J-85000D01*
G01*
X10230000Y20720001D01*
G75*
G02*
X10145000Y20635001I-85000J0D01*
G01*
X9465000Y20635001D01*
G75*
G02*
X9380000Y20720001I0J85000D01*
G01*
X9380000Y21400001D01*
G75*
G02*
X9465000Y21485001I85000J0D01*
G01*
G37*
G36*
G01*
X9465000Y19904999D02*
X10145000Y19904999D01*
G75*
G02*
X10230000Y19819999I0J-85000D01*
G01*
X10230000Y19139999D01*
G75*
G02*
X10145000Y19054999I-85000J0D01*
G01*
X9465000Y19054999D01*
G75*
G02*
X9380000Y19139999I0J85000D01*
G01*
X9380000Y19819999D01*
G75*
G02*
X9465000Y19904999I85000J0D01*
G01*
G37*
G04 #@! TD*
G04 #@! TO.C,U9*
G36*
G01*
X1005000Y35480000D02*
X1005000Y35780000D01*
G75*
G02*
X1155000Y35930000I150000J0D01*
G01*
X2805000Y35930000D01*
G75*
G02*
X2955000Y35780000I0J-150000D01*
G01*
X2955000Y35480000D01*
G75*
G02*
X2805000Y35330000I-150000J0D01*
G01*
X1155000Y35330000D01*
G75*
G02*
X1005000Y35480000I0J150000D01*
G01*
G37*
G36*
G01*
X1005000Y36750000D02*
X1005000Y37050000D01*
G75*
G02*
X1155000Y37200000I150000J0D01*
G01*
X2805000Y37200000D01*
G75*
G02*
X2955000Y37050000I0J-150000D01*
G01*
X2955000Y36750000D01*
G75*
G02*
X2805000Y36600000I-150000J0D01*
G01*
X1155000Y36600000D01*
G75*
G02*
X1005000Y36750000I0J150000D01*
G01*
G37*
G36*
G01*
X1005000Y38020000D02*
X1005000Y38320000D01*
G75*
G02*
X1155000Y38470000I150000J0D01*
G01*
X2805000Y38470000D01*
G75*
G02*
X2955000Y38320000I0J-150000D01*
G01*
X2955000Y38020000D01*
G75*
G02*
X2805000Y37870000I-150000J0D01*
G01*
X1155000Y37870000D01*
G75*
G02*
X1005000Y38020000I0J150000D01*
G01*
G37*
G36*
G01*
X1005000Y39290000D02*
X1005000Y39590000D01*
G75*
G02*
X1155000Y39740000I150000J0D01*
G01*
X2805000Y39740000D01*
G75*
G02*
X2955000Y39590000I0J-150000D01*
G01*
X2955000Y39290000D01*
G75*
G02*
X2805000Y39140000I-150000J0D01*
G01*
X1155000Y39140000D01*
G75*
G02*
X1005000Y39290000I0J150000D01*
G01*
G37*
G36*
G01*
X5955000Y39290000D02*
X5955000Y39590000D01*
G75*
G02*
X6105000Y39740000I150000J0D01*
G01*
X7755000Y39740000D01*
G75*
G02*
X7905000Y39590000I0J-150000D01*
G01*
X7905000Y39290000D01*
G75*
G02*
X7755000Y39140000I-150000J0D01*
G01*
X6105000Y39140000D01*
G75*
G02*
X5955000Y39290000I0J150000D01*
G01*
G37*
G36*
G01*
X5955000Y38020000D02*
X5955000Y38320000D01*
G75*
G02*
X6105000Y38470000I150000J0D01*
G01*
X7755000Y38470000D01*
G75*
G02*
X7905000Y38320000I0J-150000D01*
G01*
X7905000Y38020000D01*
G75*
G02*
X7755000Y37870000I-150000J0D01*
G01*
X6105000Y37870000D01*
G75*
G02*
X5955000Y38020000I0J150000D01*
G01*
G37*
G36*
G01*
X5955000Y36750000D02*
X5955000Y37050000D01*
G75*
G02*
X6105000Y37200000I150000J0D01*
G01*
X7755000Y37200000D01*
G75*
G02*
X7905000Y37050000I0J-150000D01*
G01*
X7905000Y36750000D01*
G75*
G02*
X7755000Y36600000I-150000J0D01*
G01*
X6105000Y36600000D01*
G75*
G02*
X5955000Y36750000I0J150000D01*
G01*
G37*
G36*
G01*
X5955000Y35480000D02*
X5955000Y35780000D01*
G75*
G02*
X6105000Y35930000I150000J0D01*
G01*
X7755000Y35930000D01*
G75*
G02*
X7905000Y35780000I0J-150000D01*
G01*
X7905000Y35480000D01*
G75*
G02*
X7755000Y35330000I-150000J0D01*
G01*
X6105000Y35330000D01*
G75*
G02*
X5955000Y35480000I0J150000D01*
G01*
G37*
G04 #@! TD*
G04 #@! TO.C,R30*
G36*
G01*
X935000Y40525000D02*
X935000Y41305000D01*
G75*
G02*
X1005000Y41375000I70000J0D01*
G01*
X1565000Y41375000D01*
G75*
G02*
X1635000Y41305000I0J-70000D01*
G01*
X1635000Y40525000D01*
G75*
G02*
X1565000Y40455000I-70000J0D01*
G01*
X1005000Y40455000D01*
G75*
G02*
X935000Y40525000I0J70000D01*
G01*
G37*
G36*
G01*
X2535000Y40525000D02*
X2535000Y41305000D01*
G75*
G02*
X2605000Y41375000I70000J0D01*
G01*
X3165000Y41375000D01*
G75*
G02*
X3235000Y41305000I0J-70000D01*
G01*
X3235000Y40525000D01*
G75*
G02*
X3165000Y40455000I-70000J0D01*
G01*
X2605000Y40455000D01*
G75*
G02*
X2535000Y40525000I0J70000D01*
G01*
G37*
G04 #@! TD*
G04 #@! TO.C,R3*
G36*
G01*
X20135000Y7525000D02*
X20135000Y8305000D01*
G75*
G02*
X20205000Y8375000I70000J0D01*
G01*
X20765000Y8375000D01*
G75*
G02*
X20835000Y8305000I0J-70000D01*
G01*
X20835000Y7525000D01*
G75*
G02*
X20765000Y7455000I-70000J0D01*
G01*
X20205000Y7455000D01*
G75*
G02*
X20135000Y7525000I0J70000D01*
G01*
G37*
G36*
G01*
X21735000Y7525000D02*
X21735000Y8305000D01*
G75*
G02*
X21805000Y8375000I70000J0D01*
G01*
X22365000Y8375000D01*
G75*
G02*
X22435000Y8305000I0J-70000D01*
G01*
X22435000Y7525000D01*
G75*
G02*
X22365000Y7455000I-70000J0D01*
G01*
X21805000Y7455000D01*
G75*
G02*
X21735000Y7525000I0J70000D01*
G01*
G37*
G04 #@! TD*
G04 #@! TO.C,R35*
G36*
G01*
X107345022Y59270000D02*
X107345022Y58020000D01*
G75*
G02*
X107245022Y57920000I-100000J0D01*
G01*
X106445022Y57920000D01*
G75*
G02*
X106345022Y58020000I0J100000D01*
G01*
X106345022Y59270000D01*
G75*
G02*
X106445022Y59370000I100000J0D01*
G01*
X107245022Y59370000D01*
G75*
G02*
X107345022Y59270000I0J-100000D01*
G01*
G37*
G36*
G01*
X105445000Y59270000D02*
X105445000Y58020000D01*
G75*
G02*
X105345000Y57920000I-100000J0D01*
G01*
X104545000Y57920000D01*
G75*
G02*
X104445000Y58020000I0J100000D01*
G01*
X104445000Y59270000D01*
G75*
G02*
X104545000Y59370000I100000J0D01*
G01*
X105345000Y59370000D01*
G75*
G02*
X105445000Y59270000I0J-100000D01*
G01*
G37*
G04 #@! TD*
G04 #@! TO.C,R13*
G36*
G01*
X935000Y31305000D02*
X935000Y32085000D01*
G75*
G02*
X1005000Y32155000I70000J0D01*
G01*
X1565000Y32155000D01*
G75*
G02*
X1635000Y32085000I0J-70000D01*
G01*
X1635000Y31305000D01*
G75*
G02*
X1565000Y31235000I-70000J0D01*
G01*
X1005000Y31235000D01*
G75*
G02*
X935000Y31305000I0J70000D01*
G01*
G37*
G36*
G01*
X2535000Y31305000D02*
X2535000Y32085000D01*
G75*
G02*
X2605000Y32155000I70000J0D01*
G01*
X3165000Y32155000D01*
G75*
G02*
X3235000Y32085000I0J-70000D01*
G01*
X3235000Y31305000D01*
G75*
G02*
X3165000Y31235000I-70000J0D01*
G01*
X2605000Y31235000D01*
G75*
G02*
X2535000Y31305000I0J70000D01*
G01*
G37*
G04 #@! TD*
G04 #@! TO.C,F2*
G36*
G01*
X21709990Y14815000D02*
X22399990Y14815000D01*
G75*
G02*
X22629990Y14585000I0J-230000D01*
G01*
X22629990Y13245000D01*
G75*
G02*
X22399990Y13015000I-230000J0D01*
G01*
X21709990Y13015000D01*
G75*
G02*
X21479990Y13245000I0J230000D01*
G01*
X21479990Y14585000D01*
G75*
G02*
X21709990Y14815000I230000J0D01*
G01*
G37*
G36*
G01*
X24610010Y14815000D02*
X25300010Y14815000D01*
G75*
G02*
X25530010Y14585000I0J-230000D01*
G01*
X25530010Y13245000D01*
G75*
G02*
X25300010Y13015000I-230000J0D01*
G01*
X24610010Y13015000D01*
G75*
G02*
X24380010Y13245000I0J230000D01*
G01*
X24380010Y14585000D01*
G75*
G02*
X24610010Y14815000I230000J0D01*
G01*
G37*
G04 #@! TD*
G04 #@! TO.C,C25*
G36*
G01*
X12949999Y13939993D02*
X12949999Y14619993D01*
G75*
G02*
X13034999Y14704993I85000J0D01*
G01*
X13714999Y14704993D01*
G75*
G02*
X13799999Y14619993I0J-85000D01*
G01*
X13799999Y13939993D01*
G75*
G02*
X13714999Y13854993I-85000J0D01*
G01*
X13034999Y13854993D01*
G75*
G02*
X12949999Y13939993I0J85000D01*
G01*
G37*
G36*
G01*
X14530001Y13939993D02*
X14530001Y14619993D01*
G75*
G02*
X14615001Y14704993I85000J0D01*
G01*
X15295001Y14704993D01*
G75*
G02*
X15380001Y14619993I0J-85000D01*
G01*
X15380001Y13939993D01*
G75*
G02*
X15295001Y13854993I-85000J0D01*
G01*
X14615001Y13854993D01*
G75*
G02*
X14530001Y13939993I0J85000D01*
G01*
G37*
G04 #@! TD*
G04 #@! TO.C,R38*
G36*
G01*
X103895022Y59270000D02*
X103895022Y58020000D01*
G75*
G02*
X103795022Y57920000I-100000J0D01*
G01*
X102995022Y57920000D01*
G75*
G02*
X102895022Y58020000I0J100000D01*
G01*
X102895022Y59270000D01*
G75*
G02*
X102995022Y59370000I100000J0D01*
G01*
X103795022Y59370000D01*
G75*
G02*
X103895022Y59270000I0J-100000D01*
G01*
G37*
G36*
G01*
X101995000Y59270000D02*
X101995000Y58020000D01*
G75*
G02*
X101895000Y57920000I-100000J0D01*
G01*
X101095000Y57920000D01*
G75*
G02*
X100995000Y58020000I0J100000D01*
G01*
X100995000Y59270000D01*
G75*
G02*
X101095000Y59370000I100000J0D01*
G01*
X101895000Y59370000D01*
G75*
G02*
X101995000Y59270000I0J-100000D01*
G01*
G37*
G04 #@! TD*
G04 #@! TO.C,R36*
G36*
G01*
X107345022Y61770000D02*
X107345022Y60520000D01*
G75*
G02*
X107245022Y60420000I-100000J0D01*
G01*
X106445022Y60420000D01*
G75*
G02*
X106345022Y60520000I0J100000D01*
G01*
X106345022Y61770000D01*
G75*
G02*
X106445022Y61870000I100000J0D01*
G01*
X107245022Y61870000D01*
G75*
G02*
X107345022Y61770000I0J-100000D01*
G01*
G37*
G36*
G01*
X105445000Y61770000D02*
X105445000Y60520000D01*
G75*
G02*
X105345000Y60420000I-100000J0D01*
G01*
X104545000Y60420000D01*
G75*
G02*
X104445000Y60520000I0J100000D01*
G01*
X104445000Y61770000D01*
G75*
G02*
X104545000Y61870000I100000J0D01*
G01*
X105345000Y61870000D01*
G75*
G02*
X105445000Y61770000I0J-100000D01*
G01*
G37*
G04 #@! TD*
G04 #@! TO.C,Q9*
G36*
G01*
X34995000Y58085000D02*
X34995000Y57385000D01*
G75*
G02*
X34745000Y57135000I-250000J0D01*
G01*
X33045000Y57135000D01*
G75*
G02*
X32795000Y57385000I0J250000D01*
G01*
X32795000Y58085000D01*
G75*
G02*
X33045000Y58335000I250000J0D01*
G01*
X34745000Y58335000D01*
G75*
G02*
X34995000Y58085000I0J-250000D01*
G01*
G37*
G36*
G01*
X30795000Y55055000D02*
X30795000Y52805000D01*
G75*
G02*
X30545000Y52555000I-250000J0D01*
G01*
X27995000Y52555000D01*
G75*
G02*
X27745000Y52805000I0J250000D01*
G01*
X27745000Y55055000D01*
G75*
G02*
X27995000Y55305000I250000J0D01*
G01*
X30545000Y55305000D01*
G75*
G02*
X30795000Y55055000I0J-250000D01*
G01*
G37*
G36*
G01*
X30795000Y58105000D02*
X30795000Y55855000D01*
G75*
G02*
X30545000Y55605000I-250000J0D01*
G01*
X27995000Y55605000D01*
G75*
G02*
X27745000Y55855000I0J250000D01*
G01*
X27745000Y58105000D01*
G75*
G02*
X27995000Y58355000I250000J0D01*
G01*
X30545000Y58355000D01*
G75*
G02*
X30795000Y58105000I0J-250000D01*
G01*
G37*
G36*
G01*
X27445000Y55055000D02*
X27445000Y52805000D01*
G75*
G02*
X27195000Y52555000I-250000J0D01*
G01*
X24645000Y52555000D01*
G75*
G02*
X24395000Y52805000I0J250000D01*
G01*
X24395000Y55055000D01*
G75*
G02*
X24645000Y55305000I250000J0D01*
G01*
X27195000Y55305000D01*
G75*
G02*
X27445000Y55055000I0J-250000D01*
G01*
G37*
G36*
G01*
X27445000Y58105000D02*
X27445000Y55855000D01*
G75*
G02*
X27195000Y55605000I-250000J0D01*
G01*
X24645000Y55605000D01*
G75*
G02*
X24395000Y55855000I0J250000D01*
G01*
X24395000Y58105000D01*
G75*
G02*
X24645000Y58355000I250000J0D01*
G01*
X27195000Y58355000D01*
G75*
G02*
X27445000Y58105000I0J-250000D01*
G01*
G37*
G36*
G01*
X34995000Y53525000D02*
X34995000Y52825000D01*
G75*
G02*
X34745000Y52575000I-250000J0D01*
G01*
X33045000Y52575000D01*
G75*
G02*
X32795000Y52825000I0J250000D01*
G01*
X32795000Y53525000D01*
G75*
G02*
X33045000Y53775000I250000J0D01*
G01*
X34745000Y53775000D01*
G75*
G02*
X34995000Y53525000I0J-250000D01*
G01*
G37*
G04 #@! TD*
G04 #@! TO.C,R29*
G36*
G01*
X935000Y33775000D02*
X935000Y34555000D01*
G75*
G02*
X1005000Y34625000I70000J0D01*
G01*
X1565000Y34625000D01*
G75*
G02*
X1635000Y34555000I0J-70000D01*
G01*
X1635000Y33775000D01*
G75*
G02*
X1565000Y33705000I-70000J0D01*
G01*
X1005000Y33705000D01*
G75*
G02*
X935000Y33775000I0J70000D01*
G01*
G37*
G36*
G01*
X2535000Y33775000D02*
X2535000Y34555000D01*
G75*
G02*
X2605000Y34625000I70000J0D01*
G01*
X3165000Y34625000D01*
G75*
G02*
X3235000Y34555000I0J-70000D01*
G01*
X3235000Y33775000D01*
G75*
G02*
X3165000Y33705000I-70000J0D01*
G01*
X2605000Y33705000D01*
G75*
G02*
X2535000Y33775000I0J70000D01*
G01*
G37*
G04 #@! TD*
G04 #@! TO.C,Q11*
G36*
G01*
X35020000Y41855000D02*
X35020000Y41155000D01*
G75*
G02*
X34770000Y40905000I-250000J0D01*
G01*
X33070000Y40905000D01*
G75*
G02*
X32820000Y41155000I0J250000D01*
G01*
X32820000Y41855000D01*
G75*
G02*
X33070000Y42105000I250000J0D01*
G01*
X34770000Y42105000D01*
G75*
G02*
X35020000Y41855000I0J-250000D01*
G01*
G37*
G36*
G01*
X30820000Y38825000D02*
X30820000Y36575000D01*
G75*
G02*
X30570000Y36325000I-250000J0D01*
G01*
X28020000Y36325000D01*
G75*
G02*
X27770000Y36575000I0J250000D01*
G01*
X27770000Y38825000D01*
G75*
G02*
X28020000Y39075000I250000J0D01*
G01*
X30570000Y39075000D01*
G75*
G02*
X30820000Y38825000I0J-250000D01*
G01*
G37*
G36*
G01*
X30820000Y41875000D02*
X30820000Y39625000D01*
G75*
G02*
X30570000Y39375000I-250000J0D01*
G01*
X28020000Y39375000D01*
G75*
G02*
X27770000Y39625000I0J250000D01*
G01*
X27770000Y41875000D01*
G75*
G02*
X28020000Y42125000I250000J0D01*
G01*
X30570000Y42125000D01*
G75*
G02*
X30820000Y41875000I0J-250000D01*
G01*
G37*
G36*
G01*
X27470000Y38825000D02*
X27470000Y36575000D01*
G75*
G02*
X27220000Y36325000I-250000J0D01*
G01*
X24670000Y36325000D01*
G75*
G02*
X24420000Y36575000I0J250000D01*
G01*
X24420000Y38825000D01*
G75*
G02*
X24670000Y39075000I250000J0D01*
G01*
X27220000Y39075000D01*
G75*
G02*
X27470000Y38825000I0J-250000D01*
G01*
G37*
G36*
G01*
X27470000Y41875000D02*
X27470000Y39625000D01*
G75*
G02*
X27220000Y39375000I-250000J0D01*
G01*
X24670000Y39375000D01*
G75*
G02*
X24420000Y39625000I0J250000D01*
G01*
X24420000Y41875000D01*
G75*
G02*
X24670000Y42125000I250000J0D01*
G01*
X27220000Y42125000D01*
G75*
G02*
X27470000Y41875000I0J-250000D01*
G01*
G37*
G36*
G01*
X35020000Y37295000D02*
X35020000Y36595000D01*
G75*
G02*
X34770000Y36345000I-250000J0D01*
G01*
X33070000Y36345000D01*
G75*
G02*
X32820000Y36595000I0J250000D01*
G01*
X32820000Y37295000D01*
G75*
G02*
X33070000Y37545000I250000J0D01*
G01*
X34770000Y37545000D01*
G75*
G02*
X35020000Y37295000I0J-250000D01*
G01*
G37*
G04 #@! TD*
G04 #@! TO.C,D5*
G36*
G01*
X4855000Y31615000D02*
X4855000Y32635000D01*
G75*
G02*
X4945000Y32725000I90000J0D01*
G01*
X5665000Y32725000D01*
G75*
G02*
X5755000Y32635000I0J-90000D01*
G01*
X5755000Y31615000D01*
G75*
G02*
X5665000Y31525000I-90000J0D01*
G01*
X4945000Y31525000D01*
G75*
G02*
X4855000Y31615000I0J90000D01*
G01*
G37*
G36*
G01*
X8155000Y31615000D02*
X8155000Y32635000D01*
G75*
G02*
X8245000Y32725000I90000J0D01*
G01*
X8965000Y32725000D01*
G75*
G02*
X9055000Y32635000I0J-90000D01*
G01*
X9055000Y31615000D01*
G75*
G02*
X8965000Y31525000I-90000J0D01*
G01*
X8245000Y31525000D01*
G75*
G02*
X8155000Y31615000I0J90000D01*
G01*
G37*
G04 #@! TD*
G04 #@! TO.C,R12*
G36*
G01*
X955000Y24435000D02*
X955000Y25215000D01*
G75*
G02*
X1025000Y25285000I70000J0D01*
G01*
X1585000Y25285000D01*
G75*
G02*
X1655000Y25215000I0J-70000D01*
G01*
X1655000Y24435000D01*
G75*
G02*
X1585000Y24365000I-70000J0D01*
G01*
X1025000Y24365000D01*
G75*
G02*
X955000Y24435000I0J70000D01*
G01*
G37*
G36*
G01*
X2555000Y24435000D02*
X2555000Y25215000D01*
G75*
G02*
X2625000Y25285000I70000J0D01*
G01*
X3185000Y25285000D01*
G75*
G02*
X3255000Y25215000I0J-70000D01*
G01*
X3255000Y24435000D01*
G75*
G02*
X3185000Y24365000I-70000J0D01*
G01*
X2625000Y24365000D01*
G75*
G02*
X2555000Y24435000I0J70000D01*
G01*
G37*
G04 #@! TD*
G04 #@! TO.C,R5*
G36*
G01*
X103425000Y30555000D02*
X102645000Y30555000D01*
G75*
G02*
X102575000Y30625000I0J70000D01*
G01*
X102575000Y31185000D01*
G75*
G02*
X102645000Y31255000I70000J0D01*
G01*
X103425000Y31255000D01*
G75*
G02*
X103495000Y31185000I0J-70000D01*
G01*
X103495000Y30625000D01*
G75*
G02*
X103425000Y30555000I-70000J0D01*
G01*
G37*
G36*
G01*
X103425000Y32155000D02*
X102645000Y32155000D01*
G75*
G02*
X102575000Y32225000I0J70000D01*
G01*
X102575000Y32785000D01*
G75*
G02*
X102645000Y32855000I70000J0D01*
G01*
X103425000Y32855000D01*
G75*
G02*
X103495000Y32785000I0J-70000D01*
G01*
X103495000Y32225000D01*
G75*
G02*
X103425000Y32155000I-70000J0D01*
G01*
G37*
G04 #@! TD*
G04 #@! TO.C,R6*
G36*
G01*
X89225000Y68775000D02*
X89225000Y67995000D01*
G75*
G02*
X89155000Y67925000I-70000J0D01*
G01*
X88595000Y67925000D01*
G75*
G02*
X88525000Y67995000I0J70000D01*
G01*
X88525000Y68775000D01*
G75*
G02*
X88595000Y68845000I70000J0D01*
G01*
X89155000Y68845000D01*
G75*
G02*
X89225000Y68775000I0J-70000D01*
G01*
G37*
G36*
G01*
X87625000Y68775000D02*
X87625000Y67995000D01*
G75*
G02*
X87555000Y67925000I-70000J0D01*
G01*
X86995000Y67925000D01*
G75*
G02*
X86925000Y67995000I0J70000D01*
G01*
X86925000Y68775000D01*
G75*
G02*
X86995000Y68845000I70000J0D01*
G01*
X87555000Y68845000D01*
G75*
G02*
X87625000Y68775000I0J-70000D01*
G01*
G37*
G04 #@! TD*
G04 #@! TO.C,R2*
G36*
G01*
X24455000Y7525000D02*
X24455000Y8305000D01*
G75*
G02*
X24525000Y8375000I70000J0D01*
G01*
X25085000Y8375000D01*
G75*
G02*
X25155000Y8305000I0J-70000D01*
G01*
X25155000Y7525000D01*
G75*
G02*
X25085000Y7455000I-70000J0D01*
G01*
X24525000Y7455000D01*
G75*
G02*
X24455000Y7525000I0J70000D01*
G01*
G37*
G36*
G01*
X26055000Y7525000D02*
X26055000Y8305000D01*
G75*
G02*
X26125000Y8375000I70000J0D01*
G01*
X26685000Y8375000D01*
G75*
G02*
X26755000Y8305000I0J-70000D01*
G01*
X26755000Y7525000D01*
G75*
G02*
X26685000Y7455000I-70000J0D01*
G01*
X26125000Y7455000D01*
G75*
G02*
X26055000Y7525000I0J70000D01*
G01*
G37*
G04 #@! TD*
G04 #@! TO.C,Q7*
G36*
G01*
X9355000Y74465000D02*
X10055000Y74465000D01*
G75*
G02*
X10305000Y74215000I0J-250000D01*
G01*
X10305000Y72515000D01*
G75*
G02*
X10055000Y72265000I-250000J0D01*
G01*
X9355000Y72265000D01*
G75*
G02*
X9105000Y72515000I0J250000D01*
G01*
X9105000Y74215000D01*
G75*
G02*
X9355000Y74465000I250000J0D01*
G01*
G37*
G36*
G01*
X12385000Y70265000D02*
X14635000Y70265000D01*
G75*
G02*
X14885000Y70015000I0J-250000D01*
G01*
X14885000Y67465000D01*
G75*
G02*
X14635000Y67215000I-250000J0D01*
G01*
X12385000Y67215000D01*
G75*
G02*
X12135000Y67465000I0J250000D01*
G01*
X12135000Y70015000D01*
G75*
G02*
X12385000Y70265000I250000J0D01*
G01*
G37*
G36*
G01*
X9335000Y70265000D02*
X11585000Y70265000D01*
G75*
G02*
X11835000Y70015000I0J-250000D01*
G01*
X11835000Y67465000D01*
G75*
G02*
X11585000Y67215000I-250000J0D01*
G01*
X9335000Y67215000D01*
G75*
G02*
X9085000Y67465000I0J250000D01*
G01*
X9085000Y70015000D01*
G75*
G02*
X9335000Y70265000I250000J0D01*
G01*
G37*
G36*
G01*
X12385000Y66915000D02*
X14635000Y66915000D01*
G75*
G02*
X14885000Y66665000I0J-250000D01*
G01*
X14885000Y64115000D01*
G75*
G02*
X14635000Y63865000I-250000J0D01*
G01*
X12385000Y63865000D01*
G75*
G02*
X12135000Y64115000I0J250000D01*
G01*
X12135000Y66665000D01*
G75*
G02*
X12385000Y66915000I250000J0D01*
G01*
G37*
G36*
G01*
X9335000Y66915000D02*
X11585000Y66915000D01*
G75*
G02*
X11835000Y66665000I0J-250000D01*
G01*
X11835000Y64115000D01*
G75*
G02*
X11585000Y63865000I-250000J0D01*
G01*
X9335000Y63865000D01*
G75*
G02*
X9085000Y64115000I0J250000D01*
G01*
X9085000Y66665000D01*
G75*
G02*
X9335000Y66915000I250000J0D01*
G01*
G37*
G36*
G01*
X13915000Y74465000D02*
X14615000Y74465000D01*
G75*
G02*
X14865000Y74215000I0J-250000D01*
G01*
X14865000Y72515000D01*
G75*
G02*
X14615000Y72265000I-250000J0D01*
G01*
X13915000Y72265000D01*
G75*
G02*
X13665000Y72515000I0J250000D01*
G01*
X13665000Y74215000D01*
G75*
G02*
X13915000Y74465000I250000J0D01*
G01*
G37*
G04 #@! TD*
G04 #@! TO.C,U8*
G36*
G01*
X990000Y26265000D02*
X990000Y26565000D01*
G75*
G02*
X1140000Y26715000I150000J0D01*
G01*
X2790000Y26715000D01*
G75*
G02*
X2940000Y26565000I0J-150000D01*
G01*
X2940000Y26265000D01*
G75*
G02*
X2790000Y26115000I-150000J0D01*
G01*
X1140000Y26115000D01*
G75*
G02*
X990000Y26265000I0J150000D01*
G01*
G37*
G36*
G01*
X990000Y27535000D02*
X990000Y27835000D01*
G75*
G02*
X1140000Y27985000I150000J0D01*
G01*
X2790000Y27985000D01*
G75*
G02*
X2940000Y27835000I0J-150000D01*
G01*
X2940000Y27535000D01*
G75*
G02*
X2790000Y27385000I-150000J0D01*
G01*
X1140000Y27385000D01*
G75*
G02*
X990000Y27535000I0J150000D01*
G01*
G37*
G36*
G01*
X990000Y28805000D02*
X990000Y29105000D01*
G75*
G02*
X1140000Y29255000I150000J0D01*
G01*
X2790000Y29255000D01*
G75*
G02*
X2940000Y29105000I0J-150000D01*
G01*
X2940000Y28805000D01*
G75*
G02*
X2790000Y28655000I-150000J0D01*
G01*
X1140000Y28655000D01*
G75*
G02*
X990000Y28805000I0J150000D01*
G01*
G37*
G36*
G01*
X990000Y30075000D02*
X990000Y30375000D01*
G75*
G02*
X1140000Y30525000I150000J0D01*
G01*
X2790000Y30525000D01*
G75*
G02*
X2940000Y30375000I0J-150000D01*
G01*
X2940000Y30075000D01*
G75*
G02*
X2790000Y29925000I-150000J0D01*
G01*
X1140000Y29925000D01*
G75*
G02*
X990000Y30075000I0J150000D01*
G01*
G37*
G36*
G01*
X5940000Y30075000D02*
X5940000Y30375000D01*
G75*
G02*
X6090000Y30525000I150000J0D01*
G01*
X7740000Y30525000D01*
G75*
G02*
X7890000Y30375000I0J-150000D01*
G01*
X7890000Y30075000D01*
G75*
G02*
X7740000Y29925000I-150000J0D01*
G01*
X6090000Y29925000D01*
G75*
G02*
X5940000Y30075000I0J150000D01*
G01*
G37*
G36*
G01*
X5940000Y28805000D02*
X5940000Y29105000D01*
G75*
G02*
X6090000Y29255000I150000J0D01*
G01*
X7740000Y29255000D01*
G75*
G02*
X7890000Y29105000I0J-150000D01*
G01*
X7890000Y28805000D01*
G75*
G02*
X7740000Y28655000I-150000J0D01*
G01*
X6090000Y28655000D01*
G75*
G02*
X5940000Y28805000I0J150000D01*
G01*
G37*
G36*
G01*
X5940000Y27535000D02*
X5940000Y27835000D01*
G75*
G02*
X6090000Y27985000I150000J0D01*
G01*
X7740000Y27985000D01*
G75*
G02*
X7890000Y27835000I0J-150000D01*
G01*
X7890000Y27535000D01*
G75*
G02*
X7740000Y27385000I-150000J0D01*
G01*
X6090000Y27385000D01*
G75*
G02*
X5940000Y27535000I0J150000D01*
G01*
G37*
G36*
G01*
X5940000Y26265000D02*
X5940000Y26565000D01*
G75*
G02*
X6090000Y26715000I150000J0D01*
G01*
X7740000Y26715000D01*
G75*
G02*
X7890000Y26565000I0J-150000D01*
G01*
X7890000Y26265000D01*
G75*
G02*
X7740000Y26115000I-150000J0D01*
G01*
X6090000Y26115000D01*
G75*
G02*
X5940000Y26265000I0J150000D01*
G01*
G37*
G04 #@! TD*
M02*
