M48
; DRILL file {KiCad 8.0.8-8.0.8-0~ubuntu24.04.1} date 2025-02-12T18:00:41+0000
; FORMAT={2:4/ absolute / inch / suppress leading zeros}
; #@! TF.CreationDate,2025-02-12T18:00:41+00:00
; #@! TF.GenerationSoftware,Kicad,Pcbnew,8.0.8-8.0.8-0~ubuntu24.04.1
; #@! TF.FileFunction,MixedPlating,1,4
FMAT,2
INCH,TZ
; #@! TA.AperFunction,Plated,PTH,ComponentDrill
T1C0.0118
; #@! TA.AperFunction,Plated,PTH,ComponentDrill
T2C0.0118
; #@! TA.AperFunction,Plated,PTH,ViaDrill
T3C0.0157
; #@! TA.AperFunction,Plated,PTH,ComponentDrill
T4C0.0157
; #@! TA.AperFunction,Plated,PTH,ComponentDrill
T5C0.0276
; #@! TA.AperFunction,Plated,PTH,ComponentDrill
T6C0.0295
; #@! TA.AperFunction,Plated,PTH,ComponentDrill
T7C0.0320
; #@! TA.AperFunction,Plated,PTH,ComponentDrill
T8C0.0394
; #@! TA.AperFunction,Plated,PTH,ComponentDrill
T9C0.0689
; #@! TA.AperFunction,Plated,PTH,ComponentDrill
T10C0.0866
; #@! TA.AperFunction,NonPlated,NPTH,ComponentDrill
T11C0.0591
; #@! TA.AperFunction,NonPlated,NPTH,ComponentDrill
T12C0.1181
%
G90
G05
T1
X36222Y28487
X36252Y29885
X36341Y27985
X36685Y28192
T2
X11520Y29518
X11520Y29124
X11520Y28730
X11520Y28337
X17516Y2654
X17516Y2260
X19049Y17947
X19049Y17632
X19049Y17317
X19049Y17002
X19049Y16687
X19049Y16372
X19049Y16057
X19049Y15742
X19049Y15427
X19049Y15112
X19049Y14797
X19049Y14482
X19049Y14167
X19049Y13852
X19049Y13222
X19049Y12671
X19049Y12356
X19049Y12041
X19049Y11726
X19049Y11411
X19049Y11096
X19049Y19640
X19049Y13537
X19207Y8262
X19522Y8262
X19837Y8262
X20152Y8262
X20467Y8262
X20781Y8262
X21096Y8262
X21411Y8262
X21648Y22199
X21726Y8262
X21989Y27410
X21989Y27010
X21989Y26112
X21989Y25719
X21989Y25325
X22041Y8262
X22120Y22199
X22356Y8262
X22593Y22199
X22671Y8262
X23065Y22199
X23537Y22199
X23616Y8262
X23931Y8262
X24010Y22199
X24246Y8262
X24482Y22199
X24561Y8262
X24876Y8262
X24955Y22199
X25191Y8262
X25427Y22199
X25506Y8262
X25821Y8262
X25900Y22199
X26136Y8262
X26372Y22199
X26844Y22199
X27317Y22199
X27789Y22199
X27829Y8262
X28262Y22199
X28734Y22199
X28892Y8262
X29207Y22199
X29285Y8262
X29679Y22199
X30152Y22199
X30624Y22199
X31096Y22199
X32041Y22199
X32199Y21215
X32199Y20821
X32199Y16608
X32199Y16215
X32199Y15821
X32199Y15427
X32199Y15033
X32199Y14640
X32199Y14246
X32199Y13852
X32199Y12829
X32199Y12514
X32199Y10663
X32199Y10112
X32199Y8262
X35518Y26923
X35518Y26549
X35518Y26175
X38943Y26530
X38943Y26175
X39098Y20301
X39116Y11654
X39571Y20301
X39589Y11654
X40043Y20301
X40061Y11654
X40516Y20301
X40533Y11654
X41642Y14622
X41659Y5974
X42035Y14622
X42053Y5974
T3
X506Y20226
X506Y16585
X506Y12951
X514Y9274
X549Y4010
X565Y8344
X608Y7679
X1006Y4006
X1140Y20226
X1140Y16585
X1140Y12951
X1148Y9274
X1289Y5309
X1293Y6880
X1293Y6093
X1400Y4006
X1439Y25573
X1589Y12648
X1596Y9648
X1664Y21766
X1789Y7673
X1978Y25561
X2022Y19754
X2022Y13451
X2073Y18904
X2073Y18407
X2073Y17896
X2073Y15289
X2073Y14781
X2073Y14289
X2073Y11636
X2073Y11152
X2073Y10636
X2094Y21766
X2187Y16108
X2187Y7673
X2199Y17026
X2199Y16514
X2396Y19754
X2449Y21770
X2506Y25439
X2506Y24250
X2561Y16108
X2671Y13455
X2904Y25061
X2904Y24628
X3089Y6880
X3089Y6093
X3352Y8535
X3368Y1203
X3474Y3970
X3669Y20681
X3833Y29596
X3852Y8699
X3876Y6884
X3998Y4132
X4006Y2545
X4010Y12362
X4010Y3333
X4014Y1762
X4309Y23053
X4423Y29589
X4683Y3333
X4683Y2545
X4754Y1762
X4797Y25805
X5187Y4122
X5191Y28884
X5211Y25803
X5325Y18207
X5333Y22860
X5348Y21518
X5565Y25807
X5569Y19868
X5573Y4122
X5624Y28289
X5652Y9919
X5656Y8459
X5679Y12758
X5687Y14222
X5695Y15679
X5896Y19100
X6022Y29100
X6022Y28667
X6396Y1762
X6478Y3333
X6478Y2545
X6742Y4986
X6947Y19116
X6990Y20652
X7045Y22219
X7100Y17557
X7104Y15652
X7108Y12904
X7120Y14266
X7199Y11498
X7199Y10900
X7230Y7703
X7242Y9234
X7344Y19770
X7407Y21470
X7419Y23018
X7427Y18246
X7699Y5719
X8152Y624
X8659Y18246
X8667Y19785
X8734Y23006
X8758Y8616
X8758Y7722
X8762Y9439
X8762Y9061
X8762Y8148
X8888Y6234
X8943Y11530
X8943Y11065
X9026Y15591
X9049Y13896
X9077Y22222
X9112Y7423
X9140Y4215
X9262Y5943
X9561Y7325
X10108Y9904
X10264Y21335
X10266Y21766
X10268Y20980
X10272Y12565
X10274Y17709
X10278Y17354
X10278Y14953
X10278Y12193
X10280Y18120
X10280Y15380
X10281Y14598
X10281Y11839
X10778Y2600
X10781Y7266
X10781Y1900
X10781Y888
X10785Y5061
X10785Y3313
X11093Y26120
X11096Y25026
X12750Y20927
X12750Y11781
X12750Y11372
X12754Y17297
X12758Y14537
X13128Y20530
X13132Y16900
X13136Y14140
X13144Y11372
X13537Y11372
X13561Y20530
X13565Y16900
X13569Y14140
X13939Y20927
X13943Y17297
X13947Y14537
X14010Y19104
X14014Y16352
X14018Y22711
X14026Y13589
X14041Y15900
X14451Y23262
X14838Y22446
X14845Y21659
X14848Y20742
X14998Y10388
X15130Y12384
X15593Y11203
X15644Y12360
X16120Y12364
X16754Y12356
X17258Y11120
X17333Y12215
X17793Y7325
X17793Y4002
X17793Y3045
X17793Y1557
X17888Y8778
X17890Y9663
X18002Y5291
X18024Y6803
X18026Y6041
X18053Y4593
X18376Y10589
X18376Y10191
X18530Y9557
X18640Y12045
X18754Y24030
X18774Y21077
X18774Y18793
X18774Y12947
X18774Y8778
X19317Y7403
X19364Y943
X19500Y24476
X20191Y22474
X20593Y533
X20636Y5872
X20860Y3852
X20941Y7898
X20963Y5203
X21388Y4722
X21691Y2045
X22049Y24474
X22348Y29116
X22348Y26561
X22577Y4722
X22709Y7848
X23112Y23734
X23144Y7986
X23258Y24805
X23852Y28124
X23909Y6043
X24093Y7892
X24187Y2144
X24480Y4730
X24622Y6041
X25213Y6039
X25364Y4226
X25659Y2156
X25959Y6039
X25959Y4742
X26719Y6049
X26833Y4742
X26949Y6947
X26986Y7986
X27156Y1833
X27211Y4317
X27344Y4848
X27441Y6037
X27510Y24640
X27600Y4317
X27963Y6947
X28033Y4309
X28033Y2049
X28045Y6037
X28301Y28144
X28360Y7986
X28537Y6037
X28868Y29380
X28921Y6937
X29093Y4309
X30742Y7986
X31157Y27781
X31561Y27780
X31569Y22474
X32262Y6813
X32474Y21868
X32474Y18715
X32474Y13341
X32474Y11589
X32474Y10388
X32474Y9187
X32533Y16215
X32553Y20317
X32734Y541
X32856Y4514
X32856Y3738
X32860Y6951
X33156Y8254
X33163Y25746
X33533Y8258
X33640Y24955
X33656Y26163
X33907Y8262
X33978Y26561
X34049Y8982
X34108Y5730
X34148Y13781
X34199Y11963
X34215Y10640
X34372Y15156
X34703Y29616
X34856Y805
X34951Y24939
X35002Y26510
X35246Y3459
X35247Y2947
X35262Y11955
X35344Y7230
X35492Y13464
X35510Y15128
X35569Y20648
X35569Y18640
X35573Y17073
X35593Y22030
X35593Y4049
X35726Y25726
X35781Y8136
X35793Y9762
X35809Y23848
X35980Y3030
X36813Y19179
X36856Y16077
X36887Y14175
X36959Y8156
X37234Y25730
X37270Y24274
X37301Y12156
X37313Y8864
X37333Y10455
X37486Y19770
X37518Y18159
X38380Y19892
X38392Y16742
X38392Y3030
X38400Y18293
X38451Y25726
X38612Y7163
X38683Y8837
X38809Y25061
X38864Y4030
X38884Y22431
X39258Y25057
X39266Y2656
X39474Y12116
X39506Y29837
X39506Y29069
X39754Y13234
X39998Y14089
X40100Y12116
X40207Y5667
X40364Y13636
X40616Y1136
X40636Y4124
X41014Y25057
X41014Y24073
X41014Y23089
X41746Y22447
X41746Y21868
X41770Y20589
X42270Y4030
X42278Y2656
X42447Y13230
X42502Y5656
T4
X1577Y27620
X1577Y2659
X1754Y28053
X1754Y27187
X1754Y3093
X1754Y2226
X2187Y28230
X2187Y27010
X2187Y3270
X2187Y2049
X2620Y28053
X2620Y27187
X2620Y3093
X2620Y2226
X2797Y27620
X2797Y2659
X8703Y28211
X8703Y2069
X8880Y28644
X8880Y27778
X8880Y2502
X8880Y1636
X9313Y28821
X9313Y27600
X9313Y2679
X9313Y1459
X9746Y28644
X9746Y27778
X9746Y2502
X9746Y1636
X9923Y28211
X9923Y2069
X32923Y28211
X32923Y2069
X33100Y28644
X33100Y27778
X33100Y2502
X33100Y1636
X33533Y28821
X33533Y27600
X33533Y2679
X33533Y1459
X33967Y28644
X33967Y27778
X33967Y2502
X33967Y1636
X34144Y28211
X34144Y2069
X40049Y27620
X40049Y2659
X40226Y28053
X40226Y27187
X40226Y3093
X40226Y2226
X40659Y28230
X40659Y27010
X40659Y3270
X40659Y2049
X41093Y28053
X41093Y27187
X41093Y3093
X41093Y2226
X41270Y27620
X41270Y2659
T5
X19695Y6327
X20010Y7016
X20325Y6327
X20640Y7016
X20955Y6327
T6
X19852Y4762
X19852Y3974
X19852Y3187
X19852Y2400
T7
X8289Y5478
X8289Y3797
X8293Y4636
X9915Y8392
X9915Y6463
X10219Y5478
X10219Y3797
X10222Y4636
X18427Y2465
X18427Y965
T8
X11236Y8736
X11236Y8008
X11236Y6059
X11236Y1315
X13215Y19785
X14407Y10581
X14998Y11412
X15589Y10577
X15600Y23234
X15600Y22234
X15600Y21234
X15600Y20234
X15600Y19234
X15600Y18234
X15600Y17234
X15600Y16234
X15600Y15234
X15600Y14234
X16179Y11415
X16600Y23234
X16600Y22234
X16600Y21234
X16600Y20234
X16600Y19234
X16600Y18234
X16600Y17234
X16600Y16234
X16600Y15234
X16600Y14234
X16770Y10581
X17339Y8559
X17339Y6039
X17339Y5291
X17339Y3598
X17339Y1138
X17600Y23234
X17600Y22234
X17600Y21234
X17600Y20234
X17600Y19234
X17600Y18234
X17600Y17234
X17600Y16234
X17600Y15234
X17600Y14234
X23691Y29715
X24215Y6844
X24691Y29715
X25199Y6844
X25691Y29715
X26691Y29715
X27691Y29715
X30289Y6841
X31136Y6841
X33474Y11207
X33474Y10112
X40565Y21364
X41911Y12423
T9
X4864Y23801
X4864Y22226
X4864Y20652
X4864Y19077
X4864Y17502
X4864Y15927
X4864Y14352
X4864Y12778
X4864Y11203
X4864Y9628
X4864Y8053
X4864Y6478
X6439Y23014
X6439Y21439
X6439Y19864
X6439Y18289
X6439Y16715
X6439Y15140
X6439Y13565
X6439Y11990
X6439Y10415
X6439Y8841
X6439Y7266
X8014Y23801
X8014Y22226
X8014Y20652
X8014Y19077
X8014Y17502
X8014Y15927
X8014Y14352
X8014Y12778
X8014Y11203
X8014Y9628
X8014Y8053
X8014Y6478
X34833Y23801
X34833Y22226
X34833Y20652
X34833Y19077
X34833Y17502
X34833Y15927
X34833Y14352
X34833Y12778
X34833Y11203
X34833Y9628
X34833Y8053
X34833Y6478
X36407Y23014
X36407Y21439
X36407Y19864
X36407Y18289
X36407Y16715
X36407Y15140
X36407Y13565
X36407Y11990
X36407Y10415
X36407Y8841
X36407Y7266
X37982Y23801
X37982Y22226
X37982Y20652
X37982Y19077
X37982Y17502
X37982Y15927
X37982Y14352
X37982Y12778
X37982Y11203
X37982Y9628
X37982Y8053
X37982Y6478
T10
X2187Y27620
X2187Y2659
X9313Y28211
X9313Y2069
X33533Y28211
X33533Y2069
X40659Y27620
X40659Y2659
T11
X23408Y2852
X26360Y2852
T12
X23388Y26400
X28703Y26400
T5
X18888Y6927G85X18888Y6415
G05
X21762Y6927G85X21762Y6415
G05
M30
