G04 #@! TF.GenerationSoftware,KiCad,Pcbnew,8.0.8-8.0.8-0~ubuntu24.04.1*
G04 #@! TF.CreationDate,2025-02-06T06:50:32+00:00*
G04 #@! TF.ProjectId,MST01,4d535430-312e-46b6-9963-61645f706362,D*
G04 #@! TF.SameCoordinates,PX440a368PY8a86a58*
G04 #@! TF.FileFunction,Soldermask,Bot*
G04 #@! TF.FilePolarity,Negative*
%FSLAX46Y46*%
G04 Gerber Fmt 4.6, Leading zero omitted, Abs format (unit mm)*
G04 Created by KiCad (PCBNEW 8.0.8-8.0.8-0~ubuntu24.04.1) date 2025-02-06 06:50:32*
%MOMM*%
%LPD*%
G01*
G04 APERTURE LIST*
%ADD10C,0.120000*%
%ADD11C,3.000000*%
%ADD12C,1.700000*%
%ADD13C,0.600000*%
%ADD14R,1.100000X1.100000*%
%ADD15C,1.100000*%
%ADD16O,1.100000X2.400000*%
%ADD17C,2.000000*%
%ADD18C,2.400000*%
%ADD19C,1.500000*%
%ADD20R,1.700000X1.700000*%
%ADD21O,1.700000X1.700000*%
%ADD22O,1.750000X1.200000*%
%ADD23R,4.399991X2.299995*%
%ADD24R,3.999992X2.299995*%
%ADD25C,1.524000*%
%ADD26O,0.499999X0.250000*%
%ADD27O,0.250000X0.499999*%
%ADD28C,0.599999*%
G04 APERTURE END LIST*
D10*
G04 #@! TO.C,U5*
X81450000Y1125000D02*
X74750000Y1125000D01*
X74750000Y13325000D01*
X81450000Y13325000D01*
X81450000Y1125000D01*
G36*
X81450000Y1125000D02*
G01*
X74750000Y1125000D01*
X74750000Y13325000D01*
X81450000Y13325000D01*
X81450000Y1125000D01*
G37*
G04 #@! TD*
D11*
G04 #@! TO.C,H1*
X59405000Y67055000D03*
G04 #@! TD*
D12*
G04 #@! TO.C,P9*
X27795000Y48545000D03*
G04 #@! TD*
G04 #@! TO.C,P10*
X35785000Y26875000D03*
G04 #@! TD*
G04 #@! TO.C,P8*
X76935000Y17375000D03*
G04 #@! TD*
G04 #@! TO.C,P5*
X106455000Y31555000D03*
G04 #@! TD*
G04 #@! TO.C,P15*
X38425000Y26865000D03*
G04 #@! TD*
G04 #@! TO.C,P4*
X61505000Y17385000D03*
G04 #@! TD*
D13*
G04 #@! TO.C,M3*
X101835000Y29590000D03*
X103035000Y29590000D03*
X100635000Y29590000D03*
X99435000Y29590000D03*
X105895000Y15165000D03*
X106895000Y15165000D03*
G04 #@! TD*
D12*
G04 #@! TO.C,P17*
X39455000Y28935000D03*
G04 #@! TD*
D14*
G04 #@! TO.C,J8*
X50025000Y16070000D03*
D15*
X50825000Y17820000D03*
X51625000Y16070000D03*
X52425000Y17820000D03*
X53225000Y16070000D03*
D16*
X47975000Y16945000D03*
X55275000Y16945000D03*
G04 #@! TD*
D13*
G04 #@! TO.C,M2*
X90215000Y66485000D03*
X90215000Y67435000D03*
X90215000Y68384998D03*
X98915000Y67385000D03*
X98915000Y66485000D03*
G04 #@! TD*
D12*
G04 #@! TO.C,P18*
X41535000Y28935000D03*
G04 #@! TD*
D17*
G04 #@! TO.C,J2*
X85175000Y71655000D03*
X103275000Y70155000D03*
X103275000Y6755000D03*
X85175000Y5255000D03*
D18*
X96475000Y60455000D03*
X96475000Y56455000D03*
X96475000Y52455000D03*
X96475000Y48455000D03*
X96475000Y44455000D03*
X96475000Y40455000D03*
X96475000Y36455000D03*
X96475000Y32455000D03*
X96475000Y28455000D03*
X96475000Y24455000D03*
X96475000Y20455000D03*
X96475000Y16455000D03*
X92475000Y58455000D03*
X92475000Y54455000D03*
X92475000Y50455000D03*
X92475000Y46455000D03*
X92475000Y42455000D03*
X92475000Y38455000D03*
X92475000Y34455000D03*
X92475000Y30455000D03*
X92475000Y26455000D03*
X92475000Y22455000D03*
X92475000Y18455000D03*
X88475000Y60455000D03*
X88475000Y56455000D03*
X88475000Y52455000D03*
X88475000Y48455000D03*
X88475000Y44455000D03*
X88475000Y40455000D03*
X88475000Y36455000D03*
X88475000Y32455000D03*
X88475000Y28455000D03*
X88475000Y24455000D03*
X88475000Y20455000D03*
X88475000Y16455000D03*
G04 #@! TD*
D19*
G04 #@! TO.C,M1*
X44039995Y21739999D03*
X44039995Y15340002D03*
X44039995Y13439999D03*
X44039995Y9139999D03*
D13*
X44489994Y6740002D03*
X44489994Y5740001D03*
D19*
X44039995Y2889999D03*
X28539998Y22190001D03*
X28539998Y20340002D03*
X28539998Y15389999D03*
X28539998Y3340001D03*
G04 #@! TD*
D12*
G04 #@! TO.C,P6*
X103035000Y54265000D03*
G04 #@! TD*
G04 #@! TO.C,P1*
X85025000Y28465000D03*
G04 #@! TD*
D11*
G04 #@! TO.C,H2*
X72905000Y67055000D03*
G04 #@! TD*
D12*
G04 #@! TO.C,G3*
X39625000Y36155000D03*
X39625000Y38695000D03*
X39625000Y41235000D03*
X39625000Y43775000D03*
X39625000Y46315000D03*
X42165000Y36155000D03*
X42165000Y38695000D03*
X42165000Y41235000D03*
X42165000Y43775000D03*
X42165000Y46315000D03*
X44705000Y36155000D03*
X44705000Y38695000D03*
X44705000Y41235000D03*
X44705000Y43775000D03*
X44705000Y46315000D03*
G04 #@! TD*
G04 #@! TO.C,P3*
X64005000Y17385000D03*
G04 #@! TD*
G04 #@! TO.C,P7*
X79715000Y17375000D03*
G04 #@! TD*
D20*
G04 #@! TO.C,J6*
X60175000Y75475000D03*
D21*
X62715000Y75475000D03*
X65255000Y75475000D03*
X67795000Y75475000D03*
X70335000Y75475000D03*
G04 #@! TD*
D13*
G04 #@! TO.C,M4*
X101807500Y51565000D03*
X103007500Y51565000D03*
X100607500Y51565000D03*
X99407500Y51565000D03*
X105867500Y37140000D03*
X106867500Y37140000D03*
G04 #@! TD*
G04 #@! TO.C,J3*
G36*
G01*
X50650000Y5495000D02*
X49400000Y5495000D01*
G75*
G02*
X49150000Y5745000I0J250000D01*
G01*
X49150000Y6445000D01*
G75*
G02*
X49400000Y6695000I250000J0D01*
G01*
X50650000Y6695000D01*
G75*
G02*
X50900000Y6445000I0J-250000D01*
G01*
X50900000Y5745000D01*
G75*
G02*
X50650000Y5495000I-250000J0D01*
G01*
G37*
D22*
X50025000Y8095000D03*
X50025000Y10095000D03*
X50025000Y12095000D03*
G04 #@! TD*
D12*
G04 #@! TO.C,P16*
X40485000Y26845000D03*
G04 #@! TD*
D17*
G04 #@! TO.C,J1*
X23655000Y5255000D03*
X5555000Y6755000D03*
X5555000Y70155000D03*
X23655000Y71655000D03*
D18*
X12355000Y16455000D03*
X12355000Y20455000D03*
X12355000Y24455000D03*
X12355000Y28455000D03*
X12355000Y32455000D03*
X12355000Y36455000D03*
X12355000Y40455000D03*
X12355000Y44455000D03*
X12355000Y48455000D03*
X12355000Y52455000D03*
X12355000Y56455000D03*
X12355000Y60455000D03*
X16355000Y18455000D03*
X16355000Y22455000D03*
X16355000Y26455000D03*
X16355000Y30455000D03*
X16355000Y34455000D03*
X16355000Y38455000D03*
X16355000Y42455000D03*
X16355000Y46455000D03*
X16355000Y50455000D03*
X16355000Y54455000D03*
X16355000Y58455000D03*
X20355000Y16455000D03*
X20355000Y20455000D03*
X20355000Y24455000D03*
X20355000Y28455000D03*
X20355000Y32455000D03*
X20355000Y36455000D03*
X20355000Y40455000D03*
X20355000Y44455000D03*
X20355000Y48455000D03*
X20355000Y52455000D03*
X20355000Y56455000D03*
X20355000Y60455000D03*
G04 #@! TD*
D12*
G04 #@! TO.C,P2*
X85025000Y25685000D03*
G04 #@! TD*
G04 #@! TO.C,G4*
X39625000Y48855000D03*
X39625000Y51395000D03*
X39625000Y53935000D03*
X39625000Y56475000D03*
X39625000Y59015000D03*
X42165000Y48855000D03*
X42165000Y51395000D03*
X42165000Y53935000D03*
X42165000Y56475000D03*
X42165000Y59015000D03*
X44705000Y48855000D03*
X44705000Y51395000D03*
X44705000Y53935000D03*
X44705000Y56475000D03*
X44705000Y59015000D03*
G04 #@! TD*
G04 #@! TO.C,R40*
G36*
G01*
X103895022Y64270000D02*
X103895022Y63020000D01*
G75*
G02*
X103795022Y62920000I-100000J0D01*
G01*
X102995022Y62920000D01*
G75*
G02*
X102895022Y63020000I0J100000D01*
G01*
X102895022Y64270000D01*
G75*
G02*
X102995022Y64370000I100000J0D01*
G01*
X103795022Y64370000D01*
G75*
G02*
X103895022Y64270000I0J-100000D01*
G01*
G37*
G36*
G01*
X101995000Y64270000D02*
X101995000Y63020000D01*
G75*
G02*
X101895000Y62920000I-100000J0D01*
G01*
X101095000Y62920000D01*
G75*
G02*
X100995000Y63020000I0J100000D01*
G01*
X100995000Y64270000D01*
G75*
G02*
X101095000Y64370000I100000J0D01*
G01*
X101895000Y64370000D01*
G75*
G02*
X101995000Y64270000I0J-100000D01*
G01*
G37*
G04 #@! TD*
G04 #@! TO.C,C24*
G36*
G01*
X2709999Y11139993D02*
X2709999Y11819993D01*
G75*
G02*
X2794999Y11904993I85000J0D01*
G01*
X3474999Y11904993D01*
G75*
G02*
X3559999Y11819993I0J-85000D01*
G01*
X3559999Y11139993D01*
G75*
G02*
X3474999Y11054993I-85000J0D01*
G01*
X2794999Y11054993D01*
G75*
G02*
X2709999Y11139993I0J85000D01*
G01*
G37*
G36*
G01*
X4290001Y11139993D02*
X4290001Y11819993D01*
G75*
G02*
X4375001Y11904993I85000J0D01*
G01*
X5055001Y11904993D01*
G75*
G02*
X5140001Y11819993I0J-85000D01*
G01*
X5140001Y11139993D01*
G75*
G02*
X5055001Y11054993I-85000J0D01*
G01*
X4375001Y11054993D01*
G75*
G02*
X4290001Y11139993I0J85000D01*
G01*
G37*
G04 #@! TD*
G04 #@! TO.C,R39*
G36*
G01*
X103895022Y61770000D02*
X103895022Y60520000D01*
G75*
G02*
X103795022Y60420000I-100000J0D01*
G01*
X102995022Y60420000D01*
G75*
G02*
X102895022Y60520000I0J100000D01*
G01*
X102895022Y61770000D01*
G75*
G02*
X102995022Y61870000I100000J0D01*
G01*
X103795022Y61870000D01*
G75*
G02*
X103895022Y61770000I0J-100000D01*
G01*
G37*
G36*
G01*
X101995000Y61770000D02*
X101995000Y60520000D01*
G75*
G02*
X101895000Y60420000I-100000J0D01*
G01*
X101095000Y60420000D01*
G75*
G02*
X100995000Y60520000I0J100000D01*
G01*
X100995000Y61770000D01*
G75*
G02*
X101095000Y61870000I100000J0D01*
G01*
X101895000Y61870000D01*
G75*
G02*
X101995000Y61770000I0J-100000D01*
G01*
G37*
G04 #@! TD*
G04 #@! TO.C,C10*
G36*
G01*
X18035000Y11870000D02*
X18035000Y10820000D01*
G75*
G02*
X17935000Y10720000I-100000J0D01*
G01*
X17135000Y10720000D01*
G75*
G02*
X17035000Y10820000I0J100000D01*
G01*
X17035000Y11870000D01*
G75*
G02*
X17135000Y11970000I100000J0D01*
G01*
X17935000Y11970000D01*
G75*
G02*
X18035000Y11870000I0J-100000D01*
G01*
G37*
G36*
G01*
X16035000Y11870000D02*
X16035000Y10820000D01*
G75*
G02*
X15935000Y10720000I-100000J0D01*
G01*
X15135000Y10720000D01*
G75*
G02*
X15035000Y10820000I0J100000D01*
G01*
X15035000Y11870000D01*
G75*
G02*
X15135000Y11970000I100000J0D01*
G01*
X15935000Y11970000D01*
G75*
G02*
X16035000Y11870000I0J-100000D01*
G01*
G37*
G04 #@! TD*
G04 #@! TO.C,R19*
G36*
G01*
X31200000Y51300000D02*
X31200000Y50520000D01*
G75*
G02*
X31130000Y50450000I-70000J0D01*
G01*
X30570000Y50450000D01*
G75*
G02*
X30500000Y50520000I0J70000D01*
G01*
X30500000Y51300000D01*
G75*
G02*
X30570000Y51370000I70000J0D01*
G01*
X31130000Y51370000D01*
G75*
G02*
X31200000Y51300000I0J-70000D01*
G01*
G37*
G36*
G01*
X29600000Y51300000D02*
X29600000Y50520000D01*
G75*
G02*
X29530000Y50450000I-70000J0D01*
G01*
X28970000Y50450000D01*
G75*
G02*
X28900000Y50520000I0J70000D01*
G01*
X28900000Y51300000D01*
G75*
G02*
X28970000Y51370000I70000J0D01*
G01*
X29530000Y51370000D01*
G75*
G02*
X29600000Y51300000I0J-70000D01*
G01*
G37*
G04 #@! TD*
G04 #@! TO.C,D4*
G36*
G01*
X4860000Y24005000D02*
X4860000Y25025000D01*
G75*
G02*
X4950000Y25115000I90000J0D01*
G01*
X5670000Y25115000D01*
G75*
G02*
X5760000Y25025000I0J-90000D01*
G01*
X5760000Y24005000D01*
G75*
G02*
X5670000Y23915000I-90000J0D01*
G01*
X4950000Y23915000D01*
G75*
G02*
X4860000Y24005000I0J90000D01*
G01*
G37*
G36*
G01*
X8160000Y24005000D02*
X8160000Y25025000D01*
G75*
G02*
X8250000Y25115000I90000J0D01*
G01*
X8970000Y25115000D01*
G75*
G02*
X9060000Y25025000I0J-90000D01*
G01*
X9060000Y24005000D01*
G75*
G02*
X8970000Y23915000I-90000J0D01*
G01*
X8250000Y23915000D01*
G75*
G02*
X8160000Y24005000I0J90000D01*
G01*
G37*
G04 #@! TD*
D19*
G04 #@! TO.C,BT1*
X59455142Y7145000D03*
X66955000Y7145000D03*
D23*
X55355048Y7145000D03*
D24*
X71355067Y7145000D03*
G04 #@! TD*
G04 #@! TO.C,R23*
G36*
G01*
X31195000Y42095000D02*
X31195000Y41315000D01*
G75*
G02*
X31125000Y41245000I-70000J0D01*
G01*
X30565000Y41245000D01*
G75*
G02*
X30495000Y41315000I0J70000D01*
G01*
X30495000Y42095000D01*
G75*
G02*
X30565000Y42165000I70000J0D01*
G01*
X31125000Y42165000D01*
G75*
G02*
X31195000Y42095000I0J-70000D01*
G01*
G37*
G36*
G01*
X29595000Y42095000D02*
X29595000Y41315000D01*
G75*
G02*
X29525000Y41245000I-70000J0D01*
G01*
X28965000Y41245000D01*
G75*
G02*
X28895000Y41315000I0J70000D01*
G01*
X28895000Y42095000D01*
G75*
G02*
X28965000Y42165000I70000J0D01*
G01*
X29525000Y42165000D01*
G75*
G02*
X29595000Y42095000I0J-70000D01*
G01*
G37*
G04 #@! TD*
G04 #@! TO.C,R27*
G36*
G01*
X31075000Y39625000D02*
X31075000Y36775000D01*
G75*
G02*
X30825000Y36525000I-250000J0D01*
G01*
X30100000Y36525000D01*
G75*
G02*
X29850000Y36775000I0J250000D01*
G01*
X29850000Y39625000D01*
G75*
G02*
X30100000Y39875000I250000J0D01*
G01*
X30825000Y39875000D01*
G75*
G02*
X31075000Y39625000I0J-250000D01*
G01*
G37*
G36*
G01*
X25150000Y39625000D02*
X25150000Y36775000D01*
G75*
G02*
X24900000Y36525000I-250000J0D01*
G01*
X24175000Y36525000D01*
G75*
G02*
X23925000Y36775000I0J250000D01*
G01*
X23925000Y39625000D01*
G75*
G02*
X24175000Y39875000I250000J0D01*
G01*
X24900000Y39875000D01*
G75*
G02*
X25150000Y39625000I0J-250000D01*
G01*
G37*
G04 #@! TD*
G04 #@! TO.C,C7*
G36*
G01*
X18035000Y5870000D02*
X18035000Y4820000D01*
G75*
G02*
X17935000Y4720000I-100000J0D01*
G01*
X17135000Y4720000D01*
G75*
G02*
X17035000Y4820000I0J100000D01*
G01*
X17035000Y5870000D01*
G75*
G02*
X17135000Y5970000I100000J0D01*
G01*
X17935000Y5970000D01*
G75*
G02*
X18035000Y5870000I0J-100000D01*
G01*
G37*
G36*
G01*
X16035000Y5870000D02*
X16035000Y4820000D01*
G75*
G02*
X15935000Y4720000I-100000J0D01*
G01*
X15135000Y4720000D01*
G75*
G02*
X15035000Y4820000I0J100000D01*
G01*
X15035000Y5870000D01*
G75*
G02*
X15135000Y5970000I100000J0D01*
G01*
X15935000Y5970000D01*
G75*
G02*
X16035000Y5870000I0J-100000D01*
G01*
G37*
G04 #@! TD*
G04 #@! TO.C,F6*
G36*
G01*
X13363750Y72146250D02*
X12851250Y72146250D01*
G75*
G02*
X12632500Y72365000I0J218750D01*
G01*
X12632500Y72802500D01*
G75*
G02*
X12851250Y73021250I218750J0D01*
G01*
X13363750Y73021250D01*
G75*
G02*
X13582500Y72802500I0J-218750D01*
G01*
X13582500Y72365000D01*
G75*
G02*
X13363750Y72146250I-218750J0D01*
G01*
G37*
G36*
G01*
X13363750Y73721250D02*
X12851250Y73721250D01*
G75*
G02*
X12632500Y73940000I0J218750D01*
G01*
X12632500Y74377500D01*
G75*
G02*
X12851250Y74596250I218750J0D01*
G01*
X13363750Y74596250D01*
G75*
G02*
X13582500Y74377500I0J-218750D01*
G01*
X13582500Y73940000D01*
G75*
G02*
X13363750Y73721250I-218750J0D01*
G01*
G37*
G04 #@! TD*
G04 #@! TO.C,R34*
G36*
G01*
X935000Y49785000D02*
X935000Y50565000D01*
G75*
G02*
X1005000Y50635000I70000J0D01*
G01*
X1565000Y50635000D01*
G75*
G02*
X1635000Y50565000I0J-70000D01*
G01*
X1635000Y49785000D01*
G75*
G02*
X1565000Y49715000I-70000J0D01*
G01*
X1005000Y49715000D01*
G75*
G02*
X935000Y49785000I0J70000D01*
G01*
G37*
G36*
G01*
X2535000Y49785000D02*
X2535000Y50565000D01*
G75*
G02*
X2605000Y50635000I70000J0D01*
G01*
X3165000Y50635000D01*
G75*
G02*
X3235000Y50565000I0J-70000D01*
G01*
X3235000Y49785000D01*
G75*
G02*
X3165000Y49715000I-70000J0D01*
G01*
X2605000Y49715000D01*
G75*
G02*
X2535000Y49785000I0J70000D01*
G01*
G37*
G04 #@! TD*
G04 #@! TO.C,R1*
G36*
G01*
X102545000Y35405000D02*
X102545000Y36185000D01*
G75*
G02*
X102615000Y36255000I70000J0D01*
G01*
X103175000Y36255000D01*
G75*
G02*
X103245000Y36185000I0J-70000D01*
G01*
X103245000Y35405000D01*
G75*
G02*
X103175000Y35335000I-70000J0D01*
G01*
X102615000Y35335000D01*
G75*
G02*
X102545000Y35405000I0J70000D01*
G01*
G37*
G36*
G01*
X104145000Y35405000D02*
X104145000Y36185000D01*
G75*
G02*
X104215000Y36255000I70000J0D01*
G01*
X104775000Y36255000D01*
G75*
G02*
X104845000Y36185000I0J-70000D01*
G01*
X104845000Y35405000D01*
G75*
G02*
X104775000Y35335000I-70000J0D01*
G01*
X104215000Y35335000D01*
G75*
G02*
X104145000Y35405000I0J70000D01*
G01*
G37*
G04 #@! TD*
G04 #@! TO.C,F9*
G36*
G01*
X32035000Y36783750D02*
X32035000Y37296250D01*
G75*
G02*
X32253750Y37515000I218750J0D01*
G01*
X32691250Y37515000D01*
G75*
G02*
X32910000Y37296250I0J-218750D01*
G01*
X32910000Y36783750D01*
G75*
G02*
X32691250Y36565000I-218750J0D01*
G01*
X32253750Y36565000D01*
G75*
G02*
X32035000Y36783750I0J218750D01*
G01*
G37*
G36*
G01*
X33610000Y36783750D02*
X33610000Y37296250D01*
G75*
G02*
X33828750Y37515000I218750J0D01*
G01*
X34266250Y37515000D01*
G75*
G02*
X34485000Y37296250I0J-218750D01*
G01*
X34485000Y36783750D01*
G75*
G02*
X34266250Y36565000I-218750J0D01*
G01*
X33828750Y36565000D01*
G75*
G02*
X33610000Y36783750I0J218750D01*
G01*
G37*
G04 #@! TD*
G04 #@! TO.C,C17*
G36*
G01*
X2315000Y18415000D02*
X2315000Y19465000D01*
G75*
G02*
X2415000Y19565000I100000J0D01*
G01*
X3215000Y19565000D01*
G75*
G02*
X3315000Y19465000I0J-100000D01*
G01*
X3315000Y18415000D01*
G75*
G02*
X3215000Y18315000I-100000J0D01*
G01*
X2415000Y18315000D01*
G75*
G02*
X2315000Y18415000I0J100000D01*
G01*
G37*
G36*
G01*
X4315000Y18415000D02*
X4315000Y19465000D01*
G75*
G02*
X4415000Y19565000I100000J0D01*
G01*
X5215000Y19565000D01*
G75*
G02*
X5315000Y19465000I0J-100000D01*
G01*
X5315000Y18415000D01*
G75*
G02*
X5215000Y18315000I-100000J0D01*
G01*
X4415000Y18315000D01*
G75*
G02*
X4315000Y18415000I0J100000D01*
G01*
G37*
G04 #@! TD*
G04 #@! TO.C,C3*
G36*
G01*
X11035000Y6820000D02*
X11035000Y7870000D01*
G75*
G02*
X11135000Y7970000I100000J0D01*
G01*
X11935000Y7970000D01*
G75*
G02*
X12035000Y7870000I0J-100000D01*
G01*
X12035000Y6820000D01*
G75*
G02*
X11935000Y6720000I-100000J0D01*
G01*
X11135000Y6720000D01*
G75*
G02*
X11035000Y6820000I0J100000D01*
G01*
G37*
G36*
G01*
X13035000Y6820000D02*
X13035000Y7870000D01*
G75*
G02*
X13135000Y7970000I100000J0D01*
G01*
X13935000Y7970000D01*
G75*
G02*
X14035000Y7870000I0J-100000D01*
G01*
X14035000Y6820000D01*
G75*
G02*
X13935000Y6720000I-100000J0D01*
G01*
X13135000Y6720000D01*
G75*
G02*
X13035000Y6820000I0J100000D01*
G01*
G37*
G04 #@! TD*
G04 #@! TO.C,C23*
G36*
G01*
X9315000Y21465000D02*
X9315000Y20415000D01*
G75*
G02*
X9215000Y20315000I-100000J0D01*
G01*
X8415000Y20315000D01*
G75*
G02*
X8315000Y20415000I0J100000D01*
G01*
X8315000Y21465000D01*
G75*
G02*
X8415000Y21565000I100000J0D01*
G01*
X9215000Y21565000D01*
G75*
G02*
X9315000Y21465000I0J-100000D01*
G01*
G37*
G36*
G01*
X7315000Y21465000D02*
X7315000Y20415000D01*
G75*
G02*
X7215000Y20315000I-100000J0D01*
G01*
X6415000Y20315000D01*
G75*
G02*
X6315000Y20415000I0J100000D01*
G01*
X6315000Y21465000D01*
G75*
G02*
X6415000Y21565000I100000J0D01*
G01*
X7215000Y21565000D01*
G75*
G02*
X7315000Y21465000I0J-100000D01*
G01*
G37*
G04 #@! TD*
G04 #@! TO.C,C1*
G36*
G01*
X11035000Y2820000D02*
X11035000Y3870000D01*
G75*
G02*
X11135000Y3970000I100000J0D01*
G01*
X11935000Y3970000D01*
G75*
G02*
X12035000Y3870000I0J-100000D01*
G01*
X12035000Y2820000D01*
G75*
G02*
X11935000Y2720000I-100000J0D01*
G01*
X11135000Y2720000D01*
G75*
G02*
X11035000Y2820000I0J100000D01*
G01*
G37*
G36*
G01*
X13035000Y2820000D02*
X13035000Y3870000D01*
G75*
G02*
X13135000Y3970000I100000J0D01*
G01*
X13935000Y3970000D01*
G75*
G02*
X14035000Y3870000I0J-100000D01*
G01*
X14035000Y2820000D01*
G75*
G02*
X13935000Y2720000I-100000J0D01*
G01*
X13135000Y2720000D01*
G75*
G02*
X13035000Y2820000I0J100000D01*
G01*
G37*
G04 #@! TD*
G04 #@! TO.C,U11*
G36*
G01*
X1005000Y44700000D02*
X1005000Y45000000D01*
G75*
G02*
X1155000Y45150000I150000J0D01*
G01*
X2805000Y45150000D01*
G75*
G02*
X2955000Y45000000I0J-150000D01*
G01*
X2955000Y44700000D01*
G75*
G02*
X2805000Y44550000I-150000J0D01*
G01*
X1155000Y44550000D01*
G75*
G02*
X1005000Y44700000I0J150000D01*
G01*
G37*
G36*
G01*
X1005000Y45970000D02*
X1005000Y46270000D01*
G75*
G02*
X1155000Y46420000I150000J0D01*
G01*
X2805000Y46420000D01*
G75*
G02*
X2955000Y46270000I0J-150000D01*
G01*
X2955000Y45970000D01*
G75*
G02*
X2805000Y45820000I-150000J0D01*
G01*
X1155000Y45820000D01*
G75*
G02*
X1005000Y45970000I0J150000D01*
G01*
G37*
G36*
G01*
X1005000Y47240000D02*
X1005000Y47540000D01*
G75*
G02*
X1155000Y47690000I150000J0D01*
G01*
X2805000Y47690000D01*
G75*
G02*
X2955000Y47540000I0J-150000D01*
G01*
X2955000Y47240000D01*
G75*
G02*
X2805000Y47090000I-150000J0D01*
G01*
X1155000Y47090000D01*
G75*
G02*
X1005000Y47240000I0J150000D01*
G01*
G37*
G36*
G01*
X1005000Y48510000D02*
X1005000Y48810000D01*
G75*
G02*
X1155000Y48960000I150000J0D01*
G01*
X2805000Y48960000D01*
G75*
G02*
X2955000Y48810000I0J-150000D01*
G01*
X2955000Y48510000D01*
G75*
G02*
X2805000Y48360000I-150000J0D01*
G01*
X1155000Y48360000D01*
G75*
G02*
X1005000Y48510000I0J150000D01*
G01*
G37*
G36*
G01*
X5955000Y48510000D02*
X5955000Y48810000D01*
G75*
G02*
X6105000Y48960000I150000J0D01*
G01*
X7755000Y48960000D01*
G75*
G02*
X7905000Y48810000I0J-150000D01*
G01*
X7905000Y48510000D01*
G75*
G02*
X7755000Y48360000I-150000J0D01*
G01*
X6105000Y48360000D01*
G75*
G02*
X5955000Y48510000I0J150000D01*
G01*
G37*
G36*
G01*
X5955000Y47240000D02*
X5955000Y47540000D01*
G75*
G02*
X6105000Y47690000I150000J0D01*
G01*
X7755000Y47690000D01*
G75*
G02*
X7905000Y47540000I0J-150000D01*
G01*
X7905000Y47240000D01*
G75*
G02*
X7755000Y47090000I-150000J0D01*
G01*
X6105000Y47090000D01*
G75*
G02*
X5955000Y47240000I0J150000D01*
G01*
G37*
G36*
G01*
X5955000Y45970000D02*
X5955000Y46270000D01*
G75*
G02*
X6105000Y46420000I150000J0D01*
G01*
X7755000Y46420000D01*
G75*
G02*
X7905000Y46270000I0J-150000D01*
G01*
X7905000Y45970000D01*
G75*
G02*
X7755000Y45820000I-150000J0D01*
G01*
X6105000Y45820000D01*
G75*
G02*
X5955000Y45970000I0J150000D01*
G01*
G37*
G36*
G01*
X5955000Y44700000D02*
X5955000Y45000000D01*
G75*
G02*
X6105000Y45150000I150000J0D01*
G01*
X7755000Y45150000D01*
G75*
G02*
X7905000Y45000000I0J-150000D01*
G01*
X7905000Y44700000D01*
G75*
G02*
X7755000Y44550000I-150000J0D01*
G01*
X6105000Y44550000D01*
G75*
G02*
X5955000Y44700000I0J150000D01*
G01*
G37*
G04 #@! TD*
D25*
G04 #@! TO.C,F4*
X25955000Y9645000D03*
G36*
G01*
X25300010Y8745000D02*
X24610010Y8745000D01*
G75*
G02*
X24380010Y8975000I0J230000D01*
G01*
X24380010Y10315000D01*
G75*
G02*
X24610010Y10545000I230000J0D01*
G01*
X25300010Y10545000D01*
G75*
G02*
X25530010Y10315000I0J-230000D01*
G01*
X25530010Y8975000D01*
G75*
G02*
X25300010Y8745000I-230000J0D01*
G01*
G37*
G36*
G01*
X22399990Y8745000D02*
X21709990Y8745000D01*
G75*
G02*
X21479990Y8975000I0J230000D01*
G01*
X21479990Y10315000D01*
G75*
G02*
X21709990Y10545000I230000J0D01*
G01*
X22399990Y10545000D01*
G75*
G02*
X22629990Y10315000I0J-230000D01*
G01*
X22629990Y8975000D01*
G75*
G02*
X22399990Y8745000I-230000J0D01*
G01*
G37*
X21055000Y9645000D03*
G04 #@! TD*
G04 #@! TO.C,R37*
G36*
G01*
X107345022Y64270000D02*
X107345022Y63020000D01*
G75*
G02*
X107245022Y62920000I-100000J0D01*
G01*
X106445022Y62920000D01*
G75*
G02*
X106345022Y63020000I0J100000D01*
G01*
X106345022Y64270000D01*
G75*
G02*
X106445022Y64370000I100000J0D01*
G01*
X107245022Y64370000D01*
G75*
G02*
X107345022Y64270000I0J-100000D01*
G01*
G37*
G36*
G01*
X105445000Y64270000D02*
X105445000Y63020000D01*
G75*
G02*
X105345000Y62920000I-100000J0D01*
G01*
X104545000Y62920000D01*
G75*
G02*
X104445000Y63020000I0J100000D01*
G01*
X104445000Y64270000D01*
G75*
G02*
X104545000Y64370000I100000J0D01*
G01*
X105345000Y64370000D01*
G75*
G02*
X105445000Y64270000I0J-100000D01*
G01*
G37*
G04 #@! TD*
G04 #@! TO.C,R24*
G36*
G01*
X31210000Y35100000D02*
X31210000Y34320000D01*
G75*
G02*
X31140000Y34250000I-70000J0D01*
G01*
X30580000Y34250000D01*
G75*
G02*
X30510000Y34320000I0J70000D01*
G01*
X30510000Y35100000D01*
G75*
G02*
X30580000Y35170000I70000J0D01*
G01*
X31140000Y35170000D01*
G75*
G02*
X31210000Y35100000I0J-70000D01*
G01*
G37*
G36*
G01*
X29610000Y35100000D02*
X29610000Y34320000D01*
G75*
G02*
X29540000Y34250000I-70000J0D01*
G01*
X28980000Y34250000D01*
G75*
G02*
X28910000Y34320000I0J70000D01*
G01*
X28910000Y35100000D01*
G75*
G02*
X28980000Y35170000I70000J0D01*
G01*
X29540000Y35170000D01*
G75*
G02*
X29610000Y35100000I0J-70000D01*
G01*
G37*
G04 #@! TD*
G04 #@! TO.C,C11*
G36*
G01*
X11449999Y1545000D02*
X11449999Y2225000D01*
G75*
G02*
X11534999Y2310000I85000J0D01*
G01*
X12214999Y2310000D01*
G75*
G02*
X12299999Y2225000I0J-85000D01*
G01*
X12299999Y1545000D01*
G75*
G02*
X12214999Y1460000I-85000J0D01*
G01*
X11534999Y1460000D01*
G75*
G02*
X11449999Y1545000I0J85000D01*
G01*
G37*
G36*
G01*
X13030001Y1545000D02*
X13030001Y2225000D01*
G75*
G02*
X13115001Y2310000I85000J0D01*
G01*
X13795001Y2310000D01*
G75*
G02*
X13880001Y2225000I0J-85000D01*
G01*
X13880001Y1545000D01*
G75*
G02*
X13795001Y1460000I-85000J0D01*
G01*
X13115001Y1460000D01*
G75*
G02*
X13030001Y1545000I0J85000D01*
G01*
G37*
G04 #@! TD*
G04 #@! TO.C,C14*
G36*
G01*
X2315000Y12415000D02*
X2315000Y13465000D01*
G75*
G02*
X2415000Y13565000I100000J0D01*
G01*
X3215000Y13565000D01*
G75*
G02*
X3315000Y13465000I0J-100000D01*
G01*
X3315000Y12415000D01*
G75*
G02*
X3215000Y12315000I-100000J0D01*
G01*
X2415000Y12315000D01*
G75*
G02*
X2315000Y12415000I0J100000D01*
G01*
G37*
G36*
G01*
X4315000Y12415000D02*
X4315000Y13465000D01*
G75*
G02*
X4415000Y13565000I100000J0D01*
G01*
X5215000Y13565000D01*
G75*
G02*
X5315000Y13465000I0J-100000D01*
G01*
X5315000Y12415000D01*
G75*
G02*
X5215000Y12315000I-100000J0D01*
G01*
X4415000Y12315000D01*
G75*
G02*
X4315000Y12415000I0J100000D01*
G01*
G37*
G04 #@! TD*
G04 #@! TO.C,C19*
G36*
G01*
X9315000Y13465000D02*
X9315000Y12415000D01*
G75*
G02*
X9215000Y12315000I-100000J0D01*
G01*
X8415000Y12315000D01*
G75*
G02*
X8315000Y12415000I0J100000D01*
G01*
X8315000Y13465000D01*
G75*
G02*
X8415000Y13565000I100000J0D01*
G01*
X9215000Y13565000D01*
G75*
G02*
X9315000Y13465000I0J-100000D01*
G01*
G37*
G36*
G01*
X7315000Y13465000D02*
X7315000Y12415000D01*
G75*
G02*
X7215000Y12315000I-100000J0D01*
G01*
X6415000Y12315000D01*
G75*
G02*
X6315000Y12415000I0J100000D01*
G01*
X6315000Y13465000D01*
G75*
G02*
X6415000Y13565000I100000J0D01*
G01*
X7215000Y13565000D01*
G75*
G02*
X7315000Y13465000I0J-100000D01*
G01*
G37*
G04 #@! TD*
G04 #@! TO.C,R21*
G36*
G01*
X2015000Y60753750D02*
X4865000Y60753750D01*
G75*
G02*
X5115000Y60503750I0J-250000D01*
G01*
X5115000Y59778750D01*
G75*
G02*
X4865000Y59528750I-250000J0D01*
G01*
X2015000Y59528750D01*
G75*
G02*
X1765000Y59778750I0J250000D01*
G01*
X1765000Y60503750D01*
G75*
G02*
X2015000Y60753750I250000J0D01*
G01*
G37*
G36*
G01*
X2015000Y54828750D02*
X4865000Y54828750D01*
G75*
G02*
X5115000Y54578750I0J-250000D01*
G01*
X5115000Y53853750D01*
G75*
G02*
X4865000Y53603750I-250000J0D01*
G01*
X2015000Y53603750D01*
G75*
G02*
X1765000Y53853750I0J250000D01*
G01*
X1765000Y54578750D01*
G75*
G02*
X2015000Y54828750I250000J0D01*
G01*
G37*
G04 #@! TD*
G04 #@! TO.C,C4*
G36*
G01*
X11035000Y8820000D02*
X11035000Y9870000D01*
G75*
G02*
X11135000Y9970000I100000J0D01*
G01*
X11935000Y9970000D01*
G75*
G02*
X12035000Y9870000I0J-100000D01*
G01*
X12035000Y8820000D01*
G75*
G02*
X11935000Y8720000I-100000J0D01*
G01*
X11135000Y8720000D01*
G75*
G02*
X11035000Y8820000I0J100000D01*
G01*
G37*
G36*
G01*
X13035000Y8820000D02*
X13035000Y9870000D01*
G75*
G02*
X13135000Y9970000I100000J0D01*
G01*
X13935000Y9970000D01*
G75*
G02*
X14035000Y9870000I0J-100000D01*
G01*
X14035000Y8820000D01*
G75*
G02*
X13935000Y8720000I-100000J0D01*
G01*
X13135000Y8720000D01*
G75*
G02*
X13035000Y8820000I0J100000D01*
G01*
G37*
G04 #@! TD*
G04 #@! TO.C,F3*
X25965000Y11775000D03*
G36*
G01*
X25310010Y10875000D02*
X24620010Y10875000D01*
G75*
G02*
X24390010Y11105000I0J230000D01*
G01*
X24390010Y12445000D01*
G75*
G02*
X24620010Y12675000I230000J0D01*
G01*
X25310010Y12675000D01*
G75*
G02*
X25540010Y12445000I0J-230000D01*
G01*
X25540010Y11105000D01*
G75*
G02*
X25310010Y10875000I-230000J0D01*
G01*
G37*
G36*
G01*
X22409990Y10875000D02*
X21719990Y10875000D01*
G75*
G02*
X21489990Y11105000I0J230000D01*
G01*
X21489990Y12445000D01*
G75*
G02*
X21719990Y12675000I230000J0D01*
G01*
X22409990Y12675000D01*
G75*
G02*
X22639990Y12445000I0J-230000D01*
G01*
X22639990Y11105000D01*
G75*
G02*
X22409990Y10875000I-230000J0D01*
G01*
G37*
X21065000Y11775000D03*
G04 #@! TD*
G04 #@! TO.C,D1*
G36*
G01*
X63375000Y7345000D02*
X63855000Y7345000D01*
G75*
G02*
X63915000Y7285000I0J-60000D01*
G01*
X63915000Y6805000D01*
G75*
G02*
X63855000Y6745000I-60000J0D01*
G01*
X63375000Y6745000D01*
G75*
G02*
X63315000Y6805000I0J60000D01*
G01*
X63315000Y7285000D01*
G75*
G02*
X63375000Y7345000I60000J0D01*
G01*
G37*
G36*
G01*
X61175000Y7345000D02*
X61655000Y7345000D01*
G75*
G02*
X61715000Y7285000I0J-60000D01*
G01*
X61715000Y6805000D01*
G75*
G02*
X61655000Y6745000I-60000J0D01*
G01*
X61175000Y6745000D01*
G75*
G02*
X61115000Y6805000I0J60000D01*
G01*
X61115000Y7285000D01*
G75*
G02*
X61175000Y7345000I60000J0D01*
G01*
G37*
G04 #@! TD*
G04 #@! TO.C,F8*
G36*
G01*
X32050000Y43788750D02*
X32050000Y44301250D01*
G75*
G02*
X32268750Y44520000I218750J0D01*
G01*
X32706250Y44520000D01*
G75*
G02*
X32925000Y44301250I0J-218750D01*
G01*
X32925000Y43788750D01*
G75*
G02*
X32706250Y43570000I-218750J0D01*
G01*
X32268750Y43570000D01*
G75*
G02*
X32050000Y43788750I0J218750D01*
G01*
G37*
G36*
G01*
X33625000Y43788750D02*
X33625000Y44301250D01*
G75*
G02*
X33843750Y44520000I218750J0D01*
G01*
X34281250Y44520000D01*
G75*
G02*
X34500000Y44301250I0J-218750D01*
G01*
X34500000Y43788750D01*
G75*
G02*
X34281250Y43570000I-218750J0D01*
G01*
X33843750Y43570000D01*
G75*
G02*
X33625000Y43788750I0J218750D01*
G01*
G37*
G04 #@! TD*
G04 #@! TO.C,R33*
G36*
G01*
X935000Y43005000D02*
X935000Y43785000D01*
G75*
G02*
X1005000Y43855000I70000J0D01*
G01*
X1565000Y43855000D01*
G75*
G02*
X1635000Y43785000I0J-70000D01*
G01*
X1635000Y43005000D01*
G75*
G02*
X1565000Y42935000I-70000J0D01*
G01*
X1005000Y42935000D01*
G75*
G02*
X935000Y43005000I0J70000D01*
G01*
G37*
G36*
G01*
X2535000Y43005000D02*
X2535000Y43785000D01*
G75*
G02*
X2605000Y43855000I70000J0D01*
G01*
X3165000Y43855000D01*
G75*
G02*
X3235000Y43785000I0J-70000D01*
G01*
X3235000Y43005000D01*
G75*
G02*
X3165000Y42935000I-70000J0D01*
G01*
X2605000Y42935000D01*
G75*
G02*
X2535000Y43005000I0J70000D01*
G01*
G37*
G04 #@! TD*
G04 #@! TO.C,C21*
G36*
G01*
X9315000Y17465000D02*
X9315000Y16415000D01*
G75*
G02*
X9215000Y16315000I-100000J0D01*
G01*
X8415000Y16315000D01*
G75*
G02*
X8315000Y16415000I0J100000D01*
G01*
X8315000Y17465000D01*
G75*
G02*
X8415000Y17565000I100000J0D01*
G01*
X9215000Y17565000D01*
G75*
G02*
X9315000Y17465000I0J-100000D01*
G01*
G37*
G36*
G01*
X7315000Y17465000D02*
X7315000Y16415000D01*
G75*
G02*
X7215000Y16315000I-100000J0D01*
G01*
X6415000Y16315000D01*
G75*
G02*
X6315000Y16415000I0J100000D01*
G01*
X6315000Y17465000D01*
G75*
G02*
X6415000Y17565000I100000J0D01*
G01*
X7215000Y17565000D01*
G75*
G02*
X7315000Y17465000I0J-100000D01*
G01*
G37*
G04 #@! TD*
G04 #@! TO.C,R26*
G36*
G01*
X31060000Y46630000D02*
X31060000Y43780000D01*
G75*
G02*
X30810000Y43530000I-250000J0D01*
G01*
X30085000Y43530000D01*
G75*
G02*
X29835000Y43780000I0J250000D01*
G01*
X29835000Y46630000D01*
G75*
G02*
X30085000Y46880000I250000J0D01*
G01*
X30810000Y46880000D01*
G75*
G02*
X31060000Y46630000I0J-250000D01*
G01*
G37*
G36*
G01*
X25135000Y46630000D02*
X25135000Y43780000D01*
G75*
G02*
X24885000Y43530000I-250000J0D01*
G01*
X24160000Y43530000D01*
G75*
G02*
X23910000Y43780000I0J250000D01*
G01*
X23910000Y46630000D01*
G75*
G02*
X24160000Y46880000I250000J0D01*
G01*
X24885000Y46880000D01*
G75*
G02*
X25135000Y46630000I0J-250000D01*
G01*
G37*
G04 #@! TD*
D26*
G04 #@! TO.C,M7*
X89005004Y69982503D03*
D27*
X99354998Y70032501D03*
X98854997Y70032501D03*
D28*
X92305000Y71082499D03*
X93180002Y71607499D03*
X92004998Y72357497D03*
X92080001Y75907498D03*
G04 #@! TD*
G04 #@! TO.C,U9*
G36*
G01*
X1005000Y35480000D02*
X1005000Y35780000D01*
G75*
G02*
X1155000Y35930000I150000J0D01*
G01*
X2805000Y35930000D01*
G75*
G02*
X2955000Y35780000I0J-150000D01*
G01*
X2955000Y35480000D01*
G75*
G02*
X2805000Y35330000I-150000J0D01*
G01*
X1155000Y35330000D01*
G75*
G02*
X1005000Y35480000I0J150000D01*
G01*
G37*
G36*
G01*
X1005000Y36750000D02*
X1005000Y37050000D01*
G75*
G02*
X1155000Y37200000I150000J0D01*
G01*
X2805000Y37200000D01*
G75*
G02*
X2955000Y37050000I0J-150000D01*
G01*
X2955000Y36750000D01*
G75*
G02*
X2805000Y36600000I-150000J0D01*
G01*
X1155000Y36600000D01*
G75*
G02*
X1005000Y36750000I0J150000D01*
G01*
G37*
G36*
G01*
X1005000Y38020000D02*
X1005000Y38320000D01*
G75*
G02*
X1155000Y38470000I150000J0D01*
G01*
X2805000Y38470000D01*
G75*
G02*
X2955000Y38320000I0J-150000D01*
G01*
X2955000Y38020000D01*
G75*
G02*
X2805000Y37870000I-150000J0D01*
G01*
X1155000Y37870000D01*
G75*
G02*
X1005000Y38020000I0J150000D01*
G01*
G37*
G36*
G01*
X1005000Y39290000D02*
X1005000Y39590000D01*
G75*
G02*
X1155000Y39740000I150000J0D01*
G01*
X2805000Y39740000D01*
G75*
G02*
X2955000Y39590000I0J-150000D01*
G01*
X2955000Y39290000D01*
G75*
G02*
X2805000Y39140000I-150000J0D01*
G01*
X1155000Y39140000D01*
G75*
G02*
X1005000Y39290000I0J150000D01*
G01*
G37*
G36*
G01*
X5955000Y39290000D02*
X5955000Y39590000D01*
G75*
G02*
X6105000Y39740000I150000J0D01*
G01*
X7755000Y39740000D01*
G75*
G02*
X7905000Y39590000I0J-150000D01*
G01*
X7905000Y39290000D01*
G75*
G02*
X7755000Y39140000I-150000J0D01*
G01*
X6105000Y39140000D01*
G75*
G02*
X5955000Y39290000I0J150000D01*
G01*
G37*
G36*
G01*
X5955000Y38020000D02*
X5955000Y38320000D01*
G75*
G02*
X6105000Y38470000I150000J0D01*
G01*
X7755000Y38470000D01*
G75*
G02*
X7905000Y38320000I0J-150000D01*
G01*
X7905000Y38020000D01*
G75*
G02*
X7755000Y37870000I-150000J0D01*
G01*
X6105000Y37870000D01*
G75*
G02*
X5955000Y38020000I0J150000D01*
G01*
G37*
G36*
G01*
X5955000Y36750000D02*
X5955000Y37050000D01*
G75*
G02*
X6105000Y37200000I150000J0D01*
G01*
X7755000Y37200000D01*
G75*
G02*
X7905000Y37050000I0J-150000D01*
G01*
X7905000Y36750000D01*
G75*
G02*
X7755000Y36600000I-150000J0D01*
G01*
X6105000Y36600000D01*
G75*
G02*
X5955000Y36750000I0J150000D01*
G01*
G37*
G36*
G01*
X5955000Y35480000D02*
X5955000Y35780000D01*
G75*
G02*
X6105000Y35930000I150000J0D01*
G01*
X7755000Y35930000D01*
G75*
G02*
X7905000Y35780000I0J-150000D01*
G01*
X7905000Y35480000D01*
G75*
G02*
X7755000Y35330000I-150000J0D01*
G01*
X6105000Y35330000D01*
G75*
G02*
X5955000Y35480000I0J150000D01*
G01*
G37*
G04 #@! TD*
G04 #@! TO.C,R30*
G36*
G01*
X935000Y40525000D02*
X935000Y41305000D01*
G75*
G02*
X1005000Y41375000I70000J0D01*
G01*
X1565000Y41375000D01*
G75*
G02*
X1635000Y41305000I0J-70000D01*
G01*
X1635000Y40525000D01*
G75*
G02*
X1565000Y40455000I-70000J0D01*
G01*
X1005000Y40455000D01*
G75*
G02*
X935000Y40525000I0J70000D01*
G01*
G37*
G36*
G01*
X2535000Y40525000D02*
X2535000Y41305000D01*
G75*
G02*
X2605000Y41375000I70000J0D01*
G01*
X3165000Y41375000D01*
G75*
G02*
X3235000Y41305000I0J-70000D01*
G01*
X3235000Y40525000D01*
G75*
G02*
X3165000Y40455000I-70000J0D01*
G01*
X2605000Y40455000D01*
G75*
G02*
X2535000Y40525000I0J70000D01*
G01*
G37*
G04 #@! TD*
G04 #@! TO.C,C16*
G36*
G01*
X2315000Y16415000D02*
X2315000Y17465000D01*
G75*
G02*
X2415000Y17565000I100000J0D01*
G01*
X3215000Y17565000D01*
G75*
G02*
X3315000Y17465000I0J-100000D01*
G01*
X3315000Y16415000D01*
G75*
G02*
X3215000Y16315000I-100000J0D01*
G01*
X2415000Y16315000D01*
G75*
G02*
X2315000Y16415000I0J100000D01*
G01*
G37*
G36*
G01*
X4315000Y16415000D02*
X4315000Y17465000D01*
G75*
G02*
X4415000Y17565000I100000J0D01*
G01*
X5215000Y17565000D01*
G75*
G02*
X5315000Y17465000I0J-100000D01*
G01*
X5315000Y16415000D01*
G75*
G02*
X5215000Y16315000I-100000J0D01*
G01*
X4415000Y16315000D01*
G75*
G02*
X4315000Y16415000I0J100000D01*
G01*
G37*
G04 #@! TD*
G04 #@! TO.C,C22*
G36*
G01*
X9315000Y19465000D02*
X9315000Y18415000D01*
G75*
G02*
X9215000Y18315000I-100000J0D01*
G01*
X8415000Y18315000D01*
G75*
G02*
X8315000Y18415000I0J100000D01*
G01*
X8315000Y19465000D01*
G75*
G02*
X8415000Y19565000I100000J0D01*
G01*
X9215000Y19565000D01*
G75*
G02*
X9315000Y19465000I0J-100000D01*
G01*
G37*
G36*
G01*
X7315000Y19465000D02*
X7315000Y18415000D01*
G75*
G02*
X7215000Y18315000I-100000J0D01*
G01*
X6415000Y18315000D01*
G75*
G02*
X6315000Y18415000I0J100000D01*
G01*
X6315000Y19465000D01*
G75*
G02*
X6415000Y19565000I100000J0D01*
G01*
X7215000Y19565000D01*
G75*
G02*
X7315000Y19465000I0J-100000D01*
G01*
G37*
G04 #@! TD*
G04 #@! TO.C,R3*
G36*
G01*
X21165000Y7395000D02*
X21165000Y8175000D01*
G75*
G02*
X21235000Y8245000I70000J0D01*
G01*
X21795000Y8245000D01*
G75*
G02*
X21865000Y8175000I0J-70000D01*
G01*
X21865000Y7395000D01*
G75*
G02*
X21795000Y7325000I-70000J0D01*
G01*
X21235000Y7325000D01*
G75*
G02*
X21165000Y7395000I0J70000D01*
G01*
G37*
G36*
G01*
X22765000Y7395000D02*
X22765000Y8175000D01*
G75*
G02*
X22835000Y8245000I70000J0D01*
G01*
X23395000Y8245000D01*
G75*
G02*
X23465000Y8175000I0J-70000D01*
G01*
X23465000Y7395000D01*
G75*
G02*
X23395000Y7325000I-70000J0D01*
G01*
X22835000Y7325000D01*
G75*
G02*
X22765000Y7395000I0J70000D01*
G01*
G37*
G04 #@! TD*
G04 #@! TO.C,R35*
G36*
G01*
X107345022Y59270000D02*
X107345022Y58020000D01*
G75*
G02*
X107245022Y57920000I-100000J0D01*
G01*
X106445022Y57920000D01*
G75*
G02*
X106345022Y58020000I0J100000D01*
G01*
X106345022Y59270000D01*
G75*
G02*
X106445022Y59370000I100000J0D01*
G01*
X107245022Y59370000D01*
G75*
G02*
X107345022Y59270000I0J-100000D01*
G01*
G37*
G36*
G01*
X105445000Y59270000D02*
X105445000Y58020000D01*
G75*
G02*
X105345000Y57920000I-100000J0D01*
G01*
X104545000Y57920000D01*
G75*
G02*
X104445000Y58020000I0J100000D01*
G01*
X104445000Y59270000D01*
G75*
G02*
X104545000Y59370000I100000J0D01*
G01*
X105345000Y59370000D01*
G75*
G02*
X105445000Y59270000I0J-100000D01*
G01*
G37*
G04 #@! TD*
G04 #@! TO.C,R13*
G36*
G01*
X935000Y31305000D02*
X935000Y32085000D01*
G75*
G02*
X1005000Y32155000I70000J0D01*
G01*
X1565000Y32155000D01*
G75*
G02*
X1635000Y32085000I0J-70000D01*
G01*
X1635000Y31305000D01*
G75*
G02*
X1565000Y31235000I-70000J0D01*
G01*
X1005000Y31235000D01*
G75*
G02*
X935000Y31305000I0J70000D01*
G01*
G37*
G36*
G01*
X2535000Y31305000D02*
X2535000Y32085000D01*
G75*
G02*
X2605000Y32155000I70000J0D01*
G01*
X3165000Y32155000D01*
G75*
G02*
X3235000Y32085000I0J-70000D01*
G01*
X3235000Y31305000D01*
G75*
G02*
X3165000Y31235000I-70000J0D01*
G01*
X2605000Y31235000D01*
G75*
G02*
X2535000Y31305000I0J70000D01*
G01*
G37*
G04 #@! TD*
D25*
G04 #@! TO.C,F1*
X25185000Y16415000D03*
G36*
G01*
X24285000Y17069990D02*
X24285000Y17759990D01*
G75*
G02*
X24515000Y17989990I230000J0D01*
G01*
X25855000Y17989990D01*
G75*
G02*
X26085000Y17759990I0J-230000D01*
G01*
X26085000Y17069990D01*
G75*
G02*
X25855000Y16839990I-230000J0D01*
G01*
X24515000Y16839990D01*
G75*
G02*
X24285000Y17069990I0J230000D01*
G01*
G37*
G36*
G01*
X24285000Y19970010D02*
X24285000Y20660010D01*
G75*
G02*
X24515000Y20890010I230000J0D01*
G01*
X25855000Y20890010D01*
G75*
G02*
X26085000Y20660010I0J-230000D01*
G01*
X26085000Y19970010D01*
G75*
G02*
X25855000Y19740010I-230000J0D01*
G01*
X24515000Y19740010D01*
G75*
G02*
X24285000Y19970010I0J230000D01*
G01*
G37*
X25185000Y21315000D03*
G04 #@! TD*
G04 #@! TO.C,R17*
G36*
G01*
X15007500Y71321250D02*
X15787500Y71321250D01*
G75*
G02*
X15857500Y71251250I0J-70000D01*
G01*
X15857500Y70691250D01*
G75*
G02*
X15787500Y70621250I-70000J0D01*
G01*
X15007500Y70621250D01*
G75*
G02*
X14937500Y70691250I0J70000D01*
G01*
X14937500Y71251250D01*
G75*
G02*
X15007500Y71321250I70000J0D01*
G01*
G37*
G36*
G01*
X15007500Y69721250D02*
X15787500Y69721250D01*
G75*
G02*
X15857500Y69651250I0J-70000D01*
G01*
X15857500Y69091250D01*
G75*
G02*
X15787500Y69021250I-70000J0D01*
G01*
X15007500Y69021250D01*
G75*
G02*
X14937500Y69091250I0J70000D01*
G01*
X14937500Y69651250D01*
G75*
G02*
X15007500Y69721250I70000J0D01*
G01*
G37*
G04 #@! TD*
G04 #@! TO.C,R4*
X46805000Y2450000D03*
G36*
G01*
X47430000Y2904999D02*
X46180000Y2904999D01*
G75*
G02*
X46080000Y3004999I0J100000D01*
G01*
X46080000Y3804999D01*
G75*
G02*
X46180000Y3904999I100000J0D01*
G01*
X47430000Y3904999D01*
G75*
G02*
X47530000Y3804999I0J-100000D01*
G01*
X47530000Y3004999D01*
G75*
G02*
X47430000Y2904999I-100000J0D01*
G01*
G37*
G36*
G01*
X47430000Y4805021D02*
X46180000Y4805021D01*
G75*
G02*
X46080000Y4905021I0J100000D01*
G01*
X46080000Y5705021D01*
G75*
G02*
X46180000Y5805021I100000J0D01*
G01*
X47430000Y5805021D01*
G75*
G02*
X47530000Y5705021I0J-100000D01*
G01*
X47530000Y4905021D01*
G75*
G02*
X47430000Y4805021I-100000J0D01*
G01*
G37*
X46805000Y6260000D03*
G04 #@! TD*
G04 #@! TO.C,R38*
G36*
G01*
X103895022Y59270000D02*
X103895022Y58020000D01*
G75*
G02*
X103795022Y57920000I-100000J0D01*
G01*
X102995022Y57920000D01*
G75*
G02*
X102895022Y58020000I0J100000D01*
G01*
X102895022Y59270000D01*
G75*
G02*
X102995022Y59370000I100000J0D01*
G01*
X103795022Y59370000D01*
G75*
G02*
X103895022Y59270000I0J-100000D01*
G01*
G37*
G36*
G01*
X101995000Y59270000D02*
X101995000Y58020000D01*
G75*
G02*
X101895000Y57920000I-100000J0D01*
G01*
X101095000Y57920000D01*
G75*
G02*
X100995000Y58020000I0J100000D01*
G01*
X100995000Y59270000D01*
G75*
G02*
X101095000Y59370000I100000J0D01*
G01*
X101895000Y59370000D01*
G75*
G02*
X101995000Y59270000I0J-100000D01*
G01*
G37*
G04 #@! TD*
G04 #@! TO.C,F7*
G36*
G01*
X32015000Y52853750D02*
X32015000Y53366250D01*
G75*
G02*
X32233750Y53585000I218750J0D01*
G01*
X32671250Y53585000D01*
G75*
G02*
X32890000Y53366250I0J-218750D01*
G01*
X32890000Y52853750D01*
G75*
G02*
X32671250Y52635000I-218750J0D01*
G01*
X32233750Y52635000D01*
G75*
G02*
X32015000Y52853750I0J218750D01*
G01*
G37*
G36*
G01*
X33590000Y52853750D02*
X33590000Y53366250D01*
G75*
G02*
X33808750Y53585000I218750J0D01*
G01*
X34246250Y53585000D01*
G75*
G02*
X34465000Y53366250I0J-218750D01*
G01*
X34465000Y52853750D01*
G75*
G02*
X34246250Y52635000I-218750J0D01*
G01*
X33808750Y52635000D01*
G75*
G02*
X33590000Y52853750I0J218750D01*
G01*
G37*
G04 #@! TD*
G04 #@! TO.C,R36*
G36*
G01*
X107345022Y61770000D02*
X107345022Y60520000D01*
G75*
G02*
X107245022Y60420000I-100000J0D01*
G01*
X106445022Y60420000D01*
G75*
G02*
X106345022Y60520000I0J100000D01*
G01*
X106345022Y61770000D01*
G75*
G02*
X106445022Y61870000I100000J0D01*
G01*
X107245022Y61870000D01*
G75*
G02*
X107345022Y61770000I0J-100000D01*
G01*
G37*
G36*
G01*
X105445000Y61770000D02*
X105445000Y60520000D01*
G75*
G02*
X105345000Y60420000I-100000J0D01*
G01*
X104545000Y60420000D01*
G75*
G02*
X104445000Y60520000I0J100000D01*
G01*
X104445000Y61770000D01*
G75*
G02*
X104545000Y61870000I100000J0D01*
G01*
X105345000Y61870000D01*
G75*
G02*
X105445000Y61770000I0J-100000D01*
G01*
G37*
G04 #@! TD*
G04 #@! TO.C,C5*
G36*
G01*
X11035000Y10820000D02*
X11035000Y11870000D01*
G75*
G02*
X11135000Y11970000I100000J0D01*
G01*
X11935000Y11970000D01*
G75*
G02*
X12035000Y11870000I0J-100000D01*
G01*
X12035000Y10820000D01*
G75*
G02*
X11935000Y10720000I-100000J0D01*
G01*
X11135000Y10720000D01*
G75*
G02*
X11035000Y10820000I0J100000D01*
G01*
G37*
G36*
G01*
X13035000Y10820000D02*
X13035000Y11870000D01*
G75*
G02*
X13135000Y11970000I100000J0D01*
G01*
X13935000Y11970000D01*
G75*
G02*
X14035000Y11870000I0J-100000D01*
G01*
X14035000Y10820000D01*
G75*
G02*
X13935000Y10720000I-100000J0D01*
G01*
X13135000Y10720000D01*
G75*
G02*
X13035000Y10820000I0J100000D01*
G01*
G37*
G04 #@! TD*
G04 #@! TO.C,F5*
G36*
G01*
X4918750Y61743750D02*
X4406250Y61743750D01*
G75*
G02*
X4187500Y61962500I0J218750D01*
G01*
X4187500Y62400000D01*
G75*
G02*
X4406250Y62618750I218750J0D01*
G01*
X4918750Y62618750D01*
G75*
G02*
X5137500Y62400000I0J-218750D01*
G01*
X5137500Y61962500D01*
G75*
G02*
X4918750Y61743750I-218750J0D01*
G01*
G37*
G36*
G01*
X4918750Y63318750D02*
X4406250Y63318750D01*
G75*
G02*
X4187500Y63537500I0J218750D01*
G01*
X4187500Y63975000D01*
G75*
G02*
X4406250Y64193750I218750J0D01*
G01*
X4918750Y64193750D01*
G75*
G02*
X5137500Y63975000I0J-218750D01*
G01*
X5137500Y63537500D01*
G75*
G02*
X4918750Y63318750I-218750J0D01*
G01*
G37*
G04 #@! TD*
G04 #@! TO.C,R29*
G36*
G01*
X935000Y33775000D02*
X935000Y34555000D01*
G75*
G02*
X1005000Y34625000I70000J0D01*
G01*
X1565000Y34625000D01*
G75*
G02*
X1635000Y34555000I0J-70000D01*
G01*
X1635000Y33775000D01*
G75*
G02*
X1565000Y33705000I-70000J0D01*
G01*
X1005000Y33705000D01*
G75*
G02*
X935000Y33775000I0J70000D01*
G01*
G37*
G36*
G01*
X2535000Y33775000D02*
X2535000Y34555000D01*
G75*
G02*
X2605000Y34625000I70000J0D01*
G01*
X3165000Y34625000D01*
G75*
G02*
X3235000Y34555000I0J-70000D01*
G01*
X3235000Y33775000D01*
G75*
G02*
X3165000Y33705000I-70000J0D01*
G01*
X2605000Y33705000D01*
G75*
G02*
X2535000Y33775000I0J70000D01*
G01*
G37*
G04 #@! TD*
G04 #@! TO.C,R18*
G36*
G01*
X6540000Y60928750D02*
X7320000Y60928750D01*
G75*
G02*
X7390000Y60858750I0J-70000D01*
G01*
X7390000Y60298750D01*
G75*
G02*
X7320000Y60228750I-70000J0D01*
G01*
X6540000Y60228750D01*
G75*
G02*
X6470000Y60298750I0J70000D01*
G01*
X6470000Y60858750D01*
G75*
G02*
X6540000Y60928750I70000J0D01*
G01*
G37*
G36*
G01*
X6540000Y59328750D02*
X7320000Y59328750D01*
G75*
G02*
X7390000Y59258750I0J-70000D01*
G01*
X7390000Y58698750D01*
G75*
G02*
X7320000Y58628750I-70000J0D01*
G01*
X6540000Y58628750D01*
G75*
G02*
X6470000Y58698750I0J70000D01*
G01*
X6470000Y59258750D01*
G75*
G02*
X6540000Y59328750I70000J0D01*
G01*
G37*
G04 #@! TD*
G04 #@! TO.C,C15*
G36*
G01*
X2315000Y14415000D02*
X2315000Y15465000D01*
G75*
G02*
X2415000Y15565000I100000J0D01*
G01*
X3215000Y15565000D01*
G75*
G02*
X3315000Y15465000I0J-100000D01*
G01*
X3315000Y14415000D01*
G75*
G02*
X3215000Y14315000I-100000J0D01*
G01*
X2415000Y14315000D01*
G75*
G02*
X2315000Y14415000I0J100000D01*
G01*
G37*
G36*
G01*
X4315000Y14415000D02*
X4315000Y15465000D01*
G75*
G02*
X4415000Y15565000I100000J0D01*
G01*
X5215000Y15565000D01*
G75*
G02*
X5315000Y15465000I0J-100000D01*
G01*
X5315000Y14415000D01*
G75*
G02*
X5215000Y14315000I-100000J0D01*
G01*
X4415000Y14315000D01*
G75*
G02*
X4315000Y14415000I0J100000D01*
G01*
G37*
G04 #@! TD*
G04 #@! TO.C,R20*
G36*
G01*
X10482500Y71216250D02*
X13332500Y71216250D01*
G75*
G02*
X13582500Y70966250I0J-250000D01*
G01*
X13582500Y70241250D01*
G75*
G02*
X13332500Y69991250I-250000J0D01*
G01*
X10482500Y69991250D01*
G75*
G02*
X10232500Y70241250I0J250000D01*
G01*
X10232500Y70966250D01*
G75*
G02*
X10482500Y71216250I250000J0D01*
G01*
G37*
G36*
G01*
X10482500Y65291250D02*
X13332500Y65291250D01*
G75*
G02*
X13582500Y65041250I0J-250000D01*
G01*
X13582500Y64316250D01*
G75*
G02*
X13332500Y64066250I-250000J0D01*
G01*
X10482500Y64066250D01*
G75*
G02*
X10232500Y64316250I0J250000D01*
G01*
X10232500Y65041250D01*
G75*
G02*
X10482500Y65291250I250000J0D01*
G01*
G37*
G04 #@! TD*
G04 #@! TO.C,C8*
G36*
G01*
X18035000Y7870000D02*
X18035000Y6820000D01*
G75*
G02*
X17935000Y6720000I-100000J0D01*
G01*
X17135000Y6720000D01*
G75*
G02*
X17035000Y6820000I0J100000D01*
G01*
X17035000Y7870000D01*
G75*
G02*
X17135000Y7970000I100000J0D01*
G01*
X17935000Y7970000D01*
G75*
G02*
X18035000Y7870000I0J-100000D01*
G01*
G37*
G36*
G01*
X16035000Y7870000D02*
X16035000Y6820000D01*
G75*
G02*
X15935000Y6720000I-100000J0D01*
G01*
X15135000Y6720000D01*
G75*
G02*
X15035000Y6820000I0J100000D01*
G01*
X15035000Y7870000D01*
G75*
G02*
X15135000Y7970000I100000J0D01*
G01*
X15935000Y7970000D01*
G75*
G02*
X16035000Y7870000I0J-100000D01*
G01*
G37*
G04 #@! TD*
G04 #@! TO.C,R22*
G36*
G01*
X31055000Y55845000D02*
X31055000Y52995000D01*
G75*
G02*
X30805000Y52745000I-250000J0D01*
G01*
X30080000Y52745000D01*
G75*
G02*
X29830000Y52995000I0J250000D01*
G01*
X29830000Y55845000D01*
G75*
G02*
X30080000Y56095000I250000J0D01*
G01*
X30805000Y56095000D01*
G75*
G02*
X31055000Y55845000I0J-250000D01*
G01*
G37*
G36*
G01*
X25130000Y55845000D02*
X25130000Y52995000D01*
G75*
G02*
X24880000Y52745000I-250000J0D01*
G01*
X24155000Y52745000D01*
G75*
G02*
X23905000Y52995000I0J250000D01*
G01*
X23905000Y55845000D01*
G75*
G02*
X24155000Y56095000I250000J0D01*
G01*
X24880000Y56095000D01*
G75*
G02*
X25130000Y55845000I0J-250000D01*
G01*
G37*
G04 #@! TD*
G04 #@! TO.C,C9*
G36*
G01*
X18035000Y9870000D02*
X18035000Y8820000D01*
G75*
G02*
X17935000Y8720000I-100000J0D01*
G01*
X17135000Y8720000D01*
G75*
G02*
X17035000Y8820000I0J100000D01*
G01*
X17035000Y9870000D01*
G75*
G02*
X17135000Y9970000I100000J0D01*
G01*
X17935000Y9970000D01*
G75*
G02*
X18035000Y9870000I0J-100000D01*
G01*
G37*
G36*
G01*
X16035000Y9870000D02*
X16035000Y8820000D01*
G75*
G02*
X15935000Y8720000I-100000J0D01*
G01*
X15135000Y8720000D01*
G75*
G02*
X15035000Y8820000I0J100000D01*
G01*
X15035000Y9870000D01*
G75*
G02*
X15135000Y9970000I100000J0D01*
G01*
X15935000Y9970000D01*
G75*
G02*
X16035000Y9870000I0J-100000D01*
G01*
G37*
G04 #@! TD*
G04 #@! TO.C,C6*
G36*
G01*
X18035000Y3870000D02*
X18035000Y2820000D01*
G75*
G02*
X17935000Y2720000I-100000J0D01*
G01*
X17135000Y2720000D01*
G75*
G02*
X17035000Y2820000I0J100000D01*
G01*
X17035000Y3870000D01*
G75*
G02*
X17135000Y3970000I100000J0D01*
G01*
X17935000Y3970000D01*
G75*
G02*
X18035000Y3870000I0J-100000D01*
G01*
G37*
G36*
G01*
X16035000Y3870000D02*
X16035000Y2820000D01*
G75*
G02*
X15935000Y2720000I-100000J0D01*
G01*
X15135000Y2720000D01*
G75*
G02*
X15035000Y2820000I0J100000D01*
G01*
X15035000Y3870000D01*
G75*
G02*
X15135000Y3970000I100000J0D01*
G01*
X15935000Y3970000D01*
G75*
G02*
X16035000Y3870000I0J-100000D01*
G01*
G37*
G04 #@! TD*
G04 #@! TO.C,F2*
X21065000Y13905000D03*
G36*
G01*
X21719990Y14805000D02*
X22409990Y14805000D01*
G75*
G02*
X22639990Y14575000I0J-230000D01*
G01*
X22639990Y13235000D01*
G75*
G02*
X22409990Y13005000I-230000J0D01*
G01*
X21719990Y13005000D01*
G75*
G02*
X21489990Y13235000I0J230000D01*
G01*
X21489990Y14575000D01*
G75*
G02*
X21719990Y14805000I230000J0D01*
G01*
G37*
G36*
G01*
X24620010Y14805000D02*
X25310010Y14805000D01*
G75*
G02*
X25540010Y14575000I0J-230000D01*
G01*
X25540010Y13235000D01*
G75*
G02*
X25310010Y13005000I-230000J0D01*
G01*
X24620010Y13005000D01*
G75*
G02*
X24390010Y13235000I0J230000D01*
G01*
X24390010Y14575000D01*
G75*
G02*
X24620010Y14805000I230000J0D01*
G01*
G37*
X25965000Y13905000D03*
G04 #@! TD*
G04 #@! TO.C,D5*
G36*
G01*
X4855000Y31615000D02*
X4855000Y32635000D01*
G75*
G02*
X4945000Y32725000I90000J0D01*
G01*
X5665000Y32725000D01*
G75*
G02*
X5755000Y32635000I0J-90000D01*
G01*
X5755000Y31615000D01*
G75*
G02*
X5665000Y31525000I-90000J0D01*
G01*
X4945000Y31525000D01*
G75*
G02*
X4855000Y31615000I0J90000D01*
G01*
G37*
G36*
G01*
X8155000Y31615000D02*
X8155000Y32635000D01*
G75*
G02*
X8245000Y32725000I90000J0D01*
G01*
X8965000Y32725000D01*
G75*
G02*
X9055000Y32635000I0J-90000D01*
G01*
X9055000Y31615000D01*
G75*
G02*
X8965000Y31525000I-90000J0D01*
G01*
X8245000Y31525000D01*
G75*
G02*
X8155000Y31615000I0J90000D01*
G01*
G37*
G04 #@! TD*
G04 #@! TO.C,C2*
G36*
G01*
X11035000Y4820000D02*
X11035000Y5870000D01*
G75*
G02*
X11135000Y5970000I100000J0D01*
G01*
X11935000Y5970000D01*
G75*
G02*
X12035000Y5870000I0J-100000D01*
G01*
X12035000Y4820000D01*
G75*
G02*
X11935000Y4720000I-100000J0D01*
G01*
X11135000Y4720000D01*
G75*
G02*
X11035000Y4820000I0J100000D01*
G01*
G37*
G36*
G01*
X13035000Y4820000D02*
X13035000Y5870000D01*
G75*
G02*
X13135000Y5970000I100000J0D01*
G01*
X13935000Y5970000D01*
G75*
G02*
X14035000Y5870000I0J-100000D01*
G01*
X14035000Y4820000D01*
G75*
G02*
X13935000Y4720000I-100000J0D01*
G01*
X13135000Y4720000D01*
G75*
G02*
X13035000Y4820000I0J100000D01*
G01*
G37*
G04 #@! TD*
G04 #@! TO.C,C18*
G36*
G01*
X2315000Y20415000D02*
X2315000Y21465000D01*
G75*
G02*
X2415000Y21565000I100000J0D01*
G01*
X3215000Y21565000D01*
G75*
G02*
X3315000Y21465000I0J-100000D01*
G01*
X3315000Y20415000D01*
G75*
G02*
X3215000Y20315000I-100000J0D01*
G01*
X2415000Y20315000D01*
G75*
G02*
X2315000Y20415000I0J100000D01*
G01*
G37*
G36*
G01*
X4315000Y20415000D02*
X4315000Y21465000D01*
G75*
G02*
X4415000Y21565000I100000J0D01*
G01*
X5215000Y21565000D01*
G75*
G02*
X5315000Y21465000I0J-100000D01*
G01*
X5315000Y20415000D01*
G75*
G02*
X5215000Y20315000I-100000J0D01*
G01*
X4415000Y20315000D01*
G75*
G02*
X4315000Y20415000I0J100000D01*
G01*
G37*
G04 #@! TD*
G04 #@! TO.C,R12*
G36*
G01*
X955000Y24435000D02*
X955000Y25215000D01*
G75*
G02*
X1025000Y25285000I70000J0D01*
G01*
X1585000Y25285000D01*
G75*
G02*
X1655000Y25215000I0J-70000D01*
G01*
X1655000Y24435000D01*
G75*
G02*
X1585000Y24365000I-70000J0D01*
G01*
X1025000Y24365000D01*
G75*
G02*
X955000Y24435000I0J70000D01*
G01*
G37*
G36*
G01*
X2555000Y24435000D02*
X2555000Y25215000D01*
G75*
G02*
X2625000Y25285000I70000J0D01*
G01*
X3185000Y25285000D01*
G75*
G02*
X3255000Y25215000I0J-70000D01*
G01*
X3255000Y24435000D01*
G75*
G02*
X3185000Y24365000I-70000J0D01*
G01*
X2625000Y24365000D01*
G75*
G02*
X2555000Y24435000I0J70000D01*
G01*
G37*
G04 #@! TD*
G04 #@! TO.C,C20*
G36*
G01*
X9315000Y15465000D02*
X9315000Y14415000D01*
G75*
G02*
X9215000Y14315000I-100000J0D01*
G01*
X8415000Y14315000D01*
G75*
G02*
X8315000Y14415000I0J100000D01*
G01*
X8315000Y15465000D01*
G75*
G02*
X8415000Y15565000I100000J0D01*
G01*
X9215000Y15565000D01*
G75*
G02*
X9315000Y15465000I0J-100000D01*
G01*
G37*
G36*
G01*
X7315000Y15465000D02*
X7315000Y14415000D01*
G75*
G02*
X7215000Y14315000I-100000J0D01*
G01*
X6415000Y14315000D01*
G75*
G02*
X6315000Y14415000I0J100000D01*
G01*
X6315000Y15465000D01*
G75*
G02*
X6415000Y15565000I100000J0D01*
G01*
X7215000Y15565000D01*
G75*
G02*
X7315000Y15465000I0J-100000D01*
G01*
G37*
G04 #@! TD*
G04 #@! TO.C,F10*
G36*
G01*
X32045000Y29693750D02*
X32045000Y30206250D01*
G75*
G02*
X32263750Y30425000I218750J0D01*
G01*
X32701250Y30425000D01*
G75*
G02*
X32920000Y30206250I0J-218750D01*
G01*
X32920000Y29693750D01*
G75*
G02*
X32701250Y29475000I-218750J0D01*
G01*
X32263750Y29475000D01*
G75*
G02*
X32045000Y29693750I0J218750D01*
G01*
G37*
G36*
G01*
X33620000Y29693750D02*
X33620000Y30206250D01*
G75*
G02*
X33838750Y30425000I218750J0D01*
G01*
X34276250Y30425000D01*
G75*
G02*
X34495000Y30206250I0J-218750D01*
G01*
X34495000Y29693750D01*
G75*
G02*
X34276250Y29475000I-218750J0D01*
G01*
X33838750Y29475000D01*
G75*
G02*
X33620000Y29693750I0J218750D01*
G01*
G37*
G04 #@! TD*
G04 #@! TO.C,R5*
G36*
G01*
X103425000Y30555000D02*
X102645000Y30555000D01*
G75*
G02*
X102575000Y30625000I0J70000D01*
G01*
X102575000Y31185000D01*
G75*
G02*
X102645000Y31255000I70000J0D01*
G01*
X103425000Y31255000D01*
G75*
G02*
X103495000Y31185000I0J-70000D01*
G01*
X103495000Y30625000D01*
G75*
G02*
X103425000Y30555000I-70000J0D01*
G01*
G37*
G36*
G01*
X103425000Y32155000D02*
X102645000Y32155000D01*
G75*
G02*
X102575000Y32225000I0J70000D01*
G01*
X102575000Y32785000D01*
G75*
G02*
X102645000Y32855000I70000J0D01*
G01*
X103425000Y32855000D01*
G75*
G02*
X103495000Y32785000I0J-70000D01*
G01*
X103495000Y32225000D01*
G75*
G02*
X103425000Y32155000I-70000J0D01*
G01*
G37*
G04 #@! TD*
G04 #@! TO.C,R6*
G36*
G01*
X88295000Y69395000D02*
X89075000Y69395000D01*
G75*
G02*
X89145000Y69325000I0J-70000D01*
G01*
X89145000Y68765000D01*
G75*
G02*
X89075000Y68695000I-70000J0D01*
G01*
X88295000Y68695000D01*
G75*
G02*
X88225000Y68765000I0J70000D01*
G01*
X88225000Y69325000D01*
G75*
G02*
X88295000Y69395000I70000J0D01*
G01*
G37*
G36*
G01*
X88295000Y67795000D02*
X89075000Y67795000D01*
G75*
G02*
X89145000Y67725000I0J-70000D01*
G01*
X89145000Y67165000D01*
G75*
G02*
X89075000Y67095000I-70000J0D01*
G01*
X88295000Y67095000D01*
G75*
G02*
X88225000Y67165000I0J70000D01*
G01*
X88225000Y67725000D01*
G75*
G02*
X88295000Y67795000I70000J0D01*
G01*
G37*
G04 #@! TD*
G04 #@! TO.C,R28*
G36*
G01*
X31075000Y32615000D02*
X31075000Y29765000D01*
G75*
G02*
X30825000Y29515000I-250000J0D01*
G01*
X30100000Y29515000D01*
G75*
G02*
X29850000Y29765000I0J250000D01*
G01*
X29850000Y32615000D01*
G75*
G02*
X30100000Y32865000I250000J0D01*
G01*
X30825000Y32865000D01*
G75*
G02*
X31075000Y32615000I0J-250000D01*
G01*
G37*
G36*
G01*
X25150000Y32615000D02*
X25150000Y29765000D01*
G75*
G02*
X24900000Y29515000I-250000J0D01*
G01*
X24175000Y29515000D01*
G75*
G02*
X23925000Y29765000I0J250000D01*
G01*
X23925000Y32615000D01*
G75*
G02*
X24175000Y32865000I250000J0D01*
G01*
X24900000Y32865000D01*
G75*
G02*
X25150000Y32615000I0J-250000D01*
G01*
G37*
G04 #@! TD*
G04 #@! TO.C,R2*
G36*
G01*
X23495000Y7395000D02*
X23495000Y8175000D01*
G75*
G02*
X23565000Y8245000I70000J0D01*
G01*
X24125000Y8245000D01*
G75*
G02*
X24195000Y8175000I0J-70000D01*
G01*
X24195000Y7395000D01*
G75*
G02*
X24125000Y7325000I-70000J0D01*
G01*
X23565000Y7325000D01*
G75*
G02*
X23495000Y7395000I0J70000D01*
G01*
G37*
G36*
G01*
X25095000Y7395000D02*
X25095000Y8175000D01*
G75*
G02*
X25165000Y8245000I70000J0D01*
G01*
X25725000Y8245000D01*
G75*
G02*
X25795000Y8175000I0J-70000D01*
G01*
X25795000Y7395000D01*
G75*
G02*
X25725000Y7325000I-70000J0D01*
G01*
X25165000Y7325000D01*
G75*
G02*
X25095000Y7395000I0J70000D01*
G01*
G37*
G04 #@! TD*
G04 #@! TO.C,R25*
G36*
G01*
X29385000Y29225000D02*
X29385000Y28445000D01*
G75*
G02*
X29315000Y28375000I-70000J0D01*
G01*
X28755000Y28375000D01*
G75*
G02*
X28685000Y28445000I0J70000D01*
G01*
X28685000Y29225000D01*
G75*
G02*
X28755000Y29295000I70000J0D01*
G01*
X29315000Y29295000D01*
G75*
G02*
X29385000Y29225000I0J-70000D01*
G01*
G37*
G36*
G01*
X27785000Y29225000D02*
X27785000Y28445000D01*
G75*
G02*
X27715000Y28375000I-70000J0D01*
G01*
X27155000Y28375000D01*
G75*
G02*
X27085000Y28445000I0J70000D01*
G01*
X27085000Y29225000D01*
G75*
G02*
X27155000Y29295000I70000J0D01*
G01*
X27715000Y29295000D01*
G75*
G02*
X27785000Y29225000I0J-70000D01*
G01*
G37*
G04 #@! TD*
G04 #@! TO.C,U8*
G36*
G01*
X990000Y26265000D02*
X990000Y26565000D01*
G75*
G02*
X1140000Y26715000I150000J0D01*
G01*
X2790000Y26715000D01*
G75*
G02*
X2940000Y26565000I0J-150000D01*
G01*
X2940000Y26265000D01*
G75*
G02*
X2790000Y26115000I-150000J0D01*
G01*
X1140000Y26115000D01*
G75*
G02*
X990000Y26265000I0J150000D01*
G01*
G37*
G36*
G01*
X990000Y27535000D02*
X990000Y27835000D01*
G75*
G02*
X1140000Y27985000I150000J0D01*
G01*
X2790000Y27985000D01*
G75*
G02*
X2940000Y27835000I0J-150000D01*
G01*
X2940000Y27535000D01*
G75*
G02*
X2790000Y27385000I-150000J0D01*
G01*
X1140000Y27385000D01*
G75*
G02*
X990000Y27535000I0J150000D01*
G01*
G37*
G36*
G01*
X990000Y28805000D02*
X990000Y29105000D01*
G75*
G02*
X1140000Y29255000I150000J0D01*
G01*
X2790000Y29255000D01*
G75*
G02*
X2940000Y29105000I0J-150000D01*
G01*
X2940000Y28805000D01*
G75*
G02*
X2790000Y28655000I-150000J0D01*
G01*
X1140000Y28655000D01*
G75*
G02*
X990000Y28805000I0J150000D01*
G01*
G37*
G36*
G01*
X990000Y30075000D02*
X990000Y30375000D01*
G75*
G02*
X1140000Y30525000I150000J0D01*
G01*
X2790000Y30525000D01*
G75*
G02*
X2940000Y30375000I0J-150000D01*
G01*
X2940000Y30075000D01*
G75*
G02*
X2790000Y29925000I-150000J0D01*
G01*
X1140000Y29925000D01*
G75*
G02*
X990000Y30075000I0J150000D01*
G01*
G37*
G36*
G01*
X5940000Y30075000D02*
X5940000Y30375000D01*
G75*
G02*
X6090000Y30525000I150000J0D01*
G01*
X7740000Y30525000D01*
G75*
G02*
X7890000Y30375000I0J-150000D01*
G01*
X7890000Y30075000D01*
G75*
G02*
X7740000Y29925000I-150000J0D01*
G01*
X6090000Y29925000D01*
G75*
G02*
X5940000Y30075000I0J150000D01*
G01*
G37*
G36*
G01*
X5940000Y28805000D02*
X5940000Y29105000D01*
G75*
G02*
X6090000Y29255000I150000J0D01*
G01*
X7740000Y29255000D01*
G75*
G02*
X7890000Y29105000I0J-150000D01*
G01*
X7890000Y28805000D01*
G75*
G02*
X7740000Y28655000I-150000J0D01*
G01*
X6090000Y28655000D01*
G75*
G02*
X5940000Y28805000I0J150000D01*
G01*
G37*
G36*
G01*
X5940000Y27535000D02*
X5940000Y27835000D01*
G75*
G02*
X6090000Y27985000I150000J0D01*
G01*
X7740000Y27985000D01*
G75*
G02*
X7890000Y27835000I0J-150000D01*
G01*
X7890000Y27535000D01*
G75*
G02*
X7740000Y27385000I-150000J0D01*
G01*
X6090000Y27385000D01*
G75*
G02*
X5940000Y27535000I0J150000D01*
G01*
G37*
G36*
G01*
X5940000Y26265000D02*
X5940000Y26565000D01*
G75*
G02*
X6090000Y26715000I150000J0D01*
G01*
X7740000Y26715000D01*
G75*
G02*
X7890000Y26565000I0J-150000D01*
G01*
X7890000Y26265000D01*
G75*
G02*
X7740000Y26115000I-150000J0D01*
G01*
X6090000Y26115000D01*
G75*
G02*
X5940000Y26265000I0J150000D01*
G01*
G37*
G04 #@! TD*
M02*
