G75*
G70*
%OFA0B0*%
%FSLAX25Y25*%
%IPPOS*%
%LPD*%
%AMOC8*
5,1,8,0,0,1.08239X$1,22.5*
%
%AMM107*
21,1,0.023620,0.018900,-0.000000,-0.000000,0.000000*
21,1,0.018900,0.023620,-0.000000,-0.000000,0.000000*
1,1,0.004720,0.009450,-0.009450*
1,1,0.004720,-0.009450,-0.009450*
1,1,0.004720,-0.009450,0.009450*
1,1,0.004720,0.009450,0.009450*
%
%AMM108*
21,1,0.019680,0.019680,-0.000000,-0.000000,90.000000*
21,1,0.015750,0.023620,-0.000000,-0.000000,90.000000*
1,1,0.003940,0.009840,0.007870*
1,1,0.003940,0.009840,-0.007870*
1,1,0.003940,-0.009840,-0.007870*
1,1,0.003940,-0.009840,0.007870*
%
%AMM109*
21,1,0.033470,0.026770,-0.000000,-0.000000,90.000000*
21,1,0.026770,0.033470,-0.000000,-0.000000,90.000000*
1,1,0.006690,0.013390,0.013390*
1,1,0.006690,0.013390,-0.013390*
1,1,0.006690,-0.013390,-0.013390*
1,1,0.006690,-0.013390,0.013390*
%
%AMM11*
21,1,0.023620,0.018900,0.000000,0.000000,90.000000*
21,1,0.018900,0.023620,0.000000,0.000000,90.000000*
1,1,0.004720,0.009450,0.009450*
1,1,0.004720,0.009450,-0.009450*
1,1,0.004720,-0.009450,-0.009450*
1,1,0.004720,-0.009450,0.009450*
%
%AMM110*
21,1,0.019680,0.019680,-0.000000,-0.000000,180.000000*
21,1,0.015750,0.023620,-0.000000,-0.000000,180.000000*
1,1,0.003940,-0.007870,0.009840*
1,1,0.003940,0.007870,0.009840*
1,1,0.003940,0.007870,-0.009840*
1,1,0.003940,-0.007870,-0.009840*
%
%AMM12*
21,1,0.019680,0.019680,0.000000,0.000000,0.000000*
21,1,0.015750,0.023620,0.000000,0.000000,0.000000*
1,1,0.003940,0.007870,-0.009840*
1,1,0.003940,-0.007870,-0.009840*
1,1,0.003940,-0.007870,0.009840*
1,1,0.003940,0.007870,0.009840*
%
%AMM13*
21,1,0.019680,0.019680,0.000000,0.000000,270.000000*
21,1,0.015750,0.023620,0.000000,0.000000,270.000000*
1,1,0.003940,-0.009840,-0.007870*
1,1,0.003940,-0.009840,0.007870*
1,1,0.003940,0.009840,0.007870*
1,1,0.003940,0.009840,-0.007870*
%
%AMM173*
21,1,0.025590,0.026380,-0.000000,-0.000000,90.000000*
21,1,0.020470,0.031500,-0.000000,-0.000000,90.000000*
1,1,0.005120,0.013190,0.010240*
1,1,0.005120,0.013190,-0.010240*
1,1,0.005120,-0.013190,-0.010240*
1,1,0.005120,-0.013190,0.010240*
%
%AMM174*
21,1,0.017720,0.027950,-0.000000,-0.000000,90.000000*
21,1,0.014170,0.031500,-0.000000,-0.000000,90.000000*
1,1,0.003540,0.013980,0.007090*
1,1,0.003540,0.013980,-0.007090*
1,1,0.003540,-0.013980,-0.007090*
1,1,0.003540,-0.013980,0.007090*
%
%AMM177*
21,1,0.027560,0.018900,-0.000000,-0.000000,270.000000*
21,1,0.022840,0.023620,-0.000000,-0.000000,270.000000*
1,1,0.004720,-0.009450,-0.011420*
1,1,0.004720,-0.009450,0.011420*
1,1,0.004720,0.009450,0.011420*
1,1,0.004720,0.009450,-0.011420*
%
%AMM179*
21,1,0.027560,0.018900,-0.000000,-0.000000,0.000000*
21,1,0.022840,0.023620,-0.000000,-0.000000,0.000000*
1,1,0.004720,0.011420,-0.009450*
1,1,0.004720,-0.011420,-0.009450*
1,1,0.004720,-0.011420,0.009450*
1,1,0.004720,0.011420,0.009450*
%
%AMM181*
21,1,0.035430,0.030320,-0.000000,-0.000000,90.000000*
21,1,0.028350,0.037400,-0.000000,-0.000000,90.000000*
1,1,0.007090,0.015160,0.014170*
1,1,0.007090,0.015160,-0.014170*
1,1,0.007090,-0.015160,-0.014170*
1,1,0.007090,-0.015160,0.014170*
%
%AMM184*
21,1,0.027560,0.030710,-0.000000,-0.000000,180.000000*
21,1,0.022050,0.036220,-0.000000,-0.000000,180.000000*
1,1,0.005510,-0.011020,0.015350*
1,1,0.005510,0.011020,0.015350*
1,1,0.005510,0.011020,-0.015350*
1,1,0.005510,-0.011020,-0.015350*
%
%AMM205*
21,1,0.033470,0.026770,-0.000000,-0.000000,270.000000*
21,1,0.026770,0.033470,-0.000000,-0.000000,270.000000*
1,1,0.006690,-0.013390,-0.013390*
1,1,0.006690,-0.013390,0.013390*
1,1,0.006690,0.013390,0.013390*
1,1,0.006690,0.013390,-0.013390*
%
%AMM206*
21,1,0.025590,0.026380,-0.000000,-0.000000,180.000000*
21,1,0.020470,0.031500,-0.000000,-0.000000,180.000000*
1,1,0.005120,-0.010240,0.013190*
1,1,0.005120,0.010240,0.013190*
1,1,0.005120,0.010240,-0.013190*
1,1,0.005120,-0.010240,-0.013190*
%
%AMM207*
21,1,0.017720,0.027950,-0.000000,-0.000000,180.000000*
21,1,0.014170,0.031500,-0.000000,-0.000000,180.000000*
1,1,0.003540,-0.007090,0.013980*
1,1,0.003540,0.007090,0.013980*
1,1,0.003540,0.007090,-0.013980*
1,1,0.003540,-0.007090,-0.013980*
%
%AMM208*
21,1,0.033470,0.026770,-0.000000,-0.000000,180.000000*
21,1,0.026770,0.033470,-0.000000,-0.000000,180.000000*
1,1,0.006690,-0.013390,0.013390*
1,1,0.006690,0.013390,0.013390*
1,1,0.006690,0.013390,-0.013390*
1,1,0.006690,-0.013390,-0.013390*
%
%AMM209*
21,1,0.078740,0.045670,-0.000000,-0.000000,0.000000*
21,1,0.067320,0.057090,-0.000000,-0.000000,0.000000*
1,1,0.011420,0.033660,-0.022840*
1,1,0.011420,-0.033660,-0.022840*
1,1,0.011420,-0.033660,0.022840*
1,1,0.011420,0.033660,0.022840*
%
%AMM210*
21,1,0.059060,0.020470,-0.000000,-0.000000,0.000000*
21,1,0.053940,0.025590,-0.000000,-0.000000,0.000000*
1,1,0.005120,0.026970,-0.010240*
1,1,0.005120,-0.026970,-0.010240*
1,1,0.005120,-0.026970,0.010240*
1,1,0.005120,0.026970,0.010240*
%
%AMM211*
21,1,0.035430,0.030320,-0.000000,-0.000000,0.000000*
21,1,0.028350,0.037400,-0.000000,-0.000000,0.000000*
1,1,0.007090,0.014170,-0.015160*
1,1,0.007090,-0.014170,-0.015160*
1,1,0.007090,-0.014170,0.015160*
1,1,0.007090,0.014170,0.015160*
%
%AMM212*
21,1,0.012600,0.028980,-0.000000,-0.000000,0.000000*
21,1,0.010080,0.031500,-0.000000,-0.000000,0.000000*
1,1,0.002520,0.005040,-0.014490*
1,1,0.002520,-0.005040,-0.014490*
1,1,0.002520,-0.005040,0.014490*
1,1,0.002520,0.005040,0.014490*
%
%AMM213*
21,1,0.070870,0.036220,-0.000000,-0.000000,180.000000*
21,1,0.061810,0.045280,-0.000000,-0.000000,180.000000*
1,1,0.009060,-0.030910,0.018110*
1,1,0.009060,0.030910,0.018110*
1,1,0.009060,0.030910,-0.018110*
1,1,0.009060,-0.030910,-0.018110*
%
%AMM214*
21,1,0.035830,0.026770,-0.000000,-0.000000,180.000000*
21,1,0.029130,0.033470,-0.000000,-0.000000,180.000000*
1,1,0.006690,-0.014570,0.013390*
1,1,0.006690,0.014570,0.013390*
1,1,0.006690,0.014570,-0.013390*
1,1,0.006690,-0.014570,-0.013390*
%
%AMM215*
21,1,0.027560,0.049610,-0.000000,-0.000000,180.000000*
21,1,0.022050,0.055120,-0.000000,-0.000000,180.000000*
1,1,0.005510,-0.011020,0.024800*
1,1,0.005510,0.011020,0.024800*
1,1,0.005510,0.011020,-0.024800*
1,1,0.005510,-0.011020,-0.024800*
%
%AMM216*
21,1,0.070870,0.036220,-0.000000,-0.000000,270.000000*
21,1,0.061810,0.045280,-0.000000,-0.000000,270.000000*
1,1,0.009060,-0.018110,-0.030910*
1,1,0.009060,-0.018110,0.030910*
1,1,0.009060,0.018110,0.030910*
1,1,0.009060,0.018110,-0.030910*
%
%AMM217*
21,1,0.027560,0.030710,-0.000000,-0.000000,270.000000*
21,1,0.022050,0.036220,-0.000000,-0.000000,270.000000*
1,1,0.005510,-0.015350,-0.011020*
1,1,0.005510,-0.015350,0.011020*
1,1,0.005510,0.015350,0.011020*
1,1,0.005510,0.015350,-0.011020*
%
%AMM239*
21,1,0.035430,0.030320,-0.000000,0.000000,0.000000*
21,1,0.028350,0.037400,-0.000000,0.000000,0.000000*
1,1,0.007090,0.014170,0.015160*
1,1,0.007090,-0.014170,0.015160*
1,1,0.007090,-0.014170,-0.015160*
1,1,0.007090,0.014170,-0.015160*
%
%AMM240*
21,1,0.033470,0.026770,-0.000000,0.000000,180.000000*
21,1,0.026770,0.033470,-0.000000,0.000000,180.000000*
1,1,0.006690,-0.013390,-0.013390*
1,1,0.006690,0.013390,-0.013390*
1,1,0.006690,0.013390,0.013390*
1,1,0.006690,-0.013390,0.013390*
%
%AMM241*
21,1,0.027560,0.030710,-0.000000,0.000000,0.000000*
21,1,0.022050,0.036220,-0.000000,0.000000,0.000000*
1,1,0.005510,0.011020,0.015350*
1,1,0.005510,-0.011020,0.015350*
1,1,0.005510,-0.011020,-0.015350*
1,1,0.005510,0.011020,-0.015350*
%
%AMM27*
21,1,0.106300,0.050390,0.000000,0.000000,90.000000*
21,1,0.093700,0.062990,0.000000,0.000000,90.000000*
1,1,0.012600,0.025200,0.046850*
1,1,0.012600,0.025200,-0.046850*
1,1,0.012600,-0.025200,-0.046850*
1,1,0.012600,-0.025200,0.046850*
%
%AMM28*
21,1,0.033470,0.026770,0.000000,0.000000,270.000000*
21,1,0.026770,0.033470,0.000000,0.000000,270.000000*
1,1,0.006690,-0.013390,-0.013390*
1,1,0.006690,-0.013390,0.013390*
1,1,0.006690,0.013390,0.013390*
1,1,0.006690,0.013390,-0.013390*
%
%AMM29*
21,1,0.023620,0.018900,0.000000,0.000000,180.000000*
21,1,0.018900,0.023620,0.000000,0.000000,180.000000*
1,1,0.004720,-0.009450,0.009450*
1,1,0.004720,0.009450,0.009450*
1,1,0.004720,0.009450,-0.009450*
1,1,0.004720,-0.009450,-0.009450*
%
%AMM30*
21,1,0.122050,0.075590,0.000000,0.000000,180.000000*
21,1,0.103150,0.094490,0.000000,0.000000,180.000000*
1,1,0.018900,-0.051580,0.037800*
1,1,0.018900,0.051580,0.037800*
1,1,0.018900,0.051580,-0.037800*
1,1,0.018900,-0.051580,-0.037800*
%
%AMM31*
21,1,0.118110,0.083460,0.000000,0.000000,0.000000*
21,1,0.097240,0.104330,0.000000,0.000000,0.000000*
1,1,0.020870,0.048620,-0.041730*
1,1,0.020870,-0.048620,-0.041730*
1,1,0.020870,-0.048620,0.041730*
1,1,0.020870,0.048620,0.041730*
%
%AMM7*
21,1,0.035830,0.026770,0.000000,0.000000,0.000000*
21,1,0.029130,0.033470,0.000000,0.000000,0.000000*
1,1,0.006690,0.014570,-0.013390*
1,1,0.006690,-0.014570,-0.013390*
1,1,0.006690,-0.014570,0.013390*
1,1,0.006690,0.014570,0.013390*
%
%AMM8*
21,1,0.070870,0.036220,0.000000,0.000000,90.000000*
21,1,0.061810,0.045280,0.000000,0.000000,90.000000*
1,1,0.009060,0.018110,0.030910*
1,1,0.009060,0.018110,-0.030910*
1,1,0.009060,-0.018110,-0.030910*
1,1,0.009060,-0.018110,0.030910*
%
%ADD100M7*%
%ADD101M8*%
%ADD104M11*%
%ADD105M12*%
%ADD106M13*%
%ADD124M27*%
%ADD125M28*%
%ADD126M29*%
%ADD127O,0.01968X0.08661*%
%ADD128M30*%
%ADD129M31*%
%ADD156R,0.05709X0.01772*%
%ADD157R,0.04803X0.02559*%
%ADD172O,0.08661X0.02362*%
%ADD20C,0.02362*%
%ADD215R,0.01378X0.01476*%
%ADD218O,0.04961X0.00984*%
%ADD220R,0.09449X0.06693*%
%ADD221R,0.01476X0.01378*%
%ADD223R,0.03937X0.04331*%
%ADD266M107*%
%ADD267M108*%
%ADD268M109*%
%ADD269M110*%
%ADD369M173*%
%ADD370M174*%
%ADD373M177*%
%ADD375M179*%
%ADD377M181*%
%ADD380M184*%
%ADD401M205*%
%ADD402M206*%
%ADD403M207*%
%ADD404M208*%
%ADD405M209*%
%ADD406M210*%
%ADD407M211*%
%ADD408M212*%
%ADD409M213*%
%ADD410M214*%
%ADD411M215*%
%ADD412M216*%
%ADD413M217*%
%ADD44R,0.00787X0.14567*%
%ADD440M239*%
%ADD441M240*%
%ADD442M241*%
%ADD45R,0.00787X0.01575*%
%ADD46R,0.00787X0.06299*%
%ADD47R,0.00787X0.38189*%
%ADD48R,0.00787X0.09055*%
%ADD49R,0.05512X0.00787*%
%ADD50R,0.25197X0.00787*%
%ADD51R,0.06693X0.00787*%
%ADD52R,0.12992X0.00787*%
%ADD53R,0.00787X0.27559*%
%ADD54R,0.00787X0.12992*%
%ADD55R,0.00787X0.24803*%
%ADD81R,0.17323X0.09055*%
%ADD82R,0.15748X0.09055*%
%ADD91O,0.00000X0.00000*%
X0000000Y0000000D02*
%LPD*%
G01*
G36*
G01*
X0409036Y0253070D02*
X0409036Y0248149D01*
G75*
G02*
X0408642Y0247756I-000394J0000000D01*
G01*
X0405492Y0247756D01*
G75*
G02*
X0405099Y0248149I0000000J0000394D01*
G01*
X0405099Y0253070D01*
G75*
G02*
X0405492Y0253464I0000394J0000000D01*
G01*
X0408642Y0253464D01*
G75*
G02*
X0409036Y0253070I0000000J-000394D01*
G01*
G37*
G36*
G01*
X0401555Y0253070D02*
X0401555Y0248149D01*
G75*
G02*
X0401161Y0247756I-000394J0000000D01*
G01*
X0398012Y0247756D01*
G75*
G02*
X0397618Y0248149I0000000J0000394D01*
G01*
X0397618Y0253070D01*
G75*
G02*
X0398012Y0253464I0000394J0000000D01*
G01*
X0401161Y0253464D01*
G75*
G02*
X0401555Y0253070I0000000J-000394D01*
G01*
G37*
G36*
G01*
X0010669Y0043897D02*
X0010669Y0046574D01*
G75*
G02*
X0011004Y0046909I0000335J0000000D01*
G01*
X0013681Y0046909D01*
G75*
G02*
X0014016Y0046574I0000000J-000335D01*
G01*
X0014016Y0043897D01*
G75*
G02*
X0013681Y0043563I-000335J0000000D01*
G01*
X0011004Y0043563D01*
G75*
G02*
X0010669Y0043897I0000000J0000335D01*
G01*
G37*
G36*
G01*
X0016890Y0043897D02*
X0016890Y0046574D01*
G75*
G02*
X0017224Y0046909I0000335J0000000D01*
G01*
X0019902Y0046909D01*
G75*
G02*
X0020236Y0046574I0000000J-000335D01*
G01*
X0020236Y0043897D01*
G75*
G02*
X0019902Y0043563I-000335J0000000D01*
G01*
X0017224Y0043563D01*
G75*
G02*
X0016890Y0043897I0000000J0000335D01*
G01*
G37*
G36*
G01*
X0409036Y0243228D02*
X0409036Y0238307D01*
G75*
G02*
X0408642Y0237913I-000394J0000000D01*
G01*
X0405492Y0237913D01*
G75*
G02*
X0405099Y0238307I0000000J0000394D01*
G01*
X0405099Y0243228D01*
G75*
G02*
X0405492Y0243622I0000394J0000000D01*
G01*
X0408642Y0243622D01*
G75*
G02*
X0409036Y0243228I0000000J-000394D01*
G01*
G37*
G36*
G01*
X0401555Y0243228D02*
X0401555Y0238307D01*
G75*
G02*
X0401161Y0237913I-000394J0000000D01*
G01*
X0398012Y0237913D01*
G75*
G02*
X0397618Y0238307I0000000J0000394D01*
G01*
X0397618Y0243228D01*
G75*
G02*
X0398012Y0243622I0000394J0000000D01*
G01*
X0401161Y0243622D01*
G75*
G02*
X0401555Y0243228I0000000J-000394D01*
G01*
G37*
G36*
G01*
X0071004Y0046771D02*
X0071004Y0042637D01*
G75*
G02*
X0070610Y0042244I-000394J0000000D01*
G01*
X0067461Y0042244D01*
G75*
G02*
X0067067Y0042637I0000000J0000394D01*
G01*
X0067067Y0046771D01*
G75*
G02*
X0067461Y0047165I0000394J0000000D01*
G01*
X0070610Y0047165D01*
G75*
G02*
X0071004Y0046771I0000000J-000394D01*
G01*
G37*
G36*
G01*
X0063130Y0046771D02*
X0063130Y0042637D01*
G75*
G02*
X0062736Y0042244I-000394J0000000D01*
G01*
X0059587Y0042244D01*
G75*
G02*
X0059193Y0042637I0000000J0000394D01*
G01*
X0059193Y0046771D01*
G75*
G02*
X0059587Y0047165I0000394J0000000D01*
G01*
X0062736Y0047165D01*
G75*
G02*
X0063130Y0046771I0000000J-000394D01*
G01*
G37*
G36*
G01*
X0122835Y0202008D02*
X0122835Y0198937D01*
G75*
G02*
X0122559Y0198661I-000276J0000000D01*
G01*
X0120354Y0198661D01*
G75*
G02*
X0120079Y0198937I0000000J0000276D01*
G01*
X0120079Y0202008D01*
G75*
G02*
X0120354Y0202283I0000276J0000000D01*
G01*
X0122559Y0202283D01*
G75*
G02*
X0122835Y0202008I0000000J-000276D01*
G01*
G37*
G36*
G01*
X0116535Y0202008D02*
X0116535Y0198937D01*
G75*
G02*
X0116260Y0198661I-000276J0000000D01*
G01*
X0114055Y0198661D01*
G75*
G02*
X0113780Y0198937I0000000J0000276D01*
G01*
X0113780Y0202008D01*
G75*
G02*
X0114055Y0202283I0000276J0000000D01*
G01*
X0116260Y0202283D01*
G75*
G02*
X0116535Y0202008I0000000J-000276D01*
G01*
G37*
G36*
G01*
X0019134Y0094547D02*
X0019134Y0098563D01*
G75*
G02*
X0019488Y0098917I0000354J0000000D01*
G01*
X0022323Y0098917D01*
G75*
G02*
X0022677Y0098563I0000000J-000354D01*
G01*
X0022677Y0094547D01*
G75*
G02*
X0022323Y0094193I-000354J0000000D01*
G01*
X0019488Y0094193D01*
G75*
G02*
X0019134Y0094547I0000000J0000354D01*
G01*
G37*
G36*
G01*
X0032126Y0094547D02*
X0032126Y0098563D01*
G75*
G02*
X0032480Y0098917I0000354J0000000D01*
G01*
X0035315Y0098917D01*
G75*
G02*
X0035669Y0098563I0000000J-000354D01*
G01*
X0035669Y0094547D01*
G75*
G02*
X0035315Y0094193I-000354J0000000D01*
G01*
X0032480Y0094193D01*
G75*
G02*
X0032126Y0094547I0000000J0000354D01*
G01*
G37*
D81*
X0217933Y0028169D03*
D82*
X0280925Y0028169D03*
G36*
G01*
X0122815Y0165767D02*
X0122815Y0162696D01*
G75*
G02*
X0122539Y0162421I-000276J0000000D01*
G01*
X0120335Y0162421D01*
G75*
G02*
X0120059Y0162696I0000000J0000276D01*
G01*
X0120059Y0165767D01*
G75*
G02*
X0120335Y0166043I0000276J0000000D01*
G01*
X0122539Y0166043D01*
G75*
G02*
X0122815Y0165767I0000000J-000276D01*
G01*
G37*
G36*
G01*
X0116516Y0165767D02*
X0116516Y0162696D01*
G75*
G02*
X0116240Y0162421I-000276J0000000D01*
G01*
X0114035Y0162421D01*
G75*
G02*
X0113760Y0162696I0000000J0000276D01*
G01*
X0113760Y0165767D01*
G75*
G02*
X0114035Y0166043I0000276J0000000D01*
G01*
X0116240Y0166043D01*
G75*
G02*
X0116516Y0165767I0000000J-000276D01*
G01*
G37*
G36*
G01*
X0122343Y0156043D02*
X0122343Y0144822D01*
G75*
G02*
X0121358Y0143838I-000984J0000000D01*
G01*
X0118504Y0143838D01*
G75*
G02*
X0117520Y0144822I0000000J0000984D01*
G01*
X0117520Y0156043D01*
G75*
G02*
X0118504Y0157027I0000984J0000000D01*
G01*
X0121358Y0157027D01*
G75*
G02*
X0122343Y0156043I0000000J-000984D01*
G01*
G37*
G36*
G01*
X0099016Y0156043D02*
X0099016Y0144822D01*
G75*
G02*
X0098031Y0143838I-000984J0000000D01*
G01*
X0095177Y0143838D01*
G75*
G02*
X0094193Y0144822I0000000J0000984D01*
G01*
X0094193Y0156043D01*
G75*
G02*
X0095177Y0157027I0000984J0000000D01*
G01*
X0098031Y0157027D01*
G75*
G02*
X0099016Y0156043I0000000J-000984D01*
G01*
G37*
G36*
G01*
X0071004Y0023149D02*
X0071004Y0019015D01*
G75*
G02*
X0070610Y0018622I-000394J0000000D01*
G01*
X0067461Y0018622D01*
G75*
G02*
X0067067Y0019015I0000000J0000394D01*
G01*
X0067067Y0023149D01*
G75*
G02*
X0067461Y0023543I0000394J0000000D01*
G01*
X0070610Y0023543D01*
G75*
G02*
X0071004Y0023149I0000000J-000394D01*
G01*
G37*
G36*
G01*
X0063130Y0023149D02*
X0063130Y0019015D01*
G75*
G02*
X0062736Y0018622I-000394J0000000D01*
G01*
X0059587Y0018622D01*
G75*
G02*
X0059193Y0019015I0000000J0000394D01*
G01*
X0059193Y0023149D01*
G75*
G02*
X0059587Y0023543I0000394J0000000D01*
G01*
X0062736Y0023543D01*
G75*
G02*
X0063130Y0023149I0000000J-000394D01*
G01*
G37*
G36*
G01*
X0052613Y0284079D02*
X0050595Y0284079D01*
G75*
G02*
X0049734Y0284941I0000000J0000861D01*
G01*
X0049734Y0286663D01*
G75*
G02*
X0050595Y0287524I0000861J0000000D01*
G01*
X0052613Y0287524D01*
G75*
G02*
X0053474Y0286663I0000000J-000861D01*
G01*
X0053474Y0284941D01*
G75*
G02*
X0052613Y0284079I-000861J0000000D01*
G01*
G37*
G36*
G01*
X0052613Y0290280D02*
X0050595Y0290280D01*
G75*
G02*
X0049734Y0291141I0000000J0000861D01*
G01*
X0049734Y0292864D01*
G75*
G02*
X0050595Y0293725I0000861J0000000D01*
G01*
X0052613Y0293725D01*
G75*
G02*
X0053474Y0292864I0000000J-000861D01*
G01*
X0053474Y0291141D01*
G75*
G02*
X0052613Y0290280I-000861J0000000D01*
G01*
G37*
G36*
G01*
X0003681Y0196043D02*
X0003681Y0199114D01*
G75*
G02*
X0003957Y0199389I0000276J0000000D01*
G01*
X0006161Y0199389D01*
G75*
G02*
X0006437Y0199114I0000000J-000276D01*
G01*
X0006437Y0196043D01*
G75*
G02*
X0006161Y0195767I-000276J0000000D01*
G01*
X0003957Y0195767D01*
G75*
G02*
X0003681Y0196043I0000000J0000276D01*
G01*
G37*
G36*
G01*
X0009980Y0196043D02*
X0009980Y0199114D01*
G75*
G02*
X0010256Y0199389I0000276J0000000D01*
G01*
X0012461Y0199389D01*
G75*
G02*
X0012736Y0199114I0000000J-000276D01*
G01*
X0012736Y0196043D01*
G75*
G02*
X0012461Y0195767I-000276J0000000D01*
G01*
X0010256Y0195767D01*
G75*
G02*
X0009980Y0196043I0000000J0000276D01*
G01*
G37*
G36*
G01*
X0403720Y0139429D02*
X0403720Y0142500D01*
G75*
G02*
X0403996Y0142775I0000276J0000000D01*
G01*
X0406201Y0142775D01*
G75*
G02*
X0406476Y0142500I0000000J-000276D01*
G01*
X0406476Y0139429D01*
G75*
G02*
X0406201Y0139153I-000276J0000000D01*
G01*
X0403996Y0139153D01*
G75*
G02*
X0403720Y0139429I0000000J0000276D01*
G01*
G37*
G36*
G01*
X0410020Y0139429D02*
X0410020Y0142500D01*
G75*
G02*
X0410295Y0142775I0000276J0000000D01*
G01*
X0412500Y0142775D01*
G75*
G02*
X0412776Y0142500I0000000J-000276D01*
G01*
X0412776Y0139429D01*
G75*
G02*
X0412500Y0139153I-000276J0000000D01*
G01*
X0410295Y0139153D01*
G75*
G02*
X0410020Y0139429I0000000J0000276D01*
G01*
G37*
G36*
G01*
X0126122Y0144857D02*
X0126122Y0146875D01*
G75*
G02*
X0126983Y0147736I0000861J0000000D01*
G01*
X0128706Y0147736D01*
G75*
G02*
X0129567Y0146875I0000000J-000861D01*
G01*
X0129567Y0144857D01*
G75*
G02*
X0128706Y0143996I-000861J0000000D01*
G01*
X0126983Y0143996D01*
G75*
G02*
X0126122Y0144857I0000000J0000861D01*
G01*
G37*
G36*
G01*
X0132323Y0144857D02*
X0132323Y0146875D01*
G75*
G02*
X0133184Y0147736I0000861J0000000D01*
G01*
X0134906Y0147736D01*
G75*
G02*
X0135768Y0146875I0000000J-000861D01*
G01*
X0135768Y0144857D01*
G75*
G02*
X0134906Y0143996I-000861J0000000D01*
G01*
X0133184Y0143996D01*
G75*
G02*
X0132323Y0144857I0000000J0000861D01*
G01*
G37*
G36*
G01*
X0009114Y0072539D02*
X0009114Y0076673D01*
G75*
G02*
X0009508Y0077067I0000394J0000000D01*
G01*
X0012657Y0077067D01*
G75*
G02*
X0013051Y0076673I0000000J-000394D01*
G01*
X0013051Y0072539D01*
G75*
G02*
X0012657Y0072145I-000394J0000000D01*
G01*
X0009508Y0072145D01*
G75*
G02*
X0009114Y0072539I0000000J0000394D01*
G01*
G37*
G36*
G01*
X0016988Y0072539D02*
X0016988Y0076673D01*
G75*
G02*
X0017382Y0077067I0000394J0000000D01*
G01*
X0020531Y0077067D01*
G75*
G02*
X0020925Y0076673I0000000J-000394D01*
G01*
X0020925Y0072539D01*
G75*
G02*
X0020531Y0072145I-000394J0000000D01*
G01*
X0017382Y0072145D01*
G75*
G02*
X0016988Y0072539I0000000J0000394D01*
G01*
G37*
G36*
G01*
X0043445Y0026889D02*
X0043445Y0031023D01*
G75*
G02*
X0043839Y0031417I0000394J0000000D01*
G01*
X0046988Y0031417D01*
G75*
G02*
X0047382Y0031023I0000000J-000394D01*
G01*
X0047382Y0026889D01*
G75*
G02*
X0046988Y0026496I-000394J0000000D01*
G01*
X0043839Y0026496D01*
G75*
G02*
X0043445Y0026889I0000000J0000394D01*
G01*
G37*
G36*
G01*
X0051319Y0026889D02*
X0051319Y0031023D01*
G75*
G02*
X0051713Y0031417I0000394J0000000D01*
G01*
X0054862Y0031417D01*
G75*
G02*
X0055256Y0031023I0000000J-000394D01*
G01*
X0055256Y0026889D01*
G75*
G02*
X0054862Y0026496I-000394J0000000D01*
G01*
X0051713Y0026496D01*
G75*
G02*
X0051319Y0026889I0000000J0000394D01*
G01*
G37*
G36*
G01*
X0036673Y0084547D02*
X0036673Y0080413D01*
G75*
G02*
X0036280Y0080019I-000394J0000000D01*
G01*
X0033130Y0080019D01*
G75*
G02*
X0032736Y0080413I0000000J0000394D01*
G01*
X0032736Y0084547D01*
G75*
G02*
X0033130Y0084941I0000394J0000000D01*
G01*
X0036280Y0084941D01*
G75*
G02*
X0036673Y0084547I0000000J-000394D01*
G01*
G37*
G36*
G01*
X0028799Y0084547D02*
X0028799Y0080413D01*
G75*
G02*
X0028406Y0080019I-000394J0000000D01*
G01*
X0025256Y0080019D01*
G75*
G02*
X0024862Y0080413I0000000J0000394D01*
G01*
X0024862Y0084547D01*
G75*
G02*
X0025256Y0084941I0000394J0000000D01*
G01*
X0028406Y0084941D01*
G75*
G02*
X0028799Y0084547I0000000J-000394D01*
G01*
G37*
G36*
G01*
X0043445Y0011141D02*
X0043445Y0015275D01*
G75*
G02*
X0043839Y0015669I0000394J0000000D01*
G01*
X0046988Y0015669D01*
G75*
G02*
X0047382Y0015275I0000000J-000394D01*
G01*
X0047382Y0011141D01*
G75*
G02*
X0046988Y0010748I-000394J0000000D01*
G01*
X0043839Y0010748D01*
G75*
G02*
X0043445Y0011141I0000000J0000394D01*
G01*
G37*
G36*
G01*
X0051319Y0011141D02*
X0051319Y0015275D01*
G75*
G02*
X0051713Y0015669I0000394J0000000D01*
G01*
X0054862Y0015669D01*
G75*
G02*
X0055256Y0015275I0000000J-000394D01*
G01*
X0055256Y0011141D01*
G75*
G02*
X0054862Y0010748I-000394J0000000D01*
G01*
X0051713Y0010748D01*
G75*
G02*
X0051319Y0011141I0000000J0000394D01*
G01*
G37*
G36*
G01*
X0003957Y0176023D02*
X0003957Y0177204D01*
G75*
G02*
X0004547Y0177795I0000591J0000000D01*
G01*
X0011043Y0177795D01*
G75*
G02*
X0011634Y0177204I0000000J-000591D01*
G01*
X0011634Y0176023D01*
G75*
G02*
X0011043Y0175433I-000591J0000000D01*
G01*
X0004547Y0175433D01*
G75*
G02*
X0003957Y0176023I0000000J0000591D01*
G01*
G37*
G36*
G01*
X0003957Y0181023D02*
X0003957Y0182204D01*
G75*
G02*
X0004547Y0182795I0000591J0000000D01*
G01*
X0011043Y0182795D01*
G75*
G02*
X0011634Y0182204I0000000J-000591D01*
G01*
X0011634Y0181023D01*
G75*
G02*
X0011043Y0180433I-000591J0000000D01*
G01*
X0004547Y0180433D01*
G75*
G02*
X0003957Y0181023I0000000J0000591D01*
G01*
G37*
G36*
G01*
X0003957Y0186023D02*
X0003957Y0187204D01*
G75*
G02*
X0004547Y0187795I0000591J0000000D01*
G01*
X0011043Y0187795D01*
G75*
G02*
X0011634Y0187204I0000000J-000591D01*
G01*
X0011634Y0186023D01*
G75*
G02*
X0011043Y0185433I-000591J0000000D01*
G01*
X0004547Y0185433D01*
G75*
G02*
X0003957Y0186023I0000000J0000591D01*
G01*
G37*
G36*
G01*
X0003957Y0191023D02*
X0003957Y0192204D01*
G75*
G02*
X0004547Y0192795I0000591J0000000D01*
G01*
X0011043Y0192795D01*
G75*
G02*
X0011634Y0192204I0000000J-000591D01*
G01*
X0011634Y0191023D01*
G75*
G02*
X0011043Y0190433I-000591J0000000D01*
G01*
X0004547Y0190433D01*
G75*
G02*
X0003957Y0191023I0000000J0000591D01*
G01*
G37*
G36*
G01*
X0023445Y0191023D02*
X0023445Y0192204D01*
G75*
G02*
X0024035Y0192795I0000591J0000000D01*
G01*
X0030531Y0192795D01*
G75*
G02*
X0031122Y0192204I0000000J-000591D01*
G01*
X0031122Y0191023D01*
G75*
G02*
X0030531Y0190433I-000591J0000000D01*
G01*
X0024035Y0190433D01*
G75*
G02*
X0023445Y0191023I0000000J0000591D01*
G01*
G37*
G36*
G01*
X0023445Y0186023D02*
X0023445Y0187204D01*
G75*
G02*
X0024035Y0187795I0000591J0000000D01*
G01*
X0030531Y0187795D01*
G75*
G02*
X0031122Y0187204I0000000J-000591D01*
G01*
X0031122Y0186023D01*
G75*
G02*
X0030531Y0185433I-000591J0000000D01*
G01*
X0024035Y0185433D01*
G75*
G02*
X0023445Y0186023I0000000J0000591D01*
G01*
G37*
G36*
G01*
X0023445Y0181023D02*
X0023445Y0182204D01*
G75*
G02*
X0024035Y0182795I0000591J0000000D01*
G01*
X0030531Y0182795D01*
G75*
G02*
X0031122Y0182204I0000000J-000591D01*
G01*
X0031122Y0181023D01*
G75*
G02*
X0030531Y0180433I-000591J0000000D01*
G01*
X0024035Y0180433D01*
G75*
G02*
X0023445Y0181023I0000000J0000591D01*
G01*
G37*
G36*
G01*
X0023445Y0176023D02*
X0023445Y0177204D01*
G75*
G02*
X0024035Y0177795I0000591J0000000D01*
G01*
X0030531Y0177795D01*
G75*
G02*
X0031122Y0177204I0000000J-000591D01*
G01*
X0031122Y0176023D01*
G75*
G02*
X0030531Y0175433I-000591J0000000D01*
G01*
X0024035Y0175433D01*
G75*
G02*
X0023445Y0176023I0000000J0000591D01*
G01*
G37*
G36*
G01*
X0099606Y0034468D02*
X0096890Y0034468D01*
G75*
G02*
X0095984Y0035374I0000000J0000906D01*
G01*
X0095984Y0040649D01*
G75*
G02*
X0096890Y0041555I0000906J0000000D01*
G01*
X0099606Y0041555D01*
G75*
G02*
X0100512Y0040649I0000000J-000906D01*
G01*
X0100512Y0035374D01*
G75*
G02*
X0099606Y0034468I-000906J0000000D01*
G01*
G37*
G36*
G01*
X0088189Y0034468D02*
X0085472Y0034468D01*
G75*
G02*
X0084567Y0035374I0000000J0000906D01*
G01*
X0084567Y0040649D01*
G75*
G02*
X0085472Y0041555I0000906J0000000D01*
G01*
X0088189Y0041555D01*
G75*
G02*
X0089094Y0040649I0000000J-000906D01*
G01*
X0089094Y0035374D01*
G75*
G02*
X0088189Y0034468I-000906J0000000D01*
G01*
G37*
G36*
G01*
X0422618Y0253070D02*
X0422618Y0248149D01*
G75*
G02*
X0422224Y0247756I-000394J0000000D01*
G01*
X0419075Y0247756D01*
G75*
G02*
X0418681Y0248149I0000000J0000394D01*
G01*
X0418681Y0253070D01*
G75*
G02*
X0419075Y0253464I0000394J0000000D01*
G01*
X0422224Y0253464D01*
G75*
G02*
X0422618Y0253070I0000000J-000394D01*
G01*
G37*
G36*
G01*
X0415138Y0253070D02*
X0415138Y0248149D01*
G75*
G02*
X0414744Y0247756I-000394J0000000D01*
G01*
X0411594Y0247756D01*
G75*
G02*
X0411201Y0248149I0000000J0000394D01*
G01*
X0411201Y0253070D01*
G75*
G02*
X0411594Y0253464I0000394J0000000D01*
G01*
X0414744Y0253464D01*
G75*
G02*
X0415138Y0253070I0000000J-000394D01*
G01*
G37*
G36*
G01*
X0122874Y0138228D02*
X0122874Y0135157D01*
G75*
G02*
X0122598Y0134882I-000276J0000000D01*
G01*
X0120394Y0134882D01*
G75*
G02*
X0120118Y0135157I0000000J0000276D01*
G01*
X0120118Y0138228D01*
G75*
G02*
X0120394Y0138504I0000276J0000000D01*
G01*
X0122598Y0138504D01*
G75*
G02*
X0122874Y0138228I0000000J-000276D01*
G01*
G37*
G36*
G01*
X0116575Y0138228D02*
X0116575Y0135157D01*
G75*
G02*
X0116299Y0134882I-000276J0000000D01*
G01*
X0114094Y0134882D01*
G75*
G02*
X0113819Y0135157I0000000J0000276D01*
G01*
X0113819Y0138228D01*
G75*
G02*
X0114094Y0138504I0000276J0000000D01*
G01*
X0116299Y0138504D01*
G75*
G02*
X0116575Y0138228I0000000J-000276D01*
G01*
G37*
G36*
G01*
X0045079Y0006122D02*
X0045079Y0008799D01*
G75*
G02*
X0045413Y0009133I0000335J0000000D01*
G01*
X0048091Y0009133D01*
G75*
G02*
X0048425Y0008799I0000000J-000335D01*
G01*
X0048425Y0006122D01*
G75*
G02*
X0048091Y0005787I-000335J0000000D01*
G01*
X0045413Y0005787D01*
G75*
G02*
X0045079Y0006122I0000000J0000335D01*
G01*
G37*
G36*
G01*
X0051299Y0006122D02*
X0051299Y0008799D01*
G75*
G02*
X0051634Y0009133I0000335J0000000D01*
G01*
X0054311Y0009133D01*
G75*
G02*
X0054646Y0008799I0000000J-000335D01*
G01*
X0054646Y0006122D01*
G75*
G02*
X0054311Y0005787I-000335J0000000D01*
G01*
X0051634Y0005787D01*
G75*
G02*
X0051299Y0006122I0000000J0000335D01*
G01*
G37*
G36*
G01*
X0009114Y0048917D02*
X0009114Y0053051D01*
G75*
G02*
X0009508Y0053445I0000394J0000000D01*
G01*
X0012657Y0053445D01*
G75*
G02*
X0013051Y0053051I0000000J-000394D01*
G01*
X0013051Y0048917D01*
G75*
G02*
X0012657Y0048523I-000394J0000000D01*
G01*
X0009508Y0048523D01*
G75*
G02*
X0009114Y0048917I0000000J0000394D01*
G01*
G37*
G36*
G01*
X0016988Y0048917D02*
X0016988Y0053051D01*
G75*
G02*
X0017382Y0053445I0000394J0000000D01*
G01*
X0020531Y0053445D01*
G75*
G02*
X0020925Y0053051I0000000J-000394D01*
G01*
X0020925Y0048917D01*
G75*
G02*
X0020531Y0048523I-000394J0000000D01*
G01*
X0017382Y0048523D01*
G75*
G02*
X0016988Y0048917I0000000J0000394D01*
G01*
G37*
G36*
G01*
X0036673Y0053051D02*
X0036673Y0048917D01*
G75*
G02*
X0036280Y0048523I-000394J0000000D01*
G01*
X0033130Y0048523D01*
G75*
G02*
X0032736Y0048917I0000000J0000394D01*
G01*
X0032736Y0053051D01*
G75*
G02*
X0033130Y0053445I0000394J0000000D01*
G01*
X0036280Y0053445D01*
G75*
G02*
X0036673Y0053051I0000000J-000394D01*
G01*
G37*
G36*
G01*
X0028799Y0053051D02*
X0028799Y0048917D01*
G75*
G02*
X0028406Y0048523I-000394J0000000D01*
G01*
X0025256Y0048523D01*
G75*
G02*
X0024862Y0048917I0000000J0000394D01*
G01*
X0024862Y0053051D01*
G75*
G02*
X0025256Y0053445I0000394J0000000D01*
G01*
X0028406Y0053445D01*
G75*
G02*
X0028799Y0053051I0000000J-000394D01*
G01*
G37*
G36*
G01*
X0007933Y0239227D02*
X0019154Y0239227D01*
G75*
G02*
X0020138Y0238243I0000000J-000984D01*
G01*
X0020138Y0235388D01*
G75*
G02*
X0019154Y0234404I-000984J0000000D01*
G01*
X0007933Y0234404D01*
G75*
G02*
X0006949Y0235388I0000000J0000984D01*
G01*
X0006949Y0238243D01*
G75*
G02*
X0007933Y0239227I0000984J0000000D01*
G01*
G37*
G36*
G01*
X0007933Y0215900D02*
X0019154Y0215900D01*
G75*
G02*
X0020138Y0214916I0000000J-000984D01*
G01*
X0020138Y0212062D01*
G75*
G02*
X0019154Y0211077I-000984J0000000D01*
G01*
X0007933Y0211077D01*
G75*
G02*
X0006949Y0212062I0000000J0000984D01*
G01*
X0006949Y0214916D01*
G75*
G02*
X0007933Y0215900I0000984J0000000D01*
G01*
G37*
G36*
G01*
X0043445Y0034763D02*
X0043445Y0038897D01*
G75*
G02*
X0043839Y0039291I0000394J0000000D01*
G01*
X0046988Y0039291D01*
G75*
G02*
X0047382Y0038897I0000000J-000394D01*
G01*
X0047382Y0034763D01*
G75*
G02*
X0046988Y0034370I-000394J0000000D01*
G01*
X0043839Y0034370D01*
G75*
G02*
X0043445Y0034763I0000000J0000394D01*
G01*
G37*
G36*
G01*
X0051319Y0034763D02*
X0051319Y0038897D01*
G75*
G02*
X0051713Y0039291I0000394J0000000D01*
G01*
X0054862Y0039291D01*
G75*
G02*
X0055256Y0038897I0000000J-000394D01*
G01*
X0055256Y0034763D01*
G75*
G02*
X0054862Y0034370I-000394J0000000D01*
G01*
X0051713Y0034370D01*
G75*
G02*
X0051319Y0034763I0000000J0000394D01*
G01*
G37*
G36*
G01*
X0099646Y0042854D02*
X0096929Y0042854D01*
G75*
G02*
X0096024Y0043759I0000000J0000906D01*
G01*
X0096024Y0049035D01*
G75*
G02*
X0096929Y0049941I0000906J0000000D01*
G01*
X0099646Y0049941D01*
G75*
G02*
X0100551Y0049035I0000000J-000906D01*
G01*
X0100551Y0043759D01*
G75*
G02*
X0099646Y0042854I-000906J0000000D01*
G01*
G37*
G36*
G01*
X0088228Y0042854D02*
X0085512Y0042854D01*
G75*
G02*
X0084606Y0043759I0000000J0000906D01*
G01*
X0084606Y0049035D01*
G75*
G02*
X0085512Y0049941I0000906J0000000D01*
G01*
X0088228Y0049941D01*
G75*
G02*
X0089134Y0049035I0000000J-000906D01*
G01*
X0089134Y0043759D01*
G75*
G02*
X0088228Y0042854I-000906J0000000D01*
G01*
G37*
G36*
G01*
X0249508Y0028956D02*
X0251398Y0028956D01*
G75*
G02*
X0251634Y0028720I0000000J-000236D01*
G01*
X0251634Y0026830D01*
G75*
G02*
X0251398Y0026594I-000236J0000000D01*
G01*
X0249508Y0026594D01*
G75*
G02*
X0249272Y0026830I0000000J0000236D01*
G01*
X0249272Y0028720D01*
G75*
G02*
X0249508Y0028956I0000236J0000000D01*
G01*
G37*
G36*
G01*
X0240846Y0028956D02*
X0242736Y0028956D01*
G75*
G02*
X0242972Y0028720I0000000J-000236D01*
G01*
X0242972Y0026830D01*
G75*
G02*
X0242736Y0026594I-000236J0000000D01*
G01*
X0240846Y0026594D01*
G75*
G02*
X0240610Y0026830I0000000J0000236D01*
G01*
X0240610Y0028720D01*
G75*
G02*
X0240846Y0028956I0000236J0000000D01*
G01*
G37*
G36*
G01*
X0126181Y0172436D02*
X0126181Y0174453D01*
G75*
G02*
X0127042Y0175315I0000861J0000000D01*
G01*
X0128765Y0175315D01*
G75*
G02*
X0129626Y0174453I0000000J-000861D01*
G01*
X0129626Y0172436D01*
G75*
G02*
X0128765Y0171574I-000861J0000000D01*
G01*
X0127042Y0171574D01*
G75*
G02*
X0126181Y0172436I0000000J0000861D01*
G01*
G37*
G36*
G01*
X0132382Y0172436D02*
X0132382Y0174453D01*
G75*
G02*
X0133243Y0175315I0000861J0000000D01*
G01*
X0134966Y0175315D01*
G75*
G02*
X0135827Y0174453I0000000J-000861D01*
G01*
X0135827Y0172436D01*
G75*
G02*
X0134966Y0171574I-000861J0000000D01*
G01*
X0133243Y0171574D01*
G75*
G02*
X0132382Y0172436I0000000J0000861D01*
G01*
G37*
G36*
G01*
X0003681Y0169350D02*
X0003681Y0172421D01*
G75*
G02*
X0003957Y0172696I0000276J0000000D01*
G01*
X0006161Y0172696D01*
G75*
G02*
X0006437Y0172421I0000000J-000276D01*
G01*
X0006437Y0169350D01*
G75*
G02*
X0006161Y0169074I-000276J0000000D01*
G01*
X0003957Y0169074D01*
G75*
G02*
X0003681Y0169350I0000000J0000276D01*
G01*
G37*
G36*
G01*
X0009980Y0169350D02*
X0009980Y0172421D01*
G75*
G02*
X0010256Y0172696I0000276J0000000D01*
G01*
X0012461Y0172696D01*
G75*
G02*
X0012736Y0172421I0000000J-000276D01*
G01*
X0012736Y0169350D01*
G75*
G02*
X0012461Y0169074I-000276J0000000D01*
G01*
X0010256Y0169074D01*
G75*
G02*
X0009980Y0169350I0000000J0000276D01*
G01*
G37*
G36*
G01*
X0036673Y0068799D02*
X0036673Y0064665D01*
G75*
G02*
X0036280Y0064271I-000394J0000000D01*
G01*
X0033130Y0064271D01*
G75*
G02*
X0032736Y0064665I0000000J0000394D01*
G01*
X0032736Y0068799D01*
G75*
G02*
X0033130Y0069193I0000394J0000000D01*
G01*
X0036280Y0069193D01*
G75*
G02*
X0036673Y0068799I0000000J-000394D01*
G01*
G37*
G36*
G01*
X0028799Y0068799D02*
X0028799Y0064665D01*
G75*
G02*
X0028406Y0064271I-000394J0000000D01*
G01*
X0025256Y0064271D01*
G75*
G02*
X0024862Y0064665I0000000J0000394D01*
G01*
X0024862Y0068799D01*
G75*
G02*
X0025256Y0069193I0000394J0000000D01*
G01*
X0028406Y0069193D01*
G75*
G02*
X0028799Y0068799I0000000J-000394D01*
G01*
G37*
G36*
G01*
X0122283Y0183622D02*
X0122283Y0172401D01*
G75*
G02*
X0121299Y0171417I-000984J0000000D01*
G01*
X0118445Y0171417D01*
G75*
G02*
X0117461Y0172401I0000000J0000984D01*
G01*
X0117461Y0183622D01*
G75*
G02*
X0118445Y0184606I0000984J0000000D01*
G01*
X0121299Y0184606D01*
G75*
G02*
X0122283Y0183622I0000000J-000984D01*
G01*
G37*
G36*
G01*
X0098957Y0183622D02*
X0098957Y0172401D01*
G75*
G02*
X0097972Y0171417I-000984J0000000D01*
G01*
X0095118Y0171417D01*
G75*
G02*
X0094134Y0172401I0000000J0000984D01*
G01*
X0094134Y0183622D01*
G75*
G02*
X0095118Y0184606I0000984J0000000D01*
G01*
X0097972Y0184606D01*
G75*
G02*
X0098957Y0183622I0000000J-000984D01*
G01*
G37*
D91*
X0368622Y0275561D03*
G36*
G01*
X0003957Y0139724D02*
X0003957Y0140905D01*
G75*
G02*
X0004547Y0141496I0000591J0000000D01*
G01*
X0011043Y0141496D01*
G75*
G02*
X0011634Y0140905I0000000J-000591D01*
G01*
X0011634Y0139724D01*
G75*
G02*
X0011043Y0139133I-000591J0000000D01*
G01*
X0004547Y0139133D01*
G75*
G02*
X0003957Y0139724I0000000J0000591D01*
G01*
G37*
G36*
G01*
X0003957Y0144724D02*
X0003957Y0145905D01*
G75*
G02*
X0004547Y0146496I0000591J0000000D01*
G01*
X0011043Y0146496D01*
G75*
G02*
X0011634Y0145905I0000000J-000591D01*
G01*
X0011634Y0144724D01*
G75*
G02*
X0011043Y0144133I-000591J0000000D01*
G01*
X0004547Y0144133D01*
G75*
G02*
X0003957Y0144724I0000000J0000591D01*
G01*
G37*
G36*
G01*
X0003957Y0149724D02*
X0003957Y0150905D01*
G75*
G02*
X0004547Y0151496I0000591J0000000D01*
G01*
X0011043Y0151496D01*
G75*
G02*
X0011634Y0150905I0000000J-000591D01*
G01*
X0011634Y0149724D01*
G75*
G02*
X0011043Y0149133I-000591J0000000D01*
G01*
X0004547Y0149133D01*
G75*
G02*
X0003957Y0149724I0000000J0000591D01*
G01*
G37*
G36*
G01*
X0003957Y0154724D02*
X0003957Y0155905D01*
G75*
G02*
X0004547Y0156496I0000591J0000000D01*
G01*
X0011043Y0156496D01*
G75*
G02*
X0011634Y0155905I0000000J-000591D01*
G01*
X0011634Y0154724D01*
G75*
G02*
X0011043Y0154133I-000591J0000000D01*
G01*
X0004547Y0154133D01*
G75*
G02*
X0003957Y0154724I0000000J0000591D01*
G01*
G37*
G36*
G01*
X0023445Y0154724D02*
X0023445Y0155905D01*
G75*
G02*
X0024035Y0156496I0000591J0000000D01*
G01*
X0030531Y0156496D01*
G75*
G02*
X0031122Y0155905I0000000J-000591D01*
G01*
X0031122Y0154724D01*
G75*
G02*
X0030531Y0154133I-000591J0000000D01*
G01*
X0024035Y0154133D01*
G75*
G02*
X0023445Y0154724I0000000J0000591D01*
G01*
G37*
G36*
G01*
X0023445Y0149724D02*
X0023445Y0150905D01*
G75*
G02*
X0024035Y0151496I0000591J0000000D01*
G01*
X0030531Y0151496D01*
G75*
G02*
X0031122Y0150905I0000000J-000591D01*
G01*
X0031122Y0149724D01*
G75*
G02*
X0030531Y0149133I-000591J0000000D01*
G01*
X0024035Y0149133D01*
G75*
G02*
X0023445Y0149724I0000000J0000591D01*
G01*
G37*
G36*
G01*
X0023445Y0144724D02*
X0023445Y0145905D01*
G75*
G02*
X0024035Y0146496I0000591J0000000D01*
G01*
X0030531Y0146496D01*
G75*
G02*
X0031122Y0145905I0000000J-000591D01*
G01*
X0031122Y0144724D01*
G75*
G02*
X0030531Y0144133I-000591J0000000D01*
G01*
X0024035Y0144133D01*
G75*
G02*
X0023445Y0144724I0000000J0000591D01*
G01*
G37*
G36*
G01*
X0023445Y0139724D02*
X0023445Y0140905D01*
G75*
G02*
X0024035Y0141496I0000591J0000000D01*
G01*
X0030531Y0141496D01*
G75*
G02*
X0031122Y0140905I0000000J-000591D01*
G01*
X0031122Y0139724D01*
G75*
G02*
X0030531Y0139133I-000591J0000000D01*
G01*
X0024035Y0139133D01*
G75*
G02*
X0023445Y0139724I0000000J0000591D01*
G01*
G37*
G36*
G01*
X0003681Y0159586D02*
X0003681Y0162657D01*
G75*
G02*
X0003957Y0162933I0000276J0000000D01*
G01*
X0006161Y0162933D01*
G75*
G02*
X0006437Y0162657I0000000J-000276D01*
G01*
X0006437Y0159586D01*
G75*
G02*
X0006161Y0159311I-000276J0000000D01*
G01*
X0003957Y0159311D01*
G75*
G02*
X0003681Y0159586I0000000J0000276D01*
G01*
G37*
G36*
G01*
X0009980Y0159586D02*
X0009980Y0162657D01*
G75*
G02*
X0010256Y0162933I0000276J0000000D01*
G01*
X0012461Y0162933D01*
G75*
G02*
X0012736Y0162657I0000000J-000276D01*
G01*
X0012736Y0159586D01*
G75*
G02*
X0012461Y0159311I-000276J0000000D01*
G01*
X0010256Y0159311D01*
G75*
G02*
X0009980Y0159586I0000000J0000276D01*
G01*
G37*
G36*
G01*
X0009114Y0064665D02*
X0009114Y0068799D01*
G75*
G02*
X0009508Y0069193I0000394J0000000D01*
G01*
X0012657Y0069193D01*
G75*
G02*
X0013051Y0068799I0000000J-000394D01*
G01*
X0013051Y0064665D01*
G75*
G02*
X0012657Y0064271I-000394J0000000D01*
G01*
X0009508Y0064271D01*
G75*
G02*
X0009114Y0064665I0000000J0000394D01*
G01*
G37*
G36*
G01*
X0016988Y0064665D02*
X0016988Y0068799D01*
G75*
G02*
X0017382Y0069193I0000394J0000000D01*
G01*
X0020531Y0069193D01*
G75*
G02*
X0020925Y0068799I0000000J-000394D01*
G01*
X0020925Y0064665D01*
G75*
G02*
X0020531Y0064271I-000394J0000000D01*
G01*
X0017382Y0064271D01*
G75*
G02*
X0016988Y0064665I0000000J0000394D01*
G01*
G37*
G36*
G01*
X0036673Y0076673D02*
X0036673Y0072539D01*
G75*
G02*
X0036280Y0072145I-000394J0000000D01*
G01*
X0033130Y0072145D01*
G75*
G02*
X0032736Y0072539I0000000J0000394D01*
G01*
X0032736Y0076673D01*
G75*
G02*
X0033130Y0077067I0000394J0000000D01*
G01*
X0036280Y0077067D01*
G75*
G02*
X0036673Y0076673I0000000J-000394D01*
G01*
G37*
G36*
G01*
X0028799Y0076673D02*
X0028799Y0072539D01*
G75*
G02*
X0028406Y0072145I-000394J0000000D01*
G01*
X0025256Y0072145D01*
G75*
G02*
X0024862Y0072539I0000000J0000394D01*
G01*
X0024862Y0076673D01*
G75*
G02*
X0025256Y0077067I0000394J0000000D01*
G01*
X0028406Y0077067D01*
G75*
G02*
X0028799Y0076673I0000000J-000394D01*
G01*
G37*
G36*
G01*
X0083327Y0029153D02*
X0083327Y0032224D01*
G75*
G02*
X0083602Y0032500I0000276J0000000D01*
G01*
X0085807Y0032500D01*
G75*
G02*
X0086083Y0032224I0000000J-000276D01*
G01*
X0086083Y0029153D01*
G75*
G02*
X0085807Y0028878I-000276J0000000D01*
G01*
X0083602Y0028878D01*
G75*
G02*
X0083327Y0029153I0000000J0000276D01*
G01*
G37*
G36*
G01*
X0089626Y0029153D02*
X0089626Y0032224D01*
G75*
G02*
X0089902Y0032500I0000276J0000000D01*
G01*
X0092106Y0032500D01*
G75*
G02*
X0092382Y0032224I0000000J-000276D01*
G01*
X0092382Y0029153D01*
G75*
G02*
X0092106Y0028878I-000276J0000000D01*
G01*
X0089902Y0028878D01*
G75*
G02*
X0089626Y0029153I0000000J0000276D01*
G01*
G37*
G36*
G01*
X0422618Y0233385D02*
X0422618Y0228464D01*
G75*
G02*
X0422224Y0228070I-000394J0000000D01*
G01*
X0419075Y0228070D01*
G75*
G02*
X0418681Y0228464I0000000J0000394D01*
G01*
X0418681Y0233385D01*
G75*
G02*
X0419075Y0233779I0000394J0000000D01*
G01*
X0422224Y0233779D01*
G75*
G02*
X0422618Y0233385I0000000J-000394D01*
G01*
G37*
G36*
G01*
X0415138Y0233385D02*
X0415138Y0228464D01*
G75*
G02*
X0414744Y0228070I-000394J0000000D01*
G01*
X0411594Y0228070D01*
G75*
G02*
X0411201Y0228464I0000000J0000394D01*
G01*
X0411201Y0233385D01*
G75*
G02*
X0411594Y0233779I0000394J0000000D01*
G01*
X0414744Y0233779D01*
G75*
G02*
X0415138Y0233385I0000000J-000394D01*
G01*
G37*
G36*
G01*
X0003681Y0123287D02*
X0003681Y0126358D01*
G75*
G02*
X0003957Y0126633I0000276J0000000D01*
G01*
X0006161Y0126633D01*
G75*
G02*
X0006437Y0126358I0000000J-000276D01*
G01*
X0006437Y0123287D01*
G75*
G02*
X0006161Y0123011I-000276J0000000D01*
G01*
X0003957Y0123011D01*
G75*
G02*
X0003681Y0123287I0000000J0000276D01*
G01*
G37*
G36*
G01*
X0009980Y0123287D02*
X0009980Y0126358D01*
G75*
G02*
X0010256Y0126633I0000276J0000000D01*
G01*
X0012461Y0126633D01*
G75*
G02*
X0012736Y0126358I0000000J-000276D01*
G01*
X0012736Y0123287D01*
G75*
G02*
X0012461Y0123011I-000276J0000000D01*
G01*
X0010256Y0123011D01*
G75*
G02*
X0009980Y0123287I0000000J0000276D01*
G01*
G37*
G36*
G01*
X0095610Y0067244D02*
X0095610Y0069960D01*
G75*
G02*
X0096516Y0070866I0000906J0000000D01*
G01*
X0101791Y0070866D01*
G75*
G02*
X0102697Y0069960I0000000J-000906D01*
G01*
X0102697Y0067244D01*
G75*
G02*
X0101791Y0066338I-000906J0000000D01*
G01*
X0096516Y0066338D01*
G75*
G02*
X0095610Y0067244I0000000J0000906D01*
G01*
G37*
G36*
G01*
X0095610Y0078661D02*
X0095610Y0081378D01*
G75*
G02*
X0096516Y0082283I0000906J0000000D01*
G01*
X0101791Y0082283D01*
G75*
G02*
X0102697Y0081378I0000000J-000906D01*
G01*
X0102697Y0078661D01*
G75*
G02*
X0101791Y0077756I-000906J0000000D01*
G01*
X0096516Y0077756D01*
G75*
G02*
X0095610Y0078661I0000000J0000906D01*
G01*
G37*
G36*
G01*
X0059085Y0280831D02*
X0062156Y0280831D01*
G75*
G02*
X0062431Y0280556I0000000J-000276D01*
G01*
X0062431Y0278351D01*
G75*
G02*
X0062156Y0278075I-000276J0000000D01*
G01*
X0059085Y0278075D01*
G75*
G02*
X0058809Y0278351I0000000J0000276D01*
G01*
X0058809Y0280556D01*
G75*
G02*
X0059085Y0280831I0000276J0000000D01*
G01*
G37*
G36*
G01*
X0059085Y0274532D02*
X0062156Y0274532D01*
G75*
G02*
X0062431Y0274257I0000000J-000276D01*
G01*
X0062431Y0272052D01*
G75*
G02*
X0062156Y0271776I-000276J0000000D01*
G01*
X0059085Y0271776D01*
G75*
G02*
X0058809Y0272052I0000000J0000276D01*
G01*
X0058809Y0274257D01*
G75*
G02*
X0059085Y0274532I0000276J0000000D01*
G01*
G37*
G36*
G01*
X0186732Y0011476D02*
X0181811Y0011476D01*
G75*
G02*
X0181417Y0011870I0000000J0000394D01*
G01*
X0181417Y0015019D01*
G75*
G02*
X0181811Y0015413I0000394J0000000D01*
G01*
X0186732Y0015413D01*
G75*
G02*
X0187126Y0015019I0000000J-000394D01*
G01*
X0187126Y0011870D01*
G75*
G02*
X0186732Y0011476I-000394J0000000D01*
G01*
G37*
G36*
G01*
X0186732Y0018956D02*
X0181811Y0018956D01*
G75*
G02*
X0181417Y0019350I0000000J0000394D01*
G01*
X0181417Y0022500D01*
G75*
G02*
X0181811Y0022893I0000394J0000000D01*
G01*
X0186732Y0022893D01*
G75*
G02*
X0187126Y0022500I0000000J-000394D01*
G01*
X0187126Y0019350D01*
G75*
G02*
X0186732Y0018956I-000394J0000000D01*
G01*
G37*
G36*
G01*
X0409036Y0233385D02*
X0409036Y0228464D01*
G75*
G02*
X0408642Y0228070I-000394J0000000D01*
G01*
X0405492Y0228070D01*
G75*
G02*
X0405099Y0228464I0000000J0000394D01*
G01*
X0405099Y0233385D01*
G75*
G02*
X0405492Y0233779I0000394J0000000D01*
G01*
X0408642Y0233779D01*
G75*
G02*
X0409036Y0233385I0000000J-000394D01*
G01*
G37*
G36*
G01*
X0401555Y0233385D02*
X0401555Y0228464D01*
G75*
G02*
X0401161Y0228070I-000394J0000000D01*
G01*
X0398012Y0228070D01*
G75*
G02*
X0397618Y0228464I0000000J0000394D01*
G01*
X0397618Y0233385D01*
G75*
G02*
X0398012Y0233779I0000394J0000000D01*
G01*
X0401161Y0233779D01*
G75*
G02*
X0401555Y0233385I0000000J-000394D01*
G01*
G37*
G36*
G01*
X0126043Y0208125D02*
X0126043Y0210142D01*
G75*
G02*
X0126905Y0211004I0000861J0000000D01*
G01*
X0128627Y0211004D01*
G75*
G02*
X0129488Y0210142I0000000J-000861D01*
G01*
X0129488Y0208125D01*
G75*
G02*
X0128627Y0207263I-000861J0000000D01*
G01*
X0126905Y0207263D01*
G75*
G02*
X0126043Y0208125I0000000J0000861D01*
G01*
G37*
G36*
G01*
X0132244Y0208125D02*
X0132244Y0210142D01*
G75*
G02*
X0133105Y0211004I0000861J0000000D01*
G01*
X0134828Y0211004D01*
G75*
G02*
X0135689Y0210142I0000000J-000861D01*
G01*
X0135689Y0208125D01*
G75*
G02*
X0134828Y0207263I-000861J0000000D01*
G01*
X0133105Y0207263D01*
G75*
G02*
X0132244Y0208125I0000000J0000861D01*
G01*
G37*
G36*
G01*
X0422618Y0243228D02*
X0422618Y0238307D01*
G75*
G02*
X0422224Y0237913I-000394J0000000D01*
G01*
X0419075Y0237913D01*
G75*
G02*
X0418681Y0238307I0000000J0000394D01*
G01*
X0418681Y0243228D01*
G75*
G02*
X0419075Y0243622I0000394J0000000D01*
G01*
X0422224Y0243622D01*
G75*
G02*
X0422618Y0243228I0000000J-000394D01*
G01*
G37*
G36*
G01*
X0415138Y0243228D02*
X0415138Y0238307D01*
G75*
G02*
X0414744Y0237913I-000394J0000000D01*
G01*
X0411594Y0237913D01*
G75*
G02*
X0411201Y0238307I0000000J0000394D01*
G01*
X0411201Y0243228D01*
G75*
G02*
X0411594Y0243622I0000394J0000000D01*
G01*
X0414744Y0243622D01*
G75*
G02*
X0415138Y0243228I0000000J-000394D01*
G01*
G37*
G36*
G01*
X0043445Y0042637D02*
X0043445Y0046771D01*
G75*
G02*
X0043839Y0047165I0000394J0000000D01*
G01*
X0046988Y0047165D01*
G75*
G02*
X0047382Y0046771I0000000J-000394D01*
G01*
X0047382Y0042637D01*
G75*
G02*
X0046988Y0042244I-000394J0000000D01*
G01*
X0043839Y0042244D01*
G75*
G02*
X0043445Y0042637I0000000J0000394D01*
G01*
G37*
G36*
G01*
X0051319Y0042637D02*
X0051319Y0046771D01*
G75*
G02*
X0051713Y0047165I0000394J0000000D01*
G01*
X0054862Y0047165D01*
G75*
G02*
X0055256Y0046771I0000000J-000394D01*
G01*
X0055256Y0042637D01*
G75*
G02*
X0054862Y0042244I-000394J0000000D01*
G01*
X0051713Y0042244D01*
G75*
G02*
X0051319Y0042637I0000000J0000394D01*
G01*
G37*
G36*
G01*
X0019365Y0243125D02*
X0017347Y0243125D01*
G75*
G02*
X0016486Y0243986I0000000J0000861D01*
G01*
X0016486Y0245708D01*
G75*
G02*
X0017347Y0246570I0000861J0000000D01*
G01*
X0019365Y0246570D01*
G75*
G02*
X0020226Y0245708I0000000J-000861D01*
G01*
X0020226Y0243986D01*
G75*
G02*
X0019365Y0243125I-000861J0000000D01*
G01*
G37*
G36*
G01*
X0019365Y0249325D02*
X0017347Y0249325D01*
G75*
G02*
X0016486Y0250187I0000000J0000861D01*
G01*
X0016486Y0251909D01*
G75*
G02*
X0017347Y0252770I0000861J0000000D01*
G01*
X0019365Y0252770D01*
G75*
G02*
X0020226Y0251909I0000000J-000861D01*
G01*
X0020226Y0250187D01*
G75*
G02*
X0019365Y0249325I-000861J0000000D01*
G01*
G37*
G36*
G01*
X0003681Y0133011D02*
X0003681Y0136082D01*
G75*
G02*
X0003957Y0136358I0000276J0000000D01*
G01*
X0006161Y0136358D01*
G75*
G02*
X0006437Y0136082I0000000J-000276D01*
G01*
X0006437Y0133011D01*
G75*
G02*
X0006161Y0132736I-000276J0000000D01*
G01*
X0003957Y0132736D01*
G75*
G02*
X0003681Y0133011I0000000J0000276D01*
G01*
G37*
G36*
G01*
X0009980Y0133011D02*
X0009980Y0136082D01*
G75*
G02*
X0010256Y0136358I0000276J0000000D01*
G01*
X0012461Y0136358D01*
G75*
G02*
X0012736Y0136082I0000000J-000276D01*
G01*
X0012736Y0133011D01*
G75*
G02*
X0012461Y0132736I-000276J0000000D01*
G01*
X0010256Y0132736D01*
G75*
G02*
X0009980Y0133011I0000000J0000276D01*
G01*
G37*
G36*
G01*
X0025748Y0239916D02*
X0028819Y0239916D01*
G75*
G02*
X0029094Y0239640I0000000J-000276D01*
G01*
X0029094Y0237436D01*
G75*
G02*
X0028819Y0237160I-000276J0000000D01*
G01*
X0025748Y0237160D01*
G75*
G02*
X0025472Y0237436I0000000J0000276D01*
G01*
X0025472Y0239640D01*
G75*
G02*
X0025748Y0239916I0000276J0000000D01*
G01*
G37*
G36*
G01*
X0025748Y0233617D02*
X0028819Y0233617D01*
G75*
G02*
X0029094Y0233341I0000000J-000276D01*
G01*
X0029094Y0231136D01*
G75*
G02*
X0028819Y0230861I-000276J0000000D01*
G01*
X0025748Y0230861D01*
G75*
G02*
X0025472Y0231136I0000000J0000276D01*
G01*
X0025472Y0233341D01*
G75*
G02*
X0025748Y0233617I0000276J0000000D01*
G01*
G37*
G36*
G01*
X0009114Y0056791D02*
X0009114Y0060925D01*
G75*
G02*
X0009508Y0061319I0000394J0000000D01*
G01*
X0012657Y0061319D01*
G75*
G02*
X0013051Y0060925I0000000J-000394D01*
G01*
X0013051Y0056791D01*
G75*
G02*
X0012657Y0056397I-000394J0000000D01*
G01*
X0009508Y0056397D01*
G75*
G02*
X0009114Y0056791I0000000J0000394D01*
G01*
G37*
G36*
G01*
X0016988Y0056791D02*
X0016988Y0060925D01*
G75*
G02*
X0017382Y0061319I0000394J0000000D01*
G01*
X0020531Y0061319D01*
G75*
G02*
X0020925Y0060925I0000000J-000394D01*
G01*
X0020925Y0056791D01*
G75*
G02*
X0020531Y0056397I-000394J0000000D01*
G01*
X0017382Y0056397D01*
G75*
G02*
X0016988Y0056791I0000000J0000394D01*
G01*
G37*
G36*
G01*
X0041270Y0280418D02*
X0052490Y0280418D01*
G75*
G02*
X0053474Y0279434I0000000J-000984D01*
G01*
X0053474Y0276579D01*
G75*
G02*
X0052490Y0275595I-000984J0000000D01*
G01*
X0041270Y0275595D01*
G75*
G02*
X0040285Y0276579I0000000J0000984D01*
G01*
X0040285Y0279434D01*
G75*
G02*
X0041270Y0280418I0000984J0000000D01*
G01*
G37*
G36*
G01*
X0041270Y0257091D02*
X0052490Y0257091D01*
G75*
G02*
X0053474Y0256107I0000000J-000984D01*
G01*
X0053474Y0253253D01*
G75*
G02*
X0052490Y0252268I-000984J0000000D01*
G01*
X0041270Y0252268D01*
G75*
G02*
X0040285Y0253253I0000000J0000984D01*
G01*
X0040285Y0256107D01*
G75*
G02*
X0041270Y0257091I0000984J0000000D01*
G01*
G37*
G36*
G01*
X0071004Y0031023D02*
X0071004Y0026889D01*
G75*
G02*
X0070610Y0026496I-000394J0000000D01*
G01*
X0067461Y0026496D01*
G75*
G02*
X0067067Y0026889I0000000J0000394D01*
G01*
X0067067Y0031023D01*
G75*
G02*
X0067461Y0031417I0000394J0000000D01*
G01*
X0070610Y0031417D01*
G75*
G02*
X0071004Y0031023I0000000J-000394D01*
G01*
G37*
G36*
G01*
X0063130Y0031023D02*
X0063130Y0026889D01*
G75*
G02*
X0062736Y0026496I-000394J0000000D01*
G01*
X0059587Y0026496D01*
G75*
G02*
X0059193Y0026889I0000000J0000394D01*
G01*
X0059193Y0031023D01*
G75*
G02*
X0059587Y0031417I0000394J0000000D01*
G01*
X0062736Y0031417D01*
G75*
G02*
X0063130Y0031023I0000000J-000394D01*
G01*
G37*
G36*
G01*
X0122264Y0219901D02*
X0122264Y0208681D01*
G75*
G02*
X0121280Y0207696I-000984J0000000D01*
G01*
X0118425Y0207696D01*
G75*
G02*
X0117441Y0208681I0000000J0000984D01*
G01*
X0117441Y0219901D01*
G75*
G02*
X0118425Y0220885I0000984J0000000D01*
G01*
X0121280Y0220885D01*
G75*
G02*
X0122264Y0219901I0000000J-000984D01*
G01*
G37*
G36*
G01*
X0098937Y0219901D02*
X0098937Y0208681D01*
G75*
G02*
X0097953Y0207696I-000984J0000000D01*
G01*
X0095098Y0207696D01*
G75*
G02*
X0094114Y0208681I0000000J0000984D01*
G01*
X0094114Y0219901D01*
G75*
G02*
X0095098Y0220885I0000984J0000000D01*
G01*
X0097953Y0220885D01*
G75*
G02*
X0098937Y0219901I0000000J-000984D01*
G01*
G37*
G36*
G01*
X0071004Y0038897D02*
X0071004Y0034763D01*
G75*
G02*
X0070610Y0034370I-000394J0000000D01*
G01*
X0067461Y0034370D01*
G75*
G02*
X0067067Y0034763I0000000J0000394D01*
G01*
X0067067Y0038897D01*
G75*
G02*
X0067461Y0039291I0000394J0000000D01*
G01*
X0070610Y0039291D01*
G75*
G02*
X0071004Y0038897I0000000J-000394D01*
G01*
G37*
G36*
G01*
X0063130Y0038897D02*
X0063130Y0034763D01*
G75*
G02*
X0062736Y0034370I-000394J0000000D01*
G01*
X0059587Y0034370D01*
G75*
G02*
X0059193Y0034763I0000000J0000394D01*
G01*
X0059193Y0038897D01*
G75*
G02*
X0059587Y0039291I0000394J0000000D01*
G01*
X0062736Y0039291D01*
G75*
G02*
X0063130Y0038897I0000000J-000394D01*
G01*
G37*
G36*
G01*
X0071004Y0015275D02*
X0071004Y0011141D01*
G75*
G02*
X0070610Y0010748I-000394J0000000D01*
G01*
X0067461Y0010748D01*
G75*
G02*
X0067067Y0011141I0000000J0000394D01*
G01*
X0067067Y0015275D01*
G75*
G02*
X0067461Y0015669I0000394J0000000D01*
G01*
X0070610Y0015669D01*
G75*
G02*
X0071004Y0015275I0000000J-000394D01*
G01*
G37*
G36*
G01*
X0063130Y0015275D02*
X0063130Y0011141D01*
G75*
G02*
X0062736Y0010748I-000394J0000000D01*
G01*
X0059587Y0010748D01*
G75*
G02*
X0059193Y0011141I0000000J0000394D01*
G01*
X0059193Y0015275D01*
G75*
G02*
X0059587Y0015669I0000394J0000000D01*
G01*
X0062736Y0015669D01*
G75*
G02*
X0063130Y0015275I0000000J-000394D01*
G01*
G37*
G36*
G01*
X0085512Y0058326D02*
X0088228Y0058326D01*
G75*
G02*
X0089134Y0057421I0000000J-000906D01*
G01*
X0089134Y0052145D01*
G75*
G02*
X0088228Y0051240I-000906J0000000D01*
G01*
X0085512Y0051240D01*
G75*
G02*
X0084606Y0052145I0000000J0000906D01*
G01*
X0084606Y0057421D01*
G75*
G02*
X0085512Y0058326I0000906J0000000D01*
G01*
G37*
G36*
G01*
X0096929Y0058326D02*
X0099646Y0058326D01*
G75*
G02*
X0100551Y0057421I0000000J-000906D01*
G01*
X0100551Y0052145D01*
G75*
G02*
X0099646Y0051240I-000906J0000000D01*
G01*
X0096929Y0051240D01*
G75*
G02*
X0096024Y0052145I0000000J0000906D01*
G01*
X0096024Y0057421D01*
G75*
G02*
X0096929Y0058326I0000906J0000000D01*
G01*
G37*
G36*
G01*
X0019114Y0124508D02*
X0019114Y0128523D01*
G75*
G02*
X0019469Y0128878I0000354J0000000D01*
G01*
X0022303Y0128878D01*
G75*
G02*
X0022657Y0128523I0000000J-000354D01*
G01*
X0022657Y0124508D01*
G75*
G02*
X0022303Y0124153I-000354J0000000D01*
G01*
X0019469Y0124153D01*
G75*
G02*
X0019114Y0124508I0000000J0000354D01*
G01*
G37*
G36*
G01*
X0032106Y0124508D02*
X0032106Y0128523D01*
G75*
G02*
X0032461Y0128878I0000354J0000000D01*
G01*
X0035295Y0128878D01*
G75*
G02*
X0035650Y0128523I0000000J-000354D01*
G01*
X0035650Y0124508D01*
G75*
G02*
X0035295Y0124153I-000354J0000000D01*
G01*
X0032461Y0124153D01*
G75*
G02*
X0032106Y0124508I0000000J0000354D01*
G01*
G37*
G36*
G01*
X0043445Y0019015D02*
X0043445Y0023149D01*
G75*
G02*
X0043839Y0023543I0000394J0000000D01*
G01*
X0046988Y0023543D01*
G75*
G02*
X0047382Y0023149I0000000J-000394D01*
G01*
X0047382Y0019015D01*
G75*
G02*
X0046988Y0018622I-000394J0000000D01*
G01*
X0043839Y0018622D01*
G75*
G02*
X0043445Y0019015I0000000J0000394D01*
G01*
G37*
G36*
G01*
X0051319Y0019015D02*
X0051319Y0023149D01*
G75*
G02*
X0051713Y0023543I0000394J0000000D01*
G01*
X0054862Y0023543D01*
G75*
G02*
X0055256Y0023149I0000000J-000394D01*
G01*
X0055256Y0019015D01*
G75*
G02*
X0054862Y0018622I-000394J0000000D01*
G01*
X0051713Y0018622D01*
G75*
G02*
X0051319Y0019015I0000000J0000394D01*
G01*
G37*
G36*
G01*
X0009114Y0080413D02*
X0009114Y0084547D01*
G75*
G02*
X0009508Y0084941I0000394J0000000D01*
G01*
X0012657Y0084941D01*
G75*
G02*
X0013051Y0084547I0000000J-000394D01*
G01*
X0013051Y0080413D01*
G75*
G02*
X0012657Y0080019I-000394J0000000D01*
G01*
X0009508Y0080019D01*
G75*
G02*
X0009114Y0080413I0000000J0000394D01*
G01*
G37*
G36*
G01*
X0016988Y0080413D02*
X0016988Y0084547D01*
G75*
G02*
X0017382Y0084941I0000394J0000000D01*
G01*
X0020531Y0084941D01*
G75*
G02*
X0020925Y0084547I0000000J-000394D01*
G01*
X0020925Y0080413D01*
G75*
G02*
X0020531Y0080019I-000394J0000000D01*
G01*
X0017382Y0080019D01*
G75*
G02*
X0016988Y0080413I0000000J0000394D01*
G01*
G37*
G36*
G01*
X0003760Y0096240D02*
X0003760Y0099311D01*
G75*
G02*
X0004035Y0099586I0000276J0000000D01*
G01*
X0006240Y0099586D01*
G75*
G02*
X0006516Y0099311I0000000J-000276D01*
G01*
X0006516Y0096240D01*
G75*
G02*
X0006240Y0095964I-000276J0000000D01*
G01*
X0004035Y0095964D01*
G75*
G02*
X0003760Y0096240I0000000J0000276D01*
G01*
G37*
G36*
G01*
X0010059Y0096240D02*
X0010059Y0099311D01*
G75*
G02*
X0010335Y0099586I0000276J0000000D01*
G01*
X0012539Y0099586D01*
G75*
G02*
X0012815Y0099311I0000000J-000276D01*
G01*
X0012815Y0096240D01*
G75*
G02*
X0012539Y0095964I-000276J0000000D01*
G01*
X0010335Y0095964D01*
G75*
G02*
X0010059Y0096240I0000000J0000276D01*
G01*
G37*
G36*
G01*
X0036673Y0060925D02*
X0036673Y0056791D01*
G75*
G02*
X0036280Y0056397I-000394J0000000D01*
G01*
X0033130Y0056397D01*
G75*
G02*
X0032736Y0056791I0000000J0000394D01*
G01*
X0032736Y0060925D01*
G75*
G02*
X0033130Y0061319I0000394J0000000D01*
G01*
X0036280Y0061319D01*
G75*
G02*
X0036673Y0060925I0000000J-000394D01*
G01*
G37*
G36*
G01*
X0028799Y0060925D02*
X0028799Y0056791D01*
G75*
G02*
X0028406Y0056397I-000394J0000000D01*
G01*
X0025256Y0056397D01*
G75*
G02*
X0024862Y0056791I0000000J0000394D01*
G01*
X0024862Y0060925D01*
G75*
G02*
X0025256Y0061319I0000394J0000000D01*
G01*
X0028406Y0061319D01*
G75*
G02*
X0028799Y0060925I0000000J-000394D01*
G01*
G37*
G36*
G01*
X0126161Y0116944D02*
X0126161Y0118961D01*
G75*
G02*
X0127023Y0119822I0000861J0000000D01*
G01*
X0128745Y0119822D01*
G75*
G02*
X0129606Y0118961I0000000J-000861D01*
G01*
X0129606Y0116944D01*
G75*
G02*
X0128745Y0116082I-000861J0000000D01*
G01*
X0127023Y0116082D01*
G75*
G02*
X0126161Y0116944I0000000J0000861D01*
G01*
G37*
G36*
G01*
X0132362Y0116944D02*
X0132362Y0118961D01*
G75*
G02*
X0133223Y0119822I0000861J0000000D01*
G01*
X0134946Y0119822D01*
G75*
G02*
X0135807Y0118961I0000000J-000861D01*
G01*
X0135807Y0116944D01*
G75*
G02*
X0134946Y0116082I-000861J0000000D01*
G01*
X0133223Y0116082D01*
G75*
G02*
X0132362Y0116944I0000000J0000861D01*
G01*
G37*
G36*
G01*
X0407185Y0120334D02*
X0404114Y0120334D01*
G75*
G02*
X0403839Y0120610I0000000J0000276D01*
G01*
X0403839Y0122815D01*
G75*
G02*
X0404114Y0123090I0000276J0000000D01*
G01*
X0407185Y0123090D01*
G75*
G02*
X0407461Y0122815I0000000J-000276D01*
G01*
X0407461Y0120610D01*
G75*
G02*
X0407185Y0120334I-000276J0000000D01*
G01*
G37*
G36*
G01*
X0407185Y0126633D02*
X0404114Y0126633D01*
G75*
G02*
X0403839Y0126909I0000000J0000276D01*
G01*
X0403839Y0129114D01*
G75*
G02*
X0404114Y0129389I0000276J0000000D01*
G01*
X0407185Y0129389D01*
G75*
G02*
X0407461Y0129114I0000000J-000276D01*
G01*
X0407461Y0126909D01*
G75*
G02*
X0407185Y0126633I-000276J0000000D01*
G01*
G37*
G36*
G01*
X0347618Y0273248D02*
X0350689Y0273248D01*
G75*
G02*
X0350965Y0272972I0000000J-000276D01*
G01*
X0350965Y0270767D01*
G75*
G02*
X0350689Y0270492I-000276J0000000D01*
G01*
X0347618Y0270492D01*
G75*
G02*
X0347343Y0270767I0000000J0000276D01*
G01*
X0347343Y0272972D01*
G75*
G02*
X0347618Y0273248I0000276J0000000D01*
G01*
G37*
G36*
G01*
X0347618Y0266948D02*
X0350689Y0266948D01*
G75*
G02*
X0350965Y0266673I0000000J-000276D01*
G01*
X0350965Y0264468D01*
G75*
G02*
X0350689Y0264193I-000276J0000000D01*
G01*
X0347618Y0264193D01*
G75*
G02*
X0347343Y0264468I0000000J0000276D01*
G01*
X0347343Y0266673D01*
G75*
G02*
X0347618Y0266948I0000276J0000000D01*
G01*
G37*
G36*
G01*
X0122343Y0128445D02*
X0122343Y0117224D01*
G75*
G02*
X0121358Y0116240I-000984J0000000D01*
G01*
X0118504Y0116240D01*
G75*
G02*
X0117520Y0117224I0000000J0000984D01*
G01*
X0117520Y0128445D01*
G75*
G02*
X0118504Y0129429I0000984J0000000D01*
G01*
X0121358Y0129429D01*
G75*
G02*
X0122343Y0128445I0000000J-000984D01*
G01*
G37*
G36*
G01*
X0099016Y0128445D02*
X0099016Y0117224D01*
G75*
G02*
X0098031Y0116240I-000984J0000000D01*
G01*
X0095177Y0116240D01*
G75*
G02*
X0094193Y0117224I0000000J0000984D01*
G01*
X0094193Y0128445D01*
G75*
G02*
X0095177Y0129429I0000984J0000000D01*
G01*
X0098031Y0129429D01*
G75*
G02*
X0099016Y0128445I0000000J-000984D01*
G01*
G37*
G36*
G01*
X0092500Y0029153D02*
X0092500Y0032224D01*
G75*
G02*
X0092776Y0032500I0000276J0000000D01*
G01*
X0094980Y0032500D01*
G75*
G02*
X0095256Y0032224I0000000J-000276D01*
G01*
X0095256Y0029153D01*
G75*
G02*
X0094980Y0028878I-000276J0000000D01*
G01*
X0092776Y0028878D01*
G75*
G02*
X0092500Y0029153I0000000J0000276D01*
G01*
G37*
G36*
G01*
X0098799Y0029153D02*
X0098799Y0032224D01*
G75*
G02*
X0099075Y0032500I0000276J0000000D01*
G01*
X0101280Y0032500D01*
G75*
G02*
X0101555Y0032224I0000000J-000276D01*
G01*
X0101555Y0029153D01*
G75*
G02*
X0101280Y0028878I-000276J0000000D01*
G01*
X0099075Y0028878D01*
G75*
G02*
X0098799Y0029153I0000000J0000276D01*
G01*
G37*
G36*
G01*
X0115689Y0115098D02*
X0115689Y0112027D01*
G75*
G02*
X0115413Y0111752I-000276J0000000D01*
G01*
X0113209Y0111752D01*
G75*
G02*
X0112933Y0112027I0000000J0000276D01*
G01*
X0112933Y0115098D01*
G75*
G02*
X0113209Y0115374I0000276J0000000D01*
G01*
X0115413Y0115374D01*
G75*
G02*
X0115689Y0115098I0000000J-000276D01*
G01*
G37*
G36*
G01*
X0109390Y0115098D02*
X0109390Y0112027D01*
G75*
G02*
X0109114Y0111752I-000276J0000000D01*
G01*
X0106909Y0111752D01*
G75*
G02*
X0106634Y0112027I0000000J0000276D01*
G01*
X0106634Y0115098D01*
G75*
G02*
X0106909Y0115374I0000276J0000000D01*
G01*
X0109114Y0115374D01*
G75*
G02*
X0109390Y0115098I0000000J-000276D01*
G01*
G37*
G36*
G01*
X0003898Y0103445D02*
X0003898Y0104626D01*
G75*
G02*
X0004488Y0105216I0000591J0000000D01*
G01*
X0010984Y0105216D01*
G75*
G02*
X0011575Y0104626I0000000J-000591D01*
G01*
X0011575Y0103445D01*
G75*
G02*
X0010984Y0102854I-000591J0000000D01*
G01*
X0004488Y0102854D01*
G75*
G02*
X0003898Y0103445I0000000J0000591D01*
G01*
G37*
G36*
G01*
X0003898Y0108445D02*
X0003898Y0109626D01*
G75*
G02*
X0004488Y0110216I0000591J0000000D01*
G01*
X0010984Y0110216D01*
G75*
G02*
X0011575Y0109626I0000000J-000591D01*
G01*
X0011575Y0108445D01*
G75*
G02*
X0010984Y0107854I-000591J0000000D01*
G01*
X0004488Y0107854D01*
G75*
G02*
X0003898Y0108445I0000000J0000591D01*
G01*
G37*
G36*
G01*
X0003898Y0113445D02*
X0003898Y0114626D01*
G75*
G02*
X0004488Y0115216I0000591J0000000D01*
G01*
X0010984Y0115216D01*
G75*
G02*
X0011575Y0114626I0000000J-000591D01*
G01*
X0011575Y0113445D01*
G75*
G02*
X0010984Y0112854I-000591J0000000D01*
G01*
X0004488Y0112854D01*
G75*
G02*
X0003898Y0113445I0000000J0000591D01*
G01*
G37*
G36*
G01*
X0003898Y0118445D02*
X0003898Y0119626D01*
G75*
G02*
X0004488Y0120216I0000591J0000000D01*
G01*
X0010984Y0120216D01*
G75*
G02*
X0011575Y0119626I0000000J-000591D01*
G01*
X0011575Y0118445D01*
G75*
G02*
X0010984Y0117854I-000591J0000000D01*
G01*
X0004488Y0117854D01*
G75*
G02*
X0003898Y0118445I0000000J0000591D01*
G01*
G37*
G36*
G01*
X0023386Y0118445D02*
X0023386Y0119626D01*
G75*
G02*
X0023976Y0120216I0000591J0000000D01*
G01*
X0030472Y0120216D01*
G75*
G02*
X0031063Y0119626I0000000J-000591D01*
G01*
X0031063Y0118445D01*
G75*
G02*
X0030472Y0117854I-000591J0000000D01*
G01*
X0023976Y0117854D01*
G75*
G02*
X0023386Y0118445I0000000J0000591D01*
G01*
G37*
G36*
G01*
X0023386Y0113445D02*
X0023386Y0114626D01*
G75*
G02*
X0023976Y0115216I0000591J0000000D01*
G01*
X0030472Y0115216D01*
G75*
G02*
X0031063Y0114626I0000000J-000591D01*
G01*
X0031063Y0113445D01*
G75*
G02*
X0030472Y0112854I-000591J0000000D01*
G01*
X0023976Y0112854D01*
G75*
G02*
X0023386Y0113445I0000000J0000591D01*
G01*
G37*
G36*
G01*
X0023386Y0108445D02*
X0023386Y0109626D01*
G75*
G02*
X0023976Y0110216I0000591J0000000D01*
G01*
X0030472Y0110216D01*
G75*
G02*
X0031063Y0109626I0000000J-000591D01*
G01*
X0031063Y0108445D01*
G75*
G02*
X0030472Y0107854I-000591J0000000D01*
G01*
X0023976Y0107854D01*
G75*
G02*
X0023386Y0108445I0000000J0000591D01*
G01*
G37*
G36*
G01*
X0023386Y0103445D02*
X0023386Y0104626D01*
G75*
G02*
X0023976Y0105216I0000591J0000000D01*
G01*
X0030472Y0105216D01*
G75*
G02*
X0031063Y0104626I0000000J-000591D01*
G01*
X0031063Y0103445D01*
G75*
G02*
X0030472Y0102854I-000591J0000000D01*
G01*
X0023976Y0102854D01*
G75*
G02*
X0023386Y0103445I0000000J0000591D01*
G01*
G37*
X0109409Y0008425D02*
G01*
G75*
D100*
X0139324Y0084803D02*
D03*
X0126332Y0084803D02*
D03*
D101*
X0159184Y0085197D02*
D03*
X0147767Y0085197D02*
D03*
X0159184Y0077165D02*
D03*
X0147767Y0077165D02*
D03*
D104*
X0121811Y0063149D02*
D03*
X0121811Y0067086D02*
D03*
X0118464Y0077716D02*
D03*
X0127126Y0077716D02*
D03*
X0117677Y0072468D02*
D03*
X0126338Y0072468D02*
D03*
D105*
X0129564Y0019842D02*
D03*
X0126020Y0019842D02*
D03*
X0138955Y0056575D02*
D03*
X0142499Y0056575D02*
D03*
X0130958Y0071680D02*
D03*
X0134501Y0071680D02*
D03*
X0138182Y0019842D02*
D03*
X0134639Y0019842D02*
D03*
X0117677Y0023779D02*
D03*
X0121220Y0023779D02*
D03*
D106*
X0143162Y0073255D02*
D03*
X0143162Y0076799D02*
D03*
X0122395Y0085657D02*
D03*
X0122395Y0082113D02*
D03*
X0171159Y0027340D02*
D03*
X0171159Y0030884D02*
D03*
D124*
X0158622Y0064724D02*
D03*
X0147598Y0064724D02*
D03*
D125*
X0125944Y0060401D02*
D03*
X0125944Y0066621D02*
D03*
X0140038Y0060401D02*
D03*
X0140038Y0066621D02*
D03*
X0135347Y0060401D02*
D03*
X0135347Y0066621D02*
D03*
X0130655Y0060401D02*
D03*
X0130655Y0066621D02*
D03*
X0138857Y0072645D02*
D03*
X0138857Y0078866D02*
D03*
D126*
X0129367Y0023779D02*
D03*
X0125430Y0023779D02*
D03*
X0134048Y0023779D02*
D03*
X0137985Y0023779D02*
D03*
X0130761Y0077716D02*
D03*
X0134698Y0077716D02*
D03*
X0153694Y0056102D02*
D03*
X0157631Y0056102D02*
D03*
X0161470Y0018661D02*
D03*
X0157532Y0018661D02*
D03*
D127*
X0134481Y0030539D02*
D03*
X0129481Y0030539D02*
D03*
X0124481Y0030539D02*
D03*
X0119481Y0030539D02*
D03*
X0134481Y0053176D02*
D03*
X0129481Y0053176D02*
D03*
X0124481Y0053176D02*
D03*
X0119481Y0053176D02*
D03*
X0157548Y0025256D02*
D03*
X0152548Y0025256D02*
D03*
X0147548Y0025256D02*
D03*
X0142548Y0025256D02*
D03*
X0157548Y0048681D02*
D03*
X0152548Y0048681D02*
D03*
X0147548Y0048681D02*
D03*
X0142548Y0048681D02*
D03*
D128*
X0126981Y0041857D02*
D03*
D129*
X0150048Y0036968D02*
D03*
X0390610Y0271988D02*
G01*
G75*
D266*
X0362657Y0261752D02*
D03*
X0358720Y0261752D02*
D03*
X0373780Y0261752D02*
D03*
X0377717Y0261752D02*
D03*
X0382146Y0261752D02*
D03*
X0386083Y0261752D02*
D03*
X0362657Y0269035D02*
D03*
X0358720Y0269035D02*
D03*
D267*
X0366042Y0269232D02*
D03*
X0366042Y0265689D02*
D03*
D268*
X0369927Y0262519D02*
D03*
X0369927Y0268740D02*
D03*
D269*
X0382539Y0265689D02*
D03*
X0386082Y0265689D02*
D03*
X0374173Y0269232D02*
D03*
X0377716Y0269232D02*
D03*
X0359311Y0265631D02*
D03*
X0362854Y0265631D02*
D03*
X0386082Y0269232D02*
D03*
X0382539Y0269232D02*
D03*
X0427776Y0058268D02*
%LPD*%
G01*
G36*
G01*
X0397182Y0075197D02*
X0398363Y0075197D01*
G75*
G02*
X0398954Y0074607I0000000J-000591D01*
G01*
X0398954Y0070571D01*
G75*
G02*
X0398363Y0069981I-000591J0000000D01*
G01*
X0397182Y0069981D01*
G75*
G02*
X0396592Y0070571I0000000J0000591D01*
G01*
X0396592Y0074607D01*
G75*
G02*
X0397182Y0075197I0000591J0000000D01*
G01*
G37*
G36*
G01*
X0400923Y0075197D02*
X0402104Y0075197D01*
G75*
G02*
X0402694Y0074607I0000000J-000591D01*
G01*
X0402694Y0070571D01*
G75*
G02*
X0402104Y0069981I-000591J0000000D01*
G01*
X0400923Y0069981D01*
G75*
G02*
X0400332Y0070571I0000000J0000591D01*
G01*
X0400332Y0074607D01*
G75*
G02*
X0400923Y0075197I0000591J0000000D01*
G01*
G37*
G36*
G01*
X0404663Y0075197D02*
X0405844Y0075197D01*
G75*
G02*
X0406434Y0074607I0000000J-000591D01*
G01*
X0406434Y0070571D01*
G75*
G02*
X0405844Y0069981I-000591J0000000D01*
G01*
X0404663Y0069981D01*
G75*
G02*
X0404072Y0070571I0000000J0000591D01*
G01*
X0404072Y0074607D01*
G75*
G02*
X0404663Y0075197I0000591J0000000D01*
G01*
G37*
G36*
G01*
X0404663Y0066240D02*
X0405844Y0066240D01*
G75*
G02*
X0406434Y0065650I0000000J-000591D01*
G01*
X0406434Y0061614D01*
G75*
G02*
X0405844Y0061024I-000591J0000000D01*
G01*
X0404663Y0061024D01*
G75*
G02*
X0404072Y0061614I0000000J0000591D01*
G01*
X0404072Y0065650D01*
G75*
G02*
X0404663Y0066240I0000591J0000000D01*
G01*
G37*
G36*
G01*
X0397182Y0066240D02*
X0398363Y0066240D01*
G75*
G02*
X0398954Y0065650I0000000J-000591D01*
G01*
X0398954Y0061614D01*
G75*
G02*
X0398363Y0061024I-000591J0000000D01*
G01*
X0397182Y0061024D01*
G75*
G02*
X0396592Y0061614I0000000J0000591D01*
G01*
X0396592Y0065650D01*
G75*
G02*
X0397182Y0066240I0000591J0000000D01*
G01*
G37*
G36*
G01*
X0419469Y0074922D02*
X0419469Y0076260D01*
G75*
G02*
X0420020Y0076811I0000551J0000000D01*
G01*
X0421122Y0076811D01*
G75*
G02*
X0421674Y0076260I0000000J-000551D01*
G01*
X0421674Y0074922D01*
G75*
G02*
X0421122Y0074370I-000551J0000000D01*
G01*
X0420020Y0074370D01*
G75*
G02*
X0419469Y0074922I0000000J0000551D01*
G01*
G37*
G36*
G01*
X0423248Y0074922D02*
X0423248Y0076260D01*
G75*
G02*
X0423800Y0076811I0000551J0000000D01*
G01*
X0424902Y0076811D01*
G75*
G02*
X0425453Y0076260I0000000J-000551D01*
G01*
X0425453Y0074922D01*
G75*
G02*
X0424902Y0074370I-000551J0000000D01*
G01*
X0423800Y0074370D01*
G75*
G02*
X0423248Y0074922I0000000J0000551D01*
G01*
G37*
G36*
G01*
X0396752Y0101437D02*
X0395414Y0101437D01*
G75*
G02*
X0394863Y0101988I0000000J0000551D01*
G01*
X0394863Y0103091D01*
G75*
G02*
X0395414Y0103642I0000551J0000000D01*
G01*
X0396752Y0103642D01*
G75*
G02*
X0397304Y0103091I0000000J-000551D01*
G01*
X0397304Y0101988D01*
G75*
G02*
X0396752Y0101437I-000551J0000000D01*
G01*
G37*
G36*
G01*
X0396752Y0105217D02*
X0395414Y0105217D01*
G75*
G02*
X0394863Y0105768I0000000J0000551D01*
G01*
X0394863Y0106870D01*
G75*
G02*
X0395414Y0107422I0000551J0000000D01*
G01*
X0396752Y0107422D01*
G75*
G02*
X0397304Y0106870I0000000J-000551D01*
G01*
X0397304Y0105768D01*
G75*
G02*
X0396752Y0105217I-000551J0000000D01*
G01*
G37*
G36*
G01*
X0391752Y0114784D02*
X0393091Y0114784D01*
G75*
G02*
X0393642Y0114233I0000000J-000551D01*
G01*
X0393642Y0113130D01*
G75*
G02*
X0393091Y0112579I-000551J0000000D01*
G01*
X0391752Y0112579D01*
G75*
G02*
X0391201Y0113130I0000000J0000551D01*
G01*
X0391201Y0114233D01*
G75*
G02*
X0391752Y0114784I0000551J0000000D01*
G01*
G37*
G36*
G01*
X0391752Y0111004D02*
X0393091Y0111004D01*
G75*
G02*
X0393642Y0110453I0000000J-000551D01*
G01*
X0393642Y0109351D01*
G75*
G02*
X0393091Y0108799I-000551J0000000D01*
G01*
X0391752Y0108799D01*
G75*
G02*
X0391201Y0109351I0000000J0000551D01*
G01*
X0391201Y0110453D01*
G75*
G02*
X0391752Y0111004I0000551J0000000D01*
G01*
G37*
G36*
G01*
X0400493Y0093032D02*
X0399154Y0093032D01*
G75*
G02*
X0398603Y0093583I0000000J0000551D01*
G01*
X0398603Y0094685D01*
G75*
G02*
X0399154Y0095237I0000551J0000000D01*
G01*
X0400493Y0095237D01*
G75*
G02*
X0401044Y0094685I0000000J-000551D01*
G01*
X0401044Y0093583D01*
G75*
G02*
X0400493Y0093032I-000551J0000000D01*
G01*
G37*
G36*
G01*
X0400493Y0096811D02*
X0399154Y0096811D01*
G75*
G02*
X0398603Y0097362I0000000J0000551D01*
G01*
X0398603Y0098465D01*
G75*
G02*
X0399154Y0099016I0000551J0000000D01*
G01*
X0400493Y0099016D01*
G75*
G02*
X0401044Y0098465I0000000J-000551D01*
G01*
X0401044Y0097362D01*
G75*
G02*
X0400493Y0096811I-000551J0000000D01*
G01*
G37*
G36*
G01*
X0395414Y0114587D02*
X0396752Y0114587D01*
G75*
G02*
X0397304Y0114036I0000000J-000551D01*
G01*
X0397304Y0112933D01*
G75*
G02*
X0396752Y0112382I-000551J0000000D01*
G01*
X0395414Y0112382D01*
G75*
G02*
X0394863Y0112933I0000000J0000551D01*
G01*
X0394863Y0114036D01*
G75*
G02*
X0395414Y0114587I0000551J0000000D01*
G01*
G37*
G36*
G01*
X0395414Y0110807D02*
X0396752Y0110807D01*
G75*
G02*
X0397304Y0110256I0000000J-000551D01*
G01*
X0397304Y0109154D01*
G75*
G02*
X0396752Y0108603I-000551J0000000D01*
G01*
X0395414Y0108603D01*
G75*
G02*
X0394863Y0109154I0000000J0000551D01*
G01*
X0394863Y0110256D01*
G75*
G02*
X0395414Y0110807I0000551J0000000D01*
G01*
G37*
G36*
G01*
X0416930Y0109311D02*
X0415591Y0109311D01*
G75*
G02*
X0415040Y0109862I0000000J0000551D01*
G01*
X0415040Y0110965D01*
G75*
G02*
X0415591Y0111516I0000551J0000000D01*
G01*
X0416930Y0111516D01*
G75*
G02*
X0417481Y0110965I0000000J-000551D01*
G01*
X0417481Y0109862D01*
G75*
G02*
X0416930Y0109311I-000551J0000000D01*
G01*
G37*
G36*
G01*
X0416930Y0113091D02*
X0415591Y0113091D01*
G75*
G02*
X0415040Y0113642I0000000J0000551D01*
G01*
X0415040Y0114744D01*
G75*
G02*
X0415591Y0115296I0000551J0000000D01*
G01*
X0416930Y0115296D01*
G75*
G02*
X0417481Y0114744I0000000J-000551D01*
G01*
X0417481Y0113642D01*
G75*
G02*
X0416930Y0113091I-000551J0000000D01*
G01*
G37*
G36*
G01*
X0424430Y0078802D02*
X0423642Y0078802D01*
G75*
G02*
X0423248Y0079196I0000000J0000394D01*
G01*
X0423248Y0084216D01*
G75*
G02*
X0423642Y0084609I0000394J0000000D01*
G01*
X0424430Y0084609D01*
G75*
G02*
X0424823Y0084216I0000000J-000394D01*
G01*
X0424823Y0079196D01*
G75*
G02*
X0424430Y0078802I-000394J0000000D01*
G01*
G37*
G36*
G01*
X0421870Y0078802D02*
X0421083Y0078802D01*
G75*
G02*
X0420689Y0079196I0000000J0000394D01*
G01*
X0420689Y0084216D01*
G75*
G02*
X0421083Y0084609I0000394J0000000D01*
G01*
X0421870Y0084609D01*
G75*
G02*
X0422264Y0084216I0000000J-000394D01*
G01*
X0422264Y0079196D01*
G75*
G02*
X0421870Y0078802I-000394J0000000D01*
G01*
G37*
G36*
G01*
X0419311Y0078802D02*
X0418524Y0078802D01*
G75*
G02*
X0418130Y0079196I0000000J0000394D01*
G01*
X0418130Y0084216D01*
G75*
G02*
X0418524Y0084609I0000394J0000000D01*
G01*
X0419311Y0084609D01*
G75*
G02*
X0419705Y0084216I0000000J-000394D01*
G01*
X0419705Y0079196D01*
G75*
G02*
X0419311Y0078802I-000394J0000000D01*
G01*
G37*
G36*
G01*
X0416752Y0078802D02*
X0415965Y0078802D01*
G75*
G02*
X0415571Y0079196I0000000J0000394D01*
G01*
X0415571Y0084216D01*
G75*
G02*
X0415965Y0084609I0000394J0000000D01*
G01*
X0416752Y0084609D01*
G75*
G02*
X0417146Y0084216I0000000J-000394D01*
G01*
X0417146Y0079196D01*
G75*
G02*
X0416752Y0078802I-000394J0000000D01*
G01*
G37*
G36*
G01*
X0414193Y0078802D02*
X0413406Y0078802D01*
G75*
G02*
X0413012Y0079196I0000000J0000394D01*
G01*
X0413012Y0084216D01*
G75*
G02*
X0413406Y0084609I0000394J0000000D01*
G01*
X0414193Y0084609D01*
G75*
G02*
X0414587Y0084216I0000000J-000394D01*
G01*
X0414587Y0079196D01*
G75*
G02*
X0414193Y0078802I-000394J0000000D01*
G01*
G37*
G36*
G01*
X0411634Y0078802D02*
X0410847Y0078802D01*
G75*
G02*
X0410453Y0079196I0000000J0000394D01*
G01*
X0410453Y0084216D01*
G75*
G02*
X0410847Y0084609I0000394J0000000D01*
G01*
X0411634Y0084609D01*
G75*
G02*
X0412028Y0084216I0000000J-000394D01*
G01*
X0412028Y0079196D01*
G75*
G02*
X0411634Y0078802I-000394J0000000D01*
G01*
G37*
G36*
G01*
X0409075Y0078802D02*
X0408288Y0078802D01*
G75*
G02*
X0407894Y0079196I0000000J0000394D01*
G01*
X0407894Y0084216D01*
G75*
G02*
X0408288Y0084609I0000394J0000000D01*
G01*
X0409075Y0084609D01*
G75*
G02*
X0409469Y0084216I0000000J-000394D01*
G01*
X0409469Y0079196D01*
G75*
G02*
X0409075Y0078802I-000394J0000000D01*
G01*
G37*
G36*
G01*
X0409075Y0101342D02*
X0408288Y0101342D01*
G75*
G02*
X0407894Y0101735I0000000J0000394D01*
G01*
X0407894Y0106755D01*
G75*
G02*
X0408288Y0107149I0000394J0000000D01*
G01*
X0409075Y0107149D01*
G75*
G02*
X0409469Y0106755I0000000J-000394D01*
G01*
X0409469Y0101735D01*
G75*
G02*
X0409075Y0101342I-000394J0000000D01*
G01*
G37*
G36*
G01*
X0411634Y0101342D02*
X0410847Y0101342D01*
G75*
G02*
X0410453Y0101735I0000000J0000394D01*
G01*
X0410453Y0106755D01*
G75*
G02*
X0410847Y0107149I0000394J0000000D01*
G01*
X0411634Y0107149D01*
G75*
G02*
X0412028Y0106755I0000000J-000394D01*
G01*
X0412028Y0101735D01*
G75*
G02*
X0411634Y0101342I-000394J0000000D01*
G01*
G37*
G36*
G01*
X0414193Y0101342D02*
X0413406Y0101342D01*
G75*
G02*
X0413012Y0101735I0000000J0000394D01*
G01*
X0413012Y0106755D01*
G75*
G02*
X0413406Y0107149I0000394J0000000D01*
G01*
X0414193Y0107149D01*
G75*
G02*
X0414587Y0106755I0000000J-000394D01*
G01*
X0414587Y0101735D01*
G75*
G02*
X0414193Y0101342I-000394J0000000D01*
G01*
G37*
G36*
G01*
X0416752Y0101342D02*
X0415965Y0101342D01*
G75*
G02*
X0415571Y0101735I0000000J0000394D01*
G01*
X0415571Y0106755D01*
G75*
G02*
X0415965Y0107149I0000394J0000000D01*
G01*
X0416752Y0107149D01*
G75*
G02*
X0417146Y0106755I0000000J-000394D01*
G01*
X0417146Y0101735D01*
G75*
G02*
X0416752Y0101342I-000394J0000000D01*
G01*
G37*
G36*
G01*
X0419311Y0101342D02*
X0418524Y0101342D01*
G75*
G02*
X0418130Y0101735I0000000J0000394D01*
G01*
X0418130Y0106755D01*
G75*
G02*
X0418524Y0107149I0000394J0000000D01*
G01*
X0419311Y0107149D01*
G75*
G02*
X0419705Y0106755I0000000J-000394D01*
G01*
X0419705Y0101735D01*
G75*
G02*
X0419311Y0101342I-000394J0000000D01*
G01*
G37*
G36*
G01*
X0421870Y0101342D02*
X0421083Y0101342D01*
G75*
G02*
X0420689Y0101735I0000000J0000394D01*
G01*
X0420689Y0106755D01*
G75*
G02*
X0421083Y0107149I0000394J0000000D01*
G01*
X0421870Y0107149D01*
G75*
G02*
X0422264Y0106755I0000000J-000394D01*
G01*
X0422264Y0101735D01*
G75*
G02*
X0421870Y0101342I-000394J0000000D01*
G01*
G37*
G36*
G01*
X0424430Y0101342D02*
X0423642Y0101342D01*
G75*
G02*
X0423248Y0101735I0000000J0000394D01*
G01*
X0423248Y0106755D01*
G75*
G02*
X0423642Y0107149I0000394J0000000D01*
G01*
X0424430Y0107149D01*
G75*
G02*
X0424823Y0106755I0000000J-000394D01*
G01*
X0424823Y0101735D01*
G75*
G02*
X0424430Y0101342I-000394J0000000D01*
G01*
G37*
G36*
G01*
X0416559Y0061159D02*
X0413016Y0061159D01*
G75*
G02*
X0412032Y0062143I0000000J0000984D01*
G01*
X0412032Y0064210D01*
G75*
G02*
X0413016Y0065194I0000984J0000000D01*
G01*
X0416559Y0065194D01*
G75*
G02*
X0417544Y0064210I0000000J-000984D01*
G01*
X0417544Y0062143D01*
G75*
G02*
X0416559Y0061159I-000984J0000000D01*
G01*
G37*
G36*
G01*
X0416559Y0068344D02*
X0413016Y0068344D01*
G75*
G02*
X0412032Y0069328I0000000J0000984D01*
G01*
X0412032Y0071395D01*
G75*
G02*
X0413016Y0072379I0000984J0000000D01*
G01*
X0416559Y0072379D01*
G75*
G02*
X0417544Y0071395I0000000J-000984D01*
G01*
X0417544Y0069328D01*
G75*
G02*
X0416559Y0068344I-000984J0000000D01*
G01*
G37*
G36*
G01*
X0402835Y0107402D02*
X0404292Y0107402D01*
G75*
G02*
X0404823Y0106870I0000000J-000531D01*
G01*
X0404823Y0105807D01*
G75*
G02*
X0404292Y0105276I-000531J0000000D01*
G01*
X0402835Y0105276D01*
G75*
G02*
X0402304Y0105807I0000000J0000531D01*
G01*
X0402304Y0106870D01*
G75*
G02*
X0402835Y0107402I0000531J0000000D01*
G01*
G37*
G36*
G01*
X0402835Y0103386D02*
X0404292Y0103386D01*
G75*
G02*
X0404823Y0102855I0000000J-000531D01*
G01*
X0404823Y0101792D01*
G75*
G02*
X0404292Y0101260I-000531J0000000D01*
G01*
X0402835Y0101260D01*
G75*
G02*
X0402304Y0101792I0000000J0000531D01*
G01*
X0402304Y0102855D01*
G75*
G02*
X0402835Y0103386I0000531J0000000D01*
G01*
G37*
G36*
G01*
X0391910Y0066969D02*
X0393248Y0066969D01*
G75*
G02*
X0393800Y0066418I0000000J-000551D01*
G01*
X0393800Y0065315D01*
G75*
G02*
X0393248Y0064764I-000551J0000000D01*
G01*
X0391910Y0064764D01*
G75*
G02*
X0391359Y0065315I0000000J0000551D01*
G01*
X0391359Y0066418D01*
G75*
G02*
X0391910Y0066969I0000551J0000000D01*
G01*
G37*
G36*
G01*
X0391910Y0063189D02*
X0393248Y0063189D01*
G75*
G02*
X0393800Y0062638I0000000J-000551D01*
G01*
X0393800Y0061536D01*
G75*
G02*
X0393248Y0060985I-000551J0000000D01*
G01*
X0391910Y0060985D01*
G75*
G02*
X0391359Y0061536I0000000J0000551D01*
G01*
X0391359Y0062638D01*
G75*
G02*
X0391910Y0063189I0000551J0000000D01*
G01*
G37*
G36*
G01*
X0399095Y0115079D02*
X0400552Y0115079D01*
G75*
G02*
X0401083Y0114548I0000000J-000531D01*
G01*
X0401083Y0113485D01*
G75*
G02*
X0400552Y0112953I-000531J0000000D01*
G01*
X0399095Y0112953D01*
G75*
G02*
X0398563Y0113485I0000000J0000531D01*
G01*
X0398563Y0114548D01*
G75*
G02*
X0399095Y0115079I0000531J0000000D01*
G01*
G37*
G36*
G01*
X0399095Y0111063D02*
X0400552Y0111063D01*
G75*
G02*
X0401083Y0110532I0000000J-000531D01*
G01*
X0401083Y0109469D01*
G75*
G02*
X0400552Y0108937I-000531J0000000D01*
G01*
X0399095Y0108937D01*
G75*
G02*
X0398563Y0109469I0000000J0000531D01*
G01*
X0398563Y0110532D01*
G75*
G02*
X0399095Y0111063I0000531J0000000D01*
G01*
G37*
G36*
G01*
X0402835Y0099146D02*
X0404291Y0099146D01*
G75*
G02*
X0404823Y0098614I0000000J-000531D01*
G01*
X0404823Y0097551D01*
G75*
G02*
X0404291Y0097020I-000531J0000000D01*
G01*
X0402835Y0097020D01*
G75*
G02*
X0402303Y0097551I0000000J0000531D01*
G01*
X0402303Y0098614D01*
G75*
G02*
X0402835Y0099146I0000531J0000000D01*
G01*
G37*
G36*
G01*
X0402835Y0095130D02*
X0404291Y0095130D01*
G75*
G02*
X0404823Y0094598I0000000J-000531D01*
G01*
X0404823Y0093535D01*
G75*
G02*
X0404291Y0093004I-000531J0000000D01*
G01*
X0402835Y0093004D01*
G75*
G02*
X0402303Y0093535I0000000J0000531D01*
G01*
X0402303Y0094598D01*
G75*
G02*
X0402835Y0095130I0000531J0000000D01*
G01*
G37*
G36*
G01*
X0420591Y0072379D02*
X0424134Y0072379D01*
G75*
G02*
X0425119Y0071395I0000000J-000984D01*
G01*
X0425119Y0069328D01*
G75*
G02*
X0424134Y0068344I-000984J0000000D01*
G01*
X0420591Y0068344D01*
G75*
G02*
X0419607Y0069328I0000000J0000984D01*
G01*
X0419607Y0071395D01*
G75*
G02*
X0420591Y0072379I0000984J0000000D01*
G01*
G37*
G36*
G01*
X0420591Y0065194D02*
X0424134Y0065194D01*
G75*
G02*
X0425119Y0064210I0000000J-000984D01*
G01*
X0425119Y0062143D01*
G75*
G02*
X0424134Y0061159I-000984J0000000D01*
G01*
X0420591Y0061159D01*
G75*
G02*
X0419607Y0062143I0000000J0000984D01*
G01*
X0419607Y0064210D01*
G75*
G02*
X0420591Y0065194I0000984J0000000D01*
G01*
G37*
G36*
G01*
X0391693Y0099095D02*
X0393150Y0099095D01*
G75*
G02*
X0393682Y0098563I0000000J-000531D01*
G01*
X0393682Y0097500D01*
G75*
G02*
X0393150Y0096969I-000531J0000000D01*
G01*
X0391693Y0096969D01*
G75*
G02*
X0391162Y0097500I0000000J0000531D01*
G01*
X0391162Y0098563D01*
G75*
G02*
X0391693Y0099095I0000531J0000000D01*
G01*
G37*
G36*
G01*
X0391693Y0095079D02*
X0393150Y0095079D01*
G75*
G02*
X0393682Y0094548I0000000J-000531D01*
G01*
X0393682Y0093485D01*
G75*
G02*
X0393150Y0092953I-000531J0000000D01*
G01*
X0391693Y0092953D01*
G75*
G02*
X0391162Y0093485I0000000J0000531D01*
G01*
X0391162Y0094548D01*
G75*
G02*
X0391693Y0095079I0000531J0000000D01*
G01*
G37*
G36*
G01*
X0425197Y0108780D02*
X0423741Y0108780D01*
G75*
G02*
X0423209Y0109311I0000000J0000531D01*
G01*
X0423209Y0110374D01*
G75*
G02*
X0423741Y0110906I0000531J0000000D01*
G01*
X0425197Y0110906D01*
G75*
G02*
X0425729Y0110374I0000000J-000531D01*
G01*
X0425729Y0109311D01*
G75*
G02*
X0425197Y0108780I-000531J0000000D01*
G01*
G37*
G36*
G01*
X0425197Y0112796D02*
X0423741Y0112796D01*
G75*
G02*
X0423209Y0113327I0000000J0000531D01*
G01*
X0423209Y0114390D01*
G75*
G02*
X0423741Y0114922I0000531J0000000D01*
G01*
X0425197Y0114922D01*
G75*
G02*
X0425729Y0114390I0000000J-000531D01*
G01*
X0425729Y0113327D01*
G75*
G02*
X0425197Y0112796I-000531J0000000D01*
G01*
G37*
G36*
G01*
X0413248Y0109233D02*
X0411792Y0109233D01*
G75*
G02*
X0411260Y0109764I0000000J0000531D01*
G01*
X0411260Y0110827D01*
G75*
G02*
X0411792Y0111359I0000531J0000000D01*
G01*
X0413248Y0111359D01*
G75*
G02*
X0413780Y0110827I0000000J-000531D01*
G01*
X0413780Y0109764D01*
G75*
G02*
X0413248Y0109233I-000531J0000000D01*
G01*
G37*
G36*
G01*
X0413248Y0113248D02*
X0411792Y0113248D01*
G75*
G02*
X0411260Y0113780I0000000J0000531D01*
G01*
X0411260Y0114843D01*
G75*
G02*
X0411792Y0115374I0000531J0000000D01*
G01*
X0413248Y0115374D01*
G75*
G02*
X0413780Y0114843I0000000J-000531D01*
G01*
X0413780Y0113780D01*
G75*
G02*
X0413248Y0113248I-000531J0000000D01*
G01*
G37*
G36*
G01*
X0399095Y0107697D02*
X0400552Y0107697D01*
G75*
G02*
X0401083Y0107166I0000000J-000531D01*
G01*
X0401083Y0106103D01*
G75*
G02*
X0400552Y0105571I-000531J0000000D01*
G01*
X0399095Y0105571D01*
G75*
G02*
X0398563Y0106103I0000000J0000531D01*
G01*
X0398563Y0107166D01*
G75*
G02*
X0399095Y0107697I0000531J0000000D01*
G01*
G37*
G36*
G01*
X0399095Y0103681D02*
X0400552Y0103681D01*
G75*
G02*
X0401083Y0103150I0000000J-000531D01*
G01*
X0401083Y0102087D01*
G75*
G02*
X0400552Y0101555I-000531J0000000D01*
G01*
X0399095Y0101555D01*
G75*
G02*
X0398563Y0102087I0000000J0000531D01*
G01*
X0398563Y0103150D01*
G75*
G02*
X0399095Y0103681I0000531J0000000D01*
G01*
G37*
G36*
G01*
X0408012Y0115394D02*
X0409351Y0115394D01*
G75*
G02*
X0409902Y0114843I0000000J-000551D01*
G01*
X0409902Y0113740D01*
G75*
G02*
X0409351Y0113189I-000551J0000000D01*
G01*
X0408012Y0113189D01*
G75*
G02*
X0407461Y0113740I0000000J0000551D01*
G01*
X0407461Y0114843D01*
G75*
G02*
X0408012Y0115394I0000551J0000000D01*
G01*
G37*
G36*
G01*
X0408012Y0111614D02*
X0409351Y0111614D01*
G75*
G02*
X0409902Y0111063I0000000J-000551D01*
G01*
X0409902Y0109961D01*
G75*
G02*
X0409351Y0109410I-000551J0000000D01*
G01*
X0408012Y0109410D01*
G75*
G02*
X0407461Y0109961I0000000J0000551D01*
G01*
X0407461Y0111063D01*
G75*
G02*
X0408012Y0111614I0000551J0000000D01*
G01*
G37*
G36*
G01*
X0418227Y0076246D02*
X0418227Y0074908D01*
G75*
G02*
X0417676Y0074356I-000551J0000000D01*
G01*
X0416574Y0074356D01*
G75*
G02*
X0416022Y0074908I0000000J0000551D01*
G01*
X0416022Y0076246D01*
G75*
G02*
X0416574Y0076797I0000551J0000000D01*
G01*
X0417676Y0076797D01*
G75*
G02*
X0418227Y0076246I0000000J-000551D01*
G01*
G37*
G36*
G01*
X0414448Y0076246D02*
X0414448Y0074908D01*
G75*
G02*
X0413897Y0074356I-000551J0000000D01*
G01*
X0412794Y0074356D01*
G75*
G02*
X0412243Y0074908I0000000J0000551D01*
G01*
X0412243Y0076246D01*
G75*
G02*
X0412794Y0076797I0000551J0000000D01*
G01*
X0413897Y0076797D01*
G75*
G02*
X0414448Y0076246I0000000J-000551D01*
G01*
G37*
G36*
G01*
X0404292Y0108740D02*
X0402835Y0108740D01*
G75*
G02*
X0402304Y0109272I0000000J0000531D01*
G01*
X0402304Y0110335D01*
G75*
G02*
X0402835Y0110866I0000531J0000000D01*
G01*
X0404292Y0110866D01*
G75*
G02*
X0404823Y0110335I0000000J-000531D01*
G01*
X0404823Y0109272D01*
G75*
G02*
X0404292Y0108740I-000531J0000000D01*
G01*
G37*
G36*
G01*
X0404292Y0112756D02*
X0402835Y0112756D01*
G75*
G02*
X0402304Y0113288I0000000J0000531D01*
G01*
X0402304Y0114351D01*
G75*
G02*
X0402835Y0114882I0000531J0000000D01*
G01*
X0404292Y0114882D01*
G75*
G02*
X0404823Y0114351I0000000J-000531D01*
G01*
X0404823Y0113288D01*
G75*
G02*
X0404292Y0112756I-000531J0000000D01*
G01*
G37*
G36*
G01*
X0392933Y0091339D02*
X0394115Y0091339D01*
G75*
G02*
X0394705Y0090748I0000000J-000591D01*
G01*
X0394705Y0086713D01*
G75*
G02*
X0394115Y0086122I-000591J0000000D01*
G01*
X0392933Y0086122D01*
G75*
G02*
X0392343Y0086713I0000000J0000591D01*
G01*
X0392343Y0090748D01*
G75*
G02*
X0392933Y0091339I0000591J0000000D01*
G01*
G37*
G36*
G01*
X0396674Y0091339D02*
X0397855Y0091339D01*
G75*
G02*
X0398445Y0090748I0000000J-000591D01*
G01*
X0398445Y0086713D01*
G75*
G02*
X0397855Y0086122I-000591J0000000D01*
G01*
X0396674Y0086122D01*
G75*
G02*
X0396083Y0086713I0000000J0000591D01*
G01*
X0396083Y0090748D01*
G75*
G02*
X0396674Y0091339I0000591J0000000D01*
G01*
G37*
G36*
G01*
X0400414Y0091339D02*
X0401595Y0091339D01*
G75*
G02*
X0402185Y0090748I0000000J-000591D01*
G01*
X0402185Y0086713D01*
G75*
G02*
X0401595Y0086122I-000591J0000000D01*
G01*
X0400414Y0086122D01*
G75*
G02*
X0399823Y0086713I0000000J0000591D01*
G01*
X0399823Y0090748D01*
G75*
G02*
X0400414Y0091339I0000591J0000000D01*
G01*
G37*
G36*
G01*
X0400414Y0082382D02*
X0401595Y0082382D01*
G75*
G02*
X0402185Y0081792I0000000J-000591D01*
G01*
X0402185Y0077756D01*
G75*
G02*
X0401595Y0077166I-000591J0000000D01*
G01*
X0400414Y0077166D01*
G75*
G02*
X0399823Y0077756I0000000J0000591D01*
G01*
X0399823Y0081792D01*
G75*
G02*
X0400414Y0082382I0000591J0000000D01*
G01*
G37*
G36*
G01*
X0392933Y0082382D02*
X0394115Y0082382D01*
G75*
G02*
X0394705Y0081792I0000000J-000591D01*
G01*
X0394705Y0077756D01*
G75*
G02*
X0394115Y0077166I-000591J0000000D01*
G01*
X0392933Y0077166D01*
G75*
G02*
X0392343Y0077756I0000000J0000591D01*
G01*
X0392343Y0081792D01*
G75*
G02*
X0392933Y0082382I0000591J0000000D01*
G01*
G37*
G36*
G01*
X0396752Y0093032D02*
X0395414Y0093032D01*
G75*
G02*
X0394863Y0093583I0000000J0000551D01*
G01*
X0394863Y0094685D01*
G75*
G02*
X0395414Y0095237I0000551J0000000D01*
G01*
X0396752Y0095237D01*
G75*
G02*
X0397304Y0094685I0000000J-000551D01*
G01*
X0397304Y0093583D01*
G75*
G02*
X0396752Y0093032I-000551J0000000D01*
G01*
G37*
G36*
G01*
X0396752Y0096811D02*
X0395414Y0096811D01*
G75*
G02*
X0394863Y0097362I0000000J0000551D01*
G01*
X0394863Y0098465D01*
G75*
G02*
X0395414Y0099016I0000551J0000000D01*
G01*
X0396752Y0099016D01*
G75*
G02*
X0397304Y0098465I0000000J-000551D01*
G01*
X0397304Y0097362D01*
G75*
G02*
X0396752Y0096811I-000551J0000000D01*
G01*
G37*
X0427598Y0144744D02*
%LPD*%
G01*
X0222087Y0301673D02*
%LPD*%
G01*
G36*
G01*
X0142382Y0294314D02*
X0142382Y0292956D01*
G75*
G02*
X0141802Y0292375I-000581J0000000D01*
G01*
X0140640Y0292375D01*
G75*
G02*
X0140059Y0292956I0000000J0000581D01*
G01*
X0140059Y0294314D01*
G75*
G02*
X0140640Y0294895I0000581J0000000D01*
G01*
X0141802Y0294895D01*
G75*
G02*
X0142382Y0294314I0000000J-000581D01*
G01*
G37*
G36*
G01*
X0138563Y0294314D02*
X0138563Y0292956D01*
G75*
G02*
X0137983Y0292375I-000581J0000000D01*
G01*
X0136821Y0292375D01*
G75*
G02*
X0136241Y0292956I0000000J0000581D01*
G01*
X0136241Y0294314D01*
G75*
G02*
X0136821Y0294895I0000581J0000000D01*
G01*
X0137983Y0294895D01*
G75*
G02*
X0138563Y0294314I0000000J-000581D01*
G01*
G37*
G36*
G01*
X0127914Y0279025D02*
X0127914Y0277667D01*
G75*
G02*
X0127333Y0277086I-000581J0000000D01*
G01*
X0126172Y0277086D01*
G75*
G02*
X0125591Y0277667I0000000J0000581D01*
G01*
X0125591Y0279025D01*
G75*
G02*
X0126172Y0279606I0000581J0000000D01*
G01*
X0127333Y0279606D01*
G75*
G02*
X0127914Y0279025I0000000J-000581D01*
G01*
G37*
G36*
G01*
X0124095Y0279025D02*
X0124095Y0277667D01*
G75*
G02*
X0123514Y0277086I-000581J0000000D01*
G01*
X0122353Y0277086D01*
G75*
G02*
X0121772Y0277667I0000000J0000581D01*
G01*
X0121772Y0279025D01*
G75*
G02*
X0122353Y0279606I0000581J0000000D01*
G01*
X0123514Y0279606D01*
G75*
G02*
X0124095Y0279025I0000000J-000581D01*
G01*
G37*
G36*
G01*
X0177796Y0252829D02*
X0177796Y0254847D01*
G75*
G02*
X0178657Y0255708I0000861J0000000D01*
G01*
X0180379Y0255708D01*
G75*
G02*
X0181241Y0254847I0000000J-000861D01*
G01*
X0181241Y0252829D01*
G75*
G02*
X0180379Y0251968I-000861J0000000D01*
G01*
X0178657Y0251968D01*
G75*
G02*
X0177796Y0252829I0000000J0000861D01*
G01*
G37*
G36*
G01*
X0183996Y0252829D02*
X0183996Y0254847D01*
G75*
G02*
X0184858Y0255708I0000861J0000000D01*
G01*
X0186580Y0255708D01*
G75*
G02*
X0187441Y0254847I0000000J-000861D01*
G01*
X0187441Y0252829D01*
G75*
G02*
X0186580Y0251968I-000861J0000000D01*
G01*
X0184858Y0251968D01*
G75*
G02*
X0183996Y0252829I0000000J0000861D01*
G01*
G37*
G36*
G01*
X0136241Y0297155D02*
X0136241Y0298514D01*
G75*
G02*
X0136821Y0299094I0000581J0000000D01*
G01*
X0137983Y0299094D01*
G75*
G02*
X0138563Y0298514I0000000J-000581D01*
G01*
X0138563Y0297155D01*
G75*
G02*
X0137983Y0296575I-000581J0000000D01*
G01*
X0136821Y0296575D01*
G75*
G02*
X0136241Y0297155I0000000J0000581D01*
G01*
G37*
G36*
G01*
X0140059Y0297155D02*
X0140059Y0298514D01*
G75*
G02*
X0140640Y0299094I0000581J0000000D01*
G01*
X0141802Y0299094D01*
G75*
G02*
X0142382Y0298514I0000000J-000581D01*
G01*
X0142382Y0297155D01*
G75*
G02*
X0141802Y0296575I-000581J0000000D01*
G01*
X0140640Y0296575D01*
G75*
G02*
X0140059Y0297155I0000000J0000581D01*
G01*
G37*
G36*
G01*
X0195942Y0258159D02*
X0195942Y0256801D01*
G75*
G02*
X0195362Y0256220I-000581J0000000D01*
G01*
X0194200Y0256220D01*
G75*
G02*
X0193620Y0256801I0000000J0000581D01*
G01*
X0193620Y0258159D01*
G75*
G02*
X0194200Y0258740I0000581J0000000D01*
G01*
X0195362Y0258740D01*
G75*
G02*
X0195942Y0258159I0000000J-000581D01*
G01*
G37*
G36*
G01*
X0192124Y0258159D02*
X0192124Y0256801D01*
G75*
G02*
X0191543Y0256220I-000581J0000000D01*
G01*
X0190381Y0256220D01*
G75*
G02*
X0189801Y0256801I0000000J0000581D01*
G01*
X0189801Y0258159D01*
G75*
G02*
X0190381Y0258740I0000581J0000000D01*
G01*
X0191543Y0258740D01*
G75*
G02*
X0192124Y0258159I0000000J-000581D01*
G01*
G37*
G36*
G01*
X0187855Y0260029D02*
X0187855Y0258671D01*
G75*
G02*
X0187274Y0258090I-000581J0000000D01*
G01*
X0186113Y0258090D01*
G75*
G02*
X0185532Y0258671I0000000J0000581D01*
G01*
X0185532Y0260029D01*
G75*
G02*
X0186113Y0260610I0000581J0000000D01*
G01*
X0187274Y0260610D01*
G75*
G02*
X0187855Y0260029I0000000J-000581D01*
G01*
G37*
G36*
G01*
X0184036Y0260029D02*
X0184036Y0258671D01*
G75*
G02*
X0183455Y0258090I-000581J0000000D01*
G01*
X0182294Y0258090D01*
G75*
G02*
X0181713Y0258671I0000000J0000581D01*
G01*
X0181713Y0260029D01*
G75*
G02*
X0182294Y0260610I0000581J0000000D01*
G01*
X0183455Y0260610D01*
G75*
G02*
X0184036Y0260029I0000000J-000581D01*
G01*
G37*
G36*
G01*
X0216467Y0252697D02*
X0215109Y0252697D01*
G75*
G02*
X0214528Y0253277I0000000J0000581D01*
G01*
X0214528Y0254439D01*
G75*
G02*
X0215109Y0255019I0000581J0000000D01*
G01*
X0216467Y0255019D01*
G75*
G02*
X0217048Y0254439I0000000J-000581D01*
G01*
X0217048Y0253277D01*
G75*
G02*
X0216467Y0252697I-000581J0000000D01*
G01*
G37*
G36*
G01*
X0216467Y0256516D02*
X0215109Y0256516D01*
G75*
G02*
X0214528Y0257096I0000000J0000581D01*
G01*
X0214528Y0258258D01*
G75*
G02*
X0215109Y0258838I0000581J0000000D01*
G01*
X0216467Y0258838D01*
G75*
G02*
X0217048Y0258258I0000000J-000581D01*
G01*
X0217048Y0257096D01*
G75*
G02*
X0216467Y0256516I-000581J0000000D01*
G01*
G37*
G36*
G01*
X0166949Y0270285D02*
X0166949Y0271643D01*
G75*
G02*
X0167530Y0272224I0000581J0000000D01*
G01*
X0168691Y0272224D01*
G75*
G02*
X0169272Y0271643I0000000J-000581D01*
G01*
X0169272Y0270285D01*
G75*
G02*
X0168691Y0269704I-000581J0000000D01*
G01*
X0167530Y0269704D01*
G75*
G02*
X0166949Y0270285I0000000J0000581D01*
G01*
G37*
G36*
G01*
X0170768Y0270285D02*
X0170768Y0271643D01*
G75*
G02*
X0171349Y0272224I0000581J0000000D01*
G01*
X0172510Y0272224D01*
G75*
G02*
X0173091Y0271643I0000000J-000581D01*
G01*
X0173091Y0270285D01*
G75*
G02*
X0172510Y0269704I-000581J0000000D01*
G01*
X0171349Y0269704D01*
G75*
G02*
X0170768Y0270285I0000000J0000581D01*
G01*
G37*
G36*
G01*
X0173091Y0275580D02*
X0173091Y0274222D01*
G75*
G02*
X0172510Y0273642I-000581J0000000D01*
G01*
X0171349Y0273642D01*
G75*
G02*
X0170768Y0274222I0000000J0000581D01*
G01*
X0170768Y0275580D01*
G75*
G02*
X0171349Y0276161I0000581J0000000D01*
G01*
X0172510Y0276161D01*
G75*
G02*
X0173091Y0275580I0000000J-000581D01*
G01*
G37*
G36*
G01*
X0169272Y0275580D02*
X0169272Y0274222D01*
G75*
G02*
X0168691Y0273642I-000581J0000000D01*
G01*
X0167530Y0273642D01*
G75*
G02*
X0166949Y0274222I0000000J0000581D01*
G01*
X0166949Y0275580D01*
G75*
G02*
X0167530Y0276161I0000581J0000000D01*
G01*
X0168691Y0276161D01*
G75*
G02*
X0169272Y0275580I0000000J-000581D01*
G01*
G37*
G36*
G01*
X0125611Y0273140D02*
X0125611Y0274498D01*
G75*
G02*
X0126191Y0275079I0000581J0000000D01*
G01*
X0127353Y0275079D01*
G75*
G02*
X0127933Y0274498I0000000J-000581D01*
G01*
X0127933Y0273140D01*
G75*
G02*
X0127353Y0272559I-000581J0000000D01*
G01*
X0126191Y0272559D01*
G75*
G02*
X0125611Y0273140I0000000J0000581D01*
G01*
G37*
G36*
G01*
X0129430Y0273140D02*
X0129430Y0274498D01*
G75*
G02*
X0130010Y0275079I0000581J0000000D01*
G01*
X0131172Y0275079D01*
G75*
G02*
X0131752Y0274498I0000000J-000581D01*
G01*
X0131752Y0273140D01*
G75*
G02*
X0131172Y0272559I-000581J0000000D01*
G01*
X0130010Y0272559D01*
G75*
G02*
X0129430Y0273140I0000000J0000581D01*
G01*
G37*
D156*
X0179961Y0296555D03*
X0179961Y0293996D03*
X0179961Y0291437D03*
X0179961Y0288878D03*
X0179961Y0286319D03*
X0179961Y0283760D03*
X0179961Y0281201D03*
X0156733Y0281201D03*
X0156733Y0283760D03*
X0156733Y0286319D03*
X0156733Y0288878D03*
X0156733Y0291437D03*
X0156733Y0293996D03*
X0156733Y0296555D03*
G36*
G01*
X0189784Y0253061D02*
X0189784Y0254419D01*
G75*
G02*
X0190365Y0255000I0000581J0000000D01*
G01*
X0191526Y0255000D01*
G75*
G02*
X0192107Y0254419I0000000J-000581D01*
G01*
X0192107Y0253061D01*
G75*
G02*
X0191526Y0252480I-000581J0000000D01*
G01*
X0190365Y0252480D01*
G75*
G02*
X0189784Y0253061I0000000J0000581D01*
G01*
G37*
G36*
G01*
X0193603Y0253061D02*
X0193603Y0254419D01*
G75*
G02*
X0194183Y0255000I0000581J0000000D01*
G01*
X0195345Y0255000D01*
G75*
G02*
X0195926Y0254419I0000000J-000581D01*
G01*
X0195926Y0253061D01*
G75*
G02*
X0195345Y0252480I-000581J0000000D01*
G01*
X0194183Y0252480D01*
G75*
G02*
X0193603Y0253061I0000000J0000581D01*
G01*
G37*
G36*
G01*
X0195926Y0250679D02*
X0195926Y0249321D01*
G75*
G02*
X0195345Y0248740I-000581J0000000D01*
G01*
X0194183Y0248740D01*
G75*
G02*
X0193603Y0249321I0000000J0000581D01*
G01*
X0193603Y0250679D01*
G75*
G02*
X0194183Y0251260I0000581J0000000D01*
G01*
X0195345Y0251260D01*
G75*
G02*
X0195926Y0250679I0000000J-000581D01*
G01*
G37*
G36*
G01*
X0192107Y0250679D02*
X0192107Y0249321D01*
G75*
G02*
X0191526Y0248740I-000581J0000000D01*
G01*
X0190365Y0248740D01*
G75*
G02*
X0189784Y0249321I0000000J0000581D01*
G01*
X0189784Y0250679D01*
G75*
G02*
X0190365Y0251260I0000581J0000000D01*
G01*
X0191526Y0251260D01*
G75*
G02*
X0192107Y0250679I0000000J-000581D01*
G01*
G37*
G36*
G01*
X0135689Y0260128D02*
X0135689Y0258769D01*
G75*
G02*
X0135109Y0258189I-000581J0000000D01*
G01*
X0133947Y0258189D01*
G75*
G02*
X0133367Y0258769I0000000J0000581D01*
G01*
X0133367Y0260128D01*
G75*
G02*
X0133947Y0260708I0000581J0000000D01*
G01*
X0135109Y0260708D01*
G75*
G02*
X0135689Y0260128I0000000J-000581D01*
G01*
G37*
G36*
G01*
X0131870Y0260128D02*
X0131870Y0258769D01*
G75*
G02*
X0131290Y0258189I-000581J0000000D01*
G01*
X0130128Y0258189D01*
G75*
G02*
X0129548Y0258769I0000000J0000581D01*
G01*
X0129548Y0260128D01*
G75*
G02*
X0130128Y0260708I0000581J0000000D01*
G01*
X0131290Y0260708D01*
G75*
G02*
X0131870Y0260128I0000000J-000581D01*
G01*
G37*
G36*
G01*
X0142382Y0289426D02*
X0142382Y0288067D01*
G75*
G02*
X0141802Y0287487I-000581J0000000D01*
G01*
X0140640Y0287487D01*
G75*
G02*
X0140059Y0288067I0000000J0000581D01*
G01*
X0140059Y0289426D01*
G75*
G02*
X0140640Y0290006I0000581J0000000D01*
G01*
X0141802Y0290006D01*
G75*
G02*
X0142382Y0289426I0000000J-000581D01*
G01*
G37*
G36*
G01*
X0138563Y0289426D02*
X0138563Y0288067D01*
G75*
G02*
X0137983Y0287487I-000581J0000000D01*
G01*
X0136821Y0287487D01*
G75*
G02*
X0136241Y0288067I0000000J0000581D01*
G01*
X0136241Y0289426D01*
G75*
G02*
X0136821Y0290006I0000581J0000000D01*
G01*
X0137983Y0290006D01*
G75*
G02*
X0138563Y0289426I0000000J-000581D01*
G01*
G37*
G36*
G01*
X0170197Y0266348D02*
X0170197Y0267706D01*
G75*
G02*
X0170778Y0268287I0000581J0000000D01*
G01*
X0171939Y0268287D01*
G75*
G02*
X0172520Y0267706I0000000J-000581D01*
G01*
X0172520Y0266348D01*
G75*
G02*
X0171939Y0265767I-000581J0000000D01*
G01*
X0170778Y0265767D01*
G75*
G02*
X0170197Y0266348I0000000J0000581D01*
G01*
G37*
G36*
G01*
X0174016Y0266348D02*
X0174016Y0267706D01*
G75*
G02*
X0174597Y0268287I0000581J0000000D01*
G01*
X0175758Y0268287D01*
G75*
G02*
X0176339Y0267706I0000000J-000581D01*
G01*
X0176339Y0266348D01*
G75*
G02*
X0175758Y0265767I-000581J0000000D01*
G01*
X0174597Y0265767D01*
G75*
G02*
X0174016Y0266348I0000000J0000581D01*
G01*
G37*
G36*
G01*
X0121870Y0258769D02*
X0121870Y0260128D01*
G75*
G02*
X0122451Y0260708I0000581J0000000D01*
G01*
X0123613Y0260708D01*
G75*
G02*
X0124193Y0260128I0000000J-000581D01*
G01*
X0124193Y0258769D01*
G75*
G02*
X0123613Y0258189I-000581J0000000D01*
G01*
X0122451Y0258189D01*
G75*
G02*
X0121870Y0258769I0000000J0000581D01*
G01*
G37*
G36*
G01*
X0125689Y0258769D02*
X0125689Y0260128D01*
G75*
G02*
X0126270Y0260708I0000581J0000000D01*
G01*
X0127431Y0260708D01*
G75*
G02*
X0128012Y0260128I0000000J-000581D01*
G01*
X0128012Y0258769D01*
G75*
G02*
X0127431Y0258189I-000581J0000000D01*
G01*
X0126270Y0258189D01*
G75*
G02*
X0125689Y0258769I0000000J0000581D01*
G01*
G37*
G36*
G01*
X0174331Y0274222D02*
X0174331Y0275580D01*
G75*
G02*
X0174912Y0276161I0000581J0000000D01*
G01*
X0176073Y0276161D01*
G75*
G02*
X0176654Y0275580I0000000J-000581D01*
G01*
X0176654Y0274222D01*
G75*
G02*
X0176073Y0273642I-000581J0000000D01*
G01*
X0174912Y0273642D01*
G75*
G02*
X0174331Y0274222I0000000J0000581D01*
G01*
G37*
G36*
G01*
X0178150Y0274222D02*
X0178150Y0275580D01*
G75*
G02*
X0178731Y0276161I0000581J0000000D01*
G01*
X0179892Y0276161D01*
G75*
G02*
X0180473Y0275580I0000000J-000581D01*
G01*
X0180473Y0274222D01*
G75*
G02*
X0179892Y0273642I-000581J0000000D01*
G01*
X0178731Y0273642D01*
G75*
G02*
X0178150Y0274222I0000000J0000581D01*
G01*
G37*
G36*
G01*
X0185581Y0298838D02*
X0186939Y0298838D01*
G75*
G02*
X0187520Y0298258I0000000J-000581D01*
G01*
X0187520Y0297096D01*
G75*
G02*
X0186939Y0296516I-000581J0000000D01*
G01*
X0185581Y0296516D01*
G75*
G02*
X0185000Y0297096I0000000J0000581D01*
G01*
X0185000Y0298258D01*
G75*
G02*
X0185581Y0298838I0000581J0000000D01*
G01*
G37*
G36*
G01*
X0185581Y0295019D02*
X0186939Y0295019D01*
G75*
G02*
X0187520Y0294439I0000000J-000581D01*
G01*
X0187520Y0293277D01*
G75*
G02*
X0186939Y0292697I-000581J0000000D01*
G01*
X0185581Y0292697D01*
G75*
G02*
X0185000Y0293277I0000000J0000581D01*
G01*
X0185000Y0294439D01*
G75*
G02*
X0185581Y0295019I0000581J0000000D01*
G01*
G37*
G36*
G01*
X0159469Y0270285D02*
X0159469Y0271643D01*
G75*
G02*
X0160050Y0272224I0000581J0000000D01*
G01*
X0161211Y0272224D01*
G75*
G02*
X0161792Y0271643I0000000J-000581D01*
G01*
X0161792Y0270285D01*
G75*
G02*
X0161211Y0269704I-000581J0000000D01*
G01*
X0160050Y0269704D01*
G75*
G02*
X0159469Y0270285I0000000J0000581D01*
G01*
G37*
G36*
G01*
X0163288Y0270285D02*
X0163288Y0271643D01*
G75*
G02*
X0163868Y0272224I0000581J0000000D01*
G01*
X0165030Y0272224D01*
G75*
G02*
X0165611Y0271643I0000000J-000581D01*
G01*
X0165611Y0270285D01*
G75*
G02*
X0165030Y0269704I-000581J0000000D01*
G01*
X0163868Y0269704D01*
G75*
G02*
X0163288Y0270285I0000000J0000581D01*
G01*
G37*
G36*
G01*
X0158130Y0271643D02*
X0158130Y0270285D01*
G75*
G02*
X0157550Y0269704I-000581J0000000D01*
G01*
X0156388Y0269704D01*
G75*
G02*
X0155807Y0270285I0000000J0000581D01*
G01*
X0155807Y0271643D01*
G75*
G02*
X0156388Y0272224I0000581J0000000D01*
G01*
X0157550Y0272224D01*
G75*
G02*
X0158130Y0271643I0000000J-000581D01*
G01*
G37*
G36*
G01*
X0154311Y0271643D02*
X0154311Y0270285D01*
G75*
G02*
X0153731Y0269704I-000581J0000000D01*
G01*
X0152569Y0269704D01*
G75*
G02*
X0151989Y0270285I0000000J0000581D01*
G01*
X0151989Y0271643D01*
G75*
G02*
X0152569Y0272224I0000581J0000000D01*
G01*
X0153731Y0272224D01*
G75*
G02*
X0154311Y0271643I0000000J-000581D01*
G01*
G37*
G36*
G01*
X0189321Y0298838D02*
X0190680Y0298838D01*
G75*
G02*
X0191260Y0298258I0000000J-000581D01*
G01*
X0191260Y0297096D01*
G75*
G02*
X0190680Y0296516I-000581J0000000D01*
G01*
X0189321Y0296516D01*
G75*
G02*
X0188741Y0297096I0000000J0000581D01*
G01*
X0188741Y0298258D01*
G75*
G02*
X0189321Y0298838I0000581J0000000D01*
G01*
G37*
G36*
G01*
X0189321Y0295019D02*
X0190680Y0295019D01*
G75*
G02*
X0191260Y0294439I0000000J-000581D01*
G01*
X0191260Y0293277D01*
G75*
G02*
X0190680Y0292697I-000581J0000000D01*
G01*
X0189321Y0292697D01*
G75*
G02*
X0188741Y0293277I0000000J0000581D01*
G01*
X0188741Y0294439D01*
G75*
G02*
X0189321Y0295019I0000581J0000000D01*
G01*
G37*
D157*
X0200000Y0250000D03*
X0200000Y0253740D03*
X0200000Y0257480D03*
X0210315Y0257480D03*
X0210315Y0250000D03*
G36*
G01*
X0165512Y0267706D02*
X0165512Y0266348D01*
G75*
G02*
X0164931Y0265767I-000581J0000000D01*
G01*
X0163770Y0265767D01*
G75*
G02*
X0163189Y0266348I0000000J0000581D01*
G01*
X0163189Y0267706D01*
G75*
G02*
X0163770Y0268287I0000581J0000000D01*
G01*
X0164931Y0268287D01*
G75*
G02*
X0165512Y0267706I0000000J-000581D01*
G01*
G37*
G36*
G01*
X0161693Y0267706D02*
X0161693Y0266348D01*
G75*
G02*
X0161113Y0265767I-000581J0000000D01*
G01*
X0159951Y0265767D01*
G75*
G02*
X0159370Y0266348I0000000J0000581D01*
G01*
X0159370Y0267706D01*
G75*
G02*
X0159951Y0268287I0000581J0000000D01*
G01*
X0161113Y0268287D01*
G75*
G02*
X0161693Y0267706I0000000J-000581D01*
G01*
G37*
G36*
G01*
X0178101Y0263602D02*
X0179459Y0263602D01*
G75*
G02*
X0180040Y0263021I0000000J-000581D01*
G01*
X0180040Y0261860D01*
G75*
G02*
X0179459Y0261279I-000581J0000000D01*
G01*
X0178101Y0261279D01*
G75*
G02*
X0177520Y0261860I0000000J0000581D01*
G01*
X0177520Y0263021D01*
G75*
G02*
X0178101Y0263602I0000581J0000000D01*
G01*
G37*
G36*
G01*
X0178101Y0259783D02*
X0179459Y0259783D01*
G75*
G02*
X0180040Y0259203I0000000J-000581D01*
G01*
X0180040Y0258041D01*
G75*
G02*
X0179459Y0257460I-000581J0000000D01*
G01*
X0178101Y0257460D01*
G75*
G02*
X0177520Y0258041I0000000J0000581D01*
G01*
X0177520Y0259203D01*
G75*
G02*
X0178101Y0259783I0000581J0000000D01*
G01*
G37*
G36*
G01*
X0186939Y0284035D02*
X0185581Y0284035D01*
G75*
G02*
X0185000Y0284616I0000000J0000581D01*
G01*
X0185000Y0285777D01*
G75*
G02*
X0185581Y0286358I0000581J0000000D01*
G01*
X0186939Y0286358D01*
G75*
G02*
X0187520Y0285777I0000000J-000581D01*
G01*
X0187520Y0284616D01*
G75*
G02*
X0186939Y0284035I-000581J0000000D01*
G01*
G37*
G36*
G01*
X0186939Y0287854D02*
X0185581Y0287854D01*
G75*
G02*
X0185000Y0288435I0000000J0000581D01*
G01*
X0185000Y0289596D01*
G75*
G02*
X0185581Y0290177I0000581J0000000D01*
G01*
X0186939Y0290177D01*
G75*
G02*
X0187520Y0289596I0000000J-000581D01*
G01*
X0187520Y0288435D01*
G75*
G02*
X0186939Y0287854I-000581J0000000D01*
G01*
G37*
G36*
G01*
X0143819Y0283080D02*
X0143819Y0284439D01*
G75*
G02*
X0144400Y0285019I0000581J0000000D01*
G01*
X0145561Y0285019D01*
G75*
G02*
X0146142Y0284439I0000000J-000581D01*
G01*
X0146142Y0283080D01*
G75*
G02*
X0145561Y0282500I-000581J0000000D01*
G01*
X0144400Y0282500D01*
G75*
G02*
X0143819Y0283080I0000000J0000581D01*
G01*
G37*
G36*
G01*
X0147638Y0283080D02*
X0147638Y0284439D01*
G75*
G02*
X0148219Y0285019I0000581J0000000D01*
G01*
X0149380Y0285019D01*
G75*
G02*
X0149961Y0284439I0000000J-000581D01*
G01*
X0149961Y0283080D01*
G75*
G02*
X0149380Y0282500I-000581J0000000D01*
G01*
X0148219Y0282500D01*
G75*
G02*
X0147638Y0283080I0000000J0000581D01*
G01*
G37*
G36*
G01*
X0136241Y0283080D02*
X0136241Y0284439D01*
G75*
G02*
X0136821Y0285019I0000581J0000000D01*
G01*
X0137983Y0285019D01*
G75*
G02*
X0138563Y0284439I0000000J-000581D01*
G01*
X0138563Y0283080D01*
G75*
G02*
X0137983Y0282500I-000581J0000000D01*
G01*
X0136821Y0282500D01*
G75*
G02*
X0136241Y0283080I0000000J0000581D01*
G01*
G37*
G36*
G01*
X0140059Y0283080D02*
X0140059Y0284439D01*
G75*
G02*
X0140640Y0285019I0000581J0000000D01*
G01*
X0141802Y0285019D01*
G75*
G02*
X0142382Y0284439I0000000J-000581D01*
G01*
X0142382Y0283080D01*
G75*
G02*
X0141802Y0282500I-000581J0000000D01*
G01*
X0140640Y0282500D01*
G75*
G02*
X0140059Y0283080I0000000J0000581D01*
G01*
G37*
G36*
G01*
X0190680Y0284035D02*
X0189321Y0284035D01*
G75*
G02*
X0188741Y0284616I0000000J0000581D01*
G01*
X0188741Y0285777D01*
G75*
G02*
X0189321Y0286358I0000581J0000000D01*
G01*
X0190680Y0286358D01*
G75*
G02*
X0191260Y0285777I0000000J-000581D01*
G01*
X0191260Y0284616D01*
G75*
G02*
X0190680Y0284035I-000581J0000000D01*
G01*
G37*
G36*
G01*
X0190680Y0287854D02*
X0189321Y0287854D01*
G75*
G02*
X0188741Y0288435I0000000J0000581D01*
G01*
X0188741Y0289596D01*
G75*
G02*
X0189321Y0290177I0000581J0000000D01*
G01*
X0190680Y0290177D01*
G75*
G02*
X0191260Y0289596I0000000J-000581D01*
G01*
X0191260Y0288435D01*
G75*
G02*
X0190680Y0287854I-000581J0000000D01*
G01*
G37*
G36*
G01*
X0156319Y0274222D02*
X0156319Y0275580D01*
G75*
G02*
X0156900Y0276161I0000581J0000000D01*
G01*
X0158061Y0276161D01*
G75*
G02*
X0158642Y0275580I0000000J-000581D01*
G01*
X0158642Y0274222D01*
G75*
G02*
X0158061Y0273642I-000581J0000000D01*
G01*
X0156900Y0273642D01*
G75*
G02*
X0156319Y0274222I0000000J0000581D01*
G01*
G37*
G36*
G01*
X0160138Y0274222D02*
X0160138Y0275580D01*
G75*
G02*
X0160719Y0276161I0000581J0000000D01*
G01*
X0161880Y0276161D01*
G75*
G02*
X0162461Y0275580I0000000J-000581D01*
G01*
X0162461Y0274222D01*
G75*
G02*
X0161880Y0273642I-000581J0000000D01*
G01*
X0160719Y0273642D01*
G75*
G02*
X0160138Y0274222I0000000J0000581D01*
G01*
G37*
G36*
G01*
X0194420Y0284035D02*
X0193061Y0284035D01*
G75*
G02*
X0192481Y0284616I0000000J0000581D01*
G01*
X0192481Y0285777D01*
G75*
G02*
X0193061Y0286358I0000581J0000000D01*
G01*
X0194420Y0286358D01*
G75*
G02*
X0195000Y0285777I0000000J-000581D01*
G01*
X0195000Y0284616D01*
G75*
G02*
X0194420Y0284035I-000581J0000000D01*
G01*
G37*
G36*
G01*
X0194420Y0287854D02*
X0193061Y0287854D01*
G75*
G02*
X0192481Y0288435I0000000J0000581D01*
G01*
X0192481Y0289596D01*
G75*
G02*
X0193061Y0290177I0000581J0000000D01*
G01*
X0194420Y0290177D01*
G75*
G02*
X0195000Y0289596I0000000J-000581D01*
G01*
X0195000Y0288435D01*
G75*
G02*
X0194420Y0287854I-000581J0000000D01*
G01*
G37*
G36*
G01*
X0194420Y0292697D02*
X0193061Y0292697D01*
G75*
G02*
X0192481Y0293277I0000000J0000581D01*
G01*
X0192481Y0294439D01*
G75*
G02*
X0193061Y0295019I0000581J0000000D01*
G01*
X0194420Y0295019D01*
G75*
G02*
X0195000Y0294439I0000000J-000581D01*
G01*
X0195000Y0293277D01*
G75*
G02*
X0194420Y0292697I-000581J0000000D01*
G01*
G37*
G36*
G01*
X0194420Y0296516D02*
X0193061Y0296516D01*
G75*
G02*
X0192481Y0297096I0000000J0000581D01*
G01*
X0192481Y0298258D01*
G75*
G02*
X0193061Y0298838I0000581J0000000D01*
G01*
X0194420Y0298838D01*
G75*
G02*
X0195000Y0298258I0000000J-000581D01*
G01*
X0195000Y0297096D01*
G75*
G02*
X0194420Y0296516I-000581J0000000D01*
G01*
G37*
G36*
G01*
X0209233Y0286890D02*
X0209233Y0285551D01*
G75*
G02*
X0208682Y0285000I-000551J0000000D01*
G01*
X0207579Y0285000D01*
G75*
G02*
X0207028Y0285551I0000000J0000551D01*
G01*
X0207028Y0286890D01*
G75*
G02*
X0207579Y0287441I0000551J0000000D01*
G01*
X0208682Y0287441D01*
G75*
G02*
X0209233Y0286890I0000000J-000551D01*
G01*
G37*
G36*
G01*
X0205453Y0286890D02*
X0205453Y0285551D01*
G75*
G02*
X0204902Y0285000I-000551J0000000D01*
G01*
X0203800Y0285000D01*
G75*
G02*
X0203249Y0285551I0000000J0000551D01*
G01*
X0203249Y0286890D01*
G75*
G02*
X0203800Y0287441I0000551J0000000D01*
G01*
X0204902Y0287441D01*
G75*
G02*
X0205453Y0286890I0000000J-000551D01*
G01*
G37*
G36*
G01*
X0154292Y0260630D02*
X0154292Y0262086D01*
G75*
G02*
X0154823Y0262618I0000531J0000000D01*
G01*
X0155886Y0262618D01*
G75*
G02*
X0156418Y0262086I0000000J-000531D01*
G01*
X0156418Y0260630D01*
G75*
G02*
X0155886Y0260098I-000531J0000000D01*
G01*
X0154823Y0260098D01*
G75*
G02*
X0154292Y0260630I0000000J0000531D01*
G01*
G37*
G36*
G01*
X0158307Y0260630D02*
X0158307Y0262086D01*
G75*
G02*
X0158839Y0262618I0000531J0000000D01*
G01*
X0159902Y0262618D01*
G75*
G02*
X0160433Y0262086I0000000J-000531D01*
G01*
X0160433Y0260630D01*
G75*
G02*
X0159902Y0260098I-000531J0000000D01*
G01*
X0158839Y0260098D01*
G75*
G02*
X0158307Y0260630I0000000J0000531D01*
G01*
G37*
G36*
G01*
X0215020Y0275163D02*
X0216477Y0275163D01*
G75*
G02*
X0217008Y0274631I0000000J-000531D01*
G01*
X0217008Y0273568D01*
G75*
G02*
X0216477Y0273037I-000531J0000000D01*
G01*
X0215020Y0273037D01*
G75*
G02*
X0214489Y0273568I0000000J0000531D01*
G01*
X0214489Y0274631D01*
G75*
G02*
X0215020Y0275163I0000531J0000000D01*
G01*
G37*
G36*
G01*
X0215020Y0271147D02*
X0216477Y0271147D01*
G75*
G02*
X0217008Y0270615I0000000J-000531D01*
G01*
X0217008Y0269552D01*
G75*
G02*
X0216477Y0269021I-000531J0000000D01*
G01*
X0215020Y0269021D01*
G75*
G02*
X0214489Y0269552I0000000J0000531D01*
G01*
X0214489Y0270615D01*
G75*
G02*
X0215020Y0271147I0000531J0000000D01*
G01*
G37*
G36*
G01*
X0214410Y0299114D02*
X0214410Y0297933D01*
G75*
G02*
X0213819Y0297342I-000591J0000000D01*
G01*
X0209193Y0297342D01*
G75*
G02*
X0208603Y0297933I0000000J0000591D01*
G01*
X0208603Y0299114D01*
G75*
G02*
X0209193Y0299704I0000591J0000000D01*
G01*
X0213819Y0299704D01*
G75*
G02*
X0214410Y0299114I0000000J-000591D01*
G01*
G37*
G36*
G01*
X0214410Y0291634D02*
X0214410Y0290453D01*
G75*
G02*
X0213819Y0289862I-000591J0000000D01*
G01*
X0209193Y0289862D01*
G75*
G02*
X0208603Y0290453I0000000J0000591D01*
G01*
X0208603Y0291634D01*
G75*
G02*
X0209193Y0292224I0000591J0000000D01*
G01*
X0213819Y0292224D01*
G75*
G02*
X0214410Y0291634I0000000J-000591D01*
G01*
G37*
G36*
G01*
X0207028Y0295374D02*
X0207028Y0294193D01*
G75*
G02*
X0206437Y0293602I-000591J0000000D01*
G01*
X0201811Y0293602D01*
G75*
G02*
X0201221Y0294193I0000000J0000591D01*
G01*
X0201221Y0295374D01*
G75*
G02*
X0201811Y0295964I0000591J0000000D01*
G01*
X0206437Y0295964D01*
G75*
G02*
X0207028Y0295374I0000000J-000591D01*
G01*
G37*
G36*
G01*
X0216457Y0261182D02*
X0215118Y0261182D01*
G75*
G02*
X0214567Y0261734I0000000J0000551D01*
G01*
X0214567Y0262836D01*
G75*
G02*
X0215118Y0263387I0000551J0000000D01*
G01*
X0216457Y0263387D01*
G75*
G02*
X0217008Y0262836I0000000J-000551D01*
G01*
X0217008Y0261734D01*
G75*
G02*
X0216457Y0261182I-000551J0000000D01*
G01*
G37*
G36*
G01*
X0216457Y0264962D02*
X0215118Y0264962D01*
G75*
G02*
X0214567Y0265513I0000000J0000551D01*
G01*
X0214567Y0266615D01*
G75*
G02*
X0215118Y0267167I0000551J0000000D01*
G01*
X0216457Y0267167D01*
G75*
G02*
X0217008Y0266615I0000000J-000551D01*
G01*
X0217008Y0265513D01*
G75*
G02*
X0216457Y0264962I-000551J0000000D01*
G01*
G37*
G36*
G01*
X0185670Y0264253D02*
X0185670Y0265434D01*
G75*
G02*
X0186260Y0266025I0000591J0000000D01*
G01*
X0191969Y0266025D01*
G75*
G02*
X0192559Y0265434I0000000J-000591D01*
G01*
X0192559Y0264253D01*
G75*
G02*
X0191969Y0263663I-000591J0000000D01*
G01*
X0186260Y0263663D01*
G75*
G02*
X0185670Y0264253I0000000J0000591D01*
G01*
G37*
G36*
G01*
X0185670Y0269253D02*
X0185670Y0270434D01*
G75*
G02*
X0186260Y0271025I0000591J0000000D01*
G01*
X0191969Y0271025D01*
G75*
G02*
X0192559Y0270434I0000000J-000591D01*
G01*
X0192559Y0269253D01*
G75*
G02*
X0191969Y0268663I-000591J0000000D01*
G01*
X0186260Y0268663D01*
G75*
G02*
X0185670Y0269253I0000000J0000591D01*
G01*
G37*
G36*
G01*
X0185670Y0274253D02*
X0185670Y0275434D01*
G75*
G02*
X0186260Y0276025I0000591J0000000D01*
G01*
X0191969Y0276025D01*
G75*
G02*
X0192559Y0275434I0000000J-000591D01*
G01*
X0192559Y0274253D01*
G75*
G02*
X0191969Y0273663I-000591J0000000D01*
G01*
X0186260Y0273663D01*
G75*
G02*
X0185670Y0274253I0000000J0000591D01*
G01*
G37*
G36*
G01*
X0185670Y0279253D02*
X0185670Y0280434D01*
G75*
G02*
X0186260Y0281025I0000591J0000000D01*
G01*
X0191969Y0281025D01*
G75*
G02*
X0192559Y0280434I0000000J-000591D01*
G01*
X0192559Y0279253D01*
G75*
G02*
X0191969Y0278663I-000591J0000000D01*
G01*
X0186260Y0278663D01*
G75*
G02*
X0185670Y0279253I0000000J0000591D01*
G01*
G37*
G36*
G01*
X0205945Y0279253D02*
X0205945Y0280434D01*
G75*
G02*
X0206536Y0281025I0000591J0000000D01*
G01*
X0212244Y0281025D01*
G75*
G02*
X0212835Y0280434I0000000J-000591D01*
G01*
X0212835Y0279253D01*
G75*
G02*
X0212244Y0278663I-000591J0000000D01*
G01*
X0206536Y0278663D01*
G75*
G02*
X0205945Y0279253I0000000J0000591D01*
G01*
G37*
G36*
G01*
X0205945Y0274253D02*
X0205945Y0275434D01*
G75*
G02*
X0206536Y0276025I0000591J0000000D01*
G01*
X0212244Y0276025D01*
G75*
G02*
X0212835Y0275434I0000000J-000591D01*
G01*
X0212835Y0274253D01*
G75*
G02*
X0212244Y0273663I-000591J0000000D01*
G01*
X0206536Y0273663D01*
G75*
G02*
X0205945Y0274253I0000000J0000591D01*
G01*
G37*
G36*
G01*
X0205945Y0269253D02*
X0205945Y0270434D01*
G75*
G02*
X0206536Y0271025I0000591J0000000D01*
G01*
X0212244Y0271025D01*
G75*
G02*
X0212835Y0270434I0000000J-000591D01*
G01*
X0212835Y0269253D01*
G75*
G02*
X0212244Y0268663I-000591J0000000D01*
G01*
X0206536Y0268663D01*
G75*
G02*
X0205945Y0269253I0000000J0000591D01*
G01*
G37*
G36*
G01*
X0205945Y0264253D02*
X0205945Y0265434D01*
G75*
G02*
X0206536Y0266025I0000591J0000000D01*
G01*
X0212244Y0266025D01*
G75*
G02*
X0212835Y0265434I0000000J-000591D01*
G01*
X0212835Y0264253D01*
G75*
G02*
X0212244Y0263663I-000591J0000000D01*
G01*
X0206536Y0263663D01*
G75*
G02*
X0205945Y0264253I0000000J0000591D01*
G01*
G37*
X0323169Y0223169D02*
G01*
G75*
D52*
X0269822Y0081830D02*
D03*
D51*
X0283602Y0081830D02*
D03*
D54*
X0189704Y0187933D02*
D03*
D49*
X0231437Y0081830D02*
D03*
X0315689Y0222775D02*
D03*
D50*
X0201909Y0222775D02*
D03*
X0307421Y0081830D02*
D03*
D47*
X0322775Y0187145D02*
D03*
D48*
X0322775Y0218641D02*
D03*
D46*
X0322775Y0133405D02*
D03*
D55*
X0189704Y0210767D02*
D03*
D53*
X0189704Y0095216D02*
D03*
D44*
X0322775Y0115886D02*
D03*
X0322775Y0091870D02*
D03*
D45*
X0322775Y0103878D02*
D03*
X0189704Y0129468D02*
D03*
D369*
X0271200Y0138130D02*
D03*
X0271200Y0163425D02*
D03*
X0271200Y0148169D02*
D03*
X0271200Y0153385D02*
D03*
X0278287Y0122874D02*
D03*
X0271200Y0122874D02*
D03*
X0271200Y0132913D02*
D03*
X0278287Y0132913D02*
D03*
X0278287Y0163425D02*
D03*
X0278287Y0153385D02*
D03*
X0278287Y0148169D02*
D03*
X0278287Y0138130D02*
D03*
D370*
X0271200Y0141575D02*
D03*
X0271200Y0156830D02*
D03*
X0271200Y0144724D02*
D03*
X0271200Y0159980D02*
D03*
X0271200Y0129468D02*
D03*
X0271200Y0126319D02*
D03*
X0278287Y0126319D02*
D03*
X0278287Y0129468D02*
D03*
X0278287Y0156830D02*
D03*
X0278287Y0159980D02*
D03*
X0278287Y0141575D02*
D03*
X0278287Y0144724D02*
D03*
D373*
X0269232Y0084980D02*
D03*
X0273169Y0084980D02*
D03*
X0274744Y0088523D02*
D03*
X0278681Y0088523D02*
D03*
X0266870Y0105846D02*
D03*
X0270807Y0105846D02*
D03*
X0238217Y0163548D02*
D03*
X0242154Y0163548D02*
D03*
X0246413Y0163548D02*
D03*
X0250350Y0163548D02*
D03*
X0289735Y0131081D02*
D03*
X0293672Y0131081D02*
D03*
X0289735Y0134804D02*
D03*
X0293672Y0134804D02*
D03*
X0292151Y0097972D02*
D03*
X0288214Y0097972D02*
D03*
X0203517Y0087039D02*
D03*
X0239265Y0087278D02*
D03*
X0224350Y0163548D02*
D03*
X0256634Y0109390D02*
D03*
X0256634Y0113720D02*
D03*
X0260064Y0117939D02*
D03*
X0271341Y0117884D02*
D03*
X0250925Y0147544D02*
D03*
X0259714Y0147544D02*
D03*
X0263651Y0156029D02*
D03*
X0198734Y0185895D02*
D03*
X0224350Y0168051D02*
D03*
X0265295Y0084980D02*
D03*
X0278681Y0117975D02*
D03*
X0300334Y0116577D02*
D03*
X0314399Y0116577D02*
D03*
X0300334Y0120807D02*
D03*
X0314399Y0120807D02*
D03*
X0274696Y0167715D02*
D03*
X0319232Y0169626D02*
D03*
X0252697Y0109390D02*
D03*
X0263651Y0147544D02*
D03*
X0254862Y0147544D02*
D03*
X0254862Y0152032D02*
D03*
X0250925Y0152032D02*
D03*
X0196791Y0171988D02*
D03*
X0200728Y0171988D02*
D03*
X0202671Y0185895D02*
D03*
X0288116Y0115071D02*
D03*
X0292053Y0115071D02*
D03*
X0318337Y0116577D02*
D03*
X0274744Y0117975D02*
D03*
X0259714Y0156029D02*
D03*
X0267404Y0117884D02*
D03*
X0264001Y0117939D02*
D03*
X0304271Y0120807D02*
D03*
X0278633Y0167715D02*
D03*
X0315295Y0169626D02*
D03*
X0243202Y0087278D02*
D03*
X0269232Y0084980D02*
D03*
X0296004Y0110004D02*
D03*
X0299941Y0110004D02*
D03*
X0304271Y0116577D02*
D03*
X0220413Y0168051D02*
D03*
X0220413Y0163548D02*
D03*
X0252697Y0113720D02*
D03*
X0207454Y0087039D02*
D03*
X0216770Y0087039D02*
D03*
X0212833Y0087039D02*
D03*
X0310462Y0120807D02*
D03*
X0319232Y0165689D02*
D03*
X0315295Y0165689D02*
D03*
X0319232Y0153287D02*
D03*
X0315295Y0153287D02*
D03*
X0319232Y0149153D02*
D03*
X0315295Y0149153D02*
D03*
X0319232Y0140885D02*
D03*
X0315295Y0140885D02*
D03*
X0319232Y0145019D02*
D03*
X0315295Y0145019D02*
D03*
X0319232Y0136752D02*
D03*
X0315295Y0136752D02*
D03*
X0319232Y0157421D02*
D03*
X0315295Y0157421D02*
D03*
X0319232Y0161555D02*
D03*
X0315295Y0161555D02*
D03*
D375*
X0264242Y0134193D02*
D03*
X0264242Y0129960D02*
D03*
X0218838Y0218051D02*
D03*
X0223563Y0218051D02*
D03*
X0228287Y0218051D02*
D03*
X0233011Y0218051D02*
D03*
X0303090Y0089704D02*
D03*
X0298956Y0089704D02*
D03*
X0207776Y0181925D02*
D03*
X0207776Y0177988D02*
D03*
X0318705Y0090886D02*
D03*
X0318705Y0094822D02*
D03*
X0264242Y0126023D02*
D03*
X0264242Y0138130D02*
D03*
X0211948Y0182421D02*
D03*
X0211948Y0178484D02*
D03*
X0236721Y0210197D02*
D03*
X0236721Y0206260D02*
D03*
X0233011Y0206260D02*
D03*
X0233011Y0210197D02*
D03*
X0233011Y0195610D02*
D03*
X0233011Y0199547D02*
D03*
X0233011Y0214114D02*
D03*
X0228287Y0214114D02*
D03*
X0218838Y0214114D02*
D03*
X0223563Y0214114D02*
D03*
X0317670Y0180920D02*
D03*
X0317670Y0176983D02*
D03*
X0267460Y0177893D02*
D03*
X0267460Y0181830D02*
D03*
X0267460Y0188130D02*
D03*
X0267460Y0192067D02*
D03*
X0295413Y0177893D02*
D03*
X0295413Y0181830D02*
D03*
X0271988Y0203287D02*
D03*
X0271988Y0199350D02*
D03*
X0301318Y0203287D02*
D03*
X0301318Y0199350D02*
D03*
X0314114Y0203287D02*
D03*
X0314114Y0199350D02*
D03*
X0297222Y0210197D02*
D03*
X0297222Y0214134D02*
D03*
X0318838Y0210571D02*
D03*
X0318838Y0206634D02*
D03*
X0318641Y0213720D02*
D03*
X0318641Y0217657D02*
D03*
X0318705Y0102412D02*
D03*
X0318705Y0098475D02*
D03*
X0303090Y0085767D02*
D03*
X0298956Y0085767D02*
D03*
X0295216Y0199350D02*
D03*
X0295216Y0203287D02*
D03*
X0290886Y0199350D02*
D03*
X0290886Y0203287D02*
D03*
X0282421Y0199350D02*
D03*
X0282421Y0203287D02*
D03*
X0278255Y0214134D02*
D03*
X0278255Y0210197D02*
D03*
X0239508Y0181830D02*
D03*
X0239508Y0177893D02*
D03*
X0309783Y0199350D02*
D03*
X0309783Y0203287D02*
D03*
X0259412Y0214134D02*
D03*
X0259412Y0210197D02*
D03*
X0263523Y0199350D02*
D03*
X0263523Y0203287D02*
D03*
X0276318Y0199350D02*
D03*
X0276318Y0203287D02*
D03*
X0240432Y0214134D02*
D03*
X0240432Y0210197D02*
D03*
X0244625Y0199350D02*
D03*
X0244625Y0203287D02*
D03*
X0253090Y0199350D02*
D03*
X0253090Y0203287D02*
D03*
X0257421Y0199350D02*
D03*
X0257421Y0203287D02*
D03*
X0239644Y0195610D02*
D03*
X0239644Y0199547D02*
D03*
D377*
X0283612Y0092913D02*
D03*
X0291352Y0102388D02*
D03*
X0309685Y0125758D02*
D03*
D380*
X0235964Y0094330D02*
D03*
X0242264Y0094330D02*
D03*
X0272578Y0092952D02*
D03*
X0278878Y0092952D02*
D03*
X0272578Y0097578D02*
D03*
X0278878Y0097578D02*
D03*
D377*
X0300433Y0129499D02*
D03*
X0291352Y0109868D02*
D03*
X0282100Y0106128D02*
D03*
X0283612Y0085433D02*
D03*
X0292864Y0089173D02*
D03*
X0309685Y0133239D02*
D03*
D401*
X0275138Y0102775D02*
D03*
X0275138Y0108996D02*
D03*
D402*
X0245708Y0173563D02*
D03*
X0245708Y0180649D02*
D03*
X0255748Y0180649D02*
D03*
X0255748Y0173563D02*
D03*
X0273661Y0180649D02*
D03*
X0301614Y0180649D02*
D03*
X0283700Y0184586D02*
D03*
X0228582Y0209783D02*
D03*
X0228582Y0202697D02*
D03*
X0218543Y0202697D02*
D03*
X0218543Y0209783D02*
D03*
X0311653Y0191673D02*
D03*
X0311653Y0184586D02*
D03*
X0301614Y0184586D02*
D03*
X0301614Y0191673D02*
D03*
X0301614Y0173563D02*
D03*
X0311653Y0180649D02*
D03*
X0311653Y0173563D02*
D03*
X0283700Y0191673D02*
D03*
X0273661Y0184586D02*
D03*
X0273661Y0191673D02*
D03*
X0273661Y0173563D02*
D03*
X0283700Y0180649D02*
D03*
X0283700Y0173563D02*
D03*
X0282716Y0215492D02*
D03*
X0282716Y0208405D02*
D03*
X0292756Y0208405D02*
D03*
X0292756Y0215492D02*
D03*
X0301614Y0215492D02*
D03*
X0301614Y0208405D02*
D03*
X0311653Y0208405D02*
D03*
X0311653Y0215492D02*
D03*
X0263818Y0215492D02*
D03*
X0263818Y0208405D02*
D03*
X0273858Y0208405D02*
D03*
X0273858Y0215492D02*
D03*
X0244921Y0215492D02*
D03*
X0244921Y0208405D02*
D03*
X0254960Y0208405D02*
D03*
X0254960Y0215492D02*
D03*
X0245708Y0191673D02*
D03*
X0245708Y0184586D02*
D03*
X0255748Y0184586D02*
D03*
X0255748Y0191673D02*
D03*
X0218149Y0191673D02*
D03*
X0218149Y0184586D02*
D03*
X0228189Y0184586D02*
D03*
X0228189Y0191673D02*
D03*
X0228189Y0173563D02*
D03*
X0228189Y0180649D02*
D03*
X0218149Y0180649D02*
D03*
X0218149Y0173563D02*
D03*
D403*
X0252303Y0180649D02*
D03*
X0249153Y0180649D02*
D03*
X0249153Y0173563D02*
D03*
X0252303Y0173563D02*
D03*
X0277106Y0180649D02*
D03*
X0305059Y0180649D02*
D03*
X0280256Y0184586D02*
D03*
X0221988Y0202697D02*
D03*
X0225137Y0202697D02*
D03*
X0225137Y0209783D02*
D03*
X0221988Y0209783D02*
D03*
X0305059Y0184586D02*
D03*
X0308208Y0184586D02*
D03*
X0308208Y0191673D02*
D03*
X0305059Y0191673D02*
D03*
X0308208Y0180649D02*
D03*
X0305059Y0173563D02*
D03*
X0308208Y0173563D02*
D03*
X0277106Y0184586D02*
D03*
X0280256Y0191673D02*
D03*
X0277106Y0191673D02*
D03*
X0280255Y0180649D02*
D03*
X0277106Y0173563D02*
D03*
X0280255Y0173563D02*
D03*
X0286161Y0215492D02*
D03*
X0289311Y0215492D02*
D03*
X0289311Y0208405D02*
D03*
X0286161Y0208405D02*
D03*
X0305058Y0215492D02*
D03*
X0308208Y0215492D02*
D03*
X0308208Y0208405D02*
D03*
X0305058Y0208405D02*
D03*
X0267263Y0215492D02*
D03*
X0270413Y0215492D02*
D03*
X0270413Y0208405D02*
D03*
X0267263Y0208405D02*
D03*
X0248366Y0215492D02*
D03*
X0251515Y0215492D02*
D03*
X0251515Y0208405D02*
D03*
X0248366Y0208405D02*
D03*
X0249153Y0191673D02*
D03*
X0252303Y0191673D02*
D03*
X0252303Y0184586D02*
D03*
X0249153Y0184586D02*
D03*
X0221594Y0191673D02*
D03*
X0224744Y0191673D02*
D03*
X0224744Y0184586D02*
D03*
X0221594Y0184586D02*
D03*
X0224744Y0173563D02*
D03*
X0221594Y0173563D02*
D03*
X0221594Y0180649D02*
D03*
X0224744Y0180649D02*
D03*
D404*
X0213366Y0096299D02*
D03*
X0213366Y0091309D02*
D03*
X0219586Y0091309D02*
D03*
X0219586Y0096299D02*
D03*
D405*
X0200728Y0103189D02*
D03*
X0233405Y0103189D02*
D03*
X0200728Y0157322D02*
D03*
X0233405Y0157322D02*
D03*
D406*
X0210964Y0121220D02*
D03*
X0210964Y0112559D02*
D03*
X0210964Y0116889D02*
D03*
X0210964Y0125551D02*
D03*
X0210964Y0129882D02*
D03*
X0210964Y0134212D02*
D03*
X0210964Y0138543D02*
D03*
X0210964Y0142874D02*
D03*
D407*
X0192657Y0201830D02*
D03*
X0205861Y0201830D02*
D03*
X0200138Y0209862D02*
D03*
X0213341Y0209862D02*
D03*
X0196397Y0192578D02*
D03*
X0209601Y0192578D02*
D03*
X0209601Y0219114D02*
D03*
X0297775Y0104193D02*
D03*
X0301515Y0094941D02*
D03*
X0196397Y0219114D02*
D03*
D215*
X0198734Y0176057D02*
D03*
X0202671Y0176057D02*
D03*
X0198734Y0182061D02*
D03*
X0200702Y0182061D02*
D03*
X0200702Y0176057D02*
D03*
X0202671Y0182061D02*
D03*
D408*
X0289299Y0119409D02*
D03*
X0294417Y0119409D02*
D03*
X0291858Y0119409D02*
D03*
X0289299Y0126890D02*
D03*
X0294417Y0126890D02*
D03*
D218*
X0286082Y0138917D02*
D03*
X0309074Y0141476D02*
D03*
X0309074Y0138917D02*
D03*
X0286082Y0161948D02*
D03*
X0309074Y0164507D02*
D03*
X0309074Y0167067D02*
D03*
X0309074Y0161948D02*
D03*
X0309074Y0159389D02*
D03*
X0309074Y0156830D02*
D03*
X0309074Y0154271D02*
D03*
X0309074Y0151712D02*
D03*
X0309074Y0149153D02*
D03*
X0309074Y0146594D02*
D03*
X0309074Y0144035D02*
D03*
X0286082Y0167067D02*
D03*
X0286082Y0164507D02*
D03*
X0286082Y0159389D02*
D03*
X0286082Y0156830D02*
D03*
X0286082Y0154271D02*
D03*
X0286082Y0151712D02*
D03*
X0286082Y0149153D02*
D03*
X0286082Y0146594D02*
D03*
X0286082Y0144035D02*
D03*
X0286082Y0141476D02*
D03*
D409*
X0312145Y0101330D02*
D03*
X0312145Y0089912D02*
D03*
D410*
X0254055Y0099195D02*
D03*
X0267047Y0099195D02*
D03*
X0318132Y0110395D02*
D03*
X0305140Y0110395D02*
D03*
D220*
X0255280Y0124600D02*
D03*
X0255280Y0139167D02*
D03*
D221*
X0203704Y0180043D02*
D03*
X0203704Y0178075D02*
D03*
X0197700Y0178075D02*
D03*
X0197700Y0180043D02*
D03*
D411*
X0268691Y0112077D02*
D03*
X0262786Y0112077D02*
D03*
D407*
X0200138Y0201830D02*
D03*
X0213341Y0201830D02*
D03*
X0205861Y0209862D02*
D03*
X0305256Y0104193D02*
D03*
X0192657Y0209862D02*
D03*
D223*
X0265888Y0162736D02*
D03*
X0259195Y0162736D02*
D03*
D412*
X0249527Y0089199D02*
D03*
X0260944Y0089199D02*
D03*
D413*
X0318444Y0123563D02*
D03*
X0318444Y0129862D02*
D03*
X0393720Y0274439D02*
G01*
G75*
D440*
X0382303Y0287451D02*
D03*
X0386043Y0278199D02*
D03*
D440*
X0389783Y0287451D02*
D03*
D172*
X0374744Y0299065D02*
D03*
X0374744Y0294065D02*
D03*
X0374744Y0289065D02*
D03*
X0374744Y0284065D02*
D03*
X0355846Y0299065D02*
D03*
X0355846Y0294065D02*
D03*
X0355846Y0289065D02*
D03*
X0355846Y0284065D02*
D03*
D441*
X0359035Y0278770D02*
D03*
X0352815Y0278770D02*
D03*
X0367381Y0278770D02*
D03*
X0373602Y0278770D02*
D03*
D442*
X0389193Y0292352D02*
D03*
X0382893Y0292352D02*
D03*
D20*
X0378563Y0276309D02*
D03*
M02*
