G75*
G70*
%OFA0B0*%
%FSLAX25Y25*%
%IPPOS*%
%LPD*%
%AMOC8*
5,1,8,0,0,1.08239X$1,22.5*
%
%AMM106*
21,1,0.027170,0.052760,-0.000000,-0.000000,90.000000*
21,1,0.017320,0.062600,-0.000000,-0.000000,90.000000*
1,1,0.009840,0.026380,0.008660*
1,1,0.009840,0.026380,-0.008660*
1,1,0.009840,-0.026380,-0.008660*
1,1,0.009840,-0.026380,0.008660*
%
%AMM14*
21,1,0.092130,0.073230,0.000000,0.000000,270.000000*
21,1,0.069290,0.096060,0.000000,0.000000,270.000000*
1,1,0.022840,-0.036610,-0.034650*
1,1,0.022840,-0.036610,0.034650*
1,1,0.022840,0.036610,0.034650*
1,1,0.022840,0.036610,-0.034650*
%
%AMM15*
21,1,0.100000,0.111020,0.000000,0.000000,0.000000*
21,1,0.075590,0.135430,0.000000,0.000000,0.000000*
1,1,0.024410,0.037800,-0.055510*
1,1,0.024410,-0.037800,-0.055510*
1,1,0.024410,-0.037800,0.055510*
1,1,0.024410,0.037800,0.055510*
%
%AMM16*
21,1,0.080320,0.083460,0.000000,0.000000,0.000000*
21,1,0.059840,0.103940,0.000000,0.000000,0.000000*
1,1,0.020470,0.029920,-0.041730*
1,1,0.020470,-0.029920,-0.041730*
1,1,0.020470,-0.029920,0.041730*
1,1,0.020470,0.029920,0.041730*
%
%AMM17*
21,1,0.084250,0.053540,0.000000,0.000000,180.000000*
21,1,0.065350,0.072440,0.000000,0.000000,180.000000*
1,1,0.018900,-0.032680,0.026770*
1,1,0.018900,0.032680,0.026770*
1,1,0.018900,0.032680,-0.026770*
1,1,0.018900,-0.032680,-0.026770*
%
%AMM18*
21,1,0.040950,0.030320,0.000000,0.000000,90.000000*
21,1,0.028350,0.042910,0.000000,0.000000,90.000000*
1,1,0.012600,0.015160,0.014170*
1,1,0.012600,0.015160,-0.014170*
1,1,0.012600,-0.015160,-0.014170*
1,1,0.012600,-0.015160,0.014170*
%
%AMM189*
21,1,0.029530,0.026380,-0.000000,-0.000000,90.000000*
21,1,0.020470,0.035430,-0.000000,-0.000000,90.000000*
1,1,0.009060,0.013190,0.010240*
1,1,0.009060,0.013190,-0.010240*
1,1,0.009060,-0.013190,-0.010240*
1,1,0.009060,-0.013190,0.010240*
%
%AMM19*
21,1,0.027170,0.052760,0.000000,0.000000,270.000000*
21,1,0.017320,0.062600,0.000000,0.000000,270.000000*
1,1,0.009840,-0.026380,-0.008660*
1,1,0.009840,-0.026380,0.008660*
1,1,0.009840,0.026380,0.008660*
1,1,0.009840,0.026380,-0.008660*
%
%AMM190*
21,1,0.021650,0.027950,-0.000000,-0.000000,90.000000*
21,1,0.014170,0.035430,-0.000000,-0.000000,90.000000*
1,1,0.007480,0.013980,0.007090*
1,1,0.007480,0.013980,-0.007090*
1,1,0.007480,-0.013980,-0.007090*
1,1,0.007480,-0.013980,0.007090*
%
%AMM191*
21,1,0.016540,0.028980,-0.000000,-0.000000,270.000000*
21,1,0.010080,0.035430,-0.000000,-0.000000,270.000000*
1,1,0.006460,-0.014490,-0.005040*
1,1,0.006460,-0.014490,0.005040*
1,1,0.006460,0.014490,0.005040*
1,1,0.006460,0.014490,-0.005040*
%
%AMM192*
21,1,0.027560,0.030710,-0.000000,-0.000000,0.000000*
21,1,0.018900,0.039370,-0.000000,-0.000000,0.000000*
1,1,0.008660,0.009450,-0.015350*
1,1,0.008660,-0.009450,-0.015350*
1,1,0.008660,-0.009450,0.015350*
1,1,0.008660,0.009450,0.015350*
%
%AMM193*
21,1,0.031500,0.018900,-0.000000,-0.000000,270.000000*
21,1,0.022840,0.027560,-0.000000,-0.000000,270.000000*
1,1,0.008660,-0.009450,-0.011420*
1,1,0.008660,-0.009450,0.011420*
1,1,0.008660,0.009450,0.011420*
1,1,0.008660,0.009450,-0.011420*
%
%AMM194*
21,1,0.035430,0.072440,-0.000000,-0.000000,270.000000*
21,1,0.025200,0.082680,-0.000000,-0.000000,270.000000*
1,1,0.010240,-0.036220,-0.012600*
1,1,0.010240,-0.036220,0.012600*
1,1,0.010240,0.036220,0.012600*
1,1,0.010240,0.036220,-0.012600*
%
%AMM195*
21,1,0.031500,0.018900,-0.000000,-0.000000,0.000000*
21,1,0.022840,0.027560,-0.000000,-0.000000,0.000000*
1,1,0.008660,0.011420,-0.009450*
1,1,0.008660,-0.011420,-0.009450*
1,1,0.008660,-0.011420,0.009450*
1,1,0.008660,0.011420,0.009450*
%
%AMM196*
21,1,0.027560,0.030710,-0.000000,-0.000000,90.000000*
21,1,0.018900,0.039370,-0.000000,-0.000000,90.000000*
1,1,0.008660,0.015350,0.009450*
1,1,0.008660,0.015350,-0.009450*
1,1,0.008660,-0.015350,-0.009450*
1,1,0.008660,-0.015350,0.009450*
%
%AMM197*
21,1,0.039370,0.030320,-0.000000,-0.000000,90.000000*
21,1,0.028350,0.041340,-0.000000,-0.000000,90.000000*
1,1,0.011020,0.015160,0.014170*
1,1,0.011020,0.015160,-0.014170*
1,1,0.011020,-0.015160,-0.014170*
1,1,0.011020,-0.015160,0.014170*
%
%AMM198*
21,1,0.047240,0.075980,-0.000000,-0.000000,180.000000*
21,1,0.034650,0.088580,-0.000000,-0.000000,180.000000*
1,1,0.012600,-0.017320,0.037990*
1,1,0.012600,0.017320,0.037990*
1,1,0.012600,0.017320,-0.037990*
1,1,0.012600,-0.017320,-0.037990*
%
%AMM199*
21,1,0.043310,0.035430,-0.000000,-0.000000,180.000000*
21,1,0.031500,0.047240,-0.000000,-0.000000,180.000000*
1,1,0.011810,-0.015750,0.017720*
1,1,0.011810,0.015750,0.017720*
1,1,0.011810,0.015750,-0.017720*
1,1,0.011810,-0.015750,-0.017720*
%
%AMM20*
21,1,0.041340,0.026770,0.000000,0.000000,0.000000*
21,1,0.029130,0.038980,0.000000,0.000000,0.000000*
1,1,0.012210,0.014570,-0.013390*
1,1,0.012210,-0.014570,-0.013390*
1,1,0.012210,-0.014570,0.013390*
1,1,0.012210,0.014570,0.013390*
%
%AMM200*
21,1,0.031500,0.030710,-0.000000,-0.000000,180.000000*
21,1,0.022050,0.040160,-0.000000,-0.000000,180.000000*
1,1,0.009450,-0.011020,0.015350*
1,1,0.009450,0.011020,0.015350*
1,1,0.009450,0.011020,-0.015350*
1,1,0.009450,-0.011020,-0.015350*
%
%AMM201*
21,1,0.035430,0.072440,-0.000000,-0.000000,180.000000*
21,1,0.025200,0.082680,-0.000000,-0.000000,180.000000*
1,1,0.010240,-0.012600,0.036220*
1,1,0.010240,0.012600,0.036220*
1,1,0.010240,0.012600,-0.036220*
1,1,0.010240,-0.012600,-0.036220*
%
%AMM202*
21,1,0.141730,0.067720,-0.000000,-0.000000,180.000000*
21,1,0.120870,0.088580,-0.000000,-0.000000,180.000000*
1,1,0.020870,-0.060430,0.033860*
1,1,0.020870,0.060430,0.033860*
1,1,0.020870,0.060430,-0.033860*
1,1,0.020870,-0.060430,-0.033860*
%
%AMM203*
21,1,0.047240,0.075990,-0.000000,-0.000000,180.000000*
21,1,0.034650,0.088580,-0.000000,-0.000000,180.000000*
1,1,0.012600,-0.017320,0.037990*
1,1,0.012600,0.017320,0.037990*
1,1,0.012600,0.017320,-0.037990*
1,1,0.012600,-0.017320,-0.037990*
%
%AMM204*
21,1,0.090550,0.073230,-0.000000,-0.000000,270.000000*
21,1,0.069290,0.094490,-0.000000,-0.000000,270.000000*
1,1,0.021260,-0.036610,-0.034650*
1,1,0.021260,-0.036610,0.034650*
1,1,0.021260,0.036610,0.034650*
1,1,0.021260,0.036610,-0.034650*
%
%AMM21*
21,1,0.076380,0.036220,0.000000,0.000000,90.000000*
21,1,0.061810,0.050790,0.000000,0.000000,90.000000*
1,1,0.014570,0.018110,0.030910*
1,1,0.014570,0.018110,-0.030910*
1,1,0.014570,-0.018110,-0.030910*
1,1,0.014570,-0.018110,0.030910*
%
%AMM22*
21,1,0.038980,0.026770,0.000000,0.000000,0.000000*
21,1,0.026770,0.038980,0.000000,0.000000,0.000000*
1,1,0.012210,0.013390,-0.013390*
1,1,0.012210,-0.013390,-0.013390*
1,1,0.012210,-0.013390,0.013390*
1,1,0.012210,0.013390,0.013390*
%
%AMM23*
21,1,0.021260,0.016540,0.000000,0.000000,270.000000*
21,1,0.012600,0.025200,0.000000,0.000000,270.000000*
1,1,0.008660,-0.008270,-0.006300*
1,1,0.008660,-0.008270,0.006300*
1,1,0.008660,0.008270,0.006300*
1,1,0.008660,0.008270,-0.006300*
%
%AMM24*
21,1,0.029130,0.018900,0.000000,0.000000,90.000000*
21,1,0.018900,0.029130,0.000000,0.000000,90.000000*
1,1,0.010240,0.009450,0.009450*
1,1,0.010240,0.009450,-0.009450*
1,1,0.010240,-0.009450,-0.009450*
1,1,0.010240,-0.009450,0.009450*
%
%AMM25*
21,1,0.025200,0.019680,0.000000,0.000000,0.000000*
21,1,0.015750,0.029130,0.000000,0.000000,0.000000*
1,1,0.009450,0.007870,-0.009840*
1,1,0.009450,-0.007870,-0.009840*
1,1,0.009450,-0.007870,0.009840*
1,1,0.009450,0.007870,0.009840*
%
%AMM26*
21,1,0.025200,0.019680,0.000000,0.000000,270.000000*
21,1,0.015750,0.029130,0.000000,0.000000,270.000000*
1,1,0.009450,-0.009840,-0.007870*
1,1,0.009450,-0.009840,0.007870*
1,1,0.009450,0.009840,0.007870*
1,1,0.009450,0.009840,-0.007870*
%
%ADD108M14*%
%ADD109M15*%
%ADD11C,0.06693*%
%ADD110M16*%
%ADD111M17*%
%ADD112M18*%
%ADD113M19*%
%ADD114M20*%
%ADD115M21*%
%ADD116M22*%
%ADD117M23*%
%ADD118M24*%
%ADD119M25*%
%ADD120M26*%
%ADD121C,0.02913*%
%ADD122C,0.06457*%
%ADD13C,0.11811*%
%ADD142R,0.02559X0.01575*%
%ADD143R,0.01575X0.02559*%
%ADD146R,0.03543X0.03150*%
%ADD147R,0.04724X0.08661*%
%ADD148C,0.05118*%
%ADD149R,0.22835X0.25197*%
%ADD150R,0.03150X0.03543*%
%ADD151C,0.03100*%
%ADD152R,0.07500X0.07874*%
%ADD153O,0.07500X0.07874*%
%ADD154C,0.03900*%
%ADD186O,0.05118X0.01260*%
%ADD187O,0.01260X0.05118*%
%ADD188O,0.04724X0.01575*%
%ADD189C,0.03494*%
%ADD192R,0.01772X0.01378*%
%ADD193R,0.01378X0.01772*%
%ADD198O,0.09055X0.02756*%
%ADD205C,0.03543*%
%ADD207C,0.04294*%
%ADD21C,0.02362*%
%ADD265M106*%
%ADD27R,0.04331X0.04331*%
%ADD274R,0.01181X0.05512*%
%ADD28C,0.04331*%
%ADD29O,0.04331X0.09449*%
%ADD32C,0.09449*%
%ADD33C,0.05906*%
%ADD385M189*%
%ADD386M190*%
%ADD387M191*%
%ADD388M192*%
%ADD389M193*%
%ADD390M194*%
%ADD391M195*%
%ADD392M196*%
%ADD393M197*%
%ADD394M198*%
%ADD395M199*%
%ADD396M200*%
%ADD397M201*%
%ADD398M202*%
%ADD399M203*%
%ADD400M204*%
%ADD43R,0.02559X0.07874*%
%ADD44R,0.31890X0.17717*%
%ADD57R,0.03937X0.05118*%
%ADD58R,0.06693X0.06693*%
%ADD59O,0.06693X0.06693*%
%ADD60O,0.06890X0.04724*%
%ADD61C,0.06000*%
%ADD66C,0.04724*%
%ADD67C,0.00472*%
%ADD68C,0.07874*%
X0000000Y0000000D02*
%LPD*%
G01*
D67*
X0320669Y0052500D02*
X0294291Y0052500D01*
X0294291Y0004468D01*
X0320669Y0004468D01*
X0320669Y0052500D01*
G36*
X0320669Y0052500D02*
G01*
X0294291Y0052500D01*
X0294291Y0004468D01*
X0320669Y0004468D01*
X0320669Y0052500D01*
G37*
D13*
X0233878Y0264035D03*
G36*
G01*
X0360925Y0051299D02*
X0359744Y0051299D01*
G75*
G02*
X0359154Y0051889I0000000J0000591D01*
G01*
X0359154Y0056515D01*
G75*
G02*
X0359744Y0057106I0000591J0000000D01*
G01*
X0360925Y0057106D01*
G75*
G02*
X0361516Y0056515I0000000J-000591D01*
G01*
X0361516Y0051889D01*
G75*
G02*
X0360925Y0051299I-000591J0000000D01*
G01*
G37*
G36*
G01*
X0368406Y0051299D02*
X0367224Y0051299D01*
G75*
G02*
X0366634Y0051889I0000000J0000591D01*
G01*
X0366634Y0056515D01*
G75*
G02*
X0367224Y0057106I0000591J0000000D01*
G01*
X0368406Y0057106D01*
G75*
G02*
X0368996Y0056515I0000000J-000591D01*
G01*
X0368996Y0051889D01*
G75*
G02*
X0368406Y0051299I-000591J0000000D01*
G01*
G37*
G36*
G01*
X0364665Y0058681D02*
X0363484Y0058681D01*
G75*
G02*
X0362894Y0059271I0000000J0000591D01*
G01*
X0362894Y0063897D01*
G75*
G02*
X0363484Y0064488I0000591J0000000D01*
G01*
X0364665Y0064488D01*
G75*
G02*
X0365256Y0063897I0000000J-000591D01*
G01*
X0365256Y0059271D01*
G75*
G02*
X0364665Y0058681I-000591J0000000D01*
G01*
G37*
G36*
G01*
X0003898Y0118445D02*
X0003898Y0119626D01*
G75*
G02*
X0004488Y0120216I0000591J0000000D01*
G01*
X0010984Y0120216D01*
G75*
G02*
X0011575Y0119626I0000000J-000591D01*
G01*
X0011575Y0118445D01*
G75*
G02*
X0010984Y0117854I-000591J0000000D01*
G01*
X0004488Y0117854D01*
G75*
G02*
X0003898Y0118445I0000000J0000591D01*
G01*
G37*
G36*
G01*
X0003898Y0113445D02*
X0003898Y0114626D01*
G75*
G02*
X0004488Y0115216I0000591J0000000D01*
G01*
X0010984Y0115216D01*
G75*
G02*
X0011575Y0114626I0000000J-000591D01*
G01*
X0011575Y0113445D01*
G75*
G02*
X0010984Y0112854I-000591J0000000D01*
G01*
X0004488Y0112854D01*
G75*
G02*
X0003898Y0113445I0000000J0000591D01*
G01*
G37*
G36*
G01*
X0003898Y0108445D02*
X0003898Y0109626D01*
G75*
G02*
X0004488Y0110216I0000591J0000000D01*
G01*
X0010984Y0110216D01*
G75*
G02*
X0011575Y0109626I0000000J-000591D01*
G01*
X0011575Y0108445D01*
G75*
G02*
X0010984Y0107854I-000591J0000000D01*
G01*
X0004488Y0107854D01*
G75*
G02*
X0003898Y0108445I0000000J0000591D01*
G01*
G37*
G36*
G01*
X0003898Y0103445D02*
X0003898Y0104626D01*
G75*
G02*
X0004488Y0105216I0000591J0000000D01*
G01*
X0010984Y0105216D01*
G75*
G02*
X0011575Y0104626I0000000J-000591D01*
G01*
X0011575Y0103445D01*
G75*
G02*
X0010984Y0102854I-000591J0000000D01*
G01*
X0004488Y0102854D01*
G75*
G02*
X0003898Y0103445I0000000J0000591D01*
G01*
G37*
G36*
G01*
X0023386Y0103445D02*
X0023386Y0104626D01*
G75*
G02*
X0023976Y0105216I0000591J0000000D01*
G01*
X0030472Y0105216D01*
G75*
G02*
X0031063Y0104626I0000000J-000591D01*
G01*
X0031063Y0103445D01*
G75*
G02*
X0030472Y0102854I-000591J0000000D01*
G01*
X0023976Y0102854D01*
G75*
G02*
X0023386Y0103445I0000000J0000591D01*
G01*
G37*
G36*
G01*
X0023386Y0108445D02*
X0023386Y0109626D01*
G75*
G02*
X0023976Y0110216I0000591J0000000D01*
G01*
X0030472Y0110216D01*
G75*
G02*
X0031063Y0109626I0000000J-000591D01*
G01*
X0031063Y0108445D01*
G75*
G02*
X0030472Y0107854I-000591J0000000D01*
G01*
X0023976Y0107854D01*
G75*
G02*
X0023386Y0108445I0000000J0000591D01*
G01*
G37*
G36*
G01*
X0023386Y0113445D02*
X0023386Y0114626D01*
G75*
G02*
X0023976Y0115216I0000591J0000000D01*
G01*
X0030472Y0115216D01*
G75*
G02*
X0031063Y0114626I0000000J-000591D01*
G01*
X0031063Y0113445D01*
G75*
G02*
X0030472Y0112854I-000591J0000000D01*
G01*
X0023976Y0112854D01*
G75*
G02*
X0023386Y0113445I0000000J0000591D01*
G01*
G37*
G36*
G01*
X0023386Y0118445D02*
X0023386Y0119626D01*
G75*
G02*
X0023976Y0120216I0000591J0000000D01*
G01*
X0030472Y0120216D01*
G75*
G02*
X0031063Y0119626I0000000J-000591D01*
G01*
X0031063Y0118445D01*
G75*
G02*
X0030472Y0117854I-000591J0000000D01*
G01*
X0023976Y0117854D01*
G75*
G02*
X0023386Y0118445I0000000J0000591D01*
G01*
G37*
D11*
X0109429Y0191161D03*
G36*
G01*
X0265354Y0238740D02*
X0265354Y0236063D01*
G75*
G02*
X0265020Y0235728I-000335J0000000D01*
G01*
X0262343Y0235728D01*
G75*
G02*
X0262008Y0236063I0000000J0000335D01*
G01*
X0262008Y0238740D01*
G75*
G02*
X0262343Y0239074I0000335J0000000D01*
G01*
X0265020Y0239074D01*
G75*
G02*
X0265354Y0238740I0000000J-000335D01*
G01*
G37*
G36*
G01*
X0259134Y0238740D02*
X0259134Y0236063D01*
G75*
G02*
X0258799Y0235728I-000335J0000000D01*
G01*
X0256122Y0235728D01*
G75*
G02*
X0255787Y0236063I0000000J0000335D01*
G01*
X0255787Y0238740D01*
G75*
G02*
X0256122Y0239074I0000335J0000000D01*
G01*
X0258799Y0239074D01*
G75*
G02*
X0259134Y0238740I0000000J-000335D01*
G01*
G37*
G36*
G01*
X0003957Y0154724D02*
X0003957Y0155905D01*
G75*
G02*
X0004547Y0156496I0000591J0000000D01*
G01*
X0011043Y0156496D01*
G75*
G02*
X0011634Y0155905I0000000J-000591D01*
G01*
X0011634Y0154724D01*
G75*
G02*
X0011043Y0154133I-000591J0000000D01*
G01*
X0004547Y0154133D01*
G75*
G02*
X0003957Y0154724I0000000J0000591D01*
G01*
G37*
G36*
G01*
X0003957Y0149724D02*
X0003957Y0150905D01*
G75*
G02*
X0004547Y0151496I0000591J0000000D01*
G01*
X0011043Y0151496D01*
G75*
G02*
X0011634Y0150905I0000000J-000591D01*
G01*
X0011634Y0149724D01*
G75*
G02*
X0011043Y0149133I-000591J0000000D01*
G01*
X0004547Y0149133D01*
G75*
G02*
X0003957Y0149724I0000000J0000591D01*
G01*
G37*
G36*
G01*
X0003957Y0144724D02*
X0003957Y0145905D01*
G75*
G02*
X0004547Y0146496I0000591J0000000D01*
G01*
X0011043Y0146496D01*
G75*
G02*
X0011634Y0145905I0000000J-000591D01*
G01*
X0011634Y0144724D01*
G75*
G02*
X0011043Y0144133I-000591J0000000D01*
G01*
X0004547Y0144133D01*
G75*
G02*
X0003957Y0144724I0000000J0000591D01*
G01*
G37*
G36*
G01*
X0003957Y0139724D02*
X0003957Y0140905D01*
G75*
G02*
X0004547Y0141496I0000591J0000000D01*
G01*
X0011043Y0141496D01*
G75*
G02*
X0011634Y0140905I0000000J-000591D01*
G01*
X0011634Y0139724D01*
G75*
G02*
X0011043Y0139133I-000591J0000000D01*
G01*
X0004547Y0139133D01*
G75*
G02*
X0003957Y0139724I0000000J0000591D01*
G01*
G37*
G36*
G01*
X0023445Y0139724D02*
X0023445Y0140905D01*
G75*
G02*
X0024035Y0141496I0000591J0000000D01*
G01*
X0030531Y0141496D01*
G75*
G02*
X0031122Y0140905I0000000J-000591D01*
G01*
X0031122Y0139724D01*
G75*
G02*
X0030531Y0139133I-000591J0000000D01*
G01*
X0024035Y0139133D01*
G75*
G02*
X0023445Y0139724I0000000J0000591D01*
G01*
G37*
G36*
G01*
X0023445Y0144724D02*
X0023445Y0145905D01*
G75*
G02*
X0024035Y0146496I0000591J0000000D01*
G01*
X0030531Y0146496D01*
G75*
G02*
X0031122Y0145905I0000000J-000591D01*
G01*
X0031122Y0144724D01*
G75*
G02*
X0030531Y0144133I-000591J0000000D01*
G01*
X0024035Y0144133D01*
G75*
G02*
X0023445Y0144724I0000000J0000591D01*
G01*
G37*
G36*
G01*
X0023445Y0149724D02*
X0023445Y0150905D01*
G75*
G02*
X0024035Y0151496I0000591J0000000D01*
G01*
X0030531Y0151496D01*
G75*
G02*
X0031122Y0150905I0000000J-000591D01*
G01*
X0031122Y0149724D01*
G75*
G02*
X0030531Y0149133I-000591J0000000D01*
G01*
X0024035Y0149133D01*
G75*
G02*
X0023445Y0149724I0000000J0000591D01*
G01*
G37*
G36*
G01*
X0023445Y0154724D02*
X0023445Y0155905D01*
G75*
G02*
X0024035Y0156496I0000591J0000000D01*
G01*
X0030531Y0156496D01*
G75*
G02*
X0031122Y0155905I0000000J-000591D01*
G01*
X0031122Y0154724D01*
G75*
G02*
X0030531Y0154133I-000591J0000000D01*
G01*
X0024035Y0154133D01*
G75*
G02*
X0023445Y0154724I0000000J0000591D01*
G01*
G37*
X0140886Y0105846D03*
G36*
G01*
X0003681Y0159586D02*
X0003681Y0162657D01*
G75*
G02*
X0003957Y0162933I0000276J0000000D01*
G01*
X0006161Y0162933D01*
G75*
G02*
X0006437Y0162657I0000000J-000276D01*
G01*
X0006437Y0159586D01*
G75*
G02*
X0006161Y0159311I-000276J0000000D01*
G01*
X0003957Y0159311D01*
G75*
G02*
X0003681Y0159586I0000000J0000276D01*
G01*
G37*
G36*
G01*
X0009980Y0159586D02*
X0009980Y0162657D01*
G75*
G02*
X0010256Y0162933I0000276J0000000D01*
G01*
X0012461Y0162933D01*
G75*
G02*
X0012736Y0162657I0000000J-000276D01*
G01*
X0012736Y0159586D01*
G75*
G02*
X0012461Y0159311I-000276J0000000D01*
G01*
X0010256Y0159311D01*
G75*
G02*
X0009980Y0159586I0000000J0000276D01*
G01*
G37*
X0302894Y0068445D03*
G36*
G01*
X0382008Y0048917D02*
X0382008Y0046240D01*
G75*
G02*
X0381673Y0045905I-000335J0000000D01*
G01*
X0378996Y0045905D01*
G75*
G02*
X0378661Y0046240I0000000J0000335D01*
G01*
X0378661Y0048917D01*
G75*
G02*
X0378996Y0049252I0000335J0000000D01*
G01*
X0381673Y0049252D01*
G75*
G02*
X0382008Y0048917I0000000J-000335D01*
G01*
G37*
G36*
G01*
X0375787Y0048917D02*
X0375787Y0046240D01*
G75*
G02*
X0375453Y0045905I-000335J0000000D01*
G01*
X0372776Y0045905D01*
G75*
G02*
X0372441Y0046240I0000000J0000335D01*
G01*
X0372441Y0048917D01*
G75*
G02*
X0372776Y0049252I0000335J0000000D01*
G01*
X0375453Y0049252D01*
G75*
G02*
X0375787Y0048917I0000000J-000335D01*
G01*
G37*
X0419114Y0124271D03*
G36*
G01*
X0025955Y0252829D02*
X0028711Y0252829D01*
G75*
G02*
X0029695Y0251845I0000000J-000984D01*
G01*
X0029695Y0245152D01*
G75*
G02*
X0028711Y0244168I-000984J0000000D01*
G01*
X0025955Y0244168D01*
G75*
G02*
X0024970Y0245152I0000000J0000984D01*
G01*
X0024970Y0251845D01*
G75*
G02*
X0025955Y0252829I0000984J0000000D01*
G01*
G37*
G36*
G01*
X0007923Y0236294D02*
X0028789Y0236294D01*
G75*
G02*
X0029774Y0235310I0000000J-000984D01*
G01*
X0029774Y0212081D01*
G75*
G02*
X0028789Y0211097I-000984J0000000D01*
G01*
X0007923Y0211097D01*
G75*
G02*
X0006939Y0212081I0000000J0000984D01*
G01*
X0006939Y0235310D01*
G75*
G02*
X0007923Y0236294I0000984J0000000D01*
G01*
G37*
G36*
G01*
X0008002Y0252829D02*
X0010758Y0252829D01*
G75*
G02*
X0011742Y0251845I0000000J-000984D01*
G01*
X0011742Y0245152D01*
G75*
G02*
X0010758Y0244168I-000984J0000000D01*
G01*
X0008002Y0244168D01*
G75*
G02*
X0007018Y0245152I0000000J0000984D01*
G01*
X0007018Y0251845D01*
G75*
G02*
X0008002Y0252829I0000984J0000000D01*
G01*
G37*
G36*
G01*
X0042185Y0072834D02*
X0039508Y0072834D01*
G75*
G02*
X0039173Y0073169I0000000J0000335D01*
G01*
X0039173Y0075846D01*
G75*
G02*
X0039508Y0076181I0000335J0000000D01*
G01*
X0042185Y0076181D01*
G75*
G02*
X0042520Y0075846I0000000J-000335D01*
G01*
X0042520Y0073169D01*
G75*
G02*
X0042185Y0072834I-000335J0000000D01*
G01*
G37*
G36*
G01*
X0042185Y0079055D02*
X0039508Y0079055D01*
G75*
G02*
X0039173Y0079389I0000000J0000335D01*
G01*
X0039173Y0082067D01*
G75*
G02*
X0039508Y0082401I0000335J0000000D01*
G01*
X0042185Y0082401D01*
G75*
G02*
X0042520Y0082067I0000000J-000335D01*
G01*
X0042520Y0079389D01*
G75*
G02*
X0042185Y0079055I-000335J0000000D01*
G01*
G37*
G36*
G01*
X0233858Y0063149D02*
X0233858Y0060472D01*
G75*
G02*
X0233524Y0060137I-000335J0000000D01*
G01*
X0230846Y0060137D01*
G75*
G02*
X0230512Y0060472I0000000J0000335D01*
G01*
X0230512Y0063149D01*
G75*
G02*
X0230846Y0063484I0000335J0000000D01*
G01*
X0233524Y0063484D01*
G75*
G02*
X0233858Y0063149I0000000J-000335D01*
G01*
G37*
G36*
G01*
X0227638Y0063149D02*
X0227638Y0060472D01*
G75*
G02*
X0227303Y0060137I-000335J0000000D01*
G01*
X0224626Y0060137D01*
G75*
G02*
X0224291Y0060472I0000000J0000335D01*
G01*
X0224291Y0063149D01*
G75*
G02*
X0224626Y0063484I0000335J0000000D01*
G01*
X0227303Y0063484D01*
G75*
G02*
X0227638Y0063149I0000000J-000335D01*
G01*
G37*
G36*
G01*
X0135886Y0110413D02*
X0135886Y0107657D01*
G75*
G02*
X0134902Y0106673I-000984J0000000D01*
G01*
X0128209Y0106673D01*
G75*
G02*
X0127224Y0107657I0000000J0000984D01*
G01*
X0127224Y0110413D01*
G75*
G02*
X0128209Y0111397I0000984J0000000D01*
G01*
X0134902Y0111397D01*
G75*
G02*
X0135886Y0110413I0000000J-000984D01*
G01*
G37*
G36*
G01*
X0119350Y0128445D02*
X0119350Y0107578D01*
G75*
G02*
X0118366Y0106594I-000984J0000000D01*
G01*
X0095138Y0106594D01*
G75*
G02*
X0094154Y0107578I0000000J0000984D01*
G01*
X0094154Y0128445D01*
G75*
G02*
X0095138Y0129429I0000984J0000000D01*
G01*
X0118366Y0129429D01*
G75*
G02*
X0119350Y0128445I0000000J-000984D01*
G01*
G37*
G36*
G01*
X0135886Y0128366D02*
X0135886Y0125610D01*
G75*
G02*
X0134902Y0124626I-000984J0000000D01*
G01*
X0128209Y0124626D01*
G75*
G02*
X0127224Y0125610I0000000J0000984D01*
G01*
X0127224Y0128366D01*
G75*
G02*
X0128209Y0129350I0000984J0000000D01*
G01*
X0134902Y0129350D01*
G75*
G02*
X0135886Y0128366I0000000J-000984D01*
G01*
G37*
G36*
G01*
X0359331Y0046200D02*
X0359331Y0048878D01*
G75*
G02*
X0359665Y0049212I0000335J0000000D01*
G01*
X0362343Y0049212D01*
G75*
G02*
X0362677Y0048878I0000000J-000335D01*
G01*
X0362677Y0046200D01*
G75*
G02*
X0362343Y0045866I-000335J0000000D01*
G01*
X0359665Y0045866D01*
G75*
G02*
X0359331Y0046200I0000000J0000335D01*
G01*
G37*
G36*
G01*
X0365551Y0046200D02*
X0365551Y0048878D01*
G75*
G02*
X0365886Y0049212I0000335J0000000D01*
G01*
X0368563Y0049212D01*
G75*
G02*
X0368898Y0048878I0000000J-000335D01*
G01*
X0368898Y0046200D01*
G75*
G02*
X0368563Y0045866I-000335J0000000D01*
G01*
X0365886Y0045866D01*
G75*
G02*
X0365551Y0046200I0000000J0000335D01*
G01*
G37*
G36*
G01*
X0135886Y0165610D02*
X0135886Y0162854D01*
G75*
G02*
X0134902Y0161870I-000984J0000000D01*
G01*
X0128209Y0161870D01*
G75*
G02*
X0127224Y0162854I0000000J0000984D01*
G01*
X0127224Y0165610D01*
G75*
G02*
X0128209Y0166594I0000984J0000000D01*
G01*
X0134902Y0166594D01*
G75*
G02*
X0135886Y0165610I0000000J-000984D01*
G01*
G37*
G36*
G01*
X0119350Y0183641D02*
X0119350Y0162775D01*
G75*
G02*
X0118366Y0161791I-000984J0000000D01*
G01*
X0095138Y0161791D01*
G75*
G02*
X0094154Y0162775I0000000J0000984D01*
G01*
X0094154Y0183641D01*
G75*
G02*
X0095138Y0184626I0000984J0000000D01*
G01*
X0118366Y0184626D01*
G75*
G02*
X0119350Y0183641I0000000J-000984D01*
G01*
G37*
G36*
G01*
X0135886Y0183563D02*
X0135886Y0180807D01*
G75*
G02*
X0134902Y0179822I-000984J0000000D01*
G01*
X0128209Y0179822D01*
G75*
G02*
X0127224Y0180807I0000000J0000984D01*
G01*
X0127224Y0183563D01*
G75*
G02*
X0128209Y0184547I0000984J0000000D01*
G01*
X0134902Y0184547D01*
G75*
G02*
X0135886Y0183563I0000000J-000984D01*
G01*
G37*
G36*
G01*
X0383130Y0010945D02*
X0383130Y0009763D01*
G75*
G02*
X0382539Y0009173I-000591J0000000D01*
G01*
X0376043Y0009173D01*
G75*
G02*
X0375453Y0009763I0000000J0000591D01*
G01*
X0375453Y0010945D01*
G75*
G02*
X0376043Y0011535I0000591J0000000D01*
G01*
X0382539Y0011535D01*
G75*
G02*
X0383130Y0010945I0000000J-000591D01*
G01*
G37*
G36*
G01*
X0383130Y0015945D02*
X0383130Y0014763D01*
G75*
G02*
X0382539Y0014173I-000591J0000000D01*
G01*
X0376043Y0014173D01*
G75*
G02*
X0375453Y0014763I0000000J0000591D01*
G01*
X0375453Y0015945D01*
G75*
G02*
X0376043Y0016535I0000591J0000000D01*
G01*
X0382539Y0016535D01*
G75*
G02*
X0383130Y0015945I0000000J-000591D01*
G01*
G37*
G36*
G01*
X0383130Y0020945D02*
X0383130Y0019763D01*
G75*
G02*
X0382539Y0019173I-000591J0000000D01*
G01*
X0376043Y0019173D01*
G75*
G02*
X0375453Y0019763I0000000J0000591D01*
G01*
X0375453Y0020945D01*
G75*
G02*
X0376043Y0021535I0000591J0000000D01*
G01*
X0382539Y0021535D01*
G75*
G02*
X0383130Y0020945I0000000J-000591D01*
G01*
G37*
G36*
G01*
X0383130Y0025945D02*
X0383130Y0024763D01*
G75*
G02*
X0382539Y0024173I-000591J0000000D01*
G01*
X0376043Y0024173D01*
G75*
G02*
X0375453Y0024763I0000000J0000591D01*
G01*
X0375453Y0025945D01*
G75*
G02*
X0376043Y0026535I0000591J0000000D01*
G01*
X0382539Y0026535D01*
G75*
G02*
X0383130Y0025945I0000000J-000591D01*
G01*
G37*
G36*
G01*
X0363642Y0025945D02*
X0363642Y0024763D01*
G75*
G02*
X0363051Y0024173I-000591J0000000D01*
G01*
X0356555Y0024173D01*
G75*
G02*
X0355965Y0024763I0000000J0000591D01*
G01*
X0355965Y0025945D01*
G75*
G02*
X0356555Y0026535I0000591J0000000D01*
G01*
X0363051Y0026535D01*
G75*
G02*
X0363642Y0025945I0000000J-000591D01*
G01*
G37*
G36*
G01*
X0363642Y0020945D02*
X0363642Y0019763D01*
G75*
G02*
X0363051Y0019173I-000591J0000000D01*
G01*
X0356555Y0019173D01*
G75*
G02*
X0355965Y0019763I0000000J0000591D01*
G01*
X0355965Y0020945D01*
G75*
G02*
X0356555Y0021535I0000591J0000000D01*
G01*
X0363051Y0021535D01*
G75*
G02*
X0363642Y0020945I0000000J-000591D01*
G01*
G37*
G36*
G01*
X0363642Y0015945D02*
X0363642Y0014763D01*
G75*
G02*
X0363051Y0014173I-000591J0000000D01*
G01*
X0356555Y0014173D01*
G75*
G02*
X0355965Y0014763I0000000J0000591D01*
G01*
X0355965Y0015945D01*
G75*
G02*
X0356555Y0016535I0000591J0000000D01*
G01*
X0363051Y0016535D01*
G75*
G02*
X0363642Y0015945I0000000J-000591D01*
G01*
G37*
G36*
G01*
X0363642Y0010945D02*
X0363642Y0009763D01*
G75*
G02*
X0363051Y0009173I-000591J0000000D01*
G01*
X0356555Y0009173D01*
G75*
G02*
X0355965Y0009763I0000000J0000591D01*
G01*
X0355965Y0010945D01*
G75*
G02*
X0356555Y0011535I0000591J0000000D01*
G01*
X0363051Y0011535D01*
G75*
G02*
X0363642Y0010945I0000000J-000591D01*
G01*
G37*
G36*
G01*
X0057087Y0055413D02*
X0057087Y0058090D01*
G75*
G02*
X0057421Y0058425I0000335J0000000D01*
G01*
X0060098Y0058425D01*
G75*
G02*
X0060433Y0058090I0000000J-000335D01*
G01*
X0060433Y0055413D01*
G75*
G02*
X0060098Y0055078I-000335J0000000D01*
G01*
X0057421Y0055078D01*
G75*
G02*
X0057087Y0055413I0000000J0000335D01*
G01*
G37*
G36*
G01*
X0063307Y0055413D02*
X0063307Y0058090D01*
G75*
G02*
X0063642Y0058425I0000335J0000000D01*
G01*
X0066319Y0058425D01*
G75*
G02*
X0066654Y0058090I0000000J-000335D01*
G01*
X0066654Y0055413D01*
G75*
G02*
X0066319Y0055078I-000335J0000000D01*
G01*
X0063642Y0055078D01*
G75*
G02*
X0063307Y0055413I0000000J0000335D01*
G01*
G37*
X0151280Y0105807D03*
G36*
G01*
X0393917Y0008307D02*
X0391240Y0008307D01*
G75*
G02*
X0390906Y0008641I0000000J0000335D01*
G01*
X0390906Y0011319D01*
G75*
G02*
X0391240Y0011653I0000335J0000000D01*
G01*
X0393917Y0011653D01*
G75*
G02*
X0394252Y0011319I0000000J-000335D01*
G01*
X0394252Y0008641D01*
G75*
G02*
X0393917Y0008307I-000335J0000000D01*
G01*
G37*
G36*
G01*
X0393917Y0014527D02*
X0391240Y0014527D01*
G75*
G02*
X0390906Y0014862I0000000J0000335D01*
G01*
X0390906Y0017539D01*
G75*
G02*
X0391240Y0017874I0000335J0000000D01*
G01*
X0393917Y0017874D01*
G75*
G02*
X0394252Y0017539I0000000J-000335D01*
G01*
X0394252Y0014862D01*
G75*
G02*
X0393917Y0014527I-000335J0000000D01*
G01*
G37*
X0242146Y0068484D03*
D21*
X0400925Y0116535D03*
X0405650Y0116535D03*
X0396201Y0116535D03*
X0391476Y0116535D03*
X0416909Y0059744D03*
X0420846Y0059744D03*
G36*
G01*
X0003681Y0123287D02*
X0003681Y0126358D01*
G75*
G02*
X0003957Y0126633I0000276J0000000D01*
G01*
X0006161Y0126633D01*
G75*
G02*
X0006437Y0126358I0000000J-000276D01*
G01*
X0006437Y0123287D01*
G75*
G02*
X0006161Y0123011I-000276J0000000D01*
G01*
X0003957Y0123011D01*
G75*
G02*
X0003681Y0123287I0000000J0000276D01*
G01*
G37*
G36*
G01*
X0009980Y0123287D02*
X0009980Y0126358D01*
G75*
G02*
X0010256Y0126633I0000276J0000000D01*
G01*
X0012461Y0126633D01*
G75*
G02*
X0012736Y0126358I0000000J-000276D01*
G01*
X0012736Y0123287D01*
G75*
G02*
X0012461Y0123011I-000276J0000000D01*
G01*
X0010256Y0123011D01*
G75*
G02*
X0009980Y0123287I0000000J0000276D01*
G01*
G37*
D11*
X0155335Y0113956D03*
D27*
X0196949Y0063307D03*
D28*
X0200098Y0070196D03*
X0203248Y0063307D03*
X0206398Y0070196D03*
X0209547Y0063307D03*
D29*
X0188878Y0066752D03*
X0217618Y0066752D03*
G36*
G01*
X0019114Y0124508D02*
X0019114Y0128523D01*
G75*
G02*
X0019469Y0128878I0000354J0000000D01*
G01*
X0022303Y0128878D01*
G75*
G02*
X0022657Y0128523I0000000J-000354D01*
G01*
X0022657Y0124508D01*
G75*
G02*
X0022303Y0124153I-000354J0000000D01*
G01*
X0019469Y0124153D01*
G75*
G02*
X0019114Y0124508I0000000J0000354D01*
G01*
G37*
G36*
G01*
X0032106Y0124508D02*
X0032106Y0128523D01*
G75*
G02*
X0032461Y0128878I0000354J0000000D01*
G01*
X0035295Y0128878D01*
G75*
G02*
X0035650Y0128523I0000000J-000354D01*
G01*
X0035650Y0124508D01*
G75*
G02*
X0035295Y0124153I-000354J0000000D01*
G01*
X0032461Y0124153D01*
G75*
G02*
X0032106Y0124508I0000000J0000354D01*
G01*
G37*
D21*
X0355177Y0261791D03*
X0355177Y0265531D03*
X0355177Y0269271D03*
X0389429Y0265334D03*
X0389429Y0261791D03*
G36*
G01*
X0039508Y0063071D02*
X0042185Y0063071D01*
G75*
G02*
X0042520Y0062736I0000000J-000335D01*
G01*
X0042520Y0060059D01*
G75*
G02*
X0042185Y0059724I-000335J0000000D01*
G01*
X0039508Y0059724D01*
G75*
G02*
X0039173Y0060059I0000000J0000335D01*
G01*
X0039173Y0062736D01*
G75*
G02*
X0039508Y0063071I0000335J0000000D01*
G01*
G37*
G36*
G01*
X0039508Y0056850D02*
X0042185Y0056850D01*
G75*
G02*
X0042520Y0056515I0000000J-000335D01*
G01*
X0042520Y0053838D01*
G75*
G02*
X0042185Y0053504I-000335J0000000D01*
G01*
X0039508Y0053504D01*
G75*
G02*
X0039173Y0053838I0000000J0000335D01*
G01*
X0039173Y0056515D01*
G75*
G02*
X0039508Y0056850I0000335J0000000D01*
G01*
G37*
D11*
X0163524Y0113956D03*
D68*
X0335335Y0282145D03*
X0406594Y0276240D03*
X0406594Y0026633D03*
X0335335Y0020728D03*
D32*
X0379823Y0238051D03*
X0379823Y0222303D03*
X0379823Y0206555D03*
X0379823Y0190807D03*
X0379823Y0175059D03*
X0379823Y0159311D03*
X0379823Y0143563D03*
X0379823Y0127815D03*
X0379823Y0112067D03*
X0379823Y0096319D03*
X0379823Y0080570D03*
X0379823Y0064822D03*
X0364075Y0230177D03*
X0364075Y0214429D03*
X0364075Y0198681D03*
X0364075Y0182933D03*
X0364075Y0167185D03*
X0364075Y0151437D03*
X0364075Y0135689D03*
X0364075Y0119941D03*
X0364075Y0104193D03*
X0364075Y0088445D03*
X0364075Y0072696D03*
X0348327Y0238051D03*
X0348327Y0222303D03*
X0348327Y0206555D03*
X0348327Y0190807D03*
X0348327Y0175059D03*
X0348327Y0159311D03*
X0348327Y0143563D03*
X0348327Y0127815D03*
X0348327Y0112067D03*
X0348327Y0096319D03*
X0348327Y0080570D03*
X0348327Y0064822D03*
D33*
X0173386Y0085630D03*
X0173386Y0060433D03*
X0173386Y0052952D03*
X0173386Y0036023D03*
D21*
X0175157Y0026574D03*
X0175157Y0022637D03*
D33*
X0173386Y0011417D03*
X0112362Y0087401D03*
X0112362Y0080118D03*
X0112362Y0060630D03*
X0112362Y0013189D03*
D11*
X0405650Y0213681D03*
G36*
G01*
X0034626Y0036319D02*
X0037697Y0036319D01*
G75*
G02*
X0037972Y0036043I0000000J-000276D01*
G01*
X0037972Y0033838D01*
G75*
G02*
X0037697Y0033563I-000276J0000000D01*
G01*
X0034626Y0033563D01*
G75*
G02*
X0034350Y0033838I0000000J0000276D01*
G01*
X0034350Y0036043D01*
G75*
G02*
X0034626Y0036319I0000276J0000000D01*
G01*
G37*
G36*
G01*
X0034626Y0030019D02*
X0037697Y0030019D01*
G75*
G02*
X0037972Y0029744I0000000J-000276D01*
G01*
X0037972Y0027539D01*
G75*
G02*
X0037697Y0027263I-000276J0000000D01*
G01*
X0034626Y0027263D01*
G75*
G02*
X0034350Y0027539I0000000J0000276D01*
G01*
X0034350Y0029744D01*
G75*
G02*
X0034626Y0030019I0000276J0000000D01*
G01*
G37*
G36*
G01*
X0388819Y0008307D02*
X0386142Y0008307D01*
G75*
G02*
X0385807Y0008641I0000000J0000335D01*
G01*
X0385807Y0011319D01*
G75*
G02*
X0386142Y0011653I0000335J0000000D01*
G01*
X0388819Y0011653D01*
G75*
G02*
X0389154Y0011319I0000000J-000335D01*
G01*
X0389154Y0008641D01*
G75*
G02*
X0388819Y0008307I-000335J0000000D01*
G01*
G37*
G36*
G01*
X0388819Y0014527D02*
X0386142Y0014527D01*
G75*
G02*
X0385807Y0014862I0000000J0000335D01*
G01*
X0385807Y0017539D01*
G75*
G02*
X0386142Y0017874I0000335J0000000D01*
G01*
X0388819Y0017874D01*
G75*
G02*
X0389154Y0017539I0000000J-000335D01*
G01*
X0389154Y0014862D01*
G75*
G02*
X0388819Y0014527I-000335J0000000D01*
G01*
G37*
G36*
G01*
X0012736Y0172421D02*
X0012736Y0169350D01*
G75*
G02*
X0012461Y0169074I-000276J0000000D01*
G01*
X0010256Y0169074D01*
G75*
G02*
X0009980Y0169350I0000000J0000276D01*
G01*
X0009980Y0172421D01*
G75*
G02*
X0010256Y0172696I0000276J0000000D01*
G01*
X0012461Y0172696D01*
G75*
G02*
X0012736Y0172421I0000000J-000276D01*
G01*
G37*
G36*
G01*
X0006437Y0172421D02*
X0006437Y0169350D01*
G75*
G02*
X0006161Y0169074I-000276J0000000D01*
G01*
X0003957Y0169074D01*
G75*
G02*
X0003681Y0169350I0000000J0000276D01*
G01*
X0003681Y0172421D01*
G75*
G02*
X0003957Y0172696I0000276J0000000D01*
G01*
X0006161Y0172696D01*
G75*
G02*
X0006437Y0172421I0000000J-000276D01*
G01*
G37*
X0334744Y0112106D03*
D13*
X0287028Y0264035D03*
G36*
G01*
X0346654Y0053617D02*
X0346654Y0055634D01*
G75*
G02*
X0347515Y0056496I0000861J0000000D01*
G01*
X0349237Y0056496D01*
G75*
G02*
X0350098Y0055634I0000000J-000861D01*
G01*
X0350098Y0053617D01*
G75*
G02*
X0349237Y0052756I-000861J0000000D01*
G01*
X0347515Y0052756D01*
G75*
G02*
X0346654Y0053617I0000000J0000861D01*
G01*
G37*
G36*
G01*
X0352854Y0053617D02*
X0352854Y0055634D01*
G75*
G02*
X0353716Y0056496I0000861J0000000D01*
G01*
X0355438Y0056496D01*
G75*
G02*
X0356299Y0055634I0000000J-000861D01*
G01*
X0356299Y0053617D01*
G75*
G02*
X0355438Y0052756I-000861J0000000D01*
G01*
X0353716Y0052756D01*
G75*
G02*
X0352854Y0053617I0000000J0000861D01*
G01*
G37*
G36*
G01*
X0012736Y0199114D02*
X0012736Y0196043D01*
G75*
G02*
X0012461Y0195767I-000276J0000000D01*
G01*
X0010256Y0195767D01*
G75*
G02*
X0009980Y0196043I0000000J0000276D01*
G01*
X0009980Y0199114D01*
G75*
G02*
X0010256Y0199389I0000276J0000000D01*
G01*
X0012461Y0199389D01*
G75*
G02*
X0012736Y0199114I0000000J-000276D01*
G01*
G37*
G36*
G01*
X0006437Y0199114D02*
X0006437Y0196043D01*
G75*
G02*
X0006161Y0195767I-000276J0000000D01*
G01*
X0003957Y0195767D01*
G75*
G02*
X0003681Y0196043I0000000J0000276D01*
G01*
X0003681Y0199114D01*
G75*
G02*
X0003957Y0199389I0000276J0000000D01*
G01*
X0006161Y0199389D01*
G75*
G02*
X0006437Y0199114I0000000J-000276D01*
G01*
G37*
D11*
X0156004Y0142382D03*
X0156004Y0152382D03*
X0156004Y0162382D03*
X0156004Y0172382D03*
X0156004Y0182382D03*
X0166004Y0142382D03*
X0166004Y0152382D03*
X0166004Y0162382D03*
X0166004Y0172382D03*
X0166004Y0182382D03*
X0176004Y0142382D03*
X0176004Y0152382D03*
X0176004Y0162382D03*
X0176004Y0172382D03*
X0176004Y0182382D03*
X0251988Y0068484D03*
G36*
G01*
X0003760Y0096240D02*
X0003760Y0099311D01*
G75*
G02*
X0004035Y0099586I0000276J0000000D01*
G01*
X0006240Y0099586D01*
G75*
G02*
X0006516Y0099311I0000000J-000276D01*
G01*
X0006516Y0096240D01*
G75*
G02*
X0006240Y0095964I-000276J0000000D01*
G01*
X0004035Y0095964D01*
G75*
G02*
X0003760Y0096240I0000000J0000276D01*
G01*
G37*
G36*
G01*
X0010059Y0096240D02*
X0010059Y0099311D01*
G75*
G02*
X0010335Y0099586I0000276J0000000D01*
G01*
X0012539Y0099586D01*
G75*
G02*
X0012815Y0099311I0000000J-000276D01*
G01*
X0012815Y0096240D01*
G75*
G02*
X0012539Y0095964I-000276J0000000D01*
G01*
X0010335Y0095964D01*
G75*
G02*
X0010059Y0096240I0000000J0000276D01*
G01*
G37*
G36*
G01*
X0019134Y0094547D02*
X0019134Y0098563D01*
G75*
G02*
X0019488Y0098917I0000354J0000000D01*
G01*
X0022323Y0098917D01*
G75*
G02*
X0022677Y0098563I0000000J-000354D01*
G01*
X0022677Y0094547D01*
G75*
G02*
X0022323Y0094193I-000354J0000000D01*
G01*
X0019488Y0094193D01*
G75*
G02*
X0019134Y0094547I0000000J0000354D01*
G01*
G37*
G36*
G01*
X0032126Y0094547D02*
X0032126Y0098563D01*
G75*
G02*
X0032480Y0098917I0000354J0000000D01*
G01*
X0035315Y0098917D01*
G75*
G02*
X0035669Y0098563I0000000J-000354D01*
G01*
X0035669Y0094547D01*
G75*
G02*
X0035315Y0094193I-000354J0000000D01*
G01*
X0032480Y0094193D01*
G75*
G02*
X0032126Y0094547I0000000J0000354D01*
G01*
G37*
D43*
X0045413Y0010295D03*
X0049350Y0010295D03*
X0053287Y0010295D03*
X0057224Y0010295D03*
X0061161Y0010295D03*
X0065098Y0010295D03*
X0065098Y0048090D03*
X0061161Y0048090D03*
X0057224Y0048090D03*
X0053287Y0048090D03*
X0049350Y0048090D03*
X0045413Y0048090D03*
D44*
X0055256Y0029193D03*
D43*
X0011083Y0048090D03*
X0015020Y0048090D03*
X0018957Y0048090D03*
X0022894Y0048090D03*
X0026831Y0048090D03*
X0030768Y0048090D03*
X0030768Y0085885D03*
X0026831Y0085885D03*
X0022894Y0085885D03*
X0018957Y0085885D03*
X0015020Y0085885D03*
X0011083Y0085885D03*
D44*
X0020925Y0066988D03*
G36*
G01*
X0003681Y0133011D02*
X0003681Y0136082D01*
G75*
G02*
X0003957Y0136358I0000276J0000000D01*
G01*
X0006161Y0136358D01*
G75*
G02*
X0006437Y0136082I0000000J-000276D01*
G01*
X0006437Y0133011D01*
G75*
G02*
X0006161Y0132736I-000276J0000000D01*
G01*
X0003957Y0132736D01*
G75*
G02*
X0003681Y0133011I0000000J0000276D01*
G01*
G37*
G36*
G01*
X0009980Y0133011D02*
X0009980Y0136082D01*
G75*
G02*
X0010256Y0136358I0000276J0000000D01*
G01*
X0012461Y0136358D01*
G75*
G02*
X0012736Y0136082I0000000J-000276D01*
G01*
X0012736Y0133011D01*
G75*
G02*
X0012461Y0132736I-000276J0000000D01*
G01*
X0010256Y0132736D01*
G75*
G02*
X0009980Y0133011I0000000J0000276D01*
G01*
G37*
G36*
G01*
X0346732Y0046200D02*
X0346732Y0048878D01*
G75*
G02*
X0347067Y0049212I0000335J0000000D01*
G01*
X0349744Y0049212D01*
G75*
G02*
X0350079Y0048878I0000000J-000335D01*
G01*
X0350079Y0046200D01*
G75*
G02*
X0349744Y0045866I-000335J0000000D01*
G01*
X0347067Y0045866D01*
G75*
G02*
X0346732Y0046200I0000000J0000335D01*
G01*
G37*
G36*
G01*
X0352953Y0046200D02*
X0352953Y0048878D01*
G75*
G02*
X0353287Y0049212I0000335J0000000D01*
G01*
X0355965Y0049212D01*
G75*
G02*
X0356299Y0048878I0000000J-000335D01*
G01*
X0356299Y0046200D01*
G75*
G02*
X0355965Y0045866I-000335J0000000D01*
G01*
X0353287Y0045866D01*
G75*
G02*
X0352953Y0046200I0000000J0000335D01*
G01*
G37*
D11*
X0313839Y0068445D03*
G36*
G01*
X0135807Y0201909D02*
X0135807Y0199153D01*
G75*
G02*
X0134823Y0198169I-000984J0000000D01*
G01*
X0128130Y0198169D01*
G75*
G02*
X0127146Y0199153I0000000J0000984D01*
G01*
X0127146Y0201909D01*
G75*
G02*
X0128130Y0202893I0000984J0000000D01*
G01*
X0134823Y0202893D01*
G75*
G02*
X0135807Y0201909I0000000J-000984D01*
G01*
G37*
G36*
G01*
X0119272Y0219941D02*
X0119272Y0199074D01*
G75*
G02*
X0118287Y0198090I-000984J0000000D01*
G01*
X0095059Y0198090D01*
G75*
G02*
X0094075Y0199074I0000000J0000984D01*
G01*
X0094075Y0219941D01*
G75*
G02*
X0095059Y0220925I0000984J0000000D01*
G01*
X0118287Y0220925D01*
G75*
G02*
X0119272Y0219941I0000000J-000984D01*
G01*
G37*
G36*
G01*
X0135807Y0219862D02*
X0135807Y0217106D01*
G75*
G02*
X0134823Y0216122I-000984J0000000D01*
G01*
X0128130Y0216122D01*
G75*
G02*
X0127146Y0217106I0000000J0000984D01*
G01*
X0127146Y0219862D01*
G75*
G02*
X0128130Y0220846I0000984J0000000D01*
G01*
X0134823Y0220846D01*
G75*
G02*
X0135807Y0219862I0000000J-000984D01*
G01*
G37*
G36*
G01*
X0003957Y0191023D02*
X0003957Y0192204D01*
G75*
G02*
X0004547Y0192795I0000591J0000000D01*
G01*
X0011043Y0192795D01*
G75*
G02*
X0011634Y0192204I0000000J-000591D01*
G01*
X0011634Y0191023D01*
G75*
G02*
X0011043Y0190433I-000591J0000000D01*
G01*
X0004547Y0190433D01*
G75*
G02*
X0003957Y0191023I0000000J0000591D01*
G01*
G37*
G36*
G01*
X0003957Y0186023D02*
X0003957Y0187204D01*
G75*
G02*
X0004547Y0187795I0000591J0000000D01*
G01*
X0011043Y0187795D01*
G75*
G02*
X0011634Y0187204I0000000J-000591D01*
G01*
X0011634Y0186023D01*
G75*
G02*
X0011043Y0185433I-000591J0000000D01*
G01*
X0004547Y0185433D01*
G75*
G02*
X0003957Y0186023I0000000J0000591D01*
G01*
G37*
G36*
G01*
X0003957Y0181023D02*
X0003957Y0182204D01*
G75*
G02*
X0004547Y0182795I0000591J0000000D01*
G01*
X0011043Y0182795D01*
G75*
G02*
X0011634Y0182204I0000000J-000591D01*
G01*
X0011634Y0181023D01*
G75*
G02*
X0011043Y0180433I-000591J0000000D01*
G01*
X0004547Y0180433D01*
G75*
G02*
X0003957Y0181023I0000000J0000591D01*
G01*
G37*
G36*
G01*
X0003957Y0176023D02*
X0003957Y0177204D01*
G75*
G02*
X0004547Y0177795I0000591J0000000D01*
G01*
X0011043Y0177795D01*
G75*
G02*
X0011634Y0177204I0000000J-000591D01*
G01*
X0011634Y0176023D01*
G75*
G02*
X0011043Y0175433I-000591J0000000D01*
G01*
X0004547Y0175433D01*
G75*
G02*
X0003957Y0176023I0000000J0000591D01*
G01*
G37*
G36*
G01*
X0023445Y0176023D02*
X0023445Y0177204D01*
G75*
G02*
X0024035Y0177795I0000591J0000000D01*
G01*
X0030531Y0177795D01*
G75*
G02*
X0031122Y0177204I0000000J-000591D01*
G01*
X0031122Y0176023D01*
G75*
G02*
X0030531Y0175433I-000591J0000000D01*
G01*
X0024035Y0175433D01*
G75*
G02*
X0023445Y0176023I0000000J0000591D01*
G01*
G37*
G36*
G01*
X0023445Y0181023D02*
X0023445Y0182204D01*
G75*
G02*
X0024035Y0182795I0000591J0000000D01*
G01*
X0030531Y0182795D01*
G75*
G02*
X0031122Y0182204I0000000J-000591D01*
G01*
X0031122Y0181023D01*
G75*
G02*
X0030531Y0180433I-000591J0000000D01*
G01*
X0024035Y0180433D01*
G75*
G02*
X0023445Y0181023I0000000J0000591D01*
G01*
G37*
G36*
G01*
X0023445Y0186023D02*
X0023445Y0187204D01*
G75*
G02*
X0024035Y0187795I0000591J0000000D01*
G01*
X0030531Y0187795D01*
G75*
G02*
X0031122Y0187204I0000000J-000591D01*
G01*
X0031122Y0186023D01*
G75*
G02*
X0030531Y0185433I-000591J0000000D01*
G01*
X0024035Y0185433D01*
G75*
G02*
X0023445Y0186023I0000000J0000591D01*
G01*
G37*
G36*
G01*
X0023445Y0191023D02*
X0023445Y0192204D01*
G75*
G02*
X0024035Y0192795I0000591J0000000D01*
G01*
X0030531Y0192795D01*
G75*
G02*
X0031122Y0192204I0000000J-000591D01*
G01*
X0031122Y0191023D01*
G75*
G02*
X0030531Y0190433I-000591J0000000D01*
G01*
X0024035Y0190433D01*
G75*
G02*
X0023445Y0191023I0000000J0000591D01*
G01*
G37*
G36*
G01*
X0382047Y0055556D02*
X0382047Y0053538D01*
G75*
G02*
X0381186Y0052677I-000861J0000000D01*
G01*
X0379464Y0052677D01*
G75*
G02*
X0378602Y0053538I0000000J0000861D01*
G01*
X0378602Y0055556D01*
G75*
G02*
X0379464Y0056417I0000861J0000000D01*
G01*
X0381186Y0056417D01*
G75*
G02*
X0382047Y0055556I0000000J-000861D01*
G01*
G37*
G36*
G01*
X0375846Y0055556D02*
X0375846Y0053538D01*
G75*
G02*
X0374985Y0052677I-000861J0000000D01*
G01*
X0373263Y0052677D01*
G75*
G02*
X0372402Y0053538I0000000J0000861D01*
G01*
X0372402Y0055556D01*
G75*
G02*
X0373263Y0056417I0000861J0000000D01*
G01*
X0374985Y0056417D01*
G75*
G02*
X0375846Y0055556I0000000J-000861D01*
G01*
G37*
G36*
G01*
X0135925Y0138051D02*
X0135925Y0135295D01*
G75*
G02*
X0134941Y0134311I-000984J0000000D01*
G01*
X0128248Y0134311D01*
G75*
G02*
X0127264Y0135295I0000000J0000984D01*
G01*
X0127264Y0138051D01*
G75*
G02*
X0128248Y0139035I0000984J0000000D01*
G01*
X0134941Y0139035D01*
G75*
G02*
X0135925Y0138051I0000000J-000984D01*
G01*
G37*
G36*
G01*
X0119390Y0156082D02*
X0119390Y0135216D01*
G75*
G02*
X0118406Y0134232I-000984J0000000D01*
G01*
X0095177Y0134232D01*
G75*
G02*
X0094193Y0135216I0000000J0000984D01*
G01*
X0094193Y0156082D01*
G75*
G02*
X0095177Y0157067I0000984J0000000D01*
G01*
X0118406Y0157067D01*
G75*
G02*
X0119390Y0156082I0000000J-000984D01*
G01*
G37*
G36*
G01*
X0135925Y0156004D02*
X0135925Y0153248D01*
G75*
G02*
X0134941Y0152263I-000984J0000000D01*
G01*
X0128248Y0152263D01*
G75*
G02*
X0127264Y0153248I0000000J0000984D01*
G01*
X0127264Y0156004D01*
G75*
G02*
X0128248Y0156988I0000984J0000000D01*
G01*
X0134941Y0156988D01*
G75*
G02*
X0135925Y0156004I0000000J-000984D01*
G01*
G37*
D57*
X0292028Y0053484D03*
X0286122Y0053484D03*
X0280217Y0053484D03*
X0274311Y0053484D03*
X0268406Y0053484D03*
X0262500Y0053484D03*
X0256594Y0053484D03*
X0250689Y0053484D03*
X0244783Y0053484D03*
X0238878Y0053484D03*
X0232972Y0053484D03*
X0227067Y0053484D03*
X0221161Y0053484D03*
X0221161Y0003484D03*
X0227067Y0003484D03*
X0232972Y0003484D03*
X0238878Y0003484D03*
X0244783Y0003484D03*
X0250689Y0003484D03*
X0256594Y0003484D03*
X0262500Y0003484D03*
X0268406Y0003484D03*
X0274311Y0003484D03*
X0280217Y0003484D03*
X0286122Y0003484D03*
X0292028Y0003484D03*
G36*
G01*
X0253952Y0241633D02*
X0251954Y0241633D01*
G75*
G02*
X0251791Y0241796I0000000J0000163D01*
G01*
X0251791Y0249424D01*
G75*
G02*
X0251954Y0249586I0000163J0000000D01*
G01*
X0253952Y0249586D01*
G75*
G02*
X0254114Y0249424I0000000J-000163D01*
G01*
X0254114Y0241796D01*
G75*
G02*
X0253952Y0241633I-000163J0000000D01*
G01*
G37*
G36*
G01*
X0258952Y0241633D02*
X0256954Y0241633D01*
G75*
G02*
X0256791Y0241796I0000000J0000163D01*
G01*
X0256791Y0249424D01*
G75*
G02*
X0256954Y0249586I0000163J0000000D01*
G01*
X0258952Y0249586D01*
G75*
G02*
X0259114Y0249424I0000000J-000163D01*
G01*
X0259114Y0241796D01*
G75*
G02*
X0258952Y0241633I-000163J0000000D01*
G01*
G37*
G36*
G01*
X0263952Y0241633D02*
X0261954Y0241633D01*
G75*
G02*
X0261791Y0241796I0000000J0000163D01*
G01*
X0261791Y0249424D01*
G75*
G02*
X0261954Y0249586I0000163J0000000D01*
G01*
X0263952Y0249586D01*
G75*
G02*
X0264114Y0249424I0000000J-000163D01*
G01*
X0264114Y0241796D01*
G75*
G02*
X0263952Y0241633I-000163J0000000D01*
G01*
G37*
G36*
G01*
X0268952Y0241633D02*
X0266954Y0241633D01*
G75*
G02*
X0266791Y0241796I0000000J0000163D01*
G01*
X0266791Y0249424D01*
G75*
G02*
X0266954Y0249586I0000163J0000000D01*
G01*
X0268952Y0249586D01*
G75*
G02*
X0269114Y0249424I0000000J-000163D01*
G01*
X0269114Y0241796D01*
G75*
G02*
X0268952Y0241633I-000163J0000000D01*
G01*
G37*
G36*
G01*
X0268952Y0278484D02*
X0266954Y0278484D01*
G75*
G02*
X0266791Y0278646I0000000J0000163D01*
G01*
X0266791Y0286274D01*
G75*
G02*
X0266954Y0286437I0000163J0000000D01*
G01*
X0268952Y0286437D01*
G75*
G02*
X0269114Y0286274I0000000J-000163D01*
G01*
X0269114Y0278646D01*
G75*
G02*
X0268952Y0278484I-000163J0000000D01*
G01*
G37*
G36*
G01*
X0263952Y0278484D02*
X0261954Y0278484D01*
G75*
G02*
X0261791Y0278646I0000000J0000163D01*
G01*
X0261791Y0286274D01*
G75*
G02*
X0261954Y0286437I0000163J0000000D01*
G01*
X0263952Y0286437D01*
G75*
G02*
X0264114Y0286274I0000000J-000163D01*
G01*
X0264114Y0278646D01*
G75*
G02*
X0263952Y0278484I-000163J0000000D01*
G01*
G37*
G36*
G01*
X0258952Y0278484D02*
X0256954Y0278484D01*
G75*
G02*
X0256791Y0278646I0000000J0000163D01*
G01*
X0256791Y0286274D01*
G75*
G02*
X0256954Y0286437I0000163J0000000D01*
G01*
X0258952Y0286437D01*
G75*
G02*
X0259114Y0286274I0000000J-000163D01*
G01*
X0259114Y0278646D01*
G75*
G02*
X0258952Y0278484I-000163J0000000D01*
G01*
G37*
G36*
G01*
X0253952Y0278484D02*
X0251954Y0278484D01*
G75*
G02*
X0251791Y0278646I0000000J0000163D01*
G01*
X0251791Y0286274D01*
G75*
G02*
X0251954Y0286437I0000163J0000000D01*
G01*
X0253952Y0286437D01*
G75*
G02*
X0254114Y0286274I0000000J-000163D01*
G01*
X0254114Y0278646D01*
G75*
G02*
X0253952Y0278484I-000163J0000000D01*
G01*
G37*
D58*
X0236909Y0297185D03*
D59*
X0246909Y0297185D03*
X0256909Y0297185D03*
X0266909Y0297185D03*
X0276909Y0297185D03*
D21*
X0400817Y0203051D03*
X0405541Y0203051D03*
X0396093Y0203051D03*
X0391368Y0203051D03*
X0416801Y0146259D03*
X0420738Y0146259D03*
G36*
G01*
X0077087Y0056948D02*
X0077087Y0054271D01*
G75*
G02*
X0076752Y0053937I-000335J0000000D01*
G01*
X0074075Y0053937D01*
G75*
G02*
X0073740Y0054271I0000000J0000335D01*
G01*
X0073740Y0056948D01*
G75*
G02*
X0074075Y0057283I0000335J0000000D01*
G01*
X0076752Y0057283D01*
G75*
G02*
X0077087Y0056948I0000000J-000335D01*
G01*
G37*
G36*
G01*
X0070866Y0056948D02*
X0070866Y0054271D01*
G75*
G02*
X0070531Y0053937I-000335J0000000D01*
G01*
X0067854Y0053937D01*
G75*
G02*
X0067520Y0054271I0000000J0000335D01*
G01*
X0067520Y0056948D01*
G75*
G02*
X0067854Y0057283I0000335J0000000D01*
G01*
X0070531Y0057283D01*
G75*
G02*
X0070866Y0056948I0000000J-000335D01*
G01*
G37*
G36*
G01*
X0199409Y0021673D02*
X0194488Y0021673D01*
G75*
G02*
X0193504Y0022657I0000000J0000984D01*
G01*
X0193504Y0025413D01*
G75*
G02*
X0194488Y0026397I0000984J0000000D01*
G01*
X0199409Y0026397D01*
G75*
G02*
X0200394Y0025413I0000000J-000984D01*
G01*
X0200394Y0022657D01*
G75*
G02*
X0199409Y0021673I-000984J0000000D01*
G01*
G37*
D60*
X0196949Y0031909D03*
X0196949Y0039783D03*
X0196949Y0047657D03*
G36*
G01*
X0004154Y0052775D02*
X0007224Y0052775D01*
G75*
G02*
X0007500Y0052500I0000000J-000276D01*
G01*
X0007500Y0050295D01*
G75*
G02*
X0007224Y0050019I-000276J0000000D01*
G01*
X0004154Y0050019D01*
G75*
G02*
X0003878Y0050295I0000000J0000276D01*
G01*
X0003878Y0052500D01*
G75*
G02*
X0004154Y0052775I0000276J0000000D01*
G01*
G37*
G36*
G01*
X0004154Y0046476D02*
X0007224Y0046476D01*
G75*
G02*
X0007500Y0046200I0000000J-000276D01*
G01*
X0007500Y0043996D01*
G75*
G02*
X0007224Y0043720I-000276J0000000D01*
G01*
X0004154Y0043720D01*
G75*
G02*
X0003878Y0043996I0000000J0000276D01*
G01*
X0003878Y0046200D01*
G75*
G02*
X0004154Y0046476I0000276J0000000D01*
G01*
G37*
D11*
X0159390Y0105728D03*
G36*
G01*
X0059281Y0293823D02*
X0062037Y0293823D01*
G75*
G02*
X0063022Y0292839I0000000J-000984D01*
G01*
X0063022Y0286146D01*
G75*
G02*
X0062037Y0285162I-000984J0000000D01*
G01*
X0059281Y0285162D01*
G75*
G02*
X0058297Y0286146I0000000J0000984D01*
G01*
X0058297Y0292839D01*
G75*
G02*
X0059281Y0293823I0000984J0000000D01*
G01*
G37*
G36*
G01*
X0041250Y0277288D02*
X0062116Y0277288D01*
G75*
G02*
X0063100Y0276304I0000000J-000984D01*
G01*
X0063100Y0253075D01*
G75*
G02*
X0062116Y0252091I-000984J0000000D01*
G01*
X0041250Y0252091D01*
G75*
G02*
X0040266Y0253075I0000000J0000984D01*
G01*
X0040266Y0276304D01*
G75*
G02*
X0041250Y0277288I0000984J0000000D01*
G01*
G37*
G36*
G01*
X0041329Y0293823D02*
X0044085Y0293823D01*
G75*
G02*
X0045069Y0292839I0000000J-000984D01*
G01*
X0045069Y0286146D01*
G75*
G02*
X0044085Y0285162I-000984J0000000D01*
G01*
X0041329Y0285162D01*
G75*
G02*
X0040344Y0286146I0000000J0000984D01*
G01*
X0040344Y0292839D01*
G75*
G02*
X0041329Y0293823I0000984J0000000D01*
G01*
G37*
D68*
X0093130Y0020728D03*
X0021870Y0026633D03*
X0021870Y0276240D03*
X0093130Y0282145D03*
D32*
X0048642Y0064822D03*
X0048642Y0080570D03*
X0048642Y0096319D03*
X0048642Y0112067D03*
X0048642Y0127815D03*
X0048642Y0143563D03*
X0048642Y0159311D03*
X0048642Y0175059D03*
X0048642Y0190807D03*
X0048642Y0206555D03*
X0048642Y0222303D03*
X0048642Y0238051D03*
X0064390Y0072696D03*
X0064390Y0088445D03*
X0064390Y0104193D03*
X0064390Y0119941D03*
X0064390Y0135689D03*
X0064390Y0151437D03*
X0064390Y0167185D03*
X0064390Y0182933D03*
X0064390Y0198681D03*
X0064390Y0214429D03*
X0064390Y0230177D03*
X0080138Y0064822D03*
X0080138Y0080570D03*
X0080138Y0096319D03*
X0080138Y0112067D03*
X0080138Y0127815D03*
X0080138Y0143563D03*
X0080138Y0159311D03*
X0080138Y0175059D03*
X0080138Y0190807D03*
X0080138Y0206555D03*
X0080138Y0222303D03*
X0080138Y0238051D03*
D11*
X0334744Y0101161D03*
X0156004Y0192382D03*
X0156004Y0202382D03*
X0156004Y0212382D03*
X0156004Y0222382D03*
X0156004Y0232382D03*
X0166004Y0192382D03*
X0166004Y0202382D03*
X0166004Y0212382D03*
X0166004Y0222382D03*
X0166004Y0232382D03*
X0176004Y0192382D03*
X0176004Y0202382D03*
X0176004Y0212382D03*
X0176004Y0222382D03*
X0176004Y0232382D03*
D33*
X0234075Y0028169D03*
X0263602Y0028169D03*
D61*
X0102185Y0038011D03*
X0082894Y0038011D03*
X0102224Y0046397D03*
X0082933Y0046397D03*
D21*
X0363406Y0279891D03*
X0366850Y0281958D03*
X0362224Y0284911D03*
X0362520Y0298887D03*
D61*
X0099154Y0064665D03*
X0099154Y0083956D03*
X0184272Y0009685D03*
X0184272Y0024685D03*
X0082933Y0054783D03*
X0102224Y0054783D03*
X0109409Y0008425D02*
G01*
G75*
D108*
X0154488Y0032792D02*
D03*
X0154488Y0015075D02*
D03*
D109*
X0151161Y0057244D02*
D03*
X0123799Y0057244D02*
D03*
D110*
X0139921Y0034016D02*
D03*
X0123779Y0034016D02*
D03*
D111*
X0141692Y0015905D02*
D03*
X0125944Y0015905D02*
D03*
D112*
X0118753Y0077683D02*
D03*
X0128005Y0073943D02*
D03*
D112*
X0128005Y0081423D02*
D03*
D113*
X0150840Y0087362D02*
D03*
D113*
X0150840Y0083622D02*
D03*
X0150840Y0079882D02*
D03*
X0159304Y0079882D02*
D03*
X0159304Y0087362D02*
D03*
D114*
X0163156Y0073361D02*
D03*
X0150164Y0073361D02*
D03*
D115*
X0144870Y0073649D02*
D03*
X0133452Y0073649D02*
D03*
D116*
X0164055Y0041102D02*
D03*
X0157834Y0041102D02*
D03*
X0153464Y0041102D02*
D03*
X0147244Y0041102D02*
D03*
D117*
X0113378Y0018213D02*
D03*
X0113378Y0022347D02*
D03*
X0163933Y0060087D02*
D03*
X0163933Y0064221D02*
D03*
X0163933Y0055374D02*
D03*
X0163933Y0051240D02*
D03*
X0164825Y0035725D02*
D03*
X0164825Y0031591D02*
D03*
D118*
X0145722Y0079932D02*
D03*
X0145722Y0083869D02*
D03*
X0132047Y0080834D02*
D03*
X0140708Y0080834D02*
D03*
X0132047Y0087231D02*
D03*
X0140708Y0087231D02*
D03*
D119*
X0123674Y0087362D02*
D03*
X0127218Y0087362D02*
D03*
D120*
X0159675Y0064024D02*
D03*
X0159675Y0060480D02*
D03*
X0159675Y0054980D02*
D03*
X0159675Y0051437D02*
D03*
X0164825Y0023424D02*
D03*
X0164825Y0026968D02*
D03*
D121*
X0175157Y0026535D02*
D03*
X0175157Y0022598D02*
D03*
D122*
X0112362Y0080078D02*
D03*
X0112362Y0013149D02*
D03*
X0112362Y0060590D02*
D03*
X0173385Y0060393D02*
D03*
X0173385Y0085590D02*
D03*
X0173385Y0035984D02*
D03*
X0173385Y0052913D02*
D03*
X0173385Y0011378D02*
D03*
X0112362Y0087362D02*
D03*
X0390610Y0271988D02*
G01*
G75*
D265*
X0375905Y0261764D02*
D03*
X0375905Y0269244D02*
D03*
X0384370Y0269244D02*
D03*
X0384370Y0265504D02*
D03*
X0360256Y0261764D02*
D03*
X0360256Y0269244D02*
D03*
X0368720Y0269244D02*
D03*
X0368720Y0265504D02*
D03*
D265*
X0384370Y0261764D02*
D03*
X0368720Y0261764D02*
D03*
D121*
X0355177Y0261752D02*
D03*
X0355177Y0265492D02*
D03*
X0355177Y0269232D02*
D03*
X0389429Y0265295D02*
D03*
X0389429Y0261752D02*
D03*
X0428091Y0058228D02*
%LPD*%
G01*
D21*
X0400926Y0116496D03*
X0405650Y0116496D03*
X0396201Y0116496D03*
X0391477Y0116496D03*
X0416910Y0059704D03*
X0420847Y0059704D03*
G36*
G01*
X0410473Y0075669D02*
X0409016Y0075669D01*
G75*
G02*
X0408485Y0076200I0000000J0000531D01*
G01*
X0408485Y0077263D01*
G75*
G02*
X0409016Y0077795I0000531J0000000D01*
G01*
X0410473Y0077795D01*
G75*
G02*
X0411004Y0077263I0000000J-000531D01*
G01*
X0411004Y0076200D01*
G75*
G02*
X0410473Y0075669I-000531J0000000D01*
G01*
G37*
G36*
G01*
X0410473Y0071653D02*
X0409016Y0071653D01*
G75*
G02*
X0408485Y0072185I0000000J0000531D01*
G01*
X0408485Y0073248D01*
G75*
G02*
X0409016Y0073779I0000531J0000000D01*
G01*
X0410473Y0073779D01*
G75*
G02*
X0411004Y0073248I0000000J-000531D01*
G01*
X0411004Y0072185D01*
G75*
G02*
X0410473Y0071653I-000531J0000000D01*
G01*
G37*
G36*
G01*
X0426162Y0098917D02*
X0426162Y0097460D01*
G75*
G02*
X0425630Y0096929I-000531J0000000D01*
G01*
X0424567Y0096929D01*
G75*
G02*
X0424036Y0097460I0000000J0000531D01*
G01*
X0424036Y0098917D01*
G75*
G02*
X0424567Y0099448I0000531J0000000D01*
G01*
X0425630Y0099448D01*
G75*
G02*
X0426162Y0098917I0000000J-000531D01*
G01*
G37*
G36*
G01*
X0422146Y0098917D02*
X0422146Y0097460D01*
G75*
G02*
X0421615Y0096929I-000531J0000000D01*
G01*
X0420552Y0096929D01*
G75*
G02*
X0420020Y0097460I0000000J0000531D01*
G01*
X0420020Y0098917D01*
G75*
G02*
X0420552Y0099448I0000531J0000000D01*
G01*
X0421615Y0099448D01*
G75*
G02*
X0422146Y0098917I0000000J-000531D01*
G01*
G37*
G36*
G01*
X0393819Y0087945D02*
X0392638Y0087945D01*
G75*
G02*
X0392048Y0088535I0000000J0000591D01*
G01*
X0392048Y0095031D01*
G75*
G02*
X0392638Y0095622I0000591J0000000D01*
G01*
X0393819Y0095622D01*
G75*
G02*
X0394410Y0095031I0000000J-000591D01*
G01*
X0394410Y0088535D01*
G75*
G02*
X0393819Y0087945I-000591J0000000D01*
G01*
G37*
G36*
G01*
X0398819Y0087945D02*
X0397638Y0087945D01*
G75*
G02*
X0397048Y0088535I0000000J0000591D01*
G01*
X0397048Y0095031D01*
G75*
G02*
X0397638Y0095622I0000591J0000000D01*
G01*
X0398819Y0095622D01*
G75*
G02*
X0399410Y0095031I0000000J-000591D01*
G01*
X0399410Y0088535D01*
G75*
G02*
X0398819Y0087945I-000591J0000000D01*
G01*
G37*
G36*
G01*
X0403819Y0087945D02*
X0402638Y0087945D01*
G75*
G02*
X0402048Y0088535I0000000J0000591D01*
G01*
X0402048Y0095031D01*
G75*
G02*
X0402638Y0095622I0000591J0000000D01*
G01*
X0403819Y0095622D01*
G75*
G02*
X0404410Y0095031I0000000J-000591D01*
G01*
X0404410Y0088535D01*
G75*
G02*
X0403819Y0087945I-000591J0000000D01*
G01*
G37*
G36*
G01*
X0408819Y0087945D02*
X0407638Y0087945D01*
G75*
G02*
X0407048Y0088535I0000000J0000591D01*
G01*
X0407048Y0095031D01*
G75*
G02*
X0407638Y0095622I0000591J0000000D01*
G01*
X0408819Y0095622D01*
G75*
G02*
X0409410Y0095031I0000000J-000591D01*
G01*
X0409410Y0088535D01*
G75*
G02*
X0408819Y0087945I-000591J0000000D01*
G01*
G37*
G36*
G01*
X0408819Y0107433D02*
X0407638Y0107433D01*
G75*
G02*
X0407048Y0108023I0000000J0000591D01*
G01*
X0407048Y0114519D01*
G75*
G02*
X0407638Y0115110I0000591J0000000D01*
G01*
X0408819Y0115110D01*
G75*
G02*
X0409410Y0114519I0000000J-000591D01*
G01*
X0409410Y0108023D01*
G75*
G02*
X0408819Y0107433I-000591J0000000D01*
G01*
G37*
G36*
G01*
X0403819Y0107433D02*
X0402638Y0107433D01*
G75*
G02*
X0402048Y0108023I0000000J0000591D01*
G01*
X0402048Y0114519D01*
G75*
G02*
X0402638Y0115110I0000591J0000000D01*
G01*
X0403819Y0115110D01*
G75*
G02*
X0404410Y0114519I0000000J-000591D01*
G01*
X0404410Y0108023D01*
G75*
G02*
X0403819Y0107433I-000591J0000000D01*
G01*
G37*
G36*
G01*
X0398819Y0107433D02*
X0397638Y0107433D01*
G75*
G02*
X0397048Y0108023I0000000J0000591D01*
G01*
X0397048Y0114519D01*
G75*
G02*
X0397638Y0115110I0000591J0000000D01*
G01*
X0398819Y0115110D01*
G75*
G02*
X0399410Y0114519I0000000J-000591D01*
G01*
X0399410Y0108023D01*
G75*
G02*
X0398819Y0107433I-000591J0000000D01*
G01*
G37*
G36*
G01*
X0393819Y0107433D02*
X0392638Y0107433D01*
G75*
G02*
X0392048Y0108023I0000000J0000591D01*
G01*
X0392048Y0114519D01*
G75*
G02*
X0392638Y0115110I0000591J0000000D01*
G01*
X0393819Y0115110D01*
G75*
G02*
X0394410Y0114519I0000000J-000591D01*
G01*
X0394410Y0108023D01*
G75*
G02*
X0393819Y0107433I-000591J0000000D01*
G01*
G37*
D143*
X0393091Y0073425D03*
X0395650Y0073425D03*
X0398209Y0073425D03*
X0398209Y0080905D03*
X0395650Y0080905D03*
X0393091Y0080905D03*
G36*
G01*
X0412179Y0089586D02*
X0412179Y0091043D01*
G75*
G02*
X0412711Y0091574I0000531J0000000D01*
G01*
X0413774Y0091574D01*
G75*
G02*
X0414305Y0091043I0000000J-000531D01*
G01*
X0414305Y0089586D01*
G75*
G02*
X0413774Y0089055I-000531J0000000D01*
G01*
X0412711Y0089055D01*
G75*
G02*
X0412179Y0089586I0000000J0000531D01*
G01*
G37*
G36*
G01*
X0416195Y0089586D02*
X0416195Y0091043D01*
G75*
G02*
X0416726Y0091574I0000531J0000000D01*
G01*
X0417789Y0091574D01*
G75*
G02*
X0418321Y0091043I0000000J-000531D01*
G01*
X0418321Y0089586D01*
G75*
G02*
X0417789Y0089055I-000531J0000000D01*
G01*
X0416726Y0089055D01*
G75*
G02*
X0416195Y0089586I0000000J0000531D01*
G01*
G37*
G36*
G01*
X0418242Y0094921D02*
X0418242Y0093582D01*
G75*
G02*
X0417691Y0093031I-000551J0000000D01*
G01*
X0416589Y0093031D01*
G75*
G02*
X0416037Y0093582I0000000J0000551D01*
G01*
X0416037Y0094921D01*
G75*
G02*
X0416589Y0095472I0000551J0000000D01*
G01*
X0417691Y0095472D01*
G75*
G02*
X0418242Y0094921I0000000J-000551D01*
G01*
G37*
G36*
G01*
X0414463Y0094921D02*
X0414463Y0093582D01*
G75*
G02*
X0413911Y0093031I-000551J0000000D01*
G01*
X0412809Y0093031D01*
G75*
G02*
X0412258Y0093582I0000000J0000551D01*
G01*
X0412258Y0094921D01*
G75*
G02*
X0412809Y0095472I0000551J0000000D01*
G01*
X0413911Y0095472D01*
G75*
G02*
X0414463Y0094921I0000000J-000551D01*
G01*
G37*
G36*
G01*
X0426162Y0091043D02*
X0426162Y0089586D01*
G75*
G02*
X0425630Y0089055I-000531J0000000D01*
G01*
X0424567Y0089055D01*
G75*
G02*
X0424036Y0089586I0000000J0000531D01*
G01*
X0424036Y0091043D01*
G75*
G02*
X0424567Y0091574I0000531J0000000D01*
G01*
X0425630Y0091574D01*
G75*
G02*
X0426162Y0091043I0000000J-000531D01*
G01*
G37*
G36*
G01*
X0422146Y0091043D02*
X0422146Y0089586D01*
G75*
G02*
X0421615Y0089055I-000531J0000000D01*
G01*
X0420552Y0089055D01*
G75*
G02*
X0420020Y0089586I0000000J0000531D01*
G01*
X0420020Y0091043D01*
G75*
G02*
X0420552Y0091574I0000531J0000000D01*
G01*
X0421615Y0091574D01*
G75*
G02*
X0422146Y0091043I0000000J-000531D01*
G01*
G37*
G36*
G01*
X0420099Y0102637D02*
X0420099Y0103976D01*
G75*
G02*
X0420650Y0104527I0000551J0000000D01*
G01*
X0421752Y0104527D01*
G75*
G02*
X0422304Y0103976I0000000J-000551D01*
G01*
X0422304Y0102637D01*
G75*
G02*
X0421752Y0102086I-000551J0000000D01*
G01*
X0420650Y0102086D01*
G75*
G02*
X0420099Y0102637I0000000J0000551D01*
G01*
G37*
G36*
G01*
X0423878Y0102637D02*
X0423878Y0103976D01*
G75*
G02*
X0424430Y0104527I0000551J0000000D01*
G01*
X0425532Y0104527D01*
G75*
G02*
X0426083Y0103976I0000000J-000551D01*
G01*
X0426083Y0102637D01*
G75*
G02*
X0425532Y0102086I-000551J0000000D01*
G01*
X0424430Y0102086D01*
G75*
G02*
X0423878Y0102637I0000000J0000551D01*
G01*
G37*
G36*
G01*
X0416241Y0079508D02*
X0416241Y0080846D01*
G75*
G02*
X0416792Y0081397I0000551J0000000D01*
G01*
X0417894Y0081397D01*
G75*
G02*
X0418445Y0080846I0000000J-000551D01*
G01*
X0418445Y0079508D01*
G75*
G02*
X0417894Y0078956I-000551J0000000D01*
G01*
X0416792Y0078956D01*
G75*
G02*
X0416241Y0079508I0000000J0000551D01*
G01*
G37*
G36*
G01*
X0420020Y0079508D02*
X0420020Y0080846D01*
G75*
G02*
X0420571Y0081397I0000551J0000000D01*
G01*
X0421674Y0081397D01*
G75*
G02*
X0422225Y0080846I0000000J-000551D01*
G01*
X0422225Y0079508D01*
G75*
G02*
X0421674Y0078956I-000551J0000000D01*
G01*
X0420571Y0078956D01*
G75*
G02*
X0420020Y0079508I0000000J0000551D01*
G01*
G37*
G36*
G01*
X0412993Y0085275D02*
X0414449Y0085275D01*
G75*
G02*
X0414981Y0084744I0000000J-000531D01*
G01*
X0414981Y0083681D01*
G75*
G02*
X0414449Y0083149I-000531J0000000D01*
G01*
X0412993Y0083149D01*
G75*
G02*
X0412461Y0083681I0000000J0000531D01*
G01*
X0412461Y0084744D01*
G75*
G02*
X0412993Y0085275I0000531J0000000D01*
G01*
G37*
G36*
G01*
X0412993Y0081259D02*
X0414449Y0081259D01*
G75*
G02*
X0414981Y0080728I0000000J-000531D01*
G01*
X0414981Y0079665D01*
G75*
G02*
X0414449Y0079134I-000531J0000000D01*
G01*
X0412993Y0079134D01*
G75*
G02*
X0412461Y0079665I0000000J0000531D01*
G01*
X0412461Y0080728D01*
G75*
G02*
X0412993Y0081259I0000531J0000000D01*
G01*
G37*
G36*
G01*
X0412264Y0116102D02*
X0413603Y0116102D01*
G75*
G02*
X0414154Y0115551I0000000J-000551D01*
G01*
X0414154Y0114448D01*
G75*
G02*
X0413603Y0113897I-000551J0000000D01*
G01*
X0412264Y0113897D01*
G75*
G02*
X0411713Y0114448I0000000J0000551D01*
G01*
X0411713Y0115551D01*
G75*
G02*
X0412264Y0116102I0000551J0000000D01*
G01*
G37*
G36*
G01*
X0412264Y0112322D02*
X0413603Y0112322D01*
G75*
G02*
X0414154Y0111771I0000000J-000551D01*
G01*
X0414154Y0110669D01*
G75*
G02*
X0413603Y0110118I-000551J0000000D01*
G01*
X0412264Y0110118D01*
G75*
G02*
X0411713Y0110669I0000000J0000551D01*
G01*
X0411713Y0111771D01*
G75*
G02*
X0412264Y0112322I0000551J0000000D01*
G01*
G37*
G36*
G01*
X0406501Y0067047D02*
X0404484Y0067047D01*
G75*
G02*
X0403622Y0067908I0000000J0000861D01*
G01*
X0403622Y0069631D01*
G75*
G02*
X0404484Y0070492I0000861J0000000D01*
G01*
X0406501Y0070492D01*
G75*
G02*
X0407363Y0069631I0000000J-000861D01*
G01*
X0407363Y0067908D01*
G75*
G02*
X0406501Y0067047I-000861J0000000D01*
G01*
G37*
G36*
G01*
X0406501Y0060846D02*
X0404484Y0060846D01*
G75*
G02*
X0403622Y0061707I0000000J0000861D01*
G01*
X0403622Y0063430D01*
G75*
G02*
X0404484Y0064291I0000861J0000000D01*
G01*
X0406501Y0064291D01*
G75*
G02*
X0407363Y0063430I0000000J-000861D01*
G01*
X0407363Y0061707D01*
G75*
G02*
X0406501Y0060846I-000861J0000000D01*
G01*
G37*
G36*
G01*
X0401280Y0085826D02*
X0401280Y0084488D01*
G75*
G02*
X0400729Y0083937I-000551J0000000D01*
G01*
X0399626Y0083937D01*
G75*
G02*
X0399075Y0084488I0000000J0000551D01*
G01*
X0399075Y0085826D01*
G75*
G02*
X0399626Y0086378I0000551J0000000D01*
G01*
X0400729Y0086378D01*
G75*
G02*
X0401280Y0085826I0000000J-000551D01*
G01*
G37*
G36*
G01*
X0397500Y0085826D02*
X0397500Y0084488D01*
G75*
G02*
X0396949Y0083937I-000551J0000000D01*
G01*
X0395847Y0083937D01*
G75*
G02*
X0395296Y0084488I0000000J0000551D01*
G01*
X0395296Y0085826D01*
G75*
G02*
X0395847Y0086378I0000551J0000000D01*
G01*
X0396949Y0086378D01*
G75*
G02*
X0397500Y0085826I0000000J-000551D01*
G01*
G37*
G36*
G01*
X0398426Y0068189D02*
X0399882Y0068189D01*
G75*
G02*
X0400414Y0067657I0000000J-000531D01*
G01*
X0400414Y0066594D01*
G75*
G02*
X0399882Y0066063I-000531J0000000D01*
G01*
X0398426Y0066063D01*
G75*
G02*
X0397894Y0066594I0000000J0000531D01*
G01*
X0397894Y0067657D01*
G75*
G02*
X0398426Y0068189I0000531J0000000D01*
G01*
G37*
G36*
G01*
X0398426Y0064173D02*
X0399882Y0064173D01*
G75*
G02*
X0400414Y0063641I0000000J-000531D01*
G01*
X0400414Y0062578D01*
G75*
G02*
X0399882Y0062047I-000531J0000000D01*
G01*
X0398426Y0062047D01*
G75*
G02*
X0397894Y0062578I0000000J0000531D01*
G01*
X0397894Y0063641D01*
G75*
G02*
X0398426Y0064173I0000531J0000000D01*
G01*
G37*
G36*
G01*
X0410512Y0079134D02*
X0409056Y0079134D01*
G75*
G02*
X0408524Y0079665I0000000J0000531D01*
G01*
X0408524Y0080728D01*
G75*
G02*
X0409056Y0081259I0000531J0000000D01*
G01*
X0410512Y0081259D01*
G75*
G02*
X0411044Y0080728I0000000J-000531D01*
G01*
X0411044Y0079665D01*
G75*
G02*
X0410512Y0079134I-000531J0000000D01*
G01*
G37*
G36*
G01*
X0410512Y0083149D02*
X0409056Y0083149D01*
G75*
G02*
X0408524Y0083681I0000000J0000531D01*
G01*
X0408524Y0084744D01*
G75*
G02*
X0409056Y0085275I0000531J0000000D01*
G01*
X0410512Y0085275D01*
G75*
G02*
X0411044Y0084744I0000000J-000531D01*
G01*
X0411044Y0083681D01*
G75*
G02*
X0410512Y0083149I-000531J0000000D01*
G01*
G37*
G36*
G01*
X0416303Y0084271D02*
X0416303Y0085728D01*
G75*
G02*
X0416834Y0086259I0000531J0000000D01*
G01*
X0417897Y0086259D01*
G75*
G02*
X0418429Y0085728I0000000J-000531D01*
G01*
X0418429Y0084271D01*
G75*
G02*
X0417897Y0083740I-000531J0000000D01*
G01*
X0416834Y0083740D01*
G75*
G02*
X0416303Y0084271I0000000J0000531D01*
G01*
G37*
G36*
G01*
X0420319Y0084271D02*
X0420319Y0085728D01*
G75*
G02*
X0420850Y0086259I0000531J0000000D01*
G01*
X0421913Y0086259D01*
G75*
G02*
X0422444Y0085728I0000000J-000531D01*
G01*
X0422444Y0084271D01*
G75*
G02*
X0421913Y0083740I-000531J0000000D01*
G01*
X0420850Y0083740D01*
G75*
G02*
X0420319Y0084271I0000000J0000531D01*
G01*
G37*
G36*
G01*
X0409705Y0066929D02*
X0411044Y0066929D01*
G75*
G02*
X0411595Y0066378I0000000J-000551D01*
G01*
X0411595Y0065275D01*
G75*
G02*
X0411044Y0064724I-000551J0000000D01*
G01*
X0409705Y0064724D01*
G75*
G02*
X0409154Y0065275I0000000J0000551D01*
G01*
X0409154Y0066378D01*
G75*
G02*
X0409705Y0066929I0000551J0000000D01*
G01*
G37*
G36*
G01*
X0409705Y0063149D02*
X0411044Y0063149D01*
G75*
G02*
X0411595Y0062598I0000000J-000551D01*
G01*
X0411595Y0061496D01*
G75*
G02*
X0411044Y0060945I-000551J0000000D01*
G01*
X0409705Y0060945D01*
G75*
G02*
X0409154Y0061496I0000000J0000551D01*
G01*
X0409154Y0062598D01*
G75*
G02*
X0409705Y0063149I0000551J0000000D01*
G01*
G37*
G36*
G01*
X0418242Y0103976D02*
X0418242Y0102637D01*
G75*
G02*
X0417691Y0102086I-000551J0000000D01*
G01*
X0416589Y0102086D01*
G75*
G02*
X0416037Y0102637I0000000J0000551D01*
G01*
X0416037Y0103976D01*
G75*
G02*
X0416589Y0104527I0000551J0000000D01*
G01*
X0417691Y0104527D01*
G75*
G02*
X0418242Y0103976I0000000J-000551D01*
G01*
G37*
G36*
G01*
X0414463Y0103976D02*
X0414463Y0102637D01*
G75*
G02*
X0413911Y0102086I-000551J0000000D01*
G01*
X0412809Y0102086D01*
G75*
G02*
X0412258Y0102637I0000000J0000551D01*
G01*
X0412258Y0103976D01*
G75*
G02*
X0412809Y0104527I0000551J0000000D01*
G01*
X0413911Y0104527D01*
G75*
G02*
X0414463Y0103976I0000000J-000551D01*
G01*
G37*
G36*
G01*
X0425768Y0078956D02*
X0424311Y0078956D01*
G75*
G02*
X0423780Y0079488I0000000J0000531D01*
G01*
X0423780Y0080551D01*
G75*
G02*
X0424311Y0081082I0000531J0000000D01*
G01*
X0425768Y0081082D01*
G75*
G02*
X0426300Y0080551I0000000J-000531D01*
G01*
X0426300Y0079488D01*
G75*
G02*
X0425768Y0078956I-000531J0000000D01*
G01*
G37*
G36*
G01*
X0425768Y0082972D02*
X0424311Y0082972D01*
G75*
G02*
X0423780Y0083504I0000000J0000531D01*
G01*
X0423780Y0084567D01*
G75*
G02*
X0424311Y0085098I0000531J0000000D01*
G01*
X0425768Y0085098D01*
G75*
G02*
X0426300Y0084567I0000000J-000531D01*
G01*
X0426300Y0083504D01*
G75*
G02*
X0425768Y0082972I-000531J0000000D01*
G01*
G37*
D142*
X0424548Y0108215D03*
X0424548Y0110774D03*
X0424548Y0113333D03*
X0417067Y0113333D03*
X0417067Y0110774D03*
X0417067Y0108215D03*
G36*
G01*
X0415762Y0062266D02*
X0414581Y0062266D01*
G75*
G02*
X0413990Y0062857I0000000J0000591D01*
G01*
X0413990Y0066892D01*
G75*
G02*
X0414581Y0067483I0000591J0000000D01*
G01*
X0415762Y0067483D01*
G75*
G02*
X0416352Y0066892I0000000J-000591D01*
G01*
X0416352Y0062857D01*
G75*
G02*
X0415762Y0062266I-000591J0000000D01*
G01*
G37*
G36*
G01*
X0419502Y0062266D02*
X0418321Y0062266D01*
G75*
G02*
X0417730Y0062857I0000000J0000591D01*
G01*
X0417730Y0066892D01*
G75*
G02*
X0418321Y0067483I0000591J0000000D01*
G01*
X0419502Y0067483D01*
G75*
G02*
X0420093Y0066892I0000000J-000591D01*
G01*
X0420093Y0062857D01*
G75*
G02*
X0419502Y0062266I-000591J0000000D01*
G01*
G37*
G36*
G01*
X0423242Y0062266D02*
X0422061Y0062266D01*
G75*
G02*
X0421471Y0062857I0000000J0000591D01*
G01*
X0421471Y0066892D01*
G75*
G02*
X0422061Y0067483I0000591J0000000D01*
G01*
X0423242Y0067483D01*
G75*
G02*
X0423833Y0066892I0000000J-000591D01*
G01*
X0423833Y0062857D01*
G75*
G02*
X0423242Y0062266I-000591J0000000D01*
G01*
G37*
G36*
G01*
X0423242Y0071223D02*
X0422061Y0071223D01*
G75*
G02*
X0421471Y0071813I0000000J0000591D01*
G01*
X0421471Y0075849D01*
G75*
G02*
X0422061Y0076439I0000591J0000000D01*
G01*
X0423242Y0076439D01*
G75*
G02*
X0423833Y0075849I0000000J-000591D01*
G01*
X0423833Y0071813D01*
G75*
G02*
X0423242Y0071223I-000591J0000000D01*
G01*
G37*
G36*
G01*
X0419502Y0071223D02*
X0418321Y0071223D01*
G75*
G02*
X0417730Y0071813I0000000J0000591D01*
G01*
X0417730Y0075849D01*
G75*
G02*
X0418321Y0076439I0000591J0000000D01*
G01*
X0419502Y0076439D01*
G75*
G02*
X0420093Y0075849I0000000J-000591D01*
G01*
X0420093Y0071813D01*
G75*
G02*
X0419502Y0071223I-000591J0000000D01*
G01*
G37*
G36*
G01*
X0415762Y0071223D02*
X0414581Y0071223D01*
G75*
G02*
X0413990Y0071813I0000000J0000591D01*
G01*
X0413990Y0075849D01*
G75*
G02*
X0414581Y0076439I0000591J0000000D01*
G01*
X0415762Y0076439D01*
G75*
G02*
X0416352Y0075849I0000000J-000591D01*
G01*
X0416352Y0071813D01*
G75*
G02*
X0415762Y0071223I-000591J0000000D01*
G01*
G37*
G36*
G01*
X0403878Y0073385D02*
X0402540Y0073385D01*
G75*
G02*
X0401989Y0073937I0000000J0000551D01*
G01*
X0401989Y0075039D01*
G75*
G02*
X0402540Y0075590I0000551J0000000D01*
G01*
X0403878Y0075590D01*
G75*
G02*
X0404430Y0075039I0000000J-000551D01*
G01*
X0404430Y0073937D01*
G75*
G02*
X0403878Y0073385I-000551J0000000D01*
G01*
G37*
G36*
G01*
X0403878Y0077165D02*
X0402540Y0077165D01*
G75*
G02*
X0401989Y0077716I0000000J0000551D01*
G01*
X0401989Y0078819D01*
G75*
G02*
X0402540Y0079370I0000551J0000000D01*
G01*
X0403878Y0079370D01*
G75*
G02*
X0404430Y0078819I0000000J-000551D01*
G01*
X0404430Y0077716D01*
G75*
G02*
X0403878Y0077165I-000551J0000000D01*
G01*
G37*
G36*
G01*
X0426083Y0094921D02*
X0426083Y0093582D01*
G75*
G02*
X0425532Y0093031I-000551J0000000D01*
G01*
X0424430Y0093031D01*
G75*
G02*
X0423878Y0093582I0000000J0000551D01*
G01*
X0423878Y0094921D01*
G75*
G02*
X0424430Y0095472I0000551J0000000D01*
G01*
X0425532Y0095472D01*
G75*
G02*
X0426083Y0094921I0000000J-000551D01*
G01*
G37*
G36*
G01*
X0422304Y0094921D02*
X0422304Y0093582D01*
G75*
G02*
X0421752Y0093031I-000551J0000000D01*
G01*
X0420650Y0093031D01*
G75*
G02*
X0420099Y0093582I0000000J0000551D01*
G01*
X0420099Y0094921D01*
G75*
G02*
X0420650Y0095472I0000551J0000000D01*
G01*
X0421752Y0095472D01*
G75*
G02*
X0422304Y0094921I0000000J-000551D01*
G01*
G37*
G36*
G01*
X0418321Y0098917D02*
X0418321Y0097460D01*
G75*
G02*
X0417789Y0096929I-000531J0000000D01*
G01*
X0416726Y0096929D01*
G75*
G02*
X0416195Y0097460I0000000J0000531D01*
G01*
X0416195Y0098917D01*
G75*
G02*
X0416726Y0099448I0000531J0000000D01*
G01*
X0417789Y0099448D01*
G75*
G02*
X0418321Y0098917I0000000J-000531D01*
G01*
G37*
G36*
G01*
X0414305Y0098917D02*
X0414305Y0097460D01*
G75*
G02*
X0413774Y0096929I-000531J0000000D01*
G01*
X0412711Y0096929D01*
G75*
G02*
X0412179Y0097460I0000000J0000531D01*
G01*
X0412179Y0098917D01*
G75*
G02*
X0412711Y0099448I0000531J0000000D01*
G01*
X0413774Y0099448D01*
G75*
G02*
X0414305Y0098917I0000000J-000531D01*
G01*
G37*
X0427982Y0144744D02*
%LPD*%
G01*
D21*
X0400817Y0203012D03*
X0405541Y0203012D03*
X0396092Y0203012D03*
X0391368Y0203012D03*
X0416801Y0146220D03*
X0420738Y0146220D03*
D274*
X0414990Y0178602D03*
X0416958Y0178602D03*
X0418927Y0178602D03*
X0420895Y0178602D03*
X0422864Y0178602D03*
X0422864Y0195925D03*
X0420895Y0195925D03*
X0418927Y0195925D03*
X0416958Y0195925D03*
X0414990Y0195925D03*
G36*
G01*
X0401801Y0186122D02*
X0401801Y0189193D01*
G75*
G02*
X0402076Y0189468I0000276J0000000D01*
G01*
X0404281Y0189468D01*
G75*
G02*
X0404557Y0189193I0000000J-000276D01*
G01*
X0404557Y0186122D01*
G75*
G02*
X0404281Y0185846I-000276J0000000D01*
G01*
X0402076Y0185846D01*
G75*
G02*
X0401801Y0186122I0000000J0000276D01*
G01*
G37*
G36*
G01*
X0408100Y0186122D02*
X0408100Y0189193D01*
G75*
G02*
X0408376Y0189468I0000276J0000000D01*
G01*
X0410580Y0189468D01*
G75*
G02*
X0410856Y0189193I0000000J-000276D01*
G01*
X0410856Y0186122D01*
G75*
G02*
X0410580Y0185846I-000276J0000000D01*
G01*
X0408376Y0185846D01*
G75*
G02*
X0408100Y0186122I0000000J0000276D01*
G01*
G37*
G36*
G01*
X0395147Y0200453D02*
X0398218Y0200453D01*
G75*
G02*
X0398494Y0200177I0000000J-000276D01*
G01*
X0398494Y0197972D01*
G75*
G02*
X0398218Y0197697I-000276J0000000D01*
G01*
X0395147Y0197697D01*
G75*
G02*
X0394872Y0197972I0000000J0000276D01*
G01*
X0394872Y0200177D01*
G75*
G02*
X0395147Y0200453I0000276J0000000D01*
G01*
G37*
G36*
G01*
X0395147Y0194153D02*
X0398218Y0194153D01*
G75*
G02*
X0398494Y0193878I0000000J-000276D01*
G01*
X0398494Y0191673D01*
G75*
G02*
X0398218Y0191398I-000276J0000000D01*
G01*
X0395147Y0191398D01*
G75*
G02*
X0394872Y0191673I0000000J0000276D01*
G01*
X0394872Y0193878D01*
G75*
G02*
X0395147Y0194153I0000276J0000000D01*
G01*
G37*
G36*
G01*
X0401801Y0180216D02*
X0401801Y0183287D01*
G75*
G02*
X0402076Y0183563I0000276J0000000D01*
G01*
X0404281Y0183563D01*
G75*
G02*
X0404557Y0183287I0000000J-000276D01*
G01*
X0404557Y0180216D01*
G75*
G02*
X0404281Y0179941I-000276J0000000D01*
G01*
X0402076Y0179941D01*
G75*
G02*
X0401801Y0180216I0000000J0000276D01*
G01*
G37*
G36*
G01*
X0408100Y0180216D02*
X0408100Y0183287D01*
G75*
G02*
X0408376Y0183563I0000276J0000000D01*
G01*
X0410580Y0183563D01*
G75*
G02*
X0410856Y0183287I0000000J-000276D01*
G01*
X0410856Y0180216D01*
G75*
G02*
X0410580Y0179941I-000276J0000000D01*
G01*
X0408376Y0179941D01*
G75*
G02*
X0408100Y0180216I0000000J0000276D01*
G01*
G37*
G36*
G01*
X0398061Y0169567D02*
X0398061Y0172283D01*
G75*
G02*
X0398966Y0173189I0000906J0000000D01*
G01*
X0404242Y0173189D01*
G75*
G02*
X0405147Y0172283I0000000J-000906D01*
G01*
X0405147Y0169567D01*
G75*
G02*
X0404242Y0168661I-000906J0000000D01*
G01*
X0398966Y0168661D01*
G75*
G02*
X0398061Y0169567I0000000J0000906D01*
G01*
G37*
G36*
G01*
X0398061Y0158149D02*
X0398061Y0160866D01*
G75*
G02*
X0398966Y0161772I0000906J0000000D01*
G01*
X0404242Y0161772D01*
G75*
G02*
X0405147Y0160866I0000000J-000906D01*
G01*
X0405147Y0158149D01*
G75*
G02*
X0404242Y0157244I-000906J0000000D01*
G01*
X0398966Y0157244D01*
G75*
G02*
X0398061Y0158149I0000000J0000906D01*
G01*
G37*
G36*
G01*
X0407903Y0169567D02*
X0407903Y0172283D01*
G75*
G02*
X0408809Y0173189I0000906J0000000D01*
G01*
X0414084Y0173189D01*
G75*
G02*
X0414990Y0172283I0000000J-000906D01*
G01*
X0414990Y0169567D01*
G75*
G02*
X0414084Y0168661I-000906J0000000D01*
G01*
X0408809Y0168661D01*
G75*
G02*
X0407903Y0169567I0000000J0000906D01*
G01*
G37*
G36*
G01*
X0407903Y0158149D02*
X0407903Y0160866D01*
G75*
G02*
X0408809Y0161772I0000906J0000000D01*
G01*
X0414084Y0161772D01*
G75*
G02*
X0414990Y0160866I0000000J-000906D01*
G01*
X0414990Y0158149D01*
G75*
G02*
X0414084Y0157244I-000906J0000000D01*
G01*
X0408809Y0157244D01*
G75*
G02*
X0407903Y0158149I0000000J0000906D01*
G01*
G37*
G36*
G01*
X0401584Y0147500D02*
X0398868Y0147500D01*
G75*
G02*
X0397962Y0148405I0000000J0000906D01*
G01*
X0397962Y0153681D01*
G75*
G02*
X0398868Y0154587I0000906J0000000D01*
G01*
X0401584Y0154587D01*
G75*
G02*
X0402490Y0153681I0000000J-000906D01*
G01*
X0402490Y0148405D01*
G75*
G02*
X0401584Y0147500I-000906J0000000D01*
G01*
G37*
G36*
G01*
X0413002Y0147500D02*
X0410285Y0147500D01*
G75*
G02*
X0409380Y0148405I0000000J0000906D01*
G01*
X0409380Y0153681D01*
G75*
G02*
X0410285Y0154587I0000906J0000000D01*
G01*
X0413002Y0154587D01*
G75*
G02*
X0413907Y0153681I0000000J-000906D01*
G01*
X0413907Y0148405D01*
G75*
G02*
X0413002Y0147500I-000906J0000000D01*
G01*
G37*
G36*
G01*
X0417352Y0162874D02*
X0417352Y0165590D01*
G75*
G02*
X0418258Y0166496I0000906J0000000D01*
G01*
X0423533Y0166496D01*
G75*
G02*
X0424439Y0165590I0000000J-000906D01*
G01*
X0424439Y0162874D01*
G75*
G02*
X0423533Y0161968I-000906J0000000D01*
G01*
X0418258Y0161968D01*
G75*
G02*
X0417352Y0162874I0000000J0000906D01*
G01*
G37*
G36*
G01*
X0417352Y0151457D02*
X0417352Y0154173D01*
G75*
G02*
X0418258Y0155079I0000906J0000000D01*
G01*
X0423533Y0155079D01*
G75*
G02*
X0424439Y0154173I0000000J-000906D01*
G01*
X0424439Y0151457D01*
G75*
G02*
X0423533Y0150551I-000906J0000000D01*
G01*
X0418258Y0150551D01*
G75*
G02*
X0417352Y0151457I0000000J0000906D01*
G01*
G37*
G36*
G01*
X0395477Y0188543D02*
X0397495Y0188543D01*
G75*
G02*
X0398356Y0187682I0000000J-000861D01*
G01*
X0398356Y0185960D01*
G75*
G02*
X0397495Y0185098I-000861J0000000D01*
G01*
X0395477Y0185098D01*
G75*
G02*
X0394616Y0185960I0000000J0000861D01*
G01*
X0394616Y0187682D01*
G75*
G02*
X0395477Y0188543I0000861J0000000D01*
G01*
G37*
G36*
G01*
X0395477Y0182342D02*
X0397495Y0182342D01*
G75*
G02*
X0398356Y0181481I0000000J-000861D01*
G01*
X0398356Y0179759D01*
G75*
G02*
X0397495Y0178898I-000861J0000000D01*
G01*
X0395477Y0178898D01*
G75*
G02*
X0394616Y0179759I0000000J0000861D01*
G01*
X0394616Y0181481D01*
G75*
G02*
X0395477Y0182342I0000861J0000000D01*
G01*
G37*
G36*
G01*
X0402439Y0194488D02*
X0405116Y0194488D01*
G75*
G02*
X0405451Y0194153I0000000J-000335D01*
G01*
X0405451Y0191476D01*
G75*
G02*
X0405116Y0191142I-000335J0000000D01*
G01*
X0402439Y0191142D01*
G75*
G02*
X0402104Y0191476I0000000J0000335D01*
G01*
X0402104Y0194153D01*
G75*
G02*
X0402439Y0194488I0000335J0000000D01*
G01*
G37*
G36*
G01*
X0402439Y0200709D02*
X0405116Y0200709D01*
G75*
G02*
X0405451Y0200374I0000000J-000335D01*
G01*
X0405451Y0197697D01*
G75*
G02*
X0405116Y0197362I-000335J0000000D01*
G01*
X0402439Y0197362D01*
G75*
G02*
X0402104Y0197697I0000000J0000335D01*
G01*
X0402104Y0200374D01*
G75*
G02*
X0402439Y0200709I0000335J0000000D01*
G01*
G37*
G36*
G01*
X0407746Y0200709D02*
X0410423Y0200709D01*
G75*
G02*
X0410758Y0200374I0000000J-000335D01*
G01*
X0410758Y0197697D01*
G75*
G02*
X0410423Y0197362I-000335J0000000D01*
G01*
X0407746Y0197362D01*
G75*
G02*
X0407411Y0197697I0000000J0000335D01*
G01*
X0407411Y0200374D01*
G75*
G02*
X0407746Y0200709I0000335J0000000D01*
G01*
G37*
G36*
G01*
X0407746Y0194488D02*
X0410423Y0194488D01*
G75*
G02*
X0410758Y0194153I0000000J-000335D01*
G01*
X0410758Y0191476D01*
G75*
G02*
X0410423Y0191142I-000335J0000000D01*
G01*
X0407746Y0191142D01*
G75*
G02*
X0407411Y0191476I0000000J0000335D01*
G01*
X0407411Y0194153D01*
G75*
G02*
X0407746Y0194488I0000335J0000000D01*
G01*
G37*
G36*
G01*
X0401545Y0175295D02*
X0401545Y0177972D01*
G75*
G02*
X0401880Y0178307I0000335J0000000D01*
G01*
X0404557Y0178307D01*
G75*
G02*
X0404891Y0177972I0000000J-000335D01*
G01*
X0404891Y0175295D01*
G75*
G02*
X0404557Y0174961I-000335J0000000D01*
G01*
X0401880Y0174961D01*
G75*
G02*
X0401545Y0175295I0000000J0000335D01*
G01*
G37*
G36*
G01*
X0407765Y0175295D02*
X0407765Y0177972D01*
G75*
G02*
X0408100Y0178307I0000335J0000000D01*
G01*
X0410777Y0178307D01*
G75*
G02*
X0411112Y0177972I0000000J-000335D01*
G01*
X0411112Y0175295D01*
G75*
G02*
X0410777Y0174961I-000335J0000000D01*
G01*
X0408100Y0174961D01*
G75*
G02*
X0407765Y0175295I0000000J0000335D01*
G01*
G37*
X0222087Y0301673D02*
%LPD*%
G01*
G36*
G01*
X0154479Y0265964D02*
X0155837Y0265964D01*
G75*
G02*
X0156418Y0265384I0000000J-000581D01*
G01*
X0156418Y0264222D01*
G75*
G02*
X0155837Y0263642I-000581J0000000D01*
G01*
X0154479Y0263642D01*
G75*
G02*
X0153898Y0264222I0000000J0000581D01*
G01*
X0153898Y0265384D01*
G75*
G02*
X0154479Y0265964I0000581J0000000D01*
G01*
G37*
G36*
G01*
X0154479Y0262145D02*
X0155837Y0262145D01*
G75*
G02*
X0156418Y0261565I0000000J-000581D01*
G01*
X0156418Y0260403D01*
G75*
G02*
X0155837Y0259823I-000581J0000000D01*
G01*
X0154479Y0259823D01*
G75*
G02*
X0153898Y0260403I0000000J0000581D01*
G01*
X0153898Y0261565D01*
G75*
G02*
X0154479Y0262145I0000581J0000000D01*
G01*
G37*
G36*
G01*
X0213052Y0281388D02*
X0213052Y0280029D01*
G75*
G02*
X0212471Y0279449I-000581J0000000D01*
G01*
X0211309Y0279449D01*
G75*
G02*
X0210729Y0280029I0000000J0000581D01*
G01*
X0210729Y0281388D01*
G75*
G02*
X0211309Y0281968I0000581J0000000D01*
G01*
X0212471Y0281968D01*
G75*
G02*
X0213052Y0281388I0000000J-000581D01*
G01*
G37*
G36*
G01*
X0209233Y0281388D02*
X0209233Y0280029D01*
G75*
G02*
X0208652Y0279449I-000581J0000000D01*
G01*
X0207491Y0279449D01*
G75*
G02*
X0206910Y0280029I0000000J0000581D01*
G01*
X0206910Y0281388D01*
G75*
G02*
X0207491Y0281968I0000581J0000000D01*
G01*
X0208652Y0281968D01*
G75*
G02*
X0209233Y0281388I0000000J-000581D01*
G01*
G37*
G36*
G01*
X0202525Y0266191D02*
X0200507Y0266191D01*
G75*
G02*
X0199646Y0267052I0000000J0000861D01*
G01*
X0199646Y0268774D01*
G75*
G02*
X0200507Y0269636I0000861J0000000D01*
G01*
X0202525Y0269636D01*
G75*
G02*
X0203386Y0268774I0000000J-000861D01*
G01*
X0203386Y0267052D01*
G75*
G02*
X0202525Y0266191I-000861J0000000D01*
G01*
G37*
G36*
G01*
X0202525Y0272392D02*
X0200507Y0272392D01*
G75*
G02*
X0199646Y0273253I0000000J0000861D01*
G01*
X0199646Y0274975D01*
G75*
G02*
X0200507Y0275836I0000861J0000000D01*
G01*
X0202525Y0275836D01*
G75*
G02*
X0203386Y0274975I0000000J-000861D01*
G01*
X0203386Y0273253D01*
G75*
G02*
X0202525Y0272392I-000861J0000000D01*
G01*
G37*
G36*
G01*
X0156034Y0291220D02*
X0154676Y0291220D01*
G75*
G02*
X0154095Y0291801I0000000J0000581D01*
G01*
X0154095Y0292962D01*
G75*
G02*
X0154676Y0293543I0000581J0000000D01*
G01*
X0156034Y0293543D01*
G75*
G02*
X0156615Y0292962I0000000J-000581D01*
G01*
X0156615Y0291801D01*
G75*
G02*
X0156034Y0291220I-000581J0000000D01*
G01*
G37*
G36*
G01*
X0156034Y0295039D02*
X0154676Y0295039D01*
G75*
G02*
X0154095Y0295620I0000000J0000581D01*
G01*
X0154095Y0296781D01*
G75*
G02*
X0154676Y0297362I0000581J0000000D01*
G01*
X0156034Y0297362D01*
G75*
G02*
X0156615Y0296781I0000000J-000581D01*
G01*
X0156615Y0295620D01*
G75*
G02*
X0156034Y0295039I-000581J0000000D01*
G01*
G37*
D146*
X0207225Y0275393D03*
X0207225Y0267913D03*
X0215099Y0271653D03*
G36*
G01*
X0160217Y0291220D02*
X0158859Y0291220D01*
G75*
G02*
X0158278Y0291801I0000000J0000581D01*
G01*
X0158278Y0292962D01*
G75*
G02*
X0158859Y0293543I0000581J0000000D01*
G01*
X0160217Y0293543D01*
G75*
G02*
X0160798Y0292962I0000000J-000581D01*
G01*
X0160798Y0291801D01*
G75*
G02*
X0160217Y0291220I-000581J0000000D01*
G01*
G37*
G36*
G01*
X0160217Y0295039D02*
X0158859Y0295039D01*
G75*
G02*
X0158278Y0295620I0000000J0000581D01*
G01*
X0158278Y0296781D01*
G75*
G02*
X0158859Y0297362I0000581J0000000D01*
G01*
X0160217Y0297362D01*
G75*
G02*
X0160798Y0296781I0000000J-000581D01*
G01*
X0160798Y0295620D01*
G75*
G02*
X0160217Y0295039I-000581J0000000D01*
G01*
G37*
G36*
G01*
X0155837Y0267303D02*
X0154479Y0267303D01*
G75*
G02*
X0153898Y0267884I0000000J0000581D01*
G01*
X0153898Y0269045D01*
G75*
G02*
X0154479Y0269626I0000581J0000000D01*
G01*
X0155837Y0269626D01*
G75*
G02*
X0156418Y0269045I0000000J-000581D01*
G01*
X0156418Y0267884D01*
G75*
G02*
X0155837Y0267303I-000581J0000000D01*
G01*
G37*
G36*
G01*
X0155837Y0271122D02*
X0154479Y0271122D01*
G75*
G02*
X0153898Y0271703I0000000J0000581D01*
G01*
X0153898Y0272864D01*
G75*
G02*
X0154479Y0273445I0000581J0000000D01*
G01*
X0155837Y0273445D01*
G75*
G02*
X0156418Y0272864I0000000J-000581D01*
G01*
X0156418Y0271703D01*
G75*
G02*
X0155837Y0271122I-000581J0000000D01*
G01*
G37*
G36*
G01*
X0159597Y0255039D02*
X0160955Y0255039D01*
G75*
G02*
X0161536Y0254458I0000000J-000581D01*
G01*
X0161536Y0253297D01*
G75*
G02*
X0160955Y0252716I-000581J0000000D01*
G01*
X0159597Y0252716D01*
G75*
G02*
X0159016Y0253297I0000000J0000581D01*
G01*
X0159016Y0254458D01*
G75*
G02*
X0159597Y0255039I0000581J0000000D01*
G01*
G37*
G36*
G01*
X0159597Y0251220D02*
X0160955Y0251220D01*
G75*
G02*
X0161536Y0250640I0000000J-000581D01*
G01*
X0161536Y0249478D01*
G75*
G02*
X0160955Y0248897I-000581J0000000D01*
G01*
X0159597Y0248897D01*
G75*
G02*
X0159016Y0249478I0000000J0000581D01*
G01*
X0159016Y0250640D01*
G75*
G02*
X0159597Y0251220I0000581J0000000D01*
G01*
G37*
G36*
G01*
X0154479Y0281811D02*
X0155837Y0281811D01*
G75*
G02*
X0156418Y0281230I0000000J-000581D01*
G01*
X0156418Y0280069D01*
G75*
G02*
X0155837Y0279488I-000581J0000000D01*
G01*
X0154479Y0279488D01*
G75*
G02*
X0153898Y0280069I0000000J0000581D01*
G01*
X0153898Y0281230D01*
G75*
G02*
X0154479Y0281811I0000581J0000000D01*
G01*
G37*
G36*
G01*
X0154479Y0277992D02*
X0155837Y0277992D01*
G75*
G02*
X0156418Y0277411I0000000J-000581D01*
G01*
X0156418Y0276250D01*
G75*
G02*
X0155837Y0275669I-000581J0000000D01*
G01*
X0154479Y0275669D01*
G75*
G02*
X0153898Y0276250I0000000J0000581D01*
G01*
X0153898Y0277411D01*
G75*
G02*
X0154479Y0277992I0000581J0000000D01*
G01*
G37*
G36*
G01*
X0194243Y0255039D02*
X0195601Y0255039D01*
G75*
G02*
X0196181Y0254458I0000000J-000581D01*
G01*
X0196181Y0253297D01*
G75*
G02*
X0195601Y0252716I-000581J0000000D01*
G01*
X0194243Y0252716D01*
G75*
G02*
X0193662Y0253297I0000000J0000581D01*
G01*
X0193662Y0254458D01*
G75*
G02*
X0194243Y0255039I0000581J0000000D01*
G01*
G37*
G36*
G01*
X0194243Y0251220D02*
X0195601Y0251220D01*
G75*
G02*
X0196181Y0250640I0000000J-000581D01*
G01*
X0196181Y0249478D01*
G75*
G02*
X0195601Y0248897I-000581J0000000D01*
G01*
X0194243Y0248897D01*
G75*
G02*
X0193662Y0249478I0000000J0000581D01*
G01*
X0193662Y0250640D01*
G75*
G02*
X0194243Y0251220I0000581J0000000D01*
G01*
G37*
D147*
X0129804Y0261712D03*
D148*
X0130906Y0290059D03*
X0138780Y0278248D03*
X0146654Y0290059D03*
D149*
X0138780Y0286516D03*
D147*
X0147756Y0261712D03*
G36*
G01*
X0205276Y0281486D02*
X0205276Y0280128D01*
G75*
G02*
X0204695Y0279547I-000581J0000000D01*
G01*
X0203534Y0279547D01*
G75*
G02*
X0202953Y0280128I0000000J0000581D01*
G01*
X0202953Y0281486D01*
G75*
G02*
X0203534Y0282067I0000581J0000000D01*
G01*
X0204695Y0282067D01*
G75*
G02*
X0205276Y0281486I0000000J-000581D01*
G01*
G37*
G36*
G01*
X0201457Y0281486D02*
X0201457Y0280128D01*
G75*
G02*
X0200876Y0279547I-000581J0000000D01*
G01*
X0199715Y0279547D01*
G75*
G02*
X0199134Y0280128I0000000J0000581D01*
G01*
X0199134Y0281486D01*
G75*
G02*
X0199715Y0282067I0000581J0000000D01*
G01*
X0200876Y0282067D01*
G75*
G02*
X0201457Y0281486I0000000J-000581D01*
G01*
G37*
G36*
G01*
X0166772Y0295152D02*
X0166772Y0297170D01*
G75*
G02*
X0167633Y0298031I0000861J0000000D01*
G01*
X0169356Y0298031D01*
G75*
G02*
X0170217Y0297170I0000000J-000861D01*
G01*
X0170217Y0295152D01*
G75*
G02*
X0169356Y0294291I-000861J0000000D01*
G01*
X0167633Y0294291D01*
G75*
G02*
X0166772Y0295152I0000000J0000861D01*
G01*
G37*
G36*
G01*
X0172973Y0295152D02*
X0172973Y0297170D01*
G75*
G02*
X0173834Y0298031I0000861J0000000D01*
G01*
X0175556Y0298031D01*
G75*
G02*
X0176418Y0297170I0000000J-000861D01*
G01*
X0176418Y0295152D01*
G75*
G02*
X0175556Y0294291I-000861J0000000D01*
G01*
X0173834Y0294291D01*
G75*
G02*
X0172973Y0295152I0000000J0000861D01*
G01*
G37*
G36*
G01*
X0164400Y0291220D02*
X0163042Y0291220D01*
G75*
G02*
X0162461Y0291801I0000000J0000581D01*
G01*
X0162461Y0292962D01*
G75*
G02*
X0163042Y0293543I0000581J0000000D01*
G01*
X0164400Y0293543D01*
G75*
G02*
X0164981Y0292962I0000000J-000581D01*
G01*
X0164981Y0291801D01*
G75*
G02*
X0164400Y0291220I-000581J0000000D01*
G01*
G37*
G36*
G01*
X0164400Y0295039D02*
X0163042Y0295039D01*
G75*
G02*
X0162461Y0295620I0000000J0000581D01*
G01*
X0162461Y0296781D01*
G75*
G02*
X0163042Y0297362I0000581J0000000D01*
G01*
X0164400Y0297362D01*
G75*
G02*
X0164981Y0296781I0000000J-000581D01*
G01*
X0164981Y0295620D01*
G75*
G02*
X0164400Y0295039I-000581J0000000D01*
G01*
G37*
G36*
G01*
X0120291Y0295767D02*
X0122308Y0295767D01*
G75*
G02*
X0123170Y0294906I0000000J-000861D01*
G01*
X0123170Y0293184D01*
G75*
G02*
X0122308Y0292323I-000861J0000000D01*
G01*
X0120291Y0292323D01*
G75*
G02*
X0119430Y0293184I0000000J0000861D01*
G01*
X0119430Y0294906D01*
G75*
G02*
X0120291Y0295767I0000861J0000000D01*
G01*
G37*
G36*
G01*
X0120291Y0289567D02*
X0122308Y0289567D01*
G75*
G02*
X0123170Y0288705I0000000J-000861D01*
G01*
X0123170Y0286983D01*
G75*
G02*
X0122308Y0286122I-000861J0000000D01*
G01*
X0120291Y0286122D01*
G75*
G02*
X0119430Y0286983I0000000J0000861D01*
G01*
X0119430Y0288705D01*
G75*
G02*
X0120291Y0289567I0000861J0000000D01*
G01*
G37*
G36*
G01*
X0188130Y0297170D02*
X0188130Y0295152D01*
G75*
G02*
X0187269Y0294291I-000861J0000000D01*
G01*
X0185547Y0294291D01*
G75*
G02*
X0184685Y0295152I0000000J0000861D01*
G01*
X0184685Y0297170D01*
G75*
G02*
X0185547Y0298031I0000861J0000000D01*
G01*
X0187269Y0298031D01*
G75*
G02*
X0188130Y0297170I0000000J-000861D01*
G01*
G37*
G36*
G01*
X0181930Y0297170D02*
X0181930Y0295152D01*
G75*
G02*
X0181068Y0294291I-000861J0000000D01*
G01*
X0179346Y0294291D01*
G75*
G02*
X0178485Y0295152I0000000J0000861D01*
G01*
X0178485Y0297170D01*
G75*
G02*
X0179346Y0298031I0000861J0000000D01*
G01*
X0181068Y0298031D01*
G75*
G02*
X0181930Y0297170I0000000J-000861D01*
G01*
G37*
G36*
G01*
X0192451Y0292992D02*
X0191093Y0292992D01*
G75*
G02*
X0190512Y0293573I0000000J0000581D01*
G01*
X0190512Y0294734D01*
G75*
G02*
X0191093Y0295315I0000581J0000000D01*
G01*
X0192451Y0295315D01*
G75*
G02*
X0193032Y0294734I0000000J-000581D01*
G01*
X0193032Y0293573D01*
G75*
G02*
X0192451Y0292992I-000581J0000000D01*
G01*
G37*
G36*
G01*
X0192451Y0296811D02*
X0191093Y0296811D01*
G75*
G02*
X0190512Y0297392I0000000J0000581D01*
G01*
X0190512Y0298553D01*
G75*
G02*
X0191093Y0299134I0000581J0000000D01*
G01*
X0192451Y0299134D01*
G75*
G02*
X0193032Y0298553I0000000J-000581D01*
G01*
X0193032Y0297392D01*
G75*
G02*
X0192451Y0296811I-000581J0000000D01*
G01*
G37*
G36*
G01*
X0158012Y0280315D02*
X0158012Y0281299D01*
G75*
G02*
X0158504Y0281791I0000492J0000000D01*
G01*
X0163426Y0281791D01*
G75*
G02*
X0163918Y0281299I0000000J-000492D01*
G01*
X0163918Y0280315D01*
G75*
G02*
X0163426Y0279823I-000492J0000000D01*
G01*
X0158504Y0279823D01*
G75*
G02*
X0158012Y0280315I0000000J0000492D01*
G01*
G37*
G36*
G01*
X0158012Y0277165D02*
X0158012Y0278149D01*
G75*
G02*
X0158504Y0278642I0000492J0000000D01*
G01*
X0163426Y0278642D01*
G75*
G02*
X0163918Y0278149I0000000J-000492D01*
G01*
X0163918Y0277165D01*
G75*
G02*
X0163426Y0276673I-000492J0000000D01*
G01*
X0158504Y0276673D01*
G75*
G02*
X0158012Y0277165I0000000J0000492D01*
G01*
G37*
G36*
G01*
X0158012Y0274016D02*
X0158012Y0275000D01*
G75*
G02*
X0158504Y0275492I0000492J0000000D01*
G01*
X0163426Y0275492D01*
G75*
G02*
X0163918Y0275000I0000000J-000492D01*
G01*
X0163918Y0274016D01*
G75*
G02*
X0163426Y0273523I-000492J0000000D01*
G01*
X0158504Y0273523D01*
G75*
G02*
X0158012Y0274016I0000000J0000492D01*
G01*
G37*
G36*
G01*
X0158012Y0270866D02*
X0158012Y0271850D01*
G75*
G02*
X0158504Y0272342I0000492J0000000D01*
G01*
X0163426Y0272342D01*
G75*
G02*
X0163918Y0271850I0000000J-000492D01*
G01*
X0163918Y0270866D01*
G75*
G02*
X0163426Y0270374I-000492J0000000D01*
G01*
X0158504Y0270374D01*
G75*
G02*
X0158012Y0270866I0000000J0000492D01*
G01*
G37*
G36*
G01*
X0158012Y0267716D02*
X0158012Y0268701D01*
G75*
G02*
X0158504Y0269193I0000492J0000000D01*
G01*
X0163426Y0269193D01*
G75*
G02*
X0163918Y0268701I0000000J-000492D01*
G01*
X0163918Y0267716D01*
G75*
G02*
X0163426Y0267224I-000492J0000000D01*
G01*
X0158504Y0267224D01*
G75*
G02*
X0158012Y0267716I0000000J0000492D01*
G01*
G37*
G36*
G01*
X0158012Y0264567D02*
X0158012Y0265551D01*
G75*
G02*
X0158504Y0266043I0000492J0000000D01*
G01*
X0163426Y0266043D01*
G75*
G02*
X0163918Y0265551I0000000J-000492D01*
G01*
X0163918Y0264567D01*
G75*
G02*
X0163426Y0264075I-000492J0000000D01*
G01*
X0158504Y0264075D01*
G75*
G02*
X0158012Y0264567I0000000J0000492D01*
G01*
G37*
G36*
G01*
X0158012Y0261417D02*
X0158012Y0262401D01*
G75*
G02*
X0158504Y0262893I0000492J0000000D01*
G01*
X0163426Y0262893D01*
G75*
G02*
X0163918Y0262401I0000000J-000492D01*
G01*
X0163918Y0261417D01*
G75*
G02*
X0163426Y0260925I-000492J0000000D01*
G01*
X0158504Y0260925D01*
G75*
G02*
X0158012Y0261417I0000000J0000492D01*
G01*
G37*
G36*
G01*
X0158012Y0258267D02*
X0158012Y0259252D01*
G75*
G02*
X0158504Y0259744I0000492J0000000D01*
G01*
X0163426Y0259744D01*
G75*
G02*
X0163918Y0259252I0000000J-000492D01*
G01*
X0163918Y0258267D01*
G75*
G02*
X0163426Y0257775I-000492J0000000D01*
G01*
X0158504Y0257775D01*
G75*
G02*
X0158012Y0258267I0000000J0000492D01*
G01*
G37*
G36*
G01*
X0165394Y0250886D02*
X0165394Y0255807D01*
G75*
G02*
X0165886Y0256299I0000492J0000000D01*
G01*
X0166870Y0256299D01*
G75*
G02*
X0167363Y0255807I0000000J-000492D01*
G01*
X0167363Y0250886D01*
G75*
G02*
X0166870Y0250393I-000492J0000000D01*
G01*
X0165886Y0250393D01*
G75*
G02*
X0165394Y0250886I0000000J0000492D01*
G01*
G37*
G36*
G01*
X0168544Y0250886D02*
X0168544Y0255807D01*
G75*
G02*
X0169036Y0256299I0000492J0000000D01*
G01*
X0170020Y0256299D01*
G75*
G02*
X0170512Y0255807I0000000J-000492D01*
G01*
X0170512Y0250886D01*
G75*
G02*
X0170020Y0250393I-000492J0000000D01*
G01*
X0169036Y0250393D01*
G75*
G02*
X0168544Y0250886I0000000J0000492D01*
G01*
G37*
G36*
G01*
X0171693Y0250886D02*
X0171693Y0255807D01*
G75*
G02*
X0172185Y0256299I0000492J0000000D01*
G01*
X0173170Y0256299D01*
G75*
G02*
X0173662Y0255807I0000000J-000492D01*
G01*
X0173662Y0250886D01*
G75*
G02*
X0173170Y0250393I-000492J0000000D01*
G01*
X0172185Y0250393D01*
G75*
G02*
X0171693Y0250886I0000000J0000492D01*
G01*
G37*
G36*
G01*
X0174843Y0250886D02*
X0174843Y0255807D01*
G75*
G02*
X0175335Y0256299I0000492J0000000D01*
G01*
X0176319Y0256299D01*
G75*
G02*
X0176811Y0255807I0000000J-000492D01*
G01*
X0176811Y0250886D01*
G75*
G02*
X0176319Y0250393I-000492J0000000D01*
G01*
X0175335Y0250393D01*
G75*
G02*
X0174843Y0250886I0000000J0000492D01*
G01*
G37*
G36*
G01*
X0177993Y0250886D02*
X0177993Y0255807D01*
G75*
G02*
X0178485Y0256299I0000492J0000000D01*
G01*
X0179469Y0256299D01*
G75*
G02*
X0179961Y0255807I0000000J-000492D01*
G01*
X0179961Y0250886D01*
G75*
G02*
X0179469Y0250393I-000492J0000000D01*
G01*
X0178485Y0250393D01*
G75*
G02*
X0177993Y0250886I0000000J0000492D01*
G01*
G37*
G36*
G01*
X0181142Y0250886D02*
X0181142Y0255807D01*
G75*
G02*
X0181634Y0256299I0000492J0000000D01*
G01*
X0182618Y0256299D01*
G75*
G02*
X0183111Y0255807I0000000J-000492D01*
G01*
X0183111Y0250886D01*
G75*
G02*
X0182618Y0250393I-000492J0000000D01*
G01*
X0181634Y0250393D01*
G75*
G02*
X0181142Y0250886I0000000J0000492D01*
G01*
G37*
G36*
G01*
X0184292Y0250886D02*
X0184292Y0255807D01*
G75*
G02*
X0184784Y0256299I0000492J0000000D01*
G01*
X0185768Y0256299D01*
G75*
G02*
X0186260Y0255807I0000000J-000492D01*
G01*
X0186260Y0250886D01*
G75*
G02*
X0185768Y0250393I-000492J0000000D01*
G01*
X0184784Y0250393D01*
G75*
G02*
X0184292Y0250886I0000000J0000492D01*
G01*
G37*
G36*
G01*
X0187441Y0250886D02*
X0187441Y0255807D01*
G75*
G02*
X0187933Y0256299I0000492J0000000D01*
G01*
X0188918Y0256299D01*
G75*
G02*
X0189410Y0255807I0000000J-000492D01*
G01*
X0189410Y0250886D01*
G75*
G02*
X0188918Y0250393I-000492J0000000D01*
G01*
X0187933Y0250393D01*
G75*
G02*
X0187441Y0250886I0000000J0000492D01*
G01*
G37*
G36*
G01*
X0190886Y0258267D02*
X0190886Y0259252D01*
G75*
G02*
X0191378Y0259744I0000492J0000000D01*
G01*
X0196300Y0259744D01*
G75*
G02*
X0196792Y0259252I0000000J-000492D01*
G01*
X0196792Y0258267D01*
G75*
G02*
X0196300Y0257775I-000492J0000000D01*
G01*
X0191378Y0257775D01*
G75*
G02*
X0190886Y0258267I0000000J0000492D01*
G01*
G37*
G36*
G01*
X0190886Y0261417D02*
X0190886Y0262401D01*
G75*
G02*
X0191378Y0262893I0000492J0000000D01*
G01*
X0196300Y0262893D01*
G75*
G02*
X0196792Y0262401I0000000J-000492D01*
G01*
X0196792Y0261417D01*
G75*
G02*
X0196300Y0260925I-000492J0000000D01*
G01*
X0191378Y0260925D01*
G75*
G02*
X0190886Y0261417I0000000J0000492D01*
G01*
G37*
G36*
G01*
X0190886Y0264567D02*
X0190886Y0265551D01*
G75*
G02*
X0191378Y0266043I0000492J0000000D01*
G01*
X0196300Y0266043D01*
G75*
G02*
X0196792Y0265551I0000000J-000492D01*
G01*
X0196792Y0264567D01*
G75*
G02*
X0196300Y0264075I-000492J0000000D01*
G01*
X0191378Y0264075D01*
G75*
G02*
X0190886Y0264567I0000000J0000492D01*
G01*
G37*
G36*
G01*
X0190886Y0267716D02*
X0190886Y0268701D01*
G75*
G02*
X0191378Y0269193I0000492J0000000D01*
G01*
X0196300Y0269193D01*
G75*
G02*
X0196792Y0268701I0000000J-000492D01*
G01*
X0196792Y0267716D01*
G75*
G02*
X0196300Y0267224I-000492J0000000D01*
G01*
X0191378Y0267224D01*
G75*
G02*
X0190886Y0267716I0000000J0000492D01*
G01*
G37*
G36*
G01*
X0190886Y0270866D02*
X0190886Y0271850D01*
G75*
G02*
X0191378Y0272342I0000492J0000000D01*
G01*
X0196300Y0272342D01*
G75*
G02*
X0196792Y0271850I0000000J-000492D01*
G01*
X0196792Y0270866D01*
G75*
G02*
X0196300Y0270374I-000492J0000000D01*
G01*
X0191378Y0270374D01*
G75*
G02*
X0190886Y0270866I0000000J0000492D01*
G01*
G37*
G36*
G01*
X0190886Y0274016D02*
X0190886Y0275000D01*
G75*
G02*
X0191378Y0275492I0000492J0000000D01*
G01*
X0196300Y0275492D01*
G75*
G02*
X0196792Y0275000I0000000J-000492D01*
G01*
X0196792Y0274016D01*
G75*
G02*
X0196300Y0273523I-000492J0000000D01*
G01*
X0191378Y0273523D01*
G75*
G02*
X0190886Y0274016I0000000J0000492D01*
G01*
G37*
G36*
G01*
X0190886Y0277165D02*
X0190886Y0278149D01*
G75*
G02*
X0191378Y0278642I0000492J0000000D01*
G01*
X0196300Y0278642D01*
G75*
G02*
X0196792Y0278149I0000000J-000492D01*
G01*
X0196792Y0277165D01*
G75*
G02*
X0196300Y0276673I-000492J0000000D01*
G01*
X0191378Y0276673D01*
G75*
G02*
X0190886Y0277165I0000000J0000492D01*
G01*
G37*
G36*
G01*
X0190886Y0280315D02*
X0190886Y0281299D01*
G75*
G02*
X0191378Y0281791I0000492J0000000D01*
G01*
X0196300Y0281791D01*
G75*
G02*
X0196792Y0281299I0000000J-000492D01*
G01*
X0196792Y0280315D01*
G75*
G02*
X0196300Y0279823I-000492J0000000D01*
G01*
X0191378Y0279823D01*
G75*
G02*
X0190886Y0280315I0000000J0000492D01*
G01*
G37*
G36*
G01*
X0187441Y0283760D02*
X0187441Y0288681D01*
G75*
G02*
X0187933Y0289173I0000492J0000000D01*
G01*
X0188918Y0289173D01*
G75*
G02*
X0189410Y0288681I0000000J-000492D01*
G01*
X0189410Y0283760D01*
G75*
G02*
X0188918Y0283267I-000492J0000000D01*
G01*
X0187933Y0283267D01*
G75*
G02*
X0187441Y0283760I0000000J0000492D01*
G01*
G37*
G36*
G01*
X0184292Y0283760D02*
X0184292Y0288681D01*
G75*
G02*
X0184784Y0289173I0000492J0000000D01*
G01*
X0185768Y0289173D01*
G75*
G02*
X0186260Y0288681I0000000J-000492D01*
G01*
X0186260Y0283760D01*
G75*
G02*
X0185768Y0283267I-000492J0000000D01*
G01*
X0184784Y0283267D01*
G75*
G02*
X0184292Y0283760I0000000J0000492D01*
G01*
G37*
G36*
G01*
X0181142Y0283760D02*
X0181142Y0288681D01*
G75*
G02*
X0181634Y0289173I0000492J0000000D01*
G01*
X0182618Y0289173D01*
G75*
G02*
X0183111Y0288681I0000000J-000492D01*
G01*
X0183111Y0283760D01*
G75*
G02*
X0182618Y0283267I-000492J0000000D01*
G01*
X0181634Y0283267D01*
G75*
G02*
X0181142Y0283760I0000000J0000492D01*
G01*
G37*
G36*
G01*
X0177993Y0283760D02*
X0177993Y0288681D01*
G75*
G02*
X0178485Y0289173I0000492J0000000D01*
G01*
X0179469Y0289173D01*
G75*
G02*
X0179961Y0288681I0000000J-000492D01*
G01*
X0179961Y0283760D01*
G75*
G02*
X0179469Y0283267I-000492J0000000D01*
G01*
X0178485Y0283267D01*
G75*
G02*
X0177993Y0283760I0000000J0000492D01*
G01*
G37*
G36*
G01*
X0174843Y0283760D02*
X0174843Y0288681D01*
G75*
G02*
X0175335Y0289173I0000492J0000000D01*
G01*
X0176319Y0289173D01*
G75*
G02*
X0176811Y0288681I0000000J-000492D01*
G01*
X0176811Y0283760D01*
G75*
G02*
X0176319Y0283267I-000492J0000000D01*
G01*
X0175335Y0283267D01*
G75*
G02*
X0174843Y0283760I0000000J0000492D01*
G01*
G37*
G36*
G01*
X0171693Y0283760D02*
X0171693Y0288681D01*
G75*
G02*
X0172185Y0289173I0000492J0000000D01*
G01*
X0173170Y0289173D01*
G75*
G02*
X0173662Y0288681I0000000J-000492D01*
G01*
X0173662Y0283760D01*
G75*
G02*
X0173170Y0283267I-000492J0000000D01*
G01*
X0172185Y0283267D01*
G75*
G02*
X0171693Y0283760I0000000J0000492D01*
G01*
G37*
G36*
G01*
X0168544Y0283760D02*
X0168544Y0288681D01*
G75*
G02*
X0169036Y0289173I0000492J0000000D01*
G01*
X0170020Y0289173D01*
G75*
G02*
X0170512Y0288681I0000000J-000492D01*
G01*
X0170512Y0283760D01*
G75*
G02*
X0170020Y0283267I-000492J0000000D01*
G01*
X0169036Y0283267D01*
G75*
G02*
X0168544Y0283760I0000000J0000492D01*
G01*
G37*
G36*
G01*
X0165394Y0283760D02*
X0165394Y0288681D01*
G75*
G02*
X0165886Y0289173I0000492J0000000D01*
G01*
X0166870Y0289173D01*
G75*
G02*
X0167363Y0288681I0000000J-000492D01*
G01*
X0167363Y0283760D01*
G75*
G02*
X0166870Y0283267I-000492J0000000D01*
G01*
X0165886Y0283267D01*
G75*
G02*
X0165394Y0283760I0000000J0000492D01*
G01*
G37*
G36*
G01*
X0200020Y0262214D02*
X0200020Y0263573D01*
G75*
G02*
X0200601Y0264153I0000581J0000000D01*
G01*
X0201762Y0264153D01*
G75*
G02*
X0202343Y0263573I0000000J-000581D01*
G01*
X0202343Y0262214D01*
G75*
G02*
X0201762Y0261634I-000581J0000000D01*
G01*
X0200601Y0261634D01*
G75*
G02*
X0200020Y0262214I0000000J0000581D01*
G01*
G37*
G36*
G01*
X0203839Y0262214D02*
X0203839Y0263573D01*
G75*
G02*
X0204420Y0264153I0000581J0000000D01*
G01*
X0205581Y0264153D01*
G75*
G02*
X0206162Y0263573I0000000J-000581D01*
G01*
X0206162Y0262214D01*
G75*
G02*
X0205581Y0261634I-000581J0000000D01*
G01*
X0204420Y0261634D01*
G75*
G02*
X0203839Y0262214I0000000J0000581D01*
G01*
G37*
G36*
G01*
X0192943Y0285610D02*
X0191585Y0285610D01*
G75*
G02*
X0191004Y0286191I0000000J0000581D01*
G01*
X0191004Y0287352D01*
G75*
G02*
X0191585Y0287933I0000581J0000000D01*
G01*
X0192943Y0287933D01*
G75*
G02*
X0193524Y0287352I0000000J-000581D01*
G01*
X0193524Y0286191D01*
G75*
G02*
X0192943Y0285610I-000581J0000000D01*
G01*
G37*
G36*
G01*
X0192943Y0289429D02*
X0191585Y0289429D01*
G75*
G02*
X0191004Y0290010I0000000J0000581D01*
G01*
X0191004Y0291171D01*
G75*
G02*
X0191585Y0291752I0000581J0000000D01*
G01*
X0192943Y0291752D01*
G75*
G02*
X0193524Y0291171I0000000J-000581D01*
G01*
X0193524Y0290010D01*
G75*
G02*
X0192943Y0289429I-000581J0000000D01*
G01*
G37*
G36*
G01*
X0216587Y0263573D02*
X0216587Y0262214D01*
G75*
G02*
X0216006Y0261634I-000581J0000000D01*
G01*
X0214845Y0261634D01*
G75*
G02*
X0214264Y0262214I0000000J0000581D01*
G01*
X0214264Y0263573D01*
G75*
G02*
X0214845Y0264153I0000581J0000000D01*
G01*
X0216006Y0264153D01*
G75*
G02*
X0216587Y0263573I0000000J-000581D01*
G01*
G37*
G36*
G01*
X0212768Y0263573D02*
X0212768Y0262214D01*
G75*
G02*
X0212187Y0261634I-000581J0000000D01*
G01*
X0211026Y0261634D01*
G75*
G02*
X0210445Y0262214I0000000J0000581D01*
G01*
X0210445Y0263573D01*
G75*
G02*
X0211026Y0264153I0000581J0000000D01*
G01*
X0212187Y0264153D01*
G75*
G02*
X0212768Y0263573I0000000J-000581D01*
G01*
G37*
D150*
X0215099Y0257972D03*
X0207618Y0257972D03*
X0211359Y0250098D03*
G36*
G01*
X0156034Y0283740D02*
X0154676Y0283740D01*
G75*
G02*
X0154095Y0284321I0000000J0000581D01*
G01*
X0154095Y0285482D01*
G75*
G02*
X0154676Y0286063I0000581J0000000D01*
G01*
X0156034Y0286063D01*
G75*
G02*
X0156615Y0285482I0000000J-000581D01*
G01*
X0156615Y0284321D01*
G75*
G02*
X0156034Y0283740I-000581J0000000D01*
G01*
G37*
G36*
G01*
X0156034Y0287559D02*
X0154676Y0287559D01*
G75*
G02*
X0154095Y0288140I0000000J0000581D01*
G01*
X0154095Y0289301D01*
G75*
G02*
X0154676Y0289882I0000581J0000000D01*
G01*
X0156034Y0289882D01*
G75*
G02*
X0156615Y0289301I0000000J-000581D01*
G01*
X0156615Y0288140D01*
G75*
G02*
X0156034Y0287559I-000581J0000000D01*
G01*
G37*
G36*
G01*
X0202161Y0248701D02*
X0200143Y0248701D01*
G75*
G02*
X0199282Y0249562I0000000J0000861D01*
G01*
X0199282Y0251284D01*
G75*
G02*
X0200143Y0252145I0000861J0000000D01*
G01*
X0202161Y0252145D01*
G75*
G02*
X0203022Y0251284I0000000J-000861D01*
G01*
X0203022Y0249562D01*
G75*
G02*
X0202161Y0248701I-000861J0000000D01*
G01*
G37*
G36*
G01*
X0202161Y0254901D02*
X0200143Y0254901D01*
G75*
G02*
X0199282Y0255763I0000000J0000861D01*
G01*
X0199282Y0257485D01*
G75*
G02*
X0200143Y0258346I0000861J0000000D01*
G01*
X0202161Y0258346D01*
G75*
G02*
X0203022Y0257485I0000000J-000861D01*
G01*
X0203022Y0255763D01*
G75*
G02*
X0202161Y0254901I-000861J0000000D01*
G01*
G37*
D154*
X0217914Y0290846D03*
X0197914Y0294846D03*
X0197914Y0286846D03*
D151*
X0212914Y0293346D03*
X0212914Y0288346D03*
X0207914Y0293346D03*
X0207914Y0288346D03*
X0202914Y0293346D03*
X0202914Y0288346D03*
D152*
X0128426Y0251968D03*
D153*
X0138426Y0251968D03*
X0148426Y0251968D03*
X0323169Y0223169D02*
G01*
G75*
D385*
X0199547Y0205079D02*
D03*
X0192460Y0205079D02*
D03*
X0192460Y0215118D02*
D03*
X0199547Y0215118D02*
D03*
X0311358Y0156338D02*
D03*
X0318445Y0156338D02*
D03*
X0318445Y0166378D02*
D03*
X0311358Y0166378D02*
D03*
X0311358Y0150236D02*
D03*
X0318445Y0150236D02*
D03*
X0318445Y0140196D02*
D03*
X0311358Y0140196D02*
D03*
D386*
X0199547Y0208523D02*
D03*
X0199547Y0211673D02*
D03*
X0192460Y0211673D02*
D03*
X0192460Y0208523D02*
D03*
X0318445Y0162933D02*
D03*
X0318445Y0159783D02*
D03*
X0311358Y0159783D02*
D03*
X0311358Y0162933D02*
D03*
X0311358Y0146791D02*
D03*
X0311358Y0143641D02*
D03*
X0318445Y0143641D02*
D03*
X0318445Y0146791D02*
D03*
D387*
X0203759Y0208075D02*
D03*
X0203759Y0205516D02*
D03*
X0203759Y0202956D02*
D03*
X0211239Y0208075D02*
D03*
X0211239Y0202956D02*
D03*
X0211239Y0205516D02*
D03*
X0211239Y0212700D02*
D03*
X0211239Y0217819D02*
D03*
X0203759Y0212700D02*
D03*
X0203759Y0215260D02*
D03*
X0203759Y0217819D02*
D03*
X0211239Y0215260D02*
D03*
D186*
X0270967Y0108799D02*
D03*
X0270967Y0110767D02*
D03*
X0270967Y0112736D02*
D03*
X0270967Y0114704D02*
D03*
X0270967Y0116673D02*
D03*
X0270967Y0118641D02*
D03*
X0270967Y0120610D02*
D03*
X0270967Y0122578D02*
D03*
X0270967Y0124547D02*
D03*
X0270967Y0128484D02*
D03*
X0270967Y0130453D02*
D03*
X0270967Y0132421D02*
D03*
X0270967Y0134390D02*
D03*
X0270967Y0136358D02*
D03*
X0270967Y0138327D02*
D03*
X0270967Y0140295D02*
D03*
X0270967Y0142264D02*
D03*
X0270967Y0144232D02*
D03*
X0270967Y0146201D02*
D03*
X0270967Y0148169D02*
D03*
X0270967Y0150137D02*
D03*
X0270967Y0152106D02*
D03*
X0270967Y0154074D02*
D03*
X0270967Y0156043D02*
D03*
X0209943Y0156043D02*
D03*
X0209943Y0154074D02*
D03*
X0209943Y0152106D02*
D03*
X0209943Y0150137D02*
D03*
X0209943Y0148169D02*
D03*
X0209943Y0146201D02*
D03*
X0209943Y0144232D02*
D03*
X0209943Y0142264D02*
D03*
X0209943Y0140295D02*
D03*
X0209943Y0138327D02*
D03*
X0209943Y0136358D02*
D03*
X0209943Y0134390D02*
D03*
X0209943Y0132421D02*
D03*
X0209943Y0130453D02*
D03*
X0209943Y0128484D02*
D03*
X0209943Y0126516D02*
D03*
X0209943Y0124547D02*
D03*
X0209943Y0122578D02*
D03*
X0209943Y0120610D02*
D03*
X0209943Y0118641D02*
D03*
X0209943Y0116673D02*
D03*
X0209943Y0114704D02*
D03*
X0209943Y0112736D02*
D03*
X0209943Y0108799D02*
D03*
X0270967Y0126516D02*
D03*
X0209943Y0110767D02*
D03*
D187*
X0264077Y0162933D02*
D03*
X0260140Y0162933D02*
D03*
X0258171Y0162933D02*
D03*
X0256203Y0162933D02*
D03*
X0254234Y0162933D02*
D03*
X0252266Y0162933D02*
D03*
X0250297Y0162933D02*
D03*
X0248329Y0162933D02*
D03*
X0246360Y0162933D02*
D03*
X0244392Y0162933D02*
D03*
X0242423Y0162933D02*
D03*
X0240455Y0162933D02*
D03*
X0238486Y0162933D02*
D03*
X0236518Y0162933D02*
D03*
X0234549Y0162933D02*
D03*
X0232581Y0162933D02*
D03*
X0230612Y0162933D02*
D03*
X0228644Y0162933D02*
D03*
X0226675Y0162933D02*
D03*
X0224707Y0162933D02*
D03*
X0222738Y0162933D02*
D03*
X0220770Y0162933D02*
D03*
X0218801Y0162933D02*
D03*
X0216833Y0162933D02*
D03*
X0216833Y0101909D02*
D03*
X0218801Y0101909D02*
D03*
X0220770Y0101909D02*
D03*
X0222738Y0101909D02*
D03*
X0224707Y0101909D02*
D03*
X0226675Y0101909D02*
D03*
X0228644Y0101909D02*
D03*
X0230612Y0101909D02*
D03*
X0232581Y0101909D02*
D03*
X0234549Y0101909D02*
D03*
X0236518Y0101909D02*
D03*
X0238486Y0101909D02*
D03*
X0240455Y0101909D02*
D03*
X0242423Y0101909D02*
D03*
X0244392Y0101909D02*
D03*
X0246360Y0101909D02*
D03*
X0248329Y0101909D02*
D03*
X0250297Y0101909D02*
D03*
X0252266Y0101909D02*
D03*
X0254234Y0101909D02*
D03*
X0256203Y0101909D02*
D03*
X0258171Y0101909D02*
D03*
X0260140Y0101909D02*
D03*
X0262108Y0101909D02*
D03*
X0264077Y0101909D02*
D03*
X0262108Y0162933D02*
D03*
D188*
X0267460Y0179862D02*
D03*
X0239508Y0179862D02*
D03*
X0295413Y0179862D02*
D03*
X0289901Y0184980D02*
D03*
X0261948Y0174744D02*
D03*
X0261948Y0177303D02*
D03*
X0261948Y0179862D02*
D03*
X0261948Y0182421D02*
D03*
X0261948Y0184980D02*
D03*
X0261948Y0187539D02*
D03*
X0261948Y0190098D02*
D03*
X0239508Y0174744D02*
D03*
X0239508Y0177303D02*
D03*
X0239508Y0182421D02*
D03*
X0239508Y0184980D02*
D03*
X0239508Y0187539D02*
D03*
X0239508Y0190098D02*
D03*
X0317854Y0174744D02*
D03*
X0317854Y0177303D02*
D03*
X0317854Y0179862D02*
D03*
X0317854Y0182421D02*
D03*
X0317854Y0184980D02*
D03*
X0317854Y0187539D02*
D03*
X0317854Y0190098D02*
D03*
X0295413Y0174744D02*
D03*
X0295413Y0177303D02*
D03*
X0295413Y0182421D02*
D03*
X0295413Y0184980D02*
D03*
X0295413Y0187539D02*
D03*
X0295413Y0190098D02*
D03*
X0289901Y0174744D02*
D03*
X0289901Y0177303D02*
D03*
X0289901Y0179862D02*
D03*
X0289901Y0182421D02*
D03*
X0289901Y0187539D02*
D03*
X0289901Y0190098D02*
D03*
X0267460Y0174744D02*
D03*
X0267460Y0177303D02*
D03*
X0267460Y0182421D02*
D03*
X0267460Y0184980D02*
D03*
X0267460Y0187539D02*
D03*
X0267460Y0190098D02*
D03*
X0211555Y0190098D02*
D03*
X0211555Y0187539D02*
D03*
X0211555Y0184980D02*
D03*
X0211555Y0182421D02*
D03*
X0211555Y0179862D02*
D03*
X0211555Y0177303D02*
D03*
X0211555Y0174744D02*
D03*
X0233996Y0190098D02*
D03*
X0233996Y0187539D02*
D03*
X0233996Y0184980D02*
D03*
X0233996Y0182421D02*
D03*
X0233996Y0179862D02*
D03*
X0233996Y0177303D02*
D03*
X0233996Y0174744D02*
D03*
D189*
X0213051Y0088976D02*
D03*
X0213051Y0093976D02*
D03*
X0218051Y0088976D02*
D03*
X0218051Y0093976D02*
D03*
X0223051Y0088976D02*
D03*
X0223051Y0093976D02*
D03*
D388*
X0198760Y0087736D02*
D03*
X0195019Y0087736D02*
D03*
X0202500Y0087736D02*
D03*
X0202500Y0097185D02*
D03*
X0198760Y0097185D02*
D03*
X0195019Y0097185D02*
D03*
D389*
X0197310Y0108996D02*
D03*
X0197310Y0104271D02*
D03*
X0198779Y0118543D02*
D03*
X0285319Y0091758D02*
D03*
X0272007Y0167624D02*
D03*
X0201246Y0108996D02*
D03*
X0194841Y0118543D02*
D03*
X0200141Y0155527D02*
D03*
X0196204Y0155527D02*
D03*
X0200141Y0164582D02*
D03*
X0196204Y0164582D02*
D03*
X0201246Y0104271D02*
D03*
X0281382Y0091758D02*
D03*
X0288459Y0108473D02*
D03*
X0284522Y0108473D02*
D03*
X0268070Y0167624D02*
D03*
X0268051Y0163328D02*
D03*
X0271988Y0163328D02*
D03*
D192*
X0194853Y0127178D02*
D03*
X0194853Y0129146D02*
D03*
X0201152Y0125209D02*
D03*
X0201152Y0127178D02*
D03*
X0201152Y0123241D02*
D03*
X0201152Y0129146D02*
D03*
X0194853Y0123241D02*
D03*
X0194853Y0125209D02*
D03*
D193*
X0197018Y0129343D02*
D03*
X0198987Y0129343D02*
D03*
X0198987Y0123044D02*
D03*
X0197018Y0123044D02*
D03*
D390*
X0199758Y0134193D02*
D03*
X0199758Y0150728D02*
D03*
D391*
X0228287Y0206634D02*
D03*
X0218838Y0206634D02*
D03*
X0223563Y0206634D02*
D03*
X0233011Y0206634D02*
D03*
X0218838Y0218051D02*
D03*
X0228287Y0218051D02*
D03*
X0223563Y0218051D02*
D03*
X0233011Y0218051D02*
D03*
X0239221Y0199654D02*
D03*
X0239221Y0195717D02*
D03*
X0233011Y0214114D02*
D03*
D03*
X0233011Y0210177D02*
D03*
X0228287Y0214114D02*
D03*
X0228287Y0210177D02*
D03*
X0233011Y0202697D02*
D03*
X0223563Y0214114D02*
D03*
X0223563Y0210177D02*
D03*
X0228287Y0202697D02*
D03*
X0223563Y0202697D02*
D03*
X0218838Y0214114D02*
D03*
X0218838Y0210177D02*
D03*
X0218838Y0214114D02*
D03*
X0218838Y0202697D02*
D03*
X0228287Y0214114D02*
D03*
X0223563Y0214114D02*
D03*
X0319035Y0211752D02*
D03*
X0319035Y0215689D02*
D03*
X0294429Y0214114D02*
D03*
X0294429Y0218051D02*
D03*
X0280256Y0214114D02*
D03*
X0280256Y0218051D02*
D03*
X0261358Y0210177D02*
D03*
X0261358Y0214114D02*
D03*
X0261358Y0218051D02*
D03*
X0261358Y0214114D02*
D03*
X0247185Y0210177D02*
D03*
X0247185Y0214114D02*
D03*
X0319035Y0195019D02*
D03*
X0319035Y0198956D02*
D03*
X0313326Y0214114D02*
D03*
X0313326Y0210177D02*
D03*
X0308602Y0214114D02*
D03*
X0308602Y0210177D02*
D03*
X0303878Y0214114D02*
D03*
X0303878Y0210177D02*
D03*
X0299153Y0214114D02*
D03*
X0299153Y0210177D02*
D03*
X0313326Y0214114D02*
D03*
X0313326Y0218051D02*
D03*
X0308602Y0214114D02*
D03*
X0308602Y0218051D02*
D03*
X0303878Y0214114D02*
D03*
X0303878Y0218051D02*
D03*
X0299153Y0214114D02*
D03*
X0299153Y0218051D02*
D03*
X0294429Y0214114D02*
D03*
X0294429Y0210177D02*
D03*
X0289704Y0214114D02*
D03*
X0289704Y0210177D02*
D03*
X0284980Y0214114D02*
D03*
X0284980Y0210177D02*
D03*
X0280256Y0214114D02*
D03*
X0280256Y0210177D02*
D03*
X0289704Y0214114D02*
D03*
X0289704Y0218051D02*
D03*
X0284980Y0214114D02*
D03*
X0284980Y0218051D02*
D03*
X0275531Y0210177D02*
D03*
X0275531Y0214114D02*
D03*
X0270807Y0210177D02*
D03*
X0270807Y0214114D02*
D03*
X0266082Y0210177D02*
D03*
X0266082Y0214114D02*
D03*
X0275531Y0218051D02*
D03*
X0275531Y0214114D02*
D03*
X0270807Y0218051D02*
D03*
X0270807Y0214114D02*
D03*
X0266082Y0218051D02*
D03*
X0266082Y0214114D02*
D03*
X0256633Y0210177D02*
D03*
X0256633Y0214114D02*
D03*
X0251909Y0210177D02*
D03*
X0251909Y0214114D02*
D03*
X0242460Y0210177D02*
D03*
X0242460Y0214114D02*
D03*
X0256633Y0218051D02*
D03*
X0256633Y0214114D02*
D03*
X0251909Y0218051D02*
D03*
X0251909Y0214114D02*
D03*
X0247185Y0218051D02*
D03*
X0247185Y0214114D02*
D03*
X0242460Y0218051D02*
D03*
X0242460Y0214114D02*
D03*
X0319035Y0204075D02*
D03*
X0319035Y0208012D02*
D03*
D392*
X0254271Y0201122D02*
D03*
X0273169Y0201122D02*
D03*
X0292067Y0201122D02*
D03*
X0310964Y0201122D02*
D03*
X0282618Y0197382D02*
D03*
X0282618Y0201122D02*
D03*
X0282618Y0204862D02*
D03*
X0292067Y0204862D02*
D03*
X0292067Y0197382D02*
D03*
X0301515Y0197382D02*
D03*
X0301515Y0201122D02*
D03*
X0301515Y0204862D02*
D03*
X0310964Y0204862D02*
D03*
X0310964Y0197382D02*
D03*
X0263720Y0197382D02*
D03*
X0263720Y0201122D02*
D03*
X0263720Y0204862D02*
D03*
X0273169Y0204862D02*
D03*
X0273169Y0197382D02*
D03*
X0244822Y0197382D02*
D03*
X0244822Y0201122D02*
D03*
X0244822Y0204862D02*
D03*
X0254271Y0204862D02*
D03*
X0254271Y0197382D02*
D03*
D393*
X0288256Y0104087D02*
D03*
X0270334Y0093838D02*
D03*
D198*
X0297578Y0129210D02*
D03*
X0316476Y0134210D02*
D03*
X0316476Y0119210D02*
D03*
X0316476Y0124210D02*
D03*
X0316476Y0129210D02*
D03*
X0297578Y0119210D02*
D03*
X0297578Y0124210D02*
D03*
X0297578Y0134210D02*
D03*
D394*
X0315886Y0111569D02*
D03*
X0297775Y0111569D02*
D03*
D395*
X0281424Y0143095D02*
D03*
X0297633Y0143643D02*
D03*
X0280947Y0151255D02*
D03*
X0280947Y0158866D02*
D03*
X0297633Y0151255D02*
D03*
X0297633Y0158866D02*
D03*
X0280947Y0166478D02*
D03*
X0297633Y0166478D02*
D03*
X0288117Y0143095D02*
D03*
X0287640Y0151255D02*
D03*
X0287640Y0158866D02*
D03*
X0287640Y0166478D02*
D03*
X0304326Y0151255D02*
D03*
X0304326Y0143643D02*
D03*
X0288117Y0135118D02*
D03*
X0281424Y0135118D02*
D03*
X0281424Y0128031D02*
D03*
X0288117Y0128031D02*
D03*
X0288117Y0120945D02*
D03*
X0281424Y0120945D02*
D03*
X0281424Y0113858D02*
D03*
X0288117Y0113858D02*
D03*
X0304326Y0158866D02*
D03*
X0304326Y0166478D02*
D03*
X0281424Y0086358D02*
D03*
X0288117Y0086358D02*
D03*
D396*
X0194750Y0113771D02*
D03*
X0201050Y0113771D02*
D03*
X0202110Y0160212D02*
D03*
X0195810Y0160212D02*
D03*
D397*
X0235375Y0090829D02*
D03*
X0251910Y0090829D02*
D03*
D393*
X0270334Y0086358D02*
D03*
X0261082Y0090098D02*
D03*
X0288256Y0096607D02*
D03*
X0279004Y0100347D02*
D03*
D398*
X0306830Y0087159D02*
D03*
D399*
X0306830Y0111569D02*
D03*
D205*
X0237539Y0214114D02*
D03*
X0318445Y0220019D02*
D03*
D400*
X0200348Y0196372D02*
D03*
X0200348Y0178656D02*
D03*
D66*
X0245256Y0169035D02*
D03*
X0231043Y0169035D02*
D03*
X0261043Y0169035D02*
D03*
D207*
X0208051Y0091476D02*
D03*
X0228051Y0095476D02*
D03*
X0228051Y0087476D02*
D03*
D33*
X0318838Y0085767D02*
D03*
X0393720Y0274439D02*
G01*
G75*
D121*
X0362519Y0298848D02*
D03*
X0362224Y0284872D02*
D03*
X0363405Y0279852D02*
D03*
X0366850Y0281919D02*
D03*
M02*
