G04 #@! TF.GenerationSoftware,KiCad,Pcbnew,8.0.8-8.0.8-0~ubuntu24.04.1*
G04 #@! TF.CreationDate,2025-02-15T13:53:04+00:00*
G04 #@! TF.ProjectId,MST01,4d535430-312e-46b6-9963-61645f706362,D*
G04 #@! TF.SameCoordinates,PX440a368PY8a86a58*
G04 #@! TF.FileFunction,Soldermask,Bot*
G04 #@! TF.FilePolarity,Negative*
%FSLAX46Y46*%
G04 Gerber Fmt 4.6, Leading zero omitted, Abs format (unit mm)*
G04 Created by KiCad (PCBNEW 8.0.8-8.0.8-0~ubuntu24.04.1) date 2025-02-15 13:53:04*
%MOMM*%
%LPD*%
G01*
G04 APERTURE LIST*
%ADD10C,0.120000*%
%ADD11C,3.000000*%
%ADD12C,1.700000*%
%ADD13C,1.500000*%
%ADD14C,0.600000*%
%ADD15R,1.100000X1.100000*%
%ADD16C,1.100000*%
%ADD17O,1.100000X2.400000*%
%ADD18C,2.400000*%
%ADD19C,0.700000*%
%ADD20C,4.000000*%
%ADD21R,1.700000X1.700000*%
%ADD22O,1.700000X1.700000*%
%ADD23O,1.750000X1.200000*%
%ADD24R,4.399991X2.299995*%
%ADD25R,3.999992X2.299995*%
%ADD26C,1.524000*%
%ADD27R,0.650000X2.000000*%
%ADD28R,8.100000X4.500000*%
%ADD29O,0.499999X0.250000*%
%ADD30O,0.250000X0.499999*%
%ADD31C,0.599999*%
G04 APERTURE END LIST*
D10*
G04 #@! TO.C,U5*
X81450000Y1125000D02*
X74750000Y1125000D01*
X74750000Y13325000D01*
X81450000Y13325000D01*
X81450000Y1125000D01*
G36*
X81450000Y1125000D02*
G01*
X74750000Y1125000D01*
X74750000Y13325000D01*
X81450000Y13325000D01*
X81450000Y1125000D01*
G37*
G04 #@! TD*
D11*
G04 #@! TO.C,H1*
X59405000Y67055000D03*
G04 #@! TD*
D12*
G04 #@! TO.C,P9*
X33565000Y50255000D03*
G04 #@! TD*
G04 #@! TO.C,P8*
X76935000Y17375000D03*
G04 #@! TD*
G04 #@! TO.C,P5*
X106455000Y31555000D03*
G04 #@! TD*
D13*
G04 #@! TO.C,M1*
X44039997Y21739997D03*
X44039997Y15340000D03*
X44039997Y13439997D03*
X44039997Y9139997D03*
D14*
X44489996Y6740000D03*
X44489996Y5739999D03*
D13*
X44039997Y2889997D03*
X28540000Y22189999D03*
X28540000Y20340000D03*
X28540000Y15389997D03*
X28540000Y3339999D03*
G04 #@! TD*
D12*
G04 #@! TO.C,P12*
X39595000Y26865000D03*
G04 #@! TD*
G04 #@! TO.C,P4*
X61505000Y17385000D03*
G04 #@! TD*
D14*
G04 #@! TO.C,M3*
X101755000Y29600000D03*
X102955000Y29600000D03*
X100555000Y29600000D03*
X99355000Y29600000D03*
X105815000Y15175000D03*
X106815000Y15175000D03*
G04 #@! TD*
D15*
G04 #@! TO.C,J8*
X50025000Y16070000D03*
D16*
X50825000Y17820000D03*
X51625000Y16070000D03*
X52425000Y17820000D03*
X53225000Y16070000D03*
D17*
X47975000Y16945000D03*
X55275000Y16945000D03*
G04 #@! TD*
D14*
G04 #@! TO.C,M2*
X90215000Y66485000D03*
X90215000Y67435000D03*
X90215000Y68384998D03*
X98915000Y67385000D03*
X98915000Y66485000D03*
G04 #@! TD*
D12*
G04 #@! TO.C,P6*
X103035000Y54265000D03*
G04 #@! TD*
D18*
G04 #@! TO.C,J2*
X96475000Y60455000D03*
X96475000Y56455000D03*
X96475000Y52455000D03*
X96475000Y48455000D03*
X96475000Y44455000D03*
X96475000Y40455000D03*
X96475000Y36455000D03*
X96475000Y32455000D03*
X96475000Y28455000D03*
X96475000Y24455000D03*
X96475000Y20455000D03*
X96475000Y16455000D03*
X92475000Y58455000D03*
X92475000Y54455000D03*
X92475000Y50455000D03*
X92475000Y46455000D03*
X92475000Y42455000D03*
X92475000Y38455000D03*
X92475000Y34455000D03*
X92475000Y30455000D03*
X92475000Y26455000D03*
X92475000Y22455000D03*
X92475000Y18455000D03*
X88475000Y60455000D03*
X88475000Y56455000D03*
X88475000Y52455000D03*
X88475000Y48455000D03*
X88475000Y44455000D03*
X88475000Y40455000D03*
X88475000Y36455000D03*
X88475000Y32455000D03*
X88475000Y28455000D03*
X88475000Y24455000D03*
X88475000Y20455000D03*
X88475000Y16455000D03*
D19*
X85175000Y73205000D03*
X86275000Y72755000D03*
X84075000Y72755000D03*
X103275000Y71705000D03*
X86725000Y71655000D03*
D20*
X85175000Y71655000D03*
D19*
X83625000Y71655000D03*
X104375000Y71255000D03*
X102175000Y71255000D03*
X86275000Y70555000D03*
X84075000Y70555000D03*
X104825000Y70155000D03*
D20*
X103275000Y70155000D03*
D19*
X101725000Y70155000D03*
X85175000Y70105000D03*
X104375000Y69055000D03*
X102175000Y69055000D03*
X103275000Y68605000D03*
X103275000Y8305000D03*
X104375000Y7855000D03*
X102175000Y7855000D03*
X85175000Y6805000D03*
X104825000Y6755000D03*
D20*
X103275000Y6755000D03*
D19*
X101725000Y6755000D03*
X86275000Y6355000D03*
X84075000Y6355000D03*
X104375000Y5655000D03*
X102175000Y5655000D03*
X86725000Y5255000D03*
D20*
X85175000Y5255000D03*
D19*
X83625000Y5255000D03*
X103275000Y5205000D03*
X86275000Y4155000D03*
X84075000Y4155000D03*
X85175000Y3705000D03*
G04 #@! TD*
D12*
G04 #@! TO.C,P10*
X36595000Y26875000D03*
G04 #@! TD*
G04 #@! TO.C,P1*
X85025000Y28465000D03*
G04 #@! TD*
D11*
G04 #@! TO.C,H2*
X72905000Y67055000D03*
G04 #@! TD*
D12*
G04 #@! TO.C,G3*
X39625000Y36155000D03*
X39625000Y38695000D03*
X39625000Y41235000D03*
X39625000Y43775000D03*
X39625000Y46315000D03*
X42165000Y36155000D03*
X42165000Y38695000D03*
X42165000Y41235000D03*
X42165000Y43775000D03*
X42165000Y46315000D03*
X44705000Y36155000D03*
X44705000Y38695000D03*
X44705000Y41235000D03*
X44705000Y43775000D03*
X44705000Y46315000D03*
G04 #@! TD*
G04 #@! TO.C,P3*
X64005000Y17385000D03*
G04 #@! TD*
G04 #@! TO.C,P11*
X41095000Y28995000D03*
G04 #@! TD*
G04 #@! TO.C,P17*
X38095000Y28986800D03*
G04 #@! TD*
G04 #@! TO.C,P7*
X79085000Y17375000D03*
G04 #@! TD*
G04 #@! TO.C,P15*
X42595000Y26875000D03*
G04 #@! TD*
D21*
G04 #@! TO.C,J6*
X60175000Y75475000D03*
D22*
X62715000Y75475000D03*
X65255000Y75475000D03*
X67795000Y75475000D03*
X70335000Y75475000D03*
G04 #@! TD*
D14*
G04 #@! TO.C,M4*
X101710000Y51565000D03*
X102910000Y51565000D03*
X100510000Y51565000D03*
X99310000Y51565000D03*
X105770000Y37140000D03*
X106770000Y37140000D03*
G04 #@! TD*
D18*
G04 #@! TO.C,J1*
X12355000Y16455000D03*
X12355000Y20455000D03*
X12355000Y24455000D03*
X12355000Y28455000D03*
X12355000Y32455000D03*
X12355000Y36455000D03*
X12355000Y40455000D03*
X12355000Y44455000D03*
X12355000Y48455000D03*
X12355000Y52455000D03*
X12355000Y56455000D03*
X12355000Y60455000D03*
X16355000Y18455000D03*
X16355000Y22455000D03*
X16355000Y26455000D03*
X16355000Y30455000D03*
X16355000Y34455000D03*
X16355000Y38455000D03*
X16355000Y42455000D03*
X16355000Y46455000D03*
X16355000Y50455000D03*
X16355000Y54455000D03*
X16355000Y58455000D03*
X20355000Y16455000D03*
X20355000Y20455000D03*
X20355000Y24455000D03*
X20355000Y28455000D03*
X20355000Y32455000D03*
X20355000Y36455000D03*
X20355000Y40455000D03*
X20355000Y44455000D03*
X20355000Y48455000D03*
X20355000Y52455000D03*
X20355000Y56455000D03*
X20355000Y60455000D03*
D19*
X23655000Y3705000D03*
X22555000Y4155000D03*
X24755000Y4155000D03*
X5555000Y5205000D03*
X22105000Y5255000D03*
D20*
X23655000Y5255000D03*
D19*
X25205000Y5255000D03*
X4455000Y5655000D03*
X6655000Y5655000D03*
X22555000Y6355000D03*
X24755000Y6355000D03*
X4005000Y6755000D03*
D20*
X5555000Y6755000D03*
D19*
X7105000Y6755000D03*
X23655000Y6805000D03*
X4455000Y7855000D03*
X6655000Y7855000D03*
X5555000Y8305000D03*
X5555000Y68605000D03*
X4455000Y69055000D03*
X6655000Y69055000D03*
X23655000Y70105000D03*
X4005000Y70155000D03*
D20*
X5555000Y70155000D03*
D19*
X7105000Y70155000D03*
X22555000Y70555000D03*
X24755000Y70555000D03*
X4455000Y71255000D03*
X6655000Y71255000D03*
X22105000Y71655000D03*
D20*
X23655000Y71655000D03*
D19*
X25205000Y71655000D03*
X5555000Y71705000D03*
X22555000Y72755000D03*
X24755000Y72755000D03*
X23655000Y73205000D03*
G04 #@! TD*
G04 #@! TO.C,J3*
G36*
G01*
X51050000Y5495000D02*
X49800000Y5495000D01*
G75*
G02*
X49550000Y5745000I0J250000D01*
G01*
X49550000Y6445000D01*
G75*
G02*
X49800000Y6695000I250000J0D01*
G01*
X51050000Y6695000D01*
G75*
G02*
X51300000Y6445000I0J-250000D01*
G01*
X51300000Y5745000D01*
G75*
G02*
X51050000Y5495000I-250000J0D01*
G01*
G37*
D23*
X50425000Y8095000D03*
X50425000Y10095000D03*
X50425000Y12095000D03*
G04 #@! TD*
D12*
G04 #@! TO.C,P2*
X85025000Y25685000D03*
G04 #@! TD*
G04 #@! TO.C,G4*
X39625000Y48855000D03*
X39625000Y51395000D03*
X39625000Y53935000D03*
X39625000Y56475000D03*
X39625000Y59015000D03*
X42165000Y48855000D03*
X42165000Y51395000D03*
X42165000Y53935000D03*
X42165000Y56475000D03*
X42165000Y59015000D03*
X44705000Y48855000D03*
X44705000Y51395000D03*
X44705000Y53935000D03*
X44705000Y56475000D03*
X44705000Y59015000D03*
G04 #@! TD*
G04 #@! TO.C,R40*
G36*
G01*
X103895022Y64270000D02*
X103895022Y63020000D01*
G75*
G02*
X103795022Y62920000I-100000J0D01*
G01*
X102995022Y62920000D01*
G75*
G02*
X102895022Y63020000I0J100000D01*
G01*
X102895022Y64270000D01*
G75*
G02*
X102995022Y64370000I100000J0D01*
G01*
X103795022Y64370000D01*
G75*
G02*
X103895022Y64270000I0J-100000D01*
G01*
G37*
G36*
G01*
X101995000Y64270000D02*
X101995000Y63020000D01*
G75*
G02*
X101895000Y62920000I-100000J0D01*
G01*
X101095000Y62920000D01*
G75*
G02*
X100995000Y63020000I0J100000D01*
G01*
X100995000Y64270000D01*
G75*
G02*
X101095000Y64370000I100000J0D01*
G01*
X101895000Y64370000D01*
G75*
G02*
X101995000Y64270000I0J-100000D01*
G01*
G37*
G04 #@! TD*
G04 #@! TO.C,R39*
G36*
G01*
X103895022Y61770000D02*
X103895022Y60520000D01*
G75*
G02*
X103795022Y60420000I-100000J0D01*
G01*
X102995022Y60420000D01*
G75*
G02*
X102895022Y60520000I0J100000D01*
G01*
X102895022Y61770000D01*
G75*
G02*
X102995022Y61870000I100000J0D01*
G01*
X103795022Y61870000D01*
G75*
G02*
X103895022Y61770000I0J-100000D01*
G01*
G37*
G36*
G01*
X101995000Y61770000D02*
X101995000Y60520000D01*
G75*
G02*
X101895000Y60420000I-100000J0D01*
G01*
X101095000Y60420000D01*
G75*
G02*
X100995000Y60520000I0J100000D01*
G01*
X100995000Y61770000D01*
G75*
G02*
X101095000Y61870000I100000J0D01*
G01*
X101895000Y61870000D01*
G75*
G02*
X101995000Y61770000I0J-100000D01*
G01*
G37*
G04 #@! TD*
G04 #@! TO.C,D4*
G36*
G01*
X4860000Y24005000D02*
X4860000Y25025000D01*
G75*
G02*
X4950000Y25115000I90000J0D01*
G01*
X5670000Y25115000D01*
G75*
G02*
X5760000Y25025000I0J-90000D01*
G01*
X5760000Y24005000D01*
G75*
G02*
X5670000Y23915000I-90000J0D01*
G01*
X4950000Y23915000D01*
G75*
G02*
X4860000Y24005000I0J90000D01*
G01*
G37*
G36*
G01*
X8160000Y24005000D02*
X8160000Y25025000D01*
G75*
G02*
X8250000Y25115000I90000J0D01*
G01*
X8970000Y25115000D01*
G75*
G02*
X9060000Y25025000I0J-90000D01*
G01*
X9060000Y24005000D01*
G75*
G02*
X8970000Y23915000I-90000J0D01*
G01*
X8250000Y23915000D01*
G75*
G02*
X8160000Y24005000I0J90000D01*
G01*
G37*
G04 #@! TD*
D13*
G04 #@! TO.C,BT1*
X59455142Y7245000D03*
X66955000Y7245000D03*
D24*
X55355048Y7245000D03*
D25*
X71355067Y7245000D03*
G04 #@! TD*
D26*
G04 #@! TO.C,F3*
X25955000Y9645000D03*
G36*
G01*
X25300010Y8745000D02*
X24610010Y8745000D01*
G75*
G02*
X24380010Y8975000I0J230000D01*
G01*
X24380010Y10315000D01*
G75*
G02*
X24610010Y10545000I230000J0D01*
G01*
X25300010Y10545000D01*
G75*
G02*
X25530010Y10315000I0J-230000D01*
G01*
X25530010Y8975000D01*
G75*
G02*
X25300010Y8745000I-230000J0D01*
G01*
G37*
G36*
G01*
X22399990Y8745000D02*
X21709990Y8745000D01*
G75*
G02*
X21479990Y8975000I0J230000D01*
G01*
X21479990Y10315000D01*
G75*
G02*
X21709990Y10545000I230000J0D01*
G01*
X22399990Y10545000D01*
G75*
G02*
X22629990Y10315000I0J-230000D01*
G01*
X22629990Y8975000D01*
G75*
G02*
X22399990Y8745000I-230000J0D01*
G01*
G37*
X21055000Y9645000D03*
G04 #@! TD*
G04 #@! TO.C,C25*
G36*
G01*
X12949999Y13939994D02*
X12949999Y14619994D01*
G75*
G02*
X13034999Y14704994I85000J0D01*
G01*
X13714999Y14704994D01*
G75*
G02*
X13799999Y14619994I0J-85000D01*
G01*
X13799999Y13939994D01*
G75*
G02*
X13714999Y13854994I-85000J0D01*
G01*
X13034999Y13854994D01*
G75*
G02*
X12949999Y13939994I0J85000D01*
G01*
G37*
G36*
G01*
X14530001Y13939994D02*
X14530001Y14619994D01*
G75*
G02*
X14615001Y14704994I85000J0D01*
G01*
X15295001Y14704994D01*
G75*
G02*
X15380001Y14619994I0J-85000D01*
G01*
X15380001Y13939994D01*
G75*
G02*
X15295001Y13854994I-85000J0D01*
G01*
X14615001Y13854994D01*
G75*
G02*
X14530001Y13939994I0J85000D01*
G01*
G37*
G04 #@! TD*
G04 #@! TO.C,Q8*
G36*
G01*
X1437500Y64205000D02*
X2137500Y64205000D01*
G75*
G02*
X2387500Y63955000I0J-250000D01*
G01*
X2387500Y62255000D01*
G75*
G02*
X2137500Y62005000I-250000J0D01*
G01*
X1437500Y62005000D01*
G75*
G02*
X1187500Y62255000I0J250000D01*
G01*
X1187500Y63955000D01*
G75*
G02*
X1437500Y64205000I250000J0D01*
G01*
G37*
G36*
G01*
X1417497Y60005000D02*
X6717503Y60005000D01*
G75*
G02*
X6967500Y59755003I0J-249997D01*
G01*
X6967500Y53854997D01*
G75*
G02*
X6717503Y53605000I-249997J0D01*
G01*
X1417497Y53605000D01*
G75*
G02*
X1167500Y53854997I0J249997D01*
G01*
X1167500Y59755003D01*
G75*
G02*
X1417497Y60005000I249997J0D01*
G01*
G37*
G36*
G01*
X5997500Y64205000D02*
X6697500Y64205000D01*
G75*
G02*
X6947500Y63955000I0J-250000D01*
G01*
X6947500Y62255000D01*
G75*
G02*
X6697500Y62005000I-250000J0D01*
G01*
X5997500Y62005000D01*
G75*
G02*
X5747500Y62255000I0J250000D01*
G01*
X5747500Y63955000D01*
G75*
G02*
X5997500Y64205000I250000J0D01*
G01*
G37*
G04 #@! TD*
G04 #@! TO.C,Q12*
G36*
G01*
X35020000Y34855000D02*
X35020000Y34155000D01*
G75*
G02*
X34770000Y33905000I-250000J0D01*
G01*
X33070000Y33905000D01*
G75*
G02*
X32820000Y34155000I0J250000D01*
G01*
X32820000Y34855000D01*
G75*
G02*
X33070000Y35105000I250000J0D01*
G01*
X34770000Y35105000D01*
G75*
G02*
X35020000Y34855000I0J-250000D01*
G01*
G37*
G36*
G01*
X30820000Y34875003D02*
X30820000Y29574997D01*
G75*
G02*
X30570003Y29325000I-249997J0D01*
G01*
X24669997Y29325000D01*
G75*
G02*
X24420000Y29574997I0J249997D01*
G01*
X24420000Y34875003D01*
G75*
G02*
X24669997Y35125000I249997J0D01*
G01*
X30570003Y35125000D01*
G75*
G02*
X30820000Y34875003I0J-249997D01*
G01*
G37*
G36*
G01*
X35020000Y30295000D02*
X35020000Y29595000D01*
G75*
G02*
X34770000Y29345000I-250000J0D01*
G01*
X33070000Y29345000D01*
G75*
G02*
X32820000Y29595000I0J250000D01*
G01*
X32820000Y30295000D01*
G75*
G02*
X33070000Y30545000I250000J0D01*
G01*
X34770000Y30545000D01*
G75*
G02*
X35020000Y30295000I0J-250000D01*
G01*
G37*
G04 #@! TD*
G04 #@! TO.C,R34*
G36*
G01*
X935000Y49785000D02*
X935000Y50565000D01*
G75*
G02*
X1005000Y50635000I70000J0D01*
G01*
X1565000Y50635000D01*
G75*
G02*
X1635000Y50565000I0J-70000D01*
G01*
X1635000Y49785000D01*
G75*
G02*
X1565000Y49715000I-70000J0D01*
G01*
X1005000Y49715000D01*
G75*
G02*
X935000Y49785000I0J70000D01*
G01*
G37*
G36*
G01*
X2535000Y49785000D02*
X2535000Y50565000D01*
G75*
G02*
X2605000Y50635000I70000J0D01*
G01*
X3165000Y50635000D01*
G75*
G02*
X3235000Y50565000I0J-70000D01*
G01*
X3235000Y49785000D01*
G75*
G02*
X3165000Y49715000I-70000J0D01*
G01*
X2605000Y49715000D01*
G75*
G02*
X2535000Y49785000I0J70000D01*
G01*
G37*
G04 #@! TD*
G04 #@! TO.C,R1*
G36*
G01*
X102545000Y35405000D02*
X102545000Y36185000D01*
G75*
G02*
X102615000Y36255000I70000J0D01*
G01*
X103175000Y36255000D01*
G75*
G02*
X103245000Y36185000I0J-70000D01*
G01*
X103245000Y35405000D01*
G75*
G02*
X103175000Y35335000I-70000J0D01*
G01*
X102615000Y35335000D01*
G75*
G02*
X102545000Y35405000I0J70000D01*
G01*
G37*
G36*
G01*
X104145000Y35405000D02*
X104145000Y36185000D01*
G75*
G02*
X104215000Y36255000I70000J0D01*
G01*
X104775000Y36255000D01*
G75*
G02*
X104845000Y36185000I0J-70000D01*
G01*
X104845000Y35405000D01*
G75*
G02*
X104775000Y35335000I-70000J0D01*
G01*
X104215000Y35335000D01*
G75*
G02*
X104145000Y35405000I0J70000D01*
G01*
G37*
G04 #@! TD*
G04 #@! TO.C,F4*
X25965000Y11775000D03*
G36*
G01*
X25310010Y10875000D02*
X24620010Y10875000D01*
G75*
G02*
X24390010Y11105000I0J230000D01*
G01*
X24390010Y12445000D01*
G75*
G02*
X24620010Y12675000I230000J0D01*
G01*
X25310010Y12675000D01*
G75*
G02*
X25540010Y12445000I0J-230000D01*
G01*
X25540010Y11105000D01*
G75*
G02*
X25310010Y10875000I-230000J0D01*
G01*
G37*
G36*
G01*
X22409990Y10875000D02*
X21719990Y10875000D01*
G75*
G02*
X21489990Y11105000I0J230000D01*
G01*
X21489990Y12445000D01*
G75*
G02*
X21719990Y12675000I230000J0D01*
G01*
X22409990Y12675000D01*
G75*
G02*
X22639990Y12445000I0J-230000D01*
G01*
X22639990Y11105000D01*
G75*
G02*
X22409990Y10875000I-230000J0D01*
G01*
G37*
X21065000Y11775000D03*
G04 #@! TD*
G04 #@! TO.C,Q10*
G36*
G01*
X35010000Y48865000D02*
X35010000Y48165000D01*
G75*
G02*
X34760000Y47915000I-250000J0D01*
G01*
X33060000Y47915000D01*
G75*
G02*
X32810000Y48165000I0J250000D01*
G01*
X32810000Y48865000D01*
G75*
G02*
X33060000Y49115000I250000J0D01*
G01*
X34760000Y49115000D01*
G75*
G02*
X35010000Y48865000I0J-250000D01*
G01*
G37*
G36*
G01*
X30810000Y48885003D02*
X30810000Y43584997D01*
G75*
G02*
X30560003Y43335000I-249997J0D01*
G01*
X24659997Y43335000D01*
G75*
G02*
X24410000Y43584997I0J249997D01*
G01*
X24410000Y48885003D01*
G75*
G02*
X24659997Y49135000I249997J0D01*
G01*
X30560003Y49135000D01*
G75*
G02*
X30810000Y48885003I0J-249997D01*
G01*
G37*
G36*
G01*
X35010000Y44305000D02*
X35010000Y43605000D01*
G75*
G02*
X34760000Y43355000I-250000J0D01*
G01*
X33060000Y43355000D01*
G75*
G02*
X32810000Y43605000I0J250000D01*
G01*
X32810000Y44305000D01*
G75*
G02*
X33060000Y44555000I250000J0D01*
G01*
X34760000Y44555000D01*
G75*
G02*
X35010000Y44305000I0J-250000D01*
G01*
G37*
G04 #@! TD*
G04 #@! TO.C,R4*
X46805000Y2450000D03*
G36*
G01*
X47430000Y2904999D02*
X46180000Y2904999D01*
G75*
G02*
X46080000Y3004999I0J100000D01*
G01*
X46080000Y3804999D01*
G75*
G02*
X46180000Y3904999I100000J0D01*
G01*
X47430000Y3904999D01*
G75*
G02*
X47530000Y3804999I0J-100000D01*
G01*
X47530000Y3004999D01*
G75*
G02*
X47430000Y2904999I-100000J0D01*
G01*
G37*
G36*
G01*
X47430000Y4805021D02*
X46180000Y4805021D01*
G75*
G02*
X46080000Y4905021I0J100000D01*
G01*
X46080000Y5705021D01*
G75*
G02*
X46180000Y5805021I100000J0D01*
G01*
X47430000Y5805021D01*
G75*
G02*
X47530000Y5705021I0J-100000D01*
G01*
X47530000Y4905021D01*
G75*
G02*
X47430000Y4805021I-100000J0D01*
G01*
G37*
X46805000Y6260000D03*
G04 #@! TD*
G04 #@! TO.C,U11*
G36*
G01*
X1005000Y44700000D02*
X1005000Y45000000D01*
G75*
G02*
X1155000Y45150000I150000J0D01*
G01*
X2805000Y45150000D01*
G75*
G02*
X2955000Y45000000I0J-150000D01*
G01*
X2955000Y44700000D01*
G75*
G02*
X2805000Y44550000I-150000J0D01*
G01*
X1155000Y44550000D01*
G75*
G02*
X1005000Y44700000I0J150000D01*
G01*
G37*
G36*
G01*
X1005000Y45970000D02*
X1005000Y46270000D01*
G75*
G02*
X1155000Y46420000I150000J0D01*
G01*
X2805000Y46420000D01*
G75*
G02*
X2955000Y46270000I0J-150000D01*
G01*
X2955000Y45970000D01*
G75*
G02*
X2805000Y45820000I-150000J0D01*
G01*
X1155000Y45820000D01*
G75*
G02*
X1005000Y45970000I0J150000D01*
G01*
G37*
G36*
G01*
X1005000Y47240000D02*
X1005000Y47540000D01*
G75*
G02*
X1155000Y47690000I150000J0D01*
G01*
X2805000Y47690000D01*
G75*
G02*
X2955000Y47540000I0J-150000D01*
G01*
X2955000Y47240000D01*
G75*
G02*
X2805000Y47090000I-150000J0D01*
G01*
X1155000Y47090000D01*
G75*
G02*
X1005000Y47240000I0J150000D01*
G01*
G37*
G36*
G01*
X1005000Y48510000D02*
X1005000Y48810000D01*
G75*
G02*
X1155000Y48960000I150000J0D01*
G01*
X2805000Y48960000D01*
G75*
G02*
X2955000Y48810000I0J-150000D01*
G01*
X2955000Y48510000D01*
G75*
G02*
X2805000Y48360000I-150000J0D01*
G01*
X1155000Y48360000D01*
G75*
G02*
X1005000Y48510000I0J150000D01*
G01*
G37*
G36*
G01*
X5955000Y48510000D02*
X5955000Y48810000D01*
G75*
G02*
X6105000Y48960000I150000J0D01*
G01*
X7755000Y48960000D01*
G75*
G02*
X7905000Y48810000I0J-150000D01*
G01*
X7905000Y48510000D01*
G75*
G02*
X7755000Y48360000I-150000J0D01*
G01*
X6105000Y48360000D01*
G75*
G02*
X5955000Y48510000I0J150000D01*
G01*
G37*
G36*
G01*
X5955000Y47240000D02*
X5955000Y47540000D01*
G75*
G02*
X6105000Y47690000I150000J0D01*
G01*
X7755000Y47690000D01*
G75*
G02*
X7905000Y47540000I0J-150000D01*
G01*
X7905000Y47240000D01*
G75*
G02*
X7755000Y47090000I-150000J0D01*
G01*
X6105000Y47090000D01*
G75*
G02*
X5955000Y47240000I0J150000D01*
G01*
G37*
G36*
G01*
X5955000Y45970000D02*
X5955000Y46270000D01*
G75*
G02*
X6105000Y46420000I150000J0D01*
G01*
X7755000Y46420000D01*
G75*
G02*
X7905000Y46270000I0J-150000D01*
G01*
X7905000Y45970000D01*
G75*
G02*
X7755000Y45820000I-150000J0D01*
G01*
X6105000Y45820000D01*
G75*
G02*
X5955000Y45970000I0J150000D01*
G01*
G37*
G36*
G01*
X5955000Y44700000D02*
X5955000Y45000000D01*
G75*
G02*
X6105000Y45150000I150000J0D01*
G01*
X7755000Y45150000D01*
G75*
G02*
X7905000Y45000000I0J-150000D01*
G01*
X7905000Y44700000D01*
G75*
G02*
X7755000Y44550000I-150000J0D01*
G01*
X6105000Y44550000D01*
G75*
G02*
X5955000Y44700000I0J150000D01*
G01*
G37*
G04 #@! TD*
G04 #@! TO.C,R37*
G36*
G01*
X107345022Y64270000D02*
X107345022Y63020000D01*
G75*
G02*
X107245022Y62920000I-100000J0D01*
G01*
X106445022Y62920000D01*
G75*
G02*
X106345022Y63020000I0J100000D01*
G01*
X106345022Y64270000D01*
G75*
G02*
X106445022Y64370000I100000J0D01*
G01*
X107245022Y64370000D01*
G75*
G02*
X107345022Y64270000I0J-100000D01*
G01*
G37*
G36*
G01*
X105445000Y64270000D02*
X105445000Y63020000D01*
G75*
G02*
X105345000Y62920000I-100000J0D01*
G01*
X104545000Y62920000D01*
G75*
G02*
X104445000Y63020000I0J100000D01*
G01*
X104445000Y64270000D01*
G75*
G02*
X104545000Y64370000I100000J0D01*
G01*
X105345000Y64370000D01*
G75*
G02*
X105445000Y64270000I0J-100000D01*
G01*
G37*
G04 #@! TD*
G04 #@! TO.C,R9*
G36*
G01*
X3295000Y9505000D02*
X3295000Y8725000D01*
G75*
G02*
X3225000Y8655000I-70000J0D01*
G01*
X2665000Y8655000D01*
G75*
G02*
X2595000Y8725000I0J70000D01*
G01*
X2595000Y9505000D01*
G75*
G02*
X2665000Y9575000I70000J0D01*
G01*
X3225000Y9575000D01*
G75*
G02*
X3295000Y9505000I0J-70000D01*
G01*
G37*
G36*
G01*
X1695000Y9505000D02*
X1695000Y8725000D01*
G75*
G02*
X1625000Y8655000I-70000J0D01*
G01*
X1065000Y8655000D01*
G75*
G02*
X995000Y8725000I0J70000D01*
G01*
X995000Y9505000D01*
G75*
G02*
X1065000Y9575000I70000J0D01*
G01*
X1625000Y9575000D01*
G75*
G02*
X1695000Y9505000I0J-70000D01*
G01*
G37*
G04 #@! TD*
G04 #@! TO.C,C13*
G36*
G01*
X9505000Y17000001D02*
X10185000Y17000001D01*
G75*
G02*
X10270000Y16915001I0J-85000D01*
G01*
X10270000Y16235001D01*
G75*
G02*
X10185000Y16150001I-85000J0D01*
G01*
X9505000Y16150001D01*
G75*
G02*
X9420000Y16235001I0J85000D01*
G01*
X9420000Y16915001D01*
G75*
G02*
X9505000Y17000001I85000J0D01*
G01*
G37*
G36*
G01*
X9505000Y15419999D02*
X10185000Y15419999D01*
G75*
G02*
X10270000Y15334999I0J-85000D01*
G01*
X10270000Y14654999D01*
G75*
G02*
X10185000Y14569999I-85000J0D01*
G01*
X9505000Y14569999D01*
G75*
G02*
X9420000Y14654999I0J85000D01*
G01*
X9420000Y15334999D01*
G75*
G02*
X9505000Y15419999I85000J0D01*
G01*
G37*
G04 #@! TD*
G04 #@! TO.C,D1*
G36*
G01*
X51915000Y7925000D02*
X51915000Y8405000D01*
G75*
G02*
X51975000Y8465000I60000J0D01*
G01*
X52455000Y8465000D01*
G75*
G02*
X52515000Y8405000I0J-60000D01*
G01*
X52515000Y7925000D01*
G75*
G02*
X52455000Y7865000I-60000J0D01*
G01*
X51975000Y7865000D01*
G75*
G02*
X51915000Y7925000I0J60000D01*
G01*
G37*
G36*
G01*
X51915000Y5725000D02*
X51915000Y6205000D01*
G75*
G02*
X51975000Y6265000I60000J0D01*
G01*
X52455000Y6265000D01*
G75*
G02*
X52515000Y6205000I0J-60000D01*
G01*
X52515000Y5725000D01*
G75*
G02*
X52455000Y5665000I-60000J0D01*
G01*
X51975000Y5665000D01*
G75*
G02*
X51915000Y5725000I0J60000D01*
G01*
G37*
G04 #@! TD*
D27*
G04 #@! TO.C,U1*
X2555000Y21220000D03*
X3555000Y21220000D03*
X4555000Y21220000D03*
X5555000Y21220000D03*
X6555000Y21220000D03*
X7555000Y21220000D03*
X7555000Y11620000D03*
X6555000Y11620000D03*
X5555000Y11620000D03*
X4555000Y11620000D03*
X3555000Y11620000D03*
X2555000Y11620000D03*
D28*
X5055000Y16420000D03*
G04 #@! TD*
G04 #@! TO.C,R33*
G36*
G01*
X935000Y43005000D02*
X935000Y43785000D01*
G75*
G02*
X1005000Y43855000I70000J0D01*
G01*
X1565000Y43855000D01*
G75*
G02*
X1635000Y43785000I0J-70000D01*
G01*
X1635000Y43005000D01*
G75*
G02*
X1565000Y42935000I-70000J0D01*
G01*
X1005000Y42935000D01*
G75*
G02*
X935000Y43005000I0J70000D01*
G01*
G37*
G36*
G01*
X2535000Y43005000D02*
X2535000Y43785000D01*
G75*
G02*
X2605000Y43855000I70000J0D01*
G01*
X3165000Y43855000D01*
G75*
G02*
X3235000Y43785000I0J-70000D01*
G01*
X3235000Y43005000D01*
G75*
G02*
X3165000Y42935000I-70000J0D01*
G01*
X2605000Y42935000D01*
G75*
G02*
X2535000Y43005000I0J70000D01*
G01*
G37*
G04 #@! TD*
D26*
G04 #@! TO.C,F1*
X25185000Y16415000D03*
G36*
G01*
X24285000Y17069990D02*
X24285000Y17759990D01*
G75*
G02*
X24515000Y17989990I230000J0D01*
G01*
X25855000Y17989990D01*
G75*
G02*
X26085000Y17759990I0J-230000D01*
G01*
X26085000Y17069990D01*
G75*
G02*
X25855000Y16839990I-230000J0D01*
G01*
X24515000Y16839990D01*
G75*
G02*
X24285000Y17069990I0J230000D01*
G01*
G37*
G36*
G01*
X24285000Y19970010D02*
X24285000Y20660010D01*
G75*
G02*
X24515000Y20890010I230000J0D01*
G01*
X25855000Y20890010D01*
G75*
G02*
X26085000Y20660010I0J-230000D01*
G01*
X26085000Y19970010D01*
G75*
G02*
X25855000Y19740010I-230000J0D01*
G01*
X24515000Y19740010D01*
G75*
G02*
X24285000Y19970010I0J230000D01*
G01*
G37*
X25185000Y21315000D03*
G04 #@! TD*
D29*
G04 #@! TO.C,M7*
X89005004Y69982503D03*
D30*
X99354998Y70032501D03*
X98854997Y70032501D03*
D31*
X92305000Y71082499D03*
X93180002Y71607499D03*
X92004998Y72357497D03*
X92080001Y75907498D03*
G04 #@! TD*
G04 #@! TO.C,C12*
G36*
G01*
X9465000Y21485001D02*
X10145000Y21485001D01*
G75*
G02*
X10230000Y21400001I0J-85000D01*
G01*
X10230000Y20720001D01*
G75*
G02*
X10145000Y20635001I-85000J0D01*
G01*
X9465000Y20635001D01*
G75*
G02*
X9380000Y20720001I0J85000D01*
G01*
X9380000Y21400001D01*
G75*
G02*
X9465000Y21485001I85000J0D01*
G01*
G37*
G36*
G01*
X9465000Y19904999D02*
X10145000Y19904999D01*
G75*
G02*
X10230000Y19819999I0J-85000D01*
G01*
X10230000Y19139999D01*
G75*
G02*
X10145000Y19054999I-85000J0D01*
G01*
X9465000Y19054999D01*
G75*
G02*
X9380000Y19139999I0J85000D01*
G01*
X9380000Y19819999D01*
G75*
G02*
X9465000Y19904999I85000J0D01*
G01*
G37*
G04 #@! TD*
G04 #@! TO.C,U9*
G36*
G01*
X1005000Y35480000D02*
X1005000Y35780000D01*
G75*
G02*
X1155000Y35930000I150000J0D01*
G01*
X2805000Y35930000D01*
G75*
G02*
X2955000Y35780000I0J-150000D01*
G01*
X2955000Y35480000D01*
G75*
G02*
X2805000Y35330000I-150000J0D01*
G01*
X1155000Y35330000D01*
G75*
G02*
X1005000Y35480000I0J150000D01*
G01*
G37*
G36*
G01*
X1005000Y36750000D02*
X1005000Y37050000D01*
G75*
G02*
X1155000Y37200000I150000J0D01*
G01*
X2805000Y37200000D01*
G75*
G02*
X2955000Y37050000I0J-150000D01*
G01*
X2955000Y36750000D01*
G75*
G02*
X2805000Y36600000I-150000J0D01*
G01*
X1155000Y36600000D01*
G75*
G02*
X1005000Y36750000I0J150000D01*
G01*
G37*
G36*
G01*
X1005000Y38020000D02*
X1005000Y38320000D01*
G75*
G02*
X1155000Y38470000I150000J0D01*
G01*
X2805000Y38470000D01*
G75*
G02*
X2955000Y38320000I0J-150000D01*
G01*
X2955000Y38020000D01*
G75*
G02*
X2805000Y37870000I-150000J0D01*
G01*
X1155000Y37870000D01*
G75*
G02*
X1005000Y38020000I0J150000D01*
G01*
G37*
G36*
G01*
X1005000Y39290000D02*
X1005000Y39590000D01*
G75*
G02*
X1155000Y39740000I150000J0D01*
G01*
X2805000Y39740000D01*
G75*
G02*
X2955000Y39590000I0J-150000D01*
G01*
X2955000Y39290000D01*
G75*
G02*
X2805000Y39140000I-150000J0D01*
G01*
X1155000Y39140000D01*
G75*
G02*
X1005000Y39290000I0J150000D01*
G01*
G37*
G36*
G01*
X5955000Y39290000D02*
X5955000Y39590000D01*
G75*
G02*
X6105000Y39740000I150000J0D01*
G01*
X7755000Y39740000D01*
G75*
G02*
X7905000Y39590000I0J-150000D01*
G01*
X7905000Y39290000D01*
G75*
G02*
X7755000Y39140000I-150000J0D01*
G01*
X6105000Y39140000D01*
G75*
G02*
X5955000Y39290000I0J150000D01*
G01*
G37*
G36*
G01*
X5955000Y38020000D02*
X5955000Y38320000D01*
G75*
G02*
X6105000Y38470000I150000J0D01*
G01*
X7755000Y38470000D01*
G75*
G02*
X7905000Y38320000I0J-150000D01*
G01*
X7905000Y38020000D01*
G75*
G02*
X7755000Y37870000I-150000J0D01*
G01*
X6105000Y37870000D01*
G75*
G02*
X5955000Y38020000I0J150000D01*
G01*
G37*
G36*
G01*
X5955000Y36750000D02*
X5955000Y37050000D01*
G75*
G02*
X6105000Y37200000I150000J0D01*
G01*
X7755000Y37200000D01*
G75*
G02*
X7905000Y37050000I0J-150000D01*
G01*
X7905000Y36750000D01*
G75*
G02*
X7755000Y36600000I-150000J0D01*
G01*
X6105000Y36600000D01*
G75*
G02*
X5955000Y36750000I0J150000D01*
G01*
G37*
G36*
G01*
X5955000Y35480000D02*
X5955000Y35780000D01*
G75*
G02*
X6105000Y35930000I150000J0D01*
G01*
X7755000Y35930000D01*
G75*
G02*
X7905000Y35780000I0J-150000D01*
G01*
X7905000Y35480000D01*
G75*
G02*
X7755000Y35330000I-150000J0D01*
G01*
X6105000Y35330000D01*
G75*
G02*
X5955000Y35480000I0J150000D01*
G01*
G37*
G04 #@! TD*
G04 #@! TO.C,R30*
G36*
G01*
X935000Y40525000D02*
X935000Y41305000D01*
G75*
G02*
X1005000Y41375000I70000J0D01*
G01*
X1565000Y41375000D01*
G75*
G02*
X1635000Y41305000I0J-70000D01*
G01*
X1635000Y40525000D01*
G75*
G02*
X1565000Y40455000I-70000J0D01*
G01*
X1005000Y40455000D01*
G75*
G02*
X935000Y40525000I0J70000D01*
G01*
G37*
G36*
G01*
X2535000Y40525000D02*
X2535000Y41305000D01*
G75*
G02*
X2605000Y41375000I70000J0D01*
G01*
X3165000Y41375000D01*
G75*
G02*
X3235000Y41305000I0J-70000D01*
G01*
X3235000Y40525000D01*
G75*
G02*
X3165000Y40455000I-70000J0D01*
G01*
X2605000Y40455000D01*
G75*
G02*
X2535000Y40525000I0J70000D01*
G01*
G37*
G04 #@! TD*
G04 #@! TO.C,R3*
G36*
G01*
X20135000Y7525000D02*
X20135000Y8305000D01*
G75*
G02*
X20205000Y8375000I70000J0D01*
G01*
X20765000Y8375000D01*
G75*
G02*
X20835000Y8305000I0J-70000D01*
G01*
X20835000Y7525000D01*
G75*
G02*
X20765000Y7455000I-70000J0D01*
G01*
X20205000Y7455000D01*
G75*
G02*
X20135000Y7525000I0J70000D01*
G01*
G37*
G36*
G01*
X21735000Y7525000D02*
X21735000Y8305000D01*
G75*
G02*
X21805000Y8375000I70000J0D01*
G01*
X22365000Y8375000D01*
G75*
G02*
X22435000Y8305000I0J-70000D01*
G01*
X22435000Y7525000D01*
G75*
G02*
X22365000Y7455000I-70000J0D01*
G01*
X21805000Y7455000D01*
G75*
G02*
X21735000Y7525000I0J70000D01*
G01*
G37*
G04 #@! TD*
G04 #@! TO.C,R35*
G36*
G01*
X107345022Y59270000D02*
X107345022Y58020000D01*
G75*
G02*
X107245022Y57920000I-100000J0D01*
G01*
X106445022Y57920000D01*
G75*
G02*
X106345022Y58020000I0J100000D01*
G01*
X106345022Y59270000D01*
G75*
G02*
X106445022Y59370000I100000J0D01*
G01*
X107245022Y59370000D01*
G75*
G02*
X107345022Y59270000I0J-100000D01*
G01*
G37*
G36*
G01*
X105445000Y59270000D02*
X105445000Y58020000D01*
G75*
G02*
X105345000Y57920000I-100000J0D01*
G01*
X104545000Y57920000D01*
G75*
G02*
X104445000Y58020000I0J100000D01*
G01*
X104445000Y59270000D01*
G75*
G02*
X104545000Y59370000I100000J0D01*
G01*
X105345000Y59370000D01*
G75*
G02*
X105445000Y59270000I0J-100000D01*
G01*
G37*
G04 #@! TD*
G04 #@! TO.C,R13*
G36*
G01*
X935000Y31305000D02*
X935000Y32085000D01*
G75*
G02*
X1005000Y32155000I70000J0D01*
G01*
X1565000Y32155000D01*
G75*
G02*
X1635000Y32085000I0J-70000D01*
G01*
X1635000Y31305000D01*
G75*
G02*
X1565000Y31235000I-70000J0D01*
G01*
X1005000Y31235000D01*
G75*
G02*
X935000Y31305000I0J70000D01*
G01*
G37*
G36*
G01*
X2535000Y31305000D02*
X2535000Y32085000D01*
G75*
G02*
X2605000Y32155000I70000J0D01*
G01*
X3165000Y32155000D01*
G75*
G02*
X3235000Y32085000I0J-70000D01*
G01*
X3235000Y31305000D01*
G75*
G02*
X3165000Y31235000I-70000J0D01*
G01*
X2605000Y31235000D01*
G75*
G02*
X2535000Y31305000I0J70000D01*
G01*
G37*
G04 #@! TD*
D26*
G04 #@! TO.C,F2*
X21055000Y13915000D03*
G36*
G01*
X21709990Y14815000D02*
X22399990Y14815000D01*
G75*
G02*
X22629990Y14585000I0J-230000D01*
G01*
X22629990Y13245000D01*
G75*
G02*
X22399990Y13015000I-230000J0D01*
G01*
X21709990Y13015000D01*
G75*
G02*
X21479990Y13245000I0J230000D01*
G01*
X21479990Y14585000D01*
G75*
G02*
X21709990Y14815000I230000J0D01*
G01*
G37*
G36*
G01*
X24610010Y14815000D02*
X25300010Y14815000D01*
G75*
G02*
X25530010Y14585000I0J-230000D01*
G01*
X25530010Y13245000D01*
G75*
G02*
X25300010Y13015000I-230000J0D01*
G01*
X24610010Y13015000D01*
G75*
G02*
X24380010Y13245000I0J230000D01*
G01*
X24380010Y14585000D01*
G75*
G02*
X24610010Y14815000I230000J0D01*
G01*
G37*
X25955000Y13915000D03*
G04 #@! TD*
G04 #@! TO.C,R38*
G36*
G01*
X103895022Y59270000D02*
X103895022Y58020000D01*
G75*
G02*
X103795022Y57920000I-100000J0D01*
G01*
X102995022Y57920000D01*
G75*
G02*
X102895022Y58020000I0J100000D01*
G01*
X102895022Y59270000D01*
G75*
G02*
X102995022Y59370000I100000J0D01*
G01*
X103795022Y59370000D01*
G75*
G02*
X103895022Y59270000I0J-100000D01*
G01*
G37*
G36*
G01*
X101995000Y59270000D02*
X101995000Y58020000D01*
G75*
G02*
X101895000Y57920000I-100000J0D01*
G01*
X101095000Y57920000D01*
G75*
G02*
X100995000Y58020000I0J100000D01*
G01*
X100995000Y59270000D01*
G75*
G02*
X101095000Y59370000I100000J0D01*
G01*
X101895000Y59370000D01*
G75*
G02*
X101995000Y59270000I0J-100000D01*
G01*
G37*
G04 #@! TD*
G04 #@! TO.C,R36*
G36*
G01*
X107345022Y61770000D02*
X107345022Y60520000D01*
G75*
G02*
X107245022Y60420000I-100000J0D01*
G01*
X106445022Y60420000D01*
G75*
G02*
X106345022Y60520000I0J100000D01*
G01*
X106345022Y61770000D01*
G75*
G02*
X106445022Y61870000I100000J0D01*
G01*
X107245022Y61870000D01*
G75*
G02*
X107345022Y61770000I0J-100000D01*
G01*
G37*
G36*
G01*
X105445000Y61770000D02*
X105445000Y60520000D01*
G75*
G02*
X105345000Y60420000I-100000J0D01*
G01*
X104545000Y60420000D01*
G75*
G02*
X104445000Y60520000I0J100000D01*
G01*
X104445000Y61770000D01*
G75*
G02*
X104545000Y61870000I100000J0D01*
G01*
X105345000Y61870000D01*
G75*
G02*
X105445000Y61770000I0J-100000D01*
G01*
G37*
G04 #@! TD*
G04 #@! TO.C,Q9*
G36*
G01*
X34995000Y58085000D02*
X34995000Y57385000D01*
G75*
G02*
X34745000Y57135000I-250000J0D01*
G01*
X33045000Y57135000D01*
G75*
G02*
X32795000Y57385000I0J250000D01*
G01*
X32795000Y58085000D01*
G75*
G02*
X33045000Y58335000I250000J0D01*
G01*
X34745000Y58335000D01*
G75*
G02*
X34995000Y58085000I0J-250000D01*
G01*
G37*
G36*
G01*
X30795000Y58105003D02*
X30795000Y52804997D01*
G75*
G02*
X30545003Y52555000I-249997J0D01*
G01*
X24644997Y52555000D01*
G75*
G02*
X24395000Y52804997I0J249997D01*
G01*
X24395000Y58105003D01*
G75*
G02*
X24644997Y58355000I249997J0D01*
G01*
X30545003Y58355000D01*
G75*
G02*
X30795000Y58105003I0J-249997D01*
G01*
G37*
G36*
G01*
X34995000Y53525000D02*
X34995000Y52825000D01*
G75*
G02*
X34745000Y52575000I-250000J0D01*
G01*
X33045000Y52575000D01*
G75*
G02*
X32795000Y52825000I0J250000D01*
G01*
X32795000Y53525000D01*
G75*
G02*
X33045000Y53775000I250000J0D01*
G01*
X34745000Y53775000D01*
G75*
G02*
X34995000Y53525000I0J-250000D01*
G01*
G37*
G04 #@! TD*
G04 #@! TO.C,R29*
G36*
G01*
X935000Y33775000D02*
X935000Y34555000D01*
G75*
G02*
X1005000Y34625000I70000J0D01*
G01*
X1565000Y34625000D01*
G75*
G02*
X1635000Y34555000I0J-70000D01*
G01*
X1635000Y33775000D01*
G75*
G02*
X1565000Y33705000I-70000J0D01*
G01*
X1005000Y33705000D01*
G75*
G02*
X935000Y33775000I0J70000D01*
G01*
G37*
G36*
G01*
X2535000Y33775000D02*
X2535000Y34555000D01*
G75*
G02*
X2605000Y34625000I70000J0D01*
G01*
X3165000Y34625000D01*
G75*
G02*
X3235000Y34555000I0J-70000D01*
G01*
X3235000Y33775000D01*
G75*
G02*
X3165000Y33705000I-70000J0D01*
G01*
X2605000Y33705000D01*
G75*
G02*
X2535000Y33775000I0J70000D01*
G01*
G37*
G04 #@! TD*
G04 #@! TO.C,Q11*
G36*
G01*
X35020000Y41855000D02*
X35020000Y41155000D01*
G75*
G02*
X34770000Y40905000I-250000J0D01*
G01*
X33070000Y40905000D01*
G75*
G02*
X32820000Y41155000I0J250000D01*
G01*
X32820000Y41855000D01*
G75*
G02*
X33070000Y42105000I250000J0D01*
G01*
X34770000Y42105000D01*
G75*
G02*
X35020000Y41855000I0J-250000D01*
G01*
G37*
G36*
G01*
X30820000Y41875003D02*
X30820000Y36574997D01*
G75*
G02*
X30570003Y36325000I-249997J0D01*
G01*
X24669997Y36325000D01*
G75*
G02*
X24420000Y36574997I0J249997D01*
G01*
X24420000Y41875003D01*
G75*
G02*
X24669997Y42125000I249997J0D01*
G01*
X30570003Y42125000D01*
G75*
G02*
X30820000Y41875003I0J-249997D01*
G01*
G37*
G36*
G01*
X35020000Y37295000D02*
X35020000Y36595000D01*
G75*
G02*
X34770000Y36345000I-250000J0D01*
G01*
X33070000Y36345000D01*
G75*
G02*
X32820000Y36595000I0J250000D01*
G01*
X32820000Y37295000D01*
G75*
G02*
X33070000Y37545000I250000J0D01*
G01*
X34770000Y37545000D01*
G75*
G02*
X35020000Y37295000I0J-250000D01*
G01*
G37*
G04 #@! TD*
D27*
G04 #@! TO.C,U2*
X11165000Y12205000D03*
X12165000Y12205000D03*
X13165000Y12205000D03*
X14165000Y12205000D03*
X15165000Y12205000D03*
X16165000Y12205000D03*
X16165000Y2605000D03*
X15165000Y2605000D03*
X14165000Y2605000D03*
X13165000Y2605000D03*
X12165000Y2605000D03*
X11165000Y2605000D03*
D28*
X13665000Y7405000D03*
G04 #@! TD*
G04 #@! TO.C,D5*
G36*
G01*
X4855000Y31615000D02*
X4855000Y32635000D01*
G75*
G02*
X4945000Y32725000I90000J0D01*
G01*
X5665000Y32725000D01*
G75*
G02*
X5755000Y32635000I0J-90000D01*
G01*
X5755000Y31615000D01*
G75*
G02*
X5665000Y31525000I-90000J0D01*
G01*
X4945000Y31525000D01*
G75*
G02*
X4855000Y31615000I0J90000D01*
G01*
G37*
G36*
G01*
X8155000Y31615000D02*
X8155000Y32635000D01*
G75*
G02*
X8245000Y32725000I90000J0D01*
G01*
X8965000Y32725000D01*
G75*
G02*
X9055000Y32635000I0J-90000D01*
G01*
X9055000Y31615000D01*
G75*
G02*
X8965000Y31525000I-90000J0D01*
G01*
X8245000Y31525000D01*
G75*
G02*
X8155000Y31615000I0J90000D01*
G01*
G37*
G04 #@! TD*
G04 #@! TO.C,C26*
G36*
G01*
X15880000Y14075000D02*
X15880000Y14755000D01*
G75*
G02*
X15965000Y14840000I85000J0D01*
G01*
X16645000Y14840000D01*
G75*
G02*
X16730000Y14755000I0J-85000D01*
G01*
X16730000Y14075000D01*
G75*
G02*
X16645000Y13990000I-85000J0D01*
G01*
X15965000Y13990000D01*
G75*
G02*
X15880000Y14075000I0J85000D01*
G01*
G37*
G36*
G01*
X17460002Y14075000D02*
X17460002Y14755000D01*
G75*
G02*
X17545002Y14840000I85000J0D01*
G01*
X18225002Y14840000D01*
G75*
G02*
X18310002Y14755000I0J-85000D01*
G01*
X18310002Y14075000D01*
G75*
G02*
X18225002Y13990000I-85000J0D01*
G01*
X17545002Y13990000D01*
G75*
G02*
X17460002Y14075000I0J85000D01*
G01*
G37*
G04 #@! TD*
G04 #@! TO.C,R12*
G36*
G01*
X955000Y24435000D02*
X955000Y25215000D01*
G75*
G02*
X1025000Y25285000I70000J0D01*
G01*
X1585000Y25285000D01*
G75*
G02*
X1655000Y25215000I0J-70000D01*
G01*
X1655000Y24435000D01*
G75*
G02*
X1585000Y24365000I-70000J0D01*
G01*
X1025000Y24365000D01*
G75*
G02*
X955000Y24435000I0J70000D01*
G01*
G37*
G36*
G01*
X2555000Y24435000D02*
X2555000Y25215000D01*
G75*
G02*
X2625000Y25285000I70000J0D01*
G01*
X3185000Y25285000D01*
G75*
G02*
X3255000Y25215000I0J-70000D01*
G01*
X3255000Y24435000D01*
G75*
G02*
X3185000Y24365000I-70000J0D01*
G01*
X2625000Y24365000D01*
G75*
G02*
X2555000Y24435000I0J70000D01*
G01*
G37*
G04 #@! TD*
G04 #@! TO.C,R5*
G36*
G01*
X103425000Y30555000D02*
X102645000Y30555000D01*
G75*
G02*
X102575000Y30625000I0J70000D01*
G01*
X102575000Y31185000D01*
G75*
G02*
X102645000Y31255000I70000J0D01*
G01*
X103425000Y31255000D01*
G75*
G02*
X103495000Y31185000I0J-70000D01*
G01*
X103495000Y30625000D01*
G75*
G02*
X103425000Y30555000I-70000J0D01*
G01*
G37*
G36*
G01*
X103425000Y32155000D02*
X102645000Y32155000D01*
G75*
G02*
X102575000Y32225000I0J70000D01*
G01*
X102575000Y32785000D01*
G75*
G02*
X102645000Y32855000I70000J0D01*
G01*
X103425000Y32855000D01*
G75*
G02*
X103495000Y32785000I0J-70000D01*
G01*
X103495000Y32225000D01*
G75*
G02*
X103425000Y32155000I-70000J0D01*
G01*
G37*
G04 #@! TD*
G04 #@! TO.C,R6*
G36*
G01*
X89225000Y68775000D02*
X89225000Y67995000D01*
G75*
G02*
X89155000Y67925000I-70000J0D01*
G01*
X88595000Y67925000D01*
G75*
G02*
X88525000Y67995000I0J70000D01*
G01*
X88525000Y68775000D01*
G75*
G02*
X88595000Y68845000I70000J0D01*
G01*
X89155000Y68845000D01*
G75*
G02*
X89225000Y68775000I0J-70000D01*
G01*
G37*
G36*
G01*
X87625000Y68775000D02*
X87625000Y67995000D01*
G75*
G02*
X87555000Y67925000I-70000J0D01*
G01*
X86995000Y67925000D01*
G75*
G02*
X86925000Y67995000I0J70000D01*
G01*
X86925000Y68775000D01*
G75*
G02*
X86995000Y68845000I70000J0D01*
G01*
X87555000Y68845000D01*
G75*
G02*
X87625000Y68775000I0J-70000D01*
G01*
G37*
G04 #@! TD*
G04 #@! TO.C,R2*
G36*
G01*
X24455000Y7525000D02*
X24455000Y8305000D01*
G75*
G02*
X24525000Y8375000I70000J0D01*
G01*
X25085000Y8375000D01*
G75*
G02*
X25155000Y8305000I0J-70000D01*
G01*
X25155000Y7525000D01*
G75*
G02*
X25085000Y7455000I-70000J0D01*
G01*
X24525000Y7455000D01*
G75*
G02*
X24455000Y7525000I0J70000D01*
G01*
G37*
G36*
G01*
X26055000Y7525000D02*
X26055000Y8305000D01*
G75*
G02*
X26125000Y8375000I70000J0D01*
G01*
X26685000Y8375000D01*
G75*
G02*
X26755000Y8305000I0J-70000D01*
G01*
X26755000Y7525000D01*
G75*
G02*
X26685000Y7455000I-70000J0D01*
G01*
X26125000Y7455000D01*
G75*
G02*
X26055000Y7525000I0J70000D01*
G01*
G37*
G04 #@! TD*
G04 #@! TO.C,R7*
G36*
G01*
X10505000Y1995000D02*
X10505000Y1215000D01*
G75*
G02*
X10435000Y1145000I-70000J0D01*
G01*
X9875000Y1145000D01*
G75*
G02*
X9805000Y1215000I0J70000D01*
G01*
X9805000Y1995000D01*
G75*
G02*
X9875000Y2065000I70000J0D01*
G01*
X10435000Y2065000D01*
G75*
G02*
X10505000Y1995000I0J-70000D01*
G01*
G37*
G36*
G01*
X8905000Y1995000D02*
X8905000Y1215000D01*
G75*
G02*
X8835000Y1145000I-70000J0D01*
G01*
X8275000Y1145000D01*
G75*
G02*
X8205000Y1215000I0J70000D01*
G01*
X8205000Y1995000D01*
G75*
G02*
X8275000Y2065000I70000J0D01*
G01*
X8835000Y2065000D01*
G75*
G02*
X8905000Y1995000I0J-70000D01*
G01*
G37*
G04 #@! TD*
G04 #@! TO.C,Q7*
G36*
G01*
X9355000Y74465000D02*
X10055000Y74465000D01*
G75*
G02*
X10305000Y74215000I0J-250000D01*
G01*
X10305000Y72515000D01*
G75*
G02*
X10055000Y72265000I-250000J0D01*
G01*
X9355000Y72265000D01*
G75*
G02*
X9105000Y72515000I0J250000D01*
G01*
X9105000Y74215000D01*
G75*
G02*
X9355000Y74465000I250000J0D01*
G01*
G37*
G36*
G01*
X9334997Y70265000D02*
X14635003Y70265000D01*
G75*
G02*
X14885000Y70015003I0J-249997D01*
G01*
X14885000Y64114997D01*
G75*
G02*
X14635003Y63865000I-249997J0D01*
G01*
X9334997Y63865000D01*
G75*
G02*
X9085000Y64114997I0J249997D01*
G01*
X9085000Y70015003D01*
G75*
G02*
X9334997Y70265000I249997J0D01*
G01*
G37*
G36*
G01*
X13915000Y74465000D02*
X14615000Y74465000D01*
G75*
G02*
X14865000Y74215000I0J-250000D01*
G01*
X14865000Y72515000D01*
G75*
G02*
X14615000Y72265000I-250000J0D01*
G01*
X13915000Y72265000D01*
G75*
G02*
X13665000Y72515000I0J250000D01*
G01*
X13665000Y74215000D01*
G75*
G02*
X13915000Y74465000I250000J0D01*
G01*
G37*
G04 #@! TD*
G04 #@! TO.C,U8*
G36*
G01*
X990000Y26265000D02*
X990000Y26565000D01*
G75*
G02*
X1140000Y26715000I150000J0D01*
G01*
X2790000Y26715000D01*
G75*
G02*
X2940000Y26565000I0J-150000D01*
G01*
X2940000Y26265000D01*
G75*
G02*
X2790000Y26115000I-150000J0D01*
G01*
X1140000Y26115000D01*
G75*
G02*
X990000Y26265000I0J150000D01*
G01*
G37*
G36*
G01*
X990000Y27535000D02*
X990000Y27835000D01*
G75*
G02*
X1140000Y27985000I150000J0D01*
G01*
X2790000Y27985000D01*
G75*
G02*
X2940000Y27835000I0J-150000D01*
G01*
X2940000Y27535000D01*
G75*
G02*
X2790000Y27385000I-150000J0D01*
G01*
X1140000Y27385000D01*
G75*
G02*
X990000Y27535000I0J150000D01*
G01*
G37*
G36*
G01*
X990000Y28805000D02*
X990000Y29105000D01*
G75*
G02*
X1140000Y29255000I150000J0D01*
G01*
X2790000Y29255000D01*
G75*
G02*
X2940000Y29105000I0J-150000D01*
G01*
X2940000Y28805000D01*
G75*
G02*
X2790000Y28655000I-150000J0D01*
G01*
X1140000Y28655000D01*
G75*
G02*
X990000Y28805000I0J150000D01*
G01*
G37*
G36*
G01*
X990000Y30075000D02*
X990000Y30375000D01*
G75*
G02*
X1140000Y30525000I150000J0D01*
G01*
X2790000Y30525000D01*
G75*
G02*
X2940000Y30375000I0J-150000D01*
G01*
X2940000Y30075000D01*
G75*
G02*
X2790000Y29925000I-150000J0D01*
G01*
X1140000Y29925000D01*
G75*
G02*
X990000Y30075000I0J150000D01*
G01*
G37*
G36*
G01*
X5940000Y30075000D02*
X5940000Y30375000D01*
G75*
G02*
X6090000Y30525000I150000J0D01*
G01*
X7740000Y30525000D01*
G75*
G02*
X7890000Y30375000I0J-150000D01*
G01*
X7890000Y30075000D01*
G75*
G02*
X7740000Y29925000I-150000J0D01*
G01*
X6090000Y29925000D01*
G75*
G02*
X5940000Y30075000I0J150000D01*
G01*
G37*
G36*
G01*
X5940000Y28805000D02*
X5940000Y29105000D01*
G75*
G02*
X6090000Y29255000I150000J0D01*
G01*
X7740000Y29255000D01*
G75*
G02*
X7890000Y29105000I0J-150000D01*
G01*
X7890000Y28805000D01*
G75*
G02*
X7740000Y28655000I-150000J0D01*
G01*
X6090000Y28655000D01*
G75*
G02*
X5940000Y28805000I0J150000D01*
G01*
G37*
G36*
G01*
X5940000Y27535000D02*
X5940000Y27835000D01*
G75*
G02*
X6090000Y27985000I150000J0D01*
G01*
X7740000Y27985000D01*
G75*
G02*
X7890000Y27835000I0J-150000D01*
G01*
X7890000Y27535000D01*
G75*
G02*
X7740000Y27385000I-150000J0D01*
G01*
X6090000Y27385000D01*
G75*
G02*
X5940000Y27535000I0J150000D01*
G01*
G37*
G36*
G01*
X5940000Y26265000D02*
X5940000Y26565000D01*
G75*
G02*
X6090000Y26715000I150000J0D01*
G01*
X7740000Y26715000D01*
G75*
G02*
X7890000Y26565000I0J-150000D01*
G01*
X7890000Y26265000D01*
G75*
G02*
X7740000Y26115000I-150000J0D01*
G01*
X6090000Y26115000D01*
G75*
G02*
X5940000Y26265000I0J150000D01*
G01*
G37*
G04 #@! TD*
M02*
